<?xml version="1.0" encoding="UTF-8"?>
<!DOCTYPE svg PUBLIC "-//W3C//DTD SVG 1.1//EN" "http://www.w3.org/Graphics/SVG/1.1/DTD/svg11.dtd">
<!-- Creator: CorelDRAW 2018 (64 Bit Versão de avaliação) -->
<svg xmlns="http://www.w3.org/2000/svg" xml:space="preserve" width="100mm" height="84.84mm" version="1.1" style="shape-rendering:geometricPrecision; text-rendering:geometricPrecision; image-rendering:optimizeQuality; fill-rule:evenodd; clip-rule:evenodd"
viewBox="0 0 10000 8484"
 xmlns:xlink="http://www.w3.org/1999/xlink">
 <defs>
  <style type="text/css">
   <![CDATA[
    .fil22 {fill:none}
    .fil1 {fill:#E6E6E6}
    .fil0 {fill:white}
    .fil11 {fill:#2D3336;fill-rule:nonzero}
    .fil9 {fill:#313F44;fill-rule:nonzero}
    .fil21 {fill:#3D5159;fill-rule:nonzero}
    .fil19 {fill:#3D535B;fill-rule:nonzero}
    .fil17 {fill:#44616B;fill-rule:nonzero}
    .fil18 {fill:#995D68;fill-rule:nonzero}
    .fil10 {fill:#BE444B;fill-rule:nonzero}
    .fil20 {fill:#CECFCF;fill-rule:nonzero}
    .fil8 {fill:#D84B52;fill-rule:nonzero}
    .fil4 {fill:#E0E1E2;fill-rule:nonzero}
    .fil6 {fill:#E8E7E8;fill-rule:nonzero}
    .fil3 {fill:#EDEDEB;fill-rule:nonzero}
    .fil7 {fill:#F05B66;fill-rule:nonzero}
    .fil2 {fill:#F3F4F4;fill-rule:nonzero}
    .fil14 {fill:#F79A73;fill-rule:nonzero}
    .fil16 {fill:#F8A27C;fill-rule:nonzero}
    .fil15 {fill:#F9AF91;fill-rule:nonzero}
    .fil12 {fill:#F9F8F8;fill-rule:nonzero}
    .fil13 {fill:#FABBA3;fill-rule:nonzero}
    .fil5 {fill:#FEFEFE;fill-rule:nonzero}
   ]]>
  </style>
   <clipPath id="id0">
    <path d="M-0 0.23l10000 0 0 8483.59 -10000 0 0 -8483.59z"/>
   </clipPath>
 </defs>
 <g id="Camada_x0020_1">
  <metadata id="CorelCorpID_0Corel-Layer"/>
  <polygon class="fil0" points="-0,0.23 10000,0.23 10000,8483.82 -0,8483.82 "/>
  <g style="clip-path:url(#id0)">
   <g id="_2369900215216">
    <rect class="fil1" x="-889.44" y="7987.75" width="12082.66" height="1412.38"/>
    <path id="_1" class="fil2" d="M6169.43 877.48c67.12,461.95 -253.79,890.96 -716.75,958.24 -463.03,67.29 -892.78,-252.63 -959.89,-714.58 -67.14,-461.91 253.76,-890.94 716.77,-958.2 462.98,-67.3 892.76,252.62 959.87,714.54z"/>
    <path class="fil3" d="M5969.96 906.47c51.18,352.01 -193.39,678.94 -546.24,730.24 -352.81,51.28 -680.31,-192.53 -731.47,-544.53 -51.15,-352.04 193.4,-678.96 546.21,-730.23 352.84,-51.28 680.33,192.52 731.5,544.52z"/>
    <path class="fil4" d="M5966.91 886.48c-3.85,0.7 -10.65,-26.94 -28.07,-74.38 -17.59,-47.1 -47.13,-114.64 -102.14,-185.08 -27.44,-35.07 -61.04,-70.71 -101.44,-103.81 -40.64,-32.7 -87.64,-63.32 -141.07,-87.21 -26.64,-12.02 -54.68,-22.78 -84.12,-31.09 -29.36,-8.46 -59.86,-15.46 -91.38,-19.43 -31.44,-4.06 -63.76,-6.46 -96.55,-5.63 -32.79,0.78 -65.97,3.93 -99.18,9.6 -33.16,6.12 -65.4,14.57 -96.41,25.1 -31.1,10.52 -60.6,23.89 -88.77,38.53 -28.23,14.58 -54.47,31.66 -79.13,49.7 -24.78,17.91 -47.38,37.71 -68.28,58.15 -41.91,40.83 -75.53,85.78 -102.39,130.46 -26.51,44.96 -45.81,89.97 -59.51,132.37 -27.34,85.06 -31.84,158.63 -32.12,208.91 0.02,50.51 3.17,78.8 -0.71,79.47 -2.84,0.56 -12.49,-26.7 -18.52,-78.44 -5.67,-51.43 -6.66,-128.59 17.78,-219.74 12.27,-45.41 30.75,-94 57.44,-142.81 27.01,-48.51 61.65,-97.52 105.74,-142.28 21.94,-22.44 45.87,-44.09 72.22,-63.79 26.26,-19.83 54.3,-38.56 84.57,-54.62 30.21,-16.13 61.99,-30.78 95.49,-42.3 33.44,-11.54 68.24,-20.74 103.96,-27.3 35.84,-6.14 71.64,-9.47 107.01,-10.13 35.41,-0.71 70.26,2.14 104.18,6.86 33.95,4.64 66.76,12.57 98.19,22.16 31.53,9.42 61.47,21.53 89.78,35.01 56.79,26.86 106.2,60.92 148.3,97.2 41.79,36.63 75.95,75.91 103.09,114.29 54.34,77.17 79.99,149.94 92.42,200.2 12.14,50.67 12.49,79.56 9.62,80.03z"/>
    <path class="fil4" d="M5498.24 1159.18c-5.55,-34.73 -37.31,-48.94 -82.33,-57.01l21.9 136.84c47.84,-18.83 65.51,-48.11 60.43,-79.83zm-208.77 -211.64l-22.56 -140.77c-50.63,20.3 -66.83,52.4 -61.61,85.12 5.55,34.68 38.32,48.79 84.17,55.65zm169.28 422.34l17.8 111.05 -99.14 15.84 -17.29 -108.06c-99.1,9.77 -198.2,-5.87 -259.57,-39.77l35.15 -129.69c55.46,28.75 131.11,44.09 203.63,39.59l-26.54 -165.57c-114.33,-9.12 -243.13,-26.13 -265.83,-167.91 -16.81,-105.09 45.08,-207.52 198.86,-250.44l-17.64 -110.05 99.16 -15.89 17.3 108.08c75.3,-5.95 150.83,2.29 210.91,28.24l-30.01 129.9c-55.17,-20.66 -109.43,-29.25 -159.98,-27.3l27 168.56c114.15,8.15 241.02,25.48 263.38,165.25 16.51,103.13 -44.56,204.41 -197.19,248.17z"/>
    <path class="fil4" d="M3421.95 5891.36l-3845.94 -1197.14c-98.81,-30.75 -153.97,-135.78 -123.22,-234.58l739.52 -2375.81c30.77,-98.79 135.81,-153.96 234.6,-123.21l3845.96 1197.18c98.8,30.75 153.97,135.78 123.22,234.58l-739.54 2375.76c-30.75,98.82 -135.78,153.97 -234.6,123.22z"/>
    <path class="fil5" d="M3634.52 3656.6c-49.87,160.24 -220.22,249.69 -380.46,199.83 -160.26,-49.88 -249.71,-220.23 -199.81,-380.47 49.88,-160.24 220.21,-249.7 380.43,-199.84 160.24,49.91 249.71,220.22 199.84,380.48z"/>
    <path class="fil5" d="M3730.33 3385.88c-137.39,-17.32 -272.04,65.87 -314.59,202.61 -47.77,153.41 38.17,317.12 191.61,364.9 74.38,23.15 153.26,15.92 222.19,-20.24 68.91,-36.22 119.6,-97.08 142.73,-171.42 47.76,-153.42 -38.2,-317.11 -191.64,-364.93 -16.69,-5.19 -33.52,-8.8 -50.3,-10.92zm-75.23 603.23c-18.51,-2.34 -36.93,-6.32 -55.13,-11.99 -166.52,-51.88 -259.81,-229.51 -207.95,-396.01 51.8,-166.49 229.4,-259.88 395.99,-208.03 166.5,51.87 259.79,229.54 207.99,396.04 -25.1,80.67 -80.13,146.72 -154.9,186.01 -57.97,30.45 -122.4,41.99 -186,33.98z"/>
    <polygon class="fil5" points="75.94,3769.82 3.31,4003.19 -20.7,3995.73 45.29,3783.71 -9.7,3766.6 -3.04,3745.24 "/>
    <path class="fil5" d="M249.92 4056.54l-6.61 21.36 -163.69 -50.96 5.28 -17.01 126.58 -64.81c34.43,-17.78 44.32,-31.91 49.3,-47.91 8.41,-27.02 -5.41,-49.58 -41.06,-60.67 -27.35,-8.52 -50.96,-6.73 -71.8,6.17l-12.41 -19.98c24.64,-15.72 57.37,-18.68 93.04,-7.6 47.34,14.72 69.88,48.1 57.74,87.09 -6.94,22.34 -20.2,40.15 -61.09,61.08l-103.62 53.31 128.34 39.93z"/>
    <polygon class="fil5" points="508.05,4093.01 461.38,4078.5 442.29,4139.84 418.3,4132.36 437.37,4071.02 305.7,4030.03 311.1,4012.69 482.95,3896.53 509.61,3904.82 343.35,4018.35 444.69,4049.91 461.52,3995.89 484.83,4003.15 468.02,4057.15 514.71,4071.68 "/>
    <polygon class="fil5" points="865.67,4204.34 819.03,4189.83 799.92,4251.17 775.93,4243.7 795.03,4182.36 663.35,4141.36 668.76,4124.02 840.58,4007.83 867.24,4016.13 700.98,4129.65 802.32,4161.21 819.13,4107.22 842.46,4114.46 825.65,4168.48 872.32,4183.01 "/>
    <path class="fil5" d="M1071.93 4260.51c-12.33,39.66 -49.68,62.05 -106.69,44.3 -33.69,-10.5 -62.05,-32.11 -74.33,-56.06l17.59 -15.35c10.12,20.34 33.26,39.95 63.27,49.29 39.66,12.37 66.69,-0.45 75.51,-28.79 9.34,-29.99 -3.56,-54.49 -62.86,-72.95l-49.69 -15.44 48.44 -113.3 127.67 39.75 -6.64 21.35 -106.69 -33.22 -31.12 71.86 30.01 9.34c70.32,21.9 88.39,57.86 75.53,99.22z"/>
    <path class="fil5" d="M1278.99 4324.56c9.56,-30.65 -6.98,-57.36 -43.01,-68.59 -35.67,-11.09 -66.85,3.33 -75.85,32.35 -8.01,25.67 5.77,56.62 46.09,69.18 33.7,10.51 63.14,-1.9 72.77,-32.94zm23.91 6.72c-13.6,43.69 -56.64,61 -102,46.88 -62,-19.3 -82.3,-72.79 -59.37,-146.46 24.72,-79.35 80.9,-107.21 144.26,-87.48 21,6.54 39.53,16.35 51.39,29.89l-15.69 16.32c-9.53,-11.7 -24.58,-19.69 -41.9,-25.08 -50.32,-15.68 -92.74,6.6 -112.47,69.94 -1.68,5.31 -3.41,12.09 -4.89,19.31 19.64,-22.03 51.42,-27.86 83.79,-17.8 46.32,14.43 70.16,51.82 56.88,94.48z"/>
    <path class="fil5" d="M1621.34 4433.34c-12.14,39.01 -49.8,60.18 -106.14,42.66 -33.7,-10.47 -62.37,-32.2 -74.66,-56.17l17.56 -15.36c10.13,20.34 33.59,40.07 63.94,49.52 38.66,12.03 65.63,0.68 74.63,-28.33 8.73,-27.99 -5.21,-52.44 -48.56,-65.94l-16.66 -5.17 5.46 -17.68 89.92 -60.88 -119.36 -37.15 6.66 -21.33 150.01 46.68 -5.3 17.01 -91.86 62.45c49.2,18.25 65.98,52.35 54.36,89.69z"/>
    <path class="fil5" d="M1832.3 4496.81c9.54,-30.67 -7.03,-57.39 -43.01,-68.59 -35.7,-11.11 -66.85,3.31 -75.87,32.33 -7.99,25.65 5.75,56.62 46.09,69.17 33.69,10.5 63.14,-1.89 72.79,-32.91zm23.85 6.72c-13.59,43.67 -56.65,60.98 -101.95,46.86 -62.05,-19.3 -82.33,-72.79 -59.36,-146.46 24.7,-79.35 80.89,-107.2 144.22,-87.48 21,6.54 39.54,16.35 51.39,29.9l-15.68 16.31c-9.5,-11.72 -24.56,-19.69 -41.91,-25.08 -50.33,-15.68 -92.73,6.58 -112.44,69.94 -1.67,5.31 -3.43,12.08 -4.92,19.29 19.65,-22.04 51.46,-27.85 83.78,-17.78 46.35,14.41 70.16,51.8 56.87,94.5z"/>
    <polygon class="fil5" points="2121.76,4406.63 2116.47,4423.66 1951.45,4609.59 1925.42,4601.5 2087.46,4419.36 1967.41,4381.99 1953.83,4425.66 1930.16,4418.29 1950.42,4353.3 "/>
    <polygon class="fil5" points="2455.4,4510.47 2450.09,4527.48 2285.07,4713.45 2259.08,4705.36 2421.1,4523.21 2301.05,4485.87 2287.47,4529.52 2263.8,4522.14 2284.06,4457.16 "/>
    <path class="fil5" d="M2562.49 4656.08c36.34,11.32 63.1,1.73 70.97,-23.61 8.21,-26.31 -9.83,-49.5 -44.8,-60.39 -35.33,-10.98 -62.65,-1.96 -70.72,24.05 -8.02,25.69 8.2,48.67 44.55,59.95zm45.58 86.25c8.92,-28.68 -10.15,-54.37 -51.5,-67.24 -41.32,-12.85 -71.27,-2.44 -80.18,26.23 -9.05,29 9.72,54.59 51.03,67.44 41.34,12.89 71.63,2.55 80.65,-26.43zm24.54 7.99c-12.88,41.34 -55.83,56.12 -111.51,38.78 -55.99,-17.41 -82.03,-53.68 -69.17,-95.02 8.71,-28.01 30.83,-42.68 62.85,-43.32 -20.74,-16.71 -28.25,-38.43 -20.68,-62.76 11.83,-38 51.54,-51.62 100.88,-36.26 49.33,15.36 74.96,49.31 63.14,87.31 -7.57,24.34 -26.42,37.84 -53.3,39.71 26.3,18.81 36.4,43.89 27.79,71.56z"/>
    <path class="fil5" d="M2857.36 4710.59c7.99,-25.67 -5.73,-56.65 -46.07,-69.18 -33.69,-10.51 -63.14,1.88 -72.78,32.9 -9.56,30.68 6.98,57.38 43.02,68.6 35.62,11.1 66.81,-3.33 75.83,-32.32zm18.61 56.62c-24.7,79.34 -80.92,107.19 -144.22,87.47 -21.05,-6.55 -39.57,-16.34 -51.42,-29.9l15.66 -16.33c9.54,11.73 24.62,19.7 41.93,25.11 50.35,15.65 92.77,-6.6 112.46,-69.94 1.68,-5.33 3.43,-12.09 4.93,-19.31 -19.68,22.03 -51.5,27.84 -83.83,17.79 -46.31,-14.42 -70.14,-51.82 -56.86,-94.5 13.6,-43.66 56.64,-60.97 101.96,-46.87 62.03,19.31 82.31,72.78 59.39,146.48z"/>
    <polygon class="fil5" points="3148.28,4726.16 3075.64,4959.53 3051.65,4952.07 3117.63,4740.03 3062.64,4722.94 3069.3,4701.58 "/>
    <path class="fil5" d="M3322.27 5012.91l-6.65 21.33 -163.67 -50.96 5.31 -17.01 126.56 -64.81c34.43,-17.8 44.34,-31.91 49.3,-47.93 8.42,-27 -5.43,-49.57 -41.08,-60.68 -27.32,-8.47 -50.91,-6.71 -71.78,6.2l-12.43 -19.98c24.64,-15.7 57.39,-18.7 93.07,-7.59 47.32,14.71 69.85,48.09 57.73,87.08 -6.96,22.33 -20.2,40.18 -61.09,61.08l-103.61 53.29 128.34 39.98z"/>
    <path class="fil5" d="M3545.81 5032.38c-12.13,38.99 -49.8,60.19 -106.19,42.66 -33.63,-10.5 -62.3,-32.23 -74.6,-56.16l17.56 -15.36c10.13,20.34 33.58,40.06 63.91,49.5 38.68,12.05 65.62,0.69 74.64,-28.33 8.74,-27.99 -5.25,-52.46 -48.55,-65.95l-16.65 -5.18 5.47 -17.68 89.89 -60.86 -119.35 -37.15 6.65 -21.35 150.04 46.72 -5.31 16.99 -91.87 62.45c49.21,18.27 65.98,52.37 54.36,89.7z"/>
    <polygon class="fil5" points="1679.1,4714.2 1647.56,4815.52 3516.73,5397.38 3548.27,5296.04 "/>
    <polygon class="fil5" points="2526.63,5199.96 2495.09,5301.3 3453.75,5599.73 3485.33,5498.37 "/>
    <path class="fil6" d="M714.73 3743.25c-9.87,0 -19.9,-1.48 -29.81,-4.56l-593.08 -184.6c-52.81,-16.45 -82.3,-72.58 -65.86,-125.39l122.86 -394.64c13.37,-42.9 52.94,-70.43 95.61,-70.43 9.87,0 19.9,1.48 29.81,4.57l593 184.59c52.81,16.45 82.29,72.57 65.86,125.38l-122.79 394.64c-13.36,42.91 -52.93,70.44 -95.6,70.44z"/>
    <path class="fil4" d="M46.69 3362.11l11.73 -37.57 403.81 125.71c46.57,14.47 96.31,-11.62 110.84,-58.26 14.49,-46.59 -12.01,-97 -58.22,-110.78l-403.84 -125.73 11.72 -37.58 403.81 125.72c67.29,20.97 105.05,92.76 84.12,160.08 -20.99,67.33 -92.82,105.07 -160.14,84.14l-403.83 -125.73z"/>
    <polygon class="fil4" points="585.99,3416.65 597.73,3379.08 874.89,3465.36 863.16,3502.94 "/>
    <polygon class="fil5" points="2384.41,3286.2 367.41,2658.25 421.3,2485.13 2438.31,3113.1 "/>
    <path class="fil2" d="M1047.49 7017.86c42.44,292.17 -160.54,563.5 -453.34,606.05 -292.83,42.58 -564.64,-159.77 -607.09,-451.92 -42.47,-292.18 160.5,-563.49 453.33,-606.04 292.82,-42.57 564.65,159.78 607.1,451.91z"/>
    <path class="fil3" d="M921.34 7036.2c32.34,222.66 -122.33,429.44 -345.48,461.86 -223.17,32.41 -430.3,-121.78 -462.65,-344.39 -32.35,-222.66 122.33,-429.43 345.46,-461.86 223.17,-32.43 430.3,121.76 462.67,344.39z"/>
    <path class="fil4" d="M919.38 7023.55c-2.42,0.47 -6.74,-17.01 -17.74,-47.03 -11.12,-29.79 -29.82,-72.49 -64.61,-117.06 -17.35,-22.18 -38.6,-44.72 -64.15,-65.64 -25.7,-20.68 -55.43,-40.06 -89.21,-55.17 -16.87,-7.61 -34.61,-14.41 -53.21,-19.66 -18.57,-5.34 -37.86,-9.78 -57.8,-12.29 -19.89,-2.58 -40.33,-4.1 -61.07,-3.56 -20.73,0.5 -41.7,2.49 -62.72,6.07 -20.97,3.9 -41.37,9.22 -60.99,15.87 -19.67,6.65 -38.33,15.1 -56.13,24.36 -17.86,9.23 -34.45,20.04 -50.05,31.44 -15.67,11.36 -29.96,23.85 -43.18,36.79 -26.51,25.82 -47.76,54.26 -64.75,82.51 -16.77,28.43 -28.98,56.91 -37.63,83.72 -17.3,53.8 -20.15,100.31 -20.33,132.11 0,31.95 2,49.87 -0.46,50.27 -1.8,0.36 -7.87,-16.87 -11.7,-49.6 -3.6,-32.55 -4.22,-81.34 11.24,-138.97 7.76,-28.72 19.45,-59.45 36.34,-90.34 17.07,-30.68 38.98,-61.67 66.87,-90 13.89,-14.17 29.02,-27.85 45.69,-40.34 16.58,-12.53 34.34,-24.38 53.49,-34.55 19.09,-10.16 39.19,-19.43 60.38,-26.73 21.14,-7.31 43.16,-13.12 65.76,-17.27 22.64,-3.9 45.3,-5.98 67.68,-6.4 22.38,-0.44 44.43,1.35 65.88,4.31 21.45,2.95 42.2,7.97 62.09,14.05 19.94,5.95 38.89,13.6 56.79,22.13 35.92,16.97 67.17,38.53 93.79,61.47 26.43,23.18 48.03,48 65.2,72.28 34.38,48.81 50.59,94.84 58.46,126.64 7.68,32.03 7.88,50.31 6.07,50.59z"/>
    <path class="fil4" d="M622.97 7196.04c-3.51,-21.98 -23.59,-30.95 -52.08,-36.06l13.86 86.53c30.25,-11.91 41.45,-30.41 38.22,-50.47zm-132.03 -133.87l-14.29 -89.03c-32,12.86 -42.25,33.16 -38.96,53.84 3.53,21.94 24.25,30.86 53.25,35.19zm107.07 267.13l11.24 70.22 -62.7 10.01 -10.94 -68.3c-62.69,6.16 -125.37,-3.73 -164.15,-25.18l22.22 -82.03c35.07,18.18 82.92,27.89 128.78,25.04l-16.79 -104.71c-72.3,-5.77 -153.76,-16.52 -168.11,-106.2 -10.63,-66.47 28.51,-131.24 125.75,-158.39l-11.13 -69.62 62.71 -10.03 10.94 68.36c47.62,-3.78 95.41,1.43 133.38,17.85l-18.99 82.15c-34.88,-13.04 -69.19,-18.48 -101.15,-17.25l17.07 106.61c72.2,5.14 152.43,16.11 166.58,104.5 10.43,65.24 -28.19,129.29 -124.71,156.97z"/>
    <path class="fil3" d="M9727.67 4545.4c0,0 -187.81,-108.56 -382.03,336.73 -194.2,445.31 -262.63,699.48 -262.63,699.48 0,0 -52.77,94.01 -118.49,38.58 -65.74,-55.41 -161.01,-218.13 -264.89,-181.57 -107.73,37.94 -136.47,162.44 -104.77,340.95 31.74,178.5 86.85,572.15 91.7,607.76 4.78,34.96 -12.23,87.92 -63.06,57.36 -50.84,-30.6 -350.49,-326.49 -482.38,-175.88 -131.87,150.59 38.2,633.34 55.77,686.49 17.58,53.14 8.4,76.83 -16.46,91.74 -24.84,14.89 -116.19,-94.03 -204.86,-174.69 -88.68,-80.67 -205.62,-158.65 -274.45,-65.38 -68.81,93.26 -70.36,463.27 316.42,1040.85l196.75 255.9 322.05 -37.36c684.37,-121.98 949.83,-379.72 969.3,-493.98 19.45,-114.25 -117.85,-144.42 -237.45,-152.35 -119.62,-7.93 -261.46,1.82 -267.95,-26.41 -6.5,-28.23 4.22,-51.29 54.68,-75.47 50.47,-24.17 516.2,-236.52 533.23,-435.99 17.01,-199.43 -403.96,-210.1 -461.25,-225.5 -57.29,-15.41 -30.95,-64.39 -2.46,-85.21 29.02,-21.21 350.83,-254.5 501.43,-355.47 150.59,-100.96 220.35,-208.03 172.97,-311.95 -33.42,-73.25 -140.37,-69.29 -228.87,-65.36 -32.59,1.45 -62.66,2.89 -85.66,0.51 -85.54,-8.94 -54.38,-112.16 -54.38,-112.16 0,0 135.64,-225.6 321.71,-674.34 186.09,-448.76 -27.93,-509.21 -27.93,-509.21l3.96 1.93z"/>
    <path class="fil4" d="M8226.52 8036.96c137.88,-329.07 332.24,-782.05 548.6,-1281.75 216.3,-499.5 411.75,-951.92 551.45,-1280.15 69.56,-163.85 125.89,-296.6 165.11,-388.92 19.39,-45.51 34.5,-81.04 44.99,-105.68 5.11,-11.68 9.08,-20.79 11.97,-27.38 2.76,-6.16 4.44,-9.18 4.44,-9.18 0,0 -0.99,3.33 -3.39,9.6 -2.64,6.7 -6.28,15.94 -10.96,27.81 -10.03,24.84 -24.53,60.62 -43.1,106.48 -37.53,92.46 -92.87,225.8 -161.86,390.31 -137.86,329.07 -332.2,782.01 -548.5,1281.51 -216.36,499.7 -411.83,952.15 -551.53,1280.4l-7.22 -3.05z"/>
    <path class="fil4" d="M8823.73 5671.63c0.71,-0.24 4.1,7.35 9.63,21.31 5.59,13.92 13.01,34.32 21.97,59.62 17.76,50.61 40.48,121.16 64.07,199.48 22.86,77.1 43.55,146.8 59.53,200.71 7.16,23.83 13.27,44.08 18.28,60.74 4.38,14.32 6.44,22.39 5.73,22.64 -0.7,0.25 -4.16,-7.32 -9.79,-21.25 -5.54,-13.94 -13.01,-34.36 -21.69,-59.75 -17.27,-50.81 -39.06,-121.61 -62.64,-199.91 -23.38,-76.9 -44.55,-146.43 -60.93,-200.21 -7.29,-23.81 -13.48,-44.05 -18.59,-60.68 -4.27,-14.36 -6.29,-22.44 -5.57,-22.7z"/>
    <path class="fil4" d="M9032.87 6240.07c-1.01,-2.89 142.32,-56.19 320.11,-119.1 177.84,-62.92 322.81,-111.57 323.84,-108.68 1.01,2.89 -142.31,56.2 -320.17,119.09 -177.77,62.91 -322.75,111.57 -323.78,108.69z"/>
    <path class="fil4" d="M8666.07 6992.27c-0.01,-0.73 8.44,-1.69 23.71,-2.7 17.66,-1.04 39.23,-2.34 64.68,-3.83 54.56,-3.27 129.91,-8.01 212.87,-16.26 83.01,-8.03 157.88,-17.86 212.02,-25.36 25.24,-3.48 46.67,-6.4 64.19,-8.81 15.17,-1.97 23.64,-2.7 23.76,-1.95 0.13,0.76 -8.07,2.92 -23.04,6.19 -14.97,3.27 -36.7,7.59 -63.68,12.28 -53.96,9.49 -128.9,20.59 -212.19,28.66 -83.21,8.28 -158.88,11.78 -213.63,13.08 -27.38,0.5 -49.56,0.67 -64.89,0.28 -15.3,-0.26 -23.77,-0.8 -23.8,-1.58z"/>
    <path class="fil4" d="M8363.74 6519.77c0.64,-0.4 5.54,5.73 13.86,17.17 8.33,11.44 20.07,28.21 34.38,49.05 28.63,41.68 67.54,99.69 109.94,164.13 42.43,64.46 80.31,123.14 107.27,165.92 13.48,21.41 24.21,38.82 31.41,51 7.25,12.16 10.92,19.1 10.29,19.51 -0.64,0.42 -5.54,-5.71 -13.88,-17.13 -8.31,-11.46 -20.05,-28.24 -34.38,-49.06 -28.61,-41.71 -67.52,-99.72 -109.96,-164.18 -42.37,-64.43 -80.27,-123.11 -107.21,-165.9 -13.47,-21.37 -24.25,-38.78 -31.46,-50.98 -7.2,-12.16 -10.91,-19.08 -10.26,-19.53z"/>
    <path class="fil4" d="M7955.56 7142.71c0.62,-0.42 6.81,7.5 17.47,22.16 11.7,16.6 26.54,37.63 44.25,62.74 36.97,53.21 87.4,127.19 142.54,209.25 55.13,82.08 104.55,156.75 139.86,211.09 16.55,25.89 30.39,47.56 41.33,64.7 9.57,15.39 14.55,24.13 13.91,24.53 -0.61,0.45 -6.82,-7.48 -17.48,-22.14 -11.73,-16.6 -26.56,-37.62 -44.25,-62.74 -36.97,-53.2 -87.4,-127.17 -142.55,-209.28 -55.14,-82.05 -104.54,-156.72 -139.86,-211.08 -16.52,-25.87 -30.39,-47.54 -41.32,-64.67 -9.55,-15.4 -14.55,-24.13 -13.9,-24.56z"/>
    <path class="fil4" d="M8349.37 7720.29c-0.04,-0.76 10.63,-2.19 29.94,-4.17 21.41,-2.02 48.9,-4.62 81.81,-7.75 69.07,-6.58 164.44,-15.98 269.41,-29.28 105.03,-13.12 199.79,-27.44 268.33,-38.24 32.68,-5.09 59.95,-9.34 81.19,-12.67 19.2,-2.91 29.88,-4.14 30.04,-3.39 0.12,0.74 -10.29,3.43 -29.26,7.62 -18.97,4.21 -46.51,9.81 -80.65,16.17 -68.27,12.77 -163.05,28.35 -268.28,41.48 -105.18,13.32 -200.84,21.5 -270.13,26.1 -34.67,2.22 -62.74,3.71 -82.18,4.25 -19.41,0.65 -30.17,0.65 -30.22,-0.12z"/>
    <path class="fil7" d="M8188.9 7260.94c-39.1,55.85 -115.14,37.35 -150.39,3.27 -35.23,-34.1 -50.14,-83.54 -63.71,-130.68 -30.97,-107.69 -62.22,-220.65 -39.2,-330.33 6.9,-32.79 19.17,-65.48 42.19,-89.79 23.05,-24.34 58.48,-38.81 90.87,-30.25 38.34,10.13 62.15,47.68 79.38,83.4 50.61,104.99 77.43,221.35 77.81,337.93 0.18,54.42 -6.21,111.49 -36.95,156.45z"/>
    <path class="fil8" d="M8119.27 7296.54c-25.87,0 -52,-9.88 -70.99,-24.06 -3.52,-2.62 -6.78,-5.38 -9.77,-8.27 -19.37,-18.77 -32.61,-42.15 -42.86,-67.26 -8.38,-20.52 -14.75,-42.21 -20.85,-63.42 -23.48,-81.6 -47.11,-166.26 -47.15,-250.18 -0.03,-26.84 2.38,-53.59 7.95,-80.15 6.9,-32.79 19.17,-65.48 42.19,-89.79 18.5,-19.56 45,-32.73 71.49,-32.73 6.5,0 13,0.8 19.38,2.48 38.34,10.13 62.15,47.68 79.38,83.4 50.61,104.99 77.43,221.35 77.81,337.93 0,0.63 0,1.28 0,1.92 0.02,53.84 -6.58,110.1 -36.95,154.53 -17.93,25.62 -43.66,35.6 -69.63,35.6z"/>
    <path class="fil7" d="M8042.35 7543.87c-63.95,-33 -139.3,-37.29 -210.31,-25.54 -38.16,6.29 -77.95,17.71 -103.92,46.37 -25.95,28.65 -30.87,79.07 -1.07,103.71 17.73,14.67 42.5,16.89 65.52,16.61 55.59,-0.62 117.28,-10.41 161.69,23.02 25.35,19.09 42.22,50.84 72.53,60.2 29.64,9.2 63.09,-8.3 78.8,-35.05 15.73,-26.76 16.24,-60.2 8.94,-90.34 0,0 -7.74,-65.72 -72.18,-98.98z"/>
    <path class="fil7" d="M8296.34 7341.09c-42.48,-50.4 -50.55,-123.91 -31.65,-187.07 18.91,-63.15 61.61,-116.86 110.81,-160.73 57.71,-51.42 125.51,-91.43 198.42,-117.08 28.69,-10.09 58.96,-18.04 89.25,-15.15 30.27,2.88 60.75,18.38 74.88,45.32 20.87,39.81 0.85,88.12 -20.8,127.53 -38.14,69.43 -81.77,135.85 -130.32,198.45 -39.06,50.35 -83.82,100.03 -143.35,122.8 -59.53,22.76 -121.35,20.07 -152.91,-21.21l5.67 7.14z"/>
    <path class="fil9" d="M8191.57 8103.72c-0.73,0.04 -1.94,-9.01 -3.55,-25.37 -1.8,-18.48 -4.06,-41.69 -6.75,-69.29 -3.22,-29.14 -7.48,-63.85 -15.57,-101.63 -8.07,-37.67 -20.73,-78.53 -36.93,-119.94 -16.81,-41.17 -37.31,-78.6 -61.25,-108.52 -23.78,-30.09 -51.45,-51.84 -77.44,-64.39 -25.91,-12.8 -49.16,-17.98 -65.22,-20.3 -16.2,-1.68 -25.26,-2.95 -25.28,-3.66 0,-0.73 9.08,-0.84 25.75,-0.4 16.46,1.11 40.66,5.29 67.98,17.69 27.4,12.15 56.72,34.25 81.69,64.94 25.13,30.57 46.36,68.81 63.48,110.71 16.5,42.15 28.97,83.42 36.68,121.9 7.67,38.46 11.2,73.53 13.5,102.93 2.2,29.42 3.05,53.25 3.43,69.7 0.38,16.46 0.18,25.6 -0.52,25.63z"/>
    <path class="fil9" d="M8186.79 8050.42c-0.37,-0.02 -0.59,-4.08 -0.69,-11.78 0.02,-8.86 0.06,-20 0.08,-33.71 0.1,-29.22 0.08,-71.53 -1.49,-123.77 -2.59,-104.48 -11.57,-248.71 -28.94,-407.23 -17.51,-158.59 -40.7,-301.23 -61.87,-403.58 -4.99,-25.65 -10.03,-48.75 -14.75,-68.93 -4.54,-20.28 -8.37,-37.76 -12.11,-51.88 -3.18,-13.3 -5.81,-24.14 -7.89,-32.75 -1.67,-7.51 -2.4,-11.51 -2.03,-11.61 0.36,-0.11 1.73,3.7 4.09,11.05 2.57,8.47 5.79,19.14 9.77,32.26 4.34,14.02 8.79,31.35 13.86,51.53 5.3,20.14 10.84,43.19 16.33,68.78 23.04,102.22 47.46,245.05 65.01,403.98 17.42,158.84 25.24,303.51 25.93,408.23 0.65,52.39 -0.48,94.79 -1.81,124.05 -0.83,13.67 -1.52,24.8 -2.06,33.66 -0.59,7.68 -1.07,11.72 -1.43,11.7z"/>
    <path class="fil9" d="M8186.1 7771.43c-0.75,-0.03 -0.63,-12.52 0.24,-35.17 1.29,-22.64 4.4,-55.34 10.75,-95.35 6.77,-39.95 16.21,-87.38 31.04,-138.91 14.08,-51.72 33.46,-107.58 58.05,-164.36 48.19,-114.29 113.65,-207.74 170.62,-265.62 13.34,-15.35 28.21,-26.43 40.11,-37.3 6.16,-5.22 11.6,-10.4 17.14,-14.52 5.58,-3.83 10.77,-7.4 15.57,-10.71 18.75,-12.83 29.24,-19.6 29.63,-18.98 1.69,2.3 -41.98,27.98 -97.1,86.62 -54.91,58.54 -118.54,151.32 -166.34,264.66 -24.4,56.33 -43.91,111.64 -58.42,162.85 -15.21,51.04 -25.32,97.99 -32.97,137.52 -7.29,39.64 -11.48,72 -14.02,94.39 -2.08,22.44 -3.57,34.91 -4.3,34.88z"/>
    <path class="fil7" d="M4665.26 6150.83l-3123.46 -3303.83c-32.91,-34.81 -31.36,-89.72 3.45,-122.65l2049.89 -1937.96c34.81,-32.91 89.72,-31.38 122.65,3.45l3123.44 3303.83c32.93,34.83 31.38,89.72 -3.45,122.65l-2049.88 1937.97c-34.83,32.91 -89.74,31.37 -122.64,-3.46z"/>
    <path class="fil10" d="M6396.34 3822.35c-409.67,-0.33 -898.2,-0.71 -1452.66,-1.15 -444.16,-0.2 -930.67,-0.41 -1452.96,-0.65 -261.14,-0.08 -531.23,-0.16 -809.44,-0.26 -72.58,-0.02 -145.71,-0.04 -219.38,-0.06l-920.1 -973.23c-15.82,-16.73 -23.67,-38.1 -23.71,-59.43 -0.04,-23.08 9.06,-46.11 27.16,-63.22l2049.89 -1937.96c16.78,-15.86 38.2,-23.71 59.6,-23.71 23.02,0 45.98,9.1 63.05,27.16l1641.15 1735.93 -79.3 118.72c0,0 414.47,632.65 654.26,656.86 8.3,0.83 16.49,1.23 24.66,1.23 38.54,0 75.71,-9.08 111.2,-24.94l337.2 356.68 -11.3 169.22c-0.21,6.3 0.02,12.58 0.68,18.81z"/>
    <path class="fil7" d="M6818.4 4069.52l-3077.78 -3255.55c-45.53,-48.14 -121.48,-50.28 -169.63,-4.74l-582.42 550.63c-11.63,10.97 -17.28,27.09 -14.45,42.83 58.11,325.63 291.14,616.83 568.64,809.71 335.55,233.2 732.98,355.91 1110.81,511.55 377.85,155.62 756.83,360.64 983.38,700.73 213.73,320.93 264.28,719.04 372.96,1089 29.01,98.73 65.34,198.54 109.84,294.15 13.88,29.78 52.77,37.45 76.62,14.89l617.27 -583.58c48.17,-45.52 50.29,-121.45 4.76,-169.62z"/>
    <path class="fil5" d="M3663.59 1720.33c13.54,-12.83 10.23,-29.26 -8.05,-48.61l-41.08 -43.45 -39.8 37.62 41.09 43.47c18.28,19.35 34.02,24.01 47.84,10.97zm15.96 -153.6l-37.95 35.88 35.01 37.02c17.17,18.17 32.95,22 45.6,10.05 12.67,-11.98 9.53,-27.76 -7.67,-45.92l-34.99 -37.03zm15.58 194.79c-27.84,26.33 -64.84,19.45 -104.85,-22.87l-78.72 -83.27 161.01 -152.21 74.38 78.65c38.06,40.28 40.84,76.82 15.76,100.54 -16.11,15.21 -36.34,18.7 -55.63,12.1 11.22,23.39 8.29,47.93 -11.95,67.06z"/>
    <path class="fil5" d="M3829.76 1866.16l37.52 -83.8 -85.81 32.75 48.29 51.05zm-17.21 38.49l-70.69 -74.77 -47.98 18.35 -36.08 -38.16 228.85 -80.48 34.81 36.81 -92.94 224.23 -37 -39.11 21.03 -46.87z"/>
    <polygon class="fil5" points="4144.88,2002.74 3983.87,2154.97 3954.93,2124.35 3976.81,1951.66 3879.04,2044.08 3844.23,2007.28 4005.26,1855.04 4034.42,1885.9 4012.32,2058.33 4110.07,1965.93 "/>
    <polygon class="fil5" points="4138.55,2191.85 4095.56,2191.55 4054.84,2230.05 4019.81,2192.98 4180.82,2040.77 4215.85,2077.82 4140.66,2148.93 4283.27,2149.12 4322.39,2190.5 4187.58,2191.65 4165.08,2346.65 4123.97,2303.16 "/>
    <polygon class="fil5" points="2997.1,2364.32 2969.15,2334.78 2930.31,2371.5 2915.95,2356.29 2954.78,2319.57 2875.94,2236.16 2886.93,2225.79 3058.93,2211.5 3074.91,2228.42 2908.03,2243.04 2968.71,2307.22 3002.89,2274.89 3016.86,2289.66 2982.67,2321.99 3010.62,2351.55 "/>
    <path class="fil5" d="M3103.28 2469.48c-24.7,23.34 -60.65,23.36 -94.4,-12.31 -20.15,-21.33 -32.14,-48.82 -31.31,-71.19l19.05 -4c-0.95,18.91 8.03,42.78 26.21,62.01 23.15,24.5 47.32,27.22 65.68,9.85 17.74,-16.77 17.58,-40.2 -8.37,-67.66l-9.99 -10.56 11.2 -10.57 90.02 -7.55 -71.46 -75.59 13.5 -12.77 89.84 95.02 -10.78 10.17 -92.09 7.91c28.25,33.27 26.55,64.88 2.9,87.24z"/>
    <path class="fil5" d="M3217.32 2587.97c-25.11,23.75 -61.35,24.78 -95.47,-11.32 -20.16,-21.32 -31.93,-48.58 -31.1,-70.95l19.03 -4c-0.97,18.88 7.85,42.56 25.81,61.54 23.75,25.13 48.57,26.87 66.51,9.91 19.01,-17.98 19.68,-40.96 -15.88,-78.57l-29.73 -31.46 81.31 -62.44 76.43 80.86 -13.52 12.77 -63.86 -67.56 -51.88 39.44 17.98 19.02c42.11,44.54 40.56,78.02 14.37,102.76z"/>
    <path class="fil5" d="M3326.48 2703.02c19.42,-18.38 18.32,-44.49 -3.25,-67.29 -21.34,-22.6 -49.86,-24.82 -68.2,-7.49 -16.29,15.4 -18.91,43.47 5.23,69 20.18,21.34 46.59,24.33 66.22,5.78zm14.61 14.6c-27.66,26.15 -65.96,21.16 -93.1,-7.55 -37.11,-39.27 -30.05,-86.35 16.6,-130.48 50.25,-47.5 102.39,-44.8 140.31,-4.68 12.57,13.3 22.03,27.97 25.12,42.63l-18.04 5.46c-2.12,-12.38 -9.81,-24.32 -20.2,-35.3 -30.13,-31.88 -69.96,-33.01 -110.1,4.93 -3.37,3.18 -7.38,7.4 -11.41,12 23.24,-7.97 48.68,0.77 68.03,21.23 27.75,29.36 29.83,66.2 2.79,91.76z"/>
    <polygon class="fil5" points="3598.92,3078.71 3612.04,2999.56 3532.05,3007.99 3516.08,2991.1 3614.6,2981.13 3629.13,2888.23 3645.11,2905.12 3633.14,2979.6 3708.17,2971.83 3723.75,2988.32 3630.16,2997.6 3615.08,3095.83 "/>
    <polygon class="fil5" points="3705.5,3191.46 3718.62,3112.29 3638.63,3120.75 3622.67,3103.84 3721.2,3093.89 3735.71,3000.97 3751.69,3017.88 3739.75,3092.33 3814.75,3084.59 3830.33,3101.05 3736.76,3110.33 3721.69,3208.59 "/>
    <polygon class="fil5" points="3812.07,3304.2 3825.19,3225.02 3745.21,3233.47 3729.23,3216.56 3827.77,3206.61 3842.28,3113.69 3858.26,3130.6 3846.29,3205.06 3921.34,3197.31 3936.92,3213.78 3843.31,3223.05 3828.25,3321.31 "/>
    <polygon class="fil5" points="3918.65,3416.93 3931.79,3337.77 3851.8,3346.23 3835.82,3329.32 3934.35,3319.35 3948.86,3226.45 3964.84,3243.34 3952.9,3317.82 4027.92,3310.05 4043.5,3326.51 3949.91,3335.79 3934.84,3434.05 "/>
    <polygon class="fil5" points="4286.68,3806.21 4299.81,3727.04 4219.82,3735.5 4203.84,3718.59 4302.38,3708.64 4316.91,3615.71 4332.89,3632.61 4320.92,3707.09 4395.95,3699.34 4411.52,3715.8 4317.93,3725.09 4302.86,3823.34 "/>
    <polygon class="fil5" points="4393.24,3918.93 4406.38,3839.76 4326.39,3848.22 4310.41,3831.33 4408.96,3821.36 4423.45,3728.44 4439.43,3745.35 4427.49,3819.8 4502.51,3812.06 4518.09,3828.52 4424.5,3837.81 4409.45,3936.06 "/>
    <polygon class="fil5" points="4499.83,4031.69 4512.96,3952.5 4432.99,3960.96 4417.01,3944.07 4515.55,3934.1 4530.05,3841.17 4546.03,3858.09 4534.07,3932.57 4609.1,3924.8 4624.67,3941.26 4531.08,3950.55 4516.03,4048.8 "/>
    <polygon class="fil5" points="4606.41,4144.4 4619.53,4065.24 4539.56,4073.7 4523.58,4056.79 4622.11,4046.82 4636.62,3953.92 4652.6,3970.81 4640.65,4045.29 4715.66,4037.52 4731.24,4054 4637.67,4063.29 4622.6,4161.52 "/>
    <polygon class="fil5" points="5084.73,4354.31 4936.94,4494.03 4922.58,4478.83 5056.86,4351.89 5023.91,4317.02 5037.43,4304.26 "/>
    <path class="fil5" d="M5105.1 4586.89c-24.7,23.37 -60.67,23.39 -94.4,-12.29 -20.17,-21.35 -32.13,-48.81 -31.3,-71.19l19.03 -4c-0.95,18.91 8.03,42.78 26.23,62.01 23.13,24.5 47.32,27.21 65.68,9.85 17.74,-16.77 17.56,-40.19 -8.39,-67.66l-9.97 -10.55 11.18 -10.58 90.04 -7.55 -71.48 -75.59 13.52 -12.77 89.82 95.02 -10.78 10.17 -92.05 7.91c28.23,33.28 26.51,64.88 2.87,87.22z"/>
    <polygon class="fil5" points="5240.43,4737.22 5212.48,4707.66 5173.64,4744.39 5159.28,4729.19 5198.12,4692.47 5119.28,4609.06 5130.26,4598.68 5302.28,4584.39 5318.24,4601.3 5151.36,4615.94 5212.04,4680.12 5246.23,4647.79 5260.21,4662.54 5225.98,4694.89 5253.95,4724.45 "/>
    <path class="fil5" d="M5322.86 4875.19l-13.5 12.75 -98 -103.64 10.75 -10.19 118.27 4.54c32.25,1.13 45.16,-5.11 55.31,-14.67 17.07,-16.17 16.26,-38.18 -5.09,-60.76 -16.38,-17.33 -34.24,-25.63 -54.6,-24.76l-0.89 -19.55c24.3,-1.39 49.26,9.78 70.63,32.38 28.35,30.01 31.09,63.36 6.39,86.71 -14.14,13.36 -31.01,20.91 -69.21,19.43l-96.9 -3.55 76.84 81.31z"/>
    <path class="fil5" d="M4338.33 4934.61c30.86,-29.18 33.42,-52.16 18.57,-67.86 -14.69,-15.54 -37.8,-14.31 -68.65,14.87 -30.87,29.16 -33.39,52.16 -18.7,67.68 14.84,15.74 37.93,14.47 68.78,-14.69zm-80.18 -84.83c44.83,-42.4 93.75,-41.59 125.33,-8.18 31.74,33.59 29.61,82.28 -15.22,124.65 -44.84,42.38 -93.57,41.77 -125.31,8.2 -31.56,-33.4 -29.64,-82.29 15.2,-124.67z"/>
    <path class="fil5" d="M4433.3 5088.3c12.4,-11.75 11.74,-28.4 -1.48,-42.36 -13.01,-13.76 -30.73,-15.42 -42.57,-4.22 -11.67,11 -11.91,27.83 2.38,42.94 12.67,13.4 29.24,15.38 41.67,3.64zm30.36 29.03c-27.76,26.22 -66.68,20.04 -93.85,-8.69 -35.41,-37.48 -33.96,-82.96 9.89,-124.45 46.98,-44.39 99.99,-40.82 138.69,0.12 13.58,14.37 23.51,31.46 26.48,46.66l-34.11 10.21c-2.12,-12.35 -8.61,-22.75 -17.23,-31.87 -21.49,-22.71 -48.63,-24.61 -75.57,-0.98 15.47,0.44 30.39,8.05 43.77,22.19 24.8,26.21 27.54,62.58 1.93,86.81z"/>
    <polygon class="fil5" points="4644.06,5066.7 4669.59,5093.69 4426.17,5202.49 4400.66,5175.51 "/>
    <path class="fil5" d="M4626.77 5324.43l-25.62 24.21 -97.08 -102.65 20.38 -19.27 99.03 5.63c22.82,1.17 31.86,-3.27 38.44,-9.5 10.7,-10.09 9.91,-23.35 -3.67,-37.72 -11,-11.64 -24.82,-17.29 -40.2,-15.31l-6.89 -36.83c25.24,-4.01 53.12,5.65 76.23,30.09 28.65,30.29 32.21,65.16 7.55,88.46 -13.2,12.47 -28.72,20.14 -64.38,17.86l-59.02 -3.37 55.23 58.4z"/>
    <polygon class="fil5" points="4757.63,5457.07 4736.73,5434.93 4708.2,5461.9 4679.22,5431.26 4707.75,5404.28 4638.55,5331.09 4659.72,5311.09 4806.44,5293.7 4837.64,5326.69 4699.78,5344.51 4734.27,5381.01 4759.69,5356.98 4787.78,5386.66 4762.35,5410.71 4783.26,5432.81 "/>
    <path class="fil7" d="M5395.15 3776.34c76.51,-117.77 46.5,-274.37 -56.35,-370.02 -32.16,-29.92 -68.72,-54.36 -107.1,-70.34 -98.36,-41.01 -228.55,-11.1 -280.15,82.14 -42.15,76.1 -25.12,171.06 4.36,252.93 30.86,85.72 80.98,173.36 165.79,206.65 81.71,32.06 179.85,2.65 240.92,-60.42 12.2,-12.6 23.02,-26.33 32.53,-40.94z"/>
    <path class="fil7" d="M7618.56 4216.85l0 3552.12c0,194.36 -157.58,351.94 -351.94,351.94l-5160.23 0c-194.39,0 -351.94,-157.58 -351.94,-351.94l0 -3552.12c0,-194.36 157.55,-351.94 351.94,-351.94l5160.23 0c194.36,0 351.94,157.58 351.94,351.94z"/>
    <path class="fil9" d="M7618.56 4176.85c0,0 -0.41,-4.28 -0.91,-12.75 -0.78,-8.43 -0.42,-21.19 -3.65,-37.65 -4.62,-32.86 -16.61,-82.6 -51.64,-137.86 -17.78,-27.23 -40.94,-55.9 -71.98,-81.61 -31.07,-25.47 -69.52,-48.25 -114.84,-63.02 -11.24,-3.9 -23.2,-6.21 -35.11,-9.48 -12.06,-2.49 -24.6,-3.9 -37.23,-5.96 -12.79,-0.6 -25.81,-1.23 -39.04,-1.85 -13.32,0.02 -26.86,0.04 -40.63,0.06 -55.06,0.06 -113.68,0.14 -175.79,0.22 -496.91,0.41 -1215.78,0.97 -2104.06,1.67 -444.16,0.21 -930.67,0.43 -1452.96,0.65 -261.14,0.08 -531.23,0.18 -809.44,0.26 -139.09,0.04 -280.22,0.08 -423.29,0.12 -35.76,0 -71.64,0.02 -107.66,0.02 -36.1,0.41 -72.02,-1.27 -107.13,6.06 -35.05,6.82 -69.31,18.42 -101.12,35.33 -31.51,17.41 -60.47,39.47 -85.72,65.4 -25.58,25.71 -45.86,56.42 -61.92,88.99 -15.98,32.65 -27.2,67.98 -31.56,104.38 -4.88,36.14 -3.29,73.56 -3.53,110.95 0,37.37 0.01,74.84 0.01,112.44 0.04,150.37 0.07,302.44 0.09,456.14 0.04,307.39 0.1,621.27 0.14,940.78 0.04,639.05 0.06,1300.69 0.1,1978.36 0.12,83.61 31.16,166.26 86.06,228.57 54.33,62.74 131.79,104.77 213.68,115.05 29.95,3.86 60.67,3.71 91.45,3.54 11,-0.06 22,-0.12 32.97,0 41.69,0 83.32,0 124.89,0 83.11,0.03 165.95,0.03 248.46,0.03 330.11,0.01 655.35,0.05 974.97,0.08 639.19,0.09 1255.73,0.21 1843.08,0.32 587.33,0.14 1145.43,0.29 1667.77,0.46 65.3,0.02 130.03,0.06 194.18,0.08 32.22,0.26 63.62,-0.44 94.61,-6.3 30.64,-6.52 60.97,-15.31 88.57,-29.82 14.37,-6.11 27,-15.34 40.44,-23.04 12.19,-9.55 25.42,-17.76 36.38,-28.68 23.63,-19.91 42.88,-44.21 60.19,-69.25 33.12,-51.28 53.42,-110.4 56.11,-170.38 2.13,-241.92 0.78,-474.96 1.35,-696.93 0.7,-888.24 1.29,-1607.05 1.67,-2103.92 0.43,-248.32 0.75,-441.15 0.99,-572.01 0.22,-65.32 0.39,-115.14 0.51,-148.76 0.18,-33.52 0.54,-50.69 0.54,-50.69 0,0 0.36,17.17 0.54,50.69 0.12,33.62 0.29,83.44 0.51,148.76 0.24,130.86 0.56,323.69 0.99,572.01 0.4,496.87 0.97,1215.68 1.67,2103.92 -0.34,222.19 1.27,454.57 -0.7,697.42 -2.69,61.34 -23.39,121.92 -57.27,174.41 -17.7,25.67 -37.39,50.55 -61.57,70.99 -11.22,11.16 -24.73,19.61 -37.21,29.36 -13.74,7.95 -26.71,17.33 -41.41,23.65 -28.29,14.85 -59.34,23.92 -90.7,30.63 -31.6,6.03 -64.35,6.74 -96.21,6.51 -64.15,0.03 -128.88,0.04 -194.18,0.07 -522.34,0.14 -1080.44,0.3 -1667.77,0.48 -587.35,0.1 -1203.89,0.2 -1843.08,0.3 -319.62,0.05 -644.86,0.06 -974.97,0.1 -82.51,0 -165.35,0 -248.46,0 -41.57,0 -83.2,0 -124.89,0 -11.01,-0.14 -22.04,-0.08 -33.09,-0.01 -30.71,0.18 -61.57,0.36 -92.74,-3.64 -84.37,-10.59 -164.22,-53.87 -220.18,-118.51 -56.54,-64.17 -88.56,-149.42 -88.66,-235.49 0.04,-677.67 0.08,-1339.31 0.1,-1978.36 0.06,-319.51 0.1,-633.39 0.14,-940.78 0.02,-153.7 0.06,-305.77 0.08,-456.14 0.02,-37.6 0.02,-75.07 0.02,-112.44 0.28,-37.25 -1.37,-74.7 3.67,-112.25 4.5,-37.44 16.06,-73.76 32.49,-107.32 16.53,-33.49 37.41,-65.05 63.71,-91.45 25.95,-26.65 55.75,-49.29 88.14,-67.18 32.69,-17.37 67.92,-29.29 103.94,-36.28l27.22 -4.15 27.42 -1.49c11.81,-0.67 23.45,-0.59 35.06,-0.51 6.37,0.04 12.77,0.08 19.16,0 36.02,0 71.9,0.02 107.66,0.02 143.07,0.04 284.2,0.08 423.29,0.12 278.21,0.1 548.3,0.18 809.44,0.26 522.29,0.24 1008.8,0.45 1452.96,0.65 888.28,0.7 1607.15,1.27 2104.06,1.68 62.11,0.08 120.73,0.16 175.79,0.24 13.77,0.01 27.31,0.04 40.63,0.06 13.35,0.66 26.49,1.33 39.39,2 12.75,2.11 25.38,3.57 37.59,6.13 11.99,3.35 24.05,5.71 35.37,9.69 45.67,15.07 84.35,38.2 115.57,63.96 31.15,26.01 54.32,55.01 72.08,82.48 34.93,55.81 46.61,105.87 50.91,138.87 3.07,16.54 2.5,29.32 3.11,37.77 0.36,8.49 0.38,12.77 0.38,12.77z"/>
    <path class="fil9" d="M7413.12 4087.32c0,-2.91 27.12,-5.25 60.53,-5.25 33.44,0 60.54,2.34 60.54,5.25 0,2.9 -27.1,5.24 -60.54,5.24 -33.41,0 -60.53,-2.34 -60.53,-5.24z"/>
    <path class="fil9" d="M6919.22 4087.32c0,-2.91 55.31,-5.25 123.49,-5.25 68.19,0 123.48,2.34 123.48,5.25 0,2.9 -55.29,5.24 -123.48,5.24 -68.18,0 -123.49,-2.34 -123.49,-5.24z"/>
    <path class="fil9" d="M6425.36 4087.32c0,-2.91 55.27,-5.25 123.45,-5.25 68.21,0 123.48,2.34 123.48,5.25 0,2.9 -55.27,5.24 -123.48,5.24 -68.18,0 -123.45,-2.34 -123.45,-5.24z"/>
    <path class="fil9" d="M5931.46 4087.32c0,-2.91 55.29,-5.25 123.45,-5.25 68.21,0 123.5,2.34 123.5,5.25 0,2.9 -55.29,5.24 -123.5,5.24 -68.16,0 -123.45,-2.34 -123.45,-5.24z"/>
    <path class="fil9" d="M5437.58 4087.32c0,-2.91 55.29,-5.25 123.47,-5.25 68.21,0 123.48,2.34 123.48,5.25 0,2.9 -55.27,5.24 -123.48,5.24 -68.18,0 -123.47,-2.34 -123.47,-5.24z"/>
    <path class="fil9" d="M4943.68 4087.32c0,-2.91 55.29,-5.25 123.47,-5.25 68.21,0 123.48,2.34 123.48,5.25 0,2.9 -55.27,5.24 -123.48,5.24 -68.18,0 -123.47,-2.34 -123.47,-5.24z"/>
    <path class="fil9" d="M4449.8 4087.32c0,-2.91 55.3,-5.25 123.48,-5.25 68.2,0 123.47,2.34 123.47,5.25 0,2.9 -55.27,5.24 -123.47,5.24 -68.18,0 -123.48,-2.34 -123.48,-5.24z"/>
    <path class="fil9" d="M3955.92 4087.32c0,-2.91 55.29,-5.25 123.48,-5.25 68.18,0 123.47,2.34 123.47,5.25 0,2.9 -55.29,5.24 -123.47,5.24 -68.19,0 -123.48,-2.34 -123.48,-5.24z"/>
    <path class="fil9" d="M3462.02 4087.32c0,-2.91 55.29,-5.25 123.48,-5.25 68.21,0 123.47,2.34 123.47,5.25 0,2.9 -55.26,5.24 -123.47,5.24 -68.19,0 -123.48,-2.34 -123.48,-5.24z"/>
    <path class="fil9" d="M2968.15 4087.32c0,-2.91 55.29,-5.25 123.47,-5.25 68.2,0 123.48,2.34 123.48,5.25 0,2.9 -55.28,5.24 -123.48,5.24 -68.18,0 -123.47,-2.34 -123.47,-5.24z"/>
    <path class="fil9" d="M2474.27 4087.32c0,-2.91 55.27,-5.25 123.45,-5.25 68.23,0 123.48,2.34 123.48,5.25 0,2.9 -55.25,5.24 -123.48,5.24 -68.18,0 -123.45,-2.34 -123.45,-5.24z"/>
    <path class="fil9" d="M2106.24 4208.39c-2.9,0 -5.24,-54.22 -5.24,-121.05 10.51,-10.51 2.94,-2.93 5.28,-5.27l6.2 0 6.15 0.02c4.04,0.02 8.06,0.06 12.01,0.09 7.75,0.09 15.29,0.2 22.74,0.29 13.24,0.39 26.03,0.78 38.48,1.14 21.91,0.95 35.46,2.26 35.46,3.71 0,1.45 -13.55,2.76 -35.46,3.71 -12.45,0.37 -25.24,0.75 -38.48,1.13 -7.45,0.1 -14.99,0.2 -22.74,0.31 -3.95,0.01 -7.97,0.05 -12.01,0.08l-6.15 0.01 -6.2 0c2.34,-2.31 -5.26,5.25 5.23,-5.22 0,66.83 -2.36,121.05 -5.27,121.05z"/>
    <path class="fil9" d="M2106.24 4660.97c-2.9,0 -5.24,-50.65 -5.24,-113.13 0,-62.51 2.34,-113.16 5.24,-113.16 2.91,0 5.27,50.65 5.27,113.16 0,62.48 -2.36,113.13 -5.27,113.13z"/>
    <path class="fil9" d="M2106.24 5113.56c-2.9,0 -5.24,-50.67 -5.24,-113.15 0,-62.49 2.34,-113.16 5.24,-113.16 2.91,0 5.25,50.67 5.25,113.16 0,62.48 -2.34,113.15 -5.25,113.15z"/>
    <path class="fil9" d="M2106.24 5566.15c-2.9,0 -5.24,-50.67 -5.24,-113.16 0,-62.48 2.34,-113.14 5.24,-113.14 2.91,0 5.25,50.66 5.25,113.14 0,62.49 -2.34,113.16 -5.25,113.16z"/>
    <path class="fil9" d="M2106.24 6018.7c-2.9,0 -5.24,-50.64 -5.24,-113.12 0,-62.51 2.34,-113.14 5.24,-113.14 2.91,0 5.27,50.63 5.27,113.14 0,62.48 -2.36,113.12 -5.27,113.12z"/>
    <path class="fil9" d="M2106.24 6471.3c-2.9,0 -5.24,-50.67 -5.24,-113.13 0,-62.51 2.34,-113.16 5.24,-113.16 2.91,0 5.25,50.65 5.25,113.16 0,62.46 -2.34,113.13 -5.25,113.13z"/>
    <path class="fil9" d="M2106.24 6923.89c-2.9,0 -5.24,-50.67 -5.24,-113.16 0,-62.48 2.34,-113.15 5.24,-113.15 2.91,0 5.25,50.67 5.25,113.15 0,62.49 -2.34,113.16 -5.25,113.16z"/>
    <path class="fil9" d="M2106.24 7376.46c-2.9,0 -5.24,-50.64 -5.24,-113.14 0,-62.49 2.34,-113.14 5.24,-113.14 2.91,0 5.27,50.65 5.27,113.14 0,62.5 -2.36,113.14 -5.27,113.14z"/>
    <path class="fil9" d="M2227.32 7723.83c0,2.9 -54.2,5.24 -121.08,5.24 -10.51,-10.5 -2.9,-2.93 -5.24,-5.27l0 -6.2 0.02 -6.15c0.02,-4.05 0.06,-8.05 0.08,-12.01 0.1,-7.74 0.2,-15.29 0.3,-22.74 0.4,-13.26 0.77,-26.03 1.13,-38.5 0.95,-21.91 2.28,-35.45 3.71,-35.45 1.46,0 2.77,13.54 3.72,35.45 0.36,12.47 0.75,25.24 1.13,38.5 0.1,7.45 0.2,15 0.3,22.74 0.04,3.96 0.06,7.96 0.08,12.01l0.02 6.15 0.02 3.09 0 3.11c-2.36,-2.36 5.22,5.27 -5.27,-5.23 66.88,0 121.08,2.37 121.08,5.26z"/>
    <path class="fil9" d="M2714.05 7723.83c0,2.9 -54.48,5.24 -121.67,5.24 -67.22,0 -121.69,-2.34 -121.69,-5.24 0,-2.89 54.47,-5.26 121.69,-5.26 67.19,0 121.67,2.37 121.67,5.26z"/>
    <path class="fil9" d="M3200.79 7723.83c0,2.9 -54.48,5.24 -121.68,5.24 -67.22,0 -121.7,-2.34 -121.7,-5.24 0,-2.89 54.48,-5.26 121.7,-5.26 67.2,0 121.68,2.37 121.68,5.26z"/>
    <path class="fil9" d="M3687.52 7723.83c0,2.9 -54.48,5.24 -121.67,5.24 -67.22,0 -121.69,-2.34 -121.69,-5.24 0,-2.89 54.47,-5.26 121.69,-5.26 67.19,0 121.67,2.37 121.67,5.26z"/>
    <path class="fil9" d="M4174.26 7723.83c0,2.9 -54.48,5.24 -121.68,5.24 -67.22,0 -121.68,-2.34 -121.68,-5.24 0,-2.89 54.46,-5.26 121.68,-5.26 67.2,0 121.68,2.37 121.68,5.26z"/>
    <path class="fil9" d="M4660.99 7723.83c0,2.9 -54.48,5.24 -121.67,5.24 -67.22,0 -121.7,-2.34 -121.7,-5.24 0,-2.89 54.48,-5.26 121.7,-5.26 67.19,0 121.67,2.37 121.67,5.26z"/>
    <path class="fil9" d="M5147.71 7723.83c0,2.9 -54.48,5.24 -121.66,5.24 -67.22,0 -121.7,-2.34 -121.7,-5.24 0,-2.89 54.48,-5.26 121.7,-5.26 67.18,0 121.66,2.37 121.66,5.26z"/>
    <path class="fil9" d="M5634.45 7723.83c0,2.9 -54.49,5.24 -121.68,5.24 -67.2,0 -121.68,-2.34 -121.68,-5.24 0,-2.89 54.48,-5.26 121.68,-5.26 67.19,0 121.68,2.37 121.68,5.26z"/>
    <path class="fil9" d="M6121.2 7723.83c0,2.9 -54.5,5.24 -121.7,5.24 -67.21,0 -121.68,-2.34 -121.68,-5.24 0,-2.89 54.47,-5.26 121.68,-5.26 67.2,0 121.7,2.37 121.7,5.26z"/>
    <path class="fil9" d="M6607.94 7723.83c0,2.9 -54.5,5.24 -121.7,5.24 -67.22,0 -121.68,-2.34 -121.68,-5.24 0,-2.89 54.46,-5.26 121.68,-5.26 67.2,0 121.7,2.37 121.7,5.26z"/>
    <path class="fil9" d="M7094.67 7723.83c0,2.9 -54.48,5.24 -121.68,5.24 -67.23,0 -121.7,-2.34 -121.7,-5.24 0,-2.89 54.47,-5.26 121.7,-5.26 67.2,0 121.68,2.37 121.68,5.26z"/>
    <path class="fil9" d="M7459.11 7723.83c0,2.9 -27.1,5.24 -60.54,5.24 -33.44,0 -60.54,-2.34 -60.54,-5.24 0,-2.89 27.1,-5.26 60.54,-5.26 33.44,0 60.54,2.37 60.54,5.26z"/>
    <path class="fil10" d="M1759.65 6949.86c-0.02,-184.51 -0.02,-367.6 -0.04,-549.11l341.39 -36.42c0.16,59.61 2.44,106.97 5.24,106.97 2.83,0 5.13,-47.97 5.25,-108.1l1666.41 -177.8c0,0 1.3,201.81 -59.72,323.86 -61.02,122.01 -81.53,168.95 -209.72,215.89 -89.78,32.85 -913.74,130.15 -1399.76,185.52 1.68,-19.01 2.79,-56.64 2.79,-99.94 0,-62.48 -2.34,-113.15 -5.25,-113.15 -2.9,0 -5.24,50.67 -5.24,113.15 0,43.72 1.15,81.66 2.82,100.5 -182.7,20.81 -316.68,35.6 -344.17,38.63z"/>
    <path class="fil11" d="M1754.45 6950.42l0 -549.12 5.16 -0.55c0.02,181.51 0.02,364.6 0.04,549.11 -3.43,0.39 -5.2,0.56 -5.2,0.56z"/>
    <path class="fil11" d="M2106.24 6471.3c-2.8,0 -5.08,-47.36 -5.24,-106.97l10.49 -1.13c-0.12,60.13 -2.42,108.1 -5.25,108.1z"/>
    <path class="fil11" d="M2103.82 6911.23c-1.67,-18.84 -2.82,-56.78 -2.82,-100.5 0,-62.48 2.34,-113.15 5.24,-113.15 2.91,0 5.25,50.67 5.25,113.15 0,43.3 -1.11,80.93 -2.79,99.94 -1.59,0.19 -3.26,0.38 -4.88,0.56z"/>
    <path class="fil10" d="M3748.77 5424.68l-1640.08 -72.06c-0.73,-8.15 -1.56,-12.77 -2.45,-12.77 -0.87,0 -1.67,4.54 -2.4,12.57l-344.31 -15.14c-0.02,-130.82 -0.04,-260.57 -0.06,-389.25 26.76,3.19 158.06,18.87 341.55,41.59 -0.02,3.55 -0.02,7.15 -0.02,10.79 0,62.48 2.34,113.15 5.24,113.15 2.91,0 5.25,-50.67 5.25,-113.15 0,-3.2 0,-6.37 0,-9.5 317.35,39.33 784.6,98.92 1139.02,151.38 516.82,76.5 498.26,282.39 498.26,282.39z"/>
    <path class="fil11" d="M1759.53 5337.28l-5.08 -0.22 0 -389.61c0,0 1.71,0.2 5.02,0.58 0.02,128.68 0.04,258.43 0.06,389.25z"/>
    <path class="fil11" d="M2106.24 5113.56c-2.9,0 -5.24,-50.67 -5.24,-113.15 0,-3.64 0,-7.24 0.02,-10.79 3.49,0.42 6.94,0.85 10.47,1.29 0,3.13 0,6.3 0,9.5 0,62.48 -2.34,113.15 -5.25,113.15z"/>
    <path class="fil11" d="M2108.69 5352.62l-4.85 -0.2c0.73,-8.03 1.53,-12.57 2.4,-12.57 0.89,0 1.72,4.62 2.45,12.77z"/>
    <path class="fil7" d="M1808.1 6567.91l1680.96 0c159.52,0 288.84,-129.33 288.84,-288.83l0 -752.44c0,-159.53 -129.32,-288.86 -288.84,-288.86l-1680.96 0c-159.51,0 -288.84,129.33 -288.84,288.86l0 752.44c0,159.5 129.33,288.83 288.84,288.83z"/>
    <path class="fil9" d="M1808.1 6567.91c0,0 -5.83,0.06 -17.25,-0.32 -11.4,-0.1 -28.44,-1.98 -50.19,-6.82 -21.89,-4.5 -48.13,-14.19 -76.78,-29.87 -28.45,-15.96 -58.84,-39.67 -85.07,-73.27 -25.83,-33.49 -48.87,-76.63 -57.39,-128.01 -5.25,-25.49 -4.65,-52.85 -4.89,-80.6 -0.05,-27.9 -0.14,-56.88 -0.22,-86.89 -0.22,-120.1 -0.48,-256.83 -0.77,-407.91 0.11,-75.63 -0.72,-154.61 0.15,-237.36 2.19,-83.34 42.96,-169.97 115.91,-223.93 35.91,-27.1 78.67,-47.12 124.74,-54.79 22.84,-4.26 46.82,-5.08 69.92,-4.9 23.33,-0.02 46.81,-0.04 70.49,-0.06 94.65,-0.08 192.08,-0.14 291.98,-0.22 399.67,-0.14 839,-0.28 1300.17,-0.4 29.34,0.58 58.52,4.59 86.53,12.93 27.81,8.96 54.2,21.61 78.44,37.55 23.83,16.59 45.16,36.35 63.58,58.48 18.14,22.4 32.49,47.52 43.73,73.77 10.94,26.5 17.13,54.51 20.5,82.68 2.06,28.51 1.29,56.03 1.41,83.72 0,55.31 -0.02,110.15 -0.04,164.56 -0.04,108.72 -0.08,215.55 -0.12,320.18 -0.02,52.3 -0.06,104.04 -0.08,155.21 -0.44,25.73 0.93,50.73 -1.01,76.6 -0.06,12.91 -3.11,25.46 -4.74,38.14 -3.11,12.36 -5.59,24.94 -10.03,36.83 -32.09,97.02 -116.52,170.03 -210.31,191.17 -11.56,3.51 -23.64,4.09 -35.37,6.26 -11.85,0.99 -23.81,1.47 -35.53,1.83 -23.33,-0.02 -46.48,-0.04 -69.42,-0.06 -45.93,-0.06 -91.13,-0.1 -135.54,-0.14 -177.72,-0.24 -343.26,-0.44 -494.4,-0.64 -302.08,-0.7 -546.59,-1.29 -715.89,-1.68 -84.33,-0.42 -149.85,-0.75 -194.65,-0.98 -22.03,-0.23 -38.92,-0.39 -50.61,-0.51 -11.4,-0.18 -17.25,-0.55 -17.25,-0.55 0,0 5.85,-0.36 17.25,-0.54 11.69,-0.12 28.58,-0.3 50.61,-0.51 44.8,-0.24 110.32,-0.56 194.65,-0.98 169.3,-0.41 413.81,-0.97 715.89,-1.68 151.14,-0.2 316.68,-0.42 494.4,-0.64 44.41,-0.05 89.61,-0.09 135.54,-0.13 45.91,-1.15 93.01,3.78 138.18,-8.05 90.79,-20.62 172.42,-91.45 203.27,-185.26 17.49,-46.56 15.05,-97.27 15.07,-148.48 -0.02,-51.17 -0.04,-102.91 -0.06,-155.21 -0.04,-104.63 -0.1,-211.46 -0.14,-320.18 -0.02,-54.41 -0.02,-109.25 -0.04,-164.56 -0.14,-27.58 0.56,-55.64 -1.43,-82.71 -3.28,-27.16 -9.25,-54.18 -19.78,-79.71 -10.88,-25.31 -24.7,-49.54 -42.19,-71.15 -17.78,-21.33 -38.36,-40.4 -61.33,-56.38 -23.4,-15.38 -48.85,-27.55 -75.63,-36.2 -27.02,-8.02 -55.13,-11.91 -83.46,-12.49 -461.17,-0.15 -900.5,-0.28 -1300.17,-0.4 -99.9,-0.09 -197.33,-0.15 -291.98,-0.23 -23.68,-0.02 -47.16,-0.04 -70.49,-0.06 -23.47,-0.22 -45.99,0.54 -68.33,4.62 -44.67,7.35 -86.18,26.68 -121.07,52.87 -70.93,52.22 -110.72,136.23 -113.06,217.29 -1.07,82.19 -0.49,161.57 -0.83,237.08 -0.28,151.08 -0.54,287.81 -0.79,407.91 -0.06,30.01 -0.12,58.99 -0.2,86.89 0.1,27.93 -0.64,54.65 4.38,79.73 8.05,50.54 30.45,93.14 55.67,126.36 25.61,33.32 55.42,57.03 83.41,73.09 28.18,15.78 54.06,25.72 75.71,30.49 21.5,5.15 38.42,7.37 49.76,7.81 11.36,0.75 17.19,1.41 17.19,1.41z"/>
    <path class="fil9" d="M2613.92 5952.92c0,267.07 216.51,483.57 483.57,483.57 267.09,0 483.59,-216.5 483.59,-483.57 0,-267.09 -216.5,-483.58 -483.59,-483.58 -267.06,0 -483.57,216.49 -483.57,483.58z"/>
    <path class="fil12" d="M3221.47 6347.91c-1.21,-2.63 49.8,-12.9 115.3,-60.4 32.59,-23.48 67.58,-57.05 97.67,-100.82 30.09,-43.56 54.2,-98.03 64.25,-158.32 9.16,-60.46 3.1,-119.72 -12.01,-170.47 -15.03,-50.94 -37.89,-93.72 -61.6,-126.12 -47.55,-65.48 -92.84,-91.04 -90.87,-93.17 0.21,-0.3 2.93,1.26 7.95,4.5 4.9,3.45 12.72,7.81 21.45,15.16 18.18,13.76 42.62,36.52 67.46,69.09 24.9,32.45 48.99,75.77 64.9,127.77 15.98,51.78 22.53,112.64 13.09,174.89 -10.31,62.09 -35.43,117.91 -66.67,162.18 -31.22,44.5 -67.56,78.21 -101.3,101.37 -33.72,23.25 -64.01,37.3 -85.56,44.75 -10.57,4.28 -19.37,5.99 -25.08,7.76 -5.79,1.54 -8.88,2.19 -8.98,1.83z"/>
    <path class="fil7" d="M8777.11 1927.06c33.42,374.11 -243.42,704.58 -618.39,738.14 -374.97,33.52 -706.1,-242.56 -739.53,-616.69 -33.49,-374.11 243.37,-704.57 618.36,-738.1 374.97,-33.56 706.08,242.54 739.56,616.65z"/>
    <path class="fil10" d="M7582.52 2050.25c-2.37,0 -8.81,-22.28 -11.35,-63.83 -2.29,-41.58 0.34,-103.61 24.01,-175.77 11.88,-35.92 28.88,-74.15 52.49,-112.18 23.84,-37.79 53.87,-75.63 91.26,-109.63 18.62,-17.05 38.81,-33.39 60.87,-48.05 21.96,-14.77 45.34,-28.57 70.38,-40.14 24.98,-11.61 51.14,-21.98 78.55,-29.74 27.4,-7.8 55.77,-13.66 84.77,-17.34 21.97,-2.54 43.89,-3.77 65.57,-3.77 6.98,0 13.92,0.12 20.86,0.38 28.46,1 56.36,4.82 83.39,10.12 27.05,5.24 53.07,13.06 77.89,22.16 24.94,8.96 48.46,20.02 70.59,32.12 44.43,24.08 82.64,53.65 114.84,84.65 31.95,31.28 57.64,64.36 77.77,96.41 40.24,64.4 57.62,124.02 65.38,164.94 7.51,41.24 6.49,64.48 4.19,64.73 -0.04,0 -0.07,0 -0.1,0 -3.11,0 -7.37,-22.46 -19.14,-61.01 -12.04,-38.62 -32.8,-94.2 -73.88,-153.23 -20.49,-29.4 -45.92,-59.52 -76.91,-87.91 -31.2,-28.06 -67.61,-54.74 -109.48,-76.31 -20.85,-10.84 -42.92,-20.74 -66.2,-28.72 -23.2,-8.08 -47.41,-15.06 -72.57,-19.63 -25.08,-4.67 -50.93,-8.06 -77.31,-8.83 -5.7,-0.17 -11.43,-0.26 -17.17,-0.26 -20.81,0 -41.82,1.17 -62.93,3.59 -26.91,3.45 -53.2,8.81 -78.61,15.89 -25.44,7.06 -49.74,16.49 -73.01,27.02 -23.32,10.47 -45.15,23.02 -65.78,36.42 -20.69,13.3 -39.74,28.19 -57.42,43.7 -35.5,30.94 -64.49,65.56 -88.07,100.28 -23.28,34.94 -40.77,70.27 -53.67,103.72 -25.75,67.13 -32.6,126.04 -35.06,166.42 -2.23,40.58 -0.96,63.46 -4.1,63.8 -0.02,0 -0.03,0 -0.05,0z"/>
    <path class="fil10" d="M8113.29 2389.51l-9.12 -87.58c-6.87,0.31 -13.74,0.44 -20.57,0.44 -72.8,0 -142.51,-16.51 -186.2,-43.9l33.98 -102.65c42.75,25.26 101.9,40.84 159.67,40.84 0.72,0 1.45,0 2.17,0l-13.97 -134.21c-91.45,-12.38 -194.17,-31.76 -206.13,-146.68 -8.86,-85.19 45.41,-164.74 170.87,-192.4l-9.29 -89.21 80.36 -8.36 9.12 87.61c3.85,-0.09 7.7,-0.14 11.53,-0.14 56.83,0 112.53,10.12 156.67,32.18l-29.88 103.02c-43.41,-19.03 -86.63,-28.35 -127.29,-29.01l14.22 136.62c91.34,11.59 192.5,31.15 204.26,144.44 8.7,83.59 -44.85,162.26 -169.42,190.64l9.38 90.02 -80.36 8.33zm48.43 -315.32l11.54 110.89c39.25,-13.01 54.75,-35.72 52.08,-61.45 -2.92,-28.13 -27.81,-40.96 -63.62,-49.44zm-106.63 -243.95c-41.58,14.08 -56.03,39.13 -53.27,65.67 2.93,28.09 28.63,40.87 65.16,48.43l-11.89 -114.1z"/>
    <path class="fil9" d="M7580.85 2035.38c0.13,0 0.47,1.4 1,4.12 0.55,3.21 1.26,7.21 2.14,12.17 0.89,5.54 1.98,12.13 3.23,19.79 1.26,7.81 2.33,16.89 5.33,26.76 8.82,40.03 27.53,97.38 66.1,159.83 18.79,31.53 44.52,62.62 74.29,93.68 7.96,7.26 16.1,14.6 24.32,22.07 4.17,3.68 8.15,7.67 12.58,11.17 4.53,3.37 9.09,6.79 13.68,10.22 9.28,6.7 18.23,14.2 28.18,20.53 10.07,6.13 20.27,12.35 30.6,18.65 42.37,23.12 89.42,43.59 140.99,54.72 51.43,11.13 106.2,15.19 161.91,10.79 55.61,-5.85 108.73,-19.82 157.28,-40.14 48.69,-20.38 91.21,-49.09 128.66,-79.55 9.01,-8.07 17.91,-16.04 26.69,-23.91 8.63,-8.05 16.05,-17.05 23.98,-25.34 3.88,-4.22 7.74,-8.39 11.58,-12.55 3.73,-4.24 6.89,-8.89 10.33,-13.26 6.73,-8.85 13.37,-17.57 19.88,-26.13 23.6,-35.98 43.22,-71.27 55.96,-105.68 26.53,-68.43 34.45,-128.24 35.83,-169.19 1.14,-10.26 0.53,-19.38 0.36,-27.29 -0.19,-7.76 -0.33,-14.43 -0.45,-20.04 -0.05,-5.05 -0.08,-9.12 -0.11,-12.35 0.02,-2.79 0.11,-4.22 0.23,-4.24 0.14,-0.01 0.34,1.39 0.59,4.16 0.23,3.25 0.54,7.3 0.91,12.32 0.34,5.64 0.74,12.31 1.2,20.08 0.44,7.95 1.29,17.13 0.4,27.45 -0.45,41.23 -7.53,101.69 -33.68,171.16 -12.52,34.91 -32.1,70.78 -55.75,107.39 -6.56,8.72 -13.22,17.59 -19.99,26.59 -3.44,4.46 -6.62,9.2 -10.4,13.51 -3.86,4.24 -7.74,8.5 -11.64,12.78 -7.99,8.44 -15.49,17.6 -24.19,25.82 -8.87,8 -17.87,16.14 -26.97,24.36 -37.84,31.06 -80.93,60.34 -130.32,81.12 -49.24,20.75 -103.2,34.99 -159.64,40.93 -56.57,4.46 -112.21,0.29 -164.4,-11.14 -52.33,-11.41 -100.03,-32.32 -142.89,-55.96 -10.46,-6.42 -20.77,-12.78 -30.97,-19.04 -10.02,-6.48 -19.08,-14.12 -28.46,-20.97 -4.64,-3.5 -9.24,-6.98 -13.8,-10.43 -4.48,-3.56 -8.49,-7.62 -12.69,-11.38 -8.29,-7.62 -16.44,-15.14 -24.49,-22.51 -29.95,-31.67 -55.71,-63.37 -74.43,-95.41 -38.36,-63.53 -56.36,-121.7 -64.32,-162.15 -2.76,-9.98 -3.59,-19.16 -4.63,-27.05 -0.95,-7.73 -1.78,-14.38 -2.48,-19.97 -0.55,-5.02 -1,-9.06 -1.35,-12.28 -0.26,-2.77 -0.32,-4.2 -0.18,-4.21z"/>
    <path class="fil7" d="M9407.89 5487.47c-124.17,257.61 -434.11,365.59 -692.33,241.14 -258.2,-124.42 -366.89,-434.13 -242.71,-691.75 124.14,-257.6 434.09,-365.56 692.3,-241.12 258.19,124.42 366.88,434.15 242.74,691.73z"/>
    <path class="fil10" d="M9302.07 5422.7c-0.04,0 -0.11,-0.02 -0.12,-0.04 -2.22,-0.95 3.81,-17.31 11.21,-47.36 7.21,-29.97 15.34,-74.4 11.55,-129.02 -1.94,-27.21 -6.81,-56.81 -15.99,-87.48 -9.42,-30.51 -22.8,-62.17 -41.76,-92.6 -9.41,-15.25 -19.96,-30.33 -32.07,-44.62 -12.01,-14.36 -25.12,-28.35 -39.75,-41.16 -14.59,-12.84 -30.19,-25.15 -47.12,-35.94 -16.91,-10.84 -34.85,-20.58 -53.65,-29.1 -18.93,-8.23 -38.22,-14.99 -57.58,-20.28 -19.39,-5.33 -38.96,-8.63 -58.27,-10.84 -13.46,-1.57 -26.84,-2.22 -40.04,-2.22 -5.75,0 -11.5,0.12 -17.19,0.35 -18.73,0.6 -36.99,2.93 -54.59,6.15 -35.29,6.38 -67.74,17.7 -96.69,31.18 -28.88,13.74 -54.08,30 -75.57,46.85 -43.04,33.83 -70.51,69.64 -87.88,95.09 -16.79,24.86 -24.9,40.15 -27.38,40.15 -0.08,0 -0.15,0 -0.23,-0.04 -1.63,-0.68 2.83,-17.83 17.5,-46.16 14.71,-28.09 40.64,-67.63 84.29,-105.54 21.77,-18.85 47.84,-37.19 78.11,-52.85 30.31,-15.38 64.71,-28.41 102.45,-36.04 18.81,-3.85 38.38,-6.68 58.51,-7.65 7.98,-0.42 16.05,-0.66 24.18,-0.66 12.37,0 24.9,0.56 37.49,1.9 20.87,2.15 42.04,5.6 62.98,11.24 20.95,5.58 41.77,12.83 62.17,21.75 20.3,9.14 39.61,19.71 57.82,31.49 18.2,11.77 34.96,25.17 50.55,39.19 15.65,13.97 29.6,29.24 42.29,44.88 12.75,15.6 23.83,32 33.6,48.53 19.63,33.09 33.05,67.32 42.01,100.17 8.67,32.93 12.57,64.59 13.22,93.37 1.17,57.81 -10.74,103.56 -21.65,133.34 -10.92,29.16 -20.45,43.97 -22.4,43.97z"/>
    <path class="fil10" d="M8849.25 5556.59l-55.8 -25.91 28.26 -60.8c-53.7,-29 -98.68,-70.87 -118.21,-109.13l62.27 -53.82c18.3,33.6 51.48,67.3 89.86,89.86l43.24 -93.19c-54.95,-43.78 -114.53,-96.53 -77.48,-176.32 20.05,-43.18 60.91,-71.25 117.62,-71.25 20.97,0 44.09,3.83 69.15,12.17l28.78 -61.93 55.77 25.88 -28.23 60.85c40.3,22.74 75.83,52.81 97.45,86.58l-59.76 55.68c-20.94,-29.38 -45.54,-52.33 -71.87,-68.65l-44.04 94.86c55.2,43.24 113.67,95.51 77.15,174.15 -19.72,42.49 -60.25,70.24 -116.85,70.24 -20.71,0 -43.53,-3.71 -68.31,-11.77l-29 62.5zm98.94 -213.11l-35.74 76.98c7.04,1.55 13.48,2.3 19.29,2.3 19.6,0 32.37,-8.38 38.77,-22.13 9.06,-19.54 -2.22,-37.64 -22.32,-57.15zm6.66 -203.26c-21.43,0 -34.83,9.74 -41.57,24.29 -9.06,19.51 2.73,37.9 23.69,57.09l36.74 -79.2c-6.88,-1.5 -13.15,-2.18 -18.86,-2.18z"/>
    <path class="fil9" d="M8583.66 5091.36c1,0.47 -6.22,16.34 -16.09,45.93 -9.58,29.64 -19.47,74.32 -18.42,129.97 0.08,27.83 4.84,58.06 12.21,89.82 9.06,31.32 20.74,64.41 39.24,96.15 18.63,31.46 41.29,63 70.51,90.24 29.12,27.18 63.18,51.05 101.1,69.84 38.4,17.78 78.33,29.32 117.8,34.97 39.53,5.69 78.34,3.59 114.52,-1.64 36.34,-5.46 69.46,-17.14 99.52,-29.72 29.36,-14.17 55.9,-29.42 77.63,-46.79 43.99,-34.07 72.62,-69.82 89.69,-95.85 16.87,-26.23 24.72,-41.79 25.69,-41.31 0.34,0.16 -1.41,4.14 -5.06,11.56 -3.98,7.27 -8.48,18.81 -17.18,31.94 -16.18,26.98 -44.31,64.02 -88.58,99.53 -21.85,18.08 -48.69,34.04 -78.56,48.85 -30.57,13.22 -64.37,25.47 -101.58,31.36 -37.02,5.61 -76.82,7.97 -117.44,2.28 -40.52,-5.65 -81.58,-17.46 -121.01,-35.72 -38.93,-19.27 -73.84,-43.83 -103.66,-71.86 -29.89,-28.06 -52.99,-60.55 -71.82,-92.92 -18.72,-32.66 -30.39,-66.65 -39.27,-98.77 -7.16,-32.53 -11.56,-63.49 -11.18,-91.84 -0.09,-56.72 11.12,-101.88 21.98,-131.4 4.78,-15.03 10.98,-25.77 14.13,-33.4 3.5,-7.51 5.48,-11.36 5.83,-11.22z"/>
    <path class="fil7" d="M1883.93 1046.39c37.36,257.1 -141.26,495.89 -398.94,533.34 -257.7,37.45 -496.9,-140.61 -534.26,-397.72 -37.37,-257.1 141.25,-495.88 398.95,-533.33 257.69,-37.46 496.88,140.61 534.25,397.71z"/>
    <path class="fil10" d="M1063.59 1177c-1.64,0 -6.93,-15.15 -10.26,-43.66 -3.15,-28.63 -3.7,-71.57 9.9,-122.31 6.83,-25.27 17.12,-52.32 31.96,-79.49 15.04,-26.99 34.33,-54.27 58.86,-79.19 12.22,-12.47 25.53,-24.54 40.2,-35.5 14.61,-11.02 30.23,-21.46 47.08,-30.39 16.81,-8.97 34.49,-17.13 53.13,-23.54 18.62,-6.44 37.99,-11.56 57.87,-15.21 19.94,-3.41 39.87,-5.27 59.56,-5.62 2.02,-0.05 4.04,-0.07 6.06,-0.07 17.62,0 34.99,1.51 51.92,3.87 18.89,2.59 37.15,7 54.65,12.34 17.55,5.24 34.22,11.99 49.98,19.49 31.59,14.94 59.11,33.9 82.54,54.09 23.27,20.4 42.26,42.25 57.38,63.62 30.24,42.94 44.52,83.46 51.42,111.42 6.78,28.21 6.96,44.29 5.36,44.54 -0.02,0 -0.04,0 -0.08,0 -2.15,0 -5.96,-15.33 -15.53,-41.39 -9.79,-26.22 -26.25,-63.81 -56.85,-103.03 -15.28,-19.51 -33.99,-39.35 -56.47,-57.76 -22.61,-18.2 -48.77,-35.24 -78.51,-48.53 -14.82,-6.7 -30.44,-12.69 -46.81,-17.32 -16.35,-4.7 -33.33,-8.6 -50.88,-10.8 -15.15,-1.97 -30.66,-3.24 -46.4,-3.24 -2.44,0 -4.88,0.04 -7.34,0.09 -18.24,0.44 -36.7,2.2 -55.19,5.35 -18.45,3.41 -36.41,8.12 -53.68,13.97 -17.3,5.85 -33.72,13.3 -49.39,21.44 -15.72,8.13 -30.31,17.63 -44.04,27.66 -13.79,9.99 -26.38,20.98 -38,32.38 -23.34,22.71 -42.04,47.73 -56.99,72.6 -14.76,25.03 -25.5,50.09 -33.12,73.68 -15.22,47.34 -17.72,88.29 -17.88,116.27 0,28.12 1.75,43.88 -0.4,44.22 -0.02,0.02 -0.03,0.02 -0.05,0.02z"/>
    <path class="fil10" d="M1443.1 1391.07l-9.63 -60.13c-10.9,1.07 -21.8,1.58 -32.54,1.58 -43.6,0.02 -84.52,-8.59 -111.92,-23.73l19.56 -72.18c27.3,14.16 63.4,22.46 99.29,22.46 4.69,0 9.38,-0.13 14.04,-0.43l-14.76 -92.15c-63.63,-5.07 -135.32,-14.54 -147.96,-93.45 -9.36,-58.49 25.08,-115.52 110.67,-139.39l-9.8 -61.27 55.18 -8.83 9.63 60.17c8.59,-0.69 17.19,-1.04 25.71,-1.04 33.07,0 65.1,5.25 91.68,16.74l-16.71 72.3c-27.89,-10.43 -55.36,-15.34 -81.23,-15.34 -2.62,0 -5.21,0.05 -7.79,0.15l15.02 93.83c63.54,4.52 134.13,14.17 146.59,91.97 9.18,57.39 -24.8,113.76 -109.75,138.12l9.9 61.81 -55.18 8.81zm21.43 -219.62l12.19 76.16c26.63,-10.48 36.47,-26.77 33.65,-44.44 -3.1,-19.31 -20.78,-27.22 -45.84,-31.72zm-82.93 -164.41c-28.18,11.29 -37.2,29.16 -34.29,47.37 3.1,19.3 21.33,27.14 46.85,30.97l-12.56 -78.34z"/>
    <path class="fil9" d="M1061.88 1166.79c0.1,-0.03 0.39,0.93 0.87,2.79 0.51,2.23 1.16,4.95 1.96,8.32 0.83,3.81 1.83,8.32 2.99,13.55 1.18,5.33 2.27,11.58 4.71,18.27 7.64,27.29 22.75,66.19 51.78,107.82 14.18,21.04 33.14,41.52 54.87,61.84 5.79,4.7 11.66,9.47 17.64,14.31 3.02,2.37 5.91,4.99 9.1,7.22 3.26,2.16 6.54,4.35 9.84,6.54 6.67,4.27 13.14,9.11 20.24,13.09 7.19,3.85 14.47,7.75 21.84,11.71 30.14,14.34 63.39,26.68 99.41,32.4 35.93,5.73 73.9,6.43 112.19,1.29 38.16,-6.17 74.31,-17.82 107.05,-33.72 32.84,-15.9 61.1,-37.34 85.8,-59.79 5.91,-5.92 11.76,-11.76 17.52,-17.53 5.64,-5.88 10.43,-12.38 15.59,-18.4 2.51,-3.06 5.02,-6.09 7.51,-9.11 2.42,-3.05 4.43,-6.39 6.63,-9.55 4.32,-6.36 8.57,-12.63 12.75,-18.8 14.91,-25.73 27.13,-50.84 34.62,-75.08 15.73,-48.26 18.93,-89.85 18.33,-118.17 0.41,-7.13 -0.36,-13.41 -0.77,-18.87 -0.41,-5.35 -0.76,-9.94 -1.06,-13.83 -0.21,-3.45 -0.39,-6.25 -0.53,-8.51 -0.09,-1.93 -0.09,-2.93 0.02,-2.94 0.09,-0.02 0.28,0.95 0.58,2.85 0.29,2.25 0.65,5.03 1.1,8.48 0.46,3.87 1,8.48 1.62,13.81 0.6,5.47 1.55,11.78 1.32,18.95 1.29,28.48 -1.28,70.52 -16.68,119.51 -7.33,24.61 -19.46,50.14 -34.42,76.33 -4.19,6.28 -8.46,12.66 -12.78,19.15 -2.21,3.2 -4.24,6.59 -6.67,9.73 -2.5,3.06 -5.02,6.15 -7.56,9.28 -5.19,6.14 -10.03,12.74 -15.72,18.75 -5.82,5.87 -11.73,11.83 -17.71,17.86 -24.95,22.91 -53.6,44.78 -86.94,61.02 -33.23,16.22 -69.97,28.11 -108.74,34.37 -38.91,5.23 -77.51,4.48 -114.01,-1.43 -36.59,-5.9 -70.35,-18.53 -100.86,-33.22 -7.46,-4.06 -14.84,-8.05 -22.11,-12 -7.18,-4.08 -13.72,-9.01 -20.47,-13.39 -3.34,-2.24 -6.64,-4.48 -9.92,-6.69 -3.24,-2.29 -6.15,-4.94 -9.2,-7.37 -6.02,-4.95 -11.95,-9.84 -17.78,-14.63 -21.89,-20.73 -40.9,-41.66 -55.04,-63.09 -28.92,-42.43 -43.56,-81.94 -50.57,-109.58 -2.29,-6.79 -3.21,-13.11 -4.22,-18.51 -0.95,-5.3 -1.76,-9.85 -2.46,-13.7 -0.56,-3.43 -1.01,-6.2 -1.38,-8.44 -0.28,-1.91 -0.38,-2.88 -0.28,-2.89z"/>
    <path class="fil13" d="M8357.81 4290.74c0,0 -1.57,-134.33 -7.26,-135.38l-275.97 61.41c-2.88,17.47 -37.71,237.78 -31.74,259.19l310.45 86.13c0,0 4.52,-263.56 4.52,-271.35z"/>
    <path class="fil13" d="M8358.1 4541.65c0.54,-0.27 0.98,-2.42 1.37,-6.08 3.16,-30.06 1.23,-161.28 -14.77,-166.9 -17.96,-6.29 -62.8,3.98 -65.91,21.29 -3.07,17.28 7.45,164.99 7.45,164.99 0,0 3.14,23.26 42.25,28.89 24.2,3.49 29.61,-42.19 29.61,-42.19z"/>
    <path class="fil13" d="M8279.4 4588.85c0.5,-0.29 0.99,-2.43 1.35,-6.08 3.17,-30.07 1.25,-161.29 -14.75,-166.88 -17.96,-6.3 -62.82,3.96 -65.91,21.27 -3.08,17.27 7.43,164.96 7.43,164.96 0,0 3.15,23.29 42.28,28.92 24.17,3.49 29.6,-42.19 29.6,-42.19z"/>
    <path class="fil13" d="M8202.38 4612.41c0.52,-0.28 0.96,-2.44 1.37,-6.07 3.16,-30.06 1.23,-161.29 -14.77,-166.9 -17.94,-6.3 -62.8,3.98 -65.89,21.25 -3.1,17.29 7.43,165 7.43,165 0,0 3.13,23.27 42.27,28.92 24.18,3.49 29.59,-42.2 29.59,-42.2z"/>
    <path class="fil13" d="M8125.77 4634.55c0.53,-0.26 0.99,-2.42 1.38,-6.05 3.17,-30.07 1.23,-161.31 -14.79,-166.92 -17.92,-6.28 -62.78,3.97 -65.86,21.27 -3.12,17.29 7.42,165 7.42,165 0,0 3.13,23.25 42.28,28.92 24.17,3.47 29.57,-42.22 29.57,-42.22z"/>
    <path class="fil14" d="M8278.21 4428.32c2.26,0.19 5.02,28.8 6.15,63.87 1.13,35.09 0.23,63.4 -2.03,63.22 -2.26,-0.2 -5.03,-28.8 -6.14,-63.89 -1.15,-35.07 -0.22,-63.38 2.02,-63.2z"/>
    <path class="fil14" d="M8200.84 4427.92c2.26,-0.1 5.57,40.56 7.35,90.81 1.77,50.24 1.39,91 -0.89,91.08 -2.28,0.08 -5.59,-40.56 -7.37,-90.8 -1.77,-50.23 -1.37,-91.03 0.91,-91.09z"/>
    <path class="fil15" d="M8128.68 4616.33c-0.22,0 -0.44,-0.36 -0.69,-1.09 0.23,-5.89 0.39,-12.88 0.43,-20.56 0.47,7.18 0.89,13.48 1.23,18.5 -0.28,2.06 -0.6,3.15 -0.97,3.15l0 0z"/>
    <path class="fil16" d="M8122.89 4492.05c-0.79,-5.33 -1.67,-10.15 -2.64,-14.33 -0.21,-25.95 0.5,-43.26 2,-43.31l0 0c0.99,0 2.17,7.79 3.34,20.77 -1.29,1.74 -2.15,3.59 -2.5,5.51 -0.74,4.18 -0.7,15.92 -0.2,31.36z"/>
    <path class="fil16" d="M8129.65 4613.18c-0.34,-5.02 -0.76,-11.32 -1.23,-18.5 0.16,-31.24 -1.33,-74.04 -5.53,-102.63 -0.5,-15.44 -0.54,-27.18 0.2,-31.36 0.35,-1.92 1.21,-3.77 2.5,-5.51 1.52,16.65 2.99,41.83 4,70.04 1.48,42.05 1.45,77.47 0.06,87.96z"/>
    <path class="fil16" d="M8127.99 4615.24c-2.22,-6.76 -5.06,-44.34 -6.65,-89.72 -0.63,-17.53 -0.99,-33.89 -1.09,-47.8 0.97,4.18 1.85,9 2.64,14.33 4.2,28.59 5.69,71.39 5.53,102.63 -0.04,7.68 -0.2,14.67 -0.43,20.56z"/>
    <path class="fil13" d="M8072.81 4223.95c0,0 -109.23,248.18 -93.27,263.6 15.96,15.4 67.21,39.04 67.21,39.04l26.06 -302.64z"/>
    <path class="fil13" d="M7468.85 895.44l-80.03 928.1 -464.84 -37.12c-2.91,-54.26 0.99,-264.22 0.99,-264.22 0,0 -193.4,-30.09 -195.8,-223.45 -1.15,-93.91 12.27,-288.01 26.4,-462.82 15.66,-193.98 183.32,-339.85 377.61,-328.51 201.18,11.76 352.98,187.24 335.67,388.02z"/>
    <path class="fil14" d="M6924.65 1519.41c0,0 122.22,9.95 252.09,-71.65 0,0 -59.59,139.15 -252.54,121.74l0.45 -50.09z"/>
    <path class="fil9" d="M6807.08 971.41c-0.52,14.59 11.4,27.06 26.62,27.87 15.2,0.82 27.97,-10.31 28.47,-24.91 0.53,-14.56 -11.4,-27.05 -26.59,-27.86 -15.22,-0.83 -27.99,10.33 -28.5,24.9z"/>
    <path class="fil9" d="M6796.91 933.37c3.41,3.6 24.34,-11.88 54.06,-11.8 29.67,-0.35 51.48,14.95 54.73,11.3 1.57,-1.61 -1.92,-8.11 -11.43,-15.03 -9.34,-6.88 -25.28,-13.59 -43.8,-13.5 -18.5,0.12 -34.06,6.92 -43.03,13.9 -9.14,7 -12.22,13.52 -10.53,15.13z"/>
    <path class="fil9" d="M7099.68 971.43c-0.53,14.57 11.4,27.04 26.61,27.85 15.2,0.82 27.95,-10.31 28.46,-24.91 0.54,-14.56 -11.4,-27.03 -26.6,-27.86 -15.22,-0.83 -27.97,10.33 -28.47,24.92z"/>
    <path class="fil9" d="M7089.01 938.91c3.41,3.6 24.37,-11.87 54.05,-11.79 29.69,-0.35 51.5,14.93 54.73,11.3 1.57,-1.61 -1.88,-8.11 -11.4,-15.02 -9.35,-6.89 -25.29,-13.59 -43.79,-13.51 -18.52,0.09 -34.11,6.92 -43.04,13.88 -9.12,7.02 -12.23,13.52 -10.55,15.14z"/>
    <path class="fil9" d="M6981.17 1159.3c0.14,-1.7 -18.35,-4.89 -48.29,-8.72 -7.59,-0.79 -14.75,-2.28 -16.04,-7.46 -1.8,-5.47 1.39,-13.67 5.06,-22.48 7.15,-18.39 14.61,-37.62 22.46,-57.8 31.16,-82.27 53.72,-149.91 50.39,-151.14 -3.31,-1.23 -31.28,64.45 -62.46,146.74 -7.48,20.29 -14.67,39.61 -21.49,58.12 -2.86,8.63 -7.81,18.4 -3.93,29.78 2.06,5.67 7.61,9.79 12.47,11.1 4.88,1.47 9.14,1.58 12.89,1.79 30.13,1.62 48.82,1.76 48.94,0.07z"/>
    <path class="fil9" d="M7068.62 1179.86c-4.84,-0.29 -4.9,31.96 -32.52,54.84 -27.55,22.99 -61.93,19.35 -62.2,23.88 -0.44,2.01 7.67,6.25 22.18,6.66 14.22,0.48 35.01,-4.08 51.92,-18.11 16.83,-14.02 24.09,-32.77 25.18,-46 1.23,-13.48 -2.36,-21.47 -4.56,-21.27z"/>
    <path class="fil9" d="M7081.34 822.45c2.92,8.07 32.58,4.26 67.45,8.46 34.95,3.51 63.06,13.72 67.7,6.45 2.04,-3.45 -2.84,-11.05 -14.2,-18.87 -11.28,-7.82 -29.24,-15.25 -50.19,-17.57 -20.92,-2.28 -40.09,1.05 -52.79,6.21 -12.79,5.15 -19.24,11.49 -17.97,15.32z"/>
    <path class="fil9" d="M6807.83 847.37c5.23,6.76 25.69,-0.26 50.31,-0.59 24.61,-1.2 45.46,4.53 50.26,-2.52 2.1,-3.42 -1.17,-10.19 -10.27,-16.58 -9,-6.36 -24.01,-11.57 -40.92,-11.06 -16.91,0.55 -31.56,6.66 -40.14,13.58 -8.69,6.92 -11.54,13.86 -9.24,17.17z"/>
    <path class="fil9" d="M7510.34 775.86c-11,93.97 -36.62,212.79 -44.05,308.84 -0.69,8.83 -1.55,18.2 -6.9,25.28 -13.79,18.28 -46.53,57.75 -63.28,42.13 -40.72,-37.93 -56.66,-144.19 -64.78,-199.27 -8.09,-55.08 -6.74,-111.18 -14.28,-166.35l-0.55 -3.9c-5.37,-38.7 -25.63,-73.73 -56.2,-98.02 -7.18,-4.8 -14.67,-9.2 -22.74,-12.05 -56.81,-20.04 -151.55,16.97 -208.12,37.6 -29.23,10.65 -57.48,23.79 -85.85,36.66 -64.91,29.44 -141.83,25.04 -199.59,-16.75 -34.44,-24.9 -37.47,-103.78 -22.37,-153.66 40.69,-134.69 210.16,-181.07 427.42,-129.61 215.7,51.09 383.34,135.89 361.29,329.1z"/>
    <path class="fil13" d="M7403.65 982.93c3.29,-1.43 132.86,-39.31 128.65,92.91 -4.23,132.21 -136.07,100.69 -136.19,96.9 -0.11,-3.8 7.54,-189.81 7.54,-189.81z"/>
    <path class="fil14" d="M7438.1 1123.94c0.6,-0.4 2.26,1.68 6.09,3.59 3.74,1.86 10.23,3.28 17.22,0.91 14.12,-4.68 26.57,-26.49 27.96,-50.3 0.73,-12.01 -1.41,-23.55 -5.36,-33.16 -3.74,-9.8 -9.79,-16.76 -16.75,-18.24 -6.96,-1.83 -12.07,2.22 -13.83,5.88 -1.87,3.65 -1.12,6.31 -1.83,6.51 -0.36,0.33 -2.75,-2.3 -1.51,-7.73 0.62,-2.6 2.26,-5.69 5.47,-8.13 3.24,-2.46 7.95,-3.63 12.83,-2.95 10.17,1.03 19.05,10.7 23.38,21.27 4.93,10.62 7.63,23.59 6.82,37.09 -1.71,26.62 -16.12,51.11 -35.41,56.02 -9.36,2.14 -17.05,-0.91 -20.96,-4.16 -3.98,-3.41 -4.59,-6.38 -4.12,-6.6z"/>
    <path class="fil17" d="M7508.28 784.84c1.54,2.11 -38.96,24.51 -94.54,25.2 -55.55,1.29 -96.84,-19.61 -95.36,-21.79 1.05,-3.07 42.17,12.59 95.2,11.28 52.99,-0.57 93.55,-17.72 94.7,-14.69z"/>
    <path class="fil17" d="M7503.66 822.65c1.6,2.06 -37.05,24.48 -90.56,25.2 -53.54,1.3 -92.97,-19.65 -91.46,-21.79 1.07,-3.07 40.4,12.6 91.26,11.28 50.85,-0.58 89.57,-17.71 90.76,-14.69z"/>
    <path class="fil9" d="M6583.7 7408.61l85.86 395.56c0,0 -373.2,220.14 -364.45,294.77l772.95 -138.95 -108.52 -621.83 -385.84 70.45z"/>
    <path class="fil17" d="M7078.06 7959.99l-13.39 -62.24 -736.09 156.5c0,0 -31.72,21.17 -23.47,44.69l772.95 -138.95z"/>
    <path class="fil9" d="M7462.8 7452.15l12.75 404.57c0,0 -406.93,148.82 -411.85,223.83l785.32 3.44 5.98 -631.19 -392.2 -0.65z"/>
    <path class="fil18" d="M7063.4 8076.55l0.05 0 0.06 0 0.06 0 0.06 0 0.05 0 0.06 0 0.06 0 0.06 0 0.05 0 0.05 0 0.06 0 0.06 0 0.06 0 0.05 0 0.06 0 0.06 0c2.38,-9.83 10.99,-20.79 24.21,-32.43 -9.16,5.27 -24.96,16.63 -25.12,32.43z"/>
    <path class="fil19" d="M7064.28 8076.65c-0.4,0 -0.48,0 -0.88,0 0,-0.04 0,-0.06 0,-0.1 0.3,0 0.6,0 0.91,0 0,0.04 0,0.06 -0.03,0.1z"/>
    <path class="fil19" d="M7849.02 8083.99l-785.32 -3.44c-0.22,-1.34 -0.3,-2.63 -0.3,-3.9 0.4,0 0.48,0 0.88,0 -0.3,1.31 -0.5,2.62 -0.58,3.9l785.32 3.44z"/>
    <path class="fil19" d="M7849.02 8083.99l-785.32 -3.44c0.08,-1.28 0.28,-2.59 0.58,-3.9 0.03,-0.04 0.03,-0.06 0.03,-0.1 2.38,-9.83 10.99,-20.79 24.21,-32.43 3.73,-2.14 6.35,-3.27 6.35,-3.27l752.25 -20.5 1.9 63.64z"/>
    <path class="fil9" d="M6541.37 7747.89c0,0 -402.55,-1974.81 -402.89,-2014.34l719.11 -380.21 278.49 2317.59 -594.71 76.96z"/>
    <path class="fil9" d="M7446.94 7814.06l-556.09 -3422.79 0 -738.22 759.71 70.5c9.57,28.76 258.27,4095.05 258.27,4095.05l-78.39 -4.54 -383.5 0z"/>
    <polygon class="fil9" points="6453.71,3600.83 6138.48,5733.55 6843.25,5562.62 7130.53,3670.16 "/>
    <path class="fil17" d="M7105.71 3781.63c0,0 0.1,3.57 0.79,10.47 0.76,7.27 1.83,17.41 3.23,30.59 3.11,27.26 7.61,66.8 13.4,117.54 12.04,102.03 30.16,249.58 53.87,431.73 47.04,364.37 118.44,866.83 195.09,1422.01 38.2,277.7 73.31,542.43 103.28,783.45 7.73,60.25 13.88,119.09 22.4,176.14 8.72,56.87 17.19,112.05 25.36,165.45 16.18,106.74 31.26,206.19 45.04,297.01 27.26,181.63 48.83,328.72 62.96,430.44 7.07,50.85 12.27,90.38 15.38,117.22 1.57,13.41 2.58,23.67 3.05,30.56 0.21,3.45 0.3,6.08 0.09,7.78 -0.21,2.19 -1.27,-0.17 -1.19,0.28l0.27 0.62 1.41 -0.83c0.38,-1.75 0.45,-4.4 0.41,-7.89 -0.13,-6.96 -0.83,-17.25 -2.1,-30.73 -2.49,-26.94 -7.09,-66.55 -13.59,-117.52 -12.97,-101.93 -33.51,-249.14 -59.93,-430.9 -13.39,-90.9 -28.09,-190.43 -43.85,-297.26 -8.05,-53.38 -16.34,-108.64 -24.92,-165.52 -8.33,-56.77 -14.36,-115.77 -21.95,-175.98 -29.46,-241.08 -64.31,-505.91 -102.53,-783.65 -76.66,-555.22 -149.14,-1057.5 -197.89,-1421.59 -24,-181.81 -43.45,-329.05 -56.91,-431.28 -6.58,-50.65 -11.7,-90.1 -15.22,-117.3 -1.79,-13.14 -3.21,-23.25 -4.2,-30.49 -0.98,-6.86 -1.75,-10.35 -1.75,-10.35z"/>
    <path class="fil17" d="M6681.79 7729.57c0,0 -0.28,-3.45 -1.31,-10.13 -1.13,-7.04 -2.73,-16.87 -4.8,-29.58 -4.5,-26.37 -11.04,-64.57 -19.42,-113.61 -17.35,-98.96 -42.33,-241.49 -73.18,-417.48 -62.78,-352.69 -149.39,-839.3 -245.04,-1376.76 -7,-33.12 -9.44,-66.66 -5.93,-99.75 4.22,-32.99 9.73,-66.35 14.57,-99.14 10.17,-65.7 20.18,-130.44 30.05,-194.08 20.02,-127.15 39.77,-249.77 59.25,-366.45 38.8,-233.37 76.27,-443.13 109.73,-618.89 33.53,-175.72 62.94,-317.49 85.29,-414.99 10.6,-48.9 20.16,-86.55 26.09,-112.22 2.91,-12.53 5.15,-22.26 6.76,-29.18 1.46,-6.6 1.98,-10.03 1.98,-10.03 0,0 -1.15,3.27 -2.95,9.77 -1.81,6.9 -4.36,16.52 -7.69,28.98 -6.53,25.52 -16.72,63.04 -27.84,111.83 -23.51,97.3 -53.94,238.93 -88.36,414.57 -34.33,175.64 -72.5,385.34 -111.79,618.69 -19.74,116.67 -39.68,239.28 -59.85,366.47 -9.89,63.6 -19.94,128.36 -30.17,194.08 -4.91,32.99 -10.35,65.72 -14.7,99.6 -3.6,34.03 -1.06,68.99 6.06,102.67 96.74,537.19 184.34,1023.54 247.8,1376.06 32.12,175.74 58.15,318.08 76.21,416.9 9.17,48.89 16.29,87.01 21.19,113.3 2.48,12.62 4.4,22.42 5.77,29.42 1.36,6.62 2.28,9.95 2.28,9.95z"/>
    <path class="fil17" d="M6890.85 4367.14c-2.64,0.4 30.21,221.53 73.37,493.82 43.18,272.39 80.29,492.79 82.93,492.38 2.65,-0.42 -30.2,-221.5 -73.37,-493.9 -43.16,-272.27 -80.29,-492.72 -82.93,-492.3z"/>
    <path class="fil17" d="M7440.28 7807.9c-0.06,0.69 6.43,1.76 18.2,3.2 11.78,1.41 28.86,3.02 49.98,4.65 42.26,3.31 100.76,6.45 165.43,7.52 64.69,1.04 123.25,-0.13 165.61,-2.02 21.16,-0.96 38.26,-2 50.08,-3.05 11.83,-1.02 18.34,-1.88 18.33,-2.56 -0.07,-1.38 -26.28,-1.4 -68.59,-1.23 -42.32,0.16 -100.74,0.22 -165.27,-0.82 -64.53,-1.08 -122.91,-3.1 -165.21,-4.65 -42.29,-1.56 -68.46,-2.41 -68.56,-1.04z"/>
    <path class="fil17" d="M6541.37 7747.89c0.1,0.67 8.49,0.21 23.61,-1.18 17.05,-1.82 38.46,-4.08 63.93,-6.81 53.91,-6.13 128.29,-15.27 210.4,-25.96 82.11,-10.66 156.39,-20.85 210.08,-28.64 25.3,-3.85 46.58,-7.09 63.53,-9.66 14.97,-2.47 23.2,-4.12 23.16,-4.71 -0.08,-0.76 -8.52,-0.36 -23.63,0.96 -15.13,1.34 -36.97,3.61 -63.92,6.63 -53.94,6.05 -128.36,15.15 -210.47,25.83 -82.09,10.67 -156.37,20.91 -210.05,28.78 -25.3,3.93 -46.59,7.22 -63.52,9.84 -14.97,2.55 -23.2,4.26 -23.12,4.92z"/>
    <path class="fil17" d="M5482.96 2340.15l453.44 344.82c0,0 421.9,-719.48 459.18,-764.22 37.27,-44.72 132.02,-92.6 132.02,-92.6l-52.38 922.48c0,0 -228.18,582.34 -541.32,550.72 -239.79,-24.21 -654.26,-656.86 -654.26,-656.86l203.32 -304.34z"/>
    <path class="fil20" d="M5926.72 2677.58l-0.65 -0.48c0.63,-1.02 1.27,-2 1.92,-3.01l-1.27 3.49z"/>
    <path class="fil21" d="M5913.78 3038.6c-4.62,0 -9.16,-1.09 -13.29,-3.55 -10.11,-6.04 -14.81,-17.98 -18.35,-29.24 -34.1,-108.91 -17.53,-232.56 43.93,-328.71l0.65 0.48 -2.75 7.48c38.62,87.52 77.27,175.06 115.89,262.57 9.06,20.53 17.35,46.74 2.28,63.34 -6.3,6.91 -15.28,9.97 -24.59,9.97 -9.25,0 -18.81,-2.98 -26.46,-8.21 -15.32,-10.49 -24.68,-27.48 -33.5,-43.87 -0.97,17.64 -2.2,36.16 -11.7,51.05 -6.9,10.82 -19.76,18.69 -32.11,18.69z"/>
    <path class="fil9" d="M5597.03 2443.48c2.87,1.84 -43.62,79.71 -103.8,173.94 -60.21,94.26 -111.3,169.17 -114.19,167.33 -2.84,-1.82 43.61,-79.69 103.82,-173.94 60.18,-94.22 111.29,-169.14 114.17,-167.33z"/>
    <path class="fil9" d="M5481.63 2430.85c-1.23,-1.05 4.62,-7.04 14.99,-3.16 4.68,1.91 10.4,6.23 12.11,14.2 1.88,8.15 -3.47,17.17 -10.96,20.87 -7.3,4.07 -17.77,3.36 -23.43,-2.81 -5.58,-5.93 -5.9,-13.08 -4.82,-18.02 2.69,-10.75 10.96,-12.15 11.1,-10.55 0.87,1.55 -2.91,5 -2.48,11.58 0.2,6.9 5.77,13.27 13.9,8.92 8.19,-4.24 6.12,-12.41 0.53,-16.51 -5.17,-4.07 -10.15,-2.92 -10.94,-4.52z"/>
    <path class="fil9" d="M5936.97 2903.55c-2.93,1.04 -19.86,-46.82 -20.62,-108.75 -1.14,-61.93 14.28,-110.28 17.23,-109.33 3.61,0.81 -6.1,49.07 -4.92,109.15 0.7,60.05 11.88,108.02 8.31,108.93z"/>
    <path class="fil9" d="M6024.83 2900.43c-2.75,1.72 -32.47,-42.13 -58.14,-101.94 -25.87,-59.75 -37.29,-111.46 -34.18,-112.28 3.43,-0.98 19.98,48.54 45.48,107.42 25.28,58.96 49.93,104.99 46.84,106.8z"/>
    <path class="fil17" d="M7476.24 1740.49l-68.57 -135.52 -495.78 0 -77.95 153.88 -306.34 69.3 -131.94 1975.39c-0.83,25.02 5.22,49.81 17.51,71.64l1204.48 46.27 49.01 20.04c43.25,-26.62 16.27,-136.69 16.79,-188.39l15.42 -978.34 238.32 -781.71 -460.95 -252.56z"/>
    <path class="fil21" d="M7148.41 1958.85c-32.83,-79.16 -65.64,-158.33 -98.47,-237.47 -23.65,23.65 -47.3,47.3 -70.95,70.95 31.07,-55.87 55.85,-115.24 73.75,-176.63 28.17,74.83 56.36,149.63 84.55,224.43 111.21,-35.67 222.42,-71.37 333.64,-107.06 -101.32,83.62 -209.29,159.17 -322.52,225.78zm-179.53 -148.86l-6.56 -1.01c5.55,-5.55 11.12,-11.1 16.67,-16.65 -3.31,5.91 -6.66,11.81 -10.11,17.66z"/>
    <path class="fil17" d="M8359.97 4217.45l-324.63 16.79 -0.69 -931.66 -335.78 -527.82 238.32 -781.71c49.11,19.33 418.95,948.09 513.12,1200.24 13.6,36.43 19.56,75.11 17.56,113.93l-107.9 910.23z"/>
    <path class="fil9" d="M6527.6 2235.91c3.4,0.32 -12.71,191.35 -35.95,426.62 -23.23,235.34 -44.82,425.81 -48.21,425.47 -3.37,-0.32 12.73,-191.34 36,-426.69 23.23,-235.26 44.8,-425.75 48.16,-425.4z"/>
    <path class="fil9" d="M7052.52 1616.35c3.15,1.29 -23.29,72.4 -59.04,158.79 -2.22,5.38 -4.47,10.72 -6.64,15.98 -2.32,5.35 -4.79,11.5 -10.8,16.44 -6.23,5.49 -16.39,4.5 -21.51,1.4 -5.71,-2.91 -9.46,-5.92 -13.82,-8.64 -15.68,-10.63 -30.55,-20.71 -44.58,-30.19 -25.16,-17.49 -40.27,-29.03 -39.37,-30.45 0.93,-1.43 17.7,7.51 44.07,23.13 14.47,8.8 29.81,18.12 46.01,27.96 8.82,5.5 17.72,12.01 21.74,7.35 5.31,-4.46 8.83,-17.41 13.55,-27.69 35.74,-86.38 67.26,-155.37 70.39,-154.08z"/>
    <path class="fil9" d="M7446.82 1737.34c0.54,1.62 -28.42,13.16 -75.7,30.51 -47.3,17.36 -112.88,40.53 -185.54,65.38 -13.6,4.63 -26.94,9.18 -39.71,13.52l-5.43 1.84 -2.16 -5.25c-25.6,-61.89 -47.66,-116.69 -62.98,-156.16 -15.33,-39.49 -23.89,-63.65 -22.46,-64.23 1.42,-0.59 12.58,22.48 29.87,61.12 17.31,38.64 40.78,92.89 66.79,154.59l-7.57 -3.41c12.74,-4.38 26.09,-8.98 39.65,-13.64 72.69,-24.88 138.71,-46.74 186.72,-61.99 47.99,-15.26 77.97,-23.87 78.52,-22.28z"/>
    <path class="fil9" d="M7886.21 2020.98c0.95,3.61 -68.85,22.52 -149.77,58.76 -81.18,35.83 -141.93,75 -143.97,71.88 -0.89,-1.31 13.2,-12.82 37.87,-28.8 24.62,-15.98 60.07,-36.04 101.08,-54.3 41.04,-18.22 79.67,-31.12 108.04,-38.71 28.37,-7.6 46.37,-10.37 46.75,-8.83z"/>
    <path class="fil9" d="M7052.52 1616.35c0.22,0 0.44,1.99 0.68,5.91 0.23,4.62 0.49,10.32 0.79,17.33 0.49,15.26 1.35,37.76 1.66,66.74 0.62,57.93 0.28,141.86 -3.78,245.45 -7.42,207.22 -33.33,492.71 -74.66,806.17 -20.12,156.87 -42.23,305.85 -57.17,441.86 -15.07,135.98 -21.65,259.12 -19.63,362.47 1.41,103.4 10.84,186.76 19.27,243.95 3.51,28.73 8.11,50.75 10.33,65.84 1.03,6.92 1.9,12.57 2.61,17.15 0.52,3.88 0.68,5.89 0.46,5.93 -0.2,0.04 -0.77,-1.89 -1.69,-5.69 -1.03,-4.52 -2.26,-10.09 -3.82,-16.93 -2.99,-14.97 -8.37,-36.88 -12.61,-65.56 -9.93,-57.12 -20.7,-140.68 -23.25,-244.49 -3.14,-103.8 2.59,-227.51 17.08,-363.88 14.34,-136.41 36.13,-285.47 56.23,-442.22 41.31,-313.3 68.53,-598.16 78.16,-805 5.16,-103.38 6.84,-187.16 7.69,-245.05 0.28,-28.19 0.48,-50.47 0.64,-66.7 0.18,-7.01 0.34,-12.73 0.46,-17.37 0.15,-3.89 0.35,-5.91 0.55,-5.91z"/>
    <path class="fil9" d="M8377.55 4074.85c-0.16,3.39 -77.21,2.36 -172.05,-2.28 -94.9,-4.67 -171.64,-11.18 -171.46,-14.57 0.15,-3.39 77.19,-2.36 172.07,2.28 94.84,4.66 171.62,11.18 171.44,14.57z"/>
    <path class="fil9" d="M8089.56 4111.13c1.07,1.37 -0.59,4.62 1,8.82 1.86,4.58 5.19,6.78 9.55,3.41 4.24,-3.55 2.8,-7.29 -1.29,-10.05 -3.78,-2.44 -7.31,-1.53 -8.39,-2.89 -1.36,-0.86 2.11,-6.7 10.93,-5.43 3.98,0.71 9.2,3.13 11.91,9.33 2.84,6.32 -0.04,14.49 -5.43,18.58 -5.17,4.42 -13.77,5.51 -19.35,1.4 -5.47,-3.98 -6.72,-9.59 -6.58,-13.62 0.62,-8.89 7.06,-11.07 7.65,-9.55z"/>
    <path class="fil20" d="M7697.92 2835.58l0.95 -60.82 2.18 -7.15 0 0 -2.18 7.15 1.39 2.2c-0.79,19.54 -1.55,39.07 -2.34,58.62z"/>
    <path class="fil21" d="M7667.61 3588.92c-88.12,-327.2 -111.97,-671.6 -69.81,-1007.83 34.42,62.17 68.82,124.34 103.25,186.52l-2.18 7.15 -0.95 60.82c-10.11,251.11 -20.2,502.21 -30.31,753.34z"/>
    <path class="fil21" d="M7700.26 2776.96l-1.39 -2.2 2.18 -7.15c0.87,1.56 1.74,3.12 2.61,4.69l-3.36 4.1c-0.01,0.18 -0.01,0.38 -0.04,0.56z"/>
    <path class="fil9" d="M7166.39 2421.17c-0.4,-0.43 6.24,-0.83 19.11,-1.27 14.75,-0.37 33.52,-0.85 56.46,-1.42 48.93,-0.99 119.72,-2.14 204.86,-2.66l5.77 -0.04 -0.43 5.79c-5.49,74.54 -11.82,160.93 -18.6,253l-0.24 3.37 -3.01 1.6c-4,2.1 -8.3,4.36 -12.59,6.63 -47.68,25.07 -93.73,49.26 -137.14,72.06l-3.47 1.84 -3 -2.46c-46.26,-37.81 -89.08,-72.83 -127.27,-104.06l-2.06 -1.7 0.22 -2.56c5.95,-68.41 10.94,-125.43 14.61,-167.57 1.82,-18.3 3.33,-33.35 4.54,-45.4 1.13,-10.29 1.88,-15.54 2.24,-15.15 0.32,0.38 0.26,6.35 -0.1,17.23 -0.57,12.39 -1.23,27.84 -2.08,46.65 -2.32,41.47 -5.47,97.61 -9.26,164.97l-1.84 -4.24c38.54,30.81 81.74,65.36 128.42,102.67l-6.46 -0.65c43.35,-22.94 89.3,-47.28 136.9,-72.48 4.32,-2.28 8.61,-4.56 12.59,-6.66l-3.25 4.96c7.34,-92.01 14.21,-178.36 20.16,-252.86l5.35 5.75c-82.86,-0.5 -152.32,-1.67 -201.57,-2.66 -23.41,-0.59 -42.56,-1.05 -57.61,-1.41 -13.48,-0.45 -20.86,-0.85 -21.25,-1.27z"/>
    <path class="fil9" d="M6570.83 3885.01c-0.25,3.38 -25.43,-1.19 -41.67,-25.61 -16.51,-24.24 -11.26,-49.3 -8.05,-48.25 3.55,0.16 4.26,21.19 18.26,41.37 13.42,20.56 32.63,29.16 31.46,32.49z"/>
    <path class="fil9" d="M6602.23 3871.97c-2.1,2.38 -24.94,-19.39 -33.99,-55.89 -9.4,-36.43 0.37,-66.44 3.36,-65.34 3.59,0.62 -0.12,29.09 8.55,62.33 8.16,33.36 24.94,56.64 22.08,58.9z"/>
    <path class="fil9" d="M7511.37 3736.17c3.04,-0.51 5.97,47.42 -18.79,99.44 -24.29,52.26 -63.08,80.55 -64.63,77.89 -2.62,-2.68 30.59,-33.6 53.49,-83.14 23.55,-49.19 26.17,-94.52 29.93,-94.19z"/>
    <path class="fil13" d="M5457.7 2377.96c0,0 -366.81,-277.88 -418.23,-296.51 -85.26,-30.87 -105.81,-22.64 -105.81,-22.64l201.2 216.75c0,0 -212.69,71.77 -228.03,80.16 -17.13,9.39 -22.92,55.3 28.8,55.3 42.54,0 246.51,4.76 246.51,4.76l168.23 122.85 107.33 -160.67z"/>
    <path class="fil7" d="M1169.93 6735.91c22.9,157.59 -86.58,303.95 -244.52,326.91 -157.96,22.95 -304.57,-86.19 -327.46,-243.78 -22.91,-157.59 86.57,-303.94 244.52,-326.9 157.95,-22.96 304.56,86.19 327.46,243.77z"/>
    <path class="fil10" d="M667.12 6815.96c-1.01,0 -4.25,-9.28 -6.29,-26.76 -1.93,-17.54 -2.27,-43.86 6.07,-74.96 4.18,-15.49 10.49,-32.07 19.59,-48.72 9.22,-16.55 21.04,-33.27 36.08,-48.54 7.48,-7.65 15.65,-15.04 24.64,-21.76 8.95,-6.76 18.52,-13.15 28.85,-18.63 10.31,-5.5 21.14,-10.49 32.57,-14.43 11.41,-3.94 23.28,-7.08 35.47,-9.32 12.22,-2.09 24.43,-3.23 36.5,-3.45 1.24,-0.02 2.48,-0.04 3.72,-0.04 10.8,0 21.45,0.93 31.82,2.38 11.58,1.58 22.77,4.29 33.5,7.56 10.76,3.21 20.97,7.35 30.63,11.95 19.37,9.15 36.23,20.77 50.59,33.15 14.27,12.5 25.91,25.9 35.17,38.99 18.54,26.32 27.29,51.16 31.52,68.3 4.15,17.29 4.27,27.14 3.29,27.3 -0.02,0 -0.03,0 -0.05,0 -1.32,0 -3.66,-9.4 -9.52,-25.38 -6,-16.06 -16.09,-39.1 -34.85,-63.14 -9.36,-11.96 -20.83,-24.12 -34.61,-35.41 -13.86,-11.15 -29.89,-21.6 -48.12,-29.74 -9.09,-4.11 -18.66,-7.78 -28.69,-10.62 -10.02,-2.88 -20.43,-5.27 -31.19,-6.62 -9.28,-1.2 -18.79,-1.98 -28.44,-1.98 -1.49,0 -2.99,0.02 -4.5,0.05 -11.17,0.27 -22.49,1.35 -33.83,3.28 -11.31,2.09 -22.31,4.98 -32.9,8.56 -10.6,3.59 -20.67,8.15 -30.27,13.15 -9.63,4.98 -18.58,10.8 -26.99,16.95 -8.46,6.12 -16.17,12.86 -23.29,19.85 -14.31,13.92 -25.77,29.25 -34.93,44.5 -9.05,15.33 -15.63,30.7 -20.31,45.15 -9.32,29.02 -10.86,54.12 -10.95,71.27 0,17.23 1.07,26.89 -0.25,27.11 -0.01,0 -0.02,0 -0.03,0z"/>
    <path class="fil10" d="M899.73 6947.18l-5.9 -36.86c-6.68,0.66 -13.36,0.97 -19.94,0.97 -26.73,0.01 -51.81,-5.26 -68.6,-14.54l11.98 -44.25c16.74,8.68 38.86,13.77 60.86,13.77 2.88,0 5.75,-0.08 8.61,-0.26l-9.05 -56.48c-39,-3.11 -82.94,-8.92 -90.68,-57.29 -5.74,-35.85 15.37,-70.8 67.83,-85.43l-6.01 -37.55 33.82 -5.42 5.9 36.88c5.27,-0.42 10.54,-0.63 15.76,-0.63 20.27,0 39.9,3.21 56.2,10.26l-10.25 44.31c-17.09,-6.39 -33.93,-9.4 -49.78,-9.4 -1.61,0 -3.2,0.03 -4.78,0.09l9.2 57.51c38.95,2.77 82.22,8.69 89.86,56.37 5.63,35.18 -15.21,69.73 -67.28,84.66l6.08 37.88 -33.83 5.41zm13.14 -134.62l7.47 46.68c16.32,-6.42 22.35,-16.4 20.62,-27.23 -1.9,-11.84 -12.73,-16.69 -28.09,-19.45zm-50.83 -100.77c-17.27,6.92 -22.8,17.87 -21.02,29.03 1.9,11.84 13.07,16.64 28.72,18.99l-7.7 -48.02z"/>
    <path class="fil9" d="M666.07 6809.71c0.06,-0.02 0.24,0.57 0.53,1.71 0.32,1.36 0.72,3.04 1.2,5.1 0.52,2.33 1.13,5.09 1.84,8.3 0.72,3.27 1.39,7.1 2.89,11.2 4.68,16.73 13.94,40.57 31.73,66.09 8.69,12.89 20.31,25.45 33.64,37.9 3.54,2.88 7.14,5.81 10.8,8.77 1.86,1.46 3.63,3.06 5.59,4.43 1.99,1.32 4,2.66 6.02,4.01 4.09,2.61 8.06,5.58 12.41,8.02 4.41,2.36 8.87,4.75 13.39,7.17 18.47,8.8 38.85,16.36 60.93,19.87 22.02,3.51 45.29,3.94 68.76,0.79 23.39,-3.78 45.55,-10.93 65.62,-20.67 20.13,-9.75 37.45,-22.89 52.59,-36.65 3.62,-3.63 7.21,-7.21 10.74,-10.74 3.45,-3.6 6.39,-7.59 9.55,-11.28 1.54,-1.87 3.08,-3.73 4.61,-5.58 1.48,-1.88 2.71,-3.92 4.06,-5.86 2.65,-3.9 5.25,-7.74 7.81,-11.52 9.14,-15.77 16.63,-31.16 21.23,-46.02 9.63,-29.58 11.59,-55.07 11.23,-72.43 0.25,-4.37 -0.22,-8.22 -0.47,-11.57 -0.25,-3.27 -0.47,-6.09 -0.65,-8.47 -0.13,-2.12 -0.24,-3.84 -0.33,-5.22 -0.05,-1.18 -0.05,-1.8 0.01,-1.8 0.06,-0.02 0.18,0.58 0.36,1.75 0.18,1.37 0.4,3.08 0.67,5.19 0.29,2.38 0.62,5.2 1,8.47 0.37,3.35 0.95,7.22 0.81,11.61 0.79,17.46 -0.79,43.23 -10.23,73.26 -4.49,15.08 -11.92,30.73 -21.09,46.78 -2.57,3.85 -5.19,7.76 -7.84,11.74 -1.36,1.96 -2.59,4.04 -4.09,5.96 -1.53,1.88 -3.07,3.77 -4.63,5.69 -3.18,3.76 -6.15,7.81 -9.64,11.49 -3.56,3.6 -7.18,7.25 -10.85,10.95 -15.29,14.04 -32.85,27.44 -53.29,37.4 -20.37,9.94 -42.88,17.23 -66.65,21.06 -23.85,3.21 -47.51,2.75 -69.88,-0.87 -22.43,-3.61 -43.12,-11.36 -61.82,-20.37 -4.57,-2.48 -9.09,-4.92 -13.55,-7.35 -4.4,-2.5 -8.41,-5.52 -12.55,-8.2 -2.04,-1.38 -4.07,-2.75 -6.08,-4.11 -1.98,-1.4 -3.77,-3.02 -5.64,-4.51 -3.69,-3.04 -7.32,-6.03 -10.9,-8.97 -13.41,-12.71 -25.06,-25.53 -33.73,-38.67 -17.73,-26.01 -26.7,-50.22 -31,-67.17 -1.4,-4.15 -1.97,-8.03 -2.58,-11.34 -0.58,-3.25 -1.08,-6.04 -1.51,-8.4 -0.35,-2.1 -0.62,-3.8 -0.85,-5.17 -0.17,-1.17 -0.23,-1.77 -0.17,-1.77z"/>
   </g>
  </g>
  <polygon class="fil22" points="-0,0.23 10000,0.23 10000,8483.82 -0,8483.82 "/>
 </g>
</svg>
