<?xml version="1.0" encoding="UTF-8"?>
<!DOCTYPE svg PUBLIC "-//W3C//DTD SVG 1.1//EN" "http://www.w3.org/Graphics/SVG/1.1/DTD/svg11.dtd">
<!-- Creator: CorelDRAW 2018 (64 Bit Versão de avaliação) -->
<svg xmlns="http://www.w3.org/2000/svg" xml:space="preserve" width="7.054mm" height="4.925mm" version="1.1" shape-rendering="geometricPrecision" text-rendering="geometricPrecision" image-rendering="optimizeQuality" fill-rule="evenodd" clip-rule="evenodd"
viewBox="0 0 493.45 344.52"
 xmlns:xlink="http://www.w3.org/1999/xlink">
 <g id="Camada_x0020_1">
  <metadata id="CorelCorpID_0Corel-Layer"/>
  <path fill="white" d="M179.44 197.64c15.82,7.72 27.47,34.17 65.64,34.7 14.31,0.2 28.4,-3.4 38.45,-10.42 7.42,-5.19 21.46,-17.65 26.16,-24.66 10.57,2.67 11.02,6.88 18.1,14.07l80.68 73.08c7.5,5.93 8.77,8.11 15.63,15.04 5.76,5.81 11.72,7.69 15.46,14.8l-386.28 -0.05c3.84,-4.37 8.32,-9.28 13.2,-14.06 11.47,-11.21 32.65,-27.8 48.18,-44.04 5.42,-5.67 10.8,-8.7 16.8,-14.1l47.98 -44.37zm155.45 -22.01c3.92,-7.7 22.17,-23.06 30.94,-31.04l64.61 -58.38c10.24,-9.02 21.13,-18.69 31.57,-27.11l-0.2 232.62c-16.77,-13.62 -20.44,-19.52 -31.39,-29.19l-79.8 -73.94c-5.16,-5.8 -8.69,-9.81 -15.74,-12.96zm-304.47 -116.52l105.49 94.4c0.33,0.27 0.8,0.66 1.13,0.92 7.16,5.78 17.21,13.75 20.75,21.8l-49.16 43.14c-10.98,9.73 -72.18,69.81 -78.22,72.19l0.01 -232.46zm410.42 -28.37c-4.3,3.72 -6.62,7.23 -11.2,11.51l-107.78 97.3c-15.08,12.63 -57.93,59.39 -74.96,59.85 -9.31,0.25 -25.69,-13.17 -29.55,-16.94l-118.95 -108.48c-8.92,-10.01 -42.93,-36.84 -46.32,-43.7l388.77 0.46zm-440.84 267.55c0,27.66 16.22,46.23 44.19,46.23l407.8 0c15.16,0 27.18,-9.02 32.97,-17.4 8.91,-12.91 8.02,-22.97 8.02,-41.13l0 -184.43c0.16,-47.55 7.87,-101.57 -45.09,-101.57l-403.7 0c-26.34,0 -44.19,18.16 -44.19,44.18l0 254.11z"/>
 </g>
</svg>
