<?xml version="1.0" encoding="UTF-8"?>
<!DOCTYPE svg PUBLIC "-//W3C//DTD SVG 1.1//EN" "http://www.w3.org/Graphics/SVG/1.1/DTD/svg11.dtd">
<!-- Creator: CorelDRAW 2018 (64 Bit Versão de avaliação) -->
<svg xmlns="http://www.w3.org/2000/svg" xml:space="preserve" width="100mm" height="84.84mm" version="1.1" style="shape-rendering:geometricPrecision; text-rendering:geometricPrecision; image-rendering:optimizeQuality; fill-rule:evenodd; clip-rule:evenodd"
viewBox="0 0 10000 8484"
 xmlns:xlink="http://www.w3.org/1999/xlink">
 <defs>
  <style type="text/css">
   <![CDATA[
    .fil20 {fill:none}
    .fil0 {fill:white}
    .fil11 {fill:#F9B39B;fill-rule:nonzero}
    .fil17 {fill:#F7B1B6;fill-rule:nonzero}
    .fil19 {fill:#F69775;fill-rule:nonzero}
    .fil7 {fill:#F1626C;fill-rule:nonzero}
    .fil6 {fill:#F7F7F6;fill-rule:nonzero}
    .fil2 {fill:#EFEFEF;fill-rule:nonzero}
    .fil18 {fill:#EDEDEB;fill-rule:nonzero}
    .fil5 {fill:#E5E6E5;fill-rule:nonzero}
    .fil14 {fill:#DA515A;fill-rule:nonzero}
    .fil3 {fill:#D9DAD9;fill-rule:nonzero}
    .fil8 {fill:#BD4951;fill-rule:nonzero}
    .fil16 {fill:#C0C1C2;fill-rule:nonzero}
    .fil9 {fill:#86363E;fill-rule:nonzero}
    .fil12 {fill:#ABAEAF;fill-rule:nonzero}
    .fil4 {fill:#42616A;fill-rule:nonzero}
    .fil1 {fill:#2C3C43;fill-rule:nonzero}
    .fil13 {fill:#273035;fill-rule:nonzero}
    .fil15 {fill:#28343A;fill-rule:nonzero}
    .fil10 {fill:#24292D;fill-rule:nonzero}
   ]]>
  </style>
   <clipPath id="id0">
    <path d="M-0 0.23l10000 0 0 8483.59 -10000 0 0 -8483.59z"/>
   </clipPath>
 </defs>
 <g id="Camada_x0020_1">
  <metadata id="CorelCorpID_0Corel-Layer"/>
  <polygon class="fil0" points="-0,0.23 10000,0.23 10000,8483.82 -0,8483.82 "/>
  <g style="clip-path:url(#id0)">
   <g id="_2369852511136">
    <g>
     <g>
      <path id="1" class="fil1" d="M2379.68 2813.13c-0.2,-2.91 10.77,-6.62 24.49,-8.28 13.7,-1.66 25.23,-0.69 25.74,2.19 0.51,2.85 -10.44,6.57 -24.48,8.28 -14.03,1.69 -25.56,0.7 -25.75,-2.19z"/>
      <path class="fil1" d="M2179.25 2790.38c0.91,-2.83 23.07,1.84 50.19,7.51 27.11,5.73 49.27,10.3 48.97,13.26 -0.24,2.83 -23.4,2.91 -51.14,-2.96 -27.74,-5.79 -48.91,-15.1 -48.02,-17.81z"/>
      <path class="fil1" d="M1998.12 2700.82c1.72,-2.41 21.43,8.78 45.31,22.99 23.82,14.26 43.06,26.2 41.77,28.87 -1.24,2.57 -22.91,-5.3 -47.18,-19.83 -24.28,-14.46 -41.56,-29.7 -39.9,-32.03z"/>
      <path class="fil1" d="M1847.5 2565.65c2.23,-1.95 18.85,13.53 38.44,33.31 19.54,19.8 34.86,36.56 32.92,38.74 -1.9,2.17 -20.6,-11.25 -40.42,-31.32 -19.84,-20.06 -33.1,-38.85 -30.94,-40.73z"/>
     </g>
     <path class="fil1" d="M1748.19 2401.71c2.51,-1.45 16.94,16.24 32.19,39.51 15.26,23.29 25.72,43.56 23.38,45.28 -2.35,1.74 -16.76,-15.94 -32.2,-39.49 -15.42,-23.56 -25.88,-43.84 -23.37,-45.3z"/>
     <path class="fil1" d="M1660.77 2218.93c2.72,-1.04 13.8,18.94 24.72,44.55 10.93,25.65 17.66,47.46 15.04,48.73 -2.63,1.28 -13.69,-18.67 -24.73,-44.58 -11.03,-25.88 -17.76,-47.71 -15.03,-48.7z"/>
     <path class="fil1" d="M1602.62 2024.73c2.84,-0.64 10.89,20.71 17.98,47.69 7.09,27 10.58,49.56 7.78,50.39 -2.78,0.85 -10.83,-20.5 -17.97,-47.7 -7.14,-27.19 -10.62,-49.76 -7.79,-50.38z"/>
     <path class="fil1" d="M1567.42 1825.02c2.88,-0.36 8.62,21.73 12.8,49.35 4.17,27.63 5.25,50.43 2.38,50.94 -2.87,0.5 -8.6,-21.58 -12.81,-49.36 -4.19,-27.76 -5.26,-50.57 -2.37,-50.93z"/>
     <path class="fil1" d="M1547.96 1623.13c2.9,-0.18 7.09,22.24 9.35,50.1 2.26,27.89 1.75,50.71 -1.15,50.99 -2.89,0.29 -7.08,-22.16 -9.36,-50.12 -2.26,-27.95 -1.75,-50.77 1.16,-50.97z"/>
     <polygon class="fil2" points="10627.86,4751.59 8828.46,5162.8 8551.27,3949.96 10350.67,3538.72 "/>
     <path class="fil3" d="M10359.78 3552c0.44,0.35 -4.07,7.2 -13.07,19.97 -10.1,13.97 -23.42,32.36 -40.07,55.35 -36.49,49.09 -87.44,117.67 -149.97,201.85 -128.96,170.87 -305.45,404.75 -500.95,663.79l-4.11 5.48 -6.21 -2.97c-4.72,-2.29 -9.81,-4.75 -14.94,-7.23 -295.42,-143.43 -562.75,-273.24 -758.21,-368.15 -95.43,-47.22 -173.24,-85.71 -228.95,-113.27 -25.7,-13.12 -46.28,-23.62 -61.86,-31.57 -14.06,-7.39 -21.32,-11.52 -21.06,-12.04 0.24,-0.53 7.99,2.59 22.54,9 15.93,7.23 36.95,16.78 63.24,28.74 56.24,26.39 134.83,63.23 231.23,108.48 196.01,93.75 464.09,222.01 760.33,363.72 5.13,2.47 10.25,4.93 14.96,7.2l-10.32 2.47c197.07,-257.86 374.97,-490.68 504.94,-660.76 64.29,-82.86 116.68,-150.35 154.2,-198.67 17.66,-22.2 31.81,-39.97 42.53,-53.44 9.9,-12.1 15.29,-18.32 15.75,-17.95z"/>
     <path class="fil3" d="M8837.55 5176.05c-4.11,-2.1 93.18,-199.27 217.33,-440.32 124.19,-241.15 228.16,-434.87 232.27,-432.72 4.1,2.1 -93.19,199.22 -217.36,440.37 -124.14,241.06 -228.13,434.8 -232.24,432.67z"/>
     <polygon class="fil2" points="3230.65,1201.34 2170.28,956.45 2335.35,241.72 3395.72,486.59 "/>
     <path class="fil3" d="M3397.12 495.96c0.16,0.3 -4.01,2.79 -12.07,7.24 -8.96,4.8 -20.76,11.14 -35.49,19.05 -31.99,16.67 -76.67,39.92 -131.51,68.5 -112.37,57.47 -266.18,136.12 -436.54,223.24l-3.61 1.84 -2.51 -3.18c-1.92,-2.43 -4,-5.06 -6.08,-7.69 -119.8,-152.09 -228.23,-289.73 -307.49,-390.38 -38.46,-49.62 -69.83,-90.06 -92.28,-119.01 -10.27,-13.58 -18.49,-24.45 -24.7,-32.66 -5.56,-7.55 -8.36,-11.6 -8.08,-11.82 0.27,-0.2 3.57,3.44 9.64,10.58 6.57,7.94 15.27,18.42 26.14,31.51 23.07,28.47 55.27,68.26 94.77,117.06 79.85,100.19 189.06,237.19 309.75,388.59 2.08,2.63 4.14,5.26 6.09,7.69l-6.12 -1.36c170.89,-86.08 325.17,-163.83 437.88,-220.61 55.43,-27.39 100.59,-49.72 132.91,-65.7 15.1,-7.23 27.18,-13.01 36.34,-17.4 8.34,-3.89 12.81,-5.79 12.96,-5.49z"/>
     <path class="fil3" d="M2171.7 965.81c-1.63,-2.18 100.72,-81.73 228.61,-177.67 127.92,-95.97 232.91,-171.98 234.55,-169.77 1.64,2.17 -100.69,81.71 -228.63,177.68 -127.88,95.92 -232.89,171.95 -234.53,169.76z"/>
     <path class="fil3" d="M2989.39 690.81c2.49,-1.15 58.82,114.31 125.82,257.84 67.02,143.6 119.33,260.9 116.86,262.04 -2.46,1.15 -58.8,-114.28 -125.82,-257.87 -67,-143.53 -119.33,-260.85 -116.86,-262.01z"/>
     <path class="fil4" d="M8794.04 7378.98l-7191.42 0c-162.8,0 -294.78,-132 -294.78,-294.8l0 -4555.91c0,-162.81 131.98,-294.79 294.78,-294.79l7191.42 0c162.77,0 294.77,131.98 294.77,294.79l0 4555.91c0,162.8 -132,294.8 -294.77,294.8z"/>
     <path class="fil4" d="M9073.68 7496.89l-7709.79 0c-198.89,0 -360.15,-161.26 -360.15,-360.16l0 -90.06 8430.09 0 0 90.06c0,198.9 -161.24,360.16 -360.15,360.16z"/>
     <polygon class="fil1" points="1516.71,6783.2 8858.19,6783.2 8858.19,2437.92 1516.71,2437.92 "/>
     <polygon class="fil1" points="4431.28,6998.4 4535.88,7164.8 6007.89,7164.8 6105.04,6998.4 "/>
     <path class="fil5" d="M8655.85 6769.3l-6921.71 0c-36.56,0 -66.22,-29.67 -66.22,-66.25l0 -4051.8c0,-36.57 29.64,-66.24 66.22,-66.24l6921.71 0c36.56,0 66.23,29.65 66.23,66.24l0 4051.81c0,36.59 -29.67,66.24 -66.23,66.24z"/>
     <polygon class="fil6" points="8714.53,6775.41 1660.37,6775.41 1667.92,2897.72 8714.53,2897.72 "/>
     <path class="fil1" d="M2246.47 2746.62c0,31.1 -25.23,56.33 -56.35,56.33 -31.11,0 -56.32,-25.23 -56.32,-56.33 0,-31.13 25.21,-56.34 56.32,-56.34 31.12,0 56.35,25.21 56.35,56.34z"/>
     <path class="fil1" d="M1905.02 2746.62c0,31.1 -25.22,56.33 -56.34,56.33 -31.1,0 -56.34,-25.23 -56.34,-56.33 0,-31.13 25.24,-56.34 56.34,-56.34 31.12,0 56.34,25.21 56.34,56.34z"/>
     <path class="fil1" d="M2068.93 2746.62c0,31.1 -25.22,56.33 -56.34,56.33 -31.12,0 -56.35,-25.23 -56.35,-56.33 0,-31.13 25.23,-56.34 56.35,-56.34 31.12,0 56.34,25.21 56.34,56.34z"/>
     <path class="fil1" d="M9021.94 6998.4c0,2.8 -1727,5.05 -3856.85,5.05 -2130.62,0 -3857.25,-2.25 -3857.25,-5.05 0,-2.79 1726.63,-5.03 3857.25,-5.03 2129.85,0 3856.85,2.24 3856.85,5.03z"/>
     <polygon class="fil7" points="3926.79,4412.5 6796.69,4385.69 6880.75,6336.74 3908.96,6315.36 "/>
     <path class="fil7" d="M3926.79 4412.5l1355.97 -1101.89c57.43,-46.65 139.73,-46.57 197.03,0.22l1316.9 1074.86 -2869.9 26.81z"/>
     <path class="fil8" d="M3926.79 4412.5l1355.97 -1101.89c28.67,-23.3 63.54,-34.93 98.38,-34.93 34.99,0 69.96,11.71 98.65,35.15l1316.9 1074.86 -2869.9 26.81z"/>
     <path class="fil1" d="M3908.96 6315.36c-3.58,-3.35 225.65,-254.68 511.96,-561.31 286.4,-306.71 521.39,-552.58 524.97,-549.24 3.61,3.36 -225.58,254.65 -511.98,561.36 -286.31,306.63 -521.35,552.54 -524.95,549.19z"/>
     <path class="fil1" d="M6880.75 6336.74c-3.66,3.27 -227.93,-242.07 -500.83,-547.89 -273.02,-305.94 -491.32,-556.5 -487.64,-559.78 3.66,-3.26 227.88,242.02 500.9,547.97 272.89,305.8 491.24,556.44 487.57,559.7z"/>
     <path class="fil9" d="M5357.96 5539.95l-416.68 -328.26c3.36,-4.23 4.96,-6.58 4.61,-6.88 -0.01,-0.02 -0.04,-0.02 -0.09,-0.02 -0.57,0 -2.82,1.78 -6.6,5.26l-1012.41 -797.55 2869.9 -26.81 -1438.73 1154.26z"/>
     <path class="fil10" d="M4941.28 5211.69l-2.08 -1.64c3.78,-3.48 6.03,-5.26 6.6,-5.26 0.05,0 0.08,0 0.09,0.02 0.35,0.3 -1.25,2.65 -4.61,6.88z"/>
     <polygon class="fil6" points="4071.55,4518.82 4065.2,3622.46 6578.17,3587.53 6608.44,4530.58 5357.78,5524.9 "/>
     <path class="fil1" d="M4071.55 4518.82c0,0 8.28,5.99 23.82,17.89 15.7,12.08 38.61,29.77 68.51,52.83 60.03,46.61 147.87,114.82 260.12,201.98 224.33,174.87 546.02,425.63 936.45,729.96l-5.35 0.02c360.24,-286.72 787.64,-626.9 1250.11,-994.99l-1.97 4.25c-5.78,-179.94 -11.88,-368.65 -18.07,-560.73 -4.15,-129.29 -8.24,-257.06 -12.24,-382.33l5.32 5.07c-1012.62,13.32 -1905.92,25.08 -2513.01,33.07l3.34 -3.4c1.29,281.82 2.31,505.63 3.01,659.26 0.17,76.69 0.29,135.8 0.39,176.05 -0.06,19.87 -0.09,35.03 -0.13,45.49 -0.05,10.24 -0.3,15.58 -0.3,15.58 0,0 -0.34,-5.06 -0.54,-15.16 -0.19,-10.4 -0.43,-25.43 -0.76,-45.14 -0.48,-40.13 -1.19,-99.1 -2.1,-175.59 -1.47,-153.91 -3.64,-378.12 -6.33,-660.45l-0.02 -3.36 3.35 -0.04c607.08,-8.89 1500.39,-21.98 2512.94,-36.79l5.16 -0.08 0.14 5.16c4.05,125.24 8.15,253.03 12.32,382.31 6.16,192.08 12.19,380.8 17.95,560.73l0.06 2.64 -2.04 1.62c-462.87,367.58 -890.65,707.27 -1251.21,993.61l-2.68 2.12 -2.67 -2.1c-389.94,-306.05 -711.22,-558.22 -935.27,-734.07 -111.44,-87.8 -198.66,-156.53 -258.25,-203.47 -29.42,-23.34 -51.98,-41.24 -67.4,-53.46 -15.16,-12.13 -22.65,-18.48 -22.65,-18.48z"/>
     <path class="fil1" d="M6181.96 4039.66c0.01,2.92 -384.3,8.4 -858.28,12.26 -474.15,3.87 -858.4,4.64 -858.42,1.74 -0.04,-2.93 384.19,-8.42 858.33,-12.28 473.97,-3.85 858.34,-4.63 858.37,-1.72z"/>
     <path class="fil1" d="M6182.46 4292.85c0.04,2.91 -384.28,8.4 -858.26,12.26 -474.14,3.89 -858.4,4.65 -858.44,1.72 -0.02,-2.89 384.22,-8.39 858.36,-12.24 473.98,-3.89 858.32,-4.66 858.34,-1.74z"/>
     <path class="fil1" d="M6183.07 4584.67c0.02,2.91 -384.28,8.42 -858.26,12.26 -474.14,3.88 -858.4,4.65 -858.42,1.72 -0.04,-2.9 384.2,-8.4 858.34,-12.24 473.98,-3.89 858.32,-4.66 858.34,-1.74z"/>
     <path class="fil1" d="M6183.68 4876.51c0.01,2.89 -366.61,8.25 -818.8,11.92 -452.35,3.7 -818.96,4.31 -818.98,1.41 -0.04,-2.91 366.53,-8.26 818.9,-11.94 452.16,-3.7 818.85,-4.31 818.88,-1.39z"/>
     <path class="fil1" d="M5862.8 5133.32c0,0.36 -3.48,0.73 -10.06,1.15 -7.83,0.32 -17.34,0.73 -28.88,1.22 -26.69,0.66 -62.57,1.55 -106.16,2.65 -91.14,1.66 -214.21,3.88 -350.21,6.35 -136.86,2.57 -260.76,3.38 -350.41,3.3 -43.62,-0.3 -79.5,-0.55 -106.19,-0.73 -11.53,-0.28 -21.07,-0.52 -28.88,-0.73 -6.61,-0.28 -10.08,-0.6 -10.08,-0.97 0,-0.36 3.47,-0.75 10.06,-1.15 7.81,-0.35 17.34,-0.73 28.86,-1.24 26.69,-0.67 62.55,-1.56 106.15,-2.65 91.15,-1.66 214.24,-3.88 350.29,-6.35 136.79,-2.57 260.69,-3.36 350.33,-3.28 43.62,0.3 79.51,0.53 106.2,0.71 11.55,0.3 21.07,0.53 28.9,0.73 6.6,0.3 10.06,0.61 10.08,0.99z"/>
     <path class="fil1" d="M5539.79 5380.17c0,2.94 -81.95,5.47 -182.98,5.67 -101.1,0.2 -183.04,-1.98 -183.04,-4.9 -0.02,-2.89 81.91,-5.42 183.01,-5.64 101.04,-0.2 183,1.98 183.01,4.87z"/>
     <path class="fil1" d="M5878.4 3579.62c2.89,0.3 4.13,11.84 2.75,25.72 -1.38,13.88 -4.84,24.93 -7.75,24.67 -2.87,-0.27 -4.13,-11.78 -2.73,-25.72 1.38,-13.93 4.83,-24.97 7.73,-24.67z"/>
     <path class="fil1" d="M5905.37 3382.52c2.85,0.49 1.83,22.87 -2.3,49.97 -4.13,27.11 -9.82,48.76 -12.71,48.38 -2.88,-0.39 -1.85,-22.75 2.31,-49.96 4.14,-27.22 9.83,-48.87 12.7,-48.39z"/>
     <path class="fil1" d="M5945.09 3187.62c2.84,0.68 0.31,22.94 -5.62,49.69 -5.95,26.76 -13.05,47.98 -15.93,47.42 -2.85,-0.57 -0.34,-22.81 5.63,-49.71 5.97,-26.86 13.11,-48.12 15.92,-47.4z"/>
     <path class="fil1" d="M5999 2996.13c2.76,0.9 -1.43,22.92 -9.36,49.13 -7.94,26.25 -16.66,46.86 -19.45,46.09 -2.82,-0.78 1.37,-22.78 9.37,-49.13 7.97,-26.37 16.67,-47.01 19.44,-46.09z"/>
     <path class="fil1" d="M6068.45 2809.73c2.67,1.14 -3.36,22.71 -13.47,48.16 -10.15,25.46 -20.56,45.29 -23.28,44.3 -2.75,-1.01 3.3,-22.58 13.48,-48.18 10.18,-25.6 20.6,-45.43 23.27,-44.28z"/>
     <path class="fil1" d="M6154.66 2630.67c2.54,1.39 -5.51,22.28 -17.95,46.62 -12.47,24.36 -24.71,43.1 -27.32,41.85 -2.63,-1.25 5.4,-22.12 17.93,-46.64 12.54,-24.51 24.79,-43.25 27.34,-41.83z"/>
     <path class="fil1" d="M6258.67 2461.11c2.4,1.68 -8.1,21.45 -23.31,44.22 -14.62,23.17 -28.52,40.73 -31,39.22 -2.49,-1.5 7.42,-21.64 22.17,-44.97 15.32,-22.93 29.75,-40.13 32.14,-38.47z"/>
     <path class="fil1" d="M6381.22 2304.51c2.18,1.92 -10.24,20.56 -27.73,41.62 -17.48,21.05 -33.53,36.67 -35.84,34.89 -2.3,-1.78 10.12,-20.42 27.75,-41.63 17.6,-21.2 33.65,-36.83 35.82,-34.88z"/>
     <path class="fil1" d="M6521.43 2163.47c1.92,2.18 -12.63,19.22 -32.5,38.02 -19.87,18.82 -37.66,32.42 -39.72,30.37 -2.09,-2.02 12.46,-19.06 32.47,-38.02 20.02,-18.96 37.83,-32.56 39.75,-30.37z"/>
     <path class="fil1" d="M6677.99 2040.88c1.62,2.41 -14.93,17.46 -37.01,33.63 -22.08,16.19 -41.42,27.42 -43.24,25.15 -1.78,-2.28 14.77,-17.34 37.01,-33.65 22.26,-16.29 41.62,-27.54 43.24,-25.13z"/>
     <path class="fil1" d="M6849.49 1940.14c1.26,2.64 -17.2,15.3 -41.24,28.33 -24.08,13.04 -44.78,21.57 -46.26,19.07 -1.52,-2.49 16.94,-15.18 41.24,-28.33 24.26,-13.13 44.96,-21.68 46.26,-19.07z"/>
     <path class="fil1" d="M7033.64 1865.27c0.87,2.78 -19.25,12.59 -44.93,21.94 -25.72,9.31 -47.43,14.71 -48.57,12.02 -1.11,-2.69 19.03,-12.53 44.97,-21.94 25.92,-9.43 47.68,-14.81 48.53,-12.02z"/>
     <path class="fil1" d="M7227.23 1820.19c0.41,2.91 -21.14,8.78 -48.06,13.43 -26.73,5.67 -48.97,7.95 -49.64,5.12 -0.71,-2.83 20.64,-9.75 47.67,-15.46 27.22,-4.71 49.65,-5.95 50.03,-3.09z"/>
     <path class="fil1" d="M7425.68 1809.24c-0.08,2.91 -22.34,5.52 -49.66,5.83 -27.32,0.3 -49.61,-1.8 -49.8,-4.7 -0.18,-2.91 22.06,-5.52 49.68,-5.84 27.62,-0.31 49.9,1.8 49.78,4.71z"/>
     <path class="fil1" d="M7623.1 1832.51c-0.61,2.85 -22.97,1.62 -49.92,-2.73 -26.99,-4.35 -48.61,-10.24 -48.28,-13.13 0.3,-2.88 22.68,-1.66 49.96,2.73 27.24,4.41 48.87,10.28 48.24,13.13z"/>
     <path class="fil1" d="M7813.56 1889.35c-1.08,2.69 -22.88,-2.36 -48.71,-11.31 -25.8,-8.97 -46.08,-18.49 -45.27,-21.29 0.82,-2.79 22.63,2.27 48.73,11.34 26.09,9.04 46.36,18.57 45.25,21.26z"/>
     <path class="fil1" d="M7990.62 1979.63c-1.58,2.45 -22.07,-6.56 -45.79,-20.08 -23.74,-13.54 -41.91,-26.61 -40.6,-29.22 1.28,-2.61 21.8,6.37 45.82,20.08 24,13.69 42.17,26.77 40.57,29.22z"/>
     <path class="fil1" d="M8146.5 2102.72c-2.07,2.06 -20.36,-10.85 -40.88,-28.84 -20.52,-18.01 -35.69,-34.46 -33.92,-36.77 1.79,-2.29 20.08,10.63 40.88,28.84 20.78,18.25 35.96,34.7 33.92,36.77z"/>
     <path class="fil1" d="M8244.8 2216.02c-2.37,1.7 -11.17,-5.81 -19.67,-16.76 -8.47,-10.97 -13.56,-21.37 -11.29,-23.23 2.23,-1.84 11.03,5.65 19.63,16.78 8.62,11.11 13.68,21.51 11.33,23.21z"/>
     <g>
      <polygon class="fil2" points="9610.84,2184.15 8836.08,2517.09 8611.67,1994.88 9386.43,1661.93 "/>
      <path class="fil3" d="M9391.61 1667.15c0.24,0.12 -1.23,3.56 -4.23,10.06 -3.4,7.1 -7.87,16.45 -13.45,28.17 -12.37,25.06 -29.61,60.07 -50.77,103.05 -43.88,87.4 -103.96,207.04 -170.47,339.56l-1.4 2.79 -3.05 -0.85c-2.29,-0.62 -4.8,-1.31 -7.31,-1.98 -144.54,-40.15 -275.37,-76.47 -371.02,-103.02 -46.77,-13.37 -84.91,-24.29 -112.21,-32.07 -12.64,-3.79 -22.75,-6.8 -30.41,-9.09 -6.92,-2.16 -10.52,-3.42 -10.44,-3.68 0.06,-0.24 3.8,0.5 10.86,2.18 7.76,1.95 17.97,4.52 30.78,7.71 27.46,7.25 65.79,17.34 112.83,29.71 95.82,26.02 226.85,61.58 371.65,100.85 2.52,0.69 5,1.4 7.31,2.03l-4.43 1.96c67.32,-132.12 128.09,-251.39 172.51,-338.52 22.06,-42.54 40.04,-77.16 52.93,-101.97 6.12,-11.44 11.01,-20.6 14.72,-27.52 3.44,-6.28 5.36,-9.49 5.6,-9.37z"/>
      <path class="fil3" d="M8841.26 2522.31c-2.03,-0.6 25.46,-97.24 61.42,-215.77 35.93,-118.58 66.71,-214.2 68.74,-213.59 2.02,0.62 -25.48,97.21 -61.44,215.81 -35.92,118.55 -66.72,214.16 -68.72,213.55z"/>
      <path class="fil3" d="M9226.14 1975.74c1.02,-1.86 89.12,44.48 196.78,103.45 107.67,59 194.12,108.32 193.1,110.18 -1.01,1.84 -89.11,-44.46 -196.78,-103.47 -107.64,-58.96 -194.13,-108.29 -193.1,-110.16z"/>
      <path class="fil1" d="M9151.72 2259.28c2.94,-0.07 5.61,22.56 6.02,50.5 0.4,27.97 -1.64,50.65 -4.56,50.65 -2.9,0.04 -5.59,-22.58 -5.99,-50.5 -0.4,-27.91 1.64,-50.59 4.53,-50.65z"/>
      <path class="fil1" d="M9148.73 2134.83c2.89,-0.08 5.4,5.05 5.56,11.47 0.19,6.43 -2.04,11.69 -4.93,11.78 -2.94,0.08 -5.43,-5.06 -5.59,-11.5 -0.16,-6.41 2.05,-11.67 4.96,-11.75z"/>
      <polygon class="fil7" points="9692.81,2461.69 8317.3,2611.07 8216.61,1683.96 9592.13,1534.55 "/>
      <path class="fil1" d="M8217.18 1684.38l100.57 926.15 1374.51 -149.28 -100.59 -926.15 -1374.49 149.28zm99.66 927.26l-0.04 -0.51 -100.74 -927.64 0.49 -0.04 1376.03 -149.44 0.04 0.49 100.75 927.64 -0.5 0.06 -1376.03 149.44z"/>
      <path class="fil1" d="M9597.74 1545.22c0.31,0.3 -3.66,5.04 -11.48,13.74 -8.74,9.51 -20.25,22.03 -34.64,37.72 -31.44,33.37 -75.36,79.99 -129.24,137.21 -110.89,116 -262.68,274.72 -430.82,450.58l-3.54 3.7 -4.35 -2.77c-3.32,-2.09 -6.9,-4.38 -10.5,-6.66 -207.44,-132.53 -395.17,-252.46 -532.43,-340.17 -66.93,-43.46 -121.51,-78.89 -160.57,-104.27 -18.01,-12.02 -32.39,-21.61 -43.32,-28.9 -9.81,-6.71 -14.86,-10.42 -14.63,-10.78 0.22,-0.38 5.74,2.61 16,8.64 11.21,6.78 26.05,15.72 44.58,26.91 39.58,24.55 94.87,58.85 162.72,100.92 137.74,86.89 326.18,205.73 534.39,337.05 3.59,2.28 7.18,4.57 10.47,6.67l-7.87 0.93c169.17,-174.81 321.91,-332.65 433.51,-447.95 55.08,-56.1 99.96,-101.77 132.1,-134.49 15.1,-14.97 27.18,-26.97 36.34,-36.08 8.4,-8.15 12.98,-12.28 13.28,-12z"/>
      <path class="fil1" d="M8322.91 2621.76c-2.88,-1.95 86.75,-140.27 200.17,-308.92 113.46,-168.7 207.74,-303.88 210.64,-301.94 2.85,1.95 -86.73,140.24 -200.22,308.94 -113.42,168.67 -207.72,303.84 -210.59,301.92z"/>
      <path class="fil1" d="M9189.69 1949.65c2.46,-2.43 118.39,112.65 258.85,256.97 140.5,144.38 252.38,263.33 249.89,265.76 -2.49,2.41 -118.38,-112.64 -258.9,-257 -140.47,-144.32 -252.33,-263.3 -249.84,-265.73z"/>
     </g>
     <path class="fil1" d="M5407.17 3246.2c2.87,-0.49 7.1,10.29 9.43,24.08 2.33,13.8 1.9,25.37 -0.97,25.84 -2.86,0.49 -7.08,-10.28 -9.41,-24.08 -2.35,-13.78 -1.9,-25.36 0.95,-25.84z"/>
     <path class="fil1" d="M5374.79 3048.76c2.85,-0.45 8.75,21.29 13.16,48.54 4.39,27.26 5.64,49.74 2.75,50.23 -2.87,0.47 -8.76,-21.27 -13.16,-48.55 -4.39,-27.27 -5.64,-49.76 -2.75,-50.22z"/>
     <path class="fil1" d="M5345.9 2850.81c2.89,-0.38 8.33,21.47 12.14,48.79 3.82,27.34 4.59,49.84 1.7,50.27 -2.88,0.42 -8.3,-21.41 -12.12,-48.81 -3.83,-27.38 -4.6,-49.88 -1.72,-50.25z"/>
     <path class="fil1" d="M5323.15 2652.04c2.89,-0.27 7.59,21.77 10.46,49.19 2.88,27.44 2.88,49.96 -0.02,50.29 -2.89,0.34 -7.56,-21.67 -10.46,-49.18 -2.89,-27.52 -2.87,-50.02 0.02,-50.3z"/>
     <path class="fil1" d="M5309.25 2452.47c2.91,-0.12 6.51,22.12 8.07,49.64 1.58,27.54 0.49,50.03 -2.43,50.24 -2.89,0.21 -6.51,-22.01 -8.09,-49.65 -1.56,-27.62 -0.47,-50.11 2.45,-50.23z"/>
     <path class="fil1" d="M5307.1 2252.36c2.92,0.08 5.14,22.5 4.98,50.08 -0.16,27.6 -2.65,50 -5.56,50.05 -2.92,0.04 -5.14,-22.38 -4.98,-50.1 0.16,-27.71 2.65,-50.11 5.56,-50.03z"/>
     <path class="fil1" d="M5319.67 2052.82c2.89,0.32 3.38,22.82 1.1,50.28 -2.29,27.46 -6.5,49.58 -9.42,49.39 -2.89,-0.16 -3.38,-22.66 -1.09,-50.28 2.31,-27.58 6.52,-49.72 9.41,-49.39z"/>
     <path class="fil1" d="M5349.78 1855.07c2.86,0.59 1.28,23.05 -3.52,50.17 -4.8,27.13 -11.01,48.79 -13.88,48.36 -2.87,-0.42 -1.32,-22.89 3.5,-50.18 4.81,-27.3 11.05,-48.96 13.9,-48.35z"/>
     <path class="fil1" d="M5400.8 1661.72c2.75,0.93 -1.36,23.07 -9.21,49.44 -7.85,26.38 -16.51,47.17 -19.33,46.44 -2.81,-0.73 1.3,-22.85 9.21,-49.44 7.93,-26.57 16.56,-47.37 19.33,-46.44z"/>
     <path class="fil1" d="M5475.57 1476.28c2.63,1.25 -4.23,22.71 -15.32,47.9 -11.07,25.19 -22.26,44.72 -24.97,43.65 -2.71,-1.08 4.14,-22.52 15.33,-47.9 11.18,-25.38 22.35,-44.93 24.96,-43.65z"/>
     <path class="fil1" d="M5573.18 1301.75c2.43,1.59 -7.1,21.99 -21.28,45.55 -14.21,23.58 -27.79,41.54 -30.32,40.15 -2.55,-1.42 6.96,-21.82 21.27,-45.58 14.33,-23.77 27.88,-41.72 30.33,-40.12z"/>
     <path class="fil1" d="M5693.14 1141.79c2.2,1.9 -10.02,20.82 -27.26,42.23 -17.28,21.43 -33.16,37.37 -35.49,35.65 -2.37,-1.74 9.85,-20.64 27.26,-42.27 17.42,-21.59 33.32,-37.56 35.49,-35.61z"/>
     <path class="fil1" d="M5835.29 1001.19c1.85,2.23 -13.07,19.1 -33.36,37.63 -20.28,18.56 -38.39,31.94 -40.45,29.87 -2.07,-2.04 12.87,-18.9 33.36,-37.63 20.46,-18.74 38.6,-32.12 40.45,-29.87z"/>
     <path class="fil1" d="M5998.8 886.23c1.44,2.55 -16.17,16.59 -39.34,31.36 -23.12,14.78 -43.28,24.83 -44.98,22.46 -1.68,-2.34 15.9,-16.38 39.34,-31.34 23.39,-14.93 43.54,-25.01 44.98,-22.48z"/>
     <path class="fil1" d="M6181 804.21c0.89,2.77 -19.1,13.14 -44.66,23.15 -25.55,9.98 -47.27,15.95 -48.5,13.3 -1.22,-2.63 18.78,-12.99 44.66,-23.13 25.88,-10.12 47.61,-16.07 48.5,-13.32z"/>
     <path class="fil1" d="M6327.13 768.23c0.44,2.88 -10.23,7.31 -23.82,9.9 -13.62,2.59 -25.18,2.41 -25.8,-0.45 -0.63,-2.83 10.01,-7.26 23.81,-9.89 13.81,-2.63 25.36,-2.43 25.81,0.44z"/>
     <polygon class="fil7" points="6288.17,1496.78 4885.03,954.2 5250.73,8.42 6653.87,551 "/>
     <path class="fil1" d="M4885.68 953.92l1402.19 542.21 365.35 -944.85 -1402.21 -542.19 -365.33 944.83zm1402.77 543.51l-0.46 -0.18 -1403.63 -542.77 0.18 -0.46 365.91 -946.24 0.46 0.18 1403.61 542.76 -0.18 0.47 -365.89 946.24z"/>
     <path class="fil1" d="M6653.97 564.12c0.16,0.44 -6.03,3.03 -17.93,7.54 -13.19,4.82 -30.59,11.17 -52.3,19.13 -47.03,16.53 -112.72,39.64 -193.36,67.99 -165.02,56.64 -390.89,134.18 -641.09,220.06l-5.27 1.81 -2.82 -4.82c-2.15,-3.69 -4.47,-7.71 -6.82,-11.7 -134.18,-231.59 -255.6,-441.18 -344.39,-594.4 -42.94,-75.42 -77.95,-136.9 -103.02,-180.93 -11.37,-20.58 -20.5,-37.03 -27.4,-49.52 -6.13,-11.41 -9.17,-17.5 -8.74,-17.74 0.4,-0.25 4.21,5.4 11.13,16.35 7.44,12.16 17.3,28.18 29.62,48.24 25.97,43.49 62.25,104.22 106.77,178.74 89.66,152.7 212.29,361.57 347.83,592.38 2.34,3.98 4.67,7.99 6.82,11.68l-8.1 -3.02c250.7,-84.38 477.04,-160.55 642.39,-216.22 81.22,-26.65 147.37,-48.36 194.74,-63.92 22.08,-6.92 39.72,-12.49 53.12,-16.7 12.2,-3.68 18.66,-5.4 18.82,-4.95z"/>
     <path class="fil1" d="M4885.11 967.31c-1.82,-3.31 153.83,-92.15 347.59,-198.41 193.83,-106.3 352.38,-189.77 354.2,-186.45 1.82,3.32 -153.79,92.13 -347.63,198.43 -193.77,106.26 -352.36,189.73 -354.16,186.43z"/>
     <path class="fil1" d="M6057.91 750.97c3.58,-1.09 58.1,167.92 121.68,377.46 63.64,209.6 112.26,380.35 108.66,381.46 -3.6,1.1 -58.09,-167.9 -121.71,-377.49 -63.6,-209.54 -112.25,-380.34 -108.63,-381.43z"/>
     <path class="fil1" d="M4817.86 3467.67c2.92,0.21 4.36,11.7 3.22,25.69 -1.13,13.96 -4.41,25.09 -7.3,24.8 -2.9,-0.26 -4.33,-11.75 -3.2,-25.65 1.11,-13.91 4.39,-25.01 7.28,-24.84z"/>
     <path class="fil1" d="M4823 3261.9c2.92,-0.08 5.22,22.97 5.17,51.48 -0.08,28.51 -2.49,51.54 -5.41,51.46 -2.91,-0.08 -5.2,-23.13 -5.14,-51.48 0.06,-28.35 2.47,-51.4 5.38,-51.46z"/>
     <path class="fil1" d="M4809 3056.53c2.9,-0.37 7.37,22.38 9.98,50.75 2.61,28.41 2.39,51.58 -0.51,51.76 -2.91,0.18 -7.39,-22.54 -10,-50.79 -2.58,-28.21 -2.36,-51.38 0.53,-51.72z"/>
     <path class="fil1" d="M4774.68 2853.54c2.84,-0.63 9.59,21.53 15.06,49.52 5.48,27.99 7.61,51.06 4.73,51.54 -2.87,0.47 -9.61,-21.69 -15.07,-49.52 -5.45,-27.8 -7.55,-50.87 -4.72,-51.54z"/>
     <path class="fil1" d="M4718.75 2655.44c2.75,-0.96 11.88,20.33 20.4,47.57 8.54,27.24 13.15,49.94 10.34,50.71 -2.79,0.77 -11.92,-20.52 -20.4,-47.55 -8.46,-27.06 -13.09,-49.76 -10.34,-50.73z"/>
     <path class="fil1" d="M4640.06 2465.36c2.61,-1.29 14.22,18.76 25.93,44.78 11.72,26.03 19.03,48 16.34,49.1 -2.69,1.11 -14.31,-18.94 -25.94,-44.77 -11.62,-25.84 -18.93,-47.81 -16.33,-49.11z"/>
     <path class="fil1" d="M4537.84 2286.76c2.41,-1.62 16.96,16.49 32.28,40.62 14.61,24.56 24.39,45.63 21.83,47.06 -2.53,1.42 -16.3,-17.18 -30.79,-41.54 -15.2,-23.9 -25.75,-44.5 -23.32,-46.14z"/>
     <path class="fil1" d="M4411.75 2124.13c2.17,-1.97 18.74,14.23 37.04,36.16 18.27,21.94 31.22,41.14 28.91,42.92 -2.3,1.76 -18.88,-14.43 -37.01,-36.19 -18.13,-21.72 -31.08,-40.95 -28.94,-42.89z"/>
     <path class="fil1" d="M4263.95 1980.96c1.87,-2.25 20.54,11.43 41.75,30.55 21.2,19.13 36.75,36.31 34.7,38.39 -2.02,2.09 -20.72,-11.59 -41.75,-30.55 -21.02,-18.97 -36.56,-36.16 -34.7,-38.39z"/>
     <path class="fil1" d="M4097.01 1860.64c1.52,-2.49 22,8.31 45.77,24.14 23.78,15.84 41.65,30.57 39.93,32.92 -1.73,2.35 -22.2,-8.46 -45.78,-24.14 -23.55,-15.68 -41.42,-30.41 -39.92,-32.92z"/>
     <path class="fil1" d="M3913.68 1767.17c1.06,-2.69 23,4.81 48.97,16.77 25.96,11.96 45.91,23.76 44.57,26.35 -1.35,2.57 -23.27,-4.92 -48.99,-16.77 -25.7,-11.86 -45.65,-23.64 -44.55,-26.35z"/>
     <path class="fil1" d="M3717.53 1705.12c0.61,-2.83 23.47,0.9 51.07,8.32 27.61,7.45 49.24,15.72 48.32,18.5 -0.88,2.77 -23.75,-0.95 -51.07,-8.32 -27.3,-7.36 -48.93,-15.64 -48.32,-18.5z"/>
     <path class="fil1" d="M3513.53 1679.04c0.06,-2.87 23.3,-4.06 51.83,-2.33 28.45,2.98 51.17,7.71 50.77,10.61 -0.39,2.87 -23.5,2.85 -51.62,-0.1 -28.21,-1.72 -51.04,-5.24 -50.98,-8.18z"/>
     <path class="fil1" d="M3308.36 1693.16c-0.5,-2.85 22.1,-7.91 50.51,-11.27 28.39,-3.35 51.56,-3.72 51.72,-0.82 0.18,2.91 -22.42,7.97 -50.48,11.29 -28.07,3.32 -51.24,3.68 -51.75,0.8z"/>
     <path class="fil1" d="M3109.61 1746.09c-1.04,-2.72 20.22,-11.95 47.47,-20.59 27.26,-8.64 49.92,-13.37 50.67,-10.54 0.71,2.81 -20.54,12.02 -47.49,20.58 -26.94,8.56 -49.62,13.28 -50.65,10.55z"/>
     <path class="fil1" d="M2924.27 1835.32c-1.52,-2.49 17.62,-15.54 42.76,-29.15 25.15,-13.63 46.54,-22.51 47.79,-19.88 1.24,2.63 -17.91,15.68 -42.75,29.14 -24.88,13.46 -46.27,22.34 -47.8,19.89z"/>
     <path class="fil1" d="M2759.89 1958.86c-2,-2.12 14.17,-18.69 36.15,-37.01 21.97,-18.33 41.18,-31.28 42.9,-28.94 1.73,2.35 -14.45,18.93 -36.15,37.04 -21.69,18.09 -40.91,31.02 -42.9,28.91z"/>
     <path class="fil1" d="M2625.37 2114.17c-2.39,-1.6 8.6,-22.2 26.14,-44.84 17.48,-22.67 34.64,-38.49 36.81,-36.59 2.18,1.96 -11.21,20.68 -28.49,43.05 -17.3,22.32 -32.03,40.02 -34.46,38.38z"/>
     <path class="fil1" d="M2550.27 2247.81c-2.67,-1.2 0.16,-12.41 6.29,-25.08 6.16,-12.66 13.22,-21.83 15.81,-20.45 2.57,1.35 -0.27,12.57 -6.31,25.05 -6.05,12.49 -13.14,21.65 -15.79,20.48z"/>
     <path class="fil1" d="M2113.67 1647.21c2.91,-0.12 5.81,11.07 6.47,25.01 0.67,13.96 -1.15,25.37 -4.06,25.53 -2.9,0.15 -5.81,-11.04 -6.46,-25.02 -0.67,-13.97 1.15,-25.38 4.05,-25.52z"/>
     <polygon class="fil7" points="2929.02,1554.49 1246.41,1633.79 1192.96,499.66 2875.56,420.36 "/>
     <path class="fil1" d="M1193.49 500.15l53.4 1133.11 1681.6 -79.26 -53.42 -1133.12 -1681.58 79.27zm52.44 1134.19l-0.02 -0.53 -53.49 -1134.63 0.51 -0.03 1683.11 -79.34 0.02 0.52 53.49 1134.64 -0.51 0.02 -1683.11 79.35z"/>
     <path class="fil1" d="M2881.59 433.73c0.34,0.39 -4.82,5.83 -14.96,15.82 -11.33,10.93 -26.25,25.3 -44.92,43.27 -40.68,38.23 -97.5,91.63 -167.23,157.15 -143.39,132.69 -339.64,314.34 -557.01,515.51l-4.58 4.25 -5.08 -3.68c-3.87,-2.82 -8.07,-5.83 -12.27,-8.89 -242.24,-176.45 -461.44,-336.16 -621.71,-452.92 -78.11,-57.81 -141.78,-104.92 -187.38,-138.65 -20.96,-15.93 -37.77,-28.68 -50.48,-38.33 -11.44,-8.9 -17.31,-13.78 -17,-14.2 0.32,-0.45 6.78,3.6 18.8,11.69 13.15,9.07 30.5,21.05 52.17,36 46.29,32.79 110.93,78.58 190.23,134.73 160.95,115.83 381.08,274.24 624.34,449.3 4.2,3.03 8.4,6.09 12.27,8.88l-9.64 0.56c218.56,-199.87 415.9,-380.32 560.06,-512.14 71.1,-64.07 129.04,-116.24 170.52,-153.61 19.45,-17.08 35.03,-30.78 46.82,-41.16 10.83,-9.29 16.68,-13.96 17.05,-13.58z"/>
     <path class="fil1" d="M1252.43 1647.18c-3.36,-2.57 115.86,-164 266.21,-360.51 150.42,-196.59 275.04,-353.83 278.39,-351.26 3.35,2.57 -115.82,163.95 -266.23,360.55 -150.37,196.53 -275.02,353.78 -278.37,351.22z"/>
     <path class="fil1" d="M2355.66 894.86c3.22,-2.75 135.52,145.68 295.48,331.51 160.02,185.88 287.11,338.76 283.91,341.5 -3.2,2.74 -135.48,-145.64 -295.5,-331.53 -159.97,-185.83 -287.09,-338.7 -283.89,-341.48z"/>
     <g>
      <path class="fil3" d="M4958.45 8073.77c-106.1,-243.16 -302.99,-445.39 -543.21,-557.94 -240.22,-112.51 -776.36,-60.25 -776.36,-60.25l-1408.77 -2.91c28.8,123.74 120.63,441.48 189.21,548.45 68.57,106.95 169.85,197.06 292.1,231.66 149.58,42.31 308.04,-1.5 463.17,-11.5 273.04,-17.62 540.21,70.53 803.12,146.34 262.9,75.78 541.77,140.37 807.69,75.93 75.5,-18.26 154.57,-51.94 191.24,-120.42 40.75,-76.12 16.33,-170.22 -18.19,-249.36z"/>
      <path class="fil5" d="M632.66 3079.42c0,0 -160.24,-11.54 -145.48,347.92 14.75,359.47 51.42,550.95 51.42,550.95 0,0 -4.71,79.7 -66.45,64.04 -61.72,-15.64 -177.84,-93.21 -235.19,-35.21 -59.49,60.12 -38.34,152.38 40.56,261 78.89,108.65 243.01,353.01 257.77,375.17 14.49,21.73 20.31,62.53 -23.45,58.61 -43.76,-3.93 -339.12,-104.04 -378.24,38.95 -39.11,143 230.42,409.55 259.32,439.25 28.92,29.71 30.47,48.47 18.74,66.44 -11.72,17.95 -107.83,-25.06 -193,-50.09 -85.16,-25.01 -188.32,-39.11 -203.97,45.27 -15.66,84.4 103.07,331.36 547.64,590.95l213.87 106.78 202.44 -129.13c416.37,-302.74 509.77,-560.32 485.77,-642.74 -24.01,-82.4 -125.24,-58.06 -207.48,-24.63 -82.24,33.41 -173.56,85.82 -187.02,69.13 -13.47,-16.74 -13.8,-35.54 12,-67.99 25.78,-32.44 267.3,-324.61 214.08,-462.98 -53.22,-138.37 -337.08,-9.21 -380.23,-0.95 -43.15,8.3 -41.45,-32.86 -29.21,-55.95 12.47,-23.52 151.33,-283.06 218.96,-399.07 67.63,-115.97 79.45,-209.86 14.25,-263.75 -62.86,-51.97 -170.64,36.83 -230.5,58.58 -59.85,21.73 -72.51,-57.1 -72.51,-57.1 0,0 17.34,-194.16 -3.95,-553.31 -21.26,-359.14 -183.41,-330.14 -183.41,-330.14l3.27 0z"/>
      <path class="fil3" d="M645.32 3401.37c0,0 0.43,2.53 0.86,7.5 0.4,5.3 0.98,12.65 1.71,22.06 1.34,19.79 3.27,48.32 5.76,84.89 4.89,73.72 11.21,180.46 18.49,312.36 14.67,263.83 31.79,628.43 49.39,1031.15 17.59,402.85 33.82,767.52 47,1031.37 6.69,131.65 12.11,238.32 15.89,312.46 1.82,36.61 3.24,65.16 4.21,84.95 0.39,9.45 0.69,16.77 0.9,22.12 0.16,4.97 0.03,7.54 0.03,7.54 0,0 -0.43,-2.53 -0.86,-7.48 -0.41,-5.34 -0.98,-12.65 -1.7,-22.08 -1.35,-19.77 -3.28,-48.3 -5.77,-84.87 -4.91,-73.72 -11.22,-180.42 -18.49,-312.36 -14.67,-263.81 -31.8,-628.44 -49.4,-1031.29 -17.59,-402.73 -33.81,-767.34 -46.97,-1031.21 -6.71,-131.65 -12.14,-238.32 -15.91,-312.48 -1.82,-36.61 -3.24,-65.16 -4.23,-84.97 -0.37,-9.43 -0.67,-16.78 -0.89,-22.12 -0.15,-4.97 -0.02,-7.54 -0.02,-7.54z"/>
      <path class="fil3" d="M395.03 4122.16c0.4,-0.4 5.11,3.56 13.3,11.09 8.24,7.47 19.79,18.64 33.94,32.58 28.22,27.97 66.18,67.61 107.24,112.13 40.18,43.96 76.5,83.71 104.61,114.47 12.48,13.53 23.11,25.05 31.83,34.52 7.54,8.11 11.54,12.83 11.14,13.24 -0.39,0.4 -5.14,-3.55 -13.39,-10.99 -8.21,-7.51 -19.78,-18.68 -33.78,-32.79 -27.96,-28.25 -65.38,-68.37 -106.43,-112.89 -40.46,-43.63 -77.07,-83.13 -105.38,-113.64 -12.56,-13.48 -23.25,-24.98 -32.03,-34.4 -7.5,-8.18 -11.45,-12.91 -11.05,-13.32z"/>
      <path class="fil3" d="M718.31 4433.1c-1.61,-1.58 76.62,-83.49 174.69,-182.93 98.1,-99.46 178.92,-178.78 180.51,-177.18 1.62,1.59 -76.58,83.49 -174.69,182.95 -98.07,99.44 -178.9,178.78 -180.51,177.16z"/>
      <path class="fil3" d="M717.43 5052.88c-0.26,-0.49 5.07,-3.84 14.9,-9.47 11.43,-6.41 25.4,-14.25 41.84,-23.49 35.29,-19.83 83.96,-47.37 136.55,-79.71 52.68,-32.24 99.37,-63.01 133.01,-85.56 15.69,-10.44 29.02,-19.34 39.92,-26.61 9.46,-6.23 14.86,-9.45 15.19,-8.98 0.34,0.44 -4.43,4.55 -13.33,11.57 -8.92,7.02 -22.01,16.94 -38.48,28.8 -32.85,23.8 -79.18,55.42 -132.02,87.76 -52.77,32.42 -102.04,59.27 -138.1,77.83 -18.07,9.23 -32.79,16.51 -43.11,21.2 -10.3,4.78 -16.12,7.19 -16.37,6.66z"/>
      <path class="fil3" d="M363.11 4835.99c0.29,-0.48 5.54,2.01 14.79,6.95 9.25,4.93 22.5,12.3 38.78,21.55 32.56,18.49 77.25,44.54 126.35,73.73 49.12,29.23 93.34,56.06 125.15,75.81 15.9,9.91 28.7,18.03 37.44,23.8 8.75,5.77 13.45,9.18 13.16,9.69 -0.29,0.46 -5.54,-2.03 -14.79,-6.96 -9.25,-4.92 -22.49,-12.29 -38.78,-21.53 -32.55,-18.52 -77.25,-44.56 -126.36,-73.76 -49.11,-29.2 -93.32,-56.03 -125.13,-75.81 -15.9,-9.89 -28.7,-18.02 -37.44,-23.79 -8.75,-5.77 -13.45,-9.19 -13.17,-9.68z"/>
      <path class="fil3" d="M292.83 5383.05c0.28,-0.51 6.97,2.77 18.82,9.11 13.17,7.24 29.85,16.45 49.77,27.43 41.85,23.52 99.39,56.46 162.67,93.27 63.31,36.83 120.38,70.58 161.48,95.35 19.4,11.9 35.63,21.86 48.47,29.7 11.34,7.17 17.5,11.38 17.21,11.87 -0.29,0.48 -6.97,-2.78 -18.82,-9.11 -13.17,-7.27 -29.86,-16.47 -49.77,-27.44 -41.85,-23.49 -99.39,-56.46 -162.69,-93.31 -63.29,-36.81 -120.36,-70.54 -161.46,-95.31 -19.39,-11.88 -35.64,-21.85 -48.47,-29.71 -11.36,-7.18 -17.5,-11.37 -17.21,-11.85z"/>
      <path class="fil3" d="M742.07 5640.31c-0.26,-0.49 6.36,-4.9 18.61,-12.47 13.61,-8.28 31.06,-18.9 51.98,-31.65 43.87,-26.73 104.36,-63.84 169.99,-106.66 65.71,-42.74 124.19,-82.95 166.34,-112.33 20.12,-13.98 36.91,-25.64 49.99,-34.72 11.85,-8.14 18.57,-12.43 18.9,-11.99 0.34,0.47 -5.73,5.61 -17.01,14.56 -11.27,8.92 -27.81,21.59 -48.49,36.87 -41.34,30.61 -99.43,71.65 -165.26,114.45 -65.75,42.92 -126.84,79.32 -171.52,104.82 -22.37,12.68 -40.58,22.76 -53.34,29.42 -12.73,6.72 -19.89,10.18 -20.19,9.7z"/>
      <polygon class="fil3" points="1063.51,6009.42 471.83,6009.42 664.95,7471.26 870.41,7471.26 "/>
      <path class="fil2" d="M502.54 6189.12c-0.23,0.14 0.65,2.04 3.17,5.2 2.51,3.09 7.15,7.14 14.26,10.22 14.03,6.09 38.67,6.59 62.5,-7.67 23.88,-13.19 44.7,-39.08 76.72,-50.51 31.76,-12.14 71.09,-9.98 108.79,2.14 38.17,11.82 71.3,31.13 101.34,49.1 30.07,17.9 57.65,33.87 82.38,44.19 24.54,10.75 45.96,15.68 60.77,17.57 7.43,0.98 13.21,1.29 17.17,1.17 3.93,0 5.98,-0.16 6,-0.49 0.33,-1.94 -33.49,-1.63 -81.17,-24.46 -23.88,-10.93 -50.71,-27.26 -80.57,-45.6 -29.71,-18.34 -63.65,-38.52 -103.04,-50.68 -38.93,-12.53 -80.78,-14.82 -114.85,-1.26 -17.02,6.5 -31.29,16.67 -43.22,26.73 -12.07,10 -22.9,19.41 -33.86,26.25 -21.64,13.98 -44.37,14.55 -57.63,10 -13.63,-4.76 -18,-12.72 -18.76,-11.9z"/>
      <path class="fil2" d="M524.13 6458.35c0.79,0.51 4.68,-6.01 13.94,-15.68 9.41,-9.39 24.84,-21.67 47.25,-29.97 22.2,-8.52 50.73,-13.58 82.29,-12.41 31.68,1.1 66.23,8.08 102.95,14.05 36.67,6.15 72.99,8.9 105.43,4.37 32.43,-4.17 60.6,-13.49 82.95,-23.68 22.4,-10.24 38.98,-21.43 49.87,-29.66 10.93,-8.28 16.14,-13.84 15.81,-14.22 -1.11,-1.6 -23.96,18.85 -68.4,37.61 -22.19,9.15 -49.79,17.55 -81.29,21.11 -31.52,3.9 -66.39,1.03 -102.83,-5.08 -36.43,-5.91 -71.52,-12.73 -104.22,-13.38 -32.76,-0.72 -62.26,5.24 -85.12,14.96 -23.05,9.49 -38.63,23.29 -47.48,33.77 -4.26,5.49 -7.35,9.82 -8.95,13.13 -1.72,3.17 -2.49,4.92 -2.2,5.08z"/>
      <path class="fil2" d="M996.5 6602.49c0.22,-0.44 -5.26,-4.15 -16.31,-8.46 -11.02,-4.35 -27.82,-8.82 -49.04,-10.52 -21.18,-1.68 -46.58,-0.32 -74.13,4.23 -27.6,4.49 -57.17,12.11 -88.23,18.7 -31.04,6.53 -61,10.94 -88.12,9.96 -27.13,-0.96 -51.24,-6.89 -69.95,-15.14 -38.08,-16.72 -51.63,-41.04 -53.07,-39.5 -0.37,0.22 2.32,6.31 10.01,15.45 7.63,9.11 20.94,20.73 40.18,30.24 19.2,9.43 44.22,16.33 72.44,17.83 28.29,1.53 59.09,-2.78 90.48,-9.39 31.41,-6.68 60.78,-14.51 87.77,-19.36 26.97,-4.96 51.62,-6.97 72.24,-6.2 41.52,1.35 65.12,13.92 65.73,12.16z"/>
      <path class="fil2" d="M576.41 6805.24c0.29,1.55 21.12,-13.15 57.44,-5.8 17.81,3.2 37.73,12.23 60.11,22.41 22.29,10.4 49.17,19.28 78.02,21.51 58.13,5.58 109.82,-13.2 141.53,-32.8 16.25,-9.64 27.58,-20.02 35.23,-27.1 7.19,-7.67 10.9,-12.08 10.43,-12.53 -1.3,-1.43 -16.85,16.07 -49.09,33.71 -31.67,17.55 -81.58,34.47 -137.24,29.09 -56.03,-3.18 -99.03,-36.59 -137.85,-41.02 -18.94,-2.83 -34.77,-0.12 -44.64,3.86 -10,3.91 -14.22,8.32 -13.94,8.67z"/>
      <path class="fil2" d="M609.37 7085.83c-0.01,1.1 19.85,0.96 49.33,-9.81 29.74,-9.93 66.55,-32.74 109.55,-49.84 21.57,-8.19 43.2,-13.27 62.87,-13.15 19.68,0.1 37.26,4.9 50.55,11.54 27.19,13.54 35.06,32.76 36.56,31.54 0.42,-0.2 -0.78,-5.03 -5.62,-12.48 -4.78,-7.43 -13.84,-17.1 -27.71,-25.1 -13.86,-7.9 -32.47,-13.79 -53.65,-14.4 -21.21,-0.6 -44.07,4.53 -66.43,13.05 -44.56,17.77 -80.19,41.22 -108.61,52.47 -28.06,12.12 -47.07,14.61 -46.84,16.18z"/>
      <path class="fil2" d="M638.38 7216.36c-0.31,1.22 13.85,6.32 37.45,12.16 23.59,5.87 56.7,12.15 93.66,15.78 36.98,3.63 70.66,3.93 94.94,2.76 24.3,-1.15 39.19,-3.38 39.12,-4.61 -0.16,-2.94 -59.97,-0.39 -133.11,-7.74 -73.16,-7.01 -131.35,-21.16 -132.06,-18.35z"/>
      <path class="fil11" d="M3809.97 4901.82c3.6,-23.23 -11.39,-45.24 -34.9,-51.3l-45.11 3.12 -161.32 -56.15c-30.19,-7.75 -60.46,13.82 -61.05,43.91 -0.91,46.38 -19.38,172.65 -56.99,132.97l-2.69 -2.59c-53.19,-59.35 -114.79,-87.99 -138.57,-84.57 -23.19,3.34 -28.87,32.44 -11.56,47.7 2.6,2.65 5.63,5.06 9.58,6.7l5.38 2.89c19.59,12.66 43.75,36.26 61.66,55.1 17.08,17.93 30.82,38.87 40.59,61.38 10.89,24.99 19.32,47.03 25.9,65.76l2.53 148.33 -64.43 693.48c0,0 -426.89,-448.36 -416.98,-452.78l24.51 697.97 258.57 214c109.9,90.93 266.23,99.66 385.55,21.49 93.33,-61.14 148.82,-165.88 146.96,-277.46l-14.92 -896.7 10.52 -117.63 36.77 -255.62z"/>
      <path class="fil11" d="M1412.69 5887.58l-467.08 1069.36 -369.7 771.3 -274.57 92.37c0,0 -217.3,63.06 -217.29,108.05 0.01,44.96 57.33,34.72 57.33,34.72 10.54,67.17 103.53,29.08 168.66,-1.08 65.11,-30.16 209.71,-36.13 209.71,-36.13 -39.79,30.75 -27.05,78.17 -4.05,94.32 23.01,16.14 63.15,-3.4 90.35,-32.38 27.2,-28.96 97.07,-42.43 174.91,-70.19 77.85,-27.75 90.66,-132.43 90.66,-132.43l935.55 -1575.84 -394.48 -322.07z"/>
      <path class="fil7" d="M2963.63 6275.85l117.66 155.34 254.7 -565.21c0,0 -247.26,-301.74 -337.69,-428.3 -89.65,-125.44 -156.91,-147.25 -156.91,-147.25 0,0 -164.25,-48.79 -246.35,-47.09l-405.85 24.2 -412.23 179.98c-101.2,44.17 -187.41,116.76 -248.19,208.95l-388.19 623.46 549.57 234.94 184.29 1053.74c35.4,158.01 66.28,307.15 212.16,379.98l1019.33 -979.61 -119.41 -188.09 -22.89 -505.04z"/>
      <path class="fil1" d="M1989.14 6082.63c2.41,1.63 -60.4,99.28 -140.3,218.08 -79.91,118.87 -146.63,213.86 -149.04,212.24 -2.42,-1.62 60.39,-99.26 140.3,-218.12 79.9,-118.81 146.62,-213.81 149.04,-212.2z"/>
      <path class="fil1" d="M2843.66 7082.92c0.32,0.65 -9.33,6.36 -27.1,16.17 -17.75,9.82 -43.65,23.6 -75.82,40.27 -64.37,33.39 -154,78.13 -254.08,125.31 -100.11,47.15 -191.7,87.8 -258.41,116.17 -33.37,14.2 -60.47,25.41 -79.35,32.84 -18.83,7.49 -29.4,11.28 -29.68,10.61 -0.29,-0.66 9.71,-5.73 28.07,-14.36 20.13,-9.26 46.36,-21.35 77.96,-35.91 65.89,-30.1 156.89,-71.76 256.92,-118.89 99.98,-47.12 190.03,-90.78 255.21,-122.42 31.35,-15.1 57.36,-27.66 77.32,-37.27 18.33,-8.67 28.61,-13.18 28.96,-12.52z"/>
      <path class="fil1" d="M1956.46 5854.38c-1.25,0.87 -14.51,-16.7 -35.73,-45.03 -21.4,-28.1 -50.86,-67.32 -90.55,-103.22 -39.67,-35.9 -83.26,-58.76 -116.7,-68.72 -33.46,-10.38 -55.71,-10.12 -55.6,-12.04 0,-0.65 5.51,-1.38 15.55,-1.21 10.03,0.12 24.59,1.71 42.08,6.08 35.03,8.38 80.93,31.13 121.72,68.04 40.73,36.89 69.64,77.42 89.54,106.74 19.8,29.57 30.82,48.57 29.69,49.36z"/>
      <path class="fil1" d="M2795.11 6367.9c0.36,0 0.53,3.84 0.51,11.17 -0.2,7.33 0.1,18.17 -1.04,32.05 -1.45,27.81 -5.88,68.01 -16.22,116.82 -20.08,97.25 -69.88,230.04 -165.75,349.53 -95.88,119.62 -214.72,197.03 -305.3,237.71 -45.41,20.71 -83.7,33.76 -110.51,41.22 -13.31,4.11 -23.96,6.15 -31.06,7.93 -7.14,1.62 -10.93,2.3 -11.03,1.97 -0.22,-0.87 14.55,-5.15 40.88,-13.83 26.31,-8.61 63.94,-22.66 108.54,-44.03 89,-42.07 205.62,-119.52 300.24,-237.54 94.64,-117.96 144.95,-248.57 166.72,-344.58 11.17,-48.18 16.71,-87.98 19.43,-115.54 2.75,-27.56 3.7,-42.92 4.59,-42.88z"/>
      <path class="fil12" d="M1761.4 6922.24l-69.12 -395.21 69.11 395.15c0,0.01 0.01,0.04 0.01,0.06z"/>
      <path class="fil8" d="M1761.39 6922.18l-69.11 -395.15 14.8 -22.21c19.63,-25.3 76.26,-106.69 141.76,-204.11 14.21,-21.12 27.88,-41.58 40.74,-60.94 -18.03,93.42 -129.35,670.93 -128.19,682.41z"/>
      <path class="fil13" d="M1707.08 6504.82l184.96 -277.76c0,0 -0.87,4.47 -2.46,12.71 -12.86,19.36 -26.53,39.82 -40.74,60.94 -65.5,97.42 -122.13,178.81 -141.76,204.11z"/>
      <path class="fil1" d="M2937.51 5618.29c0.36,-0.02 0.85,4.04 1.46,11.78 0.57,8.88 1.25,20.09 2.12,33.85 1.56,30.82 3.68,73.01 6.27,124.51 5.16,106.46 12.17,251.06 19.91,410.89 7.63,160.51 13.66,305.88 16.82,411.12 1.58,52.65 2.59,95.23 2.93,124.68 0.07,13.8 0.11,25.03 0.15,33.93 -0.08,7.76 -0.31,11.84 -0.65,11.84 -0.36,0.02 -0.87,-4.05 -1.47,-11.78 -0.57,-8.9 -1.26,-20.09 -2.13,-33.85 -1.56,-30.82 -3.69,-72.99 -6.27,-124.51 -5.16,-106.44 -12.17,-251.11 -19.92,-410.95 -7.63,-160.47 -13.66,-305.8 -16.81,-411.07 -1.58,-52.63 -2.59,-95.23 -2.91,-124.67 -0.08,-13.8 -0.13,-25.03 -0.17,-33.94 0.09,-7.75 0.3,-11.83 0.67,-11.83z"/>
      <path class="fil14" d="M2123.98 7423.67c-0.17,-0.14 -0.33,-0.26 -0.47,-0.4 1.41,-0.46 3.16,-1.07 5.24,-1.82l-4.77 2.22zm-1.71 -1.47c-30.63,-27.68 -22.97,-81.61 5.32,-112.25 28.84,-31.18 71.5,-44.6 111.89,-57.67 193.72,-62.73 388.42,-151.44 516.21,-309.95 17.65,-21.89 34.26,-45.35 57.23,-61.56 14.97,-10.58 33.53,-17.54 51.56,-17.54 9.67,0 19.18,2 27.9,6.53 39.16,20.34 40.62,77.06 24.19,118.02 -15.1,37.61 -40.78,70.89 -73.03,95.39 0.1,-0.1 0.14,-0.2 0.12,-0.25 -0.02,-0.04 -0.11,-0.05 -0.2,-0.05 -1.48,0 -11.6,4.45 -28.76,12.57 -19.96,9.61 -45.97,22.17 -77.32,37.27 -65.18,31.64 -155.23,75.3 -255.21,122.42 -100.03,47.13 -191.03,88.79 -256.92,118.89 -31.6,14.56 -57.83,26.65 -77.96,35.91 -12.25,5.75 -20.78,9.92 -25.02,12.27zm666.69 -308.15c10.64,-5.69 19.89,-10.71 27.6,-14.96 12.51,-6.92 20.99,-11.77 24.81,-14.28 -9.98,7.38 -20.54,13.94 -31.61,19.55l-20.8 9.69z"/>
      <path class="fil15" d="M2123.51 7423.27c-0.43,-0.34 -0.83,-0.71 -1.24,-1.07 4.24,-2.35 12.77,-6.52 25.02,-12.27 20.13,-9.26 46.36,-21.35 77.96,-35.91 65.89,-30.1 156.89,-71.76 256.92,-118.89 99.98,-47.12 190.03,-90.78 255.21,-122.42 31.35,-15.1 57.36,-27.66 77.32,-37.27 17.16,-8.12 27.28,-12.57 28.76,-12.57 0.09,0 0.18,0.01 0.2,0.05 0.02,0.05 -0.02,0.15 -0.12,0.25 -0.73,0.55 -1.44,1.09 -2.17,1.64 -3.82,2.51 -12.3,7.36 -24.81,14.28 -7.71,4.25 -16.96,9.27 -27.6,14.96l-660.21 307.4c-2.08,0.75 -3.83,1.36 -5.24,1.82z"/>
      <polygon class="fil15" points="2975.94,6292.12 2971.3,6285.98 2971.3,6285.98 2975.94,6292.09 "/>
      <polygon class="fil16" points="2980.27,6297.82 2975.94,6292.12 2975.94,6292.09 "/>
      <path class="fil14" d="M3054.85 6396.27l-74.58 -98.45 -4.33 -5.73 -4.64 -6.11c-1.27,-28.26 -2.63,-57.22 -4.03,-86.66 -7.74,-159.83 -14.75,-304.43 -19.91,-410.89 -0.38,-7.69 -0.75,-15.18 -1.13,-22.46l108.62 630.3z"/>
      <path class="fil15" d="M2971.3 6285.98l-4.57 -6.05 -24.99 -540.05 4.49 26.09c0.38,7.28 0.75,14.77 1.13,22.46 5.16,106.46 12.17,251.06 19.91,410.89 1.4,29.44 2.76,58.4 4.03,86.66l0 0z"/>
      <path class="fil7" d="M4017.97 7464.17l-191.26 655.96 814.89 242.12c18.35,-79.25 -356.78,-360.81 -356.78,-360.81l139.79 -415.25 -406.64 -122.02z"/>
      <path class="fil17" d="M4040.6 7956.69c-0.35,0 -0.67,0 -0.99,-0.02 -17.06,-0.67 -31.65,-17.22 -30.58,-34.27 1.01,-15.9 15.22,-29.63 31.02,-31.03 1.34,-0.27 2.69,-0.39 4.05,-0.39 15.46,0 30.88,16.89 31.65,32.54 0.83,16.69 -18.33,33.17 -35.15,33.17z"/>
      <path class="fil18" d="M4641.6 8362.25l-814.89 -242.12 814.89 242.12c2.65,-11.43 -2.92,-27.1 -14.35,-45.51 8.48,8.98 22.85,27.84 14.35,45.51z"/>
      <path class="fil17" d="M4641.6 8362.25l-814.89 -242.12 21.85 -65.36 773.15 256.6c0,0 2.35,1.99 5.54,5.37 11.43,18.41 17,34.08 14.35,45.51z"/>
      <path class="fil1" d="M4299.25 8001.25c-1.31,3.91 -21.73,-0.19 -45.13,6.79 -23.55,6.36 -38.77,20.6 -41.96,17.93 -3.43,-1.86 9.57,-23.88 38.02,-31.83 28.37,-8.2 51.01,3.71 49.07,7.11z"/>
      <path class="fil1" d="M4374.23 8061.99c-0.23,4.13 -19.49,5.77 -38.01,18.58 -18.88,12.26 -27.7,29.46 -31.61,28.09 -3.92,-0.48 0.24,-24.61 23.58,-40.09 23.17,-15.71 47.07,-10.43 46.04,-6.58z"/>
      <path class="fil1" d="M4392.38 8178.69c-3.87,-0.22 -3.5,-21.75 13.19,-40.51 16.55,-18.86 37.88,-21.9 38.57,-18.08 1.27,3.93 -14.27,12.03 -27.75,27.65 -13.82,15.3 -19.95,31.73 -24.01,30.94z"/>
      <path class="fil1" d="M4320.62 7903.06c-2.75,3.12 -19.37,-7.79 -42.31,-12.95 -22.85,-5.6 -42.6,-3.28 -43.65,-7.29 -1.46,-3.57 20.01,-13.21 46.96,-6.78 26.98,6.26 41.87,24.47 39,27.02z"/>
      <path class="fil1" d="M4329.93 7800.6c-0.43,1.67 -16.9,-0.56 -40.74,-12.34 -11.85,-5.89 -25.39,-14.34 -38.81,-25.8 -6.68,-5.73 -13.36,-12.2 -19.73,-19.38 -3.03,-3.54 -6.75,-7.31 -9.47,-13.28 -3.18,-5.46 -2.54,-16.75 4.45,-21.71 6.05,-5.02 14.23,-5.53 20.16,-3.9 6.05,1.57 10.56,4.25 14.67,6.65 8.42,4.9 16.02,10.44 22.79,16.25 13.45,11.7 23.45,24.42 30.29,35.88 13.7,23.13 15.74,39.9 14.14,40.27 -2.18,0.76 -7.69,-14.41 -22.62,-34.59 -7.47,-10.04 -17.51,-21.12 -30.31,-31.3 -6.44,-5.08 -13.54,-9.92 -21.29,-14.2 -7.96,-4.84 -15.28,-7.07 -18.64,-3.89 -1.23,1.23 -1.52,1.76 -0.45,4.82 1.16,2.89 3.97,6.2 6.97,9.71 5.8,6.86 11.86,13.07 17.91,18.74 12.12,11.27 24.28,20.13 34.96,26.83 21.39,13.46 36.43,19.1 35.72,21.24z"/>
      <path class="fil1" d="M4323.07 7804.78c-1.6,0.18 -5.26,-16.41 0.93,-42.63 3.13,-12.97 9.06,-28.08 18.86,-43.03 4.93,-7.43 10.83,-14.79 17.74,-21.67 7.17,-6.64 16.21,-15.7 32.16,-12.89 8.16,2.1 12.99,10.4 13.68,16.47 1.05,6.29 0.18,11.19 -0.26,16.19 -1.34,9.97 -4.29,19.24 -8.16,27.5 -7.71,16.57 -19.1,28.91 -29.92,36.97 -22.23,16.38 -40.24,16.2 -40.17,14.75 -0.73,-2.39 15.41,-5.93 33.63,-22.62 8.98,-8.22 18.25,-19.81 24.3,-34.51 3.06,-7.3 5.3,-15.36 6.28,-23.81 1.27,-9.03 0.12,-16.98 -3.38,-17.06 -4.05,-1.28 -12.88,3.22 -18.26,9.13 -6.35,6.06 -11.92,12.54 -16.69,19.12 -9.47,13.21 -15.89,26.64 -19.99,38.38 -8.24,23.57 -8.4,39.75 -10.75,39.71z"/>
      <path class="fil1" d="M4854.6 6487.41c20.64,151.34 -31.16,322.01 -85.9,464.59l-357.41 840.29 -395.52 -60.73c0,0 -82.56,91.83 -187.91,126.94 -47.17,15.73 -202.34,46.22 -329.98,-45.69 0,0 -180.73,251.73 -465.06,327.88 -284.33,76.17 -714.81,118.1 -923.21,-214.52l992.07 -956.03c20.46,4.91 854.52,-557.58 1305.04,-685.61 0,0 409.94,-75.4 447.88,202.88z"/>
      <path class="fil4" d="M3986.27 7728.24c-0.08,-0.14 1.73,-1.25 5.36,-3.23 4.15,-2.21 9.49,-5.04 16.19,-8.58 14.22,-7.52 35.39,-18.34 62.12,-33.11 26.69,-14.83 59.17,-33.45 94.58,-58.34 35.29,-24.82 73.74,-56.53 107.11,-99.27 33.87,-42.3 59.43,-97.67 69.45,-160.61 10.4,-62.82 6.98,-132.19 -8.46,-202.16 -15.4,-69.37 -47.65,-141.79 -109.17,-190.02 -60.99,-48.11 -141.23,-73.17 -223.38,-79.5 -41.25,-3.38 -82.28,-2.82 -122.47,1.03 -40.17,4.28 -79.39,11.5 -117.43,20.62 -76.08,18.8 -147.15,45.47 -213.46,73.85 -132.28,57.72 -247.04,120.13 -347.86,163.19 -100.37,44.08 -185.74,70.1 -245.86,82.08 -14.95,3.36 -28.41,5.48 -40.06,7.29 -11.62,2.02 -21.54,3.25 -29.57,3.94 -7.55,0.73 -13.56,1.32 -18.26,1.79 -4.12,0.31 -6.25,0.4 -6.25,0.23 -0.02,-0.18 2.07,-0.65 6.13,-1.33 4.66,-0.71 10.61,-1.64 18.09,-2.79 7.98,-1.04 17.82,-2.57 29.33,-4.95 11.55,-2.11 24.89,-4.52 39.72,-8.18 59.59,-13.18 144.1,-40.1 243.74,-84.9 100.11,-43.79 214.28,-106.78 346.98,-165.28 66.52,-28.75 138.03,-55.83 214.84,-74.96 38.47,-9.31 78.16,-16.67 118.87,-21.02 40.75,-3.95 82.48,-4.55 124.43,-1.09 83.55,6.45 165.79,31.97 228.9,81.93 31.33,25.03 56.46,56.48 74.41,90.41 18.13,33.96 29.83,69.95 37.8,105.51 15.42,71.19 18.59,141.61 7.61,205.74 -10.58,64.23 -37.27,120.97 -72.2,163.74 -34.42,43.32 -73.72,74.96 -109.62,99.55 -36.02,24.64 -68.92,42.79 -96,57.08 -27.11,14.29 -48.57,24.51 -63.11,31.42 -6.9,3.17 -12.39,5.67 -16.68,7.66 -3.78,1.66 -5.74,2.42 -5.82,2.26z"/>
      <path class="fil4" d="M4234.42 6625.7c2.43,1.59 -34.71,62.14 -82.91,135.26 -48.22,73.09 -89.26,131.04 -91.68,129.45 -2.44,-1.61 34.66,-62.15 82.88,-135.28 48.22,-73.07 89.26,-131.03 91.71,-129.43z"/>
      <path class="fil4" d="M3949.15 7661.51c0.28,1.58 -27.48,7.47 -71.88,18.53 -44.41,10.99 -105.34,27.84 -171.19,50.85 -65.85,23.12 -124,47.9 -165.58,67 -41.61,19.04 -66.99,31.76 -67.75,30.34 -0.35,-0.65 5.6,-4.57 16.67,-11.11 11.03,-6.62 27.36,-15.52 47.83,-25.95 40.96,-20.89 99.06,-46.98 165.35,-70.21 66.3,-23.17 127.99,-39 173.02,-48.2 22.5,-4.61 40.83,-7.86 53.58,-9.55 12.73,-1.78 19.83,-2.43 19.95,-1.7z"/>
      <path class="fil4" d="M4404.26 7737.25c-1.83,0.61 -6.58,-17.95 -23.36,-42.68 -16.31,-24.5 -47.15,-54.72 -90.19,-68.8 -43.12,-13.9 -85.84,-7.52 -113.44,2.73 -28.09,10.18 -42.84,22.39 -43.95,20.82 -0.41,-0.48 2.81,-4.04 9.59,-9.41 6.74,-5.38 17.38,-12.14 31.65,-18.34 28.03,-12.5 73.27,-20.69 119.39,-5.81 46.06,15.04 77.88,48.24 93.25,74.8 7.89,13.38 12.52,25.12 14.83,33.43 2.32,8.32 2.85,13.1 2.23,13.26z"/>
      <path class="fil4" d="M2692.76 7423.67c0.64,-0.11 2.71,6.54 5.14,18.93 2.31,12.39 4.55,30.6 4.55,53.24 0.02,44.84 -9.89,109.27 -46.64,168.99 -36.42,60.03 -92.44,96.46 -135.52,110.14 -21.59,7.24 -40.03,9.57 -52.65,10.09 -12.65,0.59 -19.61,-0.37 -19.59,-0.92 -0.24,-2.27 28.27,-0.6 69.75,-16.22 41.1,-15.03 93.96,-50.85 129.02,-108.64 35.42,-57.49 46.32,-119.76 48.18,-163.63 1.81,-44.34 -4.17,-71.69 -2.24,-71.98z"/>
      <path class="fil4" d="M2246.4 7877.59c-2.25,1.82 -12.71,-7.37 -22.56,-21.11 -9.9,-13.72 -15.14,-26.75 -12.59,-28.25 2.47,-1.46 11.46,8.65 21.14,22.12 9.68,13.45 16.29,25.4 14.01,27.24z"/>
      <path class="fil4" d="M2329.73 7965.55c-1.9,2.18 -13.31,-5.54 -25.43,-17.28 -12.15,-11.74 -20.26,-22.85 -18.14,-24.85 2.13,-1.99 13.52,5.75 25.46,17.28 11.9,11.53 20.01,22.66 18.11,24.85z"/>
      <path class="fil4" d="M2427.95 8036.59c-1.44,2.56 -14.12,-2.87 -28.3,-12.1 -14.23,-9.22 -24.33,-18.61 -22.61,-20.96 1.74,-2.32 14.41,3.07 28.33,12.1 13.9,9.04 24,18.43 22.58,20.96z"/>
      <path class="fil4" d="M2539.21 8084.47c-0.79,2.8 -14.37,0.41 -30.34,-5.36 -15.96,-5.77 -27.92,-12.6 -26.74,-15.28 1.19,-2.64 14.77,-0.24 30.33,5.37 15.56,5.62 27.52,12.46 26.75,15.27z"/>
      <path class="fil4" d="M2658.82 8103.23c-0.06,2.9 -13.78,4.03 -30.68,2.49 -16.89,-1.56 -30.21,-5.12 -29.72,-8.02 0.49,-2.85 14.23,-3.98 30.68,-2.48 16.45,1.5 29.76,5.1 29.72,8.01z"/>
      <path class="fil4" d="M2779.92 8096.64c0.34,2.89 -13.1,6.16 -30.04,7.32 -9.06,0.61 -17.22,0.46 -22.7,-0.24l0.42 -0.02c-4.99,-0.41 -8.01,-1.31 -8.15,-2.67 -0.12,-1.34 2.65,-2.86 7.37,-4.31l0.42 -0.02c5.41,-1.44 13.36,-2.65 22.2,-3.28 16.47,-1.1 30.11,0.34 30.48,3.22z"/>
      <path class="fil4" d="M2899.16 8075.1c0.71,2.84 -12.06,7.97 -28.53,11.5 -16.47,3.52 -30.23,4.06 -30.74,1.19 -0.5,-2.88 12.27,-8.03 28.53,-11.49 16.27,-3.48 30.03,-4.03 30.74,-1.2z"/>
      <path class="fil4" d="M3015.13 8039.78c1.02,2.73 -11.13,9.28 -27.09,14.62 -15.99,5.35 -29.6,7.43 -30.44,4.64 -0.85,-2.8 11.29,-9.36 27.1,-14.65 15.8,-5.27 29.42,-7.35 30.43,-4.61z"/>
      <path class="fil4" d="M3126.76 7992.4c1.27,2.61 -10.11,10.38 -25.44,17.34 -15.32,6.98 -28.68,10.46 -29.79,7.77 -1.11,-2.67 10.26,-10.44 25.44,-17.34 15.15,-6.9 28.49,-10.38 29.79,-7.77z"/>
      <path class="fil4" d="M3233.09 7934.04c1.52,2.47 -9.02,11.35 -23.57,19.79 -14.55,8.47 -27.46,13.24 -28.86,10.68 -1.4,-2.54 9.15,-11.4 23.56,-19.78 14.41,-8.36 27.33,-13.15 28.87,-10.69z"/>
      <path class="fil4" d="M3333.32 7865.67c1.76,2.34 -7.89,12.15 -21.59,21.97 -13.68,9.83 -26.08,15.82 -27.72,13.4 -1.62,-2.39 8.03,-12.23 21.59,-21.96 13.56,-9.71 25.96,-15.72 27.72,-13.41z"/>
      <path class="fil4" d="M3426.77 7788.41c1.98,2.14 -6.76,12.82 -19.49,23.83 -12.73,11.03 -24.54,18.12 -26.39,15.86 -1.84,-2.22 6.88,-12.92 19.49,-23.83 12.63,-10.91 24.45,-18.01 26.39,-15.86z"/>
      <path class="fil4" d="M3515.1 7705.07c1.92,2.19 -6.38,13.21 -18.52,24.65 -12.16,11.43 -23.74,18.98 -25.72,17 -2.14,-2.13 6.19,-13.11 18.5,-24.67 12.3,-11.57 23.81,-19.18 25.74,-16.98z"/>
      <path class="fil4" d="M3611.02 7630.46c1.61,2.43 -8.04,12.33 -21.54,22.1 -13.5,9.79 -25.9,15.85 -27.7,13.56 -1.8,-2.27 7.83,-12.18 21.53,-22.1 13.7,-9.91 26.1,-15.98 27.71,-13.56z"/>
      <path class="fil4" d="M3717.39 7571.78c1.14,2.69 -10.01,10.85 -24.91,18.22 -14.91,7.38 -28.14,11.28 -29.58,8.75 -1.44,-2.53 9.71,-10.68 24.91,-18.21 15.19,-7.52 28.45,-11.43 29.58,-8.76z"/>
      <path class="fil4" d="M3833.14 7535.76c0.51,2.86 -12.12,8.46 -28.19,12.47 -16.06,4.01 -29.8,5.02 -30.71,2.24 -0.89,-2.77 11.71,-8.35 28.18,-12.47 16.45,-4.12 30.22,-5.11 30.72,-2.24z"/>
      <path class="fil4" d="M3954.11 7529.61c-0.32,2.92 -13.9,3.88 -30.41,3.64 -16.54,-0.3 -30.1,-1.8 -30.27,-4.73 -0.19,-2.88 13.43,-6.14 30.45,-5.81 17.02,0.28 30.53,4.02 30.23,6.9z"/>
      <path class="fil4" d="M4071.07 7560.29c-1.33,2.57 -14.26,-1.3 -29.8,-6.72 -15.51,-5.52 -28.03,-10.93 -27.32,-13.78 0.65,-2.8 14.69,-1.9 30.84,3.82 16.19,5.71 27.64,14.11 26.28,16.68z"/>
      <path class="fil4" d="M4045.5 7648.33c-1.84,-2.35 7.24,-12.32 18.01,-24.44 10.82,-12.08 19.5,-22.3 22.07,-20.8 2.49,1.4 -2.61,14.83 -14.23,27.8 -11.52,12.97 -24.13,19.67 -25.85,17.44z"/>
      <path class="fil4" d="M3938.31 7703.98c-0.89,-2.77 10.74,-10.14 26,-16.43 15.28,-6.32 28.75,-9.29 30.09,-6.72 1.34,2.59 -10.3,9.96 -26,16.43 -15.71,6.48 -29.18,9.49 -30.09,6.72z"/>
      <path class="fil4" d="M3822.68 7741.09c-0.99,-2.73 11.15,-9.29 27.09,-14.65 15.95,-5.34 29.59,-7.44 30.46,-4.65 0.85,2.77 -11.29,9.33 -27.12,14.65 -15.82,5.3 -29.46,7.41 -30.43,4.65z"/>
      <path class="fil4" d="M3709.2 7784.4c-1.1,-2.71 10.7,-9.9 26.35,-16.03 15.62,-6.18 29.14,-8.96 30.17,-6.25 1.05,2.73 -10.75,9.89 -26.33,16.04 -15.56,6.14 -29.08,8.93 -30.19,6.24z"/>
      <path class="fil4" d="M3597.32 7831.65c-1.18,-2.67 10.36,-10.22 25.8,-16.86 15.42,-6.66 28.85,-9.9 29.99,-7.2 1.11,2.69 -10.45,10.24 -25.83,16.85 -15.38,6.64 -28.79,9.87 -29.96,7.21z"/>
      <path class="fil4" d="M3371.16 4361.71c0,0 132.34,-39.76 308.15,-235.91 175.79,-196.14 246.8,-444.54 270.04,-445.08 23.27,-0.57 120.97,-55.06 344.56,349.31 223.6,404.35 155.02,507.21 116.66,509.27 -38.35,2.04 -303.8,-51.07 -464.86,-20.54 -161.05,30.56 -363.53,130.72 -363.53,130.72l-211.02 -287.77z"/>
      <path class="fil1" d="M3102.31 4611.18l52.39 83.86 23.47 37.55c32.2,51.54 99.08,68.86 152.23,39.42l280.92 -121.94 -196.47 -370.92 -276.7 174.97c-53.12,33.58 -69.13,103.75 -35.84,157.06z"/>
      <path class="fil1" d="M3278.97 4738.54l105.3 173.3 45.03 -16.19 318.26 221.8 71.66 -170.42c0,0 -183.03,-63.22 -220.53,-124.03 -37.52,-60.81 -0.68,-77.96 -0.68,-77.96l-90.52 -88.64 -228.52 82.14z"/>
      <path class="fil1" d="M4278.93 4038.79c119.3,219.17 176.94,418.11 128.78,444.31 -48.14,26.21 -183.88,-130.21 -303.17,-349.38 -119.28,-219.18 -176.98,-418.11 -128.82,-444.32 48.16,-26.2 183.92,130.21 303.21,349.39z"/>
      <polygon class="fil4" points="3086.93,4739.13 3163.28,4708.77 3108.06,4620.39 3052.15,4661.18 "/>
      <polygon class="fil4" points="3538.51,4686.78 3338.42,4836.36 3308.39,4786.96 "/>
      <polygon class="fil4" points="3108.06,4620.39 3163.28,4708.77 3147.6,4715.01 3101.38,4625.28 "/>
      <path class="fil4" d="M3163.5 4637.61c1.34,2.42 39.22,-15.65 84.61,-40.36 45.41,-24.73 81.14,-46.76 79.81,-49.19 -1.34,-2.44 -39.2,15.62 -84.61,40.35 -45.41,24.73 -81.12,46.75 -79.81,49.2z"/>
      <path class="fil4" d="M3135.39 4584.61c1.42,2.4 35.6,-15.1 76.37,-39.1 40.8,-23.98 72.69,-45.36 71.28,-47.77 -1.4,-2.39 -35.58,15.11 -76.37,39.09 -40.78,24 -72.69,45.39 -71.28,47.78z"/>
      <path class="fil4" d="M3198.11 4692.79c0.5,1.31 9.63,-1.52 24.09,-7.21 7.23,-2.83 15.79,-6.37 25.24,-10.46 9.37,-4.21 19,-10.02 29.36,-15.66 41.28,-23.03 72.51,-44.9 71.25,-47.11 -1.46,-2.63 -35.21,15.5 -76.11,38.29 -10.28,5.62 -19.75,11.65 -28.73,16.23 -9.06,4.47 -17.16,8.59 -23.92,12.22 -13.51,7.24 -21.69,12.4 -21.18,13.7z"/>
      <path class="fil4" d="M4066.36 4003.88c0,0 111.54,-81.21 187.28,72.04 75.72,153.23 -45.39,188.37 -45.39,188.37 -56.15,-74.34 -103.71,-160.78 -141.89,-260.41z"/>
      <path class="fil1" d="M3927.97 3824.84c-0.67,0.16 1.79,10.78 6.84,29.84 5.14,19.03 12.44,46.67 22.5,80.52 6.21,16.57 12.99,34.69 20.25,54.09 3.67,9.71 7.47,19.78 11.38,30.14 1.96,5.15 3.94,10.42 5.96,15.72 2.17,5.28 4.82,10.4 7.27,15.7 10.04,21.11 20.58,43.27 31.49,66.21 2.73,5.73 5.5,11.52 8.29,17.36 2.71,5.85 6.36,11.3 9.53,17.04 6.6,11.36 13.28,22.89 20.04,34.56 6.8,11.66 13.5,23.17 20.09,34.52 3.42,5.61 6.35,11.46 10.1,16.74 3.71,5.3 7.37,10.59 10.99,15.81 14.55,20.84 28.57,40.95 41.95,60.16 3.39,4.73 6.53,9.59 10.03,14.06 3.63,4.41 7.23,8.74 10.75,13.01 7.08,8.54 13.92,16.84 20.58,24.85 13.28,15.93 25.66,30.8 37.01,44.42 24.36,25.43 44.72,45.41 58.7,59.29 14.05,13.82 22.06,21.2 22.56,20.72 0.52,-0.46 -6.55,-8.78 -19.72,-23.44 -13.67,-14.89 -32.82,-35.79 -56.38,-61.49 -10.97,-13.76 -22.95,-28.77 -35.78,-44.88 -6.45,-8.04 -13.13,-16.35 -19.99,-24.91 -3.46,-4.29 -6.94,-8.64 -10.48,-13.04 -3.42,-4.46 -6.48,-9.34 -9.82,-14.1 -13.13,-19.16 -26.89,-39.24 -41.18,-60.08 -3.58,-5.2 -7.18,-10.44 -10.82,-15.74 -3.71,-5.26 -6.6,-11.07 -9.98,-16.65 -6.54,-11.3 -13.19,-22.73 -19.91,-34.3 -6.72,-11.6 -13.37,-23.01 -19.93,-34.28 -3.18,-5.71 -6.8,-11.09 -9.53,-16.92 -2.8,-5.77 -5.57,-11.52 -8.32,-17.18 -11.03,-22.71 -21.65,-44.62 -31.81,-65.52 -2.47,-5.25 -5.18,-10.3 -7.39,-15.51 -2.06,-5.26 -4.1,-10.44 -6.13,-15.55 -4.05,-10.23 -7.97,-20.14 -11.77,-29.75 -7.63,-19.15 -14.78,-37.02 -21.29,-53.36 -10.65,-33.13 -19.29,-60.06 -25.46,-79.27 -6.19,-18.7 -9.94,-28.96 -10.62,-28.79z"/>
      <path class="fil11" d="M3627.2 4745.48c17.79,5.24 28.23,23.53 23.7,41.51 -8.7,34.39 -22.93,88.45 -34.36,121.47 -3.68,10.64 -7.71,21.51 -15.16,29.97 -7.42,8.45 -19.1,14.12 -30.05,11.43 -11.53,-2.85 -19.32,-14.33 -21.43,-26.04 -2.12,-11.7 0.35,-23.68 2.94,-35.31 7.12,-32.05 20.15,-80.24 31.54,-119.55 5.31,-18.36 24.49,-28.88 42.82,-23.48z"/>
      <path class="fil11" d="M3681.98 4801.39c17.79,5.22 28.23,23.53 23.7,41.49 -8.7,34.41 -22.93,88.47 -34.36,121.47 -3.68,10.66 -7.71,21.53 -15.16,29.99 -7.42,8.48 -19.08,14.14 -30.03,11.41 -11.55,-2.83 -19.34,-14.32 -21.45,-26.02 -2.13,-11.7 0.35,-23.7 2.93,-35.29 7.13,-32.08 20.18,-80.28 31.55,-119.57 5.3,-18.36 24.49,-28.88 42.82,-23.48z"/>
      <path class="fil11" d="M3734.87 4834.92c15.41,4.53 24.48,20.4 20.53,35.94 -7.53,29.79 -19.84,76.58 -29.75,105.2 -3.18,9.23 -6.68,18.6 -13.11,25.95 -6.44,7.32 -16.53,12.24 -26.03,9.89 -9.99,-2.46 -16.73,-12.4 -18.57,-22.54 -1.82,-10.14 0.32,-20.52 2.55,-30.57 6.17,-27.77 17.46,-69.51 27.3,-103.53 4.61,-15.89 21.22,-25.01 37.08,-20.34z"/>
      <path class="fil11" d="M3794.91 4841.72c15.47,4.54 24.57,20.48 20.63,36.1 -7.57,29.95 -19.95,76.96 -29.89,105.7 -3.22,9.26 -6.72,18.69 -13.19,26.08 -6.46,7.35 -16.62,12.28 -26.13,9.93 -10.06,-2.49 -16.84,-12.46 -18.65,-22.64 -1.85,-10.18 0.29,-20.64 2.54,-30.74 6.2,-27.88 17.55,-69.81 27.42,-104.01 4.64,-15.96 21.33,-25.11 37.27,-20.42z"/>
      <path class="fil19" d="M3608.06 4939.05c-2.77,-0.88 3.91,-29.86 14.91,-64.73 11.03,-34.88 22.2,-62.46 24.97,-61.57 2.77,0.86 -3.9,29.86 -14.91,64.73 -11.01,34.88 -22.2,62.45 -24.97,61.57z"/>
      <path class="fil19" d="M3722.05 4984.99c-2.75,-1.09 5.99,-29.44 16.33,-64.37 10.42,-34.91 18.57,-63.44 21.49,-62.83 2.81,0.55 -0.83,30.41 -11.39,65.82 -10.51,35.46 -23.78,62.45 -26.43,61.38z"/>
      <path class="fil19" d="M3665.61 4977.61c-2.77,-1.1 5.97,-29.45 16.31,-64.37 10.42,-34.93 18.6,-63.44 21.51,-62.84 2.79,0.55 -0.83,30.4 -11.41,65.83 -10.49,35.43 -23.78,62.43 -26.41,61.38z"/>
      <path class="fil1" d="M4693.69 3266.39c2.3,1.76 -80.66,114.43 -185.3,251.65 -104.68,137.24 -191.39,247.06 -193.7,245.28 -2.3,-1.76 80.64,-114.41 185.32,-251.67 104.64,-137.2 191.37,-247.04 193.68,-245.26z"/>
      <path class="fil1" d="M5236.71 3587.53c1.24,2.63 -173.26,86.23 -389.68,186.68 -216.5,100.47 -392.93,179.77 -394.17,177.12 -1.21,-2.65 173.24,-86.21 389.74,-186.7 216.42,-100.44 392.9,-179.75 394.11,-177.1z"/>
      <path class="fil1" d="M5155.81 4255.8c-0.26,2.89 -124.63,-6.72 -277.74,-21.49 -153.14,-14.77 -277.03,-29.08 -276.76,-31.99 0.28,-2.88 124.63,6.71 277.77,21.51 153.09,14.75 277.01,29.07 276.73,31.97z"/>
      <path class="fil11" d="M1965.3 4630.6l137.41 781.16c23.73,134.93 151.84,226.99 289.53,208 143.23,-19.74 241.92,-151.7 218.56,-292.28l-22.34 -134.45c0,0 192.23,-52.12 172.17,-245.11 -9.68,-93.04 -45.37,-282.88 -79.75,-454.51 -38.47,-192.12 -224.8,-319.45 -421,-287.96 -202.2,34.75 -335.43,227.03 -294.58,425.15z"/>
      <path class="fil19" d="M2588.77 5193.48c0,0 -122.51,23.88 -263.41,-42.58 0,0 76.47,131.9 269.68,92.44l-6.27 -49.86z"/>
      <path class="fil1" d="M2639.14 4623.64c2.2,14.47 -8.4,28.27 -23.72,30.82 -15.26,2.55 -29.46,-7.08 -31.69,-21.55 -2.21,-14.47 8.4,-28.29 23.67,-30.84 15.3,-2.55 29.51,7.1 31.74,21.57z"/>
      <path class="fil1" d="M2645.53 4576.96c-3.06,3.98 -26.02,-9.05 -56.09,-5.59 -30.08,3.06 -50.37,20.81 -54.05,17.55 -1.79,-1.44 0.99,-8.3 9.79,-16.29 8.66,-7.94 24.02,-16.43 42.74,-18.46 18.75,-2.02 35.29,2.98 45.16,8.91 10.06,5.94 13.95,12.08 12.45,13.88z"/>
      <path class="fil1" d="M2356.28 4657.76c2.2,14.47 -8.4,28.25 -23.72,30.8 -15.27,2.55 -29.48,-7.06 -31.69,-21.55 -2.22,-14.47 8.4,-28.27 23.68,-30.82 15.3,-2.57 29.5,7.08 31.73,21.57z"/>
      <path class="fil1" d="M2355 4615.91c-3.03,3.99 -26.04,-9.04 -56.07,-5.56 -30.07,3.05 -50.37,20.78 -54.05,17.5 -1.8,-1.42 0.95,-8.27 9.8,-16.25 8.64,-7.95 23.99,-16.45 42.73,-18.47 18.76,-2.03 35.3,2.97 45.17,8.9 10.04,5.95 13.94,12.1 12.42,13.88z"/>
      <path class="fil1" d="M2489.73 4841.04c-0.32,-1.68 17.99,-6.99 47.84,-14.21 7.59,-1.66 14.67,-3.99 15.36,-9.29 1.17,-5.68 -3,-13.48 -7.73,-21.85 -9.35,-17.49 -19.14,-35.8 -29.43,-55.01 -41.09,-78.43 -71.77,-143.26 -68.55,-144.89 3.21,-1.59 39.13,60.69 80.23,139.13 9.96,19.34 19.45,37.8 28.52,55.47 3.9,8.25 10.03,17.43 7.42,29.22 -1.39,5.88 -6.56,10.62 -11.33,12.48 -4.75,2.05 -9.04,2.61 -12.81,3.26 -30.31,5.06 -49.19,7.34 -49.52,5.69z"/>
      <path class="fil1" d="M2403.63 4871.51c4.88,-0.83 8.68,31.3 39.28,50.97 30.55,19.75 64.91,12.2 65.71,16.66 0.68,1.96 -7.03,7.12 -21.66,9.16 -14.34,2.13 -35.92,-0.06 -54.66,-12.06 -18.65,-12.08 -28.16,-29.93 -30.81,-42.98 -2.82,-13.32 -0.1,-21.69 2.14,-21.75z"/>
      <path class="fil1" d="M2349.24 4516.76c-2.03,8.39 -32.5,7.99 -67.29,16.17 -34.94,7.46 -62.22,20.86 -67.72,14.18 -2.49,-3.22 1.57,-11.35 12.18,-20.46 10.48,-9.08 27.82,-18.53 48.71,-23.25 20.92,-4.65 40.71,-3.56 54.14,0.14 13.57,3.68 20.8,9.27 19.98,13.22z"/>
      <path class="fil1" d="M2628.87 4510.3c-4.49,7.31 -26.02,2.69 -50.97,5.18 -25.03,1.62 -45.47,9.71 -51.15,3.22 -2.53,-3.16 0.01,-10.28 8.49,-17.69 8.32,-7.36 22.93,-14.28 40.09,-15.7 17.18,-1.42 32.72,3.01 42.19,8.93 9.62,5.91 13.32,12.5 11.35,16.06z"/>
      <path class="fil1" d="M2681.92 4163.48c-25.91,-19.6 -67.33,-18.67 -88.82,5.59 17.68,-24.98 7.32,-62.41 -17.18,-80.97 -24.51,-18.53 -58.67,-20.66 -88.53,-12.85 -29.89,7.82 -56.5,24.35 -82.6,40.62 2.99,-11.74 -3.77,-24.32 -13.72,-31.41 -9.96,-7.1 -22.51,-9.65 -34.73,-10.89 -50.35,-5.1 -101.12,9.54 -145.88,32.77 -44.78,23.22 -95.7,60.22 -135.03,91.56l0.14 0.04c-41,31.87 -82.03,74.98 -123.38,132l-1.51 1.36c-28.62,25.53 -52.68,102.33 -48.34,140.11 15.94,138.82 61.95,219.23 87.85,350.78 1.72,8.75 3.69,17.97 9.9,24.41 16.07,16.65 44.8,2.55 59.94,-14.91 36.79,-42.5 49.59,-100.53 51.38,-156.36 1.8,-55.82 -6.09,-111.57 -4.86,-167.42l0.1 -3.96c0.32,-13.58 1.56,-28.19 4.07,-42.64 2.45,-9 26.06,-88.75 102.78,-101.8 81.34,-13.88 241.83,65.11 321.38,52.51 79.54,-12.59 83.63,-68.67 83.63,-68.67l46.77 95.12c0,0 17.7,-55.82 7.5,-118.81 19.43,-19.18 34.49,-42.9 39.47,-69.41 5.95,-31.63 -4.41,-67.16 -30.33,-86.77z"/>
      <path class="fil11" d="M2041.74 4713.61c-3.51,-1.05 -139.01,-23.96 -119.38,107.31 19.63,131.29 149.41,84.79 149.06,80.98 -0.32,-3.78 -29.68,-188.29 -29.68,-188.29z"/>
      <path class="fil19" d="M2023.28 4858.07c-0.67,-0.32 -2.1,1.95 -5.74,4.29 -3.57,2.29 -9.98,4.41 -17.31,2.88 -14.85,-3.04 -30.01,-23.35 -34.18,-46.91 -2.14,-11.9 -1.29,-23.66 1.61,-33.69 2.62,-10.2 7.92,-17.83 14.82,-20.09 6.82,-2.64 12.47,0.8 14.66,4.26 2.32,3.42 1.88,6.18 2.61,6.3 0.42,0.28 2.53,-2.61 0.64,-7.9 -0.93,-2.53 -2.95,-5.38 -6.47,-7.47 -3.58,-2.08 -8.48,-2.7 -13.34,-1.47 -10.18,2.19 -18.02,12.87 -21.2,23.88 -3.75,11.15 -4.96,24.4 -2.57,37.76 4.81,26.32 22.25,49.07 42.33,51.76 9.75,1.05 17.14,-2.85 20.72,-6.54 3.64,-3.84 3.91,-6.87 3.42,-7.06z"/>
      <path class="fil6" d="M1742.34 5664.44c0,0 3.71,-2.06 11.54,-1.84 7.72,0.17 19.52,4.11 29.92,14.9 10.65,10.25 18.61,28.65 17.47,49.76 -0.43,21.14 -8.39,43.77 -15.39,68.09 -6.78,23.98 -11.52,53.18 4.57,77.93 14.42,25.03 43.76,44.29 55.8,79.22 11.51,33.72 1.97,77.08 -29.37,101.68 -15.15,12.27 -34.37,20.18 -54.66,21.25 -20.41,0.91 -39.77,-4.85 -58.55,-9.51 -18.7,-4.71 -37.57,-8.5 -54.46,-3.5 -17.02,4.66 -29.63,18.32 -40.3,32.82 -10.91,14.49 -20.51,30.5 -34.53,43.14 -13.67,12.91 -32.98,20.22 -51.1,18.78 -36.52,-2.5 -65.88,-26.26 -80.77,-53.62 -15.01,-27.62 -18.9,-56.86 -20.58,-82.54 -1.52,-25.88 -0.64,-49.14 -1.17,-69.41 -0.41,-20.27 -1.86,-37.7 -4.45,-51.66 -5.06,-28.09 -13.32,-42.05 -12.28,-42.5 0.24,-0.14 2.54,3.16 5.78,10.06 3.28,6.86 7.35,17.47 10.52,31.63 3.27,14.12 5.33,31.79 6.32,52.27 1.09,20.46 0.74,43.73 2.72,69.08 2.09,25.18 6.41,53.24 20.78,78.82 13.77,24.93 41.55,46.36 73.56,48.16 15.93,1.03 31.7,-5.02 43.91,-16.51 12.48,-11.31 21.84,-26.81 33,-41.87 10.84,-14.83 25.11,-30.98 45.65,-36.71 20.3,-5.94 41.07,-1.35 59.95,3.32 19.05,4.8 37.51,10.08 55.48,9.27 17.87,-0.89 35.14,-7.91 48.69,-18.8 27.89,-21.63 36.68,-60.26 26.62,-90.63 -9.92,-30.93 -38.33,-50.6 -54.07,-77.79 -8.17,-13.5 -12.07,-29.28 -11.54,-43.87 0.35,-14.63 3.7,-28.13 7.31,-40.56 7.64,-24.72 15.73,-46.35 16.67,-66.3 1.55,-19.92 -5.06,-36.53 -14.59,-46.73 -9.26,-10.42 -19.9,-14.73 -27.1,-15.54 -7.31,-0.89 -11.26,0.28 -11.35,-0.29z"/>
      <path class="fil6" d="M1798.08 7080.72c0.62,-0.16 1.29,4.84 6.04,12.5 4.71,7.52 14.85,17.39 31.43,21.84 16.15,4.68 39,3.56 57.73,-12.18 18.95,-14.94 32.56,-40.78 38.72,-70.7 6.45,-30.17 5.32,-64.61 11.1,-101.65 3.06,-18.5 8.59,-37.55 18.68,-55.28 9.88,-17.63 25.89,-33.86 46.49,-41.65 20.41,-8.34 43.28,-8.41 65.02,-5.94 21.93,2.41 43.58,7.34 65.6,10.15 22.01,3.1 44.35,3.2 66,-3.15 21.62,-6.11 42.07,-17.45 59.17,-32.88 17,-15.58 29.87,-35.12 36.37,-56.44 6.33,-21.36 5.68,-43.99 -1.19,-64.52 -13.2,-40.95 -48.47,-74.06 -87.95,-78.27 -39.7,-4.47 -77,15.14 -115.18,15.93 -19.16,0.78 -37.78,-4.2 -53.4,-12.04 -15.79,-7.75 -29.33,-17.53 -41.93,-26.89 -24.85,-19.01 -47.61,-35.86 -70.87,-43.33 -23.12,-8.17 -44.97,-4.54 -59.78,3.93 -15.07,8.18 -23.01,19.82 -25.94,28.2 -3.03,8.5 -2.61,13.54 -3.22,13.48 0,0 -1.28,-4.98 1.2,-14.14 2.41,-9.03 10.26,-21.89 25.93,-31.11 7.75,-4.55 17.27,-8.27 28.23,-9.71 11.05,-1.35 23.12,0.08 35.34,3.75 24.69,7.3 48.55,24.44 73.52,42.92 24.83,17.9 54.58,38.28 90.62,36.19 17.78,-0.6 36.04,-5.56 55.16,-10.15 19.04,-4.49 39.68,-9.34 61.43,-6.66 44.08,4.62 82.2,40.43 96.65,84.69 7.55,22.19 8.38,47.35 1.42,70.74 -7.07,23.33 -21.05,44.48 -39.3,61.21 -18.36,16.58 -40.23,28.68 -63.42,35.17 -23.19,6.82 -47.76,6.58 -70.2,3.32 -22.64,-2.99 -44.23,-7.97 -65.4,-10.38 -21.05,-2.51 -42.09,-2.39 -60.3,4.98 -18.44,6.84 -32.67,20.96 -42.06,37.25 -9.48,16.31 -14.97,34.38 -18.08,52.11 -6,35.7 -5.32,70.54 -12.43,101.73 -6.88,31.08 -21.61,58.11 -42.37,73.79 -20.49,16.5 -45.83,17.12 -62.52,11.45 -17.44,-5.36 -27.76,-16.44 -32.1,-24.68 -4.38,-8.44 -4.21,-13.58 -4.21,-13.58z"/>
      <path class="fil6" d="M2485.44 5854.7c0,0 3.24,-7.65 14.05,-18.9 10.72,-10.88 30.19,-25.53 59.87,-30.42 29.02,-5.34 69.47,4.98 96.75,38.52 13.81,16.26 22.46,38.87 24.41,62.61 2.97,23.2 2,49.33 15.32,70.4 6.57,10.4 17.31,17.8 29.58,21.95 12.36,4.17 26.09,5.53 40.14,6.23 14.11,0.73 28.72,0.65 43.79,2.21 14.86,1.62 31.19,4.96 44.34,15.58 6.7,5.02 11.62,12.18 15.45,19.75 3.33,7.89 4.71,16.65 4.04,25.26 -1.62,17.23 -10.18,32.8 -21.06,45.71 -10.93,13.01 -24.69,23.93 -40.25,31.79 -15.28,7.77 -31.25,14 -46.75,21.19 -15.48,7.07 -30.67,15.19 -43.16,26.54 -12.55,11.27 -21.15,26.33 -25.26,43.09 -8.31,34.09 -0.65,70.84 -2.49,109.43 -1.59,19.2 -5.68,38.79 -15.38,56.58 -9.26,17.65 -26.77,33.33 -48.17,36.14 -21.43,3.5 -42.52,-6.13 -58,-19.17 -15.83,-13.17 -28.29,-29.58 -38.65,-47.08 -10.14,-17.28 -19.59,-34.52 -31.26,-49.72 -11.52,-15.1 -25.8,-28.09 -43.07,-33.53 -17.2,-5.83 -35.95,-3.32 -52.99,3.38 -17.2,6.62 -33.19,16.63 -49.26,26.33 -16.08,9.69 -32.23,19.74 -50.32,26.2 -17.93,6.63 -36.92,9.51 -55.55,9.19 -37.42,-0.53 -73.03,-14.23 -101.34,-35.56 -28.35,-21.3 -48.95,-52.25 -55.53,-85.61 -6.71,-32.7 -0.38,-69.74 24.16,-92.36 11.92,-11.27 26.96,-17.73 41.61,-21.55 14.73,-3.89 29.36,-5.65 43.47,-7.55 28.02,-3.46 55.12,-8.82 74.52,-25.23 19.49,-16.15 30.99,-38.67 39.69,-60.02 8.57,-21.61 14.38,-43.15 21.75,-62.67 7.2,-19.61 15.96,-37.46 27.32,-51.67 11.45,-14.08 23.87,-24.78 35.35,-34.01 23.17,-17.99 44.62,-28.39 60.51,-29.32 16.26,-1.54 22.62,6.94 22.37,6.29 -0.28,1.12 -6.8,-6.37 -22.17,-4.19 -15.08,1.54 -35.72,12.22 -58.14,30.42 -11.07,9.26 -23.19,20.19 -33.98,33.89 -10.64,13.85 -18.88,31.2 -25.74,50.59 -7,19.37 -12.5,40.88 -21.04,63.12 -8.71,21.91 -20.24,45.57 -41.14,63.29 -21.07,18.11 -50.25,23.9 -78.21,27.57 -27.7,4.12 -58.71,7.1 -80.2,27.41 -21.49,19.9 -27.48,53.59 -21.04,84.16 6.25,30.88 25.51,59.74 52.33,79.73 26.71,19.97 60.52,32.87 95.63,33.21 17.49,0.24 35.19,-2.51 51.84,-8.68 16.74,-5.97 32.48,-15.79 48.49,-25.48 16.05,-9.69 32.36,-20.03 50.89,-27.21 18.2,-7.27 40.03,-10.4 59.94,-3.67 20.12,6.38 36.02,21.17 48.18,37.11 12.35,16.07 21.98,33.72 32.02,50.8 9.87,16.69 21.79,32.29 36.26,44.31 14.28,11.98 32.19,19.79 49.74,16.9 17.68,-2.37 32.11,-14.94 40.59,-30.78 8.74,-15.86 12.71,-34.26 14.23,-52.33 2,-36.22 -5.95,-74.08 3.01,-111.1 4.5,-18.31 14.43,-35.61 28.35,-47.95 13.82,-12.47 29.97,-20.88 45.79,-28.09 15.89,-7.24 31.75,-13.38 46.51,-20.82 14.5,-7.22 27.29,-17.32 37.47,-29.3 10.12,-11.84 17.75,-25.99 19.15,-40.49 0.56,-7.25 -0.53,-14.37 -3.2,-20.93 -3.18,-6.23 -7.21,-12.34 -12.83,-16.53 -10.85,-8.96 -25.48,-12.37 -39.75,-13.96 -14.4,-1.6 -28.93,-1.64 -43.28,-2.49 -14.32,-0.85 -28.71,-2.29 -42.27,-6.98 -13.46,-4.6 -25.94,-13.34 -33.27,-25.24 -14.75,-24.3 -12.89,-51.01 -15.76,-73.75 -1.7,-23.24 -9.43,-43.86 -22.3,-59.64 -25.5,-32.14 -63.6,-42.66 -91.59,-38.17 -28.65,4.07 -48.02,17.69 -58.99,27.89 -11.07,10.52 -15.01,17.75 -15.52,17.38z"/>
      <path class="fil6" d="M2144.85 5513.1c0.85,0.49 -12.78,14.51 -41.96,20.6 -14.39,2.94 -32.2,3.97 -51.52,0.38 -18.86,-3.96 -40.9,-12.32 -55.25,-31.7 -13.72,-19.27 -18.13,-41.06 -19.91,-60.25 -1.68,-19.38 0.32,-36.9 3.65,-51.15 6.47,-29 20.94,-42.44 21.51,-41.42 1.51,1.03 -9.92,15.07 -14.21,42.92 -2.24,13.69 -3.4,30.45 -1.28,48.7 2.11,18.05 6.86,38.41 18.7,54.9 11.92,16.32 31.41,24.39 48.77,28.49 17.75,3.81 34.52,3.67 48.24,1.79 27.79,-3.85 42.26,-14.96 43.26,-13.26z"/>
      <path class="fil6" d="M3016.08 5461.4c0.33,0.14 -0.16,2.02 -1.43,5.58 -1.19,3.61 -3.72,8.66 -7.96,14.53 -8.19,11.68 -24.77,26.76 -50.3,33.55 -12.63,3.3 -27.42,4.36 -42.74,0.96 -15.56,-3.26 -29.86,-12.96 -43.02,-23.01 -13.33,-9.86 -26.77,-21.58 -42.66,-26.11 -15.8,-4.83 -33.2,2.03 -43.12,17.09 -10.5,14.7 -16.41,32.78 -24.91,49.27 -8.05,16.91 -21.03,31.44 -35.72,40.75 -29.5,19.39 -64.61,19.94 -88.59,9.65 -24.46,-9.95 -39.07,-26.65 -46.46,-38.79 -7.53,-12.34 -8.76,-20.43 -8.3,-20.54 0.9,-0.36 3.47,7.14 11.7,18.26 8.05,10.96 22.77,25.77 45.72,34.09 22.44,8.6 54.02,7.25 80.59,-10.76 13.28,-8.89 24.35,-21.41 31.85,-37.32 8.04,-15.72 13.72,-33.99 25.58,-50.81 5.97,-8.24 14.02,-15.88 24.02,-19.65 9.82,-3.8 20.85,-3.98 30.41,-1.17 19.29,5.85 32.67,18.47 45.8,28.35 13.03,10.24 25.54,18.98 39.2,22.19 13.6,3.39 27.11,2.92 38.89,0.31 23.84,-5.36 40.1,-18.49 48.85,-28.85 8.86,-10.51 11.65,-17.99 12.6,-17.57z"/>
      <path class="fil6" d="M3160.27 6255.92c-0.41,0.54 -8.57,-4.42 -22.45,-14.65 -13.8,-10.35 -33.51,-25.81 -55.22,-48 -10.78,-11.15 -22.04,-24.08 -32.09,-39.65 -9.94,-15.7 -17.61,-34.72 -20.16,-55.67 -2.61,-20.76 -0.77,-44.05 10.26,-64.97 5.42,-10.38 13.38,-19.87 22.89,-27.28 9.41,-7.51 19.85,-13.13 29.87,-19.02 9.97,-5.87 19.56,-11.8 26.93,-19.43 7.47,-7.48 12.55,-16.75 15.5,-26.69 5.87,-20.07 4.35,-41.38 2.02,-61.19 -2.53,-20.01 -5.36,-39.56 -4.16,-58.26 1.33,-18.21 5.94,-37.09 18.77,-48.38 24.42,-21.27 50.7,-27.18 68.18,-27.38 18.43,-0.13 25.76,9.43 25.03,9.39 -0.51,0.91 -7.87,-6.66 -24.91,-5.31 -16.19,1.24 -41.55,8.52 -63.07,28.6 -10.57,9.69 -14.29,26.28 -15.28,43.55 -0.75,17.48 2.24,36.36 5.05,56.56 2.61,20.25 4.7,42.61 -1.73,65.35 -3.22,11.26 -9.21,22.37 -17.89,31.09 -8.56,8.86 -18.96,15.19 -29.12,21.2 -20.61,11.46 -39.52,23.07 -48.95,42.05 -9.9,18.4 -11.94,39.66 -9.75,58.95 4,39.64 27.92,69.04 48.04,91.39 41.8,44.43 73.57,66.13 72.24,67.75z"/>
      <path class="fil6" d="M2737.1 6657.37c0.01,-0.36 3.27,-0.56 9.47,-0.63 6.19,0.07 15.34,0.31 27.07,1.56 23.25,2.61 57.87,8.05 95.83,27.93 37.36,19.26 78.08,58.05 90.73,114.83 6.15,27.77 3.59,60.27 -12.61,87.65 -15.72,27.03 -42.76,49.76 -76.07,56.86 -16.51,3.47 -34.2,1.41 -49.11,-2.69 -15.08,-3.87 -29.22,-6.09 -42.17,-0.75 -12.93,4.87 -23.86,14.46 -32.68,25.19 -8.93,10.7 -15.68,22.93 -22.57,34.98 -13.13,23.99 -28.95,48.39 -52.71,60.26 -23.07,11.93 -48.4,13.53 -69.51,8.18 -21.35,-5.17 -37.9,-17.99 -48.3,-31.48 -10.67,-13.56 -16.03,-27.67 -18.58,-39.32 -2.57,-11.71 -2.29,-21.14 -1.5,-27.31 0.77,-6.22 1.85,-9.33 2.11,-9.28 1.3,0.02 -2.49,13.24 3.38,35.62 3.01,11.03 8.7,24.18 19.14,36.56 10.24,12.37 25.76,23.66 45.51,27.99 19.51,4.46 42.88,2.49 63.62,-8.7 21.15,-10.93 35.37,-33.03 48.37,-57.27 13.07,-23.67 28.97,-52.46 60.08,-65.09 15.53,-6.54 33.48,-3.65 48.22,0.21 15.09,4.04 29.62,5.53 44.6,2.58 29.68,-6.3 54.75,-27 69.24,-51.74 14.89,-24.92 17.46,-54.34 12.04,-80.46 -11.31,-53.2 -49.17,-90.9 -84.78,-110.29 -36.21,-20.03 -70,-26.59 -92.81,-30.39 -23.04,-3.62 -36.05,-4.09 -36.01,-5z"/>
      <path class="fil6" d="M2358.24 7325.77c-2.12,0.45 -1.86,-18.92 -19,-41.72 -8.32,-11.28 -21.14,-22.69 -37.82,-30.58 -16.53,-7.89 -37.37,-11.47 -57.61,-6.29 -20.11,5.64 -36.36,19.19 -46.73,34.32 -10.48,15.16 -15.86,31.47 -17.42,45.39 -3.4,28.33 6.52,44.96 4.45,45.61 -0.5,0.3 -3.35,-3.42 -6.61,-11.15 -3.32,-7.69 -6.05,-19.93 -5.27,-35.13 0.71,-15.14 5.75,-33.17 16.82,-50.14 10.87,-16.92 28.9,-32.6 52.03,-39.08 23.27,-5.97 46.7,-1.41 64.59,7.77 18.09,9.15 31.46,22.22 39.68,34.99 8.28,12.74 12.04,24.7 13.03,33.02 1.06,8.34 0.45,12.97 -0.14,12.99z"/>
      <path class="fil6" d="M2423.12 7620.21c-1.02,0.2 -1.87,-9.51 -9.11,-24.86 -7.06,-14.97 -21.67,-36.42 -48.5,-49.81 -26.05,-13.62 -65.95,-14.23 -98.67,7.45 -16.62,10.37 -27.99,27.78 -40.86,46.13 -6.61,9.01 -13.51,18.52 -23.11,26.31 -9.34,7.97 -22.11,13.31 -35.29,13.09 -27.03,-1.19 -46.38,-19.69 -60.73,-36.49 -14.33,-17.21 -26.49,-34.7 -42.86,-44.82 -16.1,-10.3 -35.47,-12.08 -52.43,-9.43 -17.12,2.73 -32.25,9.77 -44.29,18.45 -24.3,17.71 -37.72,39.35 -46.69,53.65 -8.79,14.65 -13.06,23.21 -13.81,22.87 -0.57,-0.26 2.42,-9.37 10.24,-24.87 8.03,-15.14 20.63,-38 45.83,-57.61 12.56,-9.69 28.65,-17.73 47.29,-21.08 18.39,-3.31 40.23,-1.81 58.96,9.76 18.78,11.38 31.63,29.93 45.66,46.4 13.6,16.08 31.77,31.98 53.01,32.63 21.64,0.62 37.48,-17.47 49.86,-34.91 12.51,-17.59 25.3,-36.91 43.87,-48.18 36.23,-23.33 79.63,-21.59 107.42,-5.97 28.43,15.34 42.67,38.73 48.86,54.82 3.28,8.18 4.48,14.93 5.21,19.45 0.44,4.56 0.5,6.98 0.14,7.02z"/>
      <path class="fil6" d="M2578.33 6886.04c-1.22,1.9 -19.83,-16.14 -58.2,-25.62 -18.94,-4.76 -42.49,-7.17 -68.1,-3.67 -25.41,3.2 -53.24,12.23 -76.83,29.91 -23.92,17.32 -39.95,41.79 -48.59,65.77 -8.51,24.14 -9.93,47.89 -7.34,67.12 5.52,39.08 23.68,58.36 21.49,59.49 -0.41,0.37 -5.04,-3.97 -11.35,-13.45 -6.5,-9.34 -13.62,-24.67 -17.49,-44.89 -3.72,-20.17 -3.08,-45.48 5.53,-71.47 8.66,-25.76 25.72,-52.37 51.47,-71.05 25.44,-19 55.13,-28.23 81.96,-31.08 27.01,-3.11 51.68,0.22 71.21,6.11 19.59,5.95 34.28,14 43.35,20.87 9.08,6.81 13.27,11.55 12.89,11.96z"/>
     </g>
     <g>
      <path class="fil3" d="M7310.59 5072.81c2.94,-3.58 174.37,130.9 382.84,300.33 208.57,169.52 375.23,309.79 372.32,313.37 -2.94,3.61 -174.29,-130.86 -382.88,-300.37 -208.49,-169.44 -375.17,-309.73 -372.28,-313.33z"/>
      <path class="fil7" d="M7511.41 6624.64c-82.56,-51.84 -177.16,-84.4 -274.16,-94.36 -44.75,-4.59 -93.71,-3.29 -129.67,23.84 -7.6,5.77 -15.05,14.29 -13.33,23.68 1.25,6.92 7.1,11.96 12.67,16.21 111.56,85.09 280.28,95.83 404.49,30.63z"/>
      <path class="fil7" d="M7504.39 6616.89c-62.09,-48.44 -124.49,-97.19 -177.07,-155.79 -52.57,-58.58 -95.3,-128.16 -111.03,-205.29 -4.75,-23.4 -6.21,-50.14 8.79,-68.72 141.12,110.26 252.01,252.8 279.31,429.8z"/>
      <path class="fil7" d="M7509.95 6623.59c-10.62,-77.22 -14.44,-156.58 3.28,-232.49 17.73,-75.9 59.01,-148.51 123.82,-191.81 24.39,56.99 13.93,122.67 -3.28,182.26 -26.53,92.05 -68.19,179.75 -122.77,258.49l-1.05 -16.45z"/>
      <path class="fil7" d="M7648.3 6871.5c-83.97,10.2 -157.13,54.47 -219.84,111.28 -62.71,56.78 -107.29,133.31 -125.76,215.87 82.38,-5.08 152.27,-63.18 202.96,-128.34 50.69,-65.13 85.8,-136.61 141.49,-197.54l1.15 -1.27z"/>
      <path class="fil7" d="M7678.35 6911.16c-67.65,-166.66 -43.14,-367.46 62.61,-512.92 47.86,170.21 30.3,362.47 -62.61,512.92z"/>
      <path class="fil7" d="M7861.16 7128.82c-76.21,-4.72 -153.71,13.43 -219.9,51.52 -66.17,38.1 -120.79,95.99 -154.98,164.29 -4.66,9.29 -8.76,21.09 -2.53,29.4 5.4,7.23 15.84,7.9 24.87,7.3 73.86,-4.77 139.34,-49.22 193.39,-99.86 54.03,-50.61 101.1,-109.09 160.81,-152.85l-1.66 0.2z"/>
      <path class="fil7" d="M7855.34 7116.96c-39.32,-125.79 -41.77,-262.9 -6.97,-390.03 13.72,-50.2 36.81,-103.06 83.23,-126.61 3.97,-2 8.59,-3.78 12.73,-2.22 3.95,1.47 6.24,5.52 8.06,9.32 16.53,34.51 21.32,73.66 19.62,111.89 -1.69,38.22 -9.63,75.86 -17.52,113.29 -14.63,69.23 -22.42,143.62 -60.38,203.36 -9.03,14.16 -16.96,29.48 -24.15,44.66 -7.18,15.17 -7.24,20.49 -13.84,32.57l-0.78 3.77z"/>
      <path class="fil7" d="M8339.23 7189.08c-35.83,-136.37 2.23,-301.72 88.15,-413.52 6.31,-8.21 14.71,-17.04 25.05,-16.08 15.83,1.47 19.95,22.56 19.22,38.42 -6.21,139.37 -52.69,276.71 -132.42,391.18z"/>
      <path class="fil7" d="M8382.88 7218.91c165.67,43.1 355.77,1.19 493.55,-100.39 -81.67,-41.41 -177.93,-53.2 -267.19,-32.79 -89.24,20.4 -170.81,60.39 -226.36,133.18z"/>
      <path class="fil7" d="M8419.67 7128.09c92.8,-151.29 270.69,-250.03 447.93,-259.02 -20.41,72.1 -79.66,128.13 -146.5,161.99 -66.84,33.85 -141.47,48.6 -215.02,62.89 -28.62,5.54 -67.87,11.65 -86.41,34.14z"/>
      <path class="fil7" d="M8348.46 6687.48c25.13,-86.09 50.41,-172.92 57.31,-262.34 6.88,-89.4 -5.87,-182.75 -52.25,-259.48 -86.69,167.71 -95.45,363.67 -7.65,530.82l2.59 -9z"/>
      <path class="fil7" d="M8640.28 6540c101.36,-184.25 308.17,-331.38 517.43,-352.02 -80.73,201 -300.87,356.33 -517.43,352.02z"/>
      <path class="fil7" d="M8576.51 6576.08c151.19,23.05 279.97,119.59 421.23,178.11 30.23,12.53 62.82,22.48 95.23,18.24 32.44,-4.25 64.43,-26.01 71.7,-57.88 6.02,-26.49 -6.02,-54.6 -25.01,-74 -19.01,-19.39 -44.12,-31.51 -69.19,-41.95 -153.85,-64.07 -318.87,-65.67 -480.94,-26.81l-13.02 4.29z"/>
      <path class="fil7" d="M8489.04 6682.11c34.21,9.82 45.91,27.52 73.01,50.59 91.95,78.31 202.21,134.98 319.42,164.11 12.22,3.02 28.23,4.23 34.28,-6.79 5.26,-9.64 -1.42,-21.29 -8.28,-29.87 -49.09,-61.44 -119.14,-103.47 -192.86,-130.93 -73.7,-27.46 -137.59,-60.54 -225.57,-53.44l0 6.33z"/>
      <path class="fil7" d="M8390.33 6041.76c122.91,114.73 296.07,173.64 463.46,157.67 7.6,-0.7 15.9,-1.94 21.1,-7.57 11.66,-12.68 -2.32,-32.27 -15.92,-42.88 -136.27,-106.24 -301.33,-150.27 -468.64,-107.22z"/>
      <path class="fil7" d="M8507.37 5998.91c162.47,-121.81 385.31,-158.58 578.32,-95.41 -72.83,71.78 -173.89,110.39 -275.6,120.97 -101.7,10.6 -203.55,-0.68 -302.72,-25.56z"/>
      <path class="fil7" d="M8460.85 5704.65c-13.4,-136.01 -4.7,-243.38 -14.14,-380.01 -0.76,-10.93 -3.1,-24.04 -13.32,-27.99 -14.21,-5.46 -26.06,12 -30.74,26.52 -40.49,125.96 -18.35,270.42 57.98,378.48l0.22 3z"/>
      <path class="fil7" d="M8451.05 5719.69c92.18,-57.03 161.34,-131.46 225.31,-218.98 44.5,-60.89 81.99,-133.84 71.88,-208.55 -62.49,-1.27 -121.86,33.21 -162.5,80.7 -40.65,47.48 -64.81,106.83 -82.86,166.67 -18.03,59.83 -30.66,121.33 -51.83,180.16z"/>
      <path class="fil7" d="M8672.39 5658.19c202.32,-74.83 391.06,-186.13 554.46,-326.95 -66.23,-26.67 -142.05,-10.71 -208.27,16.02 -151.28,61.08 -274.88,164.16 -349.06,309.43l2.87 1.5z"/>
      <path class="fil7" d="M8513.3 5794.07c102.35,11.19 206.3,18.49 307.87,1.52 99.8,-16.7 194.14,-56.26 287.4,-95.49 7.73,-3.26 16.15,-7.17 19.53,-14.84 3.66,-8.34 -0.24,-18.5 -7,-24.58 -6.76,-6.12 -15.75,-9.05 -24.5,-11.5 -101.41,-28.37 -210.84,-15.09 -310.6,18.56 -99.77,33.63 -181.58,73.62 -272.7,126.33z"/>
      <path class="fil7" d="M7928.87 6046.39c-69.83,-140.96 -65.28,-305.44 -4.98,-450.71 42.48,64.69 47.66,147.09 39.89,224.09 -7.77,77.02 -31.21,156.26 -32.7,233.64l-2.21 -7.02z"/>
      <path class="fil7" d="M7649.9 5905.69c-174.33,-3.32 -348.72,70.97 -467.12,199 87.02,13.68 176.64,-8.78 255.8,-47.42 79.14,-38.65 149.46,-92.88 219.19,-146.72l-7.87 -4.86z"/>
      <path class="fil7" d="M7462.36 5842.96c-85.28,-6.9 -167.35,-17.47 -249.36,7.67 -82.02,25.13 -156.63,82.17 -190.06,161.16 79.77,9 160.65,-11.01 233.77,-44.14 73.12,-33.15 139.62,-79.04 205.65,-124.69z"/>
      <path class="fil7" d="M7740.05 5845.85c-76.73,-50.28 -155.51,-101.48 -244.87,-122.3 -89.34,-20.83 -192.87,-5.42 -255.15,61.9 72.3,42.44 160.04,47.45 243.92,47.37 83.84,-0.04 186.63,-0.99 265.69,26.98l-9.59 -13.95z"/>
      <path class="fil7" d="M7740.52 5849.9c-131.19,-128.8 -180.91,-360.2 -128.14,-536.31 103.1,156.67 149.26,349.96 128.14,536.31z"/>
      <path class="fil7" d="M8101.2 5484.95c24.73,-57.53 42.15,-117.87 64.33,-176.43 22.2,-58.53 49.78,-116.14 91.73,-162.64 41.93,-46.48 99.92,-81.09 162.45,-84.18 -39.16,177.24 -156.87,335.59 -315.29,424.16l-3.22 -0.91z"/>
      <path class="fil7" d="M8035.92 5561c-40.91,-56.36 -88.23,-132.85 -143.73,-174.92 -55.53,-42.05 -127.83,-67.51 -195.57,-51.36 68.91,123.19 199.09,210 339.3,226.28z"/>
      <path class="fil7" d="M8048.99 5489.64c-26.83,-68.21 -53.86,-137.11 -64.73,-209.58 -10.85,-72.46 -4.25,-149.86 32.82,-213.08 72,136.11 95.21,282.23 35.57,424.2l-3.66 -1.54z"/>
      <path class="fil7" d="M8101.87 5066.98c40.77,-134.93 164.33,-234.27 297.73,-279.86 16.79,-5.75 34.62,-10.54 52.18,-7.83 17.57,2.71 34.79,14.73 38.47,32.11 4.88,22.95 -14.08,43.53 -31.93,58.77 -103.87,88.81 -225.97,156.22 -356.45,196.81z"/>
      <path class="fil7" d="M8103.33 4956.63c5.19,-86.99 10.62,-175.23 38.91,-257.68 28.31,-82.44 82.84,-159.76 162.17,-195.84 13.49,87.86 -25.26,175.28 -72.02,250.9 -46.75,75.6 -103.13,146.98 -131.19,231.32l2.13 -28.7z"/>
      <path class="fil7" d="M8101.2 5016.51c-33.71,-98.32 -37.2,-223.24 -96.08,-308.9 -41.16,-59.87 -107.07,-100.69 -142.54,-164.11 -23.56,59.25 -16.35,127.5 8.3,186.31 24.64,58.79 65.34,109.39 108.92,155.94 43.57,46.54 80.89,81.55 121.4,130.76z"/>
      <path class="fil1" d="M8101.87 7912.4c-2.63,0 -4.9,-655.98 -5.08,-1464.98 -0.19,-809.32 1.8,-1465.17 4.41,-1465.17 2.63,0 4.9,655.85 5.08,1465.15 0.18,809.02 -1.8,1465 -4.41,1465z"/>
      <path class="fil1" d="M8675.11 5947.41c0.2,0.63 -8.61,3.89 -24.67,9.27 -17.71,5.98 -40.51,13.64 -67.85,22.87 -57.25,19.51 -135.87,47.76 -221.2,82.7 -84.51,36.25 -164.17,65.69 -209.54,105.01 -22.67,19.4 -35.7,40.41 -42.11,55.71 -6.52,15.4 -7.67,24.8 -8.54,24.66 -0.32,-0.06 -0.23,-2.43 0.26,-6.88 0.77,-4.43 1.91,-11.03 4.84,-19.14 5.52,-16.15 18.17,-38.61 41.1,-59.37 22.8,-20.81 54.54,-39.46 90.92,-56.48 36.36,-16.98 76.67,-34.69 119.47,-52.25 85.6,-35.09 164.82,-62.4 222.69,-80.31 28.94,-9.03 52.54,-15.67 68.92,-20.06 16.37,-4.29 25.52,-6.37 25.71,-5.73z"/>
      <path class="fil1" d="M8863.02 5485.86c0.21,0.26 -2.17,2.79 -6.93,7.39 -5.58,5.23 -12.54,11.77 -21.04,19.76 -19.53,17.77 -46.16,41.93 -78.58,71.38 -67.85,60.42 -159.88,142.36 -261.55,232.89 -102.1,90.88 -190.33,177.73 -251.48,243.11 -30.62,32.64 -54.72,59.7 -71.19,78.58 -7.65,8.76 -13.94,15.94 -19,21.71 -4.4,4.92 -6.85,7.41 -7.11,7.18 -0.24,-0.2 1.68,-3.07 5.63,-8.39 3.98,-5.29 9.75,-13.12 17.66,-22.87 15.61,-19.65 39.02,-47.45 69.09,-80.76 60.04,-66.72 147.8,-154.58 250.07,-245.64 102.48,-90.66 195.7,-172.1 263.45,-230.83 33.25,-28.52 60.53,-51.92 80.56,-69.13 9,-7.44 16.35,-13.53 22.24,-18.43 5.16,-4.13 7.95,-6.19 8.18,-5.95z"/>
      <path class="fil1" d="M8384.7 5909.69c-2.67,-1.19 18.64,-50.44 39.91,-112.7 21.45,-62.27 31.54,-114.84 34.27,-114.4 2.48,0.24 -3.58,54.33 -25.29,117.41 -10.71,31.51 -22.48,59.19 -31.77,78.86 -9.29,19.67 -15.96,31.36 -17.12,30.83z"/>
      <path class="fil1" d="M8102.45 6306.74c-0.52,0.39 -6.11,-6.13 -15.72,-18.25 -10.69,-13.7 -24.18,-31.02 -40.31,-51.71 -33.85,-43.75 -80.68,-104.15 -133.11,-170.25 -52.51,-66.12 -100.71,-125.43 -135.66,-168.33 -16.47,-20.39 -30.27,-37.49 -41.18,-50.99 -9.61,-12.13 -14.71,-19.03 -14.21,-19.45 0.51,-0.42 6.52,5.67 17.02,17.06 10.51,11.39 25.38,28.15 43.51,49.07 36.28,41.83 85.37,100.53 137.95,166.73 52.51,66.2 98.52,127.32 131.02,172.16 16.27,22.42 29.22,40.69 37.93,53.52 8.71,12.79 13.31,20.06 12.76,20.44z"/>
      <path class="fil1" d="M7976.75 6145.38c-1.54,1.66 -35.07,-38.12 -52.63,-98.56 -12.98,-42.62 -13.54,-81.59 -11.96,-99.41l4.19 0.33c-1.89,7.61 -3.24,11.59 -3.99,11.49 -0.75,-0.12 -0.79,-4.35 -0.16,-12.16l4.19 0.34c1.52,17.69 4.21,55.29 16.81,96.69 16.96,58.56 46.1,99.68 43.55,101.28z"/>
      <path class="fil1" d="M7814.5 5941.27c-1.23,1.29 -12.02,-12.31 -36.79,-21.38 -24.52,-9.51 -61.51,-11.59 -102.07,-8.11 -40.57,2.97 -76.83,10.22 -102.77,16.59 -25.97,6.44 -41.81,11.48 -42.3,10.14 -0.44,-1.11 14.66,-8.42 40.5,-16.59 25.77,-8.14 62.52,-16.57 103.87,-19.59 41.01,-3.56 79.92,-0.39 105.28,11.35 25.76,11.39 35.13,27.34 34.28,27.59z"/>
      <path class="fil1" d="M7776.01 5891.79c-0.71,1.48 -21.39,-8.59 -56.31,-20.52 -34.83,-11.98 -84.49,-24.57 -140.52,-28.92 -56.1,-4.19 -107.07,0.71 -143.33,7.29 -36.3,6.49 -58.28,13.29 -58.77,11.73 -0.22,-0.62 5.1,-2.85 14.92,-6.37 9.77,-3.64 24.32,-7.83 42.54,-11.94 36.36,-8.36 88.26,-14.45 145.35,-10.18 57.04,4.45 107.43,18.33 142.09,32.1 17.38,6.83 31.15,13.17 40.25,18.25 9.19,4.95 14.09,7.97 13.78,8.56z"/>
      <path class="fil1" d="M8101.2 5682.59c-2.53,0.65 -20.92,-63.23 -41.08,-142.68 -20.16,-79.47 -34.44,-144.38 -31.89,-145.03 2.53,-0.65 20.92,63.23 41.1,142.7 20.13,79.43 34.42,144.36 31.87,145.01z"/>
      <path class="fil1" d="M8103.83 5682.59c-2.83,0.93 -14.67,-41.79 -45.53,-85.43 -30.07,-44.56 -68.42,-66.94 -67.02,-69.15 0.51,-0.99 11.09,2.89 25.84,13.33 14.83,10.31 33.12,27.79 48.91,50.37 32.05,45.45 40.09,90.72 37.8,90.88z"/>
      <path class="fil1" d="M8101.87 7562.71c-1.03,0.16 -2.98,-15.76 -10.37,-43.61 -7.3,-27.86 -21.06,-67.39 -43.83,-113.6 -45.32,-92.6 -127.78,-210.05 -232.58,-327.66 -51.91,-59.33 -102.31,-115.28 -145.05,-168.88 -42.84,-53.49 -78.03,-104.5 -103.75,-149.59 -25.76,-45.08 -42.56,-83.75 -52.35,-111.03 -4.82,-13.68 -8.36,-24.36 -10.3,-31.75 -2.07,-7.34 -3,-11.25 -2.67,-11.35 0.85,-0.24 5.61,15.03 16.41,41.76 10.79,26.74 28.39,64.68 54.7,108.98 26.26,44.33 61.76,94.56 104.75,147.51 42.93,53.04 93.37,108.69 145.42,168.12 105.06,117.91 187.32,236.84 231.46,331 22.2,46.98 35.13,87.23 41.38,115.6 3.03,14.21 5.1,25.28 5.8,32.91 0.96,7.56 1.3,11.55 0.98,11.59z"/>
      <path class="fil1" d="M8619.88 6977.61c0.3,0.69 -9.61,5.71 -27.16,15.24 -17.42,9.78 -42.1,24.85 -70.42,46.55 -28.31,21.69 -59.97,50.14 -92.48,84.34 -32.47,34.31 -65.9,74.14 -100.02,116.8 -68.22,85.59 -132.03,161.36 -170.24,221.83 -19.41,29.98 -33.53,55.28 -42.76,73 -9.33,17.71 -14.24,27.64 -14.93,27.34 -0.33,-0.12 0.56,-2.77 2.51,-7.69 2.02,-4.87 4.75,-12.22 9.1,-21.29 8.28,-18.31 21.6,-44.25 40.39,-74.94 37.11,-61.93 100.43,-138.71 168.52,-224.18 34.23,-42.76 68.06,-82.66 101.13,-116.9 33.12,-34.18 65.64,-62.45 94.76,-83.68 29.16,-21.24 54.66,-35.59 72.75,-44.43 8.98,-4.54 16.3,-7.31 21.18,-9.39 4.9,-2.01 7.53,-2.9 7.67,-2.6z"/>
      <path class="fil1" d="M8630.02 7167.43c0.1,1.37 -21.92,4.04 -57.39,8.33 -35.33,4.58 -84.54,10.46 -136.11,26.82 -51.33,16.71 -94.03,42.19 -121.84,63.94 -28.08,21.69 -41.31,39.66 -42.63,38.61 -0.44,-0.32 2.29,-5.22 8.5,-13.21 6.13,-8.04 16.19,-18.78 29.91,-30.6 27.33,-23.6 70.44,-50.61 123.15,-67.77 52.82,-16.72 102.7,-21.57 138.33,-24.44 35.8,-2.61 57.98,-2.92 58.08,-1.68z"/>
      <path class="fil1" d="M8288.79 7284.27c-2.98,-1.68 22.86,-41.18 42.91,-94.32 18.85,-53.62 23.26,-100.63 26.64,-100.09 1.21,0.15 1.15,11.9 -0.96,30.78 -2.24,18.84 -6.78,45 -16.73,72.55 -10.04,27.5 -23.19,50.5 -33.31,66.51 -10.22,15.98 -17.48,25.24 -18.55,24.57z"/>
      <path class="fil1" d="M8787.65 6468.02c0.09,0.32 -3.07,1.98 -9.18,4.87 -7.12,3.24 -16.05,7.31 -27,12.29 -11.79,5.06 -26.12,11.47 -42.27,19.99 -16.23,8.36 -35.15,16.98 -54.84,28.82 -9.99,5.68 -20.46,11.61 -31.3,17.8 -10.85,6.22 -21.62,13.64 -33.03,20.79 -23.08,14.02 -46.19,31.24 -70.86,48.84 -48.3,36.65 -99.06,80.04 -147.95,130.12 -48.4,50.59 -90.05,102.82 -125.01,152.34 -16.74,25.27 -33.21,48.97 -46.4,72.5 -6.76,11.66 -13.8,22.65 -19.67,33.71 -5.79,11.07 -11.37,21.72 -16.72,31.89 -11.15,20.12 -19.1,39.3 -26.91,55.79 -7.97,16.44 -13.9,30.97 -18.53,42.97 -4.62,11.08 -8.34,20.13 -11.36,27.35 -2.69,6.24 -4.25,9.47 -4.55,9.35 -0.3,-0.1 0.65,-3.54 2.75,-9.97 2.57,-7.43 5.79,-16.72 9.7,-28.07 4.14,-12.22 9.6,-27.03 17.14,-43.73 7.36,-16.77 14.95,-36.28 25.77,-56.68 5.21,-10.36 10.63,-21.14 16.3,-32.37 5.72,-11.22 12.64,-22.39 19.3,-34.2 12.99,-23.88 29.3,-47.91 45.97,-73.5 34.85,-50.15 76.6,-103 125.4,-153.96 49.26,-50.48 100.62,-94.03 149.54,-130.53 25.04,-17.57 48.47,-34.67 71.88,-48.49 11.6,-7.06 22.51,-14.35 33.51,-20.48 11.05,-6.03 21.66,-11.82 31.82,-17.36 20.03,-11.51 39.25,-19.77 55.75,-27.7 16.45,-8.12 31.07,-14.07 43.14,-18.62 11.23,-4.31 20.39,-7.83 27.7,-10.66 6.39,-2.33 9.79,-3.41 9.91,-3.1z"/>
      <path class="fil1" d="M8377.66 6742.7c-0.83,-0.12 3.72,-16.05 22.54,-33.55 18.35,-17.49 51.85,-33.69 90.82,-34.87 38.87,-1.01 72.59,9.86 95.6,18.68 23.16,9.11 36.6,16.47 36.13,17.59 -0.52,1.29 -14.95,-3.89 -38.32,-11.26 -23.33,-7.14 -56.26,-16.53 -93.09,-15.52 -36.68,1.14 -68.39,15.26 -86.77,30.46 -18.78,15.11 -25.39,29.4 -26.91,28.47z"/>
      <path class="fil1" d="M8316.4 6805.94c-2.6,-1.46 20.51,-35.35 25.79,-83.9 6.04,-48.51 -8.66,-86.79 -5.79,-87.6 1.05,-0.45 6.19,8.48 10.64,24.44 4.49,15.87 7.45,39 4.56,64.25 -3,25.23 -11.2,47.05 -19.21,61.48 -8.01,14.48 -15.1,21.99 -15.99,21.33z"/>
      <path class="fil4" d="M7648.79 7656.71c14.15,250.7 89.69,505.64 205.88,763.43l505.31 0c110.78,-255.22 181.13,-509.8 193.63,-763.43l-904.82 0z"/>
      <path class="fil6" d="M8471.72 8062.37c0,2.61 -166.36,4.75 -371.55,4.75 -205.27,0 -371.59,-2.14 -371.59,-4.75 0,-2.63 166.32,-4.73 371.59,-4.73 205.19,0 371.55,2.1 371.55,4.73z"/>
      <path class="fil6" d="M8460.42 8153.17c0,2.63 -155.95,4.76 -348.31,4.76 -192.43,0 -348.36,-2.13 -348.36,-4.76 0,-2.59 155.93,-4.72 348.36,-4.72 192.36,0 348.31,2.13 348.31,4.72z"/>
     </g>
    </g>
   </g>
  </g>
  <polygon class="fil20" points="-0,0.23 10000,0.23 10000,8483.82 -0,8483.82 "/>
 </g>
</svg>
