<?xml version="1.0" encoding="UTF-8"?>
<!DOCTYPE svg PUBLIC "-//W3C//DTD SVG 1.1//EN" "http://www.w3.org/Graphics/SVG/1.1/DTD/svg11.dtd">
<!-- Creator: CorelDRAW 2018 (64 Bit Versão de avaliação) -->
<svg xmlns="http://www.w3.org/2000/svg" xml:space="preserve" width="4.895mm" height="4.7872mm" version="1.1" shape-rendering="geometricPrecision" text-rendering="geometricPrecision" image-rendering="optimizeQuality" fill-rule="evenodd" clip-rule="evenodd"
viewBox="0 0 489.5 478.72"
 xmlns:xlink="http://www.w3.org/1999/xlink">
 <g id="Camada_x0020_1">
  <metadata id="CorelCorpID_0Corel-Layer"/>
  <g id="_1679754521024">
   <path fill="#F51E33" d="M56.25 419.05c-2.69,-11.43 10.78,-25.13 22.66,-23.06 2.78,11.84 -10.66,25.67 -22.66,23.06zm79.59 -27.13c-7.07,13.49 -29.88,19.96 -21.95,3.52 7.74,-16.06 30.47,-19.75 21.95,-3.52zm72.28 -16.43c-6.35,13.92 -29.39,23.98 -23.25,6.75 5.38,-15.09 30.06,-21.64 23.25,-6.75zm63.76 -29.12c5.21,10.86 -15.52,28.73 -22.13,21.97 -5.92,-6.07 11.48,-26.61 22.13,-21.97zm-179.94 3.48c-1,1.38 -10.67,11.34 -13.46,12.24 -8.88,2.89 -10.79,-4.16 -6.88,-10.83 10.19,-17.33 31.49,-16.76 20.34,-1.41zm42.78 -9.44c-2.09,-12.06 11.38,-25.75 23.03,-22.9 2.79,12.16 -10.79,25.36 -23.03,22.9zm93.21 -39.62c-0.73,1.13 -10.82,9.95 -12.83,10.81 -16.08,6.93 -8.85,-15.5 5.35,-22.49 10.62,-5.23 12.01,4.59 7.48,11.68zm-120.74 -24.18c-2.5,4.76 -7.98,10.92 -12.92,13.16 -9.06,4.12 -12.44,-2.42 -8.86,-8.95 7.98,-14.58 30.61,-21.03 21.78,-4.21zm48.93 -14.61c-2.74,-12.2 14.2,-27.8 21.66,-23.44 6.95,4.07 -0.89,12.55 -3.69,15.37 -4.89,4.94 -7.75,9.28 -17.97,8.07zm-34.73 -56.81c-2.2,3.93 -8.59,10.83 -12.67,12.91 -8.59,4.38 -13.42,-0.6 -8.93,-8.98 7.82,-14.63 31.07,-20.87 21.6,-3.93zm7.63 -51.1c-3.7,-14.69 9.57,-17.2 20.97,-23.11 10.41,-5.4 20.15,-10.16 30.92,-14.82 35.31,-15.28 46.84,-13.1 72.09,-21.32 -17.28,-15.36 -36.04,-19.35 -66.49,-16.93 -119.96,9.54 -146.85,162.04 -169.67,255.19 -6.2,25.33 -20.19,31.73 -16.1,67.99 6.59,58.49 70.11,96.07 126.83,68.3 23.67,-11.59 114.18,-23.18 166.94,-45.64 40.57,-17.26 78.13,-40.78 98.24,-72.06 30.53,-47.5 5.92,-119.06 -12.8,-127.01 2.48,33.08 3.95,50.98 -8.41,80.16 -5.36,12.64 -23.44,50.77 -29.7,59.5 -14.03,1.68 -19.13,-12.7 -31.06,-33.22 -7.61,-13.11 -16.26,-24.88 -23.5,-38.73 -25.81,-49.3 -9.41,-76.09 -5.83,-105.42 -46.36,-0.08 -114.36,-11.54 -152.43,-32.88z"/>
   <path fill="#2BBD07" d="M192.04 3.08c1.74,16.2 26.26,49.68 35.02,58.28 31.12,30.56 40.08,28.63 51.74,39.04 -64.04,13.94 -75.78,10.43 -134.35,43.38l-6.29 4.64c12.19,7.37 54.23,19.76 70.34,23.06 29.37,6.01 53.92,6.83 84.67,7.04 -0.17,16.83 -24.08,50.73 -2.55,101.3 5.92,13.91 35.26,59.24 45.04,75.78 7.76,-6.58 12.26,-21.71 16.86,-31.37 32.28,-67.79 17.36,-51.11 17.72,-117.29 27.86,12.85 36.63,38.85 119.26,65.31 -1.43,-9.38 -39.24,-84.08 -45.51,-92.62 -17.65,-24.08 -53.42,-43.29 -80.64,-56.38 3.02,-4.72 0.53,-1.58 4.7,-5.08 14.21,-11.93 46.37,-23.4 64.62,-26.96 21.35,-4.16 13.37,-15.13 10.51,-17.02 -8.6,-5.72 -43.97,7.94 -52.49,11.69 -8.26,3.63 -14.06,6.46 -21.89,11.04 -5.58,3.26 -14.41,10.29 -19.97,12.37 -10.17,-10.2 -22.12,-44.53 -63.92,-69.23 -13.23,-7.82 -76.21,-35.29 -91.18,-40.06 -3.42,1.64 -4.51,-1.92 -1.69,3.08l0 0z"/>
  </g>
 </g>
</svg>
