<?xml version="1.0" encoding="UTF-8"?>
<!DOCTYPE svg PUBLIC "-//W3C//DTD SVG 1.1//EN" "http://www.w3.org/Graphics/SVG/1.1/DTD/svg11.dtd">
<!-- Creator: CorelDRAW 2018 (64 Bit Versão de avaliação) -->
<svg xmlns="http://www.w3.org/2000/svg" xml:space="preserve" width="10.4737mm" height="10.4737mm" version="1.1" style="shape-rendering:geometricPrecision; text-rendering:geometricPrecision; image-rendering:optimizeQuality; fill-rule:evenodd; clip-rule:evenodd"
viewBox="0 0 30.65 30.65"
 xmlns:xlink="http://www.w3.org/1999/xlink">
 <defs>
  <style type="text/css">
   <![CDATA[
    .fil0 {fill:#FEFEFE}
   ]]>
  </style>
 </defs>
 <g id="Camada_x0020_1">
  <metadata id="CorelCorpID_0Corel-Layer"/>
  <g id="_1966281308512">
   <g>
    <path class="fil0" d="M2.76 15.33c0,-0.82 -0.09,-2.3 0.02,-3.04 0.32,-2.13 -0.52,-5.41 1.74,-7.66 0.61,-0.61 0.97,-0.92 1.83,-1.24 2.2,-0.83 4.6,-0.37 5.77,-0.57 1.01,-0.17 9.52,-0 10.63,0.18 0.64,0.11 1.56,0.36 2.05,0.61 2.78,1.39 2.99,4.45 2.99,7.43 0,2.25 0.18,10.52 -0.3,12.37 -1.01,3.89 -3.98,4.39 -7.77,4.39 -2.78,0 -11.07,0.28 -13.27,-0.52 -2.98,-1.08 -3.59,-3.74 -3.59,-6.83 0,-1.77 -0.1,-3.28 -0.1,-5.11zm8.01 -15.33l9.05 0c2.83,0 5.04,0.24 7.15,1.63 0.56,0.37 1.03,0.85 1.51,1.35 0.15,0.16 0.22,0.27 0.36,0.46 0.71,0.93 1.3,2.35 1.49,3.51 0.18,1.07 0.27,3.23 0.32,5.54l0 7.55c-0.02,0.46 -0.11,0.7 -0.1,1.31 0.01,1.93 -0.55,4.43 -1.77,5.9 -1.29,1.55 -2.7,2.59 -4.76,3 -1.28,0.26 -3.2,0.36 -5.21,0.4l-6.45 0 -0.15 0c-3.09,0 -7.04,-0.02 -9.28,-2.22 -2.51,-2.46 -2.94,-4.75 -2.94,-8.61l0 -9.09c0,-2.43 0.29,-5.68 1.92,-7.48 1.15,-1.27 2.13,-2.21 4.03,-2.71 1.16,-0.31 2.91,-0.46 4.83,-0.53z"/>
    <path class="fil0" d="M10.22 15.33c0,-3.3 3.25,-6.1 7.04,-4.69 0.59,0.22 1.02,0.55 1.51,0.95l1.06 1.39c0.09,0.17 0.28,0.65 0.35,0.88 0.95,3.31 -1.69,6.48 -4.43,6.48 -1.45,0 -2.25,-0.07 -3.43,-0.96 -0.72,-0.54 -1.27,-1.16 -1.63,-2.04 -0.26,-0.62 -0.45,-1.32 -0.45,-2zm-2.76 -0.72l0 1.33c0,2.64 2.18,5.51 4.5,6.54 6.26,2.78 12.58,-2.83 11.02,-9.07 -0.25,-1.01 -0.16,-0.55 -0.48,-1.36 -0.48,-1.2 -1.45,-2.28 -2.45,-3.07 -2.2,-1.74 -5.64,-2.03 -8.23,-0.73 -2.37,1.19 -4.36,3.82 -4.36,6.37z"/>
    <path class="fil0" d="M23.4 8.99c2.73,0 2.29,-3.68 0.41,-3.68 -0.68,0 -1.2,-0.03 -1.71,0.54 -1.15,1.28 -0.15,3.14 1.3,3.14z"/>
   </g>
  </g>
 </g>
</svg>
