<?xml version="1.0" encoding="UTF-8"?>
<!DOCTYPE svg PUBLIC "-//W3C//DTD SVG 1.1//EN" "http://www.w3.org/Graphics/SVG/1.1/DTD/svg11.dtd">
<!-- Creator: CorelDRAW 2018 (64 Bit Versão de avaliação) -->
<svg xmlns="http://www.w3.org/2000/svg" xml:space="preserve" width="225.043mm" height="23.8691mm" version="1.1" style="shape-rendering:geometricPrecision; text-rendering:geometricPrecision; image-rendering:optimizeQuality; fill-rule:evenodd; clip-rule:evenodd"
viewBox="0 0 18036.85 1913.07"
 xmlns:xlink="http://www.w3.org/1999/xlink">
 <defs>
  <style type="text/css">
   <![CDATA[
    .fil0 {fill:#FEFEFE;fill-rule:nonzero}
   ]]>
  </style>
 </defs>
 <g id="Camada_x0020_1">
  <metadata id="CorelCorpID_0Corel-Layer"/>
  <path class="fil0" d="M1747.12 188.89l0 -0.4c-8.86,-8.46 -18.52,-16.91 -28.99,-24.97 -2.01,-1.61 -210.99,-166.7 -452.18,-84.56 -40.67,11.28 -82.95,31.81 -122,59.59 -30.2,21.74 -56.78,46.31 -78.12,72.48 -7.65,9.67 -22.14,10.07 -31,0.81 -6.84,-7.65 -14.1,-15.3 -21.74,-23.36 -8.86,-8.46 -18.52,-16.91 -28.99,-24.97 -2.82,-2.41 -282.67,-222.27 -570.57,-24.16 -6.84,4.42 -15.7,-0.4 -15.7,-8.46l0 -34.63c0,-11.27 -9.27,-20.13 -20.53,-20.13l-356.76 0c-11.28,0 -20.53,8.86 -20.53,20.13l0 1236.56c0,11.27 9.26,20.13 20.53,20.13l380.91 0c11.28,0 20.13,-8.86 20.13,-20.13l0 -698.61c0,-48.72 0,-108.71 20.93,-153 17.72,-40.68 74.9,-66.04 148.18,-66.04 39.87,0 70.47,9.27 94.22,27.79 14.9,11.68 26.98,26.98 35.84,45.5 20.13,43.89 22.55,98.25 22.55,145.76l1.21 698.61c0,11.27 8.86,20.13 20.13,20.13l370.84 0c11.28,0 20.54,-8.86 20.54,-20.13l0 -698.61c0,-48.72 0,-108.71 20.53,-153 18.12,-40.68 74.89,-66.04 148.58,-66.04 39.46,0 70.07,9.27 94.22,27.79 14.49,11.68 26.58,26.98 35.83,45.5 19.73,43.89 22.55,98.25 22.55,145.76l0 698.61c0,11.27 8.86,20.13 20.13,20.13l380.91 0c11.28,0 20.54,-8.86 20.54,-20.13l0 -718.75c0,-188.44 -22.15,-294.34 -152.21,-425.2l0 0zm1528.49 -112.74l-380.91 0c-11.28,0 -20.53,8.86 -20.53,20.13l0 698.61c0,48.72 0,108.71 -20.53,153 -18.12,40.68 -74.9,66.04 -148.58,66.04 -39.47,0 -70.47,-9.27 -94.22,-27.79 -14.5,-11.68 -26.58,-26.98 -35.84,-45.5 -19.72,-43.89 -22.55,-98.25 -22.55,-145.76l0 -698.61c0,-11.27 -9.26,-20.13 -20.53,-20.13l-380.51 0c-11.28,0 -20.53,8.86 -20.53,20.13l0 718.75c0,188.44 22.14,294.34 152.2,425.2l0 0.4c8.86,8.46 18.52,16.91 28.59,24.97 2.01,1.61 136.1,107.1 313.27,107.1 79.72,0 168.31,-21.34 257.3,-82.95 6.84,-4.42 16.1,0.4 16.1,8.46l0 34.63c0,11.27 9.27,20.13 20.53,20.13l356.76 0c11.28,0 20.53,-8.86 20.53,-20.13l0 -1236.56c0,-11.27 -9.26,-20.13 -20.53,-20.13l0 0zm933.76 0c-84.16,1.21 -184.42,12.09 -268.98,64.43 -6.84,4.42 -15.3,-0.41 -15.3,-8.46l0 -35.84c0,-11.27 -9.27,-20.13 -20.53,-20.13l-356.76 0c-11.28,0 -20.53,8.86 -20.53,20.13l0 1236.56c0,11.27 9.26,20.13 20.53,20.13l380.91 0c11.28,0 20.13,-8.86 20.13,-20.13l0 -718.75c0,-49.52 0,-88.58 20.93,-132.87 7.25,-17.32 33.83,-52.34 80.13,-63.62 41.07,-10.07 110.73,-5.23 145.76,-2.01 11.68,1.2 21.74,-7.65 22.15,-19.33l12.08 -298.77c0.4,-11.68 -8.86,-21.34 -20.53,-21.34l0 0zm1500.7 -0.8l-357.16 0c-11.28,0 -20.13,9.26 -20.13,20.53l0 38.66c0,8.05 -8.46,12.89 -15.3,8.86 -102.28,-57.98 -217.84,-88.18 -336.62,-88.18 -374.07,0 -678.07,299.98 -678.07,668.81 0,368.83 304,668.81 678.07,668.81 118.79,0 234.35,-30.6 336.62,-88.58 6.84,-3.62 15.3,1.21 15.3,8.86l0 18.92c0,11.28 8.86,20.53 20.13,20.53l357.16 0c11.27,0 20.13,-9.26 20.13,-20.53l0 -1236.15c0,-11.28 -8.86,-20.53 -20.13,-20.53l0 0zm-668.01 955.1c-171.53,0 -310.85,-137.3 -310.85,-306.42 0,-169.12 139.32,-306.82 310.85,-306.82 171.53,0 290.72,137.7 290.72,306.82 0,169.11 -119.19,306.42 -290.72,306.42zm1933.56 -841.55l0 -0.4c-8.86,-8.46 -18.92,-17.31 -28.99,-24.97 -2.82,-2.41 -283.07,-222.27 -570.57,-24.16 -6.84,4.42 -15.7,-0.4 -15.7,-8.46l0 -34.63c0,-11.27 -9.27,-20.13 -20.53,-20.13l-356.76 0c-11.28,0 -20.53,8.86 -20.53,20.13l0 1236.56c0,11.27 9.26,20.13 20.53,20.13l380.91 0c11.28,0 20.13,-8.86 20.13,-20.13l0 -698.61c0,-48.72 0,-108.71 20.93,-153 17.72,-40.68 74.9,-66.04 148.18,-66.04 39.87,0 70.47,9.27 94.22,27.79 14.9,11.68 26.98,26.98 35.84,45.5 20.13,43.89 22.55,98.25 22.55,145.76l0 698.61c0,11.27 9.26,20.13 20.53,20.13l380.91 0c11.28,0 20.53,-8.86 20.53,-20.13l0 -718.75c0,-188.44 -22.14,-294.34 -152.2,-425.2zm1724.98 -109.52l-355.55 0c-11.28,0 -20.13,8.86 -20.13,20.13l0 38.66c0,8.05 -8.46,12.89 -15.3,8.86 -102.28,-57.58 -217.43,-87.78 -335.41,-87.78 -372.46,0 -675.66,298.78 -675.66,666.4 0,367.22 303.2,666.39 675.66,666.39 117.57,0 232.33,-30.2 333.8,-87.38 6.44,-3.62 13.69,0 15.3,6.84 10.87,56.38 0.8,107.91 -28.99,150.19 -44.3,63.22 -131.27,103.49 -238.38,110.73 -163.88,10.87 -289.91,-94.22 -347.09,-152.61 -7.25,-7.25 -18.52,-8.05 -26.98,-2.01l-262.53 202.53c-10.07,7.65 -10.48,22.55 -1.21,31.41 273.8,249.25 512.98,261.32 609.62,261.32 5.63,0 10.87,0 15.7,0l11.28 0c429.63,0 665.99,-242 665.99,-681.69l0.4 -126.84 0 -1005.03c0,-11.27 -9.27,-20.13 -20.53,-20.13l0 0zm-665.59 951.88c-2.01,0 -4.43,0 -6.84,-0.4l-2.42 0c-168.71,-4.83 -300.38,-139.32 -300.38,-305.21 0,-168.71 138.92,-305.62 309.65,-305.62 129.25,0 225.89,80.13 270.58,199.32 12.49,33.82 19.33,69.66 19.33,106.3 0,168.3 -118.79,305.61 -289.91,305.61zm1499.9 -975.64c-374.07,0 -678.08,299.98 -678.08,668.81 0,368.83 304.01,668.81 678.08,668.81 374.07,0 678.07,-299.98 678.07,-668.81 0,-368.83 -304,-668.81 -678.07,-668.81l0 0zm0 960.34c-163.08,0 -295.56,-130.87 -295.56,-291.52 0,-160.66 132.48,-291.52 295.56,-291.52 163.07,0 295.55,130.87 295.55,291.52 0,160.66 -132.48,291.52 -295.55,291.52zm1514.79 -960.34c-374.07,0 -678.08,299.98 -678.08,668.81 0,368.83 304.01,668.81 678.08,668.81 374.07,0 678.07,-299.98 678.07,-668.81 0,-368.83 -304,-668.81 -678.07,-668.81l0 0zm0 960.34c-163.08,0 -295.56,-130.87 -295.56,-291.52 0,-160.66 132.48,-291.52 295.56,-291.52 163.07,0 295.55,130.87 295.55,291.52 0,160.66 -132.48,291.52 -295.55,291.52z"/>
  <path class="fil0" d="M12488.87 0l0 1446.29 -65.73 0 0 -1446.29 65.73 0zm1168.63 197.69c17.99,0 33.49,6.5 46.49,19.24 12.99,12.5 19.49,28 19.49,45.99 0,18.49 -6.5,34.24 -19.49,46.98 -13,12.74 -28.49,19 -46.49,19 -17.99,0 -33.49,-6.25 -46.49,-19 -13,-12.74 -19.49,-28.49 -19.49,-46.98 0,-17.99 6.49,-33.49 19.49,-45.99 12.99,-12.74 28.49,-19.24 46.49,-19.24zm-32.99 320.9l-302.41 0 0 653.04 -65.73 0 0 -653.04 -73.22 0 0 -65.98 73.22 0 0 -194.69c2.75,-54.24 23.5,-100.97 62.24,-139.96 39.99,-36.99 85.97,-55.74 138.21,-55.74 27.49,0 56.23,5.25 86.47,15.5l-20.49 58.48c-20.49,-8.74 -40.24,-12.99 -59.24,-12.99 -34.74,0 -67.48,13.75 -98.21,41.73 -27.24,26.75 -41.74,59.23 -43.24,97.22l0 190.44 368.39 0 0 719.02 -65.98 0 0 -653.04zm366.13 94.47l0 558.57 -65.73 0 0 -719.02 65.73 0 0 46.24c59.98,-59.73 129.96,-89.48 209.44,-89.48 84.97,0 153.95,26.75 207.18,79.98 53.23,52.98 80.47,120.21 81.97,201.18l0 481.1 -65.72 0 0 -475.1c0,-61.23 -22.25,-113.22 -66.48,-156.45 -43.99,-43.24 -96.47,-64.74 -156.95,-64.74 -60.48,0 -112.71,21.25 -156.7,63.73 -24,23.74 -41.49,48.48 -52.74,73.98zm1494.53 558.57l-65.98 0 0 -146.46c-12.5,17 -26.5,33.49 -41.74,48.99 -78.47,78.72 -173.44,117.96 -284.66,117.96 -110.97,0 -205.68,-39.24 -284.16,-117.96 -78.73,-78.47 -117.96,-173.19 -117.96,-283.91 0,-111.46 39.23,-206.43 117.96,-284.91 78.47,-78.47 173.19,-117.96 284.16,-117.96 111.21,0 206.18,39.24 284.66,117.96 15.24,15.5 29.25,32 41.74,48.99l0 -101.72 65.98 0 0 719.02zm-65.98 -316.4l0 -130.21c-12.25,-64.48 -42.74,-121.21 -91.47,-169.94 -64.98,-64.98 -143.2,-97.22 -234.92,-97.22 -91.97,0 -170.2,32.24 -235.18,97.22 -64.98,64.98 -97.22,143.2 -97.22,235.17 0,91.72 32.24,169.95 97.22,234.67 64.98,64.48 143.21,96.97 235.18,96.97 91.72,0 169.95,-32.49 234.92,-97.47 48.74,-48.74 79.23,-105.22 91.47,-169.2zm351.39 -242.17l0 558.57 -65.73 0 0 -719.02 65.73 0 0 46.24c59.98,-59.73 129.96,-89.48 209.44,-89.48 84.97,0 153.95,26.75 207.18,79.98 53.23,52.98 80.47,120.21 81.97,201.18l0 481.1 -65.72 0 0 -475.1c0,-61.23 -22.25,-113.22 -66.48,-156.45 -43.99,-43.24 -96.47,-64.74 -156.95,-64.74 -60.48,0 -112.71,21.25 -156.7,63.73 -24,23.74 -41.49,48.48 -52.74,73.98zm1334.82 385.87l69.73 24.74c-12.74,17.5 -27.24,34.49 -43.23,50.49 -78.73,78.72 -173.7,117.96 -284.91,117.96 -110.72,0 -205.44,-39.24 -284.16,-117.96 -78.47,-78.47 -117.71,-173.44 -117.71,-284.66 0,-110.96 39.24,-205.68 117.71,-284.16 78.72,-78.47 173.44,-117.96 284.16,-117.96 111.21,0 206.18,39.24 284.91,117.96 15.99,16 30.49,32.74 43.23,49.74l-69.73 25.74c-7.25,-8.74 -15,-17.74 -23.24,-26.49 -64.98,-64.48 -143.45,-96.47 -235.17,-96.47 -91.22,0 -169.44,32.24 -234.18,96.96 -64.98,64.48 -97.47,142.7 -97.47,234.67 0,91.72 32.49,169.95 97.47,234.93 64.74,64.98 142.96,97.47 234.18,97.47 91.72,0 170.2,-32.49 235.17,-97.47 8.25,-8.25 16,-16.75 23.24,-25.5zm382.13 37.99c61.98,56.48 135.71,84.97 221.18,84.97 91.72,0 170.2,-32.49 235.17,-97.47 8.25,-8.25 16,-16.75 23.24,-25.5l69.73 24.74c-12.74,17.5 -27.24,34.49 -43.23,50.49 -78.73,78.72 -173.7,117.96 -284.91,117.96 -110.72,0 -205.44,-39.24 -284.16,-117.96 -78.47,-78.47 -117.71,-173.44 -117.71,-284.66 0,-110.96 39.24,-205.68 117.71,-284.16 78.72,-78.47 173.44,-117.96 284.16,-117.96 95.22,0 178.44,28.74 249.67,85.73 11.75,9.75 23.49,20.49 35.24,32.24 4.25,4.5 8.5,8.75 12.5,13.25l-49.99 49.73 -468.6 468.6zm420.36 -513.33c-57.23,-43.99 -123.46,-65.73 -199.18,-65.73 -91.22,0 -169.44,32.24 -234.18,96.96 -64.98,64.48 -97.47,142.7 -97.47,234.67 0,75.48 21.99,141.96 65.98,199.19l464.85 -465.1z"/>
 </g>
</svg>
