<?xml version="1.0" encoding="UTF-8"?>
<!DOCTYPE svg PUBLIC "-//W3C//DTD SVG 1.1//EN" "http://www.w3.org/Graphics/SVG/1.1/DTD/svg11.dtd">
<!-- Creator: CorelDRAW 2018 (64 Bit Versão de avaliação) -->
<svg xmlns="http://www.w3.org/2000/svg" xml:space="preserve" width="100mm" height="100mm" version="1.1" style="shape-rendering:geometricPrecision; text-rendering:geometricPrecision; image-rendering:optimizeQuality; fill-rule:evenodd; clip-rule:evenodd"
viewBox="0 0 10000 10000"
 xmlns:xlink="http://www.w3.org/1999/xlink">
 <defs>
  <style type="text/css">
   <![CDATA[
    .fil0 {fill:#FEFEFE}
   ]]>
  </style>
 </defs>
 <g id="Camada_x0020_1">
  <metadata id="CorelCorpID_0Corel-Layer"/>
  <path class="fil0" d="M5000 0c2761.42,0 5000,2238.58 5000,5000 0,2761.42 -2238.58,5000 -5000,5000 -2761.42,0 -5000,-2238.58 -5000,-5000 0,-2761.42 2238.58,-5000 5000,-5000zm1795.34 4495.35c278.71,0 504.65,225.94 504.65,504.65 0,278.71 -225.94,504.65 -504.65,504.65 -278.71,0 -504.65,-225.94 -504.65,-504.65 0,-278.71 225.94,-504.65 504.65,-504.65zm-1795.34 0c278.71,0 504.65,225.94 504.65,504.65 0,278.71 -225.94,504.65 -504.65,504.65 -278.71,0 -504.65,-225.94 -504.65,-504.65 0,-278.71 225.94,-504.65 504.65,-504.65zm-1795.34 0c278.71,0 504.65,225.94 504.65,504.65 0,278.71 -225.94,504.65 -504.65,504.65 -278.71,0 -504.65,-225.94 -504.65,-504.65 0,-278.71 225.94,-504.65 504.65,-504.65z"/>
 </g>
</svg>
