<?xml version="1.0" encoding="UTF-8"?>
<!DOCTYPE svg PUBLIC "-//W3C//DTD SVG 1.1//EN" "http://www.w3.org/Graphics/SVG/1.1/DTD/svg11.dtd">
<!-- Creator: CorelDRAW 2018 (64 Bit Versão de avaliação) -->
<svg xmlns="http://www.w3.org/2000/svg" xml:space="preserve" width="100mm" height="100mm" version="1.1" style="shape-rendering:geometricPrecision; text-rendering:geometricPrecision; image-rendering:optimizeQuality; fill-rule:evenodd; clip-rule:evenodd"
viewBox="0 0 10000 10000"
 xmlns:xlink="http://www.w3.org/1999/xlink">
 <defs>
  <style type="text/css">
   <![CDATA[
    .fil0 {fill:#FEFEFE}
   ]]>
  </style>
 </defs>
 <g id="Camada_x0020_1">
  <metadata id="CorelCorpID_0Corel-Layer"/>
  <g id="_2740786565344">
   <path class="fil0" d="M2281.25 6300.94c0,-697.44 276.79,-1187.11 843.33,-1473.77 426.84,-215.98 949,-215.98 1375.84,0 1441.79,729.52 924.75,2915.77 -687.92,2915.77 -829.79,0 -1531.25,-705.82 -1531.25,-1442zm-437.5 -3510.97c76.17,327.99 48.95,676.21 -136.55,960.2 -177.89,272.32 -429.2,436.14 -767.55,484.8 -277.93,39.96 -280.3,-13.22 -533.4,-34.34l-208.52 449.14c-57.69,129.55 -154.03,372.55 -166.48,522.65 342.68,80.08 667.67,645.87 647.02,1028.09 -31.33,579.99 -345.31,785.86 -678.27,1009.52 58.83,122.98 105.17,312.69 151.88,443.26 56.37,157.57 156.95,284.16 191.87,434.48 551.72,-128.94 1101.21,-66.45 1396.86,479.64 258.08,476.72 91.97,782.98 71.89,1025.06 594.78,315.71 585.96,238.32 937.5,407.52 104.51,-392.61 584.19,-701.93 1034.18,-715.2 446.28,-13.15 944.86,355.84 1028.32,715.2 290.46,-6.48 959.48,-390.75 1031.25,-407.52 -95.37,-410.63 -200.79,-747.05 195.64,-1214.41 250.92,-295.82 859.89,-474.15 1241.86,-290.29 46.5,-200.23 343.75,-656.27 343.75,-1003.13 -168.82,-39.46 -359.01,-226.88 -451.21,-362.42 -266.88,-392.28 -256.59,-844.44 -16.47,-1235.26 117.59,-191.37 252.18,-284.83 436.43,-408.59l-272.81 -666.78c-44.9,-92 -77.38,-104.12 -102.19,-210.96 -426.32,99.63 -815.6,46.49 -1134.1,-273.01 -294.08,-295 -421.22,-826.01 -272.15,-1137.65l-468.69 -219.49c-152.1,-60.57 -328.47,-156.68 -531.31,-156.68 -78.82,296.12 -573.83,564.26 -968.75,564.26 -365.12,0 -871.83,-312.89 -937.5,-595.61 -187.15,4.18 -403.18,102.38 -558.28,160.96l-504.22 246.56z"/>
   <path class="fil0" d="M7000 2194.36c0,-255.3 107.58,-507 244.98,-631.99 493.07,-448.51 1157.95,-193.75 1349.71,223.52 290.18,631.44 -138.17,1226.67 -755.57,1234.59 -444.23,5.69 -839.12,-341.72 -839.12,-826.12zm62.5 -1661.44c-428.45,0 -289.67,-69.05 -500,-125.39 -163.51,109.84 -328.5,244.24 -437.5,407.52 132.54,251.26 125,175.86 125,501.57 0,210.73 -229.46,501.57 -562.5,501.57 -16.11,194.26 -31.25,354.23 -31.25,595.61 204.55,47.8 273.96,49.43 415.09,179.22 392.13,360.63 34.75,840.27 22.41,886.61 95.62,143.23 201.48,280.6 343.75,376.17 514.5,-345.61 1012.62,-99.72 1062.5,501.57l562.5 0c8.27,-372.34 354.52,-690.35 753.95,-601.07 191.09,42.72 183.67,78.31 308.55,162.2 188.2,-50.41 339.26,-260.35 437.5,-407.52 -53.87,-202.38 -156.25,-126.07 -156.25,-470.23 0,-326.69 272.42,-588.43 593.75,-595.61l0 -595.6c-166.36,-3.73 -310.98,-73.94 -399.98,-163.04 -286.92,-287.24 -196.29,-570.45 -37.52,-871.45l-42.64 -51.25c-3.61,-4.22 -10.3,-12.34 -14.34,-16.98 -24.68,-28.3 -32.71,-37.03 -59.86,-65.34 -43.58,-45.44 -96.44,-104.94 -140.98,-142.38 -196.19,-164.93 -52.29,25.17 -617.18,25.17 -389.15,0 -490.79,-479.68 -531.25,-564.26l-562.5 0c-67.38,290.1 -288.76,532.91 -531.25,532.91z"/>
  </g>
 </g>
</svg>
