<?xml version="1.0" encoding="UTF-8"?>
<!DOCTYPE svg PUBLIC "-//W3C//DTD SVG 1.1//EN" "http://www.w3.org/Graphics/SVG/1.1/DTD/svg11.dtd">
<!-- Creator: CorelDRAW 2018 (64 Bit Versão de avaliação) -->
<svg xmlns="http://www.w3.org/2000/svg" xml:space="preserve" width="100mm" height="100mm" version="1.1" style="shape-rendering:geometricPrecision; text-rendering:geometricPrecision; image-rendering:optimizeQuality; fill-rule:evenodd; clip-rule:evenodd"
viewBox="0 0 10000 10000"
 xmlns:xlink="http://www.w3.org/1999/xlink">
 <defs>
  <style type="text/css">
   <![CDATA[
    .fil0 {fill:#FEFEFE}
   ]]>
  </style>
 </defs>
 <g id="Camada_x0020_1">
  <metadata id="CorelCorpID_0Corel-Layer"/>
  <path class="fil0" d="M-0 5018.43c0.82,97.27 8.42,158.63 64.67,271.65 66.49,133.59 169.03,224.81 303.54,285.49 59.88,27.01 160.92,53.61 247.59,53.61l629.18 0 0 3734.94c0,97.62 21.81,178.57 50.61,250.6 28.71,71.82 80.9,147.4 134.09,200.58 49.48,49.47 89.03,80.17 153.13,114.61 54.68,29.37 158.61,70.09 237.81,70.09l1934.4 0 0 -3172.69c0,-165.76 113.67,-339.68 239.37,-443.37 16.07,-13.26 29.32,-22.05 47.13,-33.18 15.21,-9.51 30.06,-19.15 45.98,-27.65l54.99 -25.34c69.16,-27.82 163.45,-46.1 261.79,-46.1l1191.44 0c104.95,0 186.04,18.67 261.98,45.92 20.44,7.33 31.4,12.75 49.8,23.83 53.14,31.99 92.09,51.11 138.48,95.78 80.71,77.71 144.61,174.9 176.22,285.64 9.94,34.84 22.78,91.73 22.78,131.16l0 3166 1934.4 0c117.89,0 277.13,-73.94 363.08,-159.01 131.26,-129.93 212.56,-267.54 212.56,-476.87l0 -3734.94 629.18 0c79.13,0 188.53,-24.71 243.26,-51.25 35.74,-17.35 65.51,-29.71 96.95,-50.31 84.2,-55.16 164.42,-141.44 208.78,-232.98 57.72,-119.12 65.88,-172.91 66.81,-269.89l0 -84.99c0,-151.81 -120.92,-340.14 -225.96,-443.39 -20.89,-20.54 -27.45,-33.78 -46.66,-53.73l-964.2 -963.52c-17.17,-25.31 -8.16,-326.22 -8.16,-380.06 0,-206.95 10.44,-1801.65 -6.27,-1921.44 -8.47,-60.76 -18.71,-104.44 -38.56,-155.55 -20.78,-53.52 -70.46,-138.87 -107.44,-180.38 -46.29,-51.95 -100.29,-97.16 -160.97,-133.54 -73.72,-44.2 -186.69,-85.66 -302.56,-85.66l-655.95 0c-207.85,0 -397.8,120.58 -504.83,278.31 -51.14,75.37 -95.06,177.45 -103.95,290.96 -9.12,116.5 -0.33,273.63 -0.33,394.58 -31.92,-21.37 -825.81,-822.46 -851.74,-848.39 -69.1,-69.1 -340.51,-348.67 -412.13,-411.15l-238.41 -210.06c-100.18,-66.2 -204.62,-105.8 -311.18,-116.74l-121.81 0c-78.16,8.02 -157,31.52 -235.74,71.29 -91.78,46.36 -186.04,133.34 -257.01,204.84 -14.93,15.04 -21.31,21.34 -38.18,35.44l-196.11 192.11c-208.02,208.02 -411.13,411.13 -619.15,619.14l-2469.88 2469.88c-206.9,206.9 -408.89,408.9 -615.79,615.8 -167.43,167.42 -507.03,455.62 -507.03,731.26l0 78.67z"/>
 </g>
</svg>
