<?xml version="1.0" encoding="UTF-8"?>
<!DOCTYPE svg PUBLIC "-//W3C//DTD SVG 1.1//EN" "http://www.w3.org/Graphics/SVG/1.1/DTD/svg11.dtd">
<!-- Creator: CorelDRAW 2018 (64 Bit Versão de avaliação) -->
<svg xmlns="http://www.w3.org/2000/svg" xml:space="preserve" width="100mm" height="74.14mm" version="1.1" style="shape-rendering:geometricPrecision; text-rendering:geometricPrecision; image-rendering:optimizeQuality; fill-rule:evenodd; clip-rule:evenodd"
viewBox="0 0 10000 7414"
 xmlns:xlink="http://www.w3.org/1999/xlink">
 <defs>
  <style type="text/css">
   <![CDATA[
    .fil0 {fill:#FEFEFE}
   ]]>
  </style>
 </defs>
 <g id="Camada_x0020_1">
  <metadata id="CorelCorpID_0Corel-Layer"/>
  <g id="_2740726920752">
   <path class="fil0" d="M3604.61 3840.38c-111.16,61.11 -355.97,337.95 -463.03,444.54l-1325.5 1325.37c-92.88,93.18 -1711.61,1669.28 -1767,1792.86 857.24,14.84 9676.23,17.06 9904.3,-10.08l-3551.97 -3547.44c-127.23,37.74 -1260.27,978.87 -1398.42,1044.09 -86.37,-35 -272.05,-195.68 -358.55,-263.2l-1039.83 -786.14z"/>
   <path class="fil0" d="M390.9 260.23c102.97,80.48 201.01,155.1 308.39,234.26 1205.07,888.57 2484.02,1947.13 3682.53,2829.41 117.99,86.85 529.67,425.79 621.17,465.3 104.01,-56.79 215.8,-158.53 311.8,-232.24 101.14,-77.65 199.4,-152.35 307.01,-235.42 405.64,-313.13 4235.49,-3213.66 4298.97,-3321.54l-9833.5 1.21 303.63 259.02z"/>
   <path class="fil0" d="M1.4 6182.87c92.72,-44.91 615.63,-595.85 733.86,-714.25 188.19,-188.44 2111.88,-2067.24 2161.55,-2189.16 -248.39,-163.17 -1181.6,-905.26 -1451.41,-1110.36 -237.52,-180.57 -483.03,-365.51 -720.91,-552.25 -107.34,-84.23 -643.68,-513.44 -724.49,-540.09l1.4 5106.11z"/>
   <path class="fil0" d="M7821.54 4016.66c244.84,245.46 475.13,474.77 720.14,720 116.41,116.53 1357.74,1382.56 1458.32,1441.36l-0.76 -5093.42c-114.91,45.98 -276.15,196.3 -386.49,279.28l-1074.34 824.99c-245.66,183.33 -472.28,357.15 -721.51,551.6l-706.34 546.53 710.98 729.66z"/>
  </g>
 </g>
</svg>
