<?xml version="1.0" encoding="UTF-8"?>
<!DOCTYPE svg PUBLIC "-//W3C//DTD SVG 1.1//EN" "http://www.w3.org/Graphics/SVG/1.1/DTD/svg11.dtd">
<!-- Creator: CorelDRAW 2018 (64 Bit Versão de avaliação) -->
<svg xmlns="http://www.w3.org/2000/svg" xml:space="preserve" width="160.309mm" height="162.743mm" version="1.1" shape-rendering="geometricPrecision" text-rendering="geometricPrecision" image-rendering="optimizeQuality" fill-rule="evenodd" clip-rule="evenodd"
viewBox="0 0 16045.61 16289.32"
 xmlns:xlink="http://www.w3.org/1999/xlink">
 <g id="Camada_x0020_1">
  <metadata id="CorelCorpID_0Corel-Layer"/>
  <path fill="#D9DAD9" fill-rule="nonzero" d="M12191.08 10.56l-1032.86 518.08c-77.19,32.91 -127.33,108.72 -127.33,192.65l0 483.15c0,431.64 120.48,859.38 368.32,1237.03 186.01,283.47 432.76,645.78 843.32,852.95l185.34 0c456.99,-139.41 798.12,-510.94 1006.7,-828.73 247.85,-377.61 368.29,-805.32 368.29,-1236.99l0 -507.42c0,-83.93 -50.11,-159.74 -127.33,-192.65l-1176.54 -501.3c-52.47,-22.35 -255.43,-39.13 -307.9,-16.78z"/>
  <path fill="#EFEFEF" fill-rule="nonzero" d="M12149.45 27.34l-1176.54 501.3c-77.22,32.91 -127.33,108.72 -127.33,192.65l0 483.15c0,431.64 120.48,859.38 368.29,1237.03 208.57,317.75 531.52,644.97 1028.66,852.95 457.02,-139.41 798.15,-510.94 1006.7,-828.73 247.84,-377.61 368.32,-805.32 368.32,-1236.99l0 -507.42c0,-83.93 -50.11,-159.74 -127.33,-192.65l-1176.57 -501.3c-52.44,-22.35 -111.72,-22.35 -164.19,0z"/>
  <path fill="#D9DAD9" fill-rule="nonzero" d="M13613.77 1097.84c0.63,-0.04 1.37,7.63 2.22,22.21 0.74,16.6 1.69,37.77 2.86,63.98 1.09,27.83 2.71,61.87 0.81,101.41 -2.05,39.44 -0.35,84.67 -6.15,134.17 -4.73,49.58 -8.05,104.14 -18.26,161.87 -4.69,28.92 -8.37,59.03 -14.33,89.68 -6.57,30.55 -13.31,61.94 -20.24,94.14 -30.75,128.04 -73.37,267.23 -135.65,406.24 -62.47,138.88 -136.27,264.26 -211.05,372.81 -39.2,53 -75.35,104.24 -114.15,148.23 -19.07,22.25 -36.37,44.67 -54.98,64.51 -18.65,19.71 -36.58,38.67 -53.71,56.82 -33.36,37.03 -67.61,66.48 -96.22,93.78 -28.39,27.55 -54.62,49.3 -76.37,66.63 -20.45,16.46 -36.97,29.77 -49.9,40.19 -11.51,9.01 -17.77,13.52 -18.15,13.03 -0.39,-0.5 5.04,-5.97 15.81,-15.89 12.32,-11.08 28.08,-25.21 47.56,-42.72 20.97,-18.16 46.39,-40.58 74.01,-68.71 27.79,-27.9 61.23,-57.84 93.82,-95.24 16.75,-18.29 34.29,-37.42 52.51,-57.3 18.23,-19.96 35.17,-42.48 53.85,-64.8 38.06,-44.1 73.48,-95.3 112,-148.16 73.45,-108.3 146.18,-232.87 208.19,-370.66 61.76,-137.89 104.52,-275.73 135.94,-402.64 7.14,-31.88 14.09,-63.03 20.83,-93.33 6.26,-30.37 10.17,-60.24 15.15,-88.91 10.8,-57.27 14.82,-111.43 20.37,-160.66 6.61,-49.16 5.83,-94.14 8.8,-133.4 2.89,-39.34 2.33,-73.24 2.33,-100.98 0.24,-26.2 0.45,-47.39 0.59,-63.95 0.36,-14.62 0.85,-22.35 1.49,-22.35z"/>
  <polygon fill="#FEFEFE" fill-rule="nonzero" points="12143.94,2148.07 11469.02,1611.49 11656.31,1375.98 12108.84,1735.79 12769.74,996.22 12994.07,1196.67 "/>
  <path fill="#E5E6E5" fill-rule="nonzero" d="M15331.5 2653.89l-127.68 0 0 -695.05c0,-163.59 -133.08,-296.67 -296.67,-296.67 -163.6,0 -296.68,133.08 -296.68,296.67l0 695.05 -127.72 0 0 -695.05c0,-233.97 190.4,-424.36 424.4,-424.36 234,0 424.35,190.4 424.35,424.36l0 695.05z"/>
  <path fill="#E5E6E5" fill-rule="nonzero" d="M15370.41 3078.56l-926.54 0c-60,0 -108.65,-48.65 -108.65,-108.65l0 -679.18c0,-60 48.65,-108.65 108.65,-108.65l926.54 0c60,0 108.65,48.65 108.65,108.65l0 679.18c0,60 -48.65,108.65 -108.65,108.65z"/>
  <path fill="#F7F7F6" fill-rule="nonzero" d="M14994.93 2653.68c22.38,-22.53 36.19,-53.5 36.19,-87.82 0,-69.45 -56.32,-125.78 -125.78,-125.78 -69.49,0 -125.82,56.32 -125.82,125.78 0,57.48 38.81,105.44 91.49,120.44l-27.05 119.56 119.74 0 -24.04 -119.56c21.22,-6.04 40.18,-17.41 55.26,-32.62z"/>
  <path fill="#D9DAD9" fill-rule="nonzero" d="M815.29 12801.52c-136.48,-85.7 -292.8,-139.51 -453.11,-155.96 -74.04,-7.59 -154.93,-5.43 -214.32,39.41 -12.6,9.54 -24.89,23.62 -22.08,39.16 2.08,11.41 11.74,19.74 20.96,26.76 184.36,140.65 463.23,158.4 668.54,50.64z"/>
  <path fill="#D9DAD9" fill-rule="nonzero" d="M803.66 12788.7c-102.56,-80.04 -205.74,-160.62 -292.65,-257.48 -86.9,-96.86 -157.51,-211.82 -183.48,-339.33 -7.87,-38.67 -10.31,-82.84 14.5,-113.52 233.28,182.17 416.52,417.79 461.62,710.33z"/>
  <path fill="#D9DAD9" fill-rule="nonzero" d="M812.87 12799.75c-17.57,-127.61 -23.88,-258.75 5.42,-384.2 29.31,-125.46 97.54,-245.52 204.66,-317.05 40.32,94.21 23,202.76 -5.4,301.24 -43.89,152.15 -112.73,297.09 -202.94,427.24l-1.74 -27.23z"/>
  <path fill="#D9DAD9" fill-rule="nonzero" d="M1041.56 13209.53c-138.83,16.89 -259.72,90.04 -363.37,183.91 -103.66,93.89 -177.32,220.37 -207.85,356.8 136.17,-8.4 251.68,-104.42 335.46,-212.1 83.79,-107.67 141.82,-225.78 233.87,-326.48l1.9 -2.13z"/>
  <path fill="#D9DAD9" fill-rule="nonzero" d="M1091.21 13275.07c-111.8,-275.41 -71.3,-607.3 103.5,-847.73 79.08,281.32 50.06,599.08 -103.5,847.73z"/>
  <path fill="#D9DAD9" fill-rule="nonzero" d="M1393.38 13634.84c-125.99,-7.8 -254.07,22.22 -363.46,85.17 -109.39,62.97 -199.68,158.66 -256.19,271.54 -7.69,15.32 -14.46,34.85 -4.17,48.59 8.93,11.92 26.21,13.06 41.08,12.07 122.12,-7.91 230.36,-81.38 319.66,-165.04 89.31,-83.69 167.12,-180.33 265.81,-252.67l-2.73 0.34z"/>
  <path fill="#D9DAD9" fill-rule="nonzero" d="M1383.74 13615.25c-65,-207.94 -69.03,-434.53 -11.53,-644.65 22.71,-82.99 60.84,-170.35 137.59,-209.26 6.54,-3.31 14.16,-6.28 21.04,-3.7 6.52,2.46 10.29,9.14 13.3,15.43 27.3,57.01 35.25,121.77 32.44,184.95 -2.81,63.17 -15.91,125.36 -29,187.21 -24.15,114.44 -37.01,237.43 -99.77,336.08 -14.9,23.45 -28.02,48.73 -39.91,73.84 -11.88,25.07 -11.96,33.9 -22.85,53.85l-1.31 6.26z"/>
  <path fill="#D9DAD9" fill-rule="nonzero" d="M2183.55 13734.42c-59.26,-225.39 3.63,-498.66 145.68,-683.43 10.45,-13.6 24.31,-28.18 41.4,-26.59 26.15,2.4 32.94,37.25 31.77,63.49 -10.28,230.33 -87.1,457.34 -218.85,646.53z"/>
  <path fill="#D9DAD9" fill-rule="nonzero" d="M2255.65 13783.7c273.84,71.26 588.01,2.02 815.78,-165.91 -134.99,-68.4 -294.11,-87.93 -441.63,-54.21 -147.53,33.77 -282.32,99.86 -374.15,220.12z"/>
  <path fill="#D9DAD9" fill-rule="nonzero" d="M2316.47 13633.64c153.38,-250.07 447.4,-413.27 740.37,-428.09 -33.76,119.13 -131.67,211.75 -242.15,267.73 -110.5,55.95 -233.82,80.32 -355.41,103.92 -47.28,9.22 -112.15,19.28 -142.81,56.45z"/>
  <path fill="#D9DAD9" fill-rule="nonzero" d="M2198.78 12905.41c41.54,-142.3 83.29,-285.83 94.7,-433.61 11.4,-147.78 -9.68,-302.08 -86.36,-428.91 -143.26,277.22 -157.77,601.12 -12.64,877.35l4.3 -14.82z"/>
  <path fill="#D9DAD9" fill-rule="nonzero" d="M2681.12 12661.62c167.53,-304.51 509.34,-547.73 855.21,-581.8 -133.43,332.2 -497.29,588.94 -855.21,581.8z"/>
  <path fill="#D9DAD9" fill-rule="nonzero" d="M2575.71 12721.27c249.86,38.05 462.73,197.65 696.23,294.37 49.94,20.69 103.81,37.18 157.39,30.16 53.6,-7.03 106.47,-42.97 118.47,-95.69 9.99,-43.75 -9.92,-90.21 -41.33,-122.27 -31.41,-32.07 -72.9,-52.09 -114.33,-69.35 -254.31,-105.86 -527.04,-108.51 -794.94,-44.32l-21.5 7.11z"/>
  <path fill="#D9DAD9" fill-rule="nonzero" d="M2431.13 12896.51c56.57,16.2 75.89,45.48 120.69,83.65 151.96,129.42 334.24,223.06 527.95,271.22 20.18,5.01 46.63,7 56.62,-11.22 8.75,-15.93 -2.32,-35.22 -13.64,-49.38 -81.17,-101.55 -196.94,-171.04 -318.78,-216.41 -121.83,-45.38 -227.41,-100.04 -372.83,-88.31l0 10.45z"/>
  <path fill="#D9DAD9" fill-rule="nonzero" d="M2267.98 11838.11c203.17,189.61 489.35,287 766,260.63 12.6,-1.2 26.32,-3.21 34.88,-12.54 19.27,-20.97 -3.85,-53.35 -26.31,-70.87 -225.22,-175.59 -498.01,-248.37 -774.57,-177.22z"/>
  <path fill="#D9DAD9" fill-rule="nonzero" d="M2461.4 11767.32c268.58,-201.38 636.86,-262.14 955.88,-157.73 -120.39,118.64 -287.39,182.45 -455.51,199.95 -168.09,17.52 -336.42,-1.13 -500.37,-42.23z"/>
  <path fill="#D9DAD9" fill-rule="nonzero" d="M2384.52 11280.96c-22.11,-224.79 -7.77,-402.26 -23.36,-628.11 -1.24,-18.04 -5.13,-39.76 -22,-46.25 -23.5,-9.04 -43.09,19.85 -50.82,43.82 -66.92,208.19 -30.35,446.96 95.86,625.6l0.32 4.94z"/>
  <path fill="#D9DAD9" fill-rule="nonzero" d="M2368.36 11305.79c152.36,-94.22 266.67,-217.27 372.37,-361.9 73.55,-100.63 135.54,-221.18 118.83,-344.73 -103.28,-2.05 -201.43,54.9 -268.61,133.4 -67.17,78.45 -107.11,176.58 -136.93,275.48 -29.82,98.91 -50.69,200.53 -85.67,297.74z"/>
  <path fill="#D9DAD9" fill-rule="nonzero" d="M2734.2 11204.16c334.37,-123.66 646.34,-307.62 916.38,-540.36 -109.46,-44.1 -234.79,-17.73 -344.22,26.44 -250.04,100.95 -454.32,271.29 -576.95,511.44l4.78 2.47z"/>
  <path fill="#D9DAD9" fill-rule="nonzero" d="M2471.22 11428.77c169.17,18.5 340.99,30.54 508.85,2.47 164.97,-27.58 320.88,-92.98 475.03,-157.84 12.77,-5.37 26.69,-11.83 32.28,-24.51 6.08,-13.77 -0.4,-30.54 -11.56,-40.64 -11.17,-10.1 -26.01,-14.93 -40.51,-19 -167.6,-46.85 -348.47,-24.93 -513.36,30.69 -164.9,55.61 -300.1,121.64 -450.72,208.82z"/>
  <path fill="#D9DAD9" fill-rule="nonzero" d="M1505.27 11845.78c-115.43,-232.97 -107.92,-504.83 -8.23,-744.94 70.19,106.92 78.76,243.11 65.93,370.41 -12.84,127.26 -51.59,258.22 -54.1,386.12l-3.6 -11.58z"/>
  <path fill="#D9DAD9" fill-rule="nonzero" d="M1044.2 11613.26c-288.15,-5.51 -576.41,117.27 -772.07,328.88 143.82,22.6 291.94,-14.47 422.77,-78.39 130.81,-63.87 247.07,-153.49 362.28,-242.47l-12.98 -8.02z"/>
  <path fill="#D9DAD9" fill-rule="nonzero" d="M734.22 11509.59c-140.97,-11.44 -276.61,-28.89 -412.16,12.64 -135.52,41.52 -258.89,135.8 -314.14,266.34 131.85,14.86 265.54,-18.19 386.41,-72.96 120.85,-54.76 230.74,-130.61 339.89,-206.03z"/>
  <path fill="#D9DAD9" fill-rule="nonzero" d="M1193.19 11514.33c-126.83,-83.13 -257.05,-167.72 -404.7,-202.16 -147.67,-34.39 -318.78,-8.97 -421.75,102.33 119.53,70.12 264.54,78.42 403.14,78.31 138.6,-0.1 308.49,-1.69 439.14,44.56l-15.83 -23.05z"/>
  <path fill="#D9DAD9" fill-rule="nonzero" d="M1193.95 11521.03c-216.81,-212.93 -299,-595.37 -211.78,-886.43 170.44,258.93 246.75,578.41 211.78,886.43z"/>
  <path fill="#D9DAD9" fill-rule="nonzero" d="M1790.1 10917.83c40.9,-95.06 69.65,-194.84 106.33,-291.6 36.68,-96.75 82.28,-191.98 151.6,-268.82 69.31,-76.83 165.16,-134.03 268.52,-139.15 -64.7,292.93 -259.27,554.68 -521.13,701.08l-5.31 -1.52z"/>
  <path fill="#D9DAD9" fill-rule="nonzero" d="M1682.22 11043.49c-67.66,-93.15 -145.84,-219.55 -237.6,-289.09 -91.76,-69.48 -211.23,-111.57 -323.23,-84.88 113.89,203.6 329.09,347.1 560.83,373.96z"/>
  <path fill="#D9DAD9" fill-rule="nonzero" d="M1703.8 10925.56c-44.35,-112.7 -89.02,-226.58 -106.96,-346.36 -17.95,-119.77 -7.02,-247.7 54.22,-352.21 119.01,225 157.34,466.48 58.8,701.11l-6.07 -2.54z"/>
  <path fill="#D9DAD9" fill-rule="nonzero" d="M1791.19 10226.98c67.4,-222.99 271.63,-387.22 492.09,-462.57 27.8,-9.5 57.24,-17.41 86.28,-12.92 29.02,4.48 57.49,24.32 63.58,53.07 8.05,37.95 -23.29,71.93 -52.77,97.14 -171.68,146.78 -373.48,258.23 -589.18,325.28z"/>
  <path fill="#D9DAD9" fill-rule="nonzero" d="M1793.63 10044.61c8.57,-143.78 17.55,-289.65 64.3,-425.91 46.77,-136.23 136.92,-264.05 268.05,-323.66 22.3,145.23 -41.77,289.73 -119.05,414.68 -77.27,124.96 -170.41,242.9 -216.83,382.31l3.53 -47.42z"/>
  <path fill="#D9DAD9" fill-rule="nonzero" d="M1790.1 10143.58c-55.71,-162.5 -61.48,-368.95 -158.8,-510.55 -68.03,-98.97 -176.98,-166.41 -235.59,-271.22 -38.96,97.88 -27.03,210.7 13.69,307.9 40.74,97.18 108.03,180.83 180.06,257.74 72.02,76.94 133.68,134.77 200.63,216.13z"/>
  <path fill="#D9DAD9" fill-rule="nonzero" d="M1791.19 14929.96c-4.31,0.03 -8.09,-1084.21 -8.38,-2421.37 -0.3,-1337.63 2.95,-2421.62 7.29,-2421.62 4.33,0 8.09,1083.99 8.39,2421.62 0.3,1337.16 -2.96,2421.37 -7.3,2421.37z"/>
  <path fill="#D9DAD9" fill-rule="nonzero" d="M2738.68 11682.19c0.3,1.02 -14.24,6.43 -40.76,15.28 -29.29,9.89 -66.98,22.6 -112.2,37.85 -94.59,32.24 -224.54,78.88 -365.57,136.69 -139.66,59.93 -271.35,108.54 -346.35,173.55 -37.47,32.06 -58.97,66.77 -69.59,92.05 -10.76,25.45 -12.68,41.03 -14.11,40.75 -0.54,-0.07 -0.36,-3.95 0.47,-11.37 1.24,-7.31 3.11,-18.22 7.96,-31.6 9.15,-26.73 30.06,-63.85 67.91,-98.13 37.7,-34.36 90.17,-65.25 150.3,-93.36 60.11,-28.05 126.73,-57.31 197.47,-86.37 141.46,-57.98 272.43,-103.14 368.08,-132.73 47.81,-14.9 86.82,-25.92 113.86,-33.16 27.1,-7.1 42.22,-10.52 42.53,-9.46z"/>
  <path fill="#D9DAD9" fill-rule="nonzero" d="M3049.25 10919.35c0.34,0.38 -3.6,4.58 -11.44,12.18 -9.23,8.68 -20.73,19.45 -34.78,32.66 -32.32,29.38 -76.29,69.31 -129.89,118.01 -112.13,99.85 -264.23,235.27 -432.29,384.91 -168.76,150.21 -314.59,293.75 -415.65,401.8 -50.61,53.99 -90.45,98.69 -117.64,129.9 -12.69,14.48 -23.08,26.34 -31.43,35.87 -7.28,8.13 -11.31,12.22 -11.72,11.9 -0.43,-0.35 2.78,-5.11 9.27,-13.91 6.57,-8.72 16.12,-21.68 29.19,-37.77 25.8,-32.49 64.48,-78.43 114.17,-133.47 99.26,-110.28 244.29,-255.5 413.37,-406 169.34,-149.86 323.43,-284.49 435.4,-381.52 54.95,-47.17 100.04,-85.84 133.17,-114.27 14.84,-12.32 26.99,-22.39 36.74,-30.48 8.52,-6.85 13.15,-10.24 13.52,-9.81z"/>
  <path fill="#D9DAD9" fill-rule="nonzero" d="M2258.68 11619.86c-4.43,-1.97 30.83,-83.37 65.96,-186.33 35.44,-102.89 52.13,-189.79 56.61,-189.05 4.1,0.43 -5.89,89.83 -41.78,194.11 -17.66,52.01 -37.15,97.8 -52.48,130.29 -15.36,32.49 -26.4,51.84 -28.32,50.99z"/>
  <path fill="#D9DAD9" fill-rule="nonzero" d="M1792.18 12276.11c-0.87,0.63 -10.1,-10.14 -26.01,-30.19 -17.64,-22.64 -39.97,-51.28 -66.61,-85.42 -55.95,-72.35 -133.31,-172.18 -220.02,-281.46 -86.76,-109.25 -166.44,-207.27 -224.19,-278.18 -27.22,-33.72 -50.05,-61.97 -68.07,-84.29 -15.9,-20.02 -24.3,-31.46 -23.49,-32.16 0.81,-0.71 10.79,9.39 28.13,28.21 17.37,18.83 41.95,46.5 71.93,81.11 59.97,69.13 141.11,166.16 227.97,275.55 86.82,109.43 162.89,210.45 216.61,284.53 26.88,37.04 48.27,67.3 62.67,88.45 14.41,21.19 21.97,33.19 21.1,33.83z"/>
  <path fill="#D9DAD9" fill-rule="nonzero" d="M1584.43 12009.41c-2.55,2.71 -57.98,-63.04 -87.03,-162.96 -21.42,-70.41 -22.38,-134.81 -19.74,-164.26l6.93 0.56c-3.09,12.57 -5.37,19.18 -6.62,18.97 -1.22,-0.18 -1.29,-7.18 -0.26,-20.1l6.92 0.57c2.53,29.2 6.97,91.38 27.79,159.81 28.05,96.83 76.22,164.72 72.02,167.41z"/>
  <path fill="#D9DAD9" fill-rule="nonzero" d="M1316.22 11672.02c-2.01,2.15 -19.85,-20.31 -60.76,-35.31 -40.6,-15.71 -101.68,-19.14 -168.72,-13.42 -67.09,4.94 -127.01,16.89 -169.9,27.44 -42.89,10.63 -69.09,18.97 -69.9,16.78 -0.71,-1.87 24.24,-13.94 66.93,-27.48 42.63,-13.41 103.38,-27.33 171.7,-32.34 67.77,-5.87 132.08,-0.63 174.04,18.75 42.52,18.86 58.01,45.2 56.6,45.59z"/>
  <path fill="#D9DAD9" fill-rule="nonzero" d="M1252.65 11590.24c-1.2,2.44 -35.39,-14.19 -93.11,-33.89 -57.58,-19.81 -139.64,-40.61 -232.27,-47.81 -92.68,-6.92 -176.94,1.2 -236.87,12.04 -60.04,10.73 -96.35,22 -97.16,19.39 -0.33,-1.03 8.44,-4.69 24.67,-10.49 16.16,-6.04 40.21,-12.92 70.31,-19.78 60.12,-13.76 145.86,-23.83 240.24,-16.77 94.3,7.31 177.53,30.26 234.87,53 28.72,11.3 51.44,21.79 66.51,30.19 15.17,8.2 23.28,13.17 22.8,14.12z"/>
  <path fill="#D9DAD9" fill-rule="nonzero" d="M1790.1 11244.48c-4.19,1.06 -34.59,-104.52 -67.89,-235.84 -33.31,-131.32 -56.91,-238.62 -52.7,-239.68 4.19,-1.06 34.58,104.52 67.89,235.84 33.29,131.32 56.89,238.62 52.7,239.68z"/>
  <path fill="#D9DAD9" fill-rule="nonzero" d="M1794.42 11244.48c-4.66,1.52 -24.21,-69.02 -75.25,-141.2 -49.67,-73.66 -113.07,-110.63 -110.75,-114.31 0.82,-1.62 18.33,4.8 42.74,22.07 24.48,17.03 54.74,45.9 80.84,83.23 52.98,75.11 66.22,149.93 62.42,150.21z"/>
  <path fill="#D9DAD9" fill-rule="nonzero" d="M1791.19 14352c-1.68,0.25 -4.86,-26.05 -17.09,-72.11 -12.09,-46.04 -34.83,-111.37 -72.46,-187.71 -74.92,-153.11 -211.21,-347.16 -384.41,-541.59 -85.84,-98.05 -169.11,-190.57 -239.77,-279.13 -70.79,-88.44 -128.98,-172.73 -171.45,-247.27 -42.62,-74.52 -70.35,-138.43 -86.55,-183.52 -7.96,-22.59 -13.79,-40.25 -17,-52.47 -3.43,-12.14 -4.97,-18.57 -4.46,-18.72 1.41,-0.46 9.3,24.79 27.15,69 17.84,44.17 46.91,106.88 90.41,180.12 43.4,73.27 102.07,156.28 173.13,243.77 70.96,87.68 154.35,179.67 240.32,277.91 173.67,194.91 309.65,391.44 382.59,547.06 36.67,77.63 58.05,144.2 68.4,191.06 5.01,23.47 8.4,41.77 9.6,54.37 1.56,12.54 2.11,19.15 1.57,19.22z"/>
  <path fill="#D9DAD9" fill-rule="nonzero" d="M2647.37 13384.93c0.51,1.15 -15.87,9.46 -44.87,25.21 -28.78,16.11 -69.61,41.06 -116.4,76.89 -46.78,35.85 -99.11,82.87 -152.85,139.45 -53.64,56.66 -108.91,122.48 -165.31,193.01 -112.77,141.49 -218.25,266.69 -281.41,366.62 -32.05,49.58 -55.37,91.38 -70.64,120.69 -15.4,29.27 -23.56,45.69 -24.7,45.2 -0.48,-0.21 0.95,-4.59 4.16,-12.75 3.34,-8.05 7.87,-20.16 15.07,-35.12 13.66,-30.31 35.64,-73.2 66.75,-123.9 61.34,-102.37 165.97,-229.28 278.55,-370.55 56.51,-70.66 112.45,-136.59 167.11,-193.19 54.76,-56.49 108.47,-103.21 156.63,-138.31 48.17,-35.1 90.33,-58.82 120.19,-73.45 14.87,-7.49 27.01,-12.08 35.04,-15.49 8.1,-3.33 12.45,-4.8 12.67,-4.3z"/>
  <path fill="#D9DAD9" fill-rule="nonzero" d="M2664.14 13698.65c0.19,2.3 -36.22,6.72 -94.86,13.78 -58.41,7.55 -139.74,17.34 -224.93,44.3 -84.88,27.66 -155.44,69.78 -201.41,105.7 -46.43,35.87 -68.31,65.57 -70.46,63.84 -0.76,-0.57 3.79,-8.66 14.03,-21.87 10.16,-13.27 26.76,-31.03 49.43,-50.57 45.23,-38.98 116.46,-83.61 203.6,-111.99 87.27,-27.65 169.72,-35.66 228.63,-40.43 59.16,-4.28 95.79,-4.8 95.97,-2.76z"/>
  <path fill="#D9DAD9" fill-rule="nonzero" d="M2100.16 13891.79c-4.94,-2.81 37.79,-68.11 70.95,-155.92 31.12,-88.6 38.4,-166.31 43.98,-165.43 2.01,0.25 1.93,19.7 -1.57,50.91 -3.72,31.08 -11.2,74.34 -27.67,119.89 -16.59,45.44 -38.32,83.47 -55.01,109.92 -16.91,26.44 -28.92,41.7 -30.68,40.64z"/>
  <path fill="#D9DAD9" fill-rule="nonzero" d="M2924.66 12542.66c0.19,0.53 -5.03,3.28 -15.17,8.09 -11.76,5.33 -26.5,12.04 -44.58,20.27 -19.52,8.37 -43.21,18.96 -69.91,33.05 -26.79,13.8 -58.07,28.07 -90.62,47.59 -16.54,9.43 -33.79,19.25 -51.74,29.45 -17.95,10.32 -35.69,22.57 -54.58,34.4 -38.14,23.12 -76.34,51.62 -117.13,80.7 -79.82,60.58 -163.74,132.28 -244.52,215.06 -80.01,83.61 -148.81,169.94 -206.62,251.78 -27.7,41.79 -54.87,80.94 -76.69,119.85 -11.17,19.28 -22.81,37.42 -32.51,55.71 -9.59,18.31 -18.8,35.87 -27.63,52.72 -18.43,33.2 -31.58,64.94 -44.5,92.2 -13.14,27.14 -22.95,51.21 -30.64,71.01 -7.59,18.32 -13.78,33.26 -18.72,45.23 -4.46,10.28 -7.04,15.61 -7.55,15.43 -0.51,-0.18 1.07,-5.87 4.56,-16.5 4.23,-12.25 9.52,-27.62 16.01,-46.39 6.84,-20.2 15.85,-44.67 28.31,-72.29 12.19,-27.71 24.72,-59.96 42.62,-93.67 8.59,-17.11 17.57,-34.96 26.9,-53.5 9.48,-18.57 20.93,-37.01 31.92,-56.53 21.49,-39.49 48.44,-79.21 76.01,-121.47 57.57,-82.92 126.6,-170.24 207.24,-254.48 81.43,-83.43 166.32,-155.39 247.19,-215.78 41.33,-28.99 80.08,-57.27 118.79,-80.08 19.16,-11.68 37.18,-23.72 55.39,-33.86 18.24,-9.96 35.78,-19.53 52.57,-28.71 33.09,-19.03 64.87,-32.66 92.14,-45.79 27.2,-13.38 51.36,-23.24 71.32,-30.76 18.55,-7.14 33.71,-12.96 45.8,-17.59 10.53,-3.88 16.14,-5.65 16.34,-5.15z"/>
  <path fill="#D9DAD9" fill-rule="nonzero" d="M2247.05 12996.69c-1.38,-0.25 6.17,-26.56 37.25,-55.52 30.35,-28.88 85.69,-55.64 150.14,-57.58 64.24,-1.7 119.93,16.27 157.98,30.86 38.25,15.04 60.49,27.23 59.73,29.03 -0.89,2.18 -24.71,-6.4 -63.38,-18.54 -38.52,-11.8 -92.97,-27.34 -153.83,-25.68 -60.67,1.88 -113.03,25.22 -143.41,50.32 -31.03,25.01 -41.99,48.63 -44.48,47.12z"/>
  <path fill="#D9DAD9" fill-rule="nonzero" d="M2145.76 13101.18c-4.28,-2.42 33.92,-58.41 42.62,-138.68 10.02,-80.15 -14.28,-143.46 -9.54,-144.8 1.72,-0.7 10.23,14.01 17.61,40.39 7.42,26.24 12.31,64.48 7.51,106.22 -4.93,41.7 -18.51,77.79 -31.75,101.63 -13.24,23.92 -24.92,36.32 -26.44,35.24z"/>
  <path fill="#D9DAD9" fill-rule="nonzero" d="M1042.35 14507.32c23.36,414.37 148.24,835.77 340.28,1261.82l835.16 0c183.16,-421.82 299.4,-842.57 320.05,-1261.82l-1495.5 0z"/>
  <path fill="#F7F7F6" fill-rule="nonzero" d="M2402.5 15177.83c0,4.34 -274.98,7.85 -614.11,7.85 -339.24,0 -614.16,-3.5 -614.16,-7.85 0,-4.34 274.92,-7.84 614.16,-7.84 339.13,0 614.11,3.49 614.11,7.84z"/>
  <path fill="#F7F7F6" fill-rule="nonzero" d="M2383.83 15327.93c0,4.34 -257.79,7.84 -575.71,7.84 -318.02,0 -575.75,-3.49 -575.75,-7.84 0,-4.31 257.73,-7.85 575.75,-7.85 317.92,0 575.71,3.53 575.71,7.85z"/>
  <path fill="#F7F7F6" fill-rule="nonzero" d="M1396.11 14779.39c4.31,0 7.84,86.12 7.84,192.37 0,106.25 -3.52,192.38 -7.84,192.38 -4.33,0 -7.85,-86.13 -7.85,-192.38 0,-106.25 3.51,-192.37 7.85,-192.37z"/>
  <path fill="#F7F7F6" fill-rule="nonzero" d="M1843.58 14779.39c4.32,0 7.83,89.2 7.83,199.22 0,110.03 -3.5,199.21 -7.83,199.21 -4.32,0 -7.84,-89.18 -7.84,-199.21 0,-110.02 3.51,-199.22 7.84,-199.22z"/>
  <path fill="#F7F7F6" fill-rule="nonzero" d="M2263.65 14776c4.33,0 7.84,91 7.84,203.22 0,112.21 -3.5,203.17 -7.84,203.17 -4.32,0 -7.84,-90.95 -7.84,-203.17 0,-112.21 3.51,-203.22 7.84,-203.22z"/>
  <path fill="#F7F7F6" fill-rule="nonzero" d="M2511.32 14779.39c0,4.34 -322.51,7.84 -720.26,7.84 -397.89,0 -720.34,-3.49 -720.34,-7.84 0,-4.3 322.46,-7.84 720.34,-7.84 397.76,0 720.26,3.53 720.26,7.84z"/>
  <path fill="#E5E6E5" fill-rule="nonzero" d="M15467.69 10915.43c148.17,-62.15 253.53,-214.94 254.37,-394.98 0.99,-235.84 -177.5,-427.88 -398.69,-428.91 -221.07,-1.02 -401.16,189.37 -402.15,425.21 -0.74,181.71 105.41,336.33 255.15,398.69 -616.2,92.84 -588.23,762.56 -588.23,762.56l1457.14 6.71c0,0 33.23,-677 -577.6,-769.27z"/>
  <path fill="#E5E6E5" fill-rule="nonzero" d="M8916.97 1179.61c103.75,-17.76 193.61,-99.68 220.76,-214.44 35.52,-150.39 -50,-299.33 -191,-332.7 -140.92,-33.33 -284,61.51 -319.48,211.89 -27.37,115.82 17.48,230.19 103.85,292.16 -406.95,-31.88 -488.16,399.61 -488.16,399.61l928.9 219.8c0,0 121.32,-427.14 -254.87,-576.33z"/>
  <path fill="#EFEFEF" fill-rule="nonzero" d="M15507.38 4774.41c86.55,-51.94 138.32,-156.42 122.67,-268.43 -20.59,-146.71 -148.8,-250.07 -286.4,-230.82 -137.57,19.21 -232.41,153.77 -211.82,300.49 15.88,113.03 95.76,199.64 194.49,224.97 -374.78,113.09 -297.2,526.93 -297.2,526.93l906.55 -126.77c0,0 -40.22,-423.9 -428.28,-426.37z"/>
  <polygon fill="#EFEFEF" fill-rule="nonzero" points="958.15,4902.41 468.4,4513.08 604.28,4342.17 932.68,4603.26 1412.24,4066.58 1575.04,4212.06 "/>
  <path fill="#2C3C43" fill-rule="nonzero" d="M15794.84 15781.74c0,5.07 -3536.07,9.22 -7897.03,9.22 -4362.47,0 -7897.81,-4.14 -7897.81,-9.22 0,-5.08 3535.34,-9.19 7897.81,-9.19 4360.96,0 7897.03,4.1 7897.03,9.19z"/>
  <path fill="#F3786E" fill-rule="nonzero" d="M1626.43 5466.56l-1083.14 543.29c-80.96,34.49 -133.52,114.01 -133.52,202.05l0 506.67c0,452.64 126.32,901.22 386.23,1297.22 195.1,297.24 453.86,677.22 884.38,894.45l194.34 0c479.26,-146.15 836.99,-535.8 1055.71,-869.03 259.9,-396 386.22,-844.55 386.22,-1297.22l0 -532.09c0,-88.03 -52.55,-167.55 -133.52,-202.05l-1233.82 -525.7c-55,-23.44 -267.87,-41.03 -322.87,-17.59z"/>
  <path fill="#CC5F52" fill-rule="nonzero" d="M1874.71 8910.23l-194.34 0c479.25,-146.15 836.99,-535.8 1055.7,-869.03 83.61,-127.36 153.38,-260.2 209.57,-396.81l0 373.3c-5.01,7.84 -10.11,15.71 -15.22,23.51 -218.72,333.23 -576.45,722.87 -1055.71,869.03zm1070.93 -2918.75l-1190.69 -507.34c-27.51,-11.72 -56.8,-17.59 -86.08,-17.59 -19.51,0 -39,2.58 -57.96,7.78l15.51 -7.78c18.34,-7.8 54.2,-11.08 95.93,-11.08 83.44,0 190.26,13.02 226.94,28.67l996.36 424.54 0 82.8z"/>
  <path fill="#F3786E" fill-rule="nonzero" d="M1582.78 5484.14l-1233.82 525.7c-80.97,34.49 -133.52,114.01 -133.52,202.05l0 506.67c0,452.64 126.33,901.22 386.24,1297.22 218.7,333.23 557.36,676.37 1078.71,894.45 479.25,-146.15 836.99,-535.8 1055.7,-869.03 259.91,-396 386.23,-844.55 386.23,-1297.22l0 -532.09c0,-88.03 -52.56,-167.55 -133.53,-202.05l-1233.81 -525.7c-55.01,-23.44 -117.18,-23.44 -172.18,0z"/>
  <path fill="#CC5F52" fill-rule="nonzero" d="M1668.87 7837.12c-446.71,0 -808.81,-362.11 -808.81,-808.81 0,-446.68 362.1,-808.82 808.81,-808.82 446.68,0 808.79,362.14 808.79,808.82 0,446.7 -362.11,808.81 -808.79,808.81z"/>
  <path fill="#FEFEFE" fill-rule="nonzero" d="M2004.65 6737.16c0,185.45 -150.34,335.77 -335.78,335.77 -185.45,0 -335.8,-150.32 -335.8,-335.77 0,-185.45 150.35,-335.8 335.8,-335.8 185.44,0 335.78,150.35 335.78,335.8z"/>
  <path fill="#FEFEFE" fill-rule="nonzero" d="M1055.63 7555.48c0,0 156.32,-372.94 600.88,-372.94 444.53,0 625.6,372.94 625.6,372.94 0,0 -198.3,292.97 -637.01,281.64 -397.15,-10.28 -589.47,-281.64 -589.47,-281.64z"/>
  <path fill="#2C3C43" fill-rule="nonzero" d="M2477.67 7028.3c-0.32,0 -0.86,-4.45 -1.6,-13.07 -0.7,-9.57 -1.65,-22.24 -2.84,-38.35 -0.56,-8.55 -1.18,-17.94 -1.87,-28.25 -1.15,-10.31 -3.42,-21.51 -5.29,-33.69 -3.97,-24.36 -7.75,-52.57 -17.15,-83.26 -14.44,-62.29 -43.82,-135.87 -89.97,-213.77 -46.54,-77.61 -113.54,-158.66 -204.66,-227.37 -90.83,-68.04 -205.37,-125.92 -337.55,-149.22 -131.27,-22.49 -279.42,-18.36 -420.48,35.27 -35.9,11.51 -69.64,29.31 -104.34,45.94 -32.87,19.88 -67.49,38.21 -98.07,63.1 -32.52,22.32 -60.94,50.29 -90.71,77.15 -26.88,29.81 -55.16,58.93 -78.34,92.77 -47.59,66.1 -89.15,139.54 -114.29,220.33 -26.05,80.26 -40.09,165.5 -41.25,252.29 1.16,86.79 15.14,172.07 41.2,252.36 25.13,80.82 66.69,154.27 114.28,220.4 23.18,33.83 51.46,63 78.36,92.8 29.78,26.91 58.2,54.84 90.73,77.19 30.58,24.89 65.21,43.22 98.06,63.1 34.7,16.64 68.46,34.43 104.37,45.94 141.07,53.64 289.25,57.76 420.54,35.27 132.16,-23.3 246.72,-81.17 337.54,-149.26 91.11,-68.71 158.11,-149.75 204.62,-227.36 46.15,-77.93 75.53,-151.48 89.96,-213.77 9.42,-30.65 13.17,-58.9 17.15,-83.23 1.87,-12.18 4.14,-23.38 5.29,-33.69 0.69,-10.31 1.31,-19.7 1.87,-28.25 1.19,-16.1 2.14,-28.78 2.84,-38.32 0.74,-8.65 1.28,-13.09 1.6,-13.09 0.31,0 0.41,4.44 0.29,13.09 -0.27,9.64 -0.61,22.39 -1.03,38.57 -0.31,8.58 -0.64,18.04 -1,28.43 -0.87,10.41 -2.85,21.71 -4.45,34.03 -3.42,24.58 -6.66,53.11 -15.61,84.22 -13.5,63.1 -42.18,137.86 -88.07,217.26 -46.27,79.1 -113.49,161.94 -205.57,232.45 -91.77,69.84 -208.05,129.45 -342.64,153.91 -133.65,23.59 -284.81,19.96 -429.11,-34.35 -36.7,-11.69 -71.25,-29.7 -106.72,-46.64 -33.65,-20.2 -69.04,-38.88 -100.38,-64.23 -33.27,-22.78 -62.42,-51.24 -92.87,-78.71 -27.59,-30.37 -56.5,-60.17 -80.27,-94.67 -48.77,-67.54 -91.33,-142.68 -117.14,-225.31 -26.71,-82.14 -41.08,-169.43 -42.22,-258.16 1.16,-88.73 15.54,-175.98 42.27,-258.09 25.82,-82.59 68.36,-157.69 117.14,-225.21 23.78,-34.53 52.69,-64.3 80.26,-94.67 30.46,-27.47 59.59,-55.93 92.86,-78.7 31.32,-25.32 66.73,-44 100.37,-64.2 35.47,-16.95 70.01,-34.95 106.7,-46.64 144.28,-54.31 295.42,-57.94 429.06,-34.35 134.57,24.43 250.85,84.07 342.64,153.91 92.07,70.48 159.31,153.32 205.6,232.41 45.9,79.41 74.58,154.16 88.08,217.3 8.95,31.07 12.2,59.6 15.61,84.22 1.61,12.28 3.59,23.58 4.46,34.04 0.36,10.34 0.69,19.84 1,28.42 0.42,16.21 0.76,28.96 1.03,38.57 0.12,8.65 0.02,13.1 -0.29,13.1z"/>
  <path fill="#2C3C43" fill-rule="nonzero" d="M3118.34 6606.76c0.64,-0.04 1.4,7.98 2.27,23.3 0.74,17.24 1.69,39.52 2.89,67.09 1.11,29.17 2.8,64.87 0.77,106.32 -0.62,20.84 -1.27,42.97 -1.96,66.38 -0.23,23.55 -1.7,48.34 -4.53,74.33 -4.99,51.98 -8.48,109.18 -19.2,169.71 -4.92,30.33 -8.78,61.9 -15.06,94.03 -6.89,32.03 -13.96,64.97 -21.2,98.73 -32.29,134.21 -76.99,280.15 -142.28,425.91 -65.53,145.62 -142.88,277.08 -221.25,390.92 -41.1,55.58 -78.99,109.25 -119.68,155.4 -19.96,23.34 -38.13,46.85 -57.64,67.65 -19.53,20.69 -38.32,40.61 -56.28,59.63 -34.97,38.85 -70.88,69.7 -100.83,98.38 -29.77,28.89 -57.24,51.7 -80.04,69.91 -21.49,17.38 -38.83,31.36 -52.26,42.2 -12.07,9.5 -18.59,14.22 -18.98,13.73 -0.4,-0.49 5.34,-6.22 16.63,-16.6 12.85,-11.51 29.4,-26.34 49.94,-44.74 22.01,-19.03 48.7,-42.51 77.68,-72.04 29.16,-29.24 64.26,-60.59 98.43,-99.82 17.6,-19.17 35.98,-39.23 55.11,-60.06 19.12,-20.94 36.9,-44.53 56.48,-67.94 39.94,-46.29 77.09,-99.96 117.54,-155.4 77.05,-113.55 153.35,-244.23 218.37,-388.73 64.79,-144.63 109.61,-289.23 142.58,-422.35 7.46,-33.47 14.74,-66.13 21.82,-97.88 6.52,-31.85 10.64,-63.17 15.86,-93.25 11.3,-60.07 15.51,-116.88 21.32,-168.5 3.22,-25.81 5.13,-50.46 5.81,-73.87 1.18,-23.3 2.3,-45.34 3.35,-66.07 3,-41.24 2.38,-76.79 2.36,-105.89 0.23,-27.59 0.41,-49.83 0.55,-67.06 0.33,-15.35 0.81,-23.44 1.44,-23.44z"/>
  <path fill="#2C3C43" fill-rule="nonzero" d="M11704.08 15781.74l-8349.29 0c-225.96,0 -409.15,-189.47 -409.15,-423.2l0 -12762.35c0,-233.74 183.19,-423.23 409.15,-423.23l8349.29 0c225.95,0 409.14,189.48 409.14,423.23l0.04 12762.33c0,233.74 -183.23,423.22 -409.18,423.22z"/>
  <path fill="#42616A" fill-rule="nonzero" d="M7689.34 15162.64c0,210.84 -174.08,381.75 -388.8,381.75 -214.76,0 -388.81,-170.91 -388.81,-381.75 0,-210.82 174.05,-381.76 388.81,-381.76 214.72,0 388.8,170.94 388.8,381.76z"/>
  <path fill="#42616A" fill-rule="nonzero" d="M8468.75 2892.13l-1872.29 0c-72.14,0 -130.58,-60.49 -130.58,-135.06 0,-74.61 58.44,-135.09 130.58,-135.09l1872.29 0c72.1,0 130.57,60.49 130.57,135.09 0,74.58 -58.47,135.06 -130.57,135.06z"/>
  <polygon fill="#FEFEFE" fill-rule="nonzero" points="3226.81,14508.84 11816.2,14508.84 11816.2,3143.85 3226.81,3143.85 "/>
  <polygon fill="#EFEFEF" fill-rule="nonzero" points="11449.81,14508.84 11816.22,14508.84 11816.22,3143.85 11449.81,3143.85 "/>
  <path fill="#D9DAD9" fill-rule="nonzero" d="M11633.04 7226.96l0 0c-63.1,0 -114.23,-51.13 -114.23,-114.24l0 -2513.98c0,-63.1 51.13,-114.23 114.23,-114.23 63.07,0 114.19,51.13 114.19,114.23l0 2513.98c0,63.11 -51.13,114.24 -114.19,114.24z"/>
  <path fill="#D9DAD9" fill-rule="nonzero" d="M10696.11 5730.22l-6333.35 0c-100.6,0 -182.17,-81.52 -182.17,-182.13 0,-100.63 81.56,-182.17 182.17,-182.17l6333.35 0c100.63,0 182.17,81.53 182.17,182.17 0,100.6 -81.53,182.13 -182.17,182.13z"/>
  <path fill="#F3786E" fill-rule="nonzero" d="M9722.05 4400.94l-3984.06 0c-100.59,0 -182.16,-81.58 -182.16,-182.17l0 0c0,-100.6 81.56,-182.17 182.16,-182.17l3984.06 0c100.59,0 182.16,81.56 182.16,182.17l0 0c0,100.59 -81.56,182.17 -182.16,182.17z"/>
  <path fill="#D9DAD9" fill-rule="nonzero" d="M9796.83 6463.51l-4534.75 0c-100.6,0 -182.17,-81.56 -182.17,-182.17l0 0c0,-100.6 81.56,-182.13 182.17,-182.13l4534.75 0c100.6,0 182.14,81.52 182.14,182.13l0 0c0,100.6 -81.53,182.17 -182.14,182.17z"/>
  <path fill="#D9DAD9" fill-rule="nonzero" d="M7749.48 9660.18l-3488.97 0c-100.6,0 -182.17,-81.56 -182.17,-182.17l0 0c0,-100.59 81.56,-182.17 182.17,-182.17l3488.97 0c100.59,0 182.17,81.58 182.17,182.17l0 0c0,100.6 -81.58,182.17 -182.17,182.17z"/>
  <path fill="#D9DAD9" fill-rule="nonzero" d="M10593.85 8897.27l-6333.34 0c-100.6,0 -182.17,-81.56 -182.17,-182.17l0 0c0,-100.6 81.56,-182.17 182.17,-182.17l6333.34 0c100.64,0 182.17,81.56 182.17,182.17l0 0c0,100.6 -81.52,182.17 -182.17,182.17z"/>
  <path fill="#D9DAD9" fill-rule="nonzero" d="M10593.85 11354.69l-5543.57 0c-100.59,0 -182.13,-81.53 -182.13,-182.14 0,-100.63 81.53,-182.17 182.13,-182.17l5543.57 0c100.64,0 182.17,81.53 182.17,182.17 0,100.6 -81.52,182.14 -182.17,182.14z"/>
  <path fill="#D9DAD9" fill-rule="nonzero" d="M10593.85 12133.35l-6333.34 0c-100.6,0 -182.17,-81.56 -182.17,-182.17 0,-100.59 81.56,-182.17 182.17,-182.17l6333.34 0c100.64,0 182.17,81.58 182.17,182.17 0,100.6 -81.52,182.17 -182.17,182.17z"/>
  <path fill="#D9DAD9" fill-rule="nonzero" d="M10593.85 12924.12l-6333.34 0c-100.6,0 -182.17,-81.58 -182.17,-182.17 0,-100.6 81.56,-182.17 182.17,-182.17l6333.34 0c100.64,0 182.17,81.56 182.17,182.17 0,100.59 -81.52,182.17 -182.17,182.17z"/>
  <path fill="#F3786E" fill-rule="nonzero" d="M4545.56 11172.55c0,104.49 -84.71,189.23 -189.22,189.23 -104.49,0 -189.22,-84.75 -189.22,-189.23 0,-104.52 84.74,-189.22 189.22,-189.22 104.52,0 189.22,84.71 189.22,189.22z"/>
  <path fill="#D9DAD9" fill-rule="nonzero" d="M10593.85 8185.74l-5543.57 0c-100.59,0 -182.13,-81.53 -182.13,-182.14l0 0c0,-100.63 81.53,-182.17 182.13,-182.17l5543.57 0c100.64,0 182.17,81.53 182.17,182.17l0 0c0,100.6 -81.52,182.14 -182.17,182.14z"/>
  <path fill="#F3786E" fill-rule="nonzero" d="M4545.56 8003.6c0,104.49 -84.71,189.19 -189.22,189.19 -104.49,0 -189.22,-84.71 -189.22,-189.19 0,-104.52 84.74,-189.22 189.22,-189.22 104.52,0 189.22,84.71 189.22,189.22z"/>
  <path fill="#F3786E" fill-rule="nonzero" d="M10416.85 14082.78l-1421.14 0c-160.31,0 -290.32,-129.97 -290.32,-290.32 0,-160.34 130.01,-290.32 290.32,-290.32l1421.14 0c160.34,0 290.32,129.98 290.32,290.32 0,160.35 -129.98,290.32 -290.32,290.32z"/>
  <path fill="#F3786E" fill-rule="nonzero" d="M3095.21 386.76l-1473.21 738.98c-110.14,46.92 -181.64,155.08 -181.64,274.78l0 689.14c0,615.68 171.84,1225.8 525.34,1764.42 265.36,404.34 617.31,921.14 1202.91,1216.62l264.33 0c651.86,-198.8 1138.44,-728.77 1435.93,-1182.02 353.49,-538.66 525.3,-1148.75 525.3,-1764.45l0 -723.72c0,-119.7 -71.47,-227.86 -181.63,-274.78l-1678.19 -715.07c-74.8,-31.89 -364.32,-55.79 -439.14,-23.91z"/>
  <path fill="#CC5F52" fill-rule="nonzero" d="M3432.94 5070.7l-264.33 0c-585.6,-295.48 -937.54,-812.28 -1202.91,-1216.62 -353.51,-538.63 -525.34,-1148.75 -525.34,-1764.42l0 -689.14c0,-119.7 71.5,-227.86 181.64,-274.78l1473.21 -738.98c24.94,-10.63 73.73,-15.04 130.49,-15.04 113.48,0 258.8,17.7 308.65,38.96l1678.19 715.07c110.16,46.92 181.63,155.08 181.63,274.78l0 723.72c0,615.71 -171.82,1225.8 -525.3,1764.45 -297.49,453.25 -784.07,983.21 -1435.93,1182.02z"/>
  <path fill="#F3786E" fill-rule="nonzero" d="M3035.84 410.67l-1678.18 715.07c-110.14,46.92 -181.63,155.08 -181.63,274.81l0 689.11c0,615.68 171.83,1225.8 525.33,1764.42 297.47,453.28 758.11,919.98 1467.24,1216.62 651.86,-198.8 1138.44,-728.77 1435.93,-1182.02 353.49,-538.66 525.31,-1148.75 525.31,-1764.45l0 -723.69c0,-119.73 -71.48,-227.89 -181.64,-274.81l-1678.17 -715.07c-74.82,-31.89 -159.38,-31.89 -234.2,0z"/>
  <path fill="#2C3C43" fill-rule="nonzero" d="M5124.44 1937.58c0.32,0 0.67,2.72 1.09,8.06 0.35,6.46 0.78,14.22 1.31,23.69 0.84,22.45 1.94,52.89 3.35,91.27 1.3,39.66 3.38,88.17 0.46,144.49 -0.92,28.25 -1.87,58.36 -2.9,90.25 -0.53,15.99 -1.09,32.45 -1.65,49.3 -1.56,16.81 -3.14,34.07 -4.77,51.73 -6.92,70.61 -11.79,148.34 -26.47,230.61 -6.75,41.17 -12.04,84.11 -20.63,127.75 -9.39,43.5 -19.07,88.24 -28.95,134.11 -44.04,182.38 -104.88,380.64 -193.58,578.66 -89.05,197.88 -194.06,376.55 -300.42,531.31 -55.79,75.57 -107.2,148.63 -162.39,211.4 -27.08,31.75 -51.74,63.77 -78.21,92.05 -26.52,28.22 -51.98,55.3 -76.34,81.17 -47.42,52.94 -96.12,95.03 -136.73,134.07 -20.69,19.14 -39.3,37.6 -57.62,53.36 -18.47,15.32 -35.42,29.38 -50.82,42.16 -29.7,24.33 -53.28,43.61 -70.65,57.84 -7.45,5.86 -13.59,10.66 -18.65,14.65 -4.26,3.24 -6.57,4.76 -6.74,4.51 -0.22,-0.25 1.69,-2.26 5.54,-5.97 4.77,-4.38 10.53,-9.64 17.52,-16.06 16.81,-14.86 39.59,-34.99 68.33,-60.42 15.03,-13.1 31.6,-27.55 49.65,-43.26 17.9,-16.09 36.12,-34.88 56.42,-54.31 39.8,-39.65 87.71,-82.24 134.32,-135.51 23.97,-26.06 49.05,-53.29 75.17,-81.64 26.06,-28.43 50.32,-60.53 77.05,-92.37 54.45,-62.89 105.12,-135.9 160.24,-211.36 105.02,-154.48 209,-332.35 297.52,-529.1 88.2,-196.92 149.15,-393.84 193.89,-575.09 10.1,-45.59 19.99,-90.08 29.56,-133.3 8.83,-43.36 14.4,-86.05 21.43,-126.98 15.29,-81.82 20.87,-159.14 28.61,-229.41 1.83,-17.58 3.63,-34.74 5.39,-51.48 0.78,-16.78 1.56,-33.16 2.3,-49.09 1.51,-31.74 2.96,-61.76 4.3,-89.89 3.92,-56.11 2.86,-104.56 2.65,-144.14 0.03,-38.35 0.1,-68.78 0.14,-91.2 0.17,-9.5 0.35,-17.31 0.49,-23.76 0.21,-5.33 0.46,-8.09 0.78,-8.13z"/>
  <path fill="#EFEFEF" fill-rule="nonzero" d="M3817.71 2863.77l-178.94 0 0 -974.11c0,-229.3 -186.53,-415.81 -415.82,-415.81 -229.28,0 -415.8,186.51 -415.8,415.81l0 974.11 -178.97 0 0 -974.11c0,-327.96 266.84,-594.8 594.78,-594.8 327.96,0 594.77,266.84 594.77,594.8l0 974.11z"/>
  <path fill="#FEFEFE" fill-rule="nonzero" d="M3819.3 3458.96l-1192.73 0c-113.32,0 -205.19,-91.87 -205.19,-205.19l0 -846.07c0,-113.31 91.86,-205.19 205.19,-205.19l1192.73 0c113.34,0 205.19,91.87 205.19,205.19l0 846.07c0,113.31 -91.84,205.19 -205.19,205.19z"/>
  <path fill="#2C3C43" fill-rule="nonzero" d="M3819.3 3458.96c-0.11,-1.37 19.14,0.18 53.39,-9.18 33.19,-9.25 84.47,-33.83 119.07,-91.98 17.41,-28.46 28.43,-65.11 28.36,-105.69 -0.22,-41.38 -0.5,-86.22 -0.75,-134.38 -0.42,-96.61 -0.88,-206.39 -1.37,-327.65 -0.57,-121.32 -1.17,-254.08 -1.84,-396.53 -4.19,-68.56 -48.79,-136.44 -116.45,-165.67 -33.86,-15.6 -70.12,-18.47 -109.82,-17.06 -39.12,0.07 -78.74,0.14 -118.85,0.18 -321.11,0.21 -673.95,0.46 -1044.32,0.74 -44.25,0.42 -88.12,15.14 -122.16,42.76 -33.86,27.44 -59.14,65.68 -68.51,107.84 -5.04,21.19 -5.91,42.02 -5.54,64.83 0,22.39 -0.01,44.7 -0.03,66.88 -0.02,44.45 -0.05,88.48 -0.08,132.16 -0.18,174.68 -0.36,343.18 -0.53,503.73 3.35,79.66 -13.31,162.01 27.82,225.04 37.35,63.63 109.15,99.78 178.66,96.36 142.67,0.39 275.64,0.78 397.12,1.13 242.02,1.2 438.21,2.22 575.01,2.89 67.08,0.74 119.56,1.34 156.35,1.73 17.13,0.39 30.58,0.71 40.64,0.92 9.15,0.32 13.84,0.63 13.84,0.95 0,0.32 -4.69,0.64 -13.84,0.92 -10.06,0.25 -23.51,0.53 -40.64,0.92 -36.79,0.42 -89.27,0.98 -156.35,1.72 -136.8,0.71 -332.99,1.7 -575.01,2.93 -121.47,0.32 -254.44,0.71 -397.12,1.13 -73.32,4.06 -152.22,-34.6 -192.53,-103.31 -20.94,-33.47 -31.05,-74.3 -30.72,-114.48 -0.05,-39.09 -0.12,-78.74 -0.18,-118.86 -0.16,-160.56 -0.34,-329.05 -0.53,-503.73 -0.03,-43.68 -0.06,-87.71 -0.09,-132.16 0,-22.18 -0.01,-44.49 -0.02,-66.88 -0.43,-21.89 0.42,-46.33 5.97,-69.06 10.27,-46.12 37.81,-88 74.86,-117.98 37.18,-30.19 85.3,-46.39 133.61,-46.78 370.37,0.25 723.21,0.49 1044.32,0.71 40.11,0.07 79.73,0.14 118.85,0.17 38.14,-1.37 80.9,1.84 116.43,18.9 73.09,31.92 120.86,105.4 125.06,179.33 1.16,143.78 -0.32,275.98 -0.39,397.63 -0.49,121.26 -0.95,231.04 -1.34,327.65 -0.28,48.16 -0.53,93.01 -0.78,134.38 -0.42,42.17 -12.49,80.26 -30.96,109.39 -36.83,59.64 -90.15,83.55 -124.26,91.84 -35.2,8.37 -54.34,5.62 -54.34,5.62z"/>
  <path fill="#F3786E" fill-rule="nonzero" d="M3345.99 2863.49c31.35,-31.61 50.76,-74.97 50.76,-123.09 0,-97.35 -78.94,-176.3 -176.32,-176.3 -97.36,0 -176.3,78.95 -176.3,176.3 0,80.57 54.39,147.78 128.21,168.82l-37.9 167.51 167.83 0 -33.74 -167.51c29.74,-8.48 56.32,-24.43 77.47,-45.72z"/>
  <path fill="#F9B59C" fill-rule="nonzero" d="M14282.4 4123.18l0 1430.95c3.07,247.46 39.44,635.8 -352.04,622.8 -338.84,-36.89 -428.7,-357.62 -431.36,-588.58 -1.23,-109.53 -2.5,-200.88 -3.38,-212.15 0,0 -370.87,-30.23 -402.19,-396.57 -15.11,-177 -16.6,-544.2 -14.08,-876.37 2.71,-356.77 279.38,-651.47 635.19,-677.45l35.34 -2.58c383.12,-5.58 537.53,316.84 532.52,699.95z"/>
  <path fill="#F69576" fill-rule="nonzero" d="M13495.62 5376.2c0,0 232.12,-3.32 467.12,-175.99 0,0 -96.9,276.3 -465.18,270.02l-1.94 -94.03z"/>
  <path fill="#2C3C43" fill-rule="nonzero" d="M13705.67 4253.37c7.28,7.42 49.58,-26.62 110.95,-28.29 61.3,-2.57 107.2,28.47 113.66,20.55 3.17,-3.49 -4.41,-17.05 -24.44,-31.1 -19.7,-13.98 -53,-27.2 -91.23,-25.88 -38.21,1.37 -69.95,16.74 -88.03,32.06 -18.47,15.39 -24.5,29.38 -20.91,32.66z"/>
  <path fill="#2C3C43" fill-rule="nonzero" d="M13704.72 4426.99c0.99,26.23 24.01,47.03 51.42,46.5 27.33,-0.53 48.76,-22.17 47.77,-48.37 -0.99,-26.23 -24.01,-47.03 -51.38,-46.53 -27.37,0.52 -48.8,22.21 -47.81,48.4z"/>
  <path fill="#2C3C43" fill-rule="nonzero" d="M13551.9 4680.3c0.04,-3.21 -35.41,-6.71 -92.69,-9.81 -14.51,-0.43 -28.36,-2.3 -31.5,-11.94 -4.13,-10.13 0.74,-26.09 6.5,-43.36 11.02,-35.8 22.49,-73.34 34.57,-112.67 47.7,-160.31 81.1,-291.7 74.64,-293.53 -6.5,-1.87 -50.42,126.55 -98.09,286.85 -11.44,39.48 -22.35,77.16 -32.73,113.17 -4.23,16.78 -12.25,35.98 -3.32,57.02 4.62,10.45 15.78,17.52 25.18,19.32 9.43,2.15 17.55,1.69 24.68,1.62 57.34,-1.13 92.8,-3.42 92.76,-6.68z"/>
  <path fill="#2C3C43" fill-rule="nonzero" d="M13731.77 3992.22c5.94,13.59 55.05,3.35 113.91,6.36 58.89,1.8 107.2,16.02 114.01,2.92 3,-6.25 -6.15,-18.82 -26.12,-30.93 -19.85,-12.14 -50.85,-22.77 -86.16,-24.25 -35.27,-1.42 -66.91,6.67 -87.5,17.16 -20.76,10.49 -30.72,22.25 -28.15,28.75z"/>
  <path fill="#2C3C43" fill-rule="nonzero" d="M13148.87 4084.13c6.43,11.13 54.34,-1.2 112.35,-2.99 58.05,-2.86 106.22,5.65 112.36,-5.98 2.68,-5.51 -6.89,-15.46 -27.12,-24.29 -20.05,-8.83 -51.06,-15.53 -85.84,-14.19 -34.81,1.45 -65.57,10.63 -85.34,21.05 -19.99,10.41 -29.28,21.11 -26.41,26.4z"/>
  <path fill="#2C3C43" fill-rule="nonzero" d="M12592.88 3774.39c3.98,-14.72 14.68,-26.87 27.86,-34.64 28.68,-16.92 61.73,-14.69 93.65,-15.18 97.24,-1.55 193.71,-31.25 275.52,-83.76 38.28,-55.22 81.38,-107.13 128.21,-155.36 111.02,-114.52 202.4,-192.44 296.92,-230.47 122.24,-49.23 326.69,-69.13 454.13,-35.73 127.47,33.47 241.94,136.87 259.67,267.48 71.51,-60.46 178.81,-59.93 265.85,-24.93l2.19 -0.95c96.96,34.57 152.04,137.01 180.65,235.88 28.64,98.86 40.82,204.62 93.19,293.21 10.94,18.54 23.93,40.75 14.4,60.04 -7.42,14.89 -26.34,21.04 -42.83,18.64 -16.46,-2.4 -31.08,-11.51 -45.13,-20.41 10.81,25.88 21.61,51.77 32.45,77.65 -35.09,6.15 -71.4,3.31 -105.47,-7.03 -20.62,92.48 -45.16,198.05 -68.96,260.73 -40.54,-0.11 -77.65,2.79 -102.64,25.24 -33.93,30.55 -49.12,87.99 -105.58,66.17 -28.71,-11.08 -54.91,-71.33 -64.51,-100.59 -63.81,-194.18 -84.96,-402.15 -61.94,-605.19 -40.15,-42.83 -88.63,-77.82 -141.91,-102.43l4.34 3.88c-102.36,-35.55 -218.19,-70.51 -315.32,-22.46 -75.36,37.29 -119.64,115.47 -175.99,177.86 -106.78,118.25 -250.77,182.52 -409.95,189.36 -5.4,103.14 3.24,248.94 -2.16,352.08l-86.79 -165.22 -0.07 0.81c-7.1,-12.07 -12.96,-24.29 -18.65,-36.5l-1.94 -3.71 0 -0.46c-9.04,-19.63 -17.62,-39.27 -29.02,-58.68l-0.99 0.88c-55.9,49.3 -138.25,-26.09 -94.18,-86.19 8.76,-11.9 19.21,-22.53 31.18,-31.29 -25.56,23.98 -63.63,35.45 -97.14,25.18 -33.51,-10.31 -59.46,-44.21 -56.56,-79.13 1.97,-23.83 19.03,-45.12 40.54,-54.55 -45.13,3.45 -91.31,-6.36 -130.65,-28.82 -25.81,-14.72 -51.13,-38.95 -42.37,-71.4z"/>
  <path fill="#42616A" fill-rule="nonzero" d="M14013.52 3528.77c-0.74,0.95 15.35,9.71 36.75,33.61 21.22,23.83 45.02,65.29 56.25,121.68 5.76,28.04 9.39,59.38 9.36,93.15 0.17,33.72 -2.54,69.87 -5.12,107.94 -2.47,38.11 -5.18,78.32 -2.75,120.2 1.2,20.87 3.7,42.16 8.26,63.38 4.59,20.87 10.1,43.54 25.85,61.52 12.57,14.61 33.54,21.11 51.73,17.37 18.29,-3.24 34.6,-12.99 46.54,-26.26 23.55,-27.55 29.45,-62.43 35.3,-93.19l-7.7 0.92c12.57,27.65 25.46,54.97 44.56,76.76 18.83,21.96 44.85,36.47 71.3,38.85 13.2,1.16 26.48,-0.96 37.78,-6.65 11.54,-5.62 19.95,-15.18 25.66,-25.28 5.52,-10.27 8.37,-21.57 7.81,-32.48 -0.63,-10.88 -4.87,-21.19 -11.76,-28.5l-3.88 3.46c28.25,32.2 58.08,49.47 78.71,59.07 10.41,4.79 18.75,7.66 24.39,9.46 5.69,1.69 8.66,2.4 8.73,2.15 0.1,-0.24 -2.75,-1.37 -8.27,-3.49 -5.43,-2.26 -13.52,-5.51 -23.65,-10.63 -19.99,-10.27 -48.87,-28 -75.99,-59.96l-3.85 3.49c12.32,13.03 13.03,35.98 2.4,54.45 -5.33,9.08 -13.03,17.59 -23.2,22.35 -10.1,4.98 -22.21,6.82 -34.25,5.59 -24.29,-2.4 -48.54,-16.03 -66.17,-36.9 -18.01,-20.83 -30.51,-47.42 -42.93,-75.11l-5.26 -11.75 -2.43 12.67c-5.87,30.72 -12.11,64.23 -33.62,89.05 -10.66,11.9 -25.6,20.73 -41.63,23.52 -16.06,3.07 -33.02,-2.19 -43.96,-14.72 -13.77,-15.54 -19.42,-37 -23.87,-57.56 -4.44,-20.72 -6.96,-41.52 -8.23,-62.07 -2.5,-41.18 0,-81.14 2.26,-119.18 2.36,-38.06 4.83,-74.4 4.34,-108.54 -0.28,-34.18 -4.27,-65.96 -10.53,-94.35 -12.18,-57.17 -37.35,-99.12 -59.7,-122.63 -22.56,-23.66 -39.23,-31.39 -39.23,-31.39z"/>
  <path fill="#42616A" fill-rule="nonzero" d="M12879.84 3885.33l2.96 2.51c2.47,1.79 5.48,3.98 9.15,6.67 3.98,3 9.07,6.5 15.5,9.96 6.36,3.63 13.55,8.05 22.31,11.72 34.04,16.21 88.59,32.24 156.84,28.26 67.59,-3.81 148.73,-27.76 221.18,-81.68 73.21,-52.65 137.47,-130.23 190,-218.99 26.62,-44.39 48.37,-89.9 72.32,-131.92 23.8,-42.02 50.08,-80.86 81.89,-111.55 31.46,-30.82 67.97,-53.6 105.58,-64.08 18.76,-5.59 37.67,-6.82 55.69,-6.4 18.08,0.95 35.2,4.59 50.99,9.78 31.6,10.6 57.06,28.08 76.41,45.97 19.42,18.16 32.41,37.25 41.35,53.68 16.67,33.68 17.59,55.29 18.93,54.94l-0.28 -3.85c-0.5,-3.03 -1.06,-6.71 -1.73,-11.19 -1.8,-9.85 -6.05,-24.08 -13.95,-41.42 -8.62,-16.92 -21.47,-36.72 -41,-55.61 -19.49,-18.69 -45.33,-36.97 -77.75,-48.27 -16.2,-5.51 -33.86,-9.46 -52.61,-10.63 -18.65,-0.67 -38.49,0.53 -57.91,6.15 -39.09,10.56 -76.87,33.9 -109.21,65.29 -32.73,31.25 -59.6,70.77 -83.69,113.06 -24.22,42.3 -45.97,87.71 -72.39,131.64 -52.15,88.13 -115.47,164.82 -187.28,217.01 -71.12,53.43 -150.32,77.44 -216.91,82 -67.09,4.72 -121.01,-10.14 -155.08,-25.21 -34.32,-15.29 -50.64,-28.85 -51.31,-27.83z"/>
  <path fill="#42616A" fill-rule="nonzero" d="M12846.51 3724.31c-0.32,0.5 4.37,3.74 13.13,9.15 8.69,5.58 21.96,12.46 38.92,19.78 16.91,7.45 37.84,14.4 61.61,20.23 23.84,5.4 50.57,9.39 78.78,10.45 28.29,0.74 55.19,-1.55 79.34,-5.39 24.08,-4.27 45.44,-9.89 62.78,-16.24 17.38,-6.22 31.08,-12.22 40.12,-17.24 9.07,-4.83 13.94,-7.77 13.7,-8.3 -0.71,-1.44 -20.98,8.97 -55.72,19.78 -17.31,5.55 -38.42,10.41 -62.12,14.19 -23.76,3.35 -50.14,5.36 -77.82,4.62 -27.65,-1.02 -53.81,-4.69 -77.33,-9.57 -23.37,-5.29 -44.13,-11.55 -61.09,-18.15 -33.96,-13.03 -53.49,-24.72 -54.3,-23.31z"/>
  <path fill="#2C3C43" fill-rule="nonzero" d="M13146.12 4253.37c7.27,7.42 49.58,-26.62 110.98,-28.29 61.26,-2.54 107.2,28.47 113.62,20.55 3.17,-3.49 -4.37,-17.05 -24.4,-31.1 -19.7,-13.98 -53.03,-27.2 -91.24,-25.88 -38.21,1.37 -69.98,16.74 -88.06,32.06 -18.47,15.39 -24.47,29.38 -20.9,32.66z"/>
  <path fill="#2C3C43" fill-rule="nonzero" d="M13208.69 4427.03c0.99,26.19 24.01,46.99 51.41,46.46 27.37,-0.53 48.76,-22.17 47.78,-48.37 -0.96,-26.23 -23.98,-47.03 -51.35,-46.53 -27.4,0.52 -48.83,22.21 -47.84,48.44z"/>
  <path fill="#F9B59C" fill-rule="nonzero" d="M14272.79 4396.9c6.08,-3.13 246.22,-92.8 256.5,158.2 10.27,250.95 -243.78,209.49 -244.52,202.33 -0.74,-7.17 -11.97,-360.52 -11.97,-360.52z"/>
  <path fill="#F69576" fill-rule="nonzero" d="M14357.54 4659.19c1.06,-0.85 4.48,2.89 12,5.97 7.35,3 19.85,4.76 32.73,-0.67 26.09,-10.81 46.72,-53.81 46.08,-99.08 -0.32,-22.88 -6.01,-44.42 -14.82,-62.11 -8.41,-18.05 -20.8,-30.37 -34.25,-32.21 -13.42,-2.5 -22.53,5.87 -25.32,13.03 -3.07,7.17 -1.27,12.11 -2.57,12.61 -0.67,0.63 -5.55,-3.99 -3.95,-14.44 0.81,-5.01 3.52,-11.09 9.21,-16.14 5.83,-5.11 14.58,-8.01 23.91,-7.38 19.42,0.57 37.56,17.66 47.27,37.04 10.77,19.46 17.7,43.64 18.05,69.31 0.46,50.67 -23.52,99.04 -59.35,111.01 -17.48,5.33 -32.42,0.6 -40.26,-5.01 -8.05,-5.86 -9.57,-11.44 -8.72,-11.93z"/>
  <path fill="#2C3C43" fill-rule="nonzero" d="M13730.82 4732.39c2.08,0.35 2.15,14.72 -6.57,35.94 -8.72,20.91 -27.79,48.09 -57.73,66.98 -29.73,19.21 -62.71,25.28 -85.56,22.95 -23.05,-2.01 -35.55,-9.67 -34.78,-11.58 0.89,-2.85 14.16,0 34.89,-1.41 20.69,-1.13 48.98,-8.33 75.53,-25.45 26.76,-16.89 45.16,-39.62 56.07,-57.41 10.84,-17.91 15.32,-30.73 18.15,-30.02z"/>
  <path fill="#42616A" fill-rule="nonzero" d="M14995.14 14660.35l75 848.73 265.25 655.24c19.1,47.21 -8.31,99.79 -59.74,114.53 -28.79,8.22 -59.78,2.99 -83.59,-14.3 -151.51,-110.25 -697.55,-515.43 -703.66,-568.18 -7.88,-68.35 -147.07,-902.88 -147.07,-902.88l653.8 -133.13z"/>
  <path fill="#2C3C43" fill-rule="nonzero" d="M15275.65 16278.85l-802.26 -679.2 7.88 62.89c5.4,34.39 6.01,53.08 30.05,74.54 64.34,57.48 252.36,233.51 672.21,541.85 24.43,17.93 62.74,9.14 92.12,-0.07z"/>
  <path fill="#FEFEFE" fill-rule="nonzero" d="M14631.26 15335c24.22,12.43 35.2,43.78 23.02,67.05 -12.21,23.26 -46.04,34.03 -70.47,22.04 -24.47,-12.01 -38.92,-49.3 -24.01,-71.13 14.9,-21.81 55.36,-32.45 76.02,-15.29l-4.55 -2.67z"/>
  <path fill="#2C3C43" fill-rule="nonzero" d="M15027.94 15929.35c5.36,1.83 20.69,-44.53 71.58,-73.77 49.93,-30.63 101.05,-23.65 101.62,-29 0.53,-2.15 -11.62,-7.59 -33.02,-8.29 -21.22,-0.81 -51.37,5 -79.23,21.46 -27.79,16.57 -46.36,39.66 -54.69,58.01 -8.55,18.48 -8.55,31.11 -6.26,31.58z"/>
  <path fill="#2C3C43" fill-rule="nonzero" d="M15104.92 16036.37c4.69,3.21 30.51,-27.18 75.7,-44.39 44.77,-18.15 85.91,-14.01 86.76,-19.45 2.12,-4.59 -43.26,-18.22 -94.46,2.18 -51.38,19.89 -72.95,59.81 -68,61.66z"/>
  <path fill="#2C3C43" fill-rule="nonzero" d="M14892.1 15795.89c4.65,3.61 44.1,-43.35 111.86,-75.92 67.26,-33.5 130.79,-36.92 130.33,-42.61 0.95,-4.65 -67.3,-9.75 -139.51,26.06 -72.57,35.06 -107.31,90.53 -102.68,92.47z"/>
  <path fill="#2C3C43" fill-rule="nonzero" d="M14846.34 15539.69c3,4.84 50.57,-19.67 115.08,-28.36 64.37,-9.49 117.48,0.85 118.82,-4.58 2.01,-4.38 -52.55,-23.94 -121.79,-13.91 -69.31,9.5 -115.39,43.21 -112.1,46.85z"/>
  <path fill="#2C3C43" fill-rule="nonzero" d="M14817.63 15291.07c3.31,4.62 50.18,-28.6 118.92,-32.48 68.64,-5.34 120.02,21.29 122.63,16.27 1.27,-1.95 -9.74,-11.59 -31.78,-20.76 -21.89,-9.26 -55.29,-16.6 -92.26,-14.19 -36.96,2.57 -68.92,14.26 -89.19,26.32 -20.41,12.09 -29.88,23.11 -28.32,24.83z"/>
  <path fill="#2C3C43" fill-rule="nonzero" d="M14929.6 15211.42c1.17,-0.11 1.91,-11.7 -2.36,-32.14 -4.3,-20.33 -14.05,-49.89 -36.58,-81.21 -11.51,-14.76 -23.9,-33.97 -50.32,-42.62 -13.13,-4.37 -31.53,-0.35 -40.96,11.93 -9.36,11.97 -11.12,26.2 -9.92,39.66 7.03,53.68 61.97,100.78 127.19,102.08 65.32,0.22 119.91,-40.3 140.25,-89.26 4.23,-12.58 6.43,-27.68 -2.15,-41.32 -8.51,-13.72 -27.48,-17.66 -40.15,-14.29 -26.34,6.43 -41.57,22.59 -56.07,34.92 -28.4,26.55 -44.81,53.13 -54.06,71.92 -9.26,18.93 -11.62,30.31 -10.53,30.65 3.39,1.92 18.05,-43.85 74.26,-92.97 14.26,-11.44 30.62,-25.7 49.69,-29.31 9.29,-1.83 17.76,0.88 21.89,7.67 4.23,6.5 3.53,17.3 -0.25,27.22 -17.34,40.15 -67.33,77.05 -122.56,76.07 -54.94,-0.57 -103.2,-42.06 -109.28,-85.17 -1.27,-10.42 0.49,-21.19 5.72,-27.98 5.12,-6.68 13.81,-9.22 22.46,-6.89 18.29,4.87 32.06,21.51 43.36,35.35 44.99,58.4 46.5,106.96 50.39,105.69z"/>
  <path fill="#42616A" fill-rule="nonzero" d="M12856.99 14704.14l33.44 718.75c0,0 -765.94,273.33 -773.54,406.73l1484.84 -10.88 -3.21 -1121.91 -741.52 7.31z"/>
  <path fill="#D9DAD9" fill-rule="nonzero" d="M13349.04 15359.04c28.82,7.2 48.9,37.39 42.48,64.76 -6.47,27.34 -38.99,46.82 -67.9,40.11 -28.92,-6.68 -54.24,-42.26 -44.6,-68.78 9.68,-26.48 49.2,-47.38 75.57,-34.35l-5.55 -1.73z"/>
  <path fill="#2C3C43" fill-rule="nonzero" d="M13601.73 15818.74l-5.05 -113.05 -1421.73 52.67c0,0 -65.89,27.55 -58.05,71.27l1484.84 -10.88z"/>
  <path fill="#2C3C43" fill-rule="nonzero" d="M12866.28 15415.96c0.32,6.82 36.58,9.64 72.46,31.29 36.44,20.79 55.08,50.18 61.73,47.41 6.67,-1.38 -4.48,-42.01 -48.37,-67.54 -43.65,-25.85 -87.43,-17.41 -85.81,-11.16z"/>
  <path fill="#2C3C43" fill-rule="nonzero" d="M12711.06 15477.65c-1.59,6.63 29.91,17.97 54.77,46.64 25.73,27.94 32.2,59.07 39.44,58.72 6.82,1.01 11.51,-38.96 -20.13,-74.02 -31.28,-35.31 -73.97,-37.84 -74.08,-31.35z"/>
  <path fill="#2C3C43" fill-rule="nonzero" d="M12624.06 15653.53c6.6,1.37 16.42,-32.74 -2.51,-69.91 -18.65,-37.32 -52.97,-51.81 -55.96,-46.12 -4.06,5.66 18.11,25.53 33.15,56.29 15.78,30.4 18.12,59.1 25.32,59.74z"/>
  <path fill="#2C3C43" fill-rule="nonzero" d="M12878 15251.38c3.11,6.19 36.26,-3.46 77.3,-1.13 41.03,1.52 73.02,14.22 76.76,8.34 4.16,-4.94 -27.18,-29.95 -75.53,-32.03 -48.3,-2.44 -82.13,19.49 -78.53,24.82z"/>
  <path fill="#2C3C43" fill-rule="nonzero" d="M12598.52 9543.56c0.85,41.63 172.49,5785.58 172.49,5785.58l917.78 0 185.94 -4913.56c0,0 217.09,2569.09 217.09,2624.57 0,55.5 191.56,2316.63 191.56,2316.63l850.91 -65.26 -55.76 -5173.23 -103.99 -758.5 -2376.02 183.76z"/>
  <path fill="#42616A" fill-rule="nonzero" d="M13970.19 10233.76c0.42,1.17 -12.89,6.36 -37.25,14.72 -24.36,8.41 -59.81,19.99 -103.64,33.9l-8.33 2.65 -0.6 -8.13c-5.12,-69.1 -10.88,-161.51 -16.28,-262.78 -5.83,-109.81 -10.1,-209.21 -12.28,-281.24 -1.1,-35.98 -1.66,-65.15 -1.66,-85.31 0.03,-20.17 0.63,-31.33 1.87,-31.4 1.27,-0.03 3.03,11.02 5.18,31.11 2.16,20.06 4.7,49.12 7.42,85.07 5.48,71.86 11.8,171.18 17.63,281 5.36,101.26 9.43,193.75 11.68,262.99l-8.93 -5.48c44.35,-12.5 80.43,-22.35 105.54,-28.78 25.11,-6.43 39.24,-9.47 39.66,-8.34z"/>
  <path fill="#42616A" fill-rule="nonzero" d="M13900.52 9636.45c-0.57,-0.77 2.96,-4.62 12.18,-7.52 9.07,-2.93 24.36,-3.74 40.54,3.28 15.81,6.18 33.33,24.36 30.72,47.24 -1.87,21.58 -19.46,45.06 -48.83,50.82 -29.49,4.79 -55.75,-10.28 -67.65,-28.82 -12.99,-19.32 -8.3,-41.49 0.74,-54.52 9.04,-13.66 21.47,-20.9 30.33,-23.87 9.04,-3 14.44,-2.5 14.62,-1.58 1.37,2.39 -20.7,6.57 -33.58,30.79 -6.08,11.58 -7.91,27.86 2.18,41.45 9.43,13.56 30.09,24.12 49.8,20.66 19.53,-3.49 33.82,-20.8 35.73,-36.36 2.61,-16.03 -8.09,-29.21 -20.24,-35.74 -25.77,-13.83 -45.93,-3.35 -46.53,-5.83z"/>
  <path fill="#42616A" fill-rule="nonzero" d="M14321.81 9695.35c-4.98,0.46 -11.94,-24.44 -15.5,-55.62 -3.6,-31.18 -2.47,-56.81 2.54,-57.27 4.97,-0.46 11.93,24.44 15.5,55.62 3.59,31.18 2.47,56.81 -2.54,57.27z"/>
  <path fill="#42616A" fill-rule="nonzero" d="M14385.47 9689.6c-5.01,0 -9.22,-26.52 -9.39,-59.25 -0.18,-32.73 3.74,-59.28 8.76,-59.32 5.01,0 9.21,26.48 9.39,59.25 0.18,32.73 -3.74,59.28 -8.76,59.32z"/>
  <path fill="#42616A" fill-rule="nonzero" d="M13279.16 9729.22c-4.97,0.49 -12.74,-29.35 -17.34,-66.67 -4.58,-37.32 -4.27,-67.93 0.71,-68.42 5.01,-0.5 12.74,29.34 17.34,66.66 4.59,37.32 4.27,67.93 -0.71,68.43z"/>
  <path fill="#42616A" fill-rule="nonzero" d="M13356.28 9734.72c-4.44,1.59 -20.69,-28.92 -22.42,-69.84 -2.01,-40.96 11.4,-72.53 15.96,-71.29 5.11,1.09 0.24,32.38 2.18,70.61 1.55,38.25 9.26,69.06 4.27,70.51z"/>
  <path fill="#42616A" fill-rule="nonzero" d="M13065.99 9657.99c1.1,0.18 -0.03,9.18 -3.07,25.32 -2.75,16.16 -8.9,39.3 -18.43,67.33 -18.86,56.07 -55.47,131.39 -113.66,204.7 -58.47,73.16 -126.13,128.74 -179.27,163.06 -26.55,17.2 -48.93,30.02 -65.18,37.64 -16.06,7.84 -25.17,11.72 -25.74,10.87 -1.48,-2.22 33.27,-20.62 83.9,-56.7 50.64,-35.95 115.61,-91.56 172.99,-163.35 57.06,-71.9 94.6,-144.98 116,-199.46 21.57,-54.56 29.66,-89.94 32.48,-89.41z"/>
  <path fill="#42616A" fill-rule="nonzero" d="M15050.43 10045.07c0.11,0.88 -9.74,2.71 -27.83,4.09 -18.04,1.41 -44.45,1.69 -76.83,-1.34 -64.41,-5.66 -154.27,-28.46 -235.1,-81.75 -80.82,-53.32 -131.67,-123.37 -156.63,-176.65 -12.78,-26.76 -20.24,-49.41 -24.05,-65.22 -3.84,-15.82 -4.76,-24.79 -3.77,-24.96 2.89,-0.67 10.7,34.56 38.32,85.87 27.11,51.06 77.82,117.76 155.85,169.25 78.04,51.45 164.3,75.14 226.87,83.26 63.07,8.48 103.07,4.77 103.17,7.46z"/>
  <path fill="#42616A" fill-rule="nonzero" d="M13555.22 12953.82c-1.17,3.87 -153.28,-29 -339.72,-73.45 -186.51,-44.46 -336.69,-83.66 -335.52,-87.53 1.16,-3.89 153.24,28.98 339.72,73.43 186.47,44.46 336.68,83.66 335.52,87.55z"/>
  <path fill="#42616A" fill-rule="nonzero" d="M15034.01 12744.78c2.19,3.49 -130.19,72.67 -295.65,154.4 -165.5,81.79 -301.41,145.2 -303.6,141.67 -2.15,-3.52 130.19,-72.66 295.69,-154.44 165.46,-81.75 301.37,-145.16 303.56,-141.63z"/>
  <path fill="#F9B59C" fill-rule="nonzero" d="M12152.94 7598.56l125.5 156.88 0 -269.95 395.29 0c0,0 43.93,618.22 34.53,749.96 -3.31,46.11 -23.51,122.24 -48.37,201.66 -51.59,164.68 -259.42,216.2 -383.22,95.97 -41.56,-40.39 -83.86,-86.33 -123.72,-137.6 -175.7,-225.92 -467.61,-776.16 -467.61,-776.16l304.44 -183.89 163.17 163.13z"/>
  <path fill="#F69576" fill-rule="nonzero" d="M12127.94 7569.57c-1.94,1.76 18.44,27.55 51.66,68.96 33.3,41.35 79.56,98.3 132.35,159.92 52.89,61.55 102.67,115.82 141.41,152.61 38.5,37.04 65.68,56.28 67.16,54.41 1.77,-2.15 -22.07,-24.57 -57.76,-63.63 -35.98,-38.77 -83.94,-94.1 -136.73,-155.5 -104.56,-123.58 -193.61,-220.9 -198.09,-216.77z"/>
  <polygon fill="#F9B59C" fill-rule="nonzero" points="13054.8,5698.94 13471.68,5535.45 14239.67,5491.98 14600.61,5629.24 14105.99,5903.92 13679.51,5888.27 "/>
  <path fill="#42616A" fill-rule="nonzero" d="M12563.07 9622.12c37.71,6.5 2553.96,113.34 2553.96,113.34l-88.38 -2262.47 -7.24 -444.24 -142.94 -1345.71c0,0 -376.13,-129.3 -568,-191.07 0,0 -201.98,210.52 -586.01,204.81 -375.42,-5.55 -453.84,-90.18 -453.84,-90.18l-524.89 201.23c0,0 -373.22,133.79 -437.45,298.97 -62.51,160.74 -177.05,1078.8 -177.05,1078.8l544.06 0 -10.31 1621.8 -101.9 814.71z"/>
  <polygon fill="#384F57" fill-rule="nonzero" points="14600.61,7341.46 14223.15,7172.9 14145.15,6602.53 14879.6,6574.17 14879.6,7103.68 "/>
  <path fill="#2C3C43" fill-rule="nonzero" d="M14869.71 6764.32c0,4.73 -156.84,8.58 -350.31,8.58 -193.54,0 -350.38,-3.84 -350.38,-8.58 0,-4.73 156.84,-8.58 350.38,-8.58 193.47,0 350.31,3.84 350.31,8.58z"/>
  <path fill="#2C3C43" fill-rule="nonzero" d="M12393.55 6342.5c0.43,-0.07 1.8,5.08 4.02,15.04 2.58,11.23 5.91,25.67 10.03,43.68 9.47,37.95 24.72,93.11 50.11,160.52 25.03,67.58 60.46,146.83 103.75,235.91 40.96,90.74 78.03,195.16 116.77,308.33l0.39 1.16 0 1.31c-0.92,135.48 -1.91,283.85 -2.93,438.83 -3.67,346.01 -6.96,659.1 -9.36,887.7 -1.97,112.32 -3.6,203.78 -4.72,268.96 -0.89,30.55 -1.59,54.87 -2.12,73.06 -0.64,16.74 -1.27,25.49 -1.84,25.46 -0.56,0 -1.05,-8.83 -1.44,-25.56 -0.25,-18.23 -0.57,-42.59 -0.95,-73.17 -0.11,-65.18 -0.29,-156.7 -0.46,-269.07 1.16,-228.56 2.78,-541.66 4.58,-887.59 1.38,-154.94 2.72,-303.25 3.95,-438.73l0.39 2.43c-38.02,-112.88 -74.4,-217.72 -113.97,-307.72 -42.27,-89.3 -76.98,-169.78 -100.88,-238.1 -24.26,-68.25 -38.18,-124.15 -46.12,-162.64 -3.73,-19.28 -6.43,-34.18 -7.7,-44.35 -1.41,-10.1 -1.94,-15.39 -1.48,-15.46z"/>
  <path fill="#2C3C43" fill-rule="nonzero" d="M15061.2 6077.82c1.17,0.1 0.74,17.3 -0.46,48.26 -1.27,33.97 -2.92,78.14 -4.9,131.36 -4.48,113.8 -10.49,265.56 -17.13,433.36 -7.59,167.79 -14.44,319.55 -19.6,433.36 -3.07,53.15 -5.62,97.32 -7.56,131.25 -2.15,31.01 -3.84,48.09 -4.97,48.06 -1.13,-0.04 -1.55,-17.24 -1.38,-48.27 0.6,-34 1.41,-78.25 2.37,-131.49 2.75,-110.98 7.8,-264.3 14.82,-433.62 7.03,-169.24 14.76,-322.42 21.93,-433.25 3.56,-55.4 7.07,-100.25 10.06,-131.18 3.18,-30.93 5.76,-47.95 6.82,-47.84z"/>
  <path fill="#33484E" fill-rule="nonzero" d="M12641.99 7098.74c-165.71,-185.23 -259.29,-425.76 -247.07,-674.03 68.04,223.37 195.86,440.64 247.07,674.03z"/>
  <path fill="#33484E" fill-rule="nonzero" d="M13500.1 8664.54c262.21,-219.55 477.11,-530.5 623.75,-923.4 -9.82,163.03 -46.01,318.71 -118.96,461.72 -53.64,105.15 -124.5,205.33 -202.83,293.64 -78.28,88.34 -184.35,158.05 -301.97,168.03z"/>
  <path fill="#2C3C43" fill-rule="nonzero" d="M14170.15 7569.78c0.53,0.14 -0.18,5.12 -2.08,14.51 -2.47,11.19 -5.48,24.68 -9.08,40.82 -3.81,17.8 -9.32,39.34 -16.95,64.02 -7.35,24.75 -15.15,53.18 -26.45,83.69 -20.37,61.79 -50.18,133.43 -86.79,211.29 -37.92,77.26 -83.79,160.2 -138.45,243.18 -55.33,82.59 -113.98,157.09 -170.7,221.85 -57.83,63.73 -112.6,118.78 -162.18,160.98 -23.93,22.03 -47.38,39.9 -67.58,55.96 -19.99,16.39 -37.95,29.49 -53.07,39.63 -13.7,9.32 -25.1,17.09 -34.6,23.55 -7.99,5.25 -12.32,7.77 -12.64,7.31 -0.35,-0.46 3.38,-3.88 10.77,-9.99 8.97,-7.14 19.74,-15.68 32.66,-25.95 14.47,-10.88 31.78,-24.68 51.13,-41.64 19.57,-16.67 42.34,-35.02 65.64,-57.48 48.3,-43.01 101.8,-98.51 158.59,-162.28 55.64,-64.84 113.48,-139.02 168.39,-220.94 54.2,-82.38 100.1,-164.44 138.52,-240.78 37.07,-76.94 67.79,-147.63 89.44,-208.57 11.93,-30.09 20.48,-58.09 28.6,-82.46 8.45,-24.32 14.8,-45.51 19.53,-62.99 4.76,-15.82 8.73,-29.03 12.04,-40.01 2.89,-9.08 4.69,-13.81 5.26,-13.7z"/>
  <path fill="#2C3C43" fill-rule="nonzero" d="M14097.44 6861.7c0.57,0.08 -0.46,8.02 -2.93,23.06 -2.92,16.6 -6.78,38.46 -11.58,65.71 -4.83,28.57 -11.58,63.39 -21.78,103.28 -9.93,39.98 -19.53,85.95 -35.17,135.38 -7.35,24.92 -15.04,50.99 -23.02,78.06 -8.16,27.08 -18.68,54.63 -28.5,83.52 -18.89,58.01 -44.28,118.08 -69.91,181.67 -54.56,125.82 -122,261.05 -204.1,396.46 -83.26,134.78 -173.02,256.39 -260.23,362.21 -44.99,51.8 -86.9,101.72 -129.98,144.94 -21.26,21.9 -41,43.79 -61.41,63.39 -20.48,19.46 -40.19,38.14 -59,56.03 -36.93,36.41 -73.52,65.89 -104.59,92.87 -30.86,27.27 -58.82,49.09 -82.07,66.42 -22.07,16.71 -39.76,30.05 -53.21,40.22 -12.29,9.04 -18.89,13.56 -19.21,13.1 -0.35,-0.46 5.58,-5.86 17.2,-15.71 12.96,-10.73 29.98,-24.89 51.27,-42.55 22.56,-18.08 49.86,-40.54 80.05,-68.39 30.4,-27.58 66.31,-57.52 102.6,-94.35 18.51,-18.05 37.89,-36.9 58.05,-56.57 20.09,-19.74 39.52,-41.77 60.46,-63.73 42.44,-43.44 83.83,-93.47 128.25,-145.27 86.19,-105.86 175.06,-227.04 257.9,-361.11 81.68,-134.74 149.12,-269 204.17,-393.89 25.88,-63.13 51.63,-122.7 71.01,-180.29 10.03,-28.64 20.8,-55.93 29.24,-82.85 8.34,-26.86 16.32,-52.72 23.98,-77.43 16.27,-49.05 26.62,-94.67 37.32,-134.28 11.05,-39.59 18.64,-74.08 24.46,-102.4 6.05,-27 10.88,-48.61 14.55,-65 3.53,-14.87 5.65,-22.6 6.18,-22.5z"/>
  <path fill="#D9DAD9" fill-rule="nonzero" d="M12109.33 6157.9c155.08,235.7 783.08,1190.62 968.74,1473 20.51,31.14 -5.01,71.82 -42.02,67.19l-1115.63 -140.36c-11.9,-1.48 -22.67,-7.84 -29.77,-17.55l-1065.63 -1455.35c-22,-30.05 1.3,-72.11 38.49,-69.35l1147.87 84.93c39.87,2.92 75.99,24.08 97.95,57.48z"/>
  <path fill="#2C3C43" fill-rule="nonzero" d="M12109.33 6157.9c0,0 -2.29,-5.01 -8.9,-13.38 -6.68,-8.2 -17.8,-20.06 -36.08,-30.41 -17.84,-11.05 -44.42,-16.98 -74.33,-18.04 -30.23,-2.51 -64.9,-5.37 -103.82,-8.55 -157.16,-12.32 -383.01,-30.05 -661.71,-51.91 -69.88,-5.36 -143.08,-10.98 -219.31,-16.85 -38.14,-2.89 -77.02,-5.86 -116.67,-8.9 -10.31,-0.6 -18.97,-1.9 -30.76,-1.9 -11.72,0.25 -23.41,5.29 -32.1,13.31 -17.9,15.71 -22.45,45.23 -8.47,65.53 97.17,133.3 200.98,275.67 310.2,425.46 218.75,299.15 459.17,627.89 711.53,973 16.17,21.86 30.62,42.44 48.16,65.15 5.48,5.9 12.29,10.56 19.81,13.41 7.88,3.11 15.61,3.43 21.65,4.27l39.34 4.94c52.4,6.57 104.45,13.1 156.1,19.6 103.31,12.96 205.12,25.7 305.15,38.25 200.1,24.99 393.07,49.08 576.97,72.03 11.97,1.31 21.89,3.21 35.41,3.95 13.67,0.18 27.59,-5.58 36.97,-15.39 9.68,-9.64 15.11,-23.02 15.29,-36.65 0.49,-13.38 -7.32,-27.72 -13.45,-35.76 -24.86,-37.67 -49.37,-74.83 -73.56,-111.47 -48.33,-73.24 -95.3,-144.35 -140.71,-213.11 -90.85,-137.39 -175.49,-265.38 -252.82,-382.33 -154.66,-232.91 -279.98,-421.61 -367.16,-552.93 -43.29,-64.44 -77.11,-114.8 -100.63,-149.82 -11.3,-16.46 -20.09,-29.28 -26.55,-38.71 -6.08,-8.65 -9.32,-12.99 -9.57,-12.81 -0.28,0.17 2.44,4.87 7.98,13.87 6.08,9.64 14.37,22.81 25.04,39.73 22.81,35.45 55.64,86.44 97.66,151.73 86.06,132.06 209.67,321.89 362.25,556.13 76.76,117.34 160.77,245.77 250.91,383.61 45.16,68.92 91.84,140.22 139.94,213.63 24.08,36.69 48.48,73.94 73.24,111.69 7.13,9.99 10.27,16.77 10.55,26.51 -0.14,9.04 -3.84,18.29 -10.45,24.78 -6.43,6.68 -15.57,10.35 -24.82,10.28 -9.46,-0.53 -22.35,-2.65 -33.37,-3.92 -183.86,-23.3 -376.8,-47.73 -576.82,-73.09 -100.04,-12.64 -201.84,-25.49 -305.16,-38.53 -51.66,-6.54 -103.71,-13.1 -156.06,-19.7l-39.38 -4.94c-7.03,-0.96 -12.74,-1.27 -17.27,-3.18 -4.9,-1.87 -9.32,-4.9 -12.88,-8.72 -15.54,-21.08 -31.15,-42.27 -46.79,-63.49 -252.78,-344.81 -493.56,-673.26 -712.7,-972.16 -109.5,-149.19 -213.6,-290.96 -311.06,-423.69 -9.88,-14.15 -6.82,-34.7 5.83,-46.04 6.12,-5.65 14.05,-9.22 22.46,-9.43 8.27,-0.07 19.49,1.24 28.99,1.77 39.66,2.82 78.57,5.61 116.71,8.33 76.27,5.43 149.47,10.67 219.38,15.64 278.92,19.39 504.89,35.1 662.17,46.01 38.99,2.57 73.7,4.83 103.92,6.85 30.41,0.56 54.95,5.62 72.96,15.81 35.98,19.96 45.65,41.85 46.78,40.51z"/>
  <path fill="#2C3C43" fill-rule="nonzero" d="M10825.03 6084.84c-0.04,0.56 7.98,1.73 23.41,3.46 16.99,1.72 39.48,3.98 67.68,6.85 60.85,5.4 146.22,12.99 252.12,22.39 216.27,17.65 515.84,42.12 857.33,69.98l-6.82 -3.95c53.64,79.72 109.04,162.49 164.62,248.02 226.2,347.77 423.83,667.43 573.12,894.86 74.19,114.01 135.87,205.19 178.84,267.94 21.12,30.09 37.85,53.95 50.33,71.72 11.68,16.24 18.08,24.61 18.61,24.25 0.53,-0.35 -4.8,-9.43 -15.5,-26.37 -11.72,-18.22 -27.55,-42.72 -47.42,-73.59 -42.02,-65.53 -101.12,-157.73 -173.8,-271.04 -146.35,-229.13 -342.15,-549.82 -568.63,-897.91 -55.61,-85.59 -111.15,-168.42 -165.07,-248.13l-2.47 -3.63 -4.38 -0.32c-341.65,-25.35 -641.41,-47.59 -857.82,-63.66 -106.08,-7.1 -191.6,-12.85 -252.54,-16.96 -28.32,-1.55 -50.89,-2.78 -67.94,-3.74 -15.49,-0.67 -23.58,-0.74 -23.65,-0.17z"/>
  <polygon fill="#FEFEFE" fill-rule="nonzero" points="11516.76,6292.93 11516.69,6292.93 11516.27,6292.79 "/>
  <path fill="#FEFEFE" fill-rule="nonzero" d="M11489.11 6309.56c2.78,-13.24 15.28,-18.76 27.58,-16.64 13.24,3.95 19.99,7.03 29.94,16.85 10.07,9.89 14.3,27.23 5.45,38.21 -11.12,13.77 -34.04,8.69 -47.46,-2.86 -10.27,-8.86 -18.29,-22.28 -15.49,-35.55z"/>
  <path fill="#F9B59C" fill-rule="nonzero" d="M12010.22 7135.11c0,0 43.99,-104.94 -67.73,-118.5 -111.71,-13.52 -405.07,0 -405.07,0 0,0 -160.38,16.95 -126.52,132.06 0,0 -94.81,84.64 -44.03,176.05 50.81,91.42 71.12,64.34 71.12,64.34 0,0 -13.56,111.75 71.11,128.67 0,0 91.77,108.37 176.24,101.58 84.46,-6.78 443.39,-179.44 467.08,-213.31 23.69,-33.86 57.55,-53.14 37.25,-90.88 0,0 44.03,-99.08 -50.78,-114.16 0,0 -6.78,-82.77 -128.67,-65.85z"/>
  <path fill="#F69576" fill-rule="nonzero" d="M11501.12 7173.04c0.04,2.57 28.89,4.44 75.5,5.43 46.6,0.95 110.94,1.02 182.02,-0.07 70.95,-2.33 135.45,0.42 182.84,-10.87 48.2,-11.16 67.09,-39.45 64.83,-40.05 -1.97,-2.4 -22.28,20.16 -67.55,27.18 -44.31,7.46 -109.42,2.86 -180.4,5.16 -71.08,1.09 -135.37,3.1 -181.96,5.51 -46.53,2.36 -75.31,5.15 -75.28,7.7z"/>
  <path fill="#F69576" fill-rule="nonzero" d="M11581.13 7342.31c-0.28,0.99 8.09,4.94 24.29,8.37 16.13,3.49 40.22,6.19 69.81,4.34 29.59,-1.73 64.44,-7.98 101.83,-18.47 37.46,-10.35 77.33,-24.75 119.42,-37.67 42.02,-12.99 82.7,-22.35 120.16,-24.79 36.58,-1.65 76.16,-0.67 102.36,-20.69 12.95,-9.22 21.85,-21.89 24.43,-34.85 2.47,-12.74 -0.11,-23.94 -4.23,-31.74 -8.83,-16.13 -20.84,-17.06 -20.52,-16.13 -0.95,1.44 8.65,4.83 13.91,19.1 5.83,13.7 2.75,38.78 -20.98,52.76 -22.77,15.56 -56.63,13.76 -95.9,14.47 -39.48,1.59 -81.96,10.91 -124.68,24.11 -41.73,13.7 -81.52,26.76 -118.78,38.99 -36.4,11.19 -69.8,18.51 -98.2,21.82 -56.99,7.03 -92.29,-2.82 -92.94,0.39z"/>
  <path fill="#F69576" fill-rule="nonzero" d="M11701.12 7485.49c0.67,2.4 29.48,-3 75.38,-14.61 45.87,-11.58 108.76,-29.53 177.36,-51.98 68.64,-22.49 129.98,-45.2 173.84,-63 43.85,-17.76 70.29,-30.44 69.41,-32.8 -1.9,-4.9 -112.21,33.44 -249.04,78.14 -136.69,44.84 -248.34,79.13 -246.96,84.25z"/>
  <path fill="#F69576" fill-rule="nonzero" d="M11672.33 7618.33c0.36,2.25 24.54,1.3 62.58,-7.21 38.02,-8.3 89.22,-25.74 142.93,-50.32 53.81,-24.47 100.77,-49.51 134.78,-67.51 33.93,-18.19 54.66,-30.02 53.56,-32.42 -2.36,-5.55 -90.18,33.12 -196,82.99 -105.66,50.67 -198.52,69.62 -197.85,74.47z"/>
  <path fill="#F9B59C" fill-rule="nonzero" d="M15239.52 6608.67c0,0 -228.11,913.9 -513.13,1251.22 -276.02,326.69 -708.61,176.52 -858.39,-246.15 -149.79,-422.7 -416.7,-1388.08 -416.7,-1388.08l327.79 -250.6 566.3 1097.51 255.22 -748.19 638.91 284.28z"/>
  <path fill="#F9B59C" fill-rule="nonzero" d="M13466.48 6250.98l-240.35 -348.33c0,0 -79.8,-18.55 -102.4,-31.78 -27.26,-15.93 -54.06,-154.31 -53.49,-181.33 0.6,-27 -46.58,-90.14 -27.52,-107.94 19.11,-17.77 83.55,-19.07 80.08,-45.05 -0.74,-5.55 -47.8,-63.28 -10.48,-105.66 13.48,-15.28 67.75,-28.78 67.75,-28.78l-3.84 -132.9c0,0 71.79,-156.99 145.12,-100.18 0,0 276.65,212.54 304.52,246.51 27.9,33.93 134.31,476.48 153.21,559.52l-312.61 275.91z"/>
  <path fill="#F69576" fill-rule="nonzero" d="M13779.09 5975.06c0.53,-0.14 -0.71,-8.23 -3.71,-23.48 -3.6,-16.81 -8.33,-38.92 -14.22,-66.56 -12.96,-57.66 -32.31,-141.1 -58.51,-243.85 -13.27,-51.38 -27.86,-107.62 -46.29,-167.58 -4.9,-14.96 -9.64,-30.15 -15.99,-45.58 -5.97,-17.52 -20.69,-29.2 -32.63,-40.08 -25.17,-22.17 -51.69,-43.92 -79.05,-66.13 -54.73,-44.32 -112.85,-90.01 -173.48,-137.12 -15.61,-11.05 -28.5,-25.35 -50.64,-33.44 -22.35,-7.31 -46.11,2.09 -62.4,14.87 -33.33,26.54 -54.9,62.14 -73.69,99.53l-0.81 1.66 0.07 2.15c0.35,12.86 0.74,26.73 1.16,40.65 0.92,31.11 1.8,61.97 2.72,92.26l6.43 -8.48c-16.74,4.41 -32.77,9.36 -48.72,16.39 -7.88,3.81 -15.96,7.31 -23.59,15.39 -5.76,7.32 -11.12,15.36 -13.42,24.61 -5.58,18.3 -1.72,37.07 4.2,52.9 3,8.09 6.82,15.6 10.88,22.84l6.11 10.42 1.24 2.22 -0.25 -0.53 -0.35 2.26c-0.71,3.03 -7.21,7.1 -13.7,9.71 -6.64,2.79 -14.05,4.98 -21.47,7.24 -7.42,2.3 -15,4.48 -22.7,7.53 -7.63,3.63 -15.68,5.4 -23.06,16.2 -5.51,11.33 -2.4,20.45 -0.64,28.29 2.23,7.95 5.08,15.28 8.16,22.31 6.01,14.12 12.68,27.44 17.63,40.58 2.4,6.75 4.16,12.57 4.16,18.68 0.14,8.3 1.23,15.32 2.19,22.7 2.08,14.51 4.76,28.64 7.63,42.59 6.11,27.76 12.81,54.66 22.59,80.29 5.37,12.78 9.47,25.49 21.09,37.04 13.31,10.03 25.17,11.82 37.49,16.46 24.4,7.59 48.09,13.52 71.19,18.89l-3.84 -2.61c74.18,105.47 134.81,191.6 177.99,252.99 20.62,28.64 37.07,51.45 49.37,68.5 11.47,15.57 17.76,23.59 18.29,23.2 0.53,-0.35 -4.72,-9.08 -15.18,-25.31 -11.58,-17.56 -27.07,-41.04 -46.53,-70.48 -42.06,-62.18 -101.09,-149.43 -173.34,-256.21l-1.34 -2.01 -2.51 -0.6c-22.63,-5.59 -46.22,-11.76 -69.87,-19.43 -11.09,-3.95 -25.21,-7.94 -32.42,-14.01 -6.99,-6.79 -12.35,-19.78 -16.84,-31.54 -9.08,-24.43 -15.5,-51.06 -21.3,-78.28 -2.71,-13.66 -5.25,-27.58 -7.17,-41.59 -0.88,-6.89 -1.87,-14.27 -1.9,-20.56 0.07,-8.58 -2.44,-16.98 -4.98,-24.07 -5.32,-14.48 -12,-27.83 -17.69,-41.43 -2.89,-6.78 -5.48,-13.59 -7.31,-20.23 -1.91,-6.47 -2.58,-13.8 -0.71,-16.39 1.09,-2.29 8.48,-6.53 14.79,-8.79 6.72,-2.65 14.05,-4.73 21.54,-7 7.49,-2.29 15.18,-4.48 23.06,-7.73 7.45,-3.6 17.06,-6.65 22.67,-18.69 1.44,-2.99 1.69,-6.14 1.62,-9.32l-1.55 -6.22 -1.66 -3 -5.97 -10.24c-3.74,-6.71 -7.17,-13.55 -9.75,-20.58 -5.19,-13.95 -7.88,-29.07 -3.67,-42.31 1.59,-6.78 5.69,-12.6 10,-18.22 3.59,-3.99 10.8,-7.88 17.8,-11.02 14.33,-6.32 30.22,-11.26 45.86,-15.35l6.68 -1.73 -0.21 -6.78c-0.89,-30.3 -1.77,-61.17 -2.65,-92.27 -0.42,-13.9 -0.85,-27.79 -1.2,-40.64l-0.77 3.77c17.41,-35.09 39.26,-70.19 68.35,-93.15 14.51,-11.19 31.82,-17.41 47.35,-12.28 14.83,4.79 30.09,19.35 45.37,30.51 60.71,46.81 119,92.22 173.87,136.09 27.41,21.96 54.06,43.5 79.02,65.11 12.54,11.3 24.61,20.73 29.17,34.71 6.11,14.33 10.98,29.45 15.96,44.1 18.82,59.21 34.11,115.29 48.09,166.34 26.54,101.16 48.15,183.44 63.66,242.4 7.17,27.3 12.89,49.16 17.27,65.79 4.06,15 6.4,22.81 7,22.7z"/>
  <path fill="#F69576" fill-rule="nonzero" d="M13180.08 5402.12c0.15,2.93 28.12,0.71 71.72,4.91 22.07,1.65 45.8,9.88 75.64,17.3 30.65,6.75 64.37,3.28 97.84,0.85 67.27,-9.15 124.01,19.28 154.13,49.97 30.9,30.75 34.04,60.24 37.14,59.17 1.49,0.74 2.9,-31.46 -28.35,-67.4 -15.25,-17.41 -37.71,-34.75 -66.14,-46.43 -28.15,-12.78 -64.02,-15.29 -97.95,-12.32 -34.21,2.54 -65.96,6.07 -93.58,0.77 -27.54,-5.97 -54.9,-13.84 -77.78,-13.91 -45.62,-1.2 -72.82,5.36 -72.68,7.1z"/>
  <path fill="#F69576" fill-rule="nonzero" d="M13277.96 5394.85c4.1,2.08 15.25,-14.06 13.84,-37.04 -1.34,-22.99 -14.33,-37.71 -18.15,-35.13 -4.2,2.4 0.21,17.62 1.13,36.15 1.27,18.51 -1.27,34.15 3.17,36.02z"/>
  <path fill="#F69576" fill-rule="nonzero" d="M13114.23 5541.6c-0.25,4.34 94.67,8.44 208.37,-16.35 28.42,-6.15 54.37,-14.05 76.58,-9.68 22.07,3.99 39.03,18.79 49.62,32.73 20.9,29.31 24.33,53.85 27.37,52.83 1.34,0.07 2.93,-25.17 -17.48,-59.71 -10.56,-16.46 -28.93,-35.09 -56.39,-41.24 -27.55,-6.11 -55.97,2.72 -83.3,8.41 -111.65,24.36 -204.91,27.93 -204.77,33.01z"/>
  <path fill="#F69576" fill-rule="nonzero" d="M13077.47 5667.3c0,2.19 19.74,4.16 51.2,0.25 31.5,-3.5 73.7,-14.34 119.81,-23.38 23.12,-4.23 45.16,-7.8 64.48,-6.46 19.42,1.12 35.59,7.41 46.43,16.81 22.73,19.17 20.09,40.96 22.63,40.61 0.95,0.17 3.35,-4.62 2.86,-14.09 -0.6,-9.32 -5.3,-23.13 -17.27,-35.34 -11.69,-12.46 -31.54,-21.65 -53.32,-23.62 -22,-2.4 -45.31,1.06 -68.96,5.32 -47.42,9.33 -88.45,21.86 -118.72,28.29 -30.12,6.82 -49.22,9.11 -49.15,11.62z"/>
  <path fill="#F69576" fill-rule="nonzero" d="M13159.89 5767.01c-2.9,2.19 20.55,26.76 63.7,26.66l-8.51 -7.35c0.84,7.59 1.69,14.79 2.54,22.28 6.25,49.19 15.07,88.49 19.74,87.78 4.65,-0.67 3.38,-40.89 -2.79,-89.76 -1.06,-7.41 -2.05,-14.57 -3.07,-22.1l-1.09 -7.81 -7.46 0.46c-36.12,2.23 -60.91,-13.87 -63.06,-10.17z"/>
  <path fill="#42616A" fill-rule="nonzero" d="M14878.47 5683.05c0,0 467.23,113.2 466.24,732.79 -0.99,617.12 -141.1,925.62 -141.1,925.62l-861.29 -468.74 192.2 -482.51 343.96 -707.16z"/>
  <path fill="#2C3C43" fill-rule="nonzero" d="M15203.61 7341.46c-0.28,0.5 -6.43,-2.18 -17.94,-7.8 -13.03,-6.64 -29.56,-15.04 -49.97,-25.39 -45.09,-23.79 -107.2,-56.53 -183.54,-96.75 -156.85,-84.5 -371.85,-200.34 -614.15,-330.89l-6.96 -3.74 2.82 -7.31c14.76,-38.63 30.37,-79.41 46.18,-120.79 55.05,-142.94 107.46,-279.06 155.26,-403.25 23.97,-61.79 46.82,-120.58 68.22,-175.77 20.66,-55.4 43.36,-106.36 68.18,-150.35 48.44,-88.7 105.76,-151.34 155.4,-179.88 24.46,-14.75 45.93,-21.39 60.56,-24.25 7.38,-1.34 12.99,-2.12 16.85,-2.15 3.81,-0.22 5.79,-0.18 5.79,0.14 0.78,2.25 -32.55,1.76 -79.44,32.27 -47.07,29.56 -101.45,91.7 -147.89,180.05 -23.79,43.89 -45.37,94 -65.32,149.47 -20.94,55.33 -43.22,114.34 -66.67,176.34 -47.38,124.32 -99.32,260.59 -153.91,403.74 -15.85,41.35 -31.5,82.13 -46.29,120.72l-4.13 -11.05c241.13,132.55 455.19,250.24 611.29,336.05 75.25,42.27 136.48,76.66 180.93,101.62 19.78,11.51 35.81,20.83 48.41,28.18 10.98,6.61 16.57,10.27 16.32,10.8z"/>
 </g>
</svg>
