<?xml version="1.0" encoding="UTF-8"?>
<!DOCTYPE svg PUBLIC "-//W3C//DTD SVG 1.1//EN" "http://www.w3.org/Graphics/SVG/1.1/DTD/svg11.dtd">
<!-- Creator: CorelDRAW 2018 (64 Bit Versão de avaliação) -->
<svg xmlns="http://www.w3.org/2000/svg" xml:space="preserve" width="238.005mm" height="141.535mm" version="1.1" shape-rendering="geometricPrecision" text-rendering="geometricPrecision" image-rendering="optimizeQuality" fill-rule="evenodd" clip-rule="evenodd"
viewBox="0 0 23823.74 14167.29"
 xmlns:xlink="http://www.w3.org/1999/xlink">
 <g id="Camada_x0020_1">
  <metadata id="CorelCorpID_0Corel-Layer"/>
  <g id="_2140799005632">
   <polygon fill="#EFEFEF" fill-rule="nonzero" points="6748.67,2918.31 4615.28,2919.83 4613.16,0.49 5287.59,0 6746.55,0 "/>
   <polygon fill="#D9DAD9" fill-rule="nonzero" points="6207.93,3285.81 4074.54,3287.36 4072.42,367.99 6205.81,366.44 "/>
   <path fill="#E5E6E5" fill-rule="nonzero" d="M16261.84 4359.34c0,0 -4.52,0.35 -13.77,0.56 -9.75,0.11 -23.45,0.28 -41.28,0.5 -37.05,0.28 -90.97,0.6 -160.68,1.09 -141.14,0.49 -345.81,1.2 -602.74,2.12 -515.98,0.81 -1241.19,1.94 -2080.18,3.21l-5.61 0.03 -1.59 -5.41c-43.08,-147 -16.78,-319.25 79.52,-450.97 95.94,-131.36 260.74,-215.09 430.49,-210.71l-7.7 9.96c-12.46,-42.98 -18.29,-91.39 -16.14,-139.7 6.47,-160.78 97.89,-316.08 238.25,-388.01 138.5,-73.13 309.48,-70.45 440.73,2.4l-10.77 3.77c74.79,-182.39 232.54,-314.67 403.72,-375.97 171.66,-62.4 362.06,-54.2 511.71,24.11 150.47,77.09 257.54,208.38 316.86,346.13 60.85,138.54 69.25,287.27 38.95,415l-5.79 -6.61c86.05,-9.53 169.29,5.23 240.83,34.5 71.62,29.34 132.46,72.46 178.61,122.43 23.02,24.85 42.9,51.87 56.28,80.65 13.31,28.68 23.2,57.49 29.95,85.7 13.8,56.33 18.78,109.15 20.48,156.47 3.03,94.84 -8.44,167.94 -18.79,216.35 -5.58,24.19 -10.38,42.34 -14.9,54.52 -4.2,12.11 -6.46,17.84 -6.46,17.84z"/>
   <path fill="#E5E6E5" fill-rule="nonzero" d="M21512.27 3560.01c-13.81,-83.09 42.37,-161.66 125.42,-175.47 83.09,-13.76 161.63,42.38 175.43,125.47 13.84,83.05 -42.33,161.62 -125.42,175.43 -83.06,13.8 -161.63,-42.38 -175.43,-125.43zm296.06 -588.09c-289.6,48.14 -485.37,321.91 -437.24,611.54 48.13,289.63 321.93,485.4 611.57,437.28 247.72,-41.18 426.65,-247.5 443.13,-487.56l0.18 0 145.73 -24.26 77.8 -163.85 113.77 132.04 182.6 -30.34 77.77 -163.88 113.84 132.03 156.93 -26.06 47.39 -99.9 69.39 80.48 91.32 -15.18 100.43 -132.92 -172.12 -189.16 -1085.64 180.45c-110.77,-175.43 -319.32,-276.85 -536.84,-240.7z"/>
   <path fill="#E5E6E5" fill-rule="nonzero" d="M21269.26 7034.27l65.43 1203.98c2.36,42.9 37.64,76.55 80.58,76.84l2166.45 15.93c44.87,0.29 81.57,-35.8 81.89,-80.68l6.88 -937.2c0.29,-45.09 -36.12,-81.82 -81.21,-81.89l-1332.44 -1.16c-21.5,0 -42.16,-8.58 -57.39,-23.8l-229.88 -229.77c-15.1,-15.07 -35.51,-23.66 -56.89,-23.8l-561.68 -4.12c-46.86,-0.32 -84.32,38.91 -81.74,85.69z"/>
   <polygon fill="#EFEFEF" fill-rule="nonzero" points="23661.76,8504.12 21294.61,8486.78 21304.99,7072.31 23672.11,7089.65 "/>
   <path fill="#E5E6E5" fill-rule="nonzero" d="M21115.75 7197.84l169.93 1476.33c3,26.28 25.14,46.13 51.56,46.34l2306.91 16.88c27.26,0.21 50.11,-20.62 52.44,-47.78l126.97 -1474.18c0.1,-1.19 0.15,-2.36 0.18,-3.53l0 -2.1c-0.58,-27.9 -23.3,-50.92 -51.87,-51.15l-2603.82 -19.07c-31.36,-0.21 -55.89,27.09 -52.3,58.27z"/>
   <path fill="#E5E6E5" fill-rule="nonzero" d="M20995.83 13682.17c-549.14,-383.7 -673.8,-1095.88 -652.01,-1736.03 3.56,-106.88 -8.16,-219.54 42.69,-313.33 50.85,-93.71 169.43,-157.81 265.09,-112.79 79.39,37.37 113.95,129.68 158.37,206.01 59.05,101.6 147.04,185.63 250.57,239.35 68.09,35.35 152.27,56.93 219.43,19.87 92.2,-50.84 103.04,-178.17 102.41,-284.5 -1.27,-198.07 -2.51,-396.17 -3.74,-594.24 -0.64,-106.24 -0.96,-214.77 32.09,-315.61 33.05,-100.89 106.08,-194.62 207.18,-222.94 101.13,-28.32 226.14,29.98 247.47,134 8.9,43.3 0.07,88.22 3.03,132.33 2.93,44.14 23.48,92.94 65.39,105.26 42.45,12.42 84.96,-17.69 116.74,-48.81 109.68,-107.27 184.12,-245.51 253.69,-383.02 69.56,-137.43 137.11,-278.23 236.62,-395.26 99.55,-117.05 237.23,-209.78 389.43,-218.43 152.23,-8.59 314.39,85.34 352.83,234.79 38.6,149.83 -48.84,301.84 -143.93,423.11 -141.14,179.98 -308.1,339.1 -493.98,470.85 -33.47,23.76 -69.81,49.51 -82.59,88.85 -23.1,70.87 44.06,141.21 113.98,164.52 79.21,26.37 165.19,18.15 248.07,27.89 82.84,9.75 172.64,46.34 204,124.63 43.5,108.65 -47.36,222.53 -136.73,297.07 -178.96,149.38 -383.41,267.36 -601.44,347.2 -78.18,28.64 -160.46,53.73 -223.56,108.65 -63.03,54.94 -101.07,150.44 -63,225.3 38.14,74.92 135.92,98.9 217.77,83.72 81.89,-15.18 155.2,-59.68 233.28,-89.09 146.04,-55.16 334.62,-45.06 428.19,81.15 61.48,83.01 66.89,198.52 35.77,297.42 -31.04,98.92 -94.14,184.12 -161.1,262.67 -234.08,274.65 -533.74,495.74 -872.6,613.23 -338.78,117.48 -652.71,149.27 -989.45,26.17z"/>
   <path fill="#D9DAD9" fill-rule="nonzero" d="M20987.42 14156.73c23.2,-253.59 78.82,-553.1 173.67,-875.92 94.21,-323.09 226.88,-668.6 378.02,-1025.3 38.1,-89.03 75.81,-176.99 112.93,-263.65 37.22,-86.46 74.15,-172.21 115.47,-253.86 81.92,-163.64 173.17,-314.74 264.24,-455.41 91.11,-140.83 182.64,-271.09 269.11,-392.33 86.79,-121.04 169.79,-232.38 249.8,-330.58 159.4,-197.14 306.51,-340.65 411.52,-434.97 52.41,-47.43 94.32,-82.81 123,-106.43 13.83,-11.23 24.67,-20.02 32.83,-26.7 7.46,-5.9 11.37,-8.79 11.59,-8.51 0.24,0.25 -3.29,3.63 -10.32,10.1 -7.84,6.99 -18.29,16.28 -31.53,28.15 -27.86,24.57 -68.9,60.88 -120.49,109.08 -103.28,95.97 -248.38,240.47 -405.95,438.16 -79.1,98.49 -161.24,210.01 -247.29,331.33 -85.88,121.54 -176.77,251.95 -267.24,392.67 -90.4,140.61 -180.98,291.39 -262.24,454.21 -40.92,81.26 -77.47,166.26 -114.76,252.94 -37.04,86.66 -74.65,174.63 -112.75,263.58 -151,356.4 -283.81,700.94 -378.76,1022.76 -95.45,321.5 -152.23,619.55 -177.09,872.06l-13.77 -1.37z"/>
   <path fill="#D9DAD9" fill-rule="nonzero" d="M21773.09 11737.28c-1.31,0.16 -4.9,-15.98 -10.38,-45.38 -5.59,-29.34 -12.22,-72.11 -19.71,-125.04 -15,-105.79 -30.79,-252.66 -47.57,-414.6 -16.77,-162.06 -34.56,-308.24 -51.16,-413.54 -8.16,-52.65 -15.18,-95.23 -20.41,-124.58 -5.08,-29.42 -7.25,-45.83 -5.94,-46.16 1.3,-0.32 6.01,15.58 13.38,44.56 7.49,28.93 16.63,71.26 26.56,123.8 20.16,105.03 40.22,251.6 57,413.83 16.14,159.86 30.72,304.46 41.84,414.99 5.37,49.89 9.92,91.92 13.56,125.64 3.07,29.7 4.2,46.26 2.82,46.48z"/>
   <path fill="#D9DAD9" fill-rule="nonzero" d="M23139.56 11481.9c0,1.34 -19.42,3.63 -54.52,6.53 -35.09,3.14 -85.84,7.35 -148.37,14.62 -125.15,13.48 -297.37,38.21 -486.18,73.8 -188.81,35.92 -358.31,75.7 -480.07,108.03 -60.98,15.71 -110.03,29.79 -143.97,39.3 -33.93,9.67 -52.89,14.37 -53.35,13.1 -0.39,-1.35 17.8,-8.51 51.1,-20.48 33.33,-11.77 81.89,-27.91 142.62,-45.45 121.13,-35.84 290.73,-77.94 480.11,-113.99 189.37,-35.62 362.58,-58.3 488.44,-68.26 62.93,-5.48 113.99,-7.63 149.31,-8.33 35.3,-0.61 54.83,-0.25 54.9,1.13z"/>
   <path fill="#D9DAD9" fill-rule="nonzero" d="M21177.9 13255.71c-0.63,0.23 -3.84,-5.49 -9.39,-16.69 -6.33,-13.37 -13.98,-29.69 -23.34,-49.46 -20.09,-42.98 -47.6,-105.98 -80.48,-184.26 -65.92,-156.57 -150.18,-375.66 -239.87,-618.68 -89.8,-243.12 -171.87,-462.68 -234.47,-620.37 -30.66,-76.64 -55.86,-139.69 -74.62,-186.54 -8.05,-20.38 -14.61,-37.13 -20.05,-50.93 -4.38,-11.68 -6.36,-18 -5.76,-18.29 0.63,-0.25 3.84,5.48 9.39,16.7 6.32,13.36 13.98,29.64 23.34,49.42 20.09,43 47.6,106.03 80.48,184.32 65.95,156.51 150.18,375.59 239.9,618.74 89.77,243.06 171.87,462.59 234.44,620.3 30.69,76.59 55.86,139.69 74.61,186.56 8.06,20.33 14.62,37.11 20.06,50.87 4.38,11.72 6.36,18.02 5.76,18.31z"/>
   <path fill="#D9DAD9" fill-rule="nonzero" d="M22993.69 12670.47c0.18,0.67 -6.08,3.18 -18.05,7.42 -14.19,4.76 -31.63,10.59 -52.72,17.69 -48.73,15.83 -114.44,37.11 -194.46,63 -164.2,53.24 -390.06,129.39 -639.57,213.85 -249.58,84.56 -476.44,158.65 -641.73,208.52 -82.67,24.92 -149.73,44.45 -196.37,57.02 -21.54,5.66 -39.31,10.32 -53.75,14.1 -12.39,3.03 -18.96,4.27 -19.14,3.64 -0.17,-0.68 6.04,-3.22 18.01,-7.47 14.16,-4.73 31.61,-10.55 52.76,-17.66 48.7,-15.81 114.41,-37.08 194.39,-63.02 164.17,-53.19 390.1,-129.39 639.68,-213.86 249.48,-84.53 476.3,-158.61 641.63,-208.48 82.66,-24.99 149.73,-44.45 196.37,-57.03 21.61,-5.66 39.34,-10.34 53.81,-14.09 12.32,-3.03 18.89,-4.26 19.14,-3.63z"/>
   <path fill="#2C3C43" fill-rule="nonzero" d="M23229.96 14158.1c0,5.08 -5076.91,9.19 -11338.17,9.19 -6263.45,0 -11339.29,-4.1 -11339.29,-9.19 0,-5.07 5075.84,-9.18 11339.29,-9.18 6261.26,0 11338.17,4.1 11338.17,9.18z"/>
   <path fill="#F1626C" fill-rule="nonzero" d="M20614.28 12925.32c61.73,79.31 172.19,46.44 221.52,-6.37 49.33,-52.78 67.56,-126.62 84.01,-196.96 37.61,-160.74 75.17,-329.28 33.12,-488.89 -12.61,-47.76 -33.05,-94.93 -68.76,-129.01 -35.69,-34.11 -88.88,-52.76 -135.91,-37.76 -55.61,17.77 -87.9,74.76 -110.6,128.58 -66.68,158.27 -97.43,331.48 -89.35,502.99 3.74,80.09 17.45,163.64 65.96,227.41z"/>
   <path fill="#DA515A" fill-rule="nonzero" d="M20712.02 12972.73c-35.76,0 -71.26,-13.37 -97.75,-47.42 -48.52,-63.77 -62.22,-147.32 -65.96,-227.41 -0.84,-18.08 -1.27,-36.19 -1.27,-54.3 0.08,-153.58 30.97,-307.12 90.62,-448.69 22.7,-53.81 54.98,-110.81 110.6,-128.58 11.19,-3.55 22.74,-5.23 34.32,-5.23 37.04,0 74.4,17.03 101.59,42.98 35.7,34.07 56.14,81.25 68.76,129.01 13.13,49.85 18.5,100.64 18.54,151.73 0,84.11 -14.44,169.21 -32.52,253.01 -2.4,11.09 -4.87,22.14 -7.39,33.2 -3.84,17.05 -7.8,34.07 -11.75,50.95 -16.46,70.34 -34.68,144.18 -84.01,196.96 -28.15,30.17 -76.2,53.78 -123.77,53.78z"/>
   <path fill="#F1626C" fill-rule="nonzero" d="M20850.95 13330.7c91.67,-53.33 202.2,-65.22 307.53,-53.21 56.61,6.38 116,20.26 156.32,60.48 40.3,40.22 51.31,114.06 9.26,152.52 -25,22.88 -61.23,28.01 -95.13,29.34 -81.82,3.19 -173.31,-6.64 -236.17,45.88 -35.88,29.97 -58.34,77.89 -102.23,93.96 -42.94,15.71 -93.4,-7.57 -118.55,-45.72 -25.1,-38.22 -28.35,-87.38 -19.84,-132.25 0,0 6.5,-97.29 98.81,-151z"/>
   <path fill="#F1626C" fill-rule="nonzero" d="M20462.19 13051.28c58.73,-77.35 65.15,-186.1 32.63,-277.59 -32.49,-91.53 -99.3,-167.38 -174.97,-228.25 -88.71,-71.33 -191.47,-125.18 -300.61,-157.5 -42.98,-12.67 -88.11,-22.18 -132.42,-15.64 -44.35,6.5 -88.04,31.57 -106.78,72.2 -27.76,60.15 5.26,129.75 40.08,186.09 61.26,99.35 130.37,193.84 206.47,282.34 61.23,71.15 130.72,140.93 220.02,169.96 89.27,29.07 180.03,20.51 223.42,-42.55l-7.84 10.95z"/>
   <path fill="#2C3C43" fill-rule="nonzero" d="M20673.04 14165.48c1.09,0 2.15,-13.4 3.35,-37.61 1.27,-27.32 2.85,-61.61 4.72,-102.44 2.62,-43.11 6.29,-94.46 15.41,-150.68 9.07,-56.04 24.6,-117.09 45.4,-179.21 21.65,-61.84 49.05,-118.41 82.03,-164.24 32.77,-45.97 71.83,-80.05 109.16,-100.42 37.18,-20.78 70.98,-30.17 94.42,-34.75 23.73,-3.63 36.98,-6.22 36.94,-7.28 -0.07,-1.05 -13.42,-0.57 -37.89,1.35 -24.19,2.81 -59.47,10.75 -98.7,31.06 -39.45,19.96 -80.94,54.63 -115.37,101.64 -34.7,46.83 -63.13,104.66 -85.17,167.58 -21.18,63.25 -36.41,124.87 -44.91,182.07 -8.44,57.18 -11.02,109.02 -12.18,152.45 -1.06,43.44 -0.53,78.54 0.1,102.8 0.68,24.26 1.66,37.67 2.69,37.67z"/>
   <path fill="#2C3C43" fill-rule="nonzero" d="M20676.12 14086.7c0.52,-0.04 0.52,-6.05 0.14,-17.37 -0.71,-13.07 -1.56,-29.42 -2.65,-49.59 -2.29,-42.97 -5.44,-105.23 -6.99,-182.21 -3.96,-153.89 -1.49,-366.79 12.32,-601.3 13.94,-234.65 37.47,-446.21 60.95,-598.36 5.47,-38.1 11.15,-72.43 16.63,-102.54 5.16,-30.13 9.54,-56.11 13.95,-77.17 3.7,-19.85 6.75,-35.99 9.11,-48.76 1.94,-11.23 2.72,-17.18 2.19,-17.28 -0.53,-0.1 -2.26,5.58 -5.2,16.53 -3.14,12.7 -7.14,28.64 -11.97,48.24 -5.37,20.9 -10.59,46.8 -16.56,76.84 -6.33,30.01 -12.75,64.34 -18.9,102.4 -26.34,152.1 -51.62,364.04 -65.64,599.16 -13.77,235.03 -14.58,448.43 -7.81,602.6 3,77.13 7.74,139.39 11.94,182.33 2.22,20.06 4.06,36.41 5.51,49.35 1.45,11.31 2.44,17.21 2.97,17.14z"/>
   <path fill="#2C3C43" fill-rule="nonzero" d="M20656.37 13676.2c1.06,-0.12 -0.03,-18.51 -2.96,-51.77 -3.56,-33.16 -10.59,-81.04 -22.91,-139.45 -12.89,-58.31 -30.34,-127.37 -55.97,-202.07 -24.54,-75.03 -57.21,-155.76 -97.68,-237.47 -79.38,-164.62 -182.63,-297.21 -270.7,-378.12 -20.8,-21.61 -43.5,-36.8 -61.83,-51.88 -9.43,-7.2 -17.83,-14.43 -26.31,-20.12 -8.48,-5.19 -16.39,-10.1 -23.69,-14.62 -28.5,-17.44 -44.46,-26.62 -44.99,-25.67 -2.29,3.45 63.81,38.03 149.31,120.2 85.13,82.03 185.63,213.86 264.42,377.03 40.04,81.05 72.88,160.96 98.03,235.25 26.21,73.95 44.6,142.25 58.76,199.88 13.63,57.77 22.25,105.08 27.62,137.81 4.76,32.88 7.91,51.11 8.93,51z"/>
   <polygon fill="#F7F7F6" fill-rule="nonzero" points="9.2,8905.19 4001.5,8905.19 4001.5,6231.28 9.2,6231.28 "/>
   <path fill="#2C3C43" fill-rule="nonzero" d="M2917.14 7852.95l-106.4 0 0 -640c0,-153.71 -125.04,-278.75 -278.76,-278.75 -153.72,0 -278.77,125.04 -278.77,278.75l0 640 -106.41 0 0 -640c0,-212.41 172.8,-385.19 385.19,-385.19 212.39,0 385.17,172.78 385.17,385.19l0 640z"/>
   <path fill="#2C3C43" fill-rule="nonzero" d="M2938.79 8243.97l-813.64 0c-66.16,0 -119.78,-53.64 -119.78,-119.82l0 -436.11c0,-66.17 53.61,-119.82 119.78,-119.82l813.64 0c66.16,0 119.79,53.64 119.79,119.82l0 436.11c0,66.17 -53.62,119.82 -119.79,119.82z"/>
   <path fill="#42616A" fill-rule="nonzero" d="M2531.96 7906.06c-48.62,0 -88.03,-39.41 -88.03,-88 0,-48.63 39.41,-88.04 88.03,-88.04 48.62,0 88.03,39.41 88.03,88.04 0,48.59 -39.41,88 -88.03,88z"/>
   <polygon fill="#42616A" fill-rule="nonzero" points="2507.96,8034 2555.98,8034 2555.98,7852.96 2507.96,7852.96 "/>
   <path fill="#F1626C" fill-rule="nonzero" d="M1979.08 7845.32c147.88,-62.04 253.08,-214.55 253.95,-394.3 0.97,-235.42 -177.19,-427.1 -398,-428.13 -220.69,-1.02 -400.46,188.99 -401.42,424.42 -0.74,181.4 105.18,335.75 254.7,398 -615.12,92.7 -587.21,761.19 -587.21,761.19l1454.57 6.72c0,0 33.18,-675.81 -576.58,-767.91z"/>
   <path fill="#2C3C43" fill-rule="nonzero" d="M4001.52 8905.19c0,0 -0.5,-16.81 -0.78,-48.77 -0.18,-32.34 -0.46,-79.59 -0.81,-141.25 -0.42,-123.98 -1.06,-305.56 -1.87,-537.99 -0.92,-464.59 -2.26,-1132.15 -3.88,-1945.91l7.35 7.35c-1100.24,0.52 -2487.96,1.16 -3991.99,1.83l-0.33 0 9.19 -9.18c-0.28,952.62 -0.52,1858.49 -0.77,2673.91l-8.42 -8.4c1174.92,1.69 2171.85,3.14 2875.62,4.12 352.13,0.99 630.78,1.73 821.94,2.3 95.27,0.42 168.65,0.77 218.76,0.98 24.61,0.25 43.4,0.39 56.54,0.53 12.74,0.14 19.46,0.46 19.46,0.46 0,0 -6.08,0.35 -18.47,0.5 -12.92,0.14 -31.4,0.31 -55.58,0.52 -49.72,0.25 -122.53,0.53 -217.1,0.99 -190.71,0.57 -468.71,1.31 -820.03,2.26 -705.08,1.02 -1703.95,2.47 -2881.13,4.16l-8.43 0.04 0 -8.48c-0.22,-815.43 -0.48,-1721.29 -0.76,-2673.91l-0.01 -9.18 9.53 0c1504.03,0.7 2891.74,1.34 3991.99,1.83l7.38 0 0 7.35c-1.62,815.68 -2.96,1484.81 -3.88,1950.51 -0.81,231.72 -1.45,412.73 -1.87,536.32 -0.35,61.02 -0.64,107.81 -0.81,139.84 -0.28,31.46 -0.81,47.25 -0.81,47.25z"/>
   <path fill="#2C3C43" fill-rule="nonzero" d="M4000.64 6552.51c0,5.04 -893.16,9.18 -1994.69,9.18 -1101.9,0 -1994.87,-4.13 -1994.87,-9.18 0,-5.08 892.97,-9.22 1994.87,-9.22 1101.53,0 1994.69,4.13 1994.69,9.22z"/>
   <path fill="#2C3C43" fill-rule="nonzero" d="M272.1 6392.15c0,22.78 -18.47,41.25 -41.24,41.25 -22.77,0 -41.24,-18.47 -41.24,-41.25 0,-22.77 18.47,-41.24 41.24,-41.24 22.77,0 41.24,18.47 41.24,41.24z"/>
   <path fill="#2C3C43" fill-rule="nonzero" d="M407.24 6392.15c0,22.78 -18.49,41.25 -41.26,41.25 -22.77,0 -41.24,-18.47 -41.24,-41.25 0,-22.77 18.47,-41.24 41.24,-41.24 22.77,0 41.26,18.47 41.26,41.24z"/>
   <path fill="#2C3C43" fill-rule="nonzero" d="M552.51 6392.15c0,22.78 -18.47,41.25 -41.25,41.25 -22.78,0 -41.24,-18.47 -41.24,-41.25 0,-22.77 18.46,-41.24 41.24,-41.24 22.78,0 41.25,18.47 41.25,41.24z"/>
   <path fill="#2C3C43" fill-rule="nonzero" d="M4001.52 8905.19c0,0 -0.5,-16.81 -0.78,-48.77 -0.18,-32.34 -0.46,-79.59 -0.81,-141.25 -0.42,-123.98 -1.06,-305.56 -1.87,-537.99 -0.92,-464.59 -2.26,-1132.15 -3.88,-1945.91l7.35 7.35c-1100.24,0.52 -2487.96,1.16 -3991.99,1.83l-0.33 0 9.19 -9.18c-0.28,952.62 -0.52,1858.49 -0.77,2673.91l-8.42 -8.4c1174.92,1.69 2171.85,3.14 2875.62,4.12 352.13,0.99 630.78,1.73 821.94,2.3 95.27,0.42 168.65,0.77 218.76,0.98 24.61,0.25 43.4,0.39 56.54,0.53 12.74,0.14 19.46,0.46 19.46,0.46 0,0 -6.08,0.35 -18.47,0.5 -12.92,0.14 -31.4,0.31 -55.58,0.52 -49.72,0.25 -122.53,0.53 -217.1,0.99 -190.71,0.57 -468.71,1.31 -820.03,2.26 -705.08,1.02 -1703.95,2.47 -2881.13,4.16l-8.43 0.04 0 -8.48c-0.22,-815.43 -0.48,-1721.29 -0.76,-2673.91l-0.01 -9.18 9.53 0c1504.03,0.7 2891.74,1.34 3991.99,1.83l7.38 0 0 7.35c-1.62,815.68 -2.96,1484.81 -3.88,1950.51 -0.81,231.72 -1.45,412.73 -1.87,536.32 -0.35,61.02 -0.64,107.81 -0.81,139.84 -0.28,31.46 -0.81,47.25 -0.81,47.25z"/>
   <path fill="#2C3C43" fill-rule="nonzero" d="M1979.6 8993.48c-5.09,0 -9.21,-19.74 -9.21,-44.14 0,-24.36 4.11,-44.14 9.21,-44.14 5.06,0 9.18,19.78 9.18,44.14 0,24.4 -4.11,44.14 -9.18,44.14z"/>
   <path fill="#2C3C43" fill-rule="nonzero" d="M1979.6 9379.82c-5.09,0 -9.21,-43.26 -9.21,-96.57 0,-53.32 4.11,-96.58 9.21,-96.58 5.06,0 9.18,43.26 9.18,96.58 0,53.31 -4.11,96.57 -9.18,96.57z"/>
   <path fill="#2C3C43" fill-rule="nonzero" d="M1979.6 9766.17c-5.09,0 -9.21,-43.22 -9.21,-96.57 0,-53.36 4.11,-96.58 9.21,-96.58 5.06,0 9.18,43.22 9.18,96.58 0,53.35 -4.11,96.57 -9.18,96.57z"/>
   <path fill="#2C3C43" fill-rule="nonzero" d="M1979.6 10152.53c-5.09,0 -9.21,-43.26 -9.21,-96.58 0,-53.35 4.11,-96.57 9.21,-96.57 5.06,0 9.18,43.22 9.18,96.57 0,53.32 -4.11,96.58 -9.18,96.58z"/>
   <path fill="#2C3C43" fill-rule="nonzero" d="M1979.6 10538.88c-5.09,0 -9.21,-43.25 -9.21,-96.57 0,-53.36 4.11,-96.61 9.21,-96.61 5.06,0 9.18,43.25 9.18,96.61 0,53.32 -4.11,96.57 -9.18,96.57z"/>
   <path fill="#2C3C43" fill-rule="nonzero" d="M2067.87 10820.32c0,5.08 -39.53,9.21 -88.27,9.21 -18.39,-18.4 -5.11,-5.11 -9.21,-9.26l0 -2.24 0.02 -2.24 0.04 -4.47 0.14 -8.77c0.16,-5.3 0.34,-10.68 0.52,-16.59 0.47,-10.55 1.14,-20.06 1.97,-28.07 1.67,-15.97 3.95,-25.86 6.52,-25.86 2.53,0 4.82,9.89 6.48,25.86 0.86,8.01 1.52,17.52 1.98,28.07 0.2,5.91 0.36,11.29 0.54,16.59l0.14 8.77 0.03 4.47 0.01 2.24 0 2.24c-4.09,-4.05 9.19,9.26 -9.18,-9.14 48.74,0 88.27,4.09 88.27,9.19z"/>
   <path fill="#2C3C43" fill-rule="nonzero" d="M2414.88 10820.32c0,5.08 -38.85,9.21 -86.73,9.21 -47.94,0 -86.76,-4.12 -86.76,-9.21 0,-5.09 38.83,-9.19 86.76,-9.19 47.89,0 86.73,4.09 86.73,9.19z"/>
   <path fill="#2C3C43" fill-rule="nonzero" d="M2761.89 10820.32c0,5.08 -38.84,9.21 -86.75,9.21 -47.92,0 -86.74,-4.12 -86.74,-9.21 0,-5.09 38.83,-9.19 86.74,-9.19 47.92,0 86.75,4.09 86.75,9.19z"/>
   <path fill="#2C3C43" fill-rule="nonzero" d="M3108.9 10820.32c0,5.08 -38.84,9.21 -86.73,9.21 -47.93,0 -86.75,-4.12 -86.75,-9.21 0,-5.09 38.83,-9.19 86.75,-9.19 47.9,0 86.73,4.09 86.73,9.19z"/>
   <path fill="#2C3C43" fill-rule="nonzero" d="M3455.92 10820.32c0,5.08 -38.86,9.21 -86.75,9.21 -47.92,0 -86.76,-4.12 -86.76,-9.21 0,-5.09 38.85,-9.19 86.76,-9.19 47.9,0 86.75,4.09 86.75,9.19z"/>
   <path fill="#2C3C43" fill-rule="nonzero" d="M3802.91 10820.32c0,5.08 -38.84,9.21 -86.75,9.21 -47.92,0 -86.72,-4.12 -86.72,-9.21 0,-5.09 38.81,-9.19 86.72,-9.19 47.92,0 86.75,4.09 86.75,9.19z"/>
   <path fill="#2C3C43" fill-rule="nonzero" d="M4149.93 10820.32c0,5.08 -38.85,9.21 -86.76,9.21 -47.92,0 -86.76,-4.12 -86.76,-9.21 0,-5.09 38.85,-9.19 86.76,-9.19 47.92,0 86.76,4.09 86.76,9.19z"/>
   <path fill="#2C3C43" fill-rule="nonzero" d="M4496.91 10820.32c0,5.08 -38.85,9.21 -86.72,9.21 -47.93,0 -86.76,-4.12 -86.76,-9.21 0,-5.09 38.84,-9.19 86.76,-9.19 47.88,0 86.72,4.09 86.72,9.19z"/>
   <path fill="#2C3C43" fill-rule="nonzero" d="M4843.96 10820.32c0,5.08 -38.85,9.21 -86.76,9.21 -47.92,0 -86.76,-4.12 -86.76,-9.21 0,-5.09 38.85,-9.19 86.76,-9.19 47.92,0 86.76,4.09 86.76,9.19z"/>
   <path fill="#2C3C43" fill-rule="nonzero" d="M5190.94 10820.32c0,5.08 -38.85,9.21 -86.72,9.21 -47.93,0 -86.76,-4.12 -86.76,-9.21 0,-5.09 38.84,-9.19 86.76,-9.19 47.88,0 86.72,4.09 86.72,9.19z"/>
   <path fill="#2C3C43" fill-rule="nonzero" d="M5537.95 10820.32c0,5.08 -38.84,9.21 -86.75,9.21 -47.93,0 -86.73,-4.12 -86.73,-9.21 0,-5.09 38.81,-9.19 86.73,-9.19 47.92,0 86.75,4.09 86.75,9.19z"/>
   <path fill="#2C3C43" fill-rule="nonzero" d="M5799.76 10820.32c0,5.08 -19.77,9.21 -44.13,9.21 -24.4,0 -44.14,-4.12 -44.14,-9.21 0,-5.09 19.74,-9.19 44.14,-9.19 24.36,0 44.13,4.09 44.13,9.19z"/>
   <polygon fill="#FEFEFE" fill-rule="nonzero" points="5842.35,3734.17 3708.99,3735.69 3706.87,816.35 5840.23,814.76 "/>
   <path fill="#2C3C43" fill-rule="nonzero" d="M5842.35 3734.17c0,0 -0.35,-5.05 -0.57,-14.37 -0.14,-9.99 -0.31,-23.58 -0.6,-41.31 -0.28,-36.94 -0.7,-90.33 -1.27,-159.55 -0.7,-139.73 -1.72,-342.84 -2.99,-599.68 -1.56,-513.79 -3.71,-1242.31 -6.29,-2104.47l9.64 9.64c-642.48,0.74 -1367.93,1.62 -2133.14,2.54l-0.25 0 10.63 -10.66c0.07,1090.44 0.1,2099.98 0.14,2919.37l-8.65 -8.66c645.22,1.41 1177.45,2.58 1549.14,3.39 185.64,0.81 331.16,1.48 431.09,1.94 49.27,0.35 87.16,0.67 113.6,0.88 25.78,0.28 39.52,0.92 39.52,0.92 0,0 -12.47,0.63 -37.68,0.95 -26.07,0.28 -63.39,0.6 -111.98,1.1 -99.48,0.56 -244.33,1.41 -429.15,2.5 -372.96,1.34 -907.04,3.32 -1554.55,5.65l-8.69 0.04 -0.04 -8.72c-1.13,-819.35 -2.54,-1828.9 -4.02,-2919.34l-0.03 -10.66 10.87 0c765.22,-0.18 1490.71,-0.39 2133.14,-0.53l9.68 0 0 9.6c-1.34,864.73 -2.47,1595.45 -3.28,2110.79 -0.92,255.91 -1.63,458.29 -2.12,597.48 -0.46,68.41 -0.81,121.13 -1.06,157.63 -0.25,17.27 -0.39,30.55 -0.53,40.26 -0.17,8.97 -0.35,13.42 -0.56,13.24z"/>
   <path fill="#2C3C43" fill-rule="nonzero" d="M5011.98 1402.15c0.04,5.86 -232.07,10.8 -518.32,11.01 -286.34,0.21 -518.38,-4.37 -518.38,-10.27 -0.04,-5.87 232,-10.81 518.35,-11.02 286.28,-0.18 518.35,4.41 518.35,10.28z"/>
   <path fill="#2C3C43" fill-rule="nonzero" d="M5572.87 1655.41c0.04,5.9 -357.6,10.91 -798.65,11.23 -441.23,0.31 -798.77,-4.17 -798.8,-10.07 0,-5.9 357.57,-10.91 798.8,-11.23 441.01,-0.31 798.65,4.17 798.65,10.07z"/>
   <path fill="#2C3C43" fill-rule="nonzero" d="M5573.08 1920.07c0,5.87 -357.64,10.88 -798.69,11.23 -441.19,0.28 -798.76,-4.2 -798.76,-10.1 0,-5.86 357.54,-10.87 798.76,-11.19 441.05,-0.35 798.69,4.16 798.69,10.06z"/>
   <path fill="#2C3C43" fill-rule="nonzero" d="M5573.26 2184.7c0,5.9 -357.61,10.91 -798.66,11.22 -441.22,0.32 -798.79,-4.19 -798.79,-10.06 0,-5.9 357.57,-10.91 798.76,-11.23 441.08,-0.32 798.69,4.2 798.69,10.07z"/>
   <path fill="#2C3C43" fill-rule="nonzero" d="M5573.47 2449.33c0,5.9 -357.64,10.91 -798.69,11.23 -441.23,0.31 -798.76,-4.17 -798.76,-10.07 0,-5.86 357.53,-10.87 798.76,-11.23 441.05,-0.28 798.66,4.2 798.69,10.07z"/>
   <path fill="#2C3C43" fill-rule="nonzero" d="M5573.65 2713.99c0,5.91 -357.61,10.92 -798.69,11.23 -441.19,0.32 -798.77,-4.16 -798.77,-10.1 0,-5.86 357.54,-10.87 798.77,-11.19 441.05,-0.32 798.69,4.2 798.69,10.06z"/>
   <path fill="#2C3C43" fill-rule="nonzero" d="M5573.83 2978.66c0.03,5.87 -357.61,10.91 -798.66,11.19 -441.23,0.36 -798.77,-4.16 -798.8,-10.06 0,-5.87 357.57,-10.91 798.76,-11.23 441.09,-0.32 798.7,4.2 798.7,10.1z"/>
   <path fill="#2C3C43" fill-rule="nonzero" d="M4835.24 3243.82c0,5.9 -192.25,10.77 -429.33,10.95 -237.12,0.17 -429.33,-4.45 -429.33,-10.31 0,-5.9 192.17,-10.81 429.33,-10.98 237.08,-0.15 429.33,4.48 429.33,10.34z"/>
   <path fill="#F1626C" fill-rule="nonzero" d="M6089.11 3513.04c0,239.34 -194.01,433.35 -433.35,433.35 -239.31,0 -433.31,-194.01 -433.31,-433.35 0,-239.31 194,-433.31 433.31,-433.31 239.34,0 433.35,194 433.35,433.31z"/>
   <path fill="#D9DAD9" fill-rule="nonzero" d="M5904.29 3345.98c18.57,17.34 -66.53,138.64 -190.02,270.88 -19.89,21.25 -39.56,41.52 -58.27,60.1l-29.98 29.77 -29.81 -25.03c-107.81,-90.55 -178.29,-168.16 -165.22,-184.97 13.1,-16.81 105.58,32.52 219.81,114.84l-59.78 4.72c17.27,-19.95 36.16,-40.92 56.03,-62.22 123.49,-132.24 238.71,-225.4 257.22,-208.09z"/>
   <path fill="#2C3C43" fill-rule="nonzero" d="M4613.16 3894.06c-5.08,0 -9.18,-39.55 -9.18,-88.29 0,-48.77 4.09,-88.28 9.18,-88.28 5.08,0 9.22,39.51 9.22,88.28 0,48.74 -4.13,88.29 -9.22,88.29z"/>
   <path fill="#2C3C43" fill-rule="nonzero" d="M4613.16 4247.19c-5.08,0 -9.18,-39.56 -9.18,-88.29 0,-48.77 4.09,-88.28 9.18,-88.28 5.08,0 9.22,39.51 9.22,88.28 0,48.73 -4.13,88.29 -9.22,88.29z"/>
   <path fill="#2C3C43" fill-rule="nonzero" d="M4613.16 4600.3c-5.08,0 -9.18,-39.55 -9.18,-88.28 0,-48.77 4.09,-88.29 9.18,-88.29 5.08,0 9.22,39.52 9.22,88.29 0,48.73 -4.13,88.28 -9.22,88.28z"/>
   <path fill="#2C3C43" fill-rule="nonzero" d="M4613.16 4953.43c-5.08,0 -9.18,-39.55 -9.18,-88.28 0,-48.77 4.09,-88.29 9.18,-88.29 5.08,0 9.22,39.52 9.22,88.29 0,48.73 -4.13,88.28 -9.22,88.28z"/>
   <path fill="#2C3C43" fill-rule="nonzero" d="M4613.16 5306.55c-5.08,0 -9.18,-39.55 -9.18,-88.29 0,-48.76 4.09,-88.28 9.18,-88.28 5.08,0 9.22,39.52 9.22,88.28 0,48.74 -4.13,88.29 -9.22,88.29z"/>
   <path fill="#2C3C43" fill-rule="nonzero" d="M4613.16 5659.68c-5.08,0 -9.18,-39.55 -9.18,-88.29 0,-48.77 4.09,-88.28 9.18,-88.28 5.08,0 9.22,39.51 9.22,88.28 0,48.74 -4.13,88.29 -9.22,88.29z"/>
   <path fill="#2C3C43" fill-rule="nonzero" d="M4613.16 6012.79c-5.08,0 -9.18,-39.55 -9.18,-88.28 0,-48.77 4.09,-88.28 9.18,-88.28 5.08,0 9.22,39.51 9.22,88.28 0,48.73 -4.13,88.28 -9.22,88.28z"/>
   <path fill="#2C3C43" fill-rule="nonzero" d="M4613.16 6365.92c-5.08,0 -9.18,-39.55 -9.18,-88.28 0,-48.77 4.09,-88.29 9.18,-88.29 5.08,0 9.22,39.52 9.22,88.29 0,48.73 -4.13,88.28 -9.22,88.28z"/>
   <path fill="#2C3C43" fill-rule="nonzero" d="M4783.54 6548.66c0,5.05 -39.52,9.19 -88.29,9.19 -37.47,0 -69.49,-2.44 -82.1,-5.87l-3.88 -1.06 0.57 -2.26c1.02,-4.05 2.15,-6.18 3.31,-6.18 1.17,0 2.3,2.12 3.32,6.18l-3.32 -3.35c12.61,-3.42 44.63,-5.86 82.1,-5.86 48.77,0 88.29,4.09 88.29,9.21z"/>
   <path fill="#2C3C43" fill-rule="nonzero" d="M5136.67 6548.66c0,5.05 -39.52,9.19 -88.29,9.19 -48.77,0 -88.28,-4.13 -88.28,-9.19 0,-5.11 39.51,-9.21 88.28,-9.21 48.77,0 88.29,4.09 88.29,9.21z"/>
   <path fill="#2C3C43" fill-rule="nonzero" d="M5489.78 6548.66c0,5.05 -39.51,9.19 -88.28,9.19 -48.77,0 -88.28,-4.13 -88.28,-9.19 0,-5.11 39.51,-9.21 88.28,-9.21 48.77,0 88.28,4.09 88.28,9.21z"/>
   <path fill="#2C3C43" fill-rule="nonzero" d="M5842.91 6548.66c0,5.05 -39.51,9.19 -88.28,9.19 -48.77,0 -88.29,-4.13 -88.29,-9.19 0,-5.11 39.52,-9.21 88.29,-9.21 48.77,0 88.28,4.09 88.28,9.21z"/>
   <path fill="#2C3C43" fill-rule="nonzero" d="M6196.03 6548.66c0,5.05 -39.52,9.19 -88.28,9.19 -48.77,0 -88.29,-4.13 -88.29,-9.19 0,-5.11 39.52,-9.21 88.29,-9.21 48.76,0 88.28,4.09 88.28,9.21z"/>
   <path fill="#2C3C43" fill-rule="nonzero" d="M12077.44 3354.32c-5.08,0 -9.19,-39.52 -9.19,-88.25 0,-48.74 4.1,-88.22 9.19,-88.22 5.04,0 9.21,39.48 9.21,88.22 0,48.73 -4.16,88.25 -9.21,88.25z"/>
   <path fill="#2C3C43" fill-rule="nonzero" d="M12077.44 3707.36c-5.08,0 -9.19,-39.55 -9.19,-88.28 0,-48.77 4.1,-88.29 9.19,-88.29 5.04,0 9.21,39.52 9.21,88.29 0,48.73 -4.16,88.28 -9.21,88.28z"/>
   <path fill="#2C3C43" fill-rule="nonzero" d="M12077.44 4060.39c-5.08,0 -9.19,-39.48 -9.19,-88.22 0,-48.77 4.1,-88.25 9.19,-88.25 5.04,0 9.21,39.48 9.21,88.25 0,48.74 -4.16,88.22 -9.21,88.22z"/>
   <path fill="#2C3C43" fill-rule="nonzero" d="M12077.44 4413.36c-5.08,0 -9.19,-39.51 -9.19,-88.25 0,-48.77 4.1,-88.25 9.19,-88.25 5.04,0 9.21,39.48 9.21,88.25 0,48.74 -4.16,88.25 -9.21,88.25z"/>
   <path fill="#2C3C43" fill-rule="nonzero" d="M12077.44 4766.6c-5.08,0 -9.19,-39.56 -9.19,-88.32 0,-48.81 4.1,-88.36 9.19,-88.36 5.04,0 9.21,39.55 9.21,88.36 0,48.76 -4.16,88.32 -9.21,88.32z"/>
   <path fill="#2C3C43" fill-rule="nonzero" d="M12077.44 5119.85c-5.08,0 -9.19,-39.51 -9.19,-88.24 0,-48.81 4.1,-88.32 9.19,-88.32 5.04,0 9.21,39.51 9.21,88.32 0,48.73 -4.16,88.24 -9.21,88.24z"/>
   <path fill="#2C3C43" fill-rule="nonzero" d="M12077.44 5473.02c-5.08,0 -9.19,-39.55 -9.19,-88.29 0,-48.77 4.1,-88.28 9.19,-88.28 5.04,0 9.21,39.51 9.21,88.28 0,48.74 -4.16,88.29 -9.21,88.29z"/>
   <path fill="#2C3C43" fill-rule="nonzero" d="M12077.44 5826.28c-5.08,0 -9.19,-39.55 -9.19,-88.32 0,-48.84 4.1,-88.39 9.19,-88.39 5.04,0 9.21,39.55 9.21,88.39 0,48.77 -4.16,88.32 -9.21,88.32z"/>
   <path fill="#F1626C" fill-rule="nonzero" d="M14475.52 3580.95c0,0 -6.81,0.53 -20.83,0.81 -14.79,0.18 -35.52,0.46 -62.47,0.81 -56.14,0.39 -137.74,0.92 -243.3,1.62 -213.68,0.75 -523.61,1.84 -912.57,3.22 -781.28,1.19 -1879.29,2.92 -3149.58,4.86l-8.48 0.04 -2.39 -8.2c-65.22,-222.57 -25.39,-483.35 120.38,-682.8 145.27,-198.87 394.76,-325.61 651.83,-319.01l-11.69 15.04c-18.86,-65.04 -27.65,-138.36 -24.36,-211.45 9.71,-243.45 148.13,-478.63 360.64,-587.45 209.72,-110.78 468.63,-106.68 667.33,3.56l-16.28 5.8c113.21,-276.22 352.06,-476.48 611.22,-569.31 259.9,-94.42 548.16,-82.03 774.79,36.55 227.8,116.67 389.92,315.48 479.72,524.03 92.17,209.72 104.88,434.9 59.01,628.31l-8.79 -9.99c130.3,-14.41 256.33,7.94 364.6,52.22 108.48,44.46 200.58,109.76 270.49,185.39 34.78,37.68 64.9,78.54 85.17,122.11 20.16,43.43 35.16,87.05 45.33,129.74 20.98,85.31 28.43,165.33 31.04,236.95 4.59,143.58 -12.78,254.28 -28.43,327.55 -8.44,36.63 -15.79,64.13 -22.59,82.56 -6.33,18.33 -9.79,27.02 -9.79,27.02z"/>
   <path fill="#D9DAD9" fill-rule="nonzero" d="M14076 2371.47l-136.02 0 0 -817.94c0,-196.47 -159.83,-356.27 -356.27,-356.27 -196.44,0 -356.3,159.8 -356.3,356.27l0 817.94 -135.98 0 0 -817.94c0,-271.45 220.84,-492.25 492.28,-492.25 271.45,0 492.29,220.81 492.29,492.25l0 817.94z"/>
   <path fill="#D9DAD9" fill-rule="nonzero" d="M14136.95 2871.17l-1106.51 0c-66.13,0 -119.75,-53.61 -119.75,-119.79l0 -624c0,-66.17 53.61,-119.78 119.75,-119.78l1106.51 0c66.14,0 119.78,53.6 119.78,119.78l0 624c0,66.17 -53.63,119.79 -119.78,119.79z"/>
   <path fill="#42616A" fill-rule="nonzero" d="M13583.68 2439.4c-62.11,0 -112.47,-50.39 -112.47,-112.5 0,-62.15 50.36,-112.54 112.47,-112.54 62.15,0 112.54,50.39 112.54,112.54 0,62.11 -50.39,112.5 -112.54,112.5z"/>
   <polygon fill="#42616A" fill-rule="nonzero" points="13552.99,2602.83 13614.37,2602.83 13614.37,2371.46 13552.99,2371.46 "/>
   <path fill="#2C3C43" fill-rule="nonzero" d="M21751.48 1194.51c79.6,85.31 74.93,219 -10.35,298.57 -85.31,79.59 -219,74.96 -298.6,-10.35 -79.56,-85.31 -74.93,-218.97 10.39,-298.56 85.31,-79.6 218.96,-74.97 298.56,10.34zm108.87 905.55c297.36,-277.45 313.54,-743.4 36.09,-1040.8 -277.44,-297.4 -743.43,-313.54 -1040.79,-36.1 -254.36,237.3 -302.77,612.46 -137.89,902.16l-149.87 139.81 35.8 248.7 -232.53 -65.19 -187.47 174.9 35.8 248.71 -232.54 -65.15 -161.13 150.33 21.82 151.59 -141.71 -39.72 -93.78 87.5 -14.05 230.31 343.55 86.47 1114.71 -1039.98c262.23,117.55 580.67,74.82 803.99,-133.55z"/>
   <path fill="#2C3C43" fill-rule="nonzero" d="M21751.48 1194.51c-1.34,1.38 -13.8,-12.88 -41.99,-30.19 -27.65,-16.99 -74.54,-35.73 -132.91,-29.21 -57.32,5.41 -125.5,42.2 -159.97,111.38 -35.59,67.13 -28.78,165.26 32.63,229.95 60.24,65.78 157.7,79.38 227.16,48.56 71.4,-29.67 112.82,-95.1 122.22,-151.88 10.55,-57.85 -4.94,-105.9 -19.96,-134.68 -15.32,-29.28 -28.67,-42.69 -27.19,-43.93 0.46,-0.42 3.88,2.72 10.1,9.15 6.32,6.29 14.65,16.67 23.37,31.32 17.41,28.71 35.99,78.5 26.46,140.3 -8.23,60.67 -51.28,132.24 -128.37,165.29 -37.68,16.57 -82.7,22.81 -126.91,14.23 -44.45,-7.7 -87.44,-31.14 -120.34,-65.82 -32.31,-35.2 -52.69,-79.7 -57.32,-124.54 -5.48,-44.74 3.92,-89.24 23.02,-125.64 38.32,-74.58 112.68,-112.58 173.77,-116.6 62.29,-5.23 110.71,16.74 138.14,36.13 13.98,9.71 23.8,18.72 29.66,25.46 6.01,6.64 8.87,10.31 8.41,10.73z"/>
   <path fill="#2C3C43" fill-rule="nonzero" d="M21860.34 2100.06c0,0 -3.42,3.63 -10.59,10.2 -7.77,6.92 -18.47,16.5 -32.45,28.92 -30.3,23.24 -75.6,58.34 -142.52,90.58 -66.61,31.92 -154.71,61.44 -261.67,70.34 -106.5,7.99 -232.61,-5.62 -359.02,-61.4l6.08 -1.03c-287.34,269.04 -669.56,626.9 -1112.87,1041.96l-3.28 3.07 -4.41 -1.09c-107.82,-27.02 -224.34,-56.21 -343.6,-86.12l-6.92 -1.73 0.39 -7.14c4.34,-71.82 9.07,-150.57 13.87,-230.34l0.21 -3.53 2.58 -2.37c29.1,-27.19 61.3,-57.28 93.72,-87.57l3.66 -3.39 4.8 1.3c44.14,12.36 92.73,25.96 141.71,39.66l-11.26 9.89c-6.82,-47.32 -14.33,-99.27 -21.89,-151.56l-0.67 -4.66 3.45 -3.21c50.61,-47.29 105.58,-98.6 161.07,-150.4l3.73 -3.49 4.94 1.37c73.42,20.56 152.66,42.77 232.5,65.12l-11.54 10.13c-11.34,-78.82 -23.52,-163.46 -35.77,-248.7l-0.71 -4.76 3.53 -3.25c15.69,-14.61 32.66,-30.47 49.69,-46.37 46.23,-43.08 92.13,-85.94 137.75,-128.54l3.81 -3.53 4.94 1.41c78.18,21.93 155.72,43.65 232.49,65.19l-11.51 10.13c-12.04,-83.76 -23.93,-166.7 -35.73,-248.73l-0.63 -4.7 3.46 -3.21c50.46,-47.07 100.43,-93.61 149.9,-139.73l-1.69 11.02c-58.06,-104.28 -91.43,-219.96 -95.73,-335.3 -2.37,-57.52 1.02,-114.94 12.21,-170.38 9.54,-55.76 27.37,-109.26 49.02,-160.18 88.32,-204.57 266.57,-351.81 457.79,-411.07 192.24,-60.99 393.8,-36.59 551.26,41.63 159.79,77.13 273,206.79 338.96,338.65 64.41,133.93 83.27,270.7 72.39,386.49 -9.57,116.39 -44.45,212.2 -82.59,283.56 -4.69,8.97 -9.29,17.73 -13.7,26.21 -5.2,8.05 -10.28,15.82 -15.11,23.37 -10.06,14.86 -18.4,29.52 -27.93,41.78 -19.92,23.93 -35.17,45.44 -50.15,60.42 -14.65,14.61 -25.96,25.88 -34.07,34 -7.7,7.56 -11.9,11.09 -11.9,11.09 0,0 3.46,-4.34 10.77,-12.29 7.81,-8.34 18.68,-19.92 32.77,-34.99 14.54,-15.25 29.34,-36.98 48.66,-61.02 9.32,-12.36 17.38,-27.02 27.16,-41.95 4.73,-7.53 9.64,-15.32 14.69,-23.34 4.26,-8.48 8.72,-17.2 13.23,-26.21 37.02,-71.15 70.56,-166.31 79.14,-281.32 9.85,-114.45 -9.67,-249.16 -73.76,-380.63 -65.64,-129.43 -177.51,-256.37 -334.63,-331.37 -154.77,-76.13 -352.44,-99.37 -540.45,-39.13 -186.98,58.48 -361,202.98 -446.88,402.95 -21.05,49.75 -38.39,102.05 -47.64,156.53 -10.88,54.2 -14.09,110.29 -11.69,166.43 4.38,112.61 37.12,225.5 93.79,327.17l3.49 6.21 -5.19 4.8c-49.37,46.16 -99.31,92.77 -149.77,139.84l2.79 -7.91c11.83,82.03 23.8,164.94 35.88,248.67l2.01 13.94 -13.52 -3.81c-76.84,-21.5 -154.31,-43.22 -232.53,-65.15l8.76 -2.08c-45.62,42.55 -91.6,85.42 -137.79,128.54 -17.02,15.86 -34,31.71 -49.68,46.37l2.82 -8.05c12.25,85.24 24.43,169.86 35.76,248.7l2.02 13.95 -13.56 -3.81c-79.91,-22.39 -159.12,-44.64 -232.5,-65.22l8.65 -2.12c-55.47,51.77 -110.53,103.04 -161.2,150.29l2.79 -7.87c7.52,52.29 14.93,104.24 21.75,151.56l1.94 13.63 -13.24 -3.74c-48.95,-13.74 -97.54,-27.37 -141.68,-39.8l8.45 -2.05c-32.49,30.27 -64.73,60.32 -93.83,87.44l2.75 -5.87c-4.93,79.78 -9.78,158.52 -14.19,230.31l-6.5 -8.87c119.18,30.12 235.68,59.54 343.45,86.79l-7.66 1.94c444.79,-413.46 828.28,-769.98 1116.57,-1037.96l2.68 -2.51 3.39 1.49c124.16,55.64 248.49,69.99 353.8,62.92 105.82,-7.91 193.33,-36.27 259.79,-67.1 66.74,-31.11 112.32,-65.18 143.15,-87.58 14.33,-11.89 25.35,-21.08 33.33,-27.68 7.53,-6.15 11.62,-9.04 11.62,-9.04z"/>
   <path fill="#D9DAD9" fill-rule="nonzero" d="M21726.79 1110.93c79.6,85.31 74.96,218.97 -10.35,298.56 -85.31,79.6 -218.96,74.97 -298.56,-10.34 -79.6,-85.31 -74.96,-218.97 10.35,-298.57 85.31,-79.59 218.96,-74.96 298.56,10.35zm108.87 905.58c297.4,-277.45 313.54,-743.44 36.1,-1040.83 -277.42,-297.37 -743.44,-313.55 -1040.8,-36.1 -254.39,237.3 -302.81,612.46 -137.93,902.16l-0.21 0.21 -149.62 139.56 35.8 248.73 -232.53 -65.18 -187.47 174.94 35.8 248.66 -232.54 -65.18 -161.13 150.36 21.82 151.57 -141.71 -39.73 -93.78 87.54 -14.05 230.35 343.55 86.44 1114.71 -1039.99c262.27,117.55 580.64,74.83 803.99,-133.51z"/>
   <path fill="#2C3C43" fill-rule="nonzero" d="M21726.79 1110.93c-1.34,1.38 -13.8,-12.85 -41.99,-30.19 -27.65,-16.99 -74.5,-35.73 -132.91,-29.17 -57.32,5.37 -125.46,42.16 -160,111.34 -35.56,67.13 -28.75,165.26 32.66,229.95 60.28,65.78 157.73,79.38 227.19,48.55 71.41,-29.62 112.83,-95.09 122.19,-151.88 10.55,-57.84 -4.91,-105.86 -19.96,-134.64 -15.28,-29.31 -28.67,-42.73 -27.19,-43.96 0.46,-0.42 3.92,2.68 10.13,9.15 6.33,6.29 14.62,16.7 23.34,31.35 17.45,28.64 35.99,78.51 26.49,140.27 -8.23,60.66 -51.31,132.28 -128.4,165.29 -37.64,16.57 -82.7,22.81 -126.94,14.23 -44.39,-7.7 -87.4,-31.15 -120.31,-65.82 -32.28,-35.2 -52.69,-79.7 -57.28,-124.54 -5.48,-44.74 3.88,-89.21 23.02,-125.64 38.28,-74.58 112.64,-112.58 173.73,-116.6 62.29,-5.23 110.75,16.74 138.14,36.13 14.02,9.71 23.8,18.75 29.63,25.49 6.01,6.64 8.9,10.28 8.44,10.7z"/>
   <path fill="#2C3C43" fill-rule="nonzero" d="M21835.66 2016.51c0,0 -3.39,3.6 -10.59,10.17 -7.77,6.92 -18.51,16.46 -32.42,28.92 -30.3,23.23 -75.63,58.34 -142.52,90.58 -66.6,31.95 -154.7,61.48 -261.7,70.34 -106.5,7.98 -232.61,-5.65 -359.02,-61.41l6.08 -1.02c-287.34,269.04 -669.55,626.9 -1112.87,1041.96l-3.28 3.07 -4.38 -1.09c-107.88,-27.02 -224.37,-56.25 -343.63,-86.13l-6.96 -1.72 0.46 -7.18c4.31,-71.79 9.04,-150.53 13.88,-230.34l0.21 -3.46 2.54 -2.43c29.1,-27.16 61.3,-57.25 93.72,-87.55l3.67 -3.38 4.76 1.34c44.14,12.32 92.76,25.96 141.74,39.62l-11.26 9.92c-6.85,-47.36 -14.37,-99.3 -21.86,-151.56l-0.7 -4.69 3.45 -3.21c50.61,-47.25 105.62,-98.6 161.07,-150.4l3.77 -3.49 4.9 1.37c73.38,20.59 152.66,42.76 232.54,65.11l-11.55 10.14c-11.33,-78.86 -23.55,-163.46 -35.84,-248.67l-0.67 -4.76 3.52 -3.28c15.69,-14.62 32.67,-30.48 49.69,-46.37 46.19,-43.08 92.13,-85.98 137.78,-128.54l3.78 -3.53 4.94 1.41c78.22,21.93 155.69,43.65 232.53,65.22l-11.55 10.1c-12,-83.76 -23.93,-166.71 -35.69,-248.7l-0.67 -4.73 3.46 -3.21c50.46,-47.04 100.43,-93.61 149.86,-139.73l-1.65 11.01c-58.02,-104.27 -91.39,-219.95 -95.7,-335.29 -2.43,-57.49 1.03,-114.94 12.15,-170.38 9.61,-55.79 27.44,-109.26 49.05,-160.15 88.36,-204.6 266.61,-351.85 457.79,-411.07 192.24,-61.05 393.83,-36.59 551.26,41.63 159.83,77.1 273.01,206.76 338.96,338.61 64.41,133.94 83.27,270.74 72.43,386.5 -9.61,116.38 -44.46,212.23 -82.63,283.56 -4.69,9 -9.25,17.73 -13.7,26.21 -5.19,8.01 -10.24,15.82 -15.14,23.37 -10,14.9 -18.33,29.52 -27.94,41.77 -19.84,23.94 -35.13,45.45 -50.14,60.42 -14.65,14.62 -25.93,25.89 -34,33.97 -7.74,7.59 -11.94,11.16 -11.94,11.16 0,0 3.46,-4.38 10.77,-12.32 7.84,-8.34 18.68,-19.92 32.77,-34.96 14.58,-15.25 29.34,-36.97 48.7,-61.09 9.32,-12.32 17.37,-26.98 27.12,-41.91 4.73,-7.53 9.64,-15.32 14.69,-23.34 4.3,-8.48 8.72,-17.2 13.27,-26.21 36.94,-71.15 70.56,-166.32 79.1,-281.33 9.89,-114.41 -9.67,-249.16 -73.76,-380.63 -65.61,-129.42 -177.51,-256.33 -334.62,-331.36 -154.74,-76.17 -352.45,-99.37 -540.46,-39.13 -186.94,58.48 -361,202.98 -446.88,402.94 -21.05,49.8 -38.39,102.06 -47.64,156.54 -10.84,54.17 -14.09,110.28 -11.65,166.46 4.34,112.58 37.08,225.43 93.78,327.13l3.46 6.22 -5.16 4.84c-49.4,46.12 -99.33,92.72 -149.76,139.84l2.79 -7.92c11.82,82 23.76,164.91 35.88,248.67l1.97 13.87 -13.55 -3.77c-76.77,-21.51 -154.32,-43.22 -232.5,-65.11l8.76 -2.12c-45.62,42.55 -91.57,85.42 -137.79,128.54 -16.99,15.9 -34,31.71 -49.68,46.34l2.82 -8.02c12.29,85.27 24.4,169.89 35.77,248.7l1.97 13.94 -13.52 -3.81c-79.88,-22.38 -159.12,-44.63 -232.5,-65.21l8.69 -2.09c-55.54,51.74 -110.57,103.04 -161.24,150.26l2.79 -7.88c7.49,52.3 14.93,104.24 21.75,151.6l1.94 13.59 -13.24 -3.7c-48.91,-13.73 -97.54,-27.41 -141.64,-39.8l8.41 -2.08c-32.45,30.26 -64.69,60.31 -93.83,87.47l2.79 -5.9c-4.94,79.77 -9.82,158.51 -14.26,230.3l-6.47 -8.86c119.19,30.12 235.68,59.54 343.45,86.79l-7.63 1.94c444.76,-413.47 828.25,-769.98 1116.54,-1037.96l2.72 -2.51 3.35 1.52c124.16,55.61 248.49,69.92 353.8,62.89 105.83,-7.91 193.37,-36.27 259.82,-67.1 66.71,-31.11 112.33,-65.22 143.12,-87.61 14.34,-11.87 25.35,-21.01 33.34,-27.66 7.48,-6.14 11.61,-9 11.61,-9z"/>
   <path fill="#2C3C43" fill-rule="nonzero" d="M21768.07 1959.05c-2.54,-2.19 43.04,-38.6 98.88,-124.76 28.5,-42.51 55.4,-99.97 75.7,-169.5 19.92,-69.64 30.65,-153.04 21.05,-243.87 -9.85,-90.26 -38.56,-188.77 -97.07,-278.75 -58.55,-88.95 -141.82,-173.28 -250.11,-226.42 -53.15,-28.04 -112.3,-47.71 -174.09,-58.8 -30.79,-6.82 -62.61,-8.19 -94.6,-10.91 -32.06,0.53 -64.51,-0.11 -96.89,4.8 -130.17,13.84 -258.77,73.2 -361.03,166.81 -100.5,95.48 -168.69,219.71 -191.54,348.64 -7.14,31.99 -8.76,64.4 -11.51,96.36 0.49,32.06 -0.35,63.95 4.34,95.13 6.75,62.47 22.28,122.82 46.58,177.79 45.51,111.73 123.87,200.65 208.59,265.2 85.7,64.58 182,100.11 271.41,116.17 89.87,15.86 173.84,10.91 244.65,-4.12 70.8,-15.44 129.95,-38.32 174.37,-63.78 89.8,-49.72 129.24,-92.65 131.29,-90.01 0.21,0.21 -2.33,2.75 -7.42,7.45 -5.97,5.34 -13.56,12.11 -23.05,20.63 -10,9.28 -22.85,20.16 -39.52,31.11 -16.25,11.51 -34.74,25.28 -57.85,37.08 -44.34,26.73 -103.88,50.92 -175.64,67.59 -71.72,16.25 -157.17,22.21 -249.05,6.85 -91.32,-15.54 -190.09,-51.06 -278.23,-116.7 -87.15,-65.5 -167.9,-156.25 -215.15,-270.84 -25.11,-56.33 -41.28,-118.3 -48.45,-182.42 -4.84,-32.03 -4.13,-64.76 -4.66,-97.72 2.72,-32.87 4.37,-66.2 11.62,-99.09 23.26,-132.56 93.25,-260.6 196.72,-358.77 105.09,-96.33 237.61,-157.24 371.45,-171.27 33.29,-4.94 66.63,-4.27 99.61,-4.69 32.84,2.82 65.5,4.38 97.14,11.44 63.49,11.58 124.12,32.03 178.61,60.99 110.99,55.04 195.94,141.85 255.27,233.34 59.36,92.48 87.97,193.48 97.14,285.64 8.97,92.73 -2.89,177.51 -24.08,247.96 -21.57,70.45 -49.86,128.16 -79.6,170.57 -13.38,22.24 -28.35,39.72 -40.99,55.15 -12.08,15.89 -23.84,27.93 -33.76,37.29 -9.15,8.87 -16.46,15.97 -22.17,21.54 -5.05,4.76 -7.74,7.1 -7.95,6.89z"/>
   <path fill="#2C3C43" fill-rule="nonzero" d="M21738.13 1436.5c-1.48,-1.45 15.41,-15.89 35.96,-48.87 20.05,-32.42 42.37,-87.51 34.78,-156.29 -3.96,-33.94 -14.97,-70.81 -37.09,-104.38 -22.1,-33.23 -53.39,-64.66 -93.92,-84.36 -39.87,-20.38 -88.22,-30.16 -136.62,-23.94 -48.63,5.23 -96.54,27.44 -134.72,62.36 -37.5,35.62 -62.96,81.92 -71.58,130.06 -9.53,47.88 -3.17,96.82 14.41,137.99 16.88,41.85 46.04,75.21 77.65,99.59 31.99,24.36 68.02,37.92 101.56,44.2 68.12,12.29 124.62,-6.11 158.34,-23.93 34.32,-18.19 49.93,-34.01 51.23,-32.42 0.43,0.46 -3.31,4.41 -10.94,11.62 -7.42,7.31 -19.64,16.95 -36.84,27.08 -33.61,20.24 -91.88,41.71 -163.99,30.48 -35.45,-5.8 -73.97,-19.39 -108.37,-44.77 -34.08,-25.32 -65.68,-60.56 -84.22,-105.2 -19.28,-43.92 -26.53,-96.43 -16.53,-147.95 9,-51.77 36.3,-101.88 76.73,-140.19 41.03,-37.65 92.87,-61.41 145.13,-66.82 52.12,-6.39 103.96,4.45 146.44,26.77 43.22,21.58 76.2,55.55 99.12,91.25 22.92,36.13 33.83,75.46 37.12,111.27 6.25,72.71 -19.21,129.35 -41.74,161.49 -11.26,16.46 -21.79,27.97 -29.56,34.92 -7.73,7.06 -11.93,10.52 -12.36,10.06z"/>
   <path fill="#2C3C43" fill-rule="nonzero" d="M19826.93 3149.22c-3.46,-3.7 247.57,-243.51 560.62,-535.57 313.11,-292.18 569.73,-525.91 573.15,-522.2 3.49,3.7 -247.47,243.48 -560.66,535.65 -313.01,292.03 -569.62,525.83 -573.11,522.12z"/>
   <path fill="#2C3C43" fill-rule="nonzero" d="M18742.27 6339.22c0,5.08 -39.51,9.22 -88.28,9.22 -48.77,0 -88.29,-4.13 -88.29,-9.22 0,-5.08 39.52,-9.18 88.29,-9.18 48.77,0 88.28,4.09 88.28,9.18z"/>
   <path fill="#2C3C43" fill-rule="nonzero" d="M19095.39 6339.22c0,5.08 -39.52,9.22 -88.28,9.22 -48.77,0 -88.29,-4.13 -88.29,-9.22 0,-5.08 39.52,-9.18 88.29,-9.18 48.76,0 88.28,4.09 88.28,9.18z"/>
   <path fill="#2C3C43" fill-rule="nonzero" d="M19448.52 6339.22c0,5.08 -39.52,9.22 -88.29,9.22 -48.76,0 -88.28,-4.13 -88.28,-9.22 0,-5.08 39.52,-9.18 88.28,-9.18 48.77,0 88.29,4.09 88.29,9.18z"/>
   <path fill="#2C3C43" fill-rule="nonzero" d="M19801.64 6339.22c0,5.08 -39.52,9.22 -88.29,9.22 -48.77,0 -88.28,-4.13 -88.28,-9.22 0,-5.08 39.51,-9.18 88.28,-9.18 48.77,0 88.29,4.09 88.29,9.18z"/>
   <path fill="#2C3C43" fill-rule="nonzero" d="M20154.76 6339.22c0,5.08 -39.51,9.22 -88.28,9.22 -48.77,0 -88.28,-4.13 -88.28,-9.22 0,-5.08 39.51,-9.18 88.28,-9.18 48.77,0 88.28,4.09 88.28,9.18z"/>
   <path fill="#2C3C43" fill-rule="nonzero" d="M20507.88 6339.22c0,5.08 -39.51,9.22 -88.28,9.22 -48.77,0 -88.29,-4.13 -88.29,-9.22 0,-5.08 39.52,-9.18 88.29,-9.18 48.77,0 88.28,4.09 88.28,9.18z"/>
   <path fill="#2C3C43" fill-rule="nonzero" d="M20807.48 6285.73c3.81,0 7.06,22.03 8.48,53.49l0.35 8.06 -8.83 0.42c-10.63,0.46 -22.39,0.74 -34.74,0.74 -48.77,0 -88.29,-4.13 -88.29,-9.22 0,-5.08 39.52,-9.18 88.29,-9.18 12.35,0 24.11,0.25 34.74,0.74l-8.44 8.44c1.41,-31.46 4.65,-53.49 8.44,-53.49z"/>
   <path fill="#2C3C43" fill-rule="nonzero" d="M20807.48 5932.61c5.08,0 9.22,39.51 9.22,88.28 0,48.77 -4.13,88.29 -9.22,88.29 -5.05,0 -9.18,-39.52 -9.18,-88.29 0,-48.77 4.12,-88.28 9.18,-88.28z"/>
   <path fill="#2C3C43" fill-rule="nonzero" d="M20807.48 5579.48c5.08,0 9.22,39.52 9.22,88.28 0,48.77 -4.13,88.29 -9.22,88.29 -5.05,0 -9.18,-39.52 -9.18,-88.29 0,-48.76 4.12,-88.28 9.18,-88.28z"/>
   <path fill="#2C3C43" fill-rule="nonzero" d="M20807.48 5226.36c5.08,0 9.22,39.52 9.22,88.29 0,48.77 -4.13,88.28 -9.22,88.28 -5.05,0 -9.18,-39.51 -9.18,-88.28 0,-48.77 4.12,-88.29 9.18,-88.29z"/>
   <path fill="#2C3C43" fill-rule="nonzero" d="M20807.48 4873.23c5.08,0 9.22,39.52 9.22,88.29 0,48.77 -4.13,88.28 -9.22,88.28 -5.05,0 -9.18,-39.51 -9.18,-88.28 0,-48.77 4.12,-88.29 9.18,-88.29z"/>
   <path fill="#2C3C43" fill-rule="nonzero" d="M20807.48 4520.12c5.08,0 9.22,39.51 9.22,88.28 0,48.77 -4.13,88.29 -9.22,88.29 -5.05,0 -9.18,-39.52 -9.18,-88.29 0,-48.77 4.12,-88.28 9.18,-88.28z"/>
   <path fill="#2C3C43" fill-rule="nonzero" d="M20807.48 4166.99c5.08,0 9.22,39.52 9.22,88.28 0,48.77 -4.13,88.29 -9.22,88.29 -5.05,0 -9.18,-39.52 -9.18,-88.29 0,-48.76 4.12,-88.28 9.18,-88.28z"/>
   <path fill="#2C3C43" fill-rule="nonzero" d="M20807.48 3813.87c5.08,0 9.22,39.52 9.22,88.29 0,48.76 -4.13,88.28 -9.22,88.28 -5.05,0 -9.18,-39.52 -9.18,-88.28 0,-48.77 4.12,-88.29 9.18,-88.29z"/>
   <path fill="#2C3C43" fill-rule="nonzero" d="M20807.48 3460.74c5.08,0 9.22,39.52 9.22,88.29 0,48.77 -4.13,88.28 -9.22,88.28 -5.05,0 -9.18,-39.51 -9.18,-88.28 0,-48.77 4.12,-88.29 9.18,-88.29z"/>
   <path fill="#2C3C43" fill-rule="nonzero" d="M20807.48 3107.63c5.08,0 9.22,39.51 9.22,88.28 0,48.77 -4.13,88.28 -9.22,88.28 -5.05,0 -9.18,-39.51 -9.18,-88.28 0,-48.77 4.12,-88.28 9.18,-88.28z"/>
   <path fill="#2C3C43" fill-rule="nonzero" d="M20807.48 2754.5c5.08,0 9.22,39.51 9.22,88.28 0,48.77 -4.13,88.29 -9.22,88.29 -5.05,0 -9.18,-39.52 -9.18,-88.29 0,-48.77 4.12,-88.28 9.18,-88.28z"/>
   <path fill="#2C3C43" fill-rule="nonzero" d="M18159.87 9858.9c0,5.13 -39.52,9.22 -88.29,9.22 -48.77,0 -88.28,-4.09 -88.28,-9.22 0,-5.04 39.51,-9.18 88.28,-9.18 48.77,0 88.29,4.13 88.29,9.18z"/>
   <path fill="#2C3C43" fill-rule="nonzero" d="M18512.98 9858.9c0,5.13 -39.51,9.22 -88.28,9.22 -48.77,0 -88.28,-4.09 -88.28,-9.22 0,-5.04 39.51,-9.18 88.28,-9.18 48.77,0 88.28,4.13 88.28,9.18z"/>
   <path fill="#2C3C43" fill-rule="nonzero" d="M18866.11 9858.9c0,5.13 -39.51,9.22 -88.28,9.22 -48.77,0 -88.29,-4.09 -88.29,-9.22 0,-5.04 39.52,-9.18 88.29,-9.18 48.77,0 88.28,4.13 88.28,9.18z"/>
   <path fill="#2C3C43" fill-rule="nonzero" d="M19219.23 9858.9c0,5.13 -39.52,9.22 -88.28,9.22 -48.77,0 -88.29,-4.09 -88.29,-9.22 0,-5.04 39.52,-9.18 88.29,-9.18 48.76,0 88.28,4.13 88.28,9.18z"/>
   <path fill="#2C3C43" fill-rule="nonzero" d="M19572.36 9858.9c0,5.13 -39.52,9.22 -88.29,9.22 -48.77,0 -88.28,-4.09 -88.28,-9.22 0,-5.04 39.51,-9.18 88.28,-9.18 48.77,0 88.29,4.13 88.29,9.18z"/>
   <path fill="#2C3C43" fill-rule="nonzero" d="M19925.48 9858.9c0,5.13 -39.52,9.22 -88.29,9.22 -48.77,0 -88.28,-4.09 -88.28,-9.22 0,-5.04 39.51,-9.18 88.28,-9.18 48.77,0 88.29,4.13 88.29,9.18z"/>
   <path fill="#2C3C43" fill-rule="nonzero" d="M20278.6 9858.9c0,5.13 -39.51,9.22 -88.28,9.22 -48.77,0 -88.29,-4.09 -88.29,-9.22 0,-5.04 39.52,-9.18 88.29,-9.18 48.77,0 88.28,4.13 88.28,9.18z"/>
   <path fill="#2C3C43" fill-rule="nonzero" d="M20631.72 9858.9c0,5.13 -39.51,9.22 -88.28,9.22 -48.77,0 -88.29,-4.09 -88.29,-9.22 0,-5.04 39.52,-9.18 88.29,-9.18 48.77,0 88.28,4.13 88.28,9.18z"/>
   <path fill="#2C3C43" fill-rule="nonzero" d="M20984.85 9858.9c0,5.13 -39.52,9.22 -88.29,9.22 -48.76,0 -88.28,-4.09 -88.28,-9.22 0,-5.04 39.52,-9.18 88.28,-9.18 48.77,0 88.29,4.13 88.29,9.18z"/>
   <path fill="#2C3C43" fill-rule="nonzero" d="M21337.97 9858.9c0,5.13 -39.52,9.22 -88.29,9.22 -48.77,0 -88.28,-4.09 -88.28,-9.22 0,-5.04 39.51,-9.18 88.28,-9.18 48.77,0 88.29,4.13 88.29,9.18z"/>
   <path fill="#2C3C43" fill-rule="nonzero" d="M21658.36 9825.89c2.89,0.03 5.37,12.81 6.86,33.08l0.45 6.47 -7.63 0.64c-14.86,1.27 -34.17,2.04 -55.22,2.04 -48.77,0 -88.28,-4.09 -88.28,-9.22 0,-5.04 39.51,-9.18 88.28,-9.18 21.05,0 40.36,0.78 55.22,2.05l-7.17 7.06c1.91,-20.23 4.59,-32.98 7.49,-32.94z"/>
   <path fill="#2C3C43" fill-rule="nonzero" d="M21661.85 9472.76c5.08,0.07 8.83,39.62 8.34,88.39 -0.49,48.73 -4.97,88.22 -10.06,88.18 -5.08,-0.04 -8.83,-39.59 -8.3,-88.39 0.42,-48.73 4.93,-88.21 10.02,-88.18z"/>
   <path fill="#2C3C43" fill-rule="nonzero" d="M21665.35 9119.68c5.08,0.03 8.79,39.62 8.33,88.35 -0.49,48.74 -5.01,88.25 -10.06,88.22 -5.08,-0.07 -8.8,-39.62 -8.34,-88.39 0.5,-48.77 4.98,-88.25 10.07,-88.18z"/>
   <path fill="#2C3C43" fill-rule="nonzero" d="M21668.85 8766.55c5.08,0.07 8.79,39.62 8.3,88.39 -0.46,48.73 -4.94,88.22 -10.06,88.18 -5.05,-0.04 -8.8,-39.62 -8.3,-88.39 0.49,-48.73 5,-88.21 10.06,-88.18z"/>
   <path fill="#F1626C" fill-rule="nonzero" d="M20500.3 7659.9l64.86 1193.35c2.33,42.51 37.3,75.88 79.88,76.2l2147.38 15.72c44.49,0.31 80.83,-35.49 81.15,-79.95l6.81 -928.93c0.32,-44.7 -35.8,-81.11 -80.51,-81.18l-1320.68 -1.17c-21.33,0 -41.81,-8.47 -56.85,-23.58l-227.87 -227.77c-14.97,-14.93 -35.24,-23.4 -56.4,-23.55l-556.73 -4.09c-46.44,-0.35 -83.58,38.57 -81.04,84.96z"/>
   <polygon fill="#EFEFEF" fill-rule="nonzero" points="22871.76,9116.79 20525.43,9099.59 20535.71,7697.55 22882.03,7714.75 "/>
   <path fill="#F1626C" fill-rule="nonzero" d="M20348.17 7822.02l168.4 1463.34c3,26 24.93,45.69 51.1,45.9l2286.57 16.74c27.05,0.18 49.72,-20.44 52.01,-47.35l125.85 -1461.23c2.58,-30.12 -21.01,-56.03 -51.27,-56.24l-2580.83 -18.93c-31.11,-0.22 -55.4,26.84 -51.84,57.77z"/>
   <path fill="#2C3C43" fill-rule="nonzero" d="M18432.09 14043.06l-11818.98 0c-284.09,0 -514.4,-230.27 -514.4,-514.4l0 -7467.3c0,-284.09 230.31,-514.39 514.4,-514.39l11818.98 0c284.13,0 514.39,230.3 514.39,514.39l0 7467.3c0,284.13 -230.26,514.4 -514.39,514.4z"/>
   <path fill="#2C3C43" fill-rule="nonzero" d="M18852.56 14158.1l-12662.67 0c-347.08,0 -628.45,-281.37 -628.45,-628.49l0 -114.9 13919.61 0 0 114.9c0,347.12 -281.4,628.49 -628.48,628.49z"/>
   <polygon fill="#42616A" fill-rule="nonzero" points="6443.57,13059.36 18565.71,13059.36 18565.71,5884.51 6443.57,5884.51 "/>
   <polygon fill="#42616A" fill-rule="nonzero" points="11256.07,13414.7 11428.81,13689.47 13859.36,13689.47 14019.75,13414.7 "/>
   <path fill="#E5E6E5" fill-rule="nonzero" d="M18225.37 13036.4l-11416.53 0c-63.84,0 -115.57,-51.76 -115.57,-115.6l0 -6677.8c0,-63.84 51.73,-115.57 115.57,-115.57l11416.53 0c63.84,0 115.57,51.73 115.57,115.53l0 6677.87c0,63.85 -51.73,115.57 -115.57,115.57z"/>
   <polygon fill="#F7F7F6" fill-rule="nonzero" points="6693.27,13036.4 18340.95,13036.4 18340.95,6633.62 6693.27,6633.62 "/>
   <path fill="#2C3C43" fill-rule="nonzero" d="M7648.53 6394.21c0,51.41 -41.63,93.05 -93.01,93.05 -51.38,0 -93.01,-41.64 -93.01,-93.05 0,-51.34 41.63,-92.98 93.01,-92.98 51.38,0 93.01,41.64 93.01,92.98z"/>
   <path fill="#2C3C43" fill-rule="nonzero" d="M7084.77 6394.21c0,51.41 -41.67,93.05 -93.05,93.05 -51.34,0 -93.01,-41.64 -93.01,-93.05 0,-51.34 41.67,-92.98 93.01,-92.98 51.38,0 93.05,41.64 93.05,92.98z"/>
   <path fill="#2C3C43" fill-rule="nonzero" d="M7355.37 6394.21c0,51.41 -41.63,93.05 -93.01,93.05 -51.38,0 -93.01,-41.64 -93.01,-93.05 0,-51.34 41.63,-92.98 93.01,-92.98 51.38,0 93.01,41.64 93.01,92.98z"/>
   <path fill="#42616A" fill-rule="nonzero" d="M18836.1 13414.7c0,4.59 -2851.62,8.33 -6368.39,8.33 -3518.03,0 -6369,-3.73 -6369,-8.33 0,-4.59 2850.98,-8.33 6369,-8.33 3516.78,0 6368.39,3.73 6368.39,8.33z"/>
   <polygon fill="#D9DAD9" fill-rule="nonzero" points="7500.47,10036.8 10158.43,10036.8 10158.43,9859 7500.47,9859 "/>
   <polygon fill="#D9DAD9" fill-rule="nonzero" points="10933.6,7568.23 13591.55,7568.23 13591.55,7390.43 10933.6,7390.43 "/>
   <path fill="#D9DAD9" fill-rule="nonzero" d="M17544.73 8052.62c0,4.58 -1480.09,8.3 -3305.41,8.3 -1825.96,0 -3305.72,-3.71 -3305.72,-8.3 0,-4.59 1479.76,-8.31 3305.72,-8.31 1825.32,0 3305.41,3.71 3305.41,8.31z"/>
   <path fill="#D9DAD9" fill-rule="nonzero" d="M17544.73 8440.87c0,4.59 -1480.09,8.3 -3305.41,8.3 -1825.96,0 -3305.72,-3.7 -3305.72,-8.3 0,-4.58 1479.76,-8.3 3305.72,-8.3 1825.32,0 3305.41,3.71 3305.41,8.3z"/>
   <path fill="#D9DAD9" fill-rule="nonzero" d="M17544.73 8829.12c0,4.59 -1480.09,8.3 -3305.41,8.3 -1825.96,0 -3305.72,-3.7 -3305.72,-8.3 0,-4.62 1479.76,-8.33 3305.72,-8.33 1825.32,0 3305.41,3.7 3305.41,8.33z"/>
   <path fill="#D9DAD9" fill-rule="nonzero" d="M17544.73 9217.38c0,4.59 -1480.09,8.34 -3305.41,8.34 -1825.96,0 -3305.72,-3.74 -3305.72,-8.34 0,-4.62 1479.76,-8.33 3305.72,-8.33 1825.32,0 3305.41,3.7 3305.41,8.33z"/>
   <path fill="#D9DAD9" fill-rule="nonzero" d="M17544.73 9605.61c0,4.62 -1480.09,8.37 -3305.41,8.37 -1825.96,0 -3305.72,-3.74 -3305.72,-8.37 0,-4.59 1479.76,-8.3 3305.72,-8.3 1825.32,0 3305.41,3.7 3305.41,8.3z"/>
   <path fill="#D9DAD9" fill-rule="nonzero" d="M13514.22 9993.87c0,4.58 -577.71,8.33 -1290.24,8.33 -712.78,0 -1290.38,-3.74 -1290.38,-8.33 0,-4.56 577.6,-8.3 1290.38,-8.3 712.53,0 1290.24,3.73 1290.24,8.3z"/>
   <path fill="#D9DAD9" fill-rule="nonzero" d="M17496.38 10747.4c0,4.58 -972.82,8.34 -2172.58,8.34 -1200.16,0 -2172.76,-3.75 -2172.76,-8.34 0,-4.59 972.6,-8.34 2172.76,-8.34 1199.76,0 2172.58,3.74 2172.58,8.34z"/>
   <path fill="#D9DAD9" fill-rule="nonzero" d="M17496.38 11159.52c0,4.59 -972.82,8.37 -2172.58,8.37 -1200.16,0 -2172.76,-3.77 -2172.76,-8.37 0,-4.58 972.6,-8.29 2172.76,-8.29 1199.76,0 2172.58,3.7 2172.58,8.29z"/>
   <path fill="#D9DAD9" fill-rule="nonzero" d="M17496.38 11571.69c0,4.58 -972.82,8.29 -2172.58,8.29 -1200.16,0 -2172.76,-3.7 -2172.76,-8.29 0,-4.63 972.6,-8.33 2172.76,-8.33 1199.76,0 2172.58,3.69 2172.58,8.33z"/>
   <path fill="#D9DAD9" fill-rule="nonzero" d="M17496.38 11983.82c0,4.59 -972.82,8.3 -2172.58,8.3 -1200.16,0 -2172.76,-3.7 -2172.76,-8.3 0,-4.58 972.6,-8.3 2172.76,-8.3 1199.76,0 2172.58,3.71 2172.58,8.3z"/>
   <path fill="#D9DAD9" fill-rule="nonzero" d="M10165.17 10707.95c0,4.62 -579.94,8.37 -1295.12,8.37 -715.43,0 -1295.22,-3.74 -1295.22,-8.37 0,-4.59 579.79,-8.29 1295.22,-8.29 715.18,0 1295.12,3.69 1295.12,8.29z"/>
   <path fill="#D9DAD9" fill-rule="nonzero" d="M10165.17 11031.63c0,4.61 -579.94,8.37 -1295.12,8.37 -715.43,0 -1295.22,-3.75 -1295.22,-8.37 0,-4.59 579.79,-8.31 1295.22,-8.31 715.18,0 1295.12,3.71 1295.12,8.31z"/>
   <path fill="#D9DAD9" fill-rule="nonzero" d="M10165.17 11355.29c0,4.59 -579.94,8.34 -1295.12,8.34 -715.43,0 -1295.22,-3.74 -1295.22,-8.34 0,-4.58 579.79,-8.3 1295.22,-8.3 715.18,0 1295.12,3.71 1295.12,8.3z"/>
   <path fill="#D9DAD9" fill-rule="nonzero" d="M10165.17 11678.97c0,4.59 -579.94,8.33 -1295.12,8.33 -715.43,0 -1295.22,-3.73 -1295.22,-8.33 0,-4.59 579.79,-8.31 1295.22,-8.31 715.18,0 1295.12,3.71 1295.12,8.31z"/>
   <path fill="#D9DAD9" fill-rule="nonzero" d="M10165.17 12002.65c0,4.59 -579.94,8.33 -1295.12,8.33 -715.43,0 -1295.22,-3.73 -1295.22,-8.33 0,-4.62 579.79,-8.33 1295.22,-8.33 715.18,0 1295.12,3.7 1295.12,8.33z"/>
   <polygon fill="#EFEFEF" fill-rule="nonzero" points="10931.97,12375.26 12817.79,12375.26 12817.79,10550.79 10931.97,10550.79 "/>
   <polygon fill="#E5E6E5" fill-rule="nonzero" points="11078.2,12219.11 11599.83,11280.22 12026.55,11880.32 12285.81,11561.66 12671.56,12219.11 "/>
   <path fill="#E5E6E5" fill-rule="nonzero" d="M12208.34 11097.63c0,74.96 -60.77,135.72 -135.74,135.72 -74.93,0 -135.7,-60.76 -135.7,-135.72 0,-74.94 60.77,-135.68 135.7,-135.68 74.97,0 135.74,60.74 135.74,135.68z"/>
   <path fill="#E5E6E5" fill-rule="nonzero" d="M12671.56 12224.18c-0.14,-0.13 -0.28,-2.67 -0.42,-7.48 -0.11,-5.48 -0.25,-12.42 -0.42,-21.25 -0.21,-19.42 -0.53,-46.83 -0.92,-82.1 -0.42,-72.36 -1.13,-177.03 -1.98,-309.86 -0.98,-266.47 -2.32,-645.97 -3.95,-1101.65l7.7 7.7c-461.46,0.38 -1008.52,0.85 -1593.22,1.26 -2.15,1.92 16.85,-16.84 8.79,-8.72l0 103.47c0,34.47 0,68.82 0,103 -0.03,68.34 -0.03,136.1 -0.07,203.16 -0.03,134.09 -0.1,265.29 -0.21,393.13 -0.28,255.52 -0.56,497.12 -0.84,719.33l-7.81 -7.83c475.55,1.65 872.78,3.03 1152.03,3.98 139.24,0.88 249.09,1.56 324.95,2.05 37.12,0.39 65.85,0.66 86.23,0.91 9.32,0.18 16.6,0.32 22.31,0.43 5.05,0.18 7.7,0.32 7.84,0.45 0.18,0.15 -2.18,0.29 -6.96,0.43 -5.47,0.11 -12.53,0.29 -21.5,0.45 -19.99,0.23 -48.24,0.54 -84.64,0.89 -75.49,0.49 -184.72,1.2 -323.18,2.08 -280.48,0.96 -679.48,2.33 -1157.08,3.95l-7.84 0.05 0 -7.86c-0.25,-222.22 -0.57,-463.81 -0.88,-719.33 -0.07,-127.84 -0.11,-259.04 -0.22,-393.13 0,-67.06 -0.03,-134.82 -0.03,-203.16 -0.04,-34.18 -0.04,-68.53 -0.04,-103l0 -103.47c-8.01,7.92 10.91,-11.22 9.15,-9.25 584.7,0.49 1131.76,0.96 1593.22,1.31l7.77 0 -0.03 7.7c-1.66,457.68 -3,838.84 -3.92,1106.54 -0.88,132.1 -1.55,236.18 -2.04,308.1 -0.39,34.67 -0.71,61.59 -0.88,80.62 -0.18,8.51 -0.32,15.21 -0.43,20.44 -0.14,4.55 -0.28,6.79 -0.46,6.64z"/>
   <polygon fill="#EFEFEF" fill-rule="nonzero" points="7550.58,9561.47 10108.31,9561.47 10108.31,7086.88 7550.58,7086.88 "/>
   <polygon fill="#D9DAD9" fill-rule="nonzero" points="7748.89,9349.66 8456.44,8076.31 9035.18,8890.21 9386.85,8457.96 9910,9349.66 "/>
   <path fill="#D9DAD9" fill-rule="nonzero" d="M9281.69 7828.63c0,101.66 -82.38,184.05 -184.04,184.05 -101.67,0 -184.09,-82.39 -184.09,-184.05 0,-101.67 82.42,-184.09 184.09,-184.09 101.66,0 184.04,82.42 184.04,184.09z"/>
   <path fill="#D9DAD9" fill-rule="nonzero" d="M9910 9356.59c-0.18,-0.21 -0.35,-3.64 -0.6,-10.17 -0.11,-7.39 -0.32,-16.85 -0.56,-28.85 -0.29,-26.35 -0.67,-63.49 -1.2,-111.35 -0.64,-98.13 -1.56,-240.08 -2.72,-420.28 -1.3,-361.42 -3.14,-876.14 -5.37,-1494.13l10.45 10.45c-625.91,0.49 -1367.86,1.09 -2160.9,1.73 -2.89,2.57 22.88,-22.92 11.97,-11.83l0 140.3c0,46.79 0,93.33 0,139.7 -0.03,92.72 -0.07,184.61 -0.1,275.54 -0.11,181.86 -0.22,359.9 -0.32,533.21 -0.39,346.56 -0.78,674.22 -1.13,975.64l-10.63 -10.63c645.01,2.23 1183.78,4.1 1562.54,5.41 188.88,1.2 337.79,2.15 440.73,2.79 50.32,0.53 89.34,0.95 116.91,1.23 12.68,0.25 22.57,0.46 30.3,0.6 6.86,0.21 10.45,0.43 10.63,0.64 0.21,0.14 -2.96,0.35 -9.43,0.56 -7.49,0.14 -16.99,0.35 -29.13,0.64 -27.13,0.28 -65.43,0.67 -114.87,1.2 -102.37,0.67 -250.47,1.58 -438.33,2.78 -380.42,1.31 -921.51,3.18 -1569.35,5.38l-10.59 0.07 0 -10.67c-0.39,-301.42 -0.78,-629.08 -1.17,-975.64 -0.14,-173.31 -0.21,-351.35 -0.31,-533.21 -0.04,-90.93 -0.04,-182.82 -0.08,-275.54 0,-46.37 0,-92.91 0,-139.7l0 -70.28 -0.03 -35.27 0 -34.74c-10.88,10.66 14.79,-15.25 12.39,-12.54 793.04,0.64 1534.99,1.2 2160.9,1.7l10.52 0.03 -0.03 10.46c-2.22,620.75 -4.06,1137.76 -5.37,1500.81 -1.17,179.18 -2.09,320.31 -2.72,417.88 -0.53,47.04 -0.95,83.52 -1.2,109.37 -0.25,11.54 -0.46,20.62 -0.6,27.72 -0.18,6.19 -0.39,9.15 -0.6,9.01z"/>
   <polygon fill="#F1626C" fill-rule="nonzero" points="10451.13,8027.22 10577.47,8283.23 10860.01,8324.27 10655.59,8523.57 10703.82,8804.97 10451.13,8672.09 10198.43,8804.97 10246.7,8523.57 10042.25,8324.27 10324.78,8283.23 "/>
   <polygon fill="#F1626C" fill-rule="nonzero" points="11341.07,7137.28 11467.41,7393.29 11749.95,7434.36 11545.49,7633.67 11593.77,7915 11341.07,7782.19 11088.37,7915 11136.61,7633.67 10932.19,7434.36 11214.72,7393.29 "/>
   <polygon fill="#F1626C" fill-rule="nonzero" points="12530.42,6787.97 12656.76,7043.99 12939.3,7085.02 12734.84,7284.33 12783.12,7565.72 12530.42,7432.84 12277.72,7565.72 12325.96,7284.33 12121.54,7085.02 12404.07,7043.99 "/>
   <polygon fill="#F1626C" fill-rule="nonzero" points="13761.33,7145.58 13887.72,7401.59 14170.25,7442.66 13965.75,7641.97 14014.06,7923.37 13761.33,7790.49 13508.64,7923.37 13556.87,7641.97 13352.45,7442.66 13634.99,7401.59 "/>
   <polygon fill="#F1626C" fill-rule="nonzero" points="14609.71,7993.96 14736.06,8249.97 15018.56,8291.04 14814.13,8490.3 14862.41,8771.68 14609.71,8638.83 14357.01,8771.68 14405.25,8490.3 14200.83,8291.04 14483.37,8249.97 "/>
   <polygon fill="#F1626C" fill-rule="nonzero" points="14917.42,9224.87 15043.77,9480.89 15326.3,9521.95 15121.88,9721.26 15170.12,10002.62 14917.42,9869.78 14664.7,10002.62 14713,9721.26 14508.54,9521.95 14791.08,9480.89 "/>
   <polygon fill="#F1626C" fill-rule="nonzero" points="14618.01,10447.49 14744.35,10703.51 15026.89,10744.58 14822.43,10943.87 14870.71,11225.25 14618.01,11092.4 14365.31,11225.25 14413.55,10943.87 14209.13,10744.58 14491.67,10703.51 "/>
   <polygon fill="#F1626C" fill-rule="nonzero" points="13717.05,11295.87 13843.4,11551.88 14125.93,11592.91 13921.51,11792.17 13969.75,12073.58 13717.05,11940.7 13464.32,12073.58 13512.59,11792.17 13308.14,11592.91 13590.67,11551.88 "/>
   <polygon fill="#F1626C" fill-rule="nonzero" points="12506.48,11645.56 12632.82,11901.58 12915.36,11942.64 12710.9,12141.92 12759.2,12423.29 12506.48,12290.48 12253.78,12423.29 12302.02,12141.92 12097.6,11942.64 12380.13,11901.58 "/>
   <polygon fill="#F1626C" fill-rule="nonzero" points="11350.39,11296.21 11476.73,11552.24 11759.27,11593.3 11554.85,11792.61 11603.08,12074.01 11350.39,11941.12 11097.69,12074.01 11145.93,11792.61 10941.51,11593.3 11224.04,11552.24 "/>
   <polygon fill="#F1626C" fill-rule="nonzero" points="10435.51,10425.38 10561.87,10681.39 10844.4,10722.43 10639.94,10921.73 10688.21,11203.13 10435.51,11070.26 10182.83,11203.13 10231.06,10921.73 10026.63,10722.43 10309.17,10681.39 "/>
   <polygon fill="#F1626C" fill-rule="nonzero" points="10127.77,9226.28 10254.12,9482.3 10536.65,9523.36 10332.23,9722.67 10380.47,10004.04 10127.77,9871.19 9875.08,10004.04 9923.35,9722.67 9718.89,9523.36 10001.42,9482.3 "/>
   <path fill="#2C3C43" fill-rule="nonzero" d="M13402.38 10104.43l-247.18 0 0 -1345.39c0,-316.68 -257.64,-574.32 -574.28,-574.32 -316.69,0 -574.32,257.64 -574.32,574.32l0 1345.39 -247.19 0 0 -1345.39c0,-452.95 368.56,-821.51 821.51,-821.51 452.94,0 821.46,368.56 821.46,821.51l0 1345.39z"/>
   <path fill="#F1626C" fill-rule="nonzero" d="M13482.79 10926.5l-1803.78 0c-113.32,0 -205.17,-91.89 -205.17,-205.2l0 -1010.15c0,-113.31 91.85,-205.2 205.17,-205.2l1803.78 0c113.32,0 205.16,91.89 205.16,205.2l0 1010.15c0,113.31 -91.84,205.2 -205.16,205.2z"/>
   <path fill="#2C3C43" fill-rule="nonzero" d="M12765.99 10031.16c0,102.23 -82.88,185.07 -185.07,185.07 -102.23,0 -185.11,-82.84 -185.11,-185.07 0,-102.2 82.88,-185.07 185.11,-185.07 102.19,0 185.07,82.87 185.07,185.07z"/>
   <polygon fill="#2C3C43" fill-rule="nonzero" points="12530.42,10485.09 12631.38,10485.09 12631.38,10104.43 12530.42,10104.43 "/>
   <path fill="#F7F7F6" fill-rule="nonzero" d="M11591.89 10791.79c-5.08,0 -9.19,-236.92 -9.19,-529.06 0,-292.32 4.1,-529.16 9.19,-529.16 5.08,0 9.21,236.84 9.21,529.16 0,292.14 -4.12,529.06 -9.21,529.06z"/>
   <path fill="#F7F7F6" fill-rule="nonzero" d="M12435.96 10268.39c-0.56,0.91 -8.65,-2.9 -21.68,-12.33 -13.06,-9.32 -30.44,-25.31 -47.75,-48.62 -34.49,-45.24 -66.06,-127.48 -45.58,-216.26 21.54,-88.56 86.62,-147.91 137.78,-172.89 25.86,-13.06 48.56,-19.56 64.41,-22.06 15.9,-2.58 24.79,-2.37 24.93,-1.27 0.74,3.45 -35.1,6.81 -83.13,34.7 -47.21,26.7 -106.28,83.94 -126.09,165.76 -18.97,81.99 8.16,159.61 38.38,204.63 30.41,46.48 60.99,65.57 58.73,68.34z"/>
   <path fill="#2C3C43" fill-rule="nonzero" d="M4792.54 8875.39c-28.14,79.17 -20.3,167.55 5.62,247.43 25.93,79.95 68.87,153.08 111.49,225.47 55.5,-142.24 111.09,-284.87 150.15,-432.51 8.58,-32.45 14.82,-71.47 -8.3,-95.83 -17.56,-18.47 -45.83,-21.12 -71.26,-19.6 -74.55,4.41 -147.25,35.45 -201.99,86.23l14.29 -11.19z"/>
   <polygon fill="#2C3C43" fill-rule="nonzero" points="1678.6,12836.15 1100.91,14156.83 1896.17,14156.83 2462.43,12825.67 "/>
   <path fill="#42616A" fill-rule="nonzero" d="M5113.82 14141c779.41,-258.05 244.96,-1288.96 244.96,-1288.96l-3406.42 320.38c-273.48,-1.87 -496.16,219.36 -496.16,492.81 0,272.2 220.66,492.86 492.84,492.86l3164.78 -17.1z"/>
   <path fill="#42616A" fill-rule="nonzero" d="M5888.64 14158.1c759.42,-256.33 258.73,-1306.34 258.73,-1306.34l-3320.79 313.08c-324.35,4.23 -482.76,160.71 -482.76,491.73 0.6,272.11 101.19,501.53 481.62,493.8l3063.2 7.73z"/>
   <path fill="#2C3C43" fill-rule="nonzero" d="M5140.37 13026.02c0,-0.32 -3.21,-0.42 -9.46,-0.39 -7.21,0.18 -16.29,0.43 -27.66,0.68 -25.52,1.06 -61.12,2.53 -106.28,4.37 -93.54,4.62 -226.71,11.22 -390.73,19.35 -330.87,18.15 -785.95,43.08 -1288.64,70.62 -62.88,3.01 -125.15,8.52 -186.28,9.36 -61.52,0.96 -122.05,3.54 -181.48,7.11 -59.42,3.63 -117.75,8.05 -174.78,14.18 -56.54,6.57 -113.99,12.68 -166.07,34.05 -52.08,20.3 -99.71,50 -138.13,88.48 -38.51,38.51 -66.03,85.95 -83.74,134.44 -17.98,48.56 -27.79,97.86 -34.11,145.27 -6.17,47.43 -9.45,93.38 -9.13,137.33 0.34,87.83 15.68,167.69 43.82,231.3 27.89,63.77 66.74,110.35 103.28,140.65 36.73,30.58 70.69,45.83 94.04,53.11 23.48,7.41 23.9,5.01 1.07,-3.45 -22.73,-8.27 -55.59,-24.26 -90.94,-55.05 -35.19,-30.56 -72.42,-76.77 -98.79,-139.42 -26.66,-62.47 -40.88,-140.75 -40.47,-227.17 0.07,-43.21 3.65,-88.56 10.1,-135.3 6.58,-46.66 16.54,-94.89 34.22,-141.79 17.48,-46.9 43.98,-91.84 80.91,-128.44 36.92,-36.58 82.85,-65.01 133.25,-84.39 50.28,-20.44 105.54,-26.06 162.32,-32.55 56.72,-5.94 114.86,-10.18 174.09,-13.71 59.22,-3.41 119.55,-5.89 180.77,-6.77 61.59,-0.86 123.55,-6.25 186.56,-9.26 502.71,-29.63 957.79,-56.43 1288.69,-75.88 163.92,-10.56 297.01,-19.07 390.49,-25.07 45.12,-3.28 80.65,-5.87 106.14,-7.74 11.33,-1.02 20.41,-1.83 27.58,-2.43 6.22,-0.7 9.4,-1.19 9.36,-1.48z"/>
   <path fill="#2C3C43" fill-rule="nonzero" d="M5890.3 13351.18c0.42,0.95 -8.83,6.46 -27.02,13.42 -18.12,7.03 -45.73,14.08 -80.66,16.42 -68.58,5.44 -172.6,-16 -249.69,-94.18 -76.23,-79.03 -95.02,-183.58 -87.86,-251.95 3.21,-34.88 10.98,-62.34 18.47,-80.27 7.39,-18.02 13.14,-27.08 14.05,-26.67 3.6,1.2 -16.74,40.09 -19.63,107.71 -3.67,66.07 16.53,164.42 88.04,238.46 72.17,73.3 169.99,95.98 236.13,94.01 67.66,-1.2 107.03,-20.55 108.17,-16.96z"/>
   <polygon fill="#F9B39B" fill-rule="nonzero" points="4200.81,11263.3 3885.73,12341.46 2719.39,12466.54 2719.39,12673.58 4433.14,12697.23 4666.48,11293.25 "/>
   <path fill="#F1626C" fill-rule="nonzero" d="M5721.68 10136.81c206.97,0.42 767.34,106.07 816.57,483.78 44.45,341.08 111.06,728.13 111.06,728.13l-737.68 19.81 251.32 66.53 107.64 1592.15 -1908.9 -66.13 101.27 -818.57 83.13 -818.23 -417.15 -34.06c0,0 142.73,-712.25 391.65,-932.03 0,0 227.79,-200.16 549.39,-221.38 321.62,-21.19 651.72,0 651.72,0z"/>
   <path fill="#2C3C43" fill-rule="nonzero" d="M4614.5 10795.33c4.45,0.48 -24.71,288.27 -65.07,642.68 -40.37,354.49 -76.66,641.4 -81.08,640.88 -4.45,-0.45 24.71,-288.18 65.08,-642.73 40.36,-354.39 76.65,-641.37 81.07,-640.83z"/>
   <path fill="#2C3C43" fill-rule="nonzero" d="M5778.79 10139.24c0.53,-0.03 1.2,4.59 2.04,13.38 0.82,8.8 1.66,21.79 1.98,38.6 0.63,33.44 -1.98,83.13 -20.66,141.01 -17.55,57.17 -47.74,126.62 -108.23,183.59 -29.77,28.42 -67.1,53.21 -110.39,68.54 -43.29,15.29 -90.9,21.22 -138.89,22.03 -48.06,0.46 -94.92,-1.44 -139.95,-9.46 -44.84,-8.02 -87.5,-24.12 -121.15,-49.19 -67.81,-50.36 -100.05,-121.09 -114.98,-179 -15.86,-58.62 -17.27,-108.16 -15.86,-141.6 0.64,-16.81 1.94,-29.77 2.89,-38.56 1.1,-8.76 1.94,-13.35 2.47,-13.31 1.2,0.07 0.25,18.61 0.6,51.94 0.46,33.26 3.5,81.64 20.38,138.85 15.86,56.37 48.38,123.84 113,170.85 31.95,23.34 72.07,38.28 115.4,45.83 43.29,7.59 89.83,9.39 136.86,8.97 46.97,-0.81 92.84,-6.5 134.01,-20.91 41.14,-14.33 76.85,-37.61 105.65,-64.69 58.76,-54.3 89.06,-120.66 107.82,-176.98 19.63,-56.4 23.79,-104.7 25.03,-137.96 1.16,-33.33 0.7,-51.87 1.94,-51.91z"/>
   <path fill="#DA515A" fill-rule="nonzero" d="M5022.12 12377.83c163.6,-59.64 310.46,-157.49 449.73,-262.06 36.66,-27.48 73.42,-55.99 100.82,-92.72 43.86,-58.8 60,-133.09 75,-204.88 70.66,-337.84 162.79,-685.03 233.45,-1022.83 13.91,435.91 28.61,872.82 -22.24,1305.97 -4.13,35.27 -9.29,72.52 -31.43,100.28 -25.07,31.42 -66.35,44.03 -105.16,54.37 -229.24,61.07 -463.82,101.93 -700.16,121.87z"/>
   <path fill="#2C3C43" fill-rule="nonzero" d="M6661.1 11354.41c0.03,1.09 -19.71,2.54 -55.44,4.23 -38.35,1.42 -89.41,3.32 -151.28,5.59 -127.79,3.99 -304.32,8.41 -499.32,12.29 -21.46,0.39 -42.72,0.8 -62.67,1.2l-7.88 0.17 -0.28 -7.77c-7.07,-181.05 -3.81,-341.99 -0.43,-457.82 1.8,-57.89 3.99,-104.46 5.98,-136.52 1.94,-32.07 3.52,-49.68 4.58,-49.64 1.06,0.03 1.48,17.72 1.38,49.82 -0.28,34.7 -0.6,80.66 -1.03,136.54 -0.56,115.65 -1.83,276.71 5.55,456.8l-8.19 -7.63c19.95,-0.41 41.21,-0.84 62.68,-1.26 194.99,-3.92 371.55,-6.5 499.39,-7.59 61.93,-0.18 113.03,-0.36 151.38,-0.46 35.77,0.24 55.58,0.95 55.58,2.04z"/>
   <path fill="#D9DAD9" fill-rule="nonzero" d="M1258.4 11431.92l651.59 1280.96 2054.17 0 -83.12 -167.35 -595.11 -17.69 -485.05 -1080.03c-30.15,-67.13 -96.91,-110.35 -170.52,-110.35l-1314.02 0c-48.51,0 -79.9,51.2 -57.93,94.45z"/>
   <path fill="#2C3C43" fill-rule="nonzero" d="M2287.13 12005.5c0,43.43 -35.18,78.64 -78.6,78.64 -43.41,0 -78.6,-35.2 -78.6,-78.64 0,-43.35 35.18,-78.57 78.6,-78.57 43.41,0 78.6,35.21 78.6,78.57z"/>
   <path fill="#F9B39B" fill-rule="nonzero" d="M5788.84 9171.55l-73.55 1042.32c-12.01,170.13 -153.57,302.1 -324.17,302.1 -187.82,0 -336.6,-158.84 -324.28,-346.24 6.54,-99.23 12.43,-180.45 12.43,-180.45 0,0 -251.92,-39.27 -255.45,-291.53 -1.66,-118.83 14.16,-354.12 31.92,-575.2 20.69,-258.17 235.96,-457.23 494.94,-457.23l0.21 0c262.51,15.32 460.58,244.26 437.94,506.23z"/>
   <path fill="#F69775" fill-rule="nonzero" d="M5077.76 10001.39c0,0 159.44,12.99 328.9,-93.47 0,0 -77.73,181.54 -329.46,158.84l0.56 -65.36z"/>
   <path fill="#2C3C43" fill-rule="nonzero" d="M4934.57 9286.42c-0.67,19 14.86,35.27 34.75,36.38 19.81,1.05 36.48,-13.45 37.15,-32.49 0.67,-19.03 -14.9,-35.31 -34.71,-36.41 -19.85,-1.06 -36.52,13.49 -37.19,32.52z"/>
   <path fill="#2C3C43" fill-rule="nonzero" d="M4912.19 9236.81c4.48,4.69 31.78,-15.48 70.55,-15.41 38.71,-0.45 67.17,19.5 71.37,14.72 2.08,-2.08 -2.47,-10.55 -14.86,-19.56 -12.19,-9 -32.98,-17.73 -57.14,-17.62 -24.15,0.14 -44.49,9 -56.15,18.08 -11.93,9.18 -15.96,17.66 -13.76,19.78z"/>
   <path fill="#2C3C43" fill-rule="nonzero" d="M5299.74 9296.87c-0.67,19 14.9,35.28 34.74,36.34 19.81,1.1 36.45,-13.41 37.16,-32.45 0.67,-19.07 -14.9,-35.3 -34.71,-36.41 -19.85,-1.06 -36.52,13.49 -37.19,32.52z"/>
   <path fill="#2C3C43" fill-rule="nonzero" d="M5293.27 9244.05c4.48,4.69 31.82,-15.51 70.56,-15.37 38.7,-0.49 67.2,19.46 71.4,14.72 2.05,-2.11 -2.47,-10.59 -14.9,-19.6 -12.18,-9 -32.98,-17.73 -57.14,-17.62 -24.15,0.14 -44.45,9.01 -56.14,18.12 -11.9,9.11 -15.93,17.66 -13.77,19.74z"/>
   <path fill="#2C3C43" fill-rule="nonzero" d="M5152.59 9531.59c0.17,-2.22 -23.91,-6.39 -62.96,-11.4 -9.93,-1.02 -19.29,-3 -20.94,-9.75 -2.37,-7.13 1.8,-17.8 6.6,-29.31 9.33,-23.97 19.04,-49.08 29.28,-75.42 40.64,-107.31 70.1,-195.56 65.75,-197.18 -4.34,-1.59 -40.82,84.11 -81.47,191.46 -9.78,26.46 -19.14,51.7 -28.04,75.85 -3.74,11.23 -10.21,23.97 -5.16,38.81 2.68,7.42 9.92,12.78 16.28,14.47 6.36,1.94 11.94,2.05 16.81,2.37 39.34,2.08 63.67,2.26 63.85,0.1z"/>
   <path fill="#2C3C43" fill-rule="nonzero" d="M5266.68 9558.36c-6.29,-0.35 -6.4,41.74 -42.41,71.62 -35.95,29.94 -80.79,25.24 -81.15,31.14 -0.56,2.61 10,8.16 28.93,8.69 18.57,0.6 45.72,-5.37 67.76,-23.62 21.97,-18.33 31.4,-42.76 32.84,-60 1.62,-17.62 -3.1,-28.04 -5.97,-27.83z"/>
   <path fill="#2C3C43" fill-rule="nonzero" d="M5283.28 9092.1c3.81,10.55 42.55,5.58 88,11.05 45.62,4.55 82.31,17.87 88.32,8.4 2.68,-4.51 -3.67,-14.43 -18.54,-24.6 -14.68,-10.21 -38.14,-19.92 -65.43,-22.95 -27.3,-2.97 -52.33,1.37 -68.86,8.12 -16.74,6.71 -25.14,15 -23.48,19.99z"/>
   <path fill="#2C3C43" fill-rule="nonzero" d="M4926.45 9124.58c6.82,8.83 33.51,-0.32 65.64,-0.74 32.1,-1.55 59.33,5.94 65.57,-3.28 2.75,-4.48 -1.55,-13.31 -13.42,-21.64 -11.72,-8.3 -31.28,-15.08 -53.35,-14.41 -22.07,0.67 -41.21,8.69 -52.37,17.7 -11.33,9.04 -15.07,18.11 -12.07,22.38z"/>
   <path fill="#F9B39B" fill-rule="nonzero" d="M5703.81 9376.68c4.31,-1.87 173.35,-51.27 167.84,121.23 -5.51,172.47 -177.55,131.36 -177.69,126.41 -0.14,-4.97 9.85,-247.64 9.85,-247.64z"/>
   <path fill="#F69775" fill-rule="nonzero" d="M5748.74 9560.66c0.77,-0.57 2.96,2.18 7.94,4.69 4.87,2.4 13.35,4.23 22.46,1.16 18.44,-6.11 34.71,-34.56 36.55,-65.57 0.92,-15.72 -1.9,-30.79 -7.06,-43.32 -4.84,-12.78 -12.71,-21.86 -21.86,-23.8 -9.08,-2.36 -15.72,2.89 -17.98,7.7 -2.47,4.76 -1.48,8.19 -2.39,8.48 -0.5,0.42 -3.64,-3 -2.02,-10.07 0.82,-3.42 2.97,-7.42 7.14,-10.59 4.23,-3.25 10.38,-4.76 16.74,-3.85 13.28,1.34 24.86,13.91 30.55,27.73 6.43,13.87 9.92,30.79 8.9,48.41 -2.22,34.71 -21.05,66.68 -46.23,73.06 -12.22,2.79 -22.25,-1.2 -27.34,-5.44 -5.19,-4.41 -6,-8.3 -5.4,-8.58z"/>
   <polygon fill="#2C3C43" fill-rule="nonzero" points="1671.91,12837.42 4183.06,12837.42 4183.06,12714.89 1671.91,12714.89 "/>
   <polygon fill="#2C3C43" fill-rule="nonzero" points="3409.66,12776.16 4173.42,14158.1 4857.23,14158.1 4183.06,12837.42 "/>
   <path fill="#42616A" fill-rule="nonzero" d="M4183.13 12837.42c0,5.04 -562.81,12.01 -1256.93,15.48 -694.37,3.49 -1257.1,2.18 -1257.12,-2.89 -0.04,-5.05 562.66,-12.02 1257.04,-15.49 694.13,-3.48 1256.98,-2.21 1257.01,2.9z"/>
   <path fill="#2C3C43" fill-rule="nonzero" d="M4786.12 9009.47c45.76,17.41 99.16,13.55 141.96,-10.21 -17.94,14.72 -11.55,46.04 6.85,60.25 18.4,14.15 43.44,15.54 66.64,14.72 124.13,-4.41 245.95,-56.51 334.87,-143.2 0.99,43.61 36.03,81.22 77.06,96.05 41.03,14.83 86.62,10.7 129.03,0.49 -11.26,64.45 -22.56,130.94 -7.94,194.72 14.61,63.77 61.93,124.72 126.62,134.43 12.99,31.71 5.69,67.7 8.06,101.87 2.32,34.22 22.38,73.56 56.68,74.55 30.22,0.81 52.82,-30.2 56.82,-60.18 3.99,-30.01 -13.59,-91.1 7.88,-139.73 23.33,-52.72 14.05,-42.94 37.25,-95.69 23.2,-52.83 36.27,-125.4 54.35,-180.17 18.08,-54.77 25.06,-115.68 4.41,-169.54 -20.63,-53.85 -74.09,-97.57 -131.61,-93.54 20.97,-54.1 3.45,-120.74 -41.39,-157.49 -44.84,-36.8 -113.63,-40.89 -162.54,-9.75 0,0 -196.58,-133.48 -413.72,-59.78 -215.9,73.31 -249.62,270.91 -296.8,277.09 -47.18,6.15 -190.72,-71.79 -166.1,-22.56 24.6,49.23 65.6,96.4 86.12,98.46 20.51,2.04 -164.1,-75.89 -100.5,-6.19 63.56,69.75 126.02,95.38 126.02,95.38z"/>
   <path fill="#F7F7F6" fill-rule="nonzero" d="M6517.1 10690.5c-2.12,1.94 -18.62,-29.62 -68.13,-65.46 -48.23,-35.92 -133.09,-72.88 -242.24,-71.44 -109.05,-0.38 -234.3,47.01 -357.01,122.32 -124.16,73.5 -248.91,176.92 -404.96,244.86 -77.63,33.9 -160.26,53.18 -240.55,54.45 -80.23,1.73 -157.63,-12.26 -226.81,-37.4 -69.35,-25.09 -129.6,-62.85 -180.59,-102.87 -51.41,-39.76 -96.47,-79.52 -140.58,-111.69 -87,-66.23 -174.09,-93.86 -234.68,-95.8 -61.09,-1.9 -92.8,15.04 -93.33,12.43 -0.14,-0.27 1.76,-1.31 5.58,-2.96 3.88,-1.45 9.47,-4.41 17.34,-6.5 15.47,-5.2 39.41,-10.03 70.59,-10.14 62.19,-0.35 152.69,26.39 242.14,92.42 90.47,62.57 182.43,161.58 319.29,209.18 134.47,48.94 302.53,50.77 454.36,-18.05 152.73,-66.31 277.63,-168.85 403.51,-242.5 124.44,-75.31 253.19,-122.88 365.66,-120.76 112.09,0.21 198.56,40.22 246.59,78.68 24.71,19 40.36,37.6 50.35,50.39 9.36,13.35 13.98,20.48 13.46,20.83z"/>
   <path fill="#F7F7F6" fill-rule="nonzero" d="M5888.78 11618.73c-0.99,1.3 -17.1,-11.16 -48.66,-29.38 -31.54,-17.95 -79.5,-41.22 -142.91,-55.02 -63.03,-13.87 -141.93,-17.98 -224.73,4.02 -83.27,20.67 -168.3,64.33 -262.98,99.31 -47.35,17.34 -95.72,30.29 -143.29,36.27 -47.57,5.98 -93.93,6.21 -137.72,2.5 -87.75,-7.67 -163.95,-32.84 -223.67,-61.2 -59.99,-28.39 -103.32,-60.87 -131.01,-85.13 -14.4,-11.59 -23.97,-22.34 -30.82,-29.18 -6.75,-6.98 -10.03,-10.86 -9.61,-11.32 1.24,-1.24 16,12.77 44.95,34.95 28.75,22.27 72.46,52.54 131.93,78.89 59.25,26.31 134.08,49.57 219.64,56.11 85.41,7.02 180.52,-3.74 273.32,-39.16 93.01,-34.32 179.21,-78.06 265.16,-98.5 85.8,-21.78 167.55,-16.14 231.75,-0.24 64.73,15.82 112.83,41.49 143.72,61.58 15.44,10.17 26.95,18.79 34.22,25.17 7.42,6.32 11.09,9.83 10.7,10.32z"/>
   <path fill="#F7F7F6" fill-rule="nonzero" d="M6166.83 12212.25c-0.89,1.95 -23.24,-12.04 -68.27,-21.64 -44.8,-9.43 -113.14,-8.72 -191.53,17.21 -39.17,12.52 -80.9,30.08 -123.81,52.85 -42.97,22.57 -87.82,49.51 -136.41,75.71 -48.59,26.13 -101.24,52.08 -159.96,68.75 -58.48,16.71 -123.95,21.4 -187.51,7.66 -127.98,-27.78 -229.21,-101.73 -322.55,-157.48 -92.9,-57.25 -184.26,-98.81 -266.32,-104.59 -82,-6.82 -147.92,15.47 -186.2,39.93 -39.2,24.26 -53.21,47.29 -54.98,45.52 -0.49,-0.35 3.18,-5.65 10.74,-15.44 8.08,-9.32 20.65,-22.85 40.32,-36.05 38.28,-27.13 106.08,-52.34 191.05,-47.02 85.55,4.38 180.02,46.23 274.09,103.12 94.46,55.51 194.86,127.58 317.6,154 60.84,13.1 122.39,8.79 178.92,-7.04 56.65,-15.82 108.49,-40.86 156.82,-66.3 48.42,-25.57 93.51,-52.02 137.4,-74.33 43.85,-22.52 86.68,-39.73 126.98,-51.77 80.58,-24.89 151.38,-23.63 196.9,-11.72 22.84,5.82 39.79,12.99 50.63,18.81 10.88,5.91 16.36,9.26 16.08,9.82z"/>
   <path fill="#F7F7F6" fill-rule="nonzero" d="M6256.94 12887.08c0.18,0.41 -5.79,3.55 -17.9,7.34 -12.08,3.84 -30.58,8.08 -54.8,9.33 -48.52,3.52 -118.83,-10.64 -198.67,-41.54 -40.25,-14.5 -83.75,-31.7 -132.03,-42.96 -48.34,-10.21 -101.45,-14.13 -157.03,-8.9 -111.66,9.42 -229.17,51.54 -354.79,87.68 -62.92,17.87 -125.85,32.49 -187.85,38.45 -62.01,6.19 -122.33,4.32 -178.93,-2.5 -113.35,-14.58 -211.59,-46.44 -291.32,-77.72 -79.84,-31.5 -142.13,-62.11 -184.79,-83.8 -21.36,-10.84 -37.68,-19.71 -48.69,-25.81 -10.99,-6.19 -16.64,-9.71 -16.36,-10.25 0.32,-0.59 6.5,1.81 18.01,6.89 13.35,6.08 29.95,13.55 50.15,22.7 43.5,19.71 106.46,48.42 186.3,78.12 79.74,29.52 177.27,59.68 288.68,73.06 55.61,6.18 114.66,7.66 175.11,1.38 60.49,-6.09 122.22,-20.46 184.72,-38.21 124.62,-35.78 243.55,-78.05 358.35,-86.87 57.1,-4.93 112.12,-0.32 161.98,10.95 49.61,12.29 93.22,30.4 133.06,45.61 78.96,32.28 146.43,47.75 193.93,46.55 47.43,-0.42 72.39,-11.55 72.88,-9.49z"/>
   <path fill="#F7F7F6" fill-rule="nonzero" d="M6618.94 11175.77c0.67,0.64 -6.01,9.76 -21.37,22.77 -15.25,13.06 -39.41,30.2 -72.84,44.5 -33.41,13.87 -76.24,25.1 -124.73,24.18 -48.52,0.15 -101.13,-15.54 -150.15,-39.69 -49.36,-23.76 -93.93,-49.44 -137.39,-64.87 -42.94,-15.18 -85.21,-18.18 -119.18,-13.27 -34.22,4.87 -59.3,18.75 -74.19,30.86 -14.83,12.47 -20.94,21.79 -22.39,20.8 -0.67,-0.36 3.39,-11.16 17.59,-26.06 14.23,-14.55 40.5,-31.53 76.81,-38.43 36.02,-6.92 80.83,-5.19 126.94,10.11 45.69,15.25 91.36,41.02 139.74,64.22 48.2,23.65 96.75,38.53 142.66,39.41 45.79,1.76 86.86,-7.56 119.53,-19.31 65.54,-24.89 96.75,-58.2 98.99,-55.23z"/>
   <path fill="#F7F7F6" fill-rule="nonzero" d="M4568.35 11158.25c0.7,0.75 -2.37,6.09 -11.48,12.36 -9,6.18 -24.75,12.08 -44.52,11.65 -19.57,-0.18 -42.94,-6.11 -65.22,-18.79 -22.28,-12.24 -43.5,-29.41 -66.57,-44.24 -45.34,-30.9 -97.21,-33.51 -131.96,-26.66 -35.31,6.5 -54.81,19.5 -56.4,16.71 -1.31,-1.31 16.17,-18.87 53.49,-29.38 36.06,-10.91 95.17,-10.07 144.75,23.83 24.43,15.74 44.91,32.94 65.18,45.09 19.88,12.31 40.08,18.68 57.46,20.44 35.55,4.09 53.63,-13.69 55.26,-11.02z"/>
   <path fill="#F9B39B" fill-rule="nonzero" d="M3608.95 12298.49l513.8 -61.77 362.05 237.41 1384.41 -331.83 40.54 -772.58 621.4 -15.3 -14.48 906.65c-6.15,291.9 -248.77,522.98 -540.63,514.88l-2027.7 -56.14 -86.05 -172.57 -435.07 -12.92 181.73 -235.81z"/>
   <path fill="#F69775" fill-rule="nonzero" d="M5851.71 12142.3c0.1,0.57 -8.83,3.24 -26.03,7.91 -18.58,4.88 -43.72,11.38 -75.36,19.64 -67.09,16.7 -161.62,40.25 -277.8,69.21 -236.23,57.25 -560.16,135.74 -917.98,222.44 -28.74,6.89 -57.24,13.69 -85.41,20.44l-3.39 0.85 -2.89 -1.95c-128.02,-84.21 -249.9,-164.37 -361.7,-237.88l4.97 1.15c-203.29,23.49 -379.32,43.82 -514.07,59.4l3.38 -1.9c-57.45,72.91 -103.28,131.11 -135.76,172.33 -15.3,18.95 -27.46,34 -36.61,45.33 -8.44,10.21 -12.99,15.35 -13.38,15.04 -0.37,-0.28 3.45,-6.01 11.16,-16.78 8.64,-11.73 20.09,-27.3 34.54,-46.93 31.57,-41.88 76.17,-101.03 132.07,-175.18l1.23 -1.66 2.16 -0.25c134.61,-16.82 310.46,-38.77 513.51,-64.12l2.64 -0.36 2.29 1.49c111.98,73.23 234.13,153.04 362.38,236.86l-6.29 -1.08c28.14,-6.73 56.68,-13.6 85.38,-20.49 358.28,-84.88 682.59,-161.76 919.11,-217.84 116.67,-26.88 211.63,-48.72 279,-64.22 31.92,-7.04 57.28,-12.58 76.02,-16.68 17.45,-3.63 26.67,-5.31 26.81,-4.76z"/>
   <path fill="#F69775" fill-rule="nonzero" d="M3889.68 12445.7c0,4.45 -89.38,8.1 -199.58,8.1 -12.46,-0.08 -24.64,-0.11 -36.51,-0.15l5.11 -1.9c-71.19,59.58 -126.84,102.58 -129.38,99.55 -2.55,-3 48.83,-50.95 119.14,-111.62l2.15 -1.91 2.97 0c11.86,-0.03 24.04,-0.07 36.51,-0.1 110.21,0 199.58,3.6 199.58,8.04z"/>
   <path fill="#F69775" fill-rule="nonzero" d="M6106.66 12297.07c-4.27,2.62 -30.9,-62.29 -100.85,-105.26 -69.04,-44.49 -139.1,-40.43 -138.57,-45.4 -0.21,-1.81 16.81,-5.8 44.67,-3.5 27.72,2.12 66.06,12.42 102.47,35.28 36.31,22.9 62.19,53.03 76.09,77.12 14.13,24.11 17.91,41.18 16.18,41.77z"/>
  </g>
 </g>
</svg>
