<?xml version="1.0" encoding="UTF-8"?>
<!DOCTYPE svg PUBLIC "-//W3C//DTD SVG 1.1//EN" "http://www.w3.org/Graphics/SVG/1.1/DTD/svg11.dtd">
<!-- Creator: CorelDRAW 2018 (64 Bit Versão de avaliação) -->
<svg xmlns="http://www.w3.org/2000/svg" xml:space="preserve" width="114.925mm" height="118.108mm" version="1.1" style="shape-rendering:geometricPrecision; text-rendering:geometricPrecision; image-rendering:optimizeQuality; fill-rule:evenodd; clip-rule:evenodd"
viewBox="0 0 4028.74 4140.3"
 xmlns:xlink="http://www.w3.org/1999/xlink">
 <defs>
  <style type="text/css">
   <![CDATA[
    .fil0 {fill:#FEFEFE}
   ]]>
  </style>
 </defs>
 <g id="Camada_x0020_1">
  <metadata id="CorelCorpID_0Corel-Layer"/>
  <g id="_2388441015424">
   <path class="fil0" d="M2522.56 2874.22l70.92 0.28c10.14,64.07 2.85,386.53 3.02,494.47 0.07,44.99 13.98,129.16 -40.22,125.95 -48.92,-2.9 -35.26,-75.57 -35.3,-125.94 -0.09,-110.04 -7.12,-427.77 1.58,-494.75zm720.05 265.65c-24.25,-12.09 -100.95,-62.49 -117.7,-81.41 16.69,-19.49 177.69,-130.05 205.86,-138.75l24.8 33.17c-12.62,42.94 -88.7,138.76 -112.96,186.99zm-581.12 -195.01l31.12 -27.85 202.55 132.14 -104.88 91.24c-33.25,-27.42 -107.85,-148.31 -128.78,-195.53zm166.64 -185.81c60.38,32.65 133.46,53.38 219.27,42.02 90.87,-12.02 124.89,-44.58 180.56,-81.26 20.86,78.27 36.46,99.44 59.25,156.88l-269.77 189.05c-31.45,-10.11 -110.41,-70.63 -142.98,-91.66 -44.22,-28.55 -106,-77.35 -145.95,-95.36 24.67,-64.1 54.75,-91.48 99.62,-119.68zm-179.46 129.71c-7.24,-36.41 -8.27,-30.92 28.18,-34.72l-28.18 34.72zm218.5 -322.58c-29.96,152.73 -177.78,285.21 -366.37,251.37 -150.73,-27.04 -288.38,-180.44 -251.09,-369.57 29.51,-149.65 177.92,-286.93 370.59,-248.45 146.45,29.25 283.69,178.97 246.87,366.65zm-152.62 -516.61c75.62,21.97 105.78,53.37 208.53,28.8 73.68,-17.62 107.09,-66 177.32,-74.6 158.63,-19.44 227.9,122.93 227.14,267.03 -1.06,200.06 1.35,264.34 -109.01,383.03 -39.1,42.04 -80.25,75.94 -156.16,93.21 -69.52,15.81 -147.5,4.82 -200.63,-29.37 26.68,-79.3 102.27,-172 35.47,-341.88 -46.65,-118.64 -108.27,-157.97 -218.57,-212.63 3.8,-40.57 16.38,-84.34 35.9,-113.58zm-84.11 93.29c-34.64,-57.68 -45.52,-340.37 88.26,-451.05 76.16,-63.01 322.86,-98.08 417.99,49.02 115.37,4.27 197.68,21.56 239.57,103.02 40.43,78.62 24.78,211.57 -18.06,281.14 -23.26,-27.53 -31.92,-96.07 -119.61,-143.49 -189.5,-102.49 -250.03,78.06 -416.86,52.59 -96.67,-14.76 -118.73,-74.04 -146.93,-78.76 -34.26,-5.73 -13.75,0.18 -21.17,4.54 -30.66,49.12 29.37,18.53 4.49,86.98 -11.99,33 -21.35,58.63 -27.68,96.01zm1268.17 -258.63l35.35 39.7 -38.47 -0.43 3.12 -39.27zm-464.29 -38.56l409.96 -1.41c4.13,145.95 -21.64,130.7 128.26,131.17l1.34 1179.57c-77.72,1.03 -59.82,6.62 -99.57,-37.15 -25.67,-28.27 -43.36,-35.95 -84.77,-51.46 -228.54,-85.6 -447.75,-100.25 -503.16,-321.93 -12.55,-50.22 -15.88,-72.2 9.04,-104.76 147.73,-193.06 46.28,-348.15 91.54,-453.77 45.85,-107 87.53,-198.8 47.36,-340.26zm-32.23 -51.87c-80.49,-121.69 -199.65,-67.13 -267.26,-132.47 -68.03,-65.74 -202.75,-82.65 -319.2,-62.28 -277.63,48.56 -256.92,354.15 -242.57,545.39 -203.27,1.47 -348.34,131.72 -374.64,314.19 -28.83,200.02 89.81,340.18 271.51,404.19 3.19,114.21 0.53,232.51 0.27,347.13 -0.18,79.37 -19.48,273.56 27.47,315.35 38.72,34.45 101.49,25.67 129.34,-9.3 41.78,-52.46 4.27,-346.17 21.49,-485.81 157.55,200.66 72.83,241.42 293.83,53.05l46.66 26.11c0.38,81.51 -0.05,163.01 0.06,244.51 0.18,136.79 -20.51,200.02 43.27,188.71 16.62,-45.18 6.74,-354.41 7.14,-432.1 48.17,-18.95 24.79,-28.94 108.7,29.48 34.12,23.76 70.53,61.27 114.09,62.85 35.87,-45.1 108.42,-183.48 141.39,-217.76l394.61 141.26c158.38,81.24 44.53,293.59 92.78,436.48l39.37 -1.3c15.92,-51.15 8.39,-288.76 -0.48,-354.8 24.11,0.18 72.28,7.96 88.17,-11.79 18.47,-32.33 7.28,-889.74 7.26,-1007.36 -0.01,-46.69 7.52,-223.88 -5.25,-252.9 -4.59,-10.44 -108.19,-115.08 -122.99,-126.59 -39.2,-30.49 -173.41,-14.15 -243.59,-14.14 -83.7,0.01 -167.79,0.9 -251.44,-0.09z"/>
   <path class="fil0" d="M1046 2466.92c85.63,51.03 301.83,151.33 344.55,226.57 30.09,52.98 63.06,135.3 87.67,192.63 23.38,54.47 95.57,168.12 20.57,199.13 -119.34,49.34 -157.29,-272.03 -231.87,-328.52 -62.08,-47.03 -310.53,-165.43 -362.97,-213.27 16.15,-45.22 61.81,-83.58 31.67,-107.53 -33.99,-27.02 -91.78,104.52 -125.6,164.45 -48.49,85.93 -57.74,120.24 -137.76,172.47 -63.41,41.38 -120.58,79.59 -182.14,120.77 -46.41,31.05 -148.76,125.59 -207.13,74.65 -82.69,-72.16 48.65,-137.37 92.29,-166.69 61.55,-41.35 122.03,-82.39 186.03,-124.46 43.71,-28.74 41.02,-33.64 67.39,-84.43 28.12,-54.18 141.9,-283.43 162.48,-304.56l274.14 117.58 -19.33 61.23zm26.68 -597.57c4.44,47.29 16.11,72.25 44.64,90.36 125.2,79.48 62.61,-182.19 289.41,293.58l27.29 42.63c52.43,17.52 195.86,-14.13 224,24.51 20.81,28.58 4.17,64.15 -23.68,72.25l-138.92 2.89c-126.1,0 -144.68,-65.03 -213.51,-183.81 -74.33,-128.26 -78.42,-77.17 -134.81,36.15 -16.49,33.14 -35.47,88.96 -60.59,111.13l-271.59 -116.7c44.14,-147.21 199.5,-269.21 67.57,-271.37l-167.04 1.41c-110.22,-0.3 -91.53,5.76 -143.32,79.28 -13.98,19.84 -81.73,120.13 -92.48,127.79 -28.52,20.32 -62.62,9.02 -71.43,-18.48 -13.1,-40.87 83.36,-151.4 122.32,-203.76 35.15,-47.25 57.18,-79.08 132.69,-85.93 133.42,-12.1 285.35,-30.09 409.44,-1.93zm75.36 -36.09l67.91 36.67c-9.18,29.23 -28.25,70.72 -71.73,48.49 -41.94,-21.45 -8.08,-66.74 3.81,-85.16zm-11.93 -122.9c-34.76,-199.15 260.72,-234.27 288.03,-50.27 12.88,86.75 -50.3,156.98 -120.66,167.75 -85.12,13.03 -155.32,-48.45 -167.37,-117.48zm-40.33 112.99c-86.12,-13.63 -99.12,-21.57 -198.68,-15.16 -65.98,4.26 -132.57,8.52 -197.55,12.31 -164.55,9.6 -182.74,72.21 -255.27,171.43 -18.6,25.44 -78.22,101.31 -84.62,128.6 -15.44,65.85 30.74,118.67 90.75,118.5 65.33,-0.18 88.5,-56.5 116.17,-94.53 29.63,-40.73 59.94,-83.41 87.7,-122.57l212.74 -1.36c-11.34,45.23 -88.96,175.89 -114.94,226.57l-179.27 343.16c-28.66,56.47 -239.49,179.28 -301.2,220.96 -138.54,93.56 -21.05,302.78 140.86,194.28 35.23,-23.61 68.52,-45.74 104.55,-69.79 72.47,-48.36 140.75,-90.97 209.52,-138.83 91.76,-63.87 81.48,-122.19 147.95,-202.43 37.65,9.44 155.55,84.55 196.72,108.29 31.88,18.39 62.33,36.05 95.6,55.89 39.57,23.6 65.43,26.64 84.1,66.79 27.86,59.92 107.89,265.84 156.85,298.17 60.59,40.02 245.23,29.51 142.38,-202.89 -30.07,-67.95 -62.65,-141.1 -93.85,-209.23 -41.79,-91.23 -68.37,-107.63 -149.45,-153.83 -68.6,-39.09 -128.45,-78.05 -195.67,-114.81 6.37,-28.46 94.56,-208.44 111.65,-225.38 39.21,38.09 70.88,133.2 113.66,174.31 60.99,58.62 138.17,54.79 242.31,55.21 52.16,0.21 82.73,2.4 113.86,-31.9 26.79,-29.53 35.67,-73.82 14.2,-113.03 -38.31,-69.94 -154.97,-50.9 -245.82,-51.64 -19.72,-56.12 -64.23,-130.01 -89.09,-181.47 -38.6,-79.94 -57.95,-112.31 -117.13,-153.23l16.6 -34.95c267.7,-32.1 246.36,-299.59 93.95,-373.53 -104.52,-50.71 -201.35,2.42 -244.42,63.26 -25.37,35.84 -39.88,77.54 -35.09,132.28 6.88,78.55 45.75,61.29 9.95,120.53z"/>
   <path class="fil0" d="M1958.17 1916.21c33.12,0 91.31,-9.28 116.7,6.22 -11.61,23.41 -21.03,15.86 -56.93,15.89 -36.47,0.03 -54.27,10.2 -59.77,-22.1zm-98 -128.49l312.09 -0.49 -0.86 68.96c-47.77,18.4 -131.17,9.19 -191.38,9.48 -79.9,0.39 -128.62,12.97 -119.84,-77.96zm-1.99 -128.13l313.99 -0.41 0.74 75.87 -310.26 1.63 -4.47 -77.09zm240.62 -51.81c-1.81,-307.81 -25.04,-240.94 59.69,-324.77 23.7,-23.45 63.13,-37.23 43.23,-74.2 -1.84,-1.03 -4.91,-4.21 -5.92,-2.25l-17.53 -2.71c-11.8,1.51 -15.83,5.47 -24.8,13.04 -12.04,10.17 -21.31,23.26 -33.9,34.66 -22.74,20.59 -64.72,44.37 -71.1,73.35 -14.81,67.3 11.81,208.72 -3.23,283.18l-55.25 0.56c-15.57,-74.74 8.1,-200.38 -2.32,-276.85 -4.98,-36.5 -44.29,-53.32 -68.06,-76.1 -23.97,-22.97 -48.26,-65.86 -85.72,-47.63 -28.64,27.59 19.98,53.11 39.27,71.52 25.63,24.45 43.46,38.56 62.82,59.69l-0.24 269.31c-67.42,1.12 -109.66,21.35 -140.99,-128.37 -82.82,-395.76 -201.17,-343.3 -256.3,-570.05 -127.5,-524.38 533.5,-823.37 853.67,-437.52 99.96,120.47 137.22,267.41 105.05,421.9 -51.7,248.31 -194.54,207.72 -257,569.72 -6.54,37.91 -16.93,74.91 -32.41,102.83 -27.13,48.93 -45.31,42.82 -108.96,40.69zm-195.34 308.86c12.53,65.74 37.48,71.55 106.7,71.57 72.58,0.02 105.33,5.85 117.98,-70.08 50.58,-6.14 84.45,-16.52 94.46,-64.67 6.84,-32.9 2.13,-127.14 1.85,-166.1 -0.73,-103.75 33.6,-43.26 73.1,-259.38 39.67,-217.05 153.32,-265.71 222.04,-435.08 155.45,-383.06 -154.55,-745.05 -501.75,-744.53 -360.1,0.53 -649.05,356.12 -507.38,734.74 54.92,146.8 167.54,201.08 221.63,436.84 11.27,49.14 14.21,89.53 31.66,135.49 23.44,61.74 44.36,48.76 44.34,124.33 -0.03,109.89 -24.4,219.8 95.35,236.86z"/>
   <path class="fil0" d="M1928.57 576.45c56.16,-20.57 41.45,-29.86 46.88,-91.46l86.04 -0.17c5.13,64.79 -7.89,70.69 51.84,93.28 43.86,16.59 64.06,-10.64 88.42,-34.74l57.34 61.27c-17.08,23.17 -40.96,30.09 -37.26,67.01 2.09,20.88 23.19,56.76 31.27,69.16l67.34 2.2 -0.7 86.83c-60.57,3.47 -69.03,-6.84 -90.26,47.09 -22.4,56.91 3.39,62.98 31.69,93.26l-52.77 58.71c-43.29,-19.41 -30.53,-57.68 -99.79,-31.23 -54.97,20.99 -43.32,32.38 -46.96,91.6l-85.53 -2.52 -5.12 -65.48c-96.06,-64.58 -105.61,-12.54 -136.09,8.57l-56.99 -61.67c22.83,-29.43 49.27,-39.86 29.51,-91.99 -19.91,-52.54 -31.57,-41.24 -91.04,-46.5l1.22 -85.76c58.63,-4 71.46,5.85 90.61,-46.83 22.39,-61.61 -6.64,-58.57 -31.79,-93.37l59.74 -58.75c32.05,26.63 32.99,53.26 92.4,31.5zm-170.94 111.49c-40.37,21.9 -76.84,-8.97 -88.01,45.98 -6.49,31.9 -1.46,104.57 6.26,130.4 37.71,22.29 49.77,8.92 82.63,21.12 12.44,73.14 -89.73,48.46 10.83,149.37 115.56,115.96 103.12,-29.41 148.75,17.31l6.55 23.09c3.57,20.14 -1.27,55.01 42.61,62.69 215.22,37.68 104.07,-115.54 174.76,-90.95 26.29,9.15 41.08,61.93 95.91,20.39 142.48,-107.91 36.08,-132.96 38.46,-167.22 2.71,-38.9 68.92,0.07 88.35,-48.05 13.47,-33.38 10.75,-108.09 -3.72,-135.03 -27.95,-40.04 -45.87,-11.39 -77.61,-30.32 -36.39,-53.84 94.1,-40.32 -12.62,-145.56 -108.53,-107.02 -79.46,-0.15 -153.93,-14.96 -33.33,-74.81 32.02,-93.91 -122.17,-90.36 -41.95,0.96 -60.08,4.94 -66.67,41.29 -5.85,32.29 -0.32,76.95 -40.86,46.96 -18.27,-13.51 -29.93,-41.18 -67.73,-27.09 -16.2,6.04 -43.11,36.2 -56.56,49.51 -91.91,90.98 8.95,74.46 -5.23,141.43z"/>
   <path class="fil0" d="M2920.83 752.2c25.15,16.96 42.62,32.6 70.29,53.02 22.94,16.92 59.1,29.43 64.01,65.25 13.43,97.73 -76.99,93.93 -150.34,103.64 33.14,-209.48 10.66,-65.68 16.04,-221.91zm-528.25 518.9c24.77,35.33 59.05,11.6 96.68,-5.12 34.46,-15.31 71.09,-33.84 100.78,-51.03 165.68,-95.96 174.01,-164.91 403.63,-201.99 122.48,-19.77 124.6,-134.6 104.62,-178 -16.64,-36.15 -48.64,-50.88 -79.42,-72.7 -30.13,-21.36 -61.55,-46.72 -84.15,-67.53 -91.19,-83.94 -435.24,-381.61 -543.95,-360.66 -14.65,57.42 20.48,37.48 128.7,101.85 94.61,56.28 195.11,127.43 270.72,199.23 52.92,50.25 70.98,52.66 82.31,158.61 5.78,54.05 -6.14,164.92 -34.46,199.33l-150.11 92.13c-83.93,59.75 -123.09,92.9 -221.24,134.57 -40.08,17.02 -64.88,13.11 -74.1,51.32z"/>
   <path class="fil0" d="M1019.33 832.19c28.36,-72.92 210.67,-227.44 284.26,-282.88 77.49,-58.37 177.18,-118.81 273.28,-158.56 46.31,-19.15 86.51,-13.71 75.99,-65.87 -66.82,-31.05 -339.6,150.36 -412.19,206.75l-217.95 205.97c-31.27,40.4 -87.67,77.73 -42.77,124.67 143.08,149.61 286.39,270.1 486.07,362.98 26.62,12.39 126.65,66.96 153.24,48.71 48.67,-33.42 -81.95,-73.43 -104.76,-83.22 -96.04,-41.22 -193.04,-102.71 -266.96,-156.64 -128.2,-93.54 -183.69,-166.41 -228.2,-201.91z"/>
   <path class="fil0" d="M3842.84 2529.08c19.66,34.21 16.36,264.41 4.81,308.07 -46.58,27.55 -157.8,12.08 -224.53,12.55 -41.53,0.29 -79.4,10.73 -87.56,-27.4l-1.94 -249.19c1.31,-52.75 14.27,-53.72 66.45,-53.66 51.01,0.05 210.01,-9.98 242.77,9.64zm57.18 317.32c9.13,-24.86 4.43,-166.55 4.36,-204.48 -0.4,-195.79 -10.6,-172.67 -250.85,-172.66 -70.56,0 -140.67,-9.82 -163.18,47.85 -15.39,39.43 -7.61,158.68 -7.62,208.12 -0.01,68.77 -11.53,143.16 47.51,168.71 33.01,14.28 162.86,7.99 206.6,8.06 80.21,0.13 138.22,12.34 163.19,-55.6z"/>
   <path class="fil0" d="M3533.7 2111.76c0,-72.53 23.3,-55.65 157.7,-55.61 114.47,0.04 162.34,-18.13 162.33,55.61 -0.05,283.57 23.5,274.95 -94.18,275.07 -202.69,0.21 -225.77,21.25 -225.75,-63.01l-0.1 -212.06zm12.1 -102.64c-73.67,19.83 -62.69,81.83 -62.55,155.65 0.47,236.12 -32.51,273.31 155.13,273.03 240.91,-0.36 265.76,28.5 265.64,-159.42 -0.03,-47.01 5.66,-171.96 -2.97,-210.07 -14.73,-65.07 -75.94,-62.77 -149.08,-62.55 -44.19,0.14 -174.03,-5.28 -206.18,3.37z"/>
   <path class="fil0" d="M2361.49 2528.31c-24.57,-260.52 362.89,-298.1 393,-45.62 31.8,266.62 -368.43,306.17 -393,45.62zm440.46 22.72c27.19,-143.95 -77.35,-263.33 -195.11,-285.8 -150.98,-28.79 -269.89,78.93 -291.21,196.37 -58.61,322.79 424.72,415.6 486.32,89.43z"/>
   <path class="fil0" d="M560.52 3361.4c0.01,-29.87 11.9,-154.51 -11.67,-174.76 -27.14,-15.47 -469.72,-13.89 -508.51,-0.13l1.44 31c35.05,25.01 391.33,10.05 464.73,12.7 12.99,58.01 0.31,496.61 2.36,624.27 0.64,39.69 -0.41,49.8 40,45.28 24.93,-35.57 11.62,-438.52 11.65,-538.36z"/>
   <path class="fil0" d="M1896.75 3228.81c48.78,0.04 70.77,6.4 62.36,-47.9l-327.39 -0.94c-170.62,0.17 -189.56,-18.06 -189.64,52.68 -0.14,131.33 -10.3,622.77 6.36,668.59l31.83 -2.89c13.89,-21.63 10.58,-17.79 10.57,-44.67l1.51 -624.57 404.4 -0.3z"/>
   <path class="fil0" d="M2044.15 52.88c386.98,13.94 734.99,219.82 919.19,537.7 17.1,29.51 19.34,39.17 55.11,29.98 10.92,-41.91 -33.68,-93.41 -53.19,-122.6 -121,-181.06 -317.69,-337.51 -531.13,-415.75 -117.14,-42.95 -235.34,-67.39 -358.72,-78.13l-24.15 3.73c1.74,16.79 32.5,34.71 32.74,34.26 0.89,-1.63 4.14,1.71 5.88,3.08 -23.5,0.33 -32.88,-1.31 -45.74,7.75z"/>
   <path class="fil0" d="M2050.03 52.88c12.86,-9.06 22.24,-7.42 45.74,-7.75 -1.74,-1.37 -4.99,-4.71 -5.88,-3.08 -0.25,0.45 -22.47,-8.93 -24.21,-25.72l53.1 -0.79 -32.6 -10.31c-8.92,-1.43 -27.66,-2.22 -37.35,-2.73 -169.85,-8.88 -341.44,5.07 -503.75,53.68 -126.63,37.93 -224.78,79.72 -333.84,143 -35.28,20.47 -82.73,34.5 -72.66,81.1 39.04,10.61 62.17,-16.74 94.92,-35.82 88.7,-51.69 199.92,-102.91 299.19,-132.46 180.62,-53.77 317.09,-63.71 517.34,-59.13z"/>
   <path class="fil0" d="M1918.17 809.11c-28.12,-140.46 176.8,-164.84 200.3,-45.12 27.86,141.9 -175.5,168.99 -200.3,45.12zm-50.01 0c25.38,191.13 327.63,162.91 300.69,-44.62 -23.59,-181.63 -328.03,-161.33 -300.69,44.62z"/>
   <path class="fil0" d="M3590.29 2570.85c-10.35,54.37 39.86,72.06 66.9,108.93 -16.52,14.27 -27.88,27.11 -44.09,42.98 -22.08,21.62 -32.58,26.37 -20.83,63.78 54.36,7.4 66.78,-45.25 106.69,-67.39 24.55,24.04 55.3,79.13 104.32,65.24 13.02,-47.96 -40.05,-74.42 -64.99,-104.62 22.29,-40.46 75.28,-52.6 66.65,-106.3 -46.17,-14.15 -85.48,39.21 -105.98,65.17 -28.67,-18.23 -66.72,-85.73 -108.67,-67.8z"/>
   <path class="fil0" d="M3675.03 2260.54c-39.24,-36.8 -66.28,-99.11 -96.07,-72.63 -0.66,0.59 -26.36,0.6 0.87,41.84 6.64,10.06 20,24.51 31.13,38.07 82.96,101.01 69.49,83.59 147.7,-43.59 20.86,-33.93 68.89,-86.33 53.82,-127.12 -57.31,-9.46 -75.11,76.72 -137.44,163.43z"/>
   <path class="fil0" d="M3316.4 3667.65c16.82,-19.25 8.09,-69.8 -35.6,-52.14l-121.51 92.15c-8.29,5.85 -53.74,35.28 -58.82,41.14 -26.01,29.96 -11.88,65.54 33.34,49.41 12.37,-4.41 51.54,-34.1 64.35,-43.77 24.31,-18.35 39.41,-29.36 60.71,-45.42 9.5,-7.16 57.17,-40.96 57.53,-41.37z"/>
   <path class="fil0" d="M2048.84 4077.23c-157.56,-1.35 -233.64,-28.88 -221.2,43.62 41.21,20.1 228.72,29.13 272.25,4.79 6.97,-45.38 -7.93,-48.05 -51.05,-48.41z"/>
   <path class="fil0" d="M3536.63 843.46c14.45,-46.16 -11.76,-61.26 -75.92,-129.33 -18.1,-19.2 -88.89,-106.96 -120.98,-74.98 -32.75,32.64 66.78,96.6 124.76,169.63 22.43,28.26 24.59,42.81 72.14,34.69z"/>
   <path class="fil0" d="M2540.99 4061.76c-0.62,-68.92 -29.55,-45.6 -133.19,-23.36 -72.68,15.6 -133.76,11.46 -140.09,44 -15.65,80.52 263.45,-12.22 273.27,-20.64z"/>
   <path class="fil0" d="M1661.58 4066.43c-2.82,-29.71 -31.63,-26.88 -65.02,-33.56 -90.47,-18.09 -211.58,-76.21 -206.31,-12.58 2.85,34.41 95.81,46.39 133.84,55.97 30.24,7.62 143.16,49.96 137.49,-9.83z"/>
   <path class="fil0" d="M20.81 1986.11c-28.33,36.84 -26.62,242.3 -1.6,275.72 67.55,5.1 42.61,-59.83 42.14,-119.77 -0.36,-45.82 7.65,-116.2 -3.65,-153.28l-36.89 -2.67z"/>
   <path class="fil0" d="M37.11 1813.04c62.71,24.96 53.99,-36.71 66.49,-94.34 5.9,-27.17 39.44,-138.75 27.49,-158.22 -55.69,-90.62 -105.59,216.06 -93.97,252.56z"/>
   <path class="fil0" d="M3844.95 1363.1c-24.32,20.73 -9.65,39.45 2.2,70.07 32.64,84.29 54.79,228.02 102.42,180.21 20.67,-20.75 -18.86,-121.9 -28.08,-147.78 -11.9,-33.44 -33.94,-138.81 -76.55,-102.49z"/>
   <path class="fil0" d="M288.3 1138.88c-47.8,-2.12 -68.88,71.36 -87.12,110.39 -13.88,29.7 -75.51,128.57 -29.42,143.1 31.77,10.01 39.48,-22.73 49.79,-47.36 38.89,-92.91 103.37,-166.64 66.76,-206.14z"/>
   <path class="fil0" d="M2985.51 375.32c-47.61,33.63 62.02,82.56 82.53,95.76 25.8,16.6 109.89,85.26 135.03,69.77 66.11,-40.73 -190.24,-184.84 -217.57,-165.53z"/>
   <path class="fil0" d="M2951.39 3909.42c11.76,-16.14 8.61,-63.4 -43.24,-46.88l-207.99 98.53c-16.61,24.92 1.2,50.67 40.87,42.26l210.36 -93.91z"/>
   <path class="fil0" d="M880.61 485.1c-46.35,-12.39 -101.19,45.85 -131.15,70.04 -15.96,12.89 -127.08,85.75 -76.45,115.03 28.77,16.63 124.69,-80.9 182.09,-122.85 27.13,-19.83 40.74,-26.7 25.5,-62.22z"/>
   <path class="fil0" d="M512.04 787.62c-37.94,30.09 -62.88,68.87 -95.05,109.4 -7.27,9.15 -40.98,51.46 -45.55,62.02 -12.8,29.59 7.53,60.5 40.24,39.75l139.58 -173.78c18.99,-36.01 -1.96,-66.94 -39.22,-37.39z"/>
   <path class="fil0" d="M995.47 3816.31c-41.23,39.08 65.4,80.23 93.96,95.02 40.83,21.15 98.14,60.47 143.49,50.5 14.14,-43.64 1.96,-45.47 -33.95,-61.55 -24.25,-10.86 -44.62,-20.62 -66.63,-31.94 -26.5,-13.62 -114.68,-73.06 -136.87,-52.04z"/>
   <path class="fil0" d="M3630.38 975.63c-24.13,25.27 61.75,131.14 94.79,193.58 8.63,16.31 27.49,62.05 57.62,34.04 28.27,-26.3 -35.9,-113.03 -51.99,-138.2 -17.72,-27.7 -64.05,-127.49 -100.41,-89.41z"/>
   <path class="fil0" d="M89.3 2457.85c-8.5,-28.29 -34.23,-45.94 -51.95,-17.43 -13.16,21.18 16.16,132.39 22.84,160.74 12.32,52.26 13.18,113.06 69.98,91.28 7.29,-24.91 -33.82,-211.17 -40.86,-234.59z"/>
   <path class="fil0" d="M2676.87 2854.03c-36.45,3.8 -35.42,-1.69 -28.18,34.72l28.18 -34.72z"/>
  </g>
 </g>
</svg>
