<?xml version="1.0" encoding="UTF-8"?>
<!DOCTYPE svg PUBLIC "-//W3C//DTD SVG 1.1//EN" "http://www.w3.org/Graphics/SVG/1.1/DTD/svg11.dtd">
<!-- Creator: CorelDRAW 2018 (64 Bit Versão de avaliação) -->
<svg xmlns="http://www.w3.org/2000/svg" xml:space="preserve" width="81.2497mm" height="54.118mm" version="1.1" style="shape-rendering:geometricPrecision; text-rendering:geometricPrecision; image-rendering:optimizeQuality; fill-rule:evenodd; clip-rule:evenodd"
viewBox="0 0 8124.98 5411.81"
 xmlns:xlink="http://www.w3.org/1999/xlink">
 <defs>
  <style type="text/css">
   <![CDATA[
    .fil0 {fill:#E5E6E5}
    .fil12 {fill:#273035;fill-rule:nonzero}
    .fil4 {fill:#2C3C43;fill-rule:nonzero}
    .fil17 {fill:#33484E;fill-rule:nonzero}
    .fil8 {fill:#42616A;fill-rule:nonzero}
    .fil18 {fill:#653D3C;fill-rule:nonzero}
    .fil3 {fill:#778488;fill-rule:nonzero}
    .fil7 {fill:#8C4E45;fill-rule:nonzero}
    .fil15 {fill:#8D554F;fill-rule:nonzero}
    .fil20 {fill:#93594F;fill-rule:nonzero}
    .fil21 {fill:#9D9FA0;fill-rule:nonzero}
    .fil11 {fill:#A3A5A7;fill-rule:nonzero}
    .fil10 {fill:#ABAEAF;fill-rule:nonzero}
    .fil9 {fill:#CC5F52;fill-rule:nonzero}
    .fil5 {fill:#D67A69;fill-rule:nonzero}
    .fil2 {fill:#E5E6E5;fill-rule:nonzero}
    .fil1 {fill:#EFEFEF;fill-rule:nonzero}
    .fil6 {fill:#F3786E;fill-rule:nonzero}
    .fil19 {fill:#F69576;fill-rule:nonzero}
    .fil14 {fill:#F79872;fill-rule:nonzero}
    .fil16 {fill:#F9B59C;fill-rule:nonzero}
    .fil13 {fill:#FBC5AF;fill-rule:nonzero}
   ]]>
  </style>
 </defs>
 <g id="Camada_x0020_1">
  <metadata id="CorelCorpID_0Corel-Layer"/>
  <ellipse class="fil0" cx="4110.9" cy="2041.47" rx="2069.74" ry="2023.21"/>
  <path class="fil1" d="M5993.78 2161.81c-20.37,-46 -24.97,-96.93 -38.44,-145.24 -7.22,-25.95 -19.38,-53.56 -43.7,-65.07 -16.1,-7.55 -35.16,-6.56 -52.24,-11.82 -61.46,-18.39 -78.21,-104.16 -136.37,-130.78 -18.39,-8.21 -38.78,-9.86 -58.49,-12.16 -77.87,-9.19 -158.38,-36.14 -207.34,-97.26 -16.11,-19.71 -28.26,-43.05 -47.98,-59.15 -20.06,-16.09 -50.93,-22.99 -70.31,-6.56 16.42,32.86 32.52,65.71 48.63,98.25 14.78,29.57 29.89,60.12 54.54,81.82 24.97,22 61.77,33.51 91.68,19.71 9.85,-4.6 19.71,-12.16 30.88,-10.84 7.89,0.99 14.79,6.57 20.06,12.81 42.37,47 28.57,124.87 -12.82,172.84 -41.07,47.65 -102.2,72.62 -161.01,95.94 -21.03,8.23 -43.37,16.76 -65.72,12.82 -40.75,-7.56 -62.44,-51.91 -74.27,-91.67 -26.61,-88.06 -39.43,-183.69 -93.98,-257.95 -17.4,-23.33 -39.1,-44.69 -49.61,-71.95 -11.18,-29.58 -8.55,-64.09 -26.29,-90.04 -18.41,-27.27 -57.51,-43.05 -60.13,-75.91 -1.65,-23 17.41,-43.38 38.45,-53.23 21.03,-10.19 44.69,-13.14 66.37,-22.02 8.55,-3.61 18.07,-9.86 18.4,-19.05 0,-13.81 -19.05,-19.39 -23.98,-32.2 -5.27,-14.47 9.53,-27.94 15.76,-42.07 13.48,-32.2 -20.04,-64.73 -52.57,-77.88 -32.2,-13.14 -71.32,-22.67 -86.43,-54.22 -6.89,-14.45 -7.54,-31.21 -10.5,-46.97 -7.56,-39.77 -36.81,-78.21 -76.89,-84.79 -40.43,-6.58 -85.1,29.25 -78.54,69.34 3.95,22.01 20.37,39.1 29.24,59.46 9.2,20.38 6.58,50.61 -14.45,57.18 -16.04,4.89 -31.79,-6.11 -46.96,-17.13 -17.47,-12.68 -34.17,-25.36 -49.65,-13.75 11.82,40.42 23.32,80.83 35.16,121.57 -45.35,23.01 -99.56,-18.73 -118.95,-66.04 -19.39,-46.98 -20.05,-100.88 -43.05,-146.23 -23,-45.67 -85.11,-79.51 -124.53,-47.31 -1.97,58.49 75.25,82.15 109.42,129.47 24.65,34.17 21.02,89.7 -15.45,111.38 -36.14,21.69 -93.65,-16.1 -79.83,-55.86 4.93,-13.8 16.42,-25.29 17.73,-40.08 1.32,-18.41 -14.14,-33.2 -28.25,-45.02 -22.02,-18.73 -44.04,-37.13 -66.06,-55.53 -14.12,-11.83 -29.24,-24.31 -47,-29.58 -45.32,-13.14 -90.67,23.67 -114.66,64.09 -23.98,40.73 -37.46,88.38 -70.66,122.22 -47.63,49.3 -138,52.25 -182.69,0.67 -45.01,-51.6 -22.01,-148.2 44.03,-166.93 24.97,-6.9 56.52,-6.24 69.67,-28.26 22.99,-39.1 -42.73,-89.05 -20.05,-128.49 17.41,-30.22 63.41,-16.42 96.93,-26.61 33.19,-10.19 51.92,-43.7 71.63,-72.61 19.4,-28.59 49.96,-57.51 84.13,-49.95 -2.63,-20.05 -5.26,-41.74 3.61,-59.8 8.88,-18.41 33.85,-30.24 50.27,-18.41 -16.76,27.61 3.29,66.04 32.54,79.85 29.25,13.81 63.41,10.52 95.62,6.9 32.21,-3.93 72.62,-15.76 75.25,-47.97 0.99,-10.51 -2.96,-21.69 0.99,-31.55 7.37,-20.06 30.2,-15.25 54.23,-10.45 22.04,4.4 45.09,8.8 58.14,-5.98 15.77,-16.09 -1.64,-44.7 -23.66,-49.94 -21.69,-5.59 -44.36,2.62 -66.7,3.28 -22.34,0.99 -49.62,-10.84 -50.61,-33.18 -0.98,-22.03 23.67,-37.79 26.3,-59.48 4.27,-36.8 -58.17,-46.32 -80.18,-16.43 -21.69,29.9 -14.13,70.97 -7.55,107.45 6.88,36.47 10.17,79.52 -16.77,105.15 -11.5,17.42 -41.4,8.21 -51.26,-10.18 -10.2,-18.41 -7.89,-40.76 -9.53,-61.45 -1.64,-21.03 -10.85,-44.69 -31.22,-50.28 -14.12,-3.94 -29.25,2.95 -43.7,4.92 -57.18,6.91 -96.94,-67.02 -78.87,-121.57 17.74,-54.87 69.66,-90.03 119.94,-117.96 36.8,-20.38 82.47,-39.44 118.96,-18.73 17.08,9.52 28.91,25.96 45.66,35.81 22.33,13.19 48.74,12.48 74.89,11.78 7.74,-0.22 15.46,-0.42 23.04,-0.28 52.25,1.31 103.84,21.37 142.94,55.54 14.79,13.47 28.59,35.82 17.08,51.92 -12.49,17.09 -48.29,20.69 -42.05,40.73 38.77,12.82 85.11,-17.08 89.38,-57.5 19.05,8.55 32.85,27.94 34.49,48.63 41.73,-42.38 121.92,-36.14 156.1,12.82 9.18,12.82 15.76,28.25 28.9,37.14 13.15,8.53 36.15,4.27 37.79,-11.18 0.66,-4.92 -0.99,-9.86 -2.62,-14.45 -7.9,-22.36 -16.1,-44.37 -23.99,-66.37 30.56,-16.44 66.71,9.18 87.4,36.79 52.06,69.64 94.03,63.8 149.35,57.97 26.39,-2.77 55.83,-5.55 90.86,-0.14 73.26,11.18 105.47,58.17 146.87,115.01 126.84,174.8 294.43,318.08 409.77,500.77 12.14,19.06 23.32,38.45 33.83,58.16 -1.96,-4.93 -3.61,-9.85 -5.59,-14.78 -45.34,-119.28 -101.52,-233.3 -167.56,-340.75 -14.14,-23.01 -28.59,-45.67 -43.4,-68.02 -9.18,-13.8 -18.72,-27.93 -28.24,-41.41 -12.17,-17.74 -24.97,-34.83 -37.8,-51.91 -10.2,-13.8 -20.37,-27.27 -30.89,-40.41 -7.22,-9.21 -14.78,-18.41 -22.34,-27.61 -7.88,-10.52 -16.43,-20.7 -25.64,-30.88l-27.59 -31.88c-2.63,-3.28 -5.58,-6.57 -8.88,-9.86 -9.52,-11.18 -19.7,-22.02 -29.9,-32.85 -0.66,-1.32 -1.64,-2.3 -2.95,-3.3 -2.63,-2.96 -5.58,-5.9 -8.54,-8.86 -8.22,-9.21 -17.09,-18.08 -25.63,-26.94 -14.14,-14.47 -28.59,-28.92 -43.37,-42.73 -12.17,-12.16 -24.65,-23.65 -37.47,-35.16 -11.16,-10.18 -22.35,-20.38 -33.84,-30.24 -11.18,-9.84 -22.34,-19.38 -33.84,-28.9 -13.81,-11.83 -27.93,-23.34 -42.4,-34.83l-0.32 0c-39.76,-31.88 -80.85,-62.1 -122.9,-90.36 -10.51,-7.23 -20.71,-14.13 -31.23,-21.03 -10.5,-7.23 -21.35,-13.81 -31.86,-20.38 -10.84,-6.57 -21.35,-13.47 -32.21,-19.71 -10.84,-6.91 -21.67,-13.15 -32.53,-19.4 -8.86,-5.25 -17.41,-10.17 -26.28,-14.78 -4.6,-2.96 -8.88,-5.25 -13.47,-7.56 -18.73,-10.51 -37.79,-20.71 -56.85,-30.23 -9.53,-4.93 -19.06,-9.86 -28.91,-14.46 -12.17,-6.24 -24.65,-12.16 -37.14,-17.74 -1.65,-0.99 -3.62,-1.98 -5.59,-2.63 -11.16,-5.25 -22.34,-10.51 -33.83,-15.44 -16.11,-6.9 -32.21,-13.8 -48.31,-20.37 -18.4,-7.57 -36.8,-15.12 -55.53,-22.02 -20.71,-7.89 -41.4,-15.44 -62.43,-22.35 -21.03,-7.23 -42.39,-14.13 -63.75,-20.71 -21.37,-6.56 -42.73,-12.48 -64.42,-18.39 -42.7,-11.5 -86.08,-21.69 -129.8,-30.56l-2.28 -0.65c-16.76,-3.29 -33.52,-6.58 -50.28,-9.2 -1.31,-0.34 -2.3,-0.66 -3.28,-0.66 -7.24,-1.31 -14.78,-2.63 -22.34,-3.62 -31.22,-5.25 -62.77,-9.52 -94.63,-13.14 -3.62,-0.65 -7.57,-0.99 -11.51,-1.31 -9.2,-1.31 -18.41,-1.97 -27.94,-2.96 -21.02,-1.98 -42.06,-3.62 -63.41,-4.93 -22.01,-1.65 -44.36,-2.62 -66.7,-3.28 -23.34,-1 -46.67,-1.32 -69.99,-1.32 -61.79,0 -122.9,2.63 -183.36,8.21 -14.47,0.98 -28.58,2.31 -42.72,3.95 -14.78,1.64 -29.57,3.29 -44.36,5.26 -14.78,1.96 -29.57,3.94 -44.04,6.24 -14.77,2.3 -29.23,4.6 -44.03,7.22 -12.49,1.98 -25.29,4.28 -37.78,6.91 -30.89,5.91 -61.45,12.48 -91.68,19.71 -14.13,3.29 -28.25,6.9 -42.39,10.85 -14.12,3.6 -28.26,7.56 -42.06,11.5 -23.33,6.57 -46,13.81 -68.67,21.02l-0.33 0c-18.39,6.25 -37.12,12.5 -55.2,18.74l-1.32 0.65c-18.73,6.58 -36.8,13.47 -55.2,20.7l-2.97 0.98c-16.76,6.58 -33.5,13.48 -49.94,20.38 -20.7,8.55 -41.07,17.76 -61.11,26.94 -17.09,7.89 -33.85,15.78 -50.28,24 -17.75,8.87 -35.48,17.73 -52.91,26.93l-1.96 1c-16.77,8.86 -33.53,18.07 -49.95,27.59 -17.09,9.53 -33.84,19.4 -50.6,29.92l-0.34 0c-15.76,9.52 -31.21,19.04 -46.65,28.91 -5.92,3.61 -11.49,7.57 -17.41,11.5 -16.43,10.52 -32.21,21.35 -48.31,32.53 -19.72,13.47 -38.77,27.6 -57.83,41.73 -16.76,12.5 -33.18,25.3 -49.29,38.11 -92.99,74.26 -179.75,156.09 -258.27,244.81 -27.94,30.88 -54.22,62.43 -79.85,94.63 -21.7,27.6 -42.71,55.53 -62.77,84.45 -18.07,25.14 -35.49,50.77 -52.29,76.8 16.8,-26.03 34.22,-51.66 52.29,-76.8 5.27,-0.66 10.52,-1.31 15.78,-1.65 29.57,-2.29 60.78,-1.31 87.4,-14.11 24.65,-12.17 42.06,-34.18 64.41,-49.96 57.17,-40.74 150.82,-48.31 166.27,-116.65 5.25,-23.01 -0.99,-47.97 7.55,-69.99 16.11,-41.06 70.98,-46.98 115.01,-46.33 18.73,0 40.75,2.62 49.3,19.06 6.24,11.49 2.62,25.96 -1.98,38.12 -26.94,76.88 -81.49,143.27 -150.83,185.33 -57.18,34.83 -131.77,61.77 -147.53,126.81 7.89,22.03 47.97,20.38 51.25,43.39 2.31,18.4 -21.35,27.94 -29.9,44.36 -12.49,23.99 16.1,53.24 43.38,51.91 27.27,-1.31 49.95,-21.02 70,-39.42 59.79,-55.53 122.55,-115.34 144.24,-194.19 9.21,-32.54 12.49,-70.65 38.77,-92.35 31.23,-25.63 87.07,-7.88 97.6,31.22 25.97,-14.45 66.37,-25.3 79.84,1.65 4.6,9.53 3.3,20.69 5.59,30.89 8.55,42.05 66.04,61.11 71.96,103.5 6.9,48.96 -55.85,74.27 -104.82,81.82 -44.36,6.9 -88.71,13.8 -133.08,21.03 -19.38,2.95 -39.43,6.25 -55.2,17.74 -15.77,11.83 -25.63,34.18 -16.43,51.59 5.26,9.54 15.45,15.78 23.01,23.66 36.8,36.81 6.56,112.71 -45.35,114.36 -17.75,0.66 -35.17,-5.92 -52.9,-6.58 -52.58,-2.3 -94.33,44.04 -119.28,90.36 -24.98,46.34 -43.71,99.24 -85.76,130.79 -67.69,50.92 -184.35,39.1 -217.21,117.3 -13.15,31.55 -6.24,67.04 -0.99,100.88 5.27,33.52 7.55,70.97 -12.16,98.9 -19.38,27.61 -69.98,33.52 -84.44,2.64 -6.26,-13.48 -4.29,-29.24 -1.97,-43.71 7.88,-48.63 15.43,-97.26 22.99,-145.9 5.6,-36.15 10.52,-76.55 -10.83,-106.13 -29.91,-41.4 -96.94,-37.46 -135.73,-4.27 -38.44,33.19 -54.53,85.11 -65.38,134.73 -7.89,36.8 -17.08,88.7 -37.46,130.76l0 0.01c-6.89,40.75 -12.48,82.15 -16.76,123.87 -4.27,42.74 -7.23,85.12 -8.86,128.49 5.25,-4.28 10.83,-9.52 16.76,-15.77 20.69,-21.36 62.42,-111.73 99.89,-67.36 9.53,11.17 9.85,29.25 0.66,41.07 -11.51,14.79 -34.51,18.08 -43.38,34.18 -10.85,19.06 4.26,42.71 22.01,55.19 17.75,12.82 39.44,20.71 51.92,38.78 23.98,34.51 1,86.75 24.32,121.91 20.04,30.23 62.76,32.2 99.24,36.14 4.26,0.66 8.21,1.33 12.48,1.98 10.18,-72.29 44.02,-131.12 142.61,-153.45 136.03,-30.89 314.79,81.81 391.34,184.33 85.44,114.69 125.87,277.01 256.65,334.51 93.64,41.08 226.71,26.29 272.39,117.97 40.75,82.15 -30.21,174.48 -41.07,265.5 -6.89,60.14 12.82,119.93 17.41,180.06 4.28,60.48 -13.47,130.79 -68.34,156.09 -30.56,13.81 -69,12.17 -93.65,35.17 -43.7,41.4 -7.88,126.82 -51.59,168.24 -15.44,14.45 -36.8,19.71 -55.53,29.23 -98.24,49.62 -95.62,194.21 -49.95,294.43 1.65,3.61 3.29,6.9 4.93,10.51 145.24,87.08 301.65,156.74 466.93,206.02 189.28,57.51 390.04,88.07 598.05,88.07 351.91,0 683.8,-87.73 974.27,-242.49l0.33 0c63.1,-33.86 124.54,-70.66 183.69,-110.74 91.68,-61.46 177.77,-130.13 257.94,-205.04 55.53,-51.92 108.43,-106.8 157.73,-164.62 34.83,-40.1 67.69,-81.83 99.24,-124.55 16.1,-22.01 31.86,-44.03 46.66,-66.7 45.34,-66.38 86.75,-135.72 123.87,-207.35 53.9,-103.17 98.91,-211.61 134.4,-323.99 36.47,-113.36 63.08,-231 79.19,-351.92 6.25,-46.66 11.17,-93.98 14.45,-141.62 -22.67,22.01 -52.25,37.79 -83.45,37.12 -49.95,-0.66 -91.04,-42.39 -111.08,-88.39z"/>
  <path class="fil2" d="M5410.43 3185.34c-33.47,4.7 -72.96,-11.82 -98.41,10.44 -14.83,12.97 -18.11,34.27 -24.02,53.09 -8.16,26.13 -23.85,50.82 -47.4,64.77 -23.56,13.96 -55.58,15.11 -77.4,-1.41 -21.82,-16.52 -28.48,-51.74 -10.62,-72.5 8.11,-9.43 19.82,-15.04 28.88,-23.6 44.41,-41.97 14,-119.82 47.79,-169.71 19.91,-29.42 51.24,-59.3 73.13,-89.12 16.81,-22.93 22.99,-41.1 53.92,-47.2 135.35,-26.63 196.51,255.31 54.13,275.24z"/>
  <path class="fil3" d="M2041.15 2038.61c0.2,-12.54 0.15,-25.14 0.64,-37.46 0,-3.95 0.34,-7.57 0.67,-11.51l0 -0.33 0 0.33c-0.33,3.94 -0.67,7.56 -0.67,11.51 -0.49,12.32 -0.44,24.92 -0.64,37.46z"/>
  <path class="fil2" d="M2311.57 2621.85c-6.58,-59.48 13.14,-118.96 14.13,-179.08 0.66,-41.41 -2.3,-85.12 -2.96,-126.85 -35.48,-1.64 -70.98,-6.56 -105.47,-14.77 -7.24,-1.66 -15.12,-3.96 -19.39,-9.87 -4.61,-6.25 -3.94,-14.46 -4.27,-22.02 -2.63,-46.65 -47.65,-77.55 -88.07,-100.87 -20.69,-12.16 -41.73,-23.99 -64.07,-31.55 0,4.93 0,9.53 0.32,14.46 8.22,231 54.22,452.8 132.1,658.83 35.49,93.98 77.87,185 126.84,272.07 20.37,37.8 42.72,74.92 66.05,111.39 28.91,45.02 59.14,89.06 91.67,131.45 30.23,40.73 62.43,80.5 96.29,118.62 46.32,52.9 95.29,103.18 146.87,151.15 45.67,42.72 93.32,83.13 142.94,121.58 -113.36,-304.28 -220.17,-614.8 -414.03,-873.73 -50.92,-67.69 -109.42,-136.7 -118.95,-220.81z"/>
  <path class="fil1" d="M1095.39 1713.26c7.99,-58.08 -73.99,-105.86 -135.58,-110.82 -29.38,-2.37 -59.89,2.11 -87.72,-7.58 -60.29,-21.01 -84.38,-98.91 -143.21,-123.72 -43.98,-18.56 -94.62,-2.04 -137.26,19.42 -42.64,21.47 -84.78,48.47 -132.42,51.52 -41.44,2.65 -86.45,-12.72 -122.69,7.53 -27.02,15.09 -41.17,46.2 -66.07,64.57 -24.37,17.97 -56.14,21.78 -86.36,23.42 -30.24,1.65 -61.52,1.95 -89.04,14.55 -27.53,12.6 -50.3,41.71 -44.59,71.43l1044.94 -10.32z"/>
  <path class="fil2" d="M2325.65 548.37c7.99,-58.1 -73.98,-105.88 -135.59,-110.84 -29.37,-2.37 -59.88,2.12 -87.72,-7.58 -60.28,-21.02 -84.36,-98.91 -143.2,-123.73 -43.98,-18.54 -94.62,-2.03 -137.26,19.43 -42.64,21.46 -84.78,48.47 -132.42,51.52 -41.44,2.65 -86.43,-12.72 -122.69,7.53 -27.02,15.08 -41.17,46.21 -66.07,64.57 -24.36,17.98 -56.14,21.77 -86.36,23.42 -30.23,1.64 -61.52,1.95 -89.04,14.55 -27.53,12.6 -50.3,41.71 -44.59,71.43l1044.94 -10.3z"/>
  <path class="fil1" d="M8124.1 1445.67c12.84,-93.33 -118.88,-170.13 -217.87,-178.1 -47.2,-3.8 -96.23,3.42 -140.95,-12.17 -96.89,-33.78 -135.59,-158.95 -230.13,-198.82 -70.68,-29.8 -152.05,-3.27 -220.57,31.21 -68.52,34.48 -136.23,77.89 -212.78,82.79 -66.59,4.26 -138.91,-20.44 -197.17,12.09 -43.4,24.25 -66.15,74.26 -106.16,103.78 -39.15,28.87 -90.21,34.99 -138.79,37.63 -48.57,2.65 -98.84,3.13 -143.07,23.39 -44.23,20.24 -80.82,67 -71.63,114.78l1679.12 -16.58z"/>
  <path class="fil2" d="M6879.88 545.75c1.45,-32.28 -9.15,-64.41 -26.57,-91.62 -17.09,-26.65 -41.31,-49.38 -70.78,-60.92 -31.31,-12.28 -67.64,-11.02 -98.01,3.38 -18.07,8.57 -33.88,21.71 -45.88,37.69 -6.57,-16.94 -16.75,-32.48 -29.9,-44.99 -24.35,-23.18 -58.47,-35.76 -92.03,-33.91 -31.61,1.76 -61.73,15.78 -86.29,35.74 -25.07,20.36 -45.19,47.58 -53.91,78.69 -10.9,38.96 -10.21,83.64 4.89,121.18 15.94,39.64 46.37,74.48 79.01,102.05 54.88,46.37 127.53,105.05 127.53,105.05 0,0 75.74,-39.73 142.38,-66.58 39.63,-15.97 79.45,-39.53 107,-72.2 26.08,-30.93 40.72,-73.14 42.56,-113.56z"/>
  <path class="fil2" d="M1447.15 1003.39c-13.08,-21.08 -33.74,-36.85 -56.58,-46.52 -22.39,-9.48 -47.6,-13.38 -71.29,-7.91 -25.15,5.81 -47.63,22.37 -60.64,44.67 -7.73,13.27 -12.05,28.46 -12.72,43.77 -11.51,-7.87 -24.7,-13.29 -38.46,-15.52 -25.49,-4.13 -52.57,2.71 -73.03,18.45 -19.26,14.82 -32.28,36.77 -39.17,60.08 -7.05,23.78 -7.99,49.76 -0.02,73.24 9.99,29.43 29.81,57.43 55.66,74.67 27.31,18.22 61.7,27.09 94.35,30.4 54.89,5.55 126.38,11.23 126.38,11.23 0,0 30.77,-58.04 61.35,-103.96 18.18,-27.32 33.19,-59.52 36.47,-92.16 3.1,-30.92 -5.93,-64.04 -22.3,-90.44z"/>
  <polygon class="fil4" points="2312.86,5402.76 2380.21,4907.15 3817.96,4838.58 3919.2,5404.2 "/>
  <path class="fil5" d="M3659.96 3346.84l431.35 478.62c71.19,78.98 122.57,150.89 224.91,179.79 71.67,20.24 222.64,28.59 260.75,-18.49 52.28,-64.57 84.72,-176.27 11.52,-316.76 -47.64,-91.43 -466.14,-465.1 -466.14,-465.1l-462.39 141.94z"/>
  <path class="fil6" d="M3802.02 3426.83c2.44,23.66 115.25,258.96 115.25,258.96l370.31 -241.57c0,0 -238.37,-566.29 -412.45,-604.36l-73.11 586.97z"/>
  <path class="fil5" d="M4436.08 2766.71l5.23 -179.94 -11.99 -229.19 -36.41 -190.61c0,0 -9.57,-18.71 -33.62,-4.56 -24.06,14.15 -3.22,118.15 -3.22,118.15l3.72 78.2c0,0 -14.09,60.37 -18.61,55.29 -4.52,-5.07 -19.62,-110.66 -19.62,-110.66l-43.66 -226.72c0,0 -10.41,-24.44 -38.26,-15.66 -15.47,4.87 -25.57,27.39 -23.63,61 1.92,33.61 16.58,90.3 18.12,109.4 1.53,19.09 14.12,129.33 14.12,129.33l-76.56 -253.6c0,0 -14.2,-82.52 -48.56,-70.65 -34.39,11.87 -11.43,71.07 -9.88,96.66 1.53,25.59 51.32,198.23 47.14,246.37 -4.17,48.13 -11.82,24.07 -11.82,24.07 0,0 -19.92,-79.43 -35.61,-142.07 -15.72,-62.66 -39.41,-98.92 -66.55,-103.5 -27.12,-4.57 9.26,140.59 9.26,140.59l45.97 202.81 -11.42 64.57 -45.22 -58.11c0,0 -1.32,-76.13 -48.88,-107.87 -48.34,-32.25 -59.84,3.94 -59.84,3.94l88.67 294.65c20.98,48.16 156.81,141.83 156.81,141.83l24.27 295.44 301.85 -6.01 -71.8 -363.15z"/>
  <path class="fil7" d="M4330.18 2660.35c-1.52,1.47 -15.77,-13.02 -40.28,-33.83 -24.16,-19.94 -62.37,-47.8 -110.43,-45.62 -21.2,0.77 -40.89,7.93 -54.57,19.83l-5.05 4.38 -4.38 -5.78c-19.37,-25.53 -40.13,-47.78 -52.48,-63.84 -12.97,-15.99 -19.38,-26.77 -17.96,-27.63 1.04,-0.59 9.09,7.98 23.69,22.54 14.36,15.18 34.87,34.19 57.37,62.38l-9.44 -1.41c15.64,-14.42 38.57,-22.98 62.24,-23.81 26.28,-1.19 50.98,6.29 70.49,16.98 19.66,10.61 34.89,23.58 46.81,34.96 23.53,23.18 35.14,39.79 33.99,40.85z"/>
  <polygon class="fil5" points="4251.94,3795.41 4187.95,2876.06 4443.52,2795.94 4629.08,3795.41 "/>
  <path class="fil4" d="M3698.25 1694.95c49.93,8.64 103.61,-25.29 117.23,-74.09 13.62,-48.8 -14.72,-105.62 -61.92,-124.09 33.12,-30.23 43.98,-82.3 25.73,-123.25 -18.25,-40.95 -64.25,-67.66 -108.86,-63.24 0.71,-44.26 -23.21,-88.12 -60.82,-111.47 -37.61,-23.33 -87.54,-25.33 -126.88,-5.05 -46.37,-44.67 -124.98,-50.8 -177.71,-13.87 -42.45,-10.41 -90.58,9.73 -112.96,47.27 -22.38,37.54 -17.21,89.46 12.15,121.85l494.04 345.94z"/>
  <path class="fil5" d="M3711.22 2271.26c8.09,-113.44 5.75,-348.42 1.17,-561.04 -4.93,-228.54 -184.6,-414.92 -412.8,-428.4l-22.68 -1.34c-245.38,-0.13 -382.58,208.19 -375.92,453.48l-37.74 944.67 148.2 133.87c135.04,121.97 348.77,84.54 434.31,-76.07l11.45 -207.62c0,0 237.24,-22.68 254.01,-257.55z"/>
  <path class="fil7" d="M3459.18 2528.58c0,0 -150.62,0.19 -302.66,-108.29 0,0 62.45,173.42 298.24,166.09l4.42 -57.8z"/>
  <path class="fil4" d="M3608.53 1908.56c-0.41,17.75 -15.81,32.05 -34.36,31.94 -18.53,-0.09 -33.25,-14.53 -32.81,-32.29 0.42,-17.77 15.79,-32.08 34.32,-31.98 18.55,0.09 33.26,14.57 32.85,32.33z"/>
  <path class="fil4" d="M3655.09 1822.3c-4.43,4.14 -28.74,-16.18 -64.87,-18.21 -36.06,-2.56 -63.66,14.46 -67.3,9.81 -1.82,-2.07 2.88,-9.72 14.92,-17.44 11.85,-7.71 31.71,-14.7 54.21,-13.28 22.48,1.46 40.92,10.85 51.3,19.97 10.6,9.17 13.9,17.32 11.74,19.15z"/>
  <path class="fil4" d="M3277.02 1908.56c-0.42,17.75 -15.81,32.05 -34.36,31.94 -18.53,-0.08 -33.25,-14.53 -32.82,-32.3 0.41,-17.75 15.81,-32.07 34.33,-31.97 18.56,0.09 33.27,14.57 32.85,32.33z"/>
  <path class="fil4" d="M3299.65 1808.1c-4.42,4.13 -28.77,-16.18 -64.88,-18.21 -36.03,-2.55 -63.65,14.46 -67.3,9.81 -1.81,-2.07 2.85,-9.73 14.94,-17.45 11.84,-7.69 31.7,-14.69 54.2,-13.27 22.49,1.46 40.93,10.86 51.3,19.97 10.58,9.18 13.9,17.31 11.74,19.15z"/>
  <path class="fil4" d="M3414.95 2083.72c-0.05,-2.08 22.64,-4.63 59.28,-7.14 9.29,-0.4 18.12,-1.72 20.04,-7.93 2.56,-6.53 -0.69,-16.7 -4.54,-27.7 -7.35,-22.83 -15.05,-46.75 -23.13,-71.83 -31.98,-102.24 -54.55,-186.06 -50.43,-187.32 4.14,-1.24 33.41,80.59 65.39,182.82 7.65,25.19 15,49.22 21.96,72.19 2.86,10.68 8.18,22.92 2.65,36.47 -2.89,6.75 -9.96,11.36 -15.96,12.6 -6.02,1.46 -11.22,1.25 -15.8,1.25 -36.73,-0.19 -59.44,-1.37 -59.46,-3.41z"/>
  <path class="fil4" d="M3307.17 2102.43c5.9,0 3.66,39.21 35.57,69.01 31.85,29.89 73.9,27.97 73.89,33.46 0.4,2.49 -9.76,7.06 -27.42,6.5 -17.34,-0.43 -42.29,-7.47 -61.82,-25.7 -19.46,-18.29 -26.91,-41.57 -27.31,-57.72 -0.52,-16.49 4.41,-25.95 7.09,-25.55z"/>
  <path class="fil4" d="M3317.33 1667.12c-4.14,9.61 -39.94,2.83 -82.61,5.43 -42.73,1.76 -77.63,12.15 -82.73,3.01 -2.26,-4.38 4.23,-13.25 18.61,-21.94 14.26,-8.69 36.65,-16.43 62.25,-17.75 25.61,-1.27 48.67,4.13 63.72,11.32 15.2,7.19 22.57,15.36 20.76,19.93z"/>
  <path class="fil4" d="M3647.97 1717c-6.83,7.82 -31.21,-2.17 -61.12,-4.32 -29.8,-3.21 -55.58,2.25 -60.89,-6.68 -2.32,-4.31 2.15,-12.3 13.68,-19.41 11.36,-7.1 29.98,-12.35 50.51,-10.51 20.51,1.86 37.9,10.35 47.81,19.37 10.07,9.05 13.05,17.71 10.01,21.55z"/>
  <path class="fil4" d="M3696.15 1601.16c0,0 -53.31,-150.84 -122.26,-189.37 -83.47,-46.65 -126.02,45.47 -206.55,17.76 -80.53,-27.72 -160.21,-72.45 -247.62,-14.09 -95.69,63.88 -55.64,115.02 -67.45,218.97 -47.87,421.46 -132.14,536.47 -142.36,336.02 -1.12,-21.97 -60.65,-42.88 -64.19,-135.6 -4.58,-120.22 -0.62,-265.63 31.06,-348.89 26.71,-70.18 70.39,-117.16 146.71,-167.32 120.47,-79.18 279.09,-71.67 386.09,-54.49 107.01,17.18 307.25,153.29 286.57,337.01z"/>
  <path class="fil5" d="M2925.27 1964.95c0.65,-36.38 -28.91,-66.86 -65.26,-65.55 -44.07,1.58 -94.33,23.59 -96.77,114.35 -4.35,160.99 158.17,132.14 158.58,127.52 0.28,-3.12 2.23,-108.95 3.45,-176.32z"/>
  <path class="fil7" d="M2888.42 2079.75c-0.68,-0.53 -2.86,1.9 -7.66,3.95 -4.67,1.98 -12.66,3.23 -20.97,-0.14 -16.84,-6.7 -30.43,-34.09 -30.43,-63.13 -0.01,-14.66 3.43,-28.53 8.94,-39.94 5.23,-11.65 13.07,-19.67 21.68,-20.96 8.57,-1.74 14.5,3.55 16.33,8.15 2.04,4.55 0.94,7.74 1.77,8.04 0.45,0.42 3.54,-2.61 2.42,-9.3 -0.58,-3.21 -2.37,-7.05 -6.06,-10.25 -3.78,-3.25 -9.43,-5 -15.4,-4.51 -12.43,0.52 -23.92,11.64 -29.96,24.15 -6.74,12.58 -10.96,28.15 -10.95,44.62 0.16,32.48 15.95,63.28 39.04,70.63 11.25,3.25 20.79,0.09 25.77,-3.58 5.1,-3.83 6.03,-7.42 5.48,-7.73z"/>
  <path class="fil4" d="M2946.77 1653.8c20.03,15.49 41.21,31.48 66.21,35.44 25,3.98 54.61,-8.77 60.31,-33.43 2.57,-11.08 0.6,-24.2 8.46,-32.43 9.39,-9.8 25.38,-5.6 38.76,-3.38 46.43,7.71 96.23,-22.52 110.8,-67.26 10.87,18.55 38.71,19.41 57.43,8.84 18.72,-10.55 31.45,-28.9 46.52,-44.22 15.06,-15.33 35.72,-28.61 56.78,-24.34 11.77,2.39 22.48,10.12 34.5,9.76 21.21,-0.64 32.96,-24.73 37.4,-45.5 4.43,-20.75 8.36,-45.04 26.9,-55.36 17.18,-9.57 38.28,-2.22 57.54,1.79 19.25,4.01 44.6,0.94 50.7,-17.77 3.2,-9.81 -0.46,-20.55 -5.47,-29.57 -22.7,-40.86 -76.23,-61.59 -120.52,-46.65 -12.6,-54.01 -59.82,-98.27 -114.54,-107.32 -54.73,-9.07 -113.69,17.61 -143.02,64.7 -32.15,-32.81 -80.73,-48.66 -126.05,-41.09 -45.3,7.56 -86.11,38.31 -105.86,79.79 -38.49,-12.59 -83.93,-0.09 -110.57,30.39 -26.65,30.48 -32.95,77.2 -15.32,113.64 -29.86,14.8 -56.28,42.04 -58.85,75.28 -2.54,33.21 27.9,68.26 60.51,61.41 -14.49,25.13 -6.02,60.9 18.21,76.85 24.24,15.94 60.45,9.57 77.8,-13.68l-8.63 4.11z"/>
  <path class="fil8" d="M3482.24 1357.72c0.13,0.01 0.06,1.01 -0.22,2.93 -0.32,1.93 -0.61,4.84 -1.52,8.53 -1.92,7.33 -5.56,18.14 -13.49,30.27 -7.99,11.94 -20.08,25.55 -37.87,35.89 -17.46,10.49 -41,17.84 -66.94,14.9l2.93 -3.42c4.19,14.05 1.84,30.46 -5.84,44.19 -7.32,13.98 -18.28,26.12 -29.83,37.9 -5.88,5.62 -11.09,12.34 -19.07,17.37 -7.74,4.82 -16.83,7.34 -26.02,7.94 -18.26,1.26 -38.38,-5.55 -50.63,-21.58l6.12 -1.37c-5.98,31.71 -26.04,62.61 -56.04,80.39 -15.94,10.13 -35.23,15.76 -53.79,14.17 -18.59,-1.27 -35.56,-7.75 -51.33,-14.47l4.41 -1.64c-9.82,19.47 -24.09,35.72 -40.96,47.35 -16.56,11.63 -38.08,17.76 -56.88,11.95 -37.45,-10.27 -60.76,-43.29 -64.07,-73.29l3.54 1.91c-19.43,9.15 -39.68,8.93 -55.7,4.86 -16.26,-3.97 -28.71,-11.88 -37.49,-19.46 -8.8,-7.72 -13.83,-15.4 -16.79,-20.69 -2.71,-5.47 -3.78,-8.47 -3.6,-8.56 0.86,-0.6 4.62,12.54 22.14,27.18 8.76,7.03 20.99,14.29 36.65,17.73 15.43,3.58 34.64,3.32 52.6,-5.48l3.12 -1.53 0.43 3.44c3.47,28 25.96,58.87 60.71,67.99 17.05,5.07 35.97,-0.44 51.66,-11.44 15.76,-10.96 29.38,-26.64 38.51,-44.94l1.44 -2.91 2.97 1.26c15.54,6.58 31.91,12.68 49.1,13.79 17.18,1.4 34.49,-3.6 49.67,-13.21 28.36,-16.83 47.18,-45.72 52.98,-75.73l1.45 -7.54 4.65 6.18c10.33,13.69 28.32,20.14 44.73,19.04 8.23,-0.49 16.3,-2.7 23.05,-6.85 6.58,-3.97 12.01,-10.6 17.97,-16.28 11.52,-11.56 22.16,-23.23 29.12,-36.24 7.3,-12.81 9.39,-27.24 5.85,-39.94l-1.08 -3.9 4.03 0.5c24.39,3.09 47.05,-3.5 64.07,-13.29 17.36,-9.61 29.4,-22.5 37.52,-33.86 16.08,-23.44 16.61,-40.49 17.74,-40.04z"/>
  <path class="fil6" d="M3829.45 3661.29l16.98 -171.23 59.01 -627.66c-30.31,-31.94 -152.48,-82.1 -152.48,-82.1l-303.28 -109.01c0,0 -29.06,83.23 -256.87,86.62 -233.02,3.44 -329.56,-142.34 -329.56,-142.34 -116.44,37.49 -370.66,134 -370.66,134l-86.73 816.55 -4.4 269.56 -53.64 1372.84c0,0 1526.83,-64.85 1549.72,-68.8l-61.84 -494.35 -6.25 -984.08z"/>
  <polygon class="fil9" points="3566.09,3722.22 3391.26,3579.59 3391.26,3258.31 3758.35,3267.24 3748.33,3580.84 "/>
  <polygon class="fil10" points="2375.51,4500.08 2376.24,4481.05 "/>
  <polygon class="fil11" points="3831.71,4015.39 3831.71,4015.39 3831.71,4015.37 3831.71,4015.37 "/>
  <path class="fil9" d="M2375.51 4500.08l0.74 -19.02 3.72 -95.1 4.51 -1.15c14.69,0.78 29.93,1.15 45.73,1.15 215.17,0 526.28,-69.3 769.85,-134l259.13 22c-255.62,76.03 -1082.8,225.97 -1083.68,226.12zm1266.35 -300.24l6.54 -137.66 183.31 -46.79 0 0.01 -3.48 87.06c0,0 -64.36,40.98 -186.37,97.38z"/>
  <path class="fil5" d="M2446.92 2818.22c0,0 -217.48,34.72 -262.27,312 -28.89,178.8 -116.3,966.26 3.24,1177.86 138.29,244.82 1386.93,-165.88 1386.93,-165.88l42.64 -316.88 -962.18 63.65 -120.83 -667.85 -87.53 -402.9z"/>
  <path class="fil6" d="M2098.21 3749.44l609.78 0 -166.83 -1017.07c0,0 -349.52,70.81 -395.27,435.95 -46.17,368.41 -47.68,581.12 -47.68,581.12z"/>
  <path class="fil4" d="M2174.88 3749.44c0,-0.09 0.93,-0.19 2.73,-0.3 2.17,-0.09 4.8,-0.19 8.01,-0.3 7.55,-0.15 17.83,-0.34 30.81,-0.58 27.34,-0.24 66,-0.57 113.67,-0.97 96.64,-0.26 229.69,-0.59 377.88,-0.97l-3.11 3.4c-0.69,-7.9 -1.42,-16.41 -2.15,-24.97 -12.81,-153.38 -24.39,-292.21 -32.83,-393.35 -3.86,-49.94 -7.01,-90.55 -9.23,-119.27 -0.93,-13.68 -1.66,-24.52 -2.19,-32.45 -0.17,-3.39 -0.3,-6.18 -0.41,-8.45 -0.06,-1.91 -0.03,-2.9 0.06,-2.91 0.11,0 0.3,0.97 0.57,2.86 0.29,2.25 0.62,5.01 1.03,8.39 0.83,7.91 1.95,18.72 3.37,32.34 2.7,28.69 6.52,69.23 11.22,119.12 8.9,101.08 21.13,239.86 34.65,393.2 0.73,8.54 1.46,17.04 2.14,24.96l0.29 3.4 -3.41 -0.01c-148.19,-0.38 -281.24,-0.71 -377.88,-0.97 -47.67,-0.41 -86.33,-0.73 -113.67,-0.97 -12.98,-0.25 -23.26,-0.43 -30.81,-0.58 -3.21,-0.13 -5.84,-0.21 -8.01,-0.3 -1.8,-0.11 -2.73,-0.21 -2.73,-0.32z"/>
  <path class="fil4" d="M3875.14 3131.56c0.43,0.01 0.5,7.41 0.29,20.77 -0.13,13.38 -1,32.69 -2.15,56.55 -2.49,47.72 -7.47,113.54 -14.35,186.1 -6.82,72.57 -14.1,138.15 -19.87,185.57 -2.87,23.71 -5.38,42.87 -7.25,56.1 -1.89,13.21 -3.16,20.51 -3.6,20.46 -0.42,-0.06 0.04,-7.43 1.17,-20.73 1.35,-14.34 3.13,-33.32 5.28,-56.31 4.71,-48.51 11.05,-113.67 18.04,-185.68 6.87,-72.51 12.55,-138.21 16.17,-185.8 1.68,-23.01 3.06,-42.01 4.12,-56.36 0.97,-13.32 1.7,-20.68 2.15,-20.67z"/>
  <path class="fil4" d="M2717.47 3020.79c-0.39,0.19 -2.81,-3.84 -6.87,-11.31 -4.65,-8.69 -10.3,-19.27 -16.95,-31.69 -14.49,-26.52 -34.72,-63.54 -65.47,-97.71 -30.78,-34.13 -67.61,-55.77 -96.24,-64.52 -28.7,-9.16 -47.93,-7.66 -47.83,-8.99 -0.01,-0.36 4.69,-0.98 13.26,-0.87 8.56,0.09 21.01,1.51 35.84,5.61 29.72,7.88 68.1,29.59 99.6,64.54 31.43,34.96 51.25,72.78 64.77,99.91 6.72,13.65 11.82,24.83 15.21,32.65 3.39,7.79 5.06,12.19 4.68,12.38z"/>
  <path class="fil9" d="M2738.03 3725.93l-30.94 -23.03c-12.77,-144.86 -24.29,-275.5 -32.77,-371.87 -1.54,-16.37 -2.99,-31.72 -4.33,-45.97l68.04 440.87z"/>
  <path class="fil12" d="M2707.09 3702.91l-3.3 -2.46 -37.93 -442.14 4.13 26.76c1.34,14.25 2.79,29.6 4.33,45.97 8.48,96.37 20,227.01 32.77,371.87z"/>
  <path class="fil13" d="M4235.41 3841.1l-18.83 259.6 -86.24 108.58 -211.02 280.04 255.59 16.66c0,0 299.81,-74.51 343.93,-166.85 44.14,-92.32 46.7,-498.03 46.7,-498.03l-330.13 0z"/>
  <path class="fil13" d="M5498.44 2976.56l14.38 -1009.84c9.27,-240.28 -110.19,-448.2 -350.62,-450.81l-22.22 1.05c-223.65,10.62 -401.92,191.09 -409.29,414.87 -6.9,208.36 -11.83,438.72 -5.16,550.03 13.79,230.32 245.99,255.22 245.99,255.22 0.36,7.06 -0.29,64.4 -1.26,133.15l0.36 114.4 527.82 -8.07z"/>
  <path class="fil14" d="M4970.92 2737.07c0,0 145.67,1.61 295.85,-102.96 0,0 -65.2,171.81 -296.15,161.97l0.3 -59.01z"/>
  <path class="fil4" d="M5107.02 2049.65c5.04,1.49 28.29,-15.39 65.8,-24.11 37.38,-9 67.98,-4.88 71.33,-8.34 1.66,-1.59 -4.06,-5.05 -17.43,-7.03 -13.2,-1.99 -34.67,-1.89 -58.01,3.62 -23.33,5.54 -41.59,14.83 -51.46,22.3 -10.11,7.55 -12.69,12.96 -10.23,13.56z"/>
  <path class="fil4" d="M5144.16 2120.93c0.22,16.47 14.32,29.88 31.51,29.99 17.17,0.1 30.96,-13.13 30.76,-29.6 -0.21,-16.46 -14.3,-29.88 -31.48,-30 -17.2,-0.11 -30.98,13.15 -30.79,29.61z"/>
  <path class="fil4" d="M5011.85 2301.24c0.06,-2.02 -22.12,-4.78 -58.02,-7.65 -9.09,-0.49 -17.73,-1.89 -19.55,-7.98 -2.45,-6.43 0.89,-16.37 4.77,-27.1 7.47,-22.28 15.27,-45.65 23.47,-70.13 32.48,-99.82 55.53,-181.71 51.5,-182.98 -4.02,-1.27 -33.62,78.59 -66.11,178.4 -7.79,24.61 -15.23,48.05 -22.33,70.49 -2.92,10.45 -8.26,22.39 -2.99,35.72 2.74,6.64 9.6,11.23 15.48,12.52 5.9,1.49 10.98,1.34 15.47,1.4 35.99,0.22 58.27,-0.67 58.31,-2.69z"/>
  <path class="fil4" d="M5135.17 1891.48c3.51,8.64 34.49,3 71.37,5.83 36.91,2.05 66.99,11.74 71.48,3.64 1.98,-3.87 -3.57,-11.89 -15.91,-19.83 -12.25,-7.92 -31.54,-15.09 -53.65,-16.58 -22.12,-1.44 -42.09,3.13 -55.17,9.37 -13.19,6.25 -19.64,13.46 -18.12,17.57z"/>
  <path class="fil4" d="M4767.68 1953.55c3.85,7.06 34.11,0.09 70.54,-0.1 36.46,-0.86 66.54,5.23 70.58,-1.95 1.78,-3.42 -4.08,-9.82 -16.63,-15.68 -12.43,-5.85 -31.77,-10.57 -53.64,-10.27 -21.84,0.36 -41.28,5.63 -53.86,11.84 -12.69,6.21 -18.7,12.78 -16.99,16.16z"/>
  <path class="fil13" d="M5501.97 2141.47c4.08,-1.88 165.3,-52.76 163.56,112.88 -1.76,165.66 -167.7,129.72 -167.93,124.97 -0.24,-4.75 4.37,-237.85 4.37,-237.85z"/>
  <path class="fil14" d="M5548.88 2317.1c0.72,-0.52 2.86,2.06 7.71,4.34 4.73,2.23 12.9,3.81 21.57,0.68 17.56,-6.25 32.59,-33.87 33.72,-63.72 0.58,-15.06 -2.43,-29.45 -7.65,-41.4 -4.93,-12.17 -12.68,-20.72 -21.47,-22.37 -8.75,-2.13 -15.04,3.08 -17.12,7.72 -2.26,4.61 -1.24,7.92 -2.13,8.2 -0.47,0.41 -3.53,-2.81 -2.11,-9.64 0.72,-3.28 2.69,-7.16 6.62,-10.3 4,-3.19 9.87,-4.79 15.99,-4.06 12.78,1.03 24.14,12.89 29.88,26.01 6.44,13.18 10.17,29.35 9.52,46.26 -1.41,33.38 -18.84,64.42 -42.85,71.1 -11.69,2.92 -21.37,-0.7 -26.34,-4.67 -5.1,-4.15 -5.92,-7.85 -5.34,-8.15z"/>
  <path class="fil4" d="M4770.81 2032.38c3.59,3.76 32.02,1.94 68.61,13.96 36.61,11.71 60.83,30.61 65.42,29.51 2.24,-0.44 -0.94,-6.15 -11.43,-14.55 -10.33,-8.32 -28.82,-19.17 -51.63,-26.57 -22.81,-7.38 -43.15,-9.14 -55.38,-8.12 -12.46,0.96 -17.4,4.03 -15.59,5.77z"/>
  <path class="fil4" d="M4814.97 2117.06c0.2,16.47 14.32,29.88 31.52,29.99 17.15,0.1 30.95,-13.13 30.75,-29.59 -0.2,-16.46 -14.31,-29.89 -31.48,-30 -17.2,-0.12 -30.98,13.14 -30.79,29.6z"/>
  <path class="fil4" d="M4424.63 1717.6c2.73,-9.19 9.65,-16.63 18.03,-21.3 18.27,-10.17 38.96,-8.23 59,-8.04 49.86,0.47 99.64,-11.03 144.65,-32.45 -15.28,-8.24 -29.51,-18.15 -41.5,-30.73 -24.76,-25.98 -38.36,-65.13 -25.86,-98.77 2.33,-6.31 6.21,-12.89 12.69,-14.7 10.3,-2.88 18.96,7.36 25.88,15.5 22.72,26.73 44.05,38.5 79.04,35.87 21.72,-1.64 42.85,-5.96 60.17,-16.15l2.02 -2.14c8.38,-8.22 16.57,-16.06 24.62,-23.66l0.05 -0.07 -0.02 0.05c60.59,-57.11 112.44,-96.44 165.3,-116.17 77.49,-28.93 206.05,-38.17 285.5,-15.16 79.43,23.01 149.59,89.72 158.62,171.93 45.82,-36.78 113.14,-34.74 167.2,-11.4l1.38 -0.57c60.28,23.23 93.2,88.39 109.58,150.87 0.89,3.42 1.64,6.88 2.49,10.32 19.73,33.12 46.98,61.76 79.82,82.03 5.8,3.56 12.43,7.93 12.98,14.72 0.53,6.72 -5.26,12.13 -10.86,15.92 -14.85,10.07 -32,16.5 -49.74,19.21 5.18,14.88 11.34,29.37 19.07,43.26 6.58,11.79 14.38,25.92 8.07,37.87 -4.87,9.24 -16.86,12.79 -27.14,11.01 -10.3,-1.78 -19.32,-7.72 -28,-13.52 6.39,16.41 12.75,32.83 19.12,49.24 -22.11,3.27 -44.85,0.93 -66.06,-6.09 -14.4,57.67 -30.88,131.32 -46.83,170.25 -25.44,-0.7 -49.35,-7.28 -65.38,6.41 -21.78,18.63 -32.24,54.42 -67.29,39.85 -17.84,-7.43 -33.32,-45.65 -38.88,-64.16 -36.92,-122.82 -46.88,-253.65 -29.19,-380.67 -24.51,-27.5 -54.36,-50.22 -87.39,-66.51l2.65 2.51c-63.65,-23.94 -135.76,-47.73 -197.46,-19.13 -47.87,22.19 -76.91,70.53 -113.24,108.78 -68.87,72.48 -151.23,110.28 -251.21,112.04 -10.76,69.12 -5.58,157.27 -10.62,221.9l-57.17 -105.88 -0.03 0.52c-4.28,-7.7 -7.77,-15.44 -11.14,-23.19l-1.16 -2.36 0 -0.3c-5.34,-12.45 -10.41,-24.93 -17.25,-37.27l-0.64 0.52c-35.86,30.05 -86.32,-18.56 -57.7,-55.57 5.67,-7.33 12.39,-13.84 20.04,-19.14 -16.4,14.64 -40.48,21.24 -61.34,14.25 -20.85,-7 -36.61,-28.67 -34.22,-50.53 1.62,-14.92 12.65,-28.03 26.31,-33.59 -28.38,1.45 -57.2,-5.45 -81.52,-20.15 -15.95,-9.65 -31.45,-25.25 -25.44,-45.46z"/>
  <path class="fil8" d="M5319.81 1586.16c-0.47,0.59 9.47,6.32 22.53,21.68 12.91,15.28 27.18,41.66 33.34,77.23 3.17,17.68 4.94,37.41 4.38,58.58 -0.44,21.17 -2.71,43.8 -4.95,67.65 -2.15,23.86 -4.51,49.06 -3.63,75.35 0.44,13.12 1.66,26.5 4.16,39.91 2.56,13.16 5.65,27.47 15.24,38.98 7.65,9.38 20.72,13.78 32.18,11.73 11.54,-1.73 21.92,-7.59 29.61,-15.75 15.22,-16.88 19.48,-38.68 23.64,-57.89l-4.84 0.47c7.44,17.54 15.11,34.88 26.75,48.87 11.44,14.05 27.54,23.58 44.11,25.49 8.23,0.96 16.6,-0.16 23.8,-3.55 7.33,-3.34 12.75,-9.21 16.51,-15.45 3.61,-6.37 5.58,-13.42 5.39,-20.26 -0.21,-6.83 -2.71,-13.38 -6.93,-18.07l-2.49 2.12c17.22,20.64 35.67,31.97 48.45,38.3 6.46,3.19 11.63,5.11 15.16,6.34 3.53,1.14 5.39,1.64 5.44,1.5 0.05,-0.15 -1.71,-0.92 -5.12,-2.34 -3.4,-1.49 -8.43,-3.68 -14.67,-7.06 -12.39,-6.74 -30.24,-18.33 -46.72,-38.81l-2.49 2.12c7.53,8.39 7.61,22.79 0.66,34.19 -3.49,5.63 -8.46,10.85 -14.92,13.67 -6.42,2.95 -14.03,3.91 -21.56,2.96 -15.22,-1.9 -30.23,-10.83 -40.95,-24.2 -10.97,-13.36 -18.38,-30.25 -25.72,-47.81l-3.12 -7.46 -1.73 7.92c-4.16,19.18 -8.62,40.11 -22.52,55.32 -6.88,7.3 -16.39,12.59 -26.5,14.08 -10.12,1.69 -20.67,-1.9 -27.34,-9.94 -8.4,-9.96 -11.58,-23.51 -14.06,-36.47 -2.46,-13.08 -3.7,-26.18 -4.17,-39.09 -0.92,-25.86 1.3,-50.89 3.32,-74.72 2.08,-23.86 4.21,-46.59 4.48,-68.04 0.36,-21.44 -1.65,-41.44 -5.11,-59.36 -6.74,-36.03 -21.85,-62.77 -35.5,-77.87 -13.77,-15.21 -24.11,-20.32 -24.11,-20.32z"/>
  <path class="fil8" d="M4602.92 1791.77c-0.06,0.07 0.55,0.62 1.79,1.62 1.53,1.16 3.38,2.6 5.64,4.33 2.46,1.95 5.6,4.22 9.58,6.49 3.92,2.38 8.37,5.26 13.8,7.73 21.09,10.68 55.08,21.63 97.96,20.2 42.46,-1.31 93.75,-15.03 140.05,-47.71 46.77,-31.86 88.32,-79.48 122.7,-134.36 17.42,-27.41 31.78,-55.62 47.48,-81.59 15.59,-25.99 32.69,-49.94 53.14,-68.67 20.23,-18.85 43.51,-32.56 67.28,-38.53 11.84,-3.2 23.73,-3.68 35.02,-3.13 11.34,0.88 22.02,3.45 31.84,6.95 19.65,7.17 35.36,18.52 47.19,30.08 11.9,11.68 19.75,23.89 25.09,34.32 9.93,21.4 10.16,34.97 10.99,34.77 0.1,-0.02 0.06,-0.82 -0.11,-2.41 -0.25,-1.91 -0.55,-4.24 -0.93,-7.08 -0.96,-6.18 -3.38,-15.17 -8.05,-26.17 -5.14,-10.77 -12.9,-23.41 -24.85,-35.56 -11.92,-12.03 -27.84,-23.91 -48,-31.51 -10.08,-3.73 -21.1,-6.49 -32.83,-7.52 -11.7,-0.72 -24.17,-0.27 -36.44,2.94 -24.69,5.99 -48.76,20.02 -69.55,39.19 -21.03,19.1 -38.53,43.47 -54.3,69.62 -15.89,26.15 -30.24,54.28 -47.53,81.43 -34.12,54.47 -75.06,101.57 -120.95,133.14 -45.45,32.41 -95.54,46.19 -137.39,48 -42.18,1.89 -75.77,-8.31 -96.9,-18.3 -21.28,-10.14 -31.29,-18.91 -31.72,-18.27z"/>
  <path class="fil8" d="M4584.54 1690.22c-0.18,0.32 2.69,2.41 8.1,5.96 5.36,3.63 13.59,8.15 24.11,13.02 10.48,4.94 23.51,9.64 38.34,13.67 14.86,3.76 31.56,6.7 49.26,7.82 17.71,0.91 34.62,-0.09 49.84,-2.12 15.18,-2.31 28.67,-5.48 39.66,-9.19 10.98,-3.61 19.69,-7.17 25.42,-10.17 5.78,-2.9 8.89,-4.65 8.72,-4.98 -0.42,-0.93 -13.28,5.28 -35.25,11.51 -10.95,3.2 -24.29,5.93 -39.21,7.93 -14.95,1.71 -31.52,2.54 -48.87,1.64 -17.35,-1.09 -33.71,-3.82 -48.37,-7.25 -14.6,-3.69 -27.52,-7.93 -38.04,-12.36 -21.11,-8.7 -33.18,-16.34 -33.71,-15.48z"/>
  <path class="fil14" d="M5127.61 2361.14c0,0 -83.83,24.38 -115.62,35.96l12.73 36.47c10.92,31.34 47.97,48.18 78.77,33.64 7.14,-3.38 13.74,-8.29 19.33,-14.86 9.71,-11.4 13.93,-26.2 13.3,-40.93 -0.75,-17.2 -5.37,-34.69 -8.51,-50.28z"/>
  <path class="fil4" d="M5011.98 2397.1c-1.12,-2.97 49.64,-21.48 113.98,-41.58l6.05 -1.87 1.31 6.34 0.56 2.69c3.52,16.54 7.25,32.92 7.59,48.47 1.14,15.46 -4.41,30.95 -12.19,39.82 -15.78,18.82 -32.26,19.89 -32.08,18.77 -0.96,-1.85 13.47,-6.06 25.41,-23.64 13.9,-17.25 7.56,-47.71 -0.16,-81.03l-0.58 -2.78 7.35 4.46c-63.89,19.8 -116.11,33.33 -117.24,30.35z"/>
  <path class="fil8" d="M4440.48 5411.81l1632.02 -7.6 -90.02 -1388.19 -6.77 -413.83 -95.62 -749.97 -364.73 -78.21c0,0 -91.23,167.69 -324.24,164.25 -227.82,-3.39 -220.5,-100.28 -220.5,-100.28l-387.48 145.49c0,0 -212.38,103.35 -251.35,203.56 -37.93,97.54 -111.45,658.75 -111.45,658.75l334.13 -4.14 -30.46 1061.79 -83.53 508.38z"/>
  <path class="fil4" d="M4565.54 3349.23c0.22,-0.01 0.51,2.5 0.87,7.3 0.32,5.47 0.73,12.41 1.23,20.98 0.86,18.22 1.59,44.63 1.71,77.23 0.46,65.23 -1.01,155.33 -4.07,254.76 -3.08,99.49 -7.08,189.48 -10.39,254.6 -1.84,31.93 -3.33,58.07 -4.41,77.09 -0.63,8.55 -1.14,15.49 -1.55,20.94 -0.45,4.79 -0.77,7.3 -0.98,7.29 -0.23,-0.01 -0.31,-2.54 -0.29,-7.35 0.1,-5.47 0.23,-12.43 0.38,-20.99 0.6,-19.04 1.41,-45.19 2.42,-77.18 2.2,-65.87 5.22,-155.51 8.55,-254.58 3.07,-99.41 5.25,-189.43 5.92,-254.59 0.45,-32.57 0.37,-58.95 0.27,-77.16 -0.02,-8.56 -0.04,-15.51 -0.07,-21 0.06,-4.81 0.2,-7.33 0.41,-7.34z"/>
  <path class="fil8" d="M5868.84 2862.4c0,0 164.15,17.24 252.08,132.44 80.83,105.9 236.68,439.27 232.54,447.54 -4.13,8.27 -367.01,246.1 -367.01,246.1l-89.72 -165.47 -27.89 -660.61z"/>
  <path class="fil4" d="M5948.84 3026.16c0.21,-0.02 0.54,2.16 0.95,6.31 0.4,4.87 0.89,10.87 1.5,18.16 1.22,15.8 2.54,38.67 3.93,66.96 2.79,56.55 4.93,134.76 6.21,221.09 1.27,86.39 2.71,164.53 4.35,221.08 0.82,27.6 1.47,50.26 1.95,66.98 0.13,7.34 0.25,13.36 0.33,18.23 0.01,4.19 -0.09,6.37 -0.31,6.38 -0.22,0.02 -0.54,-2.15 -0.95,-6.31 -0.4,-4.85 -0.9,-10.85 -1.5,-18.18 -1.22,-15.77 -2.54,-38.65 -3.95,-66.93 -2.77,-56.54 -4.9,-134.77 -6.19,-221.14 -1.28,-86.33 -2.7,-164.49 -4.36,-221.04 -0.8,-27.59 -1.46,-50.25 -1.95,-66.98 -0.13,-7.32 -0.23,-13.35 -0.31,-18.23 -0.01,-4.17 0.09,-6.37 0.3,-6.38z"/>
  <path class="fil15" d="M3676.57 4471c0,0 54.07,36.27 88.07,31.74 34,-4.53 145.07,-31.74 145.07,-31.74 0,0 2.26,9.85 31.73,32.12 29.46,22.27 208.52,51.76 283.33,42.69 74.79,-9.08 201.72,-56.68 201.72,-56.68l-38.1 -214.28 -336.86 53.12 -374.96 86.37 0 56.66z"/>
  <path class="fil13" d="M3789.57 4296.46c0,0 -29.46,129.22 -13.6,147.33 15.87,18.15 35.85,22.68 47.18,-2.26 11.33,-24.92 32.16,-113.56 32.16,-113.56l13.59 -31.51c0,0 -18.13,213.08 18.13,224.41 36.28,11.33 56.68,0 56.68,0 0,0 72.52,54.39 77.06,-31.74 4.53,-86.12 30.76,-192.67 30.76,-192.67l16.83 -28.02 0 48.44c0,0 -38.19,113.33 -16.83,129.2 21.37,15.86 44.04,27.19 57.63,9.06 13.61,-18.14 76.78,-150.92 90.78,-197.4 0,0 42.48,61.36 101.77,62.16 46.47,0.62 73.49,-19.35 54.52,-48.36 -18.97,-29.02 -65.74,-53.21 -65.74,-53.21l-61.19 -142.97 -149.6 -35.01 -169.99 0 -120.14 256.11z"/>
  <path class="fil16" d="M3546.91 4204.58c0,0 142.93,85.09 208.66,100.95 65.73,15.88 418.15,-46.72 414.51,-68.94 -3.64,-22.22 -49.57,-42.12 -81.31,-46.65 -31.73,-4.53 -124.67,-20.39 -124.67,-20.39l249.34 0 120.13 75.95c0,0 42.63,-17.17 28.78,-51.99 -7.36,-18.52 -101.32,-91.97 -101.32,-91.97l-228.93 -45.33 -405.73 -15.86 -79.46 164.23z"/>
  <path class="fil5" d="M3680.78 3822.74c0,0 405.73,68.01 414.79,79.34 9.06,11.33 113.33,129.2 113.33,129.2 0,0 156.3,53.76 135.99,88.39 -20.32,34.65 -65.73,13.6 -65.73,13.6 0,0 63.46,99.74 34.01,120.13 -29.47,20.41 -61.21,6.81 -83.87,-22.66 -22.67,-29.46 -88.4,-138.26 -88.4,-138.26 0,0 54.39,222.12 27.21,228.93 -27.21,6.79 -70.28,9.07 -88.41,-47.6 -18.13,-56.66 -22.66,-88.4 -22.66,-88.4l-86.14 -142.8c0,0 34.01,260.76 13.6,282.25 0,0 -52.13,16.94 -70.26,-28.4 -18.13,-45.32 -43.08,-148.93 -43.08,-148.93l-43.05 -113.99 -4.55 72.54c0,0 36.28,133.73 13.61,142.78 -22.66,9.07 -52.13,0.12 -68,-30.53 -15.87,-30.65 -33.3,-66.58 -40.79,-96.38 -4.46,-17.74 -28.53,-78.07 -28.53,-78.07l-86.13 -11.34 67.06 -209.8z"/>
  <path class="fil7" d="M4180.3 3996.63c1.42,-1 25.51,30.79 53.82,70.97 28.31,40.21 50.12,73.6 48.7,74.6 -1.41,0.99 -25.5,-30.77 -53.82,-70.99 -28.3,-40.19 -50.11,-73.58 -48.7,-74.58z"/>
  <path class="fil7" d="M4045.14 3921.59c0.63,-0.49 8.18,7.94 18.98,22.69 10.82,14.73 24.64,35.92 38.14,60.31 13.51,24.4 24.24,47.26 31.36,64.06 7.12,16.81 10.77,27.5 10.01,27.83 -0.83,0.35 -5.92,-9.71 -14.02,-25.97 -8.13,-16.26 -19.42,-38.66 -32.82,-62.89 -13.41,-24.21 -26.51,-45.57 -36.32,-60.83 -9.79,-15.29 -16.07,-24.64 -15.33,-25.2z"/>
  <path class="fil7" d="M3925.7 3933.64c0.43,-0.6 6.68,2.86 14.34,11.34 7.71,8.36 16.08,22.05 21.55,38.46 5.47,16.43 7.64,31.85 8.82,42.91 1.12,11.11 1.2,18 0.38,18.12 -0.88,0.12 -2.53,-6.59 -4.75,-17.44 -2.29,-10.82 -5.12,-25.8 -10.39,-41.59 -5.26,-15.75 -12.55,-28.98 -19.04,-37.66 -6.41,-8.78 -11.54,-13.38 -10.91,-14.14z"/>
  <path class="fil7" d="M3781.6 3945.95c0.34,-0.68 6.35,1.21 14.61,7.04 8.21,5.76 18.4,15.97 25.31,29.95 6.91,13.98 8.82,28.29 8.41,38.3 -0.38,10.11 -2.54,16.03 -3.29,15.87 -1.91,0.01 2.39,-25.05 -10.75,-51.39 -12.92,-26.43 -35.45,-38.26 -34.29,-39.77z"/>
  <path class="fil10" d="M4534.5 4537.81l1.13 -49.53c0.11,-0.01 0.18,-0.01 0.3,-0.02l-1.42 49.55c-0.01,0 -0.01,0 -0.01,0z"/>
  <path class="fil17" d="M4534.52 4537.81l1.42 -49.55c284.8,-24.26 910.59,-78.81 981.94,-95.75 41,-9.72 106.42,-35.17 182.11,-68.22l20.83 52.2 252.84 -108.29c0.94,7.93 2.52,17.31 4.6,27.76 3.66,25.4 8.34,48.68 13.74,69.29 2.03,8 4.11,15.63 6.21,22.84l-332.66 68.81c0,0 -1102.09,80.7 -1131.04,80.91l0.01 0z"/>
  <path class="fil15" d="M4388.39 4274.86l1020.27 -234.5c0,0 928.84,-541.42 943.1,-550.17 15.83,-9.71 -71.83,550.17 -71.83,550.17 0,0 -591.72,311.73 -762.06,352.16 -92.74,22.02 -1122.01,107.56 -1122.01,107.56l-7.47 -225.22z"/>
  <path class="fil4" d="M6900.24 2048.36c62.86,-67.83 216.31,-56.05 252.29,-10.66 53.58,-27.19 127.27,-1.89 152.86,52.48 54.34,12.43 108.66,24.87 163,37.32 27.8,6.36 56.9,13.37 78.13,32.41 21.23,19.03 30.91,54.2 13.03,76.42 57.39,15.52 79.13,101.42 36.01,142.38 23.27,24.92 18.15,70.34 -10.06,89.48 44.56,54.51 79.73,116.68 103.47,182.95 9.93,27.73 17.83,58.63 7.32,86.15 -10.52,27.52 -47.03,46.21 -70.77,28.74 16.1,22.5 17.2,54.73 2.66,78.27 27.63,0.94 35.44,43.75 16.26,63.65 -19.18,19.9 -50.06,21.71 -77.68,20.8 -27.62,-0.92 -57.56,-2.63 -80.4,12.92 0.91,8.26 4.13,13.72 8.84,17.62 47.09,39.05 59.91,105.66 23.83,155.06 -3.34,4.57 -6.45,8.81 -9.19,12.61 -16.24,22.55 -56.05,42.98 -80.83,55.6 -62.81,31.97 -99.96,25.45 -169.83,34.84 18.6,45.18 -95.66,143.73 -224.37,44.53 -259.39,66.97 -446.14,91.56 -714.01,89.66 -38.24,-0.28 -84.12,-5.91 -100.74,-40.33 -31.07,7.91 -64.39,-6.8 -87.06,-29.47 -22.68,-22.67 -36.79,-52.28 -50.48,-81.28 -66,-18.4 -116.35,-82.73 -118.37,-151.22 -44.51,-35.44 -72.94,-90.33 -76.21,-147.13 -64.16,-20.24 -98.81,-104.08 -67.66,-163.71 14.62,-78.73 42.33,-155.02 81.69,-224.75 -43.72,-9.9 -59.63,-69.14 -41.22,-110.03 18.42,-40.88 58.55,-66.89 96.6,-90.59 -32.83,8.4 -60.99,-33.02 -52.86,-65.94 8.11,-32.92 38.01,-55.38 67.24,-72.55 42.85,-25.15 88.76,-45.08 136.38,-59.24 16.14,-57.53 90.5,-122.47 144.76,-147.51 218.83,-100.94 371.74,-125.54 647.37,80.52z"/>
  <path class="fil15" d="M6289.6 2457.61c18.81,-149.81 129.93,-328.14 278.79,-302.98l460.58 147.36c45.23,7.64 77.09,48.62 73.34,94.33l-78.1 1001.6c-10.18,130.52 -110.8,235.84 -240.71,251.99 -166.42,20.68 -312.55,-110.92 -309.41,-278.61 1.27,-68.89 2.09,-120.65 2.05,-120.34 0,0 -190.15,-43.83 -214.39,-297 -12.03,-125.88 6.93,-329.92 27.85,-496.35z"/>
  <path class="fil4" d="M6373.69 2661.15c-1.66,16.94 11.32,32.31 28.98,34.36 17.63,2.05 33.3,-9.98 34.94,-26.93 1.66,-16.94 -11.31,-32.32 -28.94,-34.37 -17.67,-2.06 -33.33,10 -34.98,26.94z"/>
  <path class="fil4" d="M6327.33 2566.7c3.71,4.45 29.19,-12.07 63.79,-9.82 34.58,1.74 58.86,21.11 62.88,17.1 1.97,-1.75 -1.64,-9.58 -12.18,-18.32 -10.38,-8.68 -28.47,-17.63 -50.02,-18.88 -21.57,-1.22 -40.18,5.58 -51.11,13.06 -11.14,7.5 -15.22,14.86 -13.36,16.86z"/>
  <path class="fil4" d="M6690.91 2674.42c-1.67,16.96 11.32,32.32 28.98,34.38 17.63,2.04 33.29,-9.99 34.94,-26.93 1.66,-16.94 -11.33,-32.32 -28.95,-34.38 -17.66,-2.05 -33.32,9.99 -34.97,26.93z"/>
  <path class="fil4" d="M6667 2594.28c3.72,4.44 29.24,-12.07 63.8,-9.82 34.58,1.73 58.88,21.11 62.89,17.11 1.95,-1.77 -1.59,-9.57 -12.2,-18.32 -10.37,-8.7 -28.44,-17.63 -50,-18.9 -21.56,-1.21 -40.18,5.6 -51.11,13.06 -11.11,7.51 -15.22,14.87 -13.38,16.87z"/>
  <path class="fil4" d="M6525.49 2843.06c0.27,-1.95 -20.99,-7.01 -55.56,-13.64 -8.79,-1.45 -17.03,-3.73 -18.14,-9.84 -1.69,-6.52 2.59,-15.81 7.52,-25.83 9.63,-20.86 19.72,-42.73 30.3,-65.64 42.23,-93.53 73.39,-170.65 69.61,-172.32 -3.78,-1.66 -41.08,72.79 -83.31,166.3 -10.2,23.09 -19.95,45.08 -29.23,66.12 -3.97,9.83 -10.44,20.87 -6.74,34.4 1.98,6.74 8.16,11.94 13.72,13.81 5.56,2.09 10.52,2.49 14.89,3.02 34.94,4.07 56.7,5.58 56.94,3.62z"/>
  <path class="fil18" d="M6476.14 3250.97c0,0 167.98,21.37 341.32,-68.67 0,0 -92.16,167.14 -341.62,128.09l0.3 -59.42z"/>
  <path class="fil4" d="M6660.56 2450.91c2.83,9.61 37.65,7.3 77.93,14.72 40.44,6.6 72.44,20.52 78.34,12.41 2.66,-3.87 -2.5,-13.08 -15.16,-23.01 -12.56,-9.91 -32.95,-19.85 -57.15,-24.07 -24.2,-4.19 -46.76,-1.71 -61.92,3.39 -15.26,5.08 -23.23,12.01 -22.04,16.56z"/>
  <path class="fil4" d="M6346.9 2448.39c5.6,8.23 29.95,1.55 58.62,2.96 28.73,0.39 52.59,8.57 58.7,0.7 2.71,-3.85 -0.64,-11.95 -10.77,-20.06 -10,-8.05 -27.09,-15.19 -46.84,-15.83 -19.72,-0.59 -37.23,5.46 -47.69,12.9 -10.64,7.44 -14.46,15.33 -12.02,19.33z"/>
  <path class="fil4" d="M6174.72 2576.21c3.07,-39.28 16.09,-79.05 43.52,-107.33 15.02,-15.51 33.93,-27.16 47.3,-44.11 28.87,-36.61 25.77,-88.18 38.55,-133.03 16.47,-57.79 62.68,-106.26 119.62,-125.47 47.4,-15.99 100.69,-12.8 145.26,-35.47 32.96,-16.77 58.34,-46.39 92.22,-61.17 65.98,-28.8 141.36,6.12 202.56,44.04 11.4,49.32 -20.41,91.28 -51.07,131.57 -30.64,40.29 -79.73,65.93 -130.32,68.1 -39.24,1.68 -84.87,-7.98 -112.92,19.51 -29.5,28.9 -19.15,80.94 -43.58,114.27 -34.89,47.61 -112.07,27.91 -163.54,56.84 -39.74,22.33 -57.11,69.12 -77.63,109.82 -20.52,40.71 -55.52,82.94 -101.03,79.98 -6,-38.93 -12,-78.29 -8.94,-117.55z"/>
  <path class="fil4" d="M6764.36 2201.37c114.57,0.26 229.05,22.98 335.02,66.49 31.6,12.98 64.22,29.34 81.84,58.58 15.5,25.72 16.87,57.35 15.99,87.35 -2.74,93.99 -42.61,208.38 -79.96,294.66l-118.62 68.21c-90.03,-22.97 -45.78,-178.32 -40.05,-256.47 -62.6,-28.79 -105.45,-96.08 -105.05,-164.99 -51.08,-34.05 -85.01,-92.59 -89.17,-153.83z"/>
  <path class="fil15" d="M7000.83 2742.94c4.5,-53.69 70.7,-62.98 116.41,-34.47 25.09,15.65 43.66,46.06 39.39,103.09 -11.4,152.04 -161.69,109.24 -161.64,104.85 0.05,-2.72 0.59,-110.61 5.84,-173.47z"/>
  <path class="fil18" d="M7045.76 2862.28c0.71,-0.43 2.51,2.06 6.84,4.46 4.21,2.32 11.63,4.26 19.77,1.89 16.5,-4.7 31.94,-29.18 34.73,-56.53 1.42,-13.82 -0.48,-27.21 -4.57,-38.49 -3.8,-11.47 -10.41,-19.78 -18.39,-21.82 -7.91,-2.47 -14,1.95 -16.19,6.08 -2.34,4.12 -1.62,7.21 -2.44,7.42 -0.46,0.34 -3.08,-2.79 -1.37,-8.98 0.84,-2.97 2.9,-6.43 6.69,-9.09 3.88,-2.69 9.35,-3.8 14.94,-2.77 11.65,1.69 21.42,13.27 25.9,25.64 5.13,12.49 7.61,27.57 6.01,43.08 -3.28,30.56 -21.11,58.07 -43.56,62.76 -10.9,1.99 -19.58,-1.9 -23.91,-5.83 -4.45,-4.12 -4.98,-7.57 -4.45,-7.82z"/>
  <path class="fil8" d="M7118.79 2959.05c7.61,0.4 15.81,0.05 24.45,-1.16 8.64,-1.23 17.82,-3.26 26.79,-7.59l-1.82 -0.93c2.93,20.77 16.21,43.39 39.34,55.95 22.79,12.58 55.43,12.26 80.38,-5.76l-2.59 -0.5c4.33,6.9 11.63,11.92 19.73,13.67 8.05,2 16.71,1.2 24.69,-1.63 7.99,-2.81 15.35,-8.32 20.11,-15.73 4.81,-7.36 7.48,-16.05 8.18,-24.94 1.37,-17.82 -4.8,-36.18 -15.69,-51.06 -10.74,-15.11 -25.06,-27.52 -39.44,-39.77l-0.32 3.51c12.96,-7.29 21.62,-21.02 24.77,-35.64 3.27,-14.69 2.09,-30.5 -3.54,-44.98 -5.71,-14.41 -15.13,-27.18 -25.96,-38.44 -10.86,-11.3 -23.15,-21.24 -35.48,-31.11l0.17 3.43c11.5,-11.05 16.59,-27.84 15.78,-43.9 -0.72,-16.17 -6.45,-32.3 -16.41,-45.52 -19.13,-25.28 -47.32,-39.63 -73.3,-53.12l1.16 2.63c8.8,-33.18 -0.52,-69.3 -22.32,-93.53 -21.91,-24.3 -54.75,-36.18 -85.25,-33.16l2.3 2.65c6.48,-27.2 -3.15,-54.95 -19.27,-74.43 -16.11,-19.75 -39.87,-32.41 -63.75,-32.73l1.86 1.96c0.47,-27.89 -14.65,-52.1 -33.36,-66.98 -18.86,-15.18 -42.43,-21.76 -63.31,-18.7l1.72 1.52c-0.22,-14.82 -5.46,-28 -11.67,-39.27 -6.35,-11.25 -14.06,-20.88 -22.61,-28.32 -16.68,-15.55 -36.14,-22.09 -51.65,-23.37 -1.96,-0.17 -3.86,-0.34 -5.7,-0.5 -1.86,0 -3.66,0.22 -5.39,0.32 -3.45,0.34 -6.72,0.23 -9.64,0.93 -5.81,1.53 -10.9,2.12 -14.62,3.85 -3.62,1.47 -6.44,2.62 -8.55,3.49 -1.91,0.79 -2.86,1.23 -2.85,1.3 0.04,0.06 1.05,-0.25 3.01,-0.92 2.13,-0.75 5,-1.78 8.64,-3.08 3.74,-1.58 8.82,-2.03 14.55,-3.41 2.89,-0.64 6.13,-0.45 9.52,-0.73 1.71,-0.06 3.47,-0.25 5.29,-0.22 1.81,0.18 3.67,0.37 5.58,0.57 15.18,1.53 34.06,8.13 50.22,23.51 8.29,7.35 15.74,16.85 21.85,27.9 5.99,11.01 10.93,23.96 11.01,37.89l0.03 1.75 1.68 -0.23c20.03,-2.79 42.63,3.64 60.74,18.39 17.99,14.45 32.3,37.83 31.73,64.19l-0.05 1.93 1.91 0.03c22.62,0.39 45.26,12.51 60.65,31.51 15.42,18.75 24.43,45.3 18.25,70.83l-0.71 2.95 3.02 -0.3c29.1,-2.84 60.65,8.66 81.46,31.87 20.77,23.08 29.68,57.78 21.25,89.35l-0.48 1.8 1.65 0.85c25.98,13.46 53.5,27.65 71.7,51.81 9.39,12.47 14.82,27.75 15.49,42.92 0.75,15.11 -3.98,30.43 -14.38,40.43l-1.88 1.82 2.06 1.61c24.47,19.47 49.07,39.96 60.14,67.62 5.31,13.57 6.47,28.6 3.42,42.37 -2.96,13.73 -10.9,26.24 -22.62,32.86l-2.7 1.51 2.37 2.01c14.4,12.21 28.45,24.37 38.83,38.9 10.54,14.31 16.32,31.59 15.11,48.35 -0.97,16.58 -10.45,32.51 -25.63,37.42 -14.39,5.45 -32.41,2.17 -40.06,-10.36l-1 -1.66 -1.58 1.16c-23.59,17.28 -54.97,17.82 -76.8,5.91 -22.25,-11.86 -35.29,-33.61 -38.28,-53.61l-0.26 -1.7 -1.55 0.75c-8.55,4.25 -17.54,6.35 -25.99,7.62 -8.49,1.29 -16.57,1.74 -24.05,1.44 -14.99,-0.47 -27.71,-3.27 -37.02,-7.76 -9.27,-4.46 -15.17,-10.33 -17.33,-15.23 -2.32,-4.75 -2.69,-7.64 -2.96,-7.55 -0.06,0.01 0.08,0.69 0.41,2.03 0.49,1.26 0.45,3.51 1.94,5.82 2,5.13 7.95,11.4 17.38,16.12l37.5 8.52z"/>
  <path class="fil8" d="M7644.22 2773.59c0,0 2.51,-2.8 5.89,-9.08 3.28,-6.3 7.44,-16.29 8.59,-30.01 1.14,-13.49 -0.89,-31.22 -11.64,-47.96 -10.46,-16.48 -29.52,-31.91 -54.54,-36.03l1.25 1.84c5.3,-23.22 1.96,-51.03 -12.47,-75.36 -7.04,-12.19 -16.88,-23.43 -29.24,-32.16 -12.34,-9.01 -27.28,-13.77 -41.28,-20.34 -7.02,-3.26 -13.87,-7.08 -19.73,-12.19 -5.9,-5.06 -10.41,-11.57 -13.58,-18.97 -6.51,-14.69 -8.39,-31.98 -16.66,-47.84 -16.51,-31.2 -53.83,-52.68 -91.92,-47.57l2.57 2.62c5.58,-34.67 -4.94,-73.34 -30.14,-101.19 -26.25,-28.97 -65.86,-43.16 -102.55,-39.36l2.49 2.56c5.29,-44.53 -19.05,-88.13 -55.02,-107.33 -36.21,-19.36 -79.76,-15.29 -109.78,4.37l2.44 0.27c-15.39,-15.86 -34.21,-26.19 -52.62,-33.36 -18.52,-7.02 -36.88,-11.65 -54.4,-13.49 -34.98,-4.62 -65.91,-1.01 -90.35,4.54 -24.48,5.88 -42.68,14.13 -54,21.34 -5.93,3.19 -9.68,6.87 -12.53,8.78 -2.75,2.1 -4.07,3.29 -4.07,3.29 0.25,0.34 5.77,-4.25 17.2,-11.06 11.41,-6.84 29.59,-14.68 53.89,-20.17 24.28,-5.18 54.94,-8.44 89.46,-3.61 17.29,1.95 35.36,6.66 53.51,13.66 18.02,7.15 36.33,17.37 51.13,32.76l1.11 1.16 1.34 -0.87c28.89,-18.75 71.01,-22.49 105.61,-3.82 34.37,18.38 57.7,60.5 52.54,102.96l-0.33 2.85 2.83 -0.29c35.24,-3.63 73.5,10.11 98.66,37.92 24.23,26.72 34.42,64.08 29.08,97.37l-0.49 3.04 3.07 -0.42c35.89,-4.93 71.76,15.54 87.41,45.08 7.86,14.84 9.81,32.01 16.66,47.52 3.36,7.76 8.36,14.96 14.72,20.39 6.34,5.46 13.56,9.39 20.75,12.72 14.37,6.64 29.01,11.26 40.78,19.8 11.91,8.34 21.48,19.11 28.37,30.87 14.08,23.45 17.51,50.37 12.56,72.84l-0.34 1.6 1.6 0.26c24.02,3.74 42.68,18.46 53,34.32 10.6,16.07 12.87,33.29 11.99,46.55 -0.86,13.46 -4.69,23.39 -7.69,29.73 -3.1,6.34 -5.33,9.35 -5.13,9.47z"/>
  <path class="fil8" d="M6187.72 2790.22c-0.23,0.18 3.28,-4.09 0.81,-12.47 -1.25,-4.05 -4.1,-8.63 -8.69,-12.76 -4.54,-4.28 -11.22,-7.25 -18.65,-9.78 -7.37,-2.66 -15.99,-4.87 -23.59,-10.33 -7.57,-5.44 -13.51,-14.25 -16.71,-24.72 -3.39,-10.47 -4.16,-22.38 -3.25,-34.9 0.76,-12.56 2.95,-25.83 3.2,-40.06 0.77,-28.87 -10.96,-58.39 -17.85,-90.32 -3.32,-15.97 -4.53,-33.13 -1.19,-50.09 3.29,-16.77 12.42,-33.45 28.31,-42.33 15.66,-9.26 34.83,-11.78 53.67,-17.18 9.43,-2.75 19.01,-6.31 27.49,-12.24 8.63,-5.8 15.04,-14.54 19.66,-23.74 9.3,-18.74 11.9,-39.65 17.04,-59.64 2.48,-10.03 5.71,-19.99 11.03,-28.7 5.22,-8.8 13.32,-15.48 22.78,-19.29 13.19,-4.71 27.81,-3.76 42.2,-5.03 7.23,-0.63 14.6,-1.93 21.43,-4.99 6.83,-3.03 12.84,-7.95 17.07,-13.93 8.68,-11.99 11.97,-25.96 16.59,-38.62 4.24,-12.85 10.89,-24.38 19.7,-34.02 17.43,-19.37 42.44,-30.54 66.83,-30.57 24.41,-0.18 47.77,9.22 64.21,24.49l1.98 1.85 1.18 -2.46c19.51,-41.08 56.61,-67 91.72,-76.5 17.72,-4.8 35.18,-5.46 50.93,-3.55 15.79,1.86 29.94,6.31 41.63,12.35 23.62,12.21 36.74,29.54 43.77,41.64 3.7,6.06 5.87,11.06 7.31,14.44 0.71,1.54 1.27,2.76 1.74,3.79l0.69 1.25 -0.4 -1.36c-0.38,-1.06 -0.86,-2.32 -1.45,-3.92 -1.27,-3.48 -3.25,-8.58 -6.83,-14.81 -6.77,-12.4 -19.79,-30.3 -43.76,-43.09 -11.86,-6.32 -26.25,-11.03 -42.34,-13.07 -16.06,-2.11 -33.93,-1.6 -52.13,3.18 -36.02,9.48 -74.17,35.73 -94.49,77.95l3.16 -0.6c-17.14,-16.06 -41.42,-25.95 -66.95,-25.84 -25.59,-0.05 -51.82,11.61 -70.11,31.82 -9.21,9.99 -16.33,22.38 -20.66,35.51 -4.67,12.9 -8.05,26.53 -16.01,37.41 -7.7,11.27 -21.28,16.14 -35.22,17.04 -13.93,1.29 -28.88,0.18 -43.39,5.3 -10.47,4.15 -19.51,11.7 -25.11,21.21 -5.75,9.4 -9.03,19.78 -11.57,29.97 -5.17,20.34 -7.8,41.03 -16.63,58.76 -4.39,8.73 -10.23,16.75 -18.19,22.11 -7.84,5.5 -16.93,8.96 -26.12,11.64 -18.39,5.36 -37.94,7.9 -54.61,17.76 -8.24,4.9 -15.45,11.61 -20.29,19.65 -4.96,7.97 -8.08,16.75 -9.86,25.57 -3.4,17.71 -2.04,35.37 1.44,51.66 7.2,32.44 18.9,61.45 18.31,89.5 -0.11,13.91 -2.19,27.18 -2.85,39.91 -0.81,12.71 0.09,25.07 3.72,35.88 3.44,10.84 9.8,20.08 17.9,25.72 8.15,5.67 16.93,7.73 24.29,10.24 7.45,2.42 13.88,5.11 18.33,9.12 4.51,3.87 7.37,8.2 8.69,12.02 2.67,7.87 -0.41,12.18 0.09,12.17z"/>
  <path class="fil8" d="M5896.27 2549.45c0.07,0.03 0.62,-0.92 1.61,-2.82 1.1,-2.12 2.53,-4.91 4.33,-8.46 3.86,-7.73 9.31,-18.72 16.27,-32.74 7.13,-14.18 15.15,-31.91 26.54,-51.27 11.35,-19.03 26.89,-40.72 51.89,-53.78 12.43,-6.46 26.73,-10.62 41.13,-16.75 7.17,-3.07 14.41,-6.73 21,-11.8 6.61,-4.98 12.21,-11.77 15.86,-19.6 7.49,-15.67 8.01,-33.58 14.04,-49.82 3.07,-8.03 7.8,-15.56 15.01,-20.55 7.04,-5.21 15.78,-8.16 24.66,-10.92 8.88,-2.77 18.27,-5.2 27.09,-9.85 8.96,-4.38 16.44,-12.2 21.17,-21.18 9.45,-18.34 9.92,-39.19 14.02,-58.83 2.03,-9.81 4.87,-19.67 10.57,-27.74 5.57,-8.24 14.59,-13.56 24.44,-15.5 20.09,-3.81 41.47,3.52 63.83,0.39 11.15,-1.67 21.73,-7.2 29.55,-15.01 7.88,-7.79 13.79,-16.93 19.39,-25.89 5.6,-8.97 10.87,-17.95 17.16,-25.96 6.2,-8.02 13.71,-14.94 22.71,-18.78 18.26,-8.03 38.77,-3.17 57.49,1.47 18.83,4.7 38.5,9.76 57.73,6 19.06,-3.51 35.47,-12.99 50.68,-22.05 15.27,-9.05 29.73,-18.75 45.21,-24.12 31.3,-10.58 63.39,-8.53 90.38,-1.36 27.23,7.3 49.46,21.03 66.32,35.6 16.97,14.73 27.83,30.99 36.18,44.33 7.5,13.88 12.72,25.05 15.24,33 1.43,3.72 2.54,6.65 3.39,8.88 0.79,1.98 1.23,2.99 1.3,2.98 0.09,-0.02 -0.2,-1.08 -0.85,-3.13 -0.73,-2.26 -1.71,-5.25 -2.95,-9.05 -2.27,-8.09 -7.24,-19.43 -14.56,-33.58 -8.19,-13.61 -18.96,-30.21 -36.03,-45.38 -16.96,-14.97 -39.46,-29.16 -67.16,-36.81 -27.48,-7.5 -60.14,-9.85 -92.53,0.9 -16.21,5.57 -30.74,15.28 -46.04,24.24 -15.16,8.98 -31.23,18.11 -49.34,21.35 -18.11,3.51 -36.96,-1.29 -55.92,-6.09 -9.53,-2.34 -19.3,-4.81 -29.54,-5.68 -10.17,-0.89 -21.02,0.04 -30.83,4.35 -9.89,4.21 -18.01,11.75 -24.46,20.1 -6.57,8.34 -11.92,17.45 -17.48,26.36 -5.57,8.87 -11.34,17.73 -18.72,25 -7.35,7.29 -16.74,12.17 -27.03,13.75 -20.81,3.09 -42.2,-4.31 -64.03,-0.33 -10.82,2.09 -21.1,8.2 -27.25,17.35 -6.31,8.99 -9.22,19.45 -11.3,29.51 -4.09,20.13 -4.69,40.66 -13.48,57.66 -4.41,8.34 -10.95,15.26 -19.3,19.41 -8.19,4.36 -17.35,6.79 -26.32,9.62 -8.94,2.81 -18.12,5.9 -25.85,11.62 -7.93,5.52 -13.17,13.99 -16.36,22.49 -6.23,17.18 -6.67,34.9 -13.7,49.6 -6.62,15.02 -20.9,23.85 -34.81,29.77 -14.07,6.1 -28.46,10.39 -41.23,17.14 -25.76,13.73 -41.36,36.05 -52.62,55.36 -11.26,19.66 -19.04,37.5 -25.91,51.8 -6.64,14.18 -11.82,25.29 -15.48,33.11 -1.64,3.63 -2.93,6.5 -3.92,8.67 -0.86,1.96 -1.27,2.98 -1.19,3.02z"/>
  <path class="fil8" d="M6060.98 2392.9c0.01,-0.07 -0.91,-0.25 -2.78,-0.52 -1.84,0.01 -4.78,-0.02 -8.13,1.67 -6.67,3.11 -14.28,12.66 -15.62,26.7 -0.55,7.08 1.07,14.68 2.87,22.82 1.78,8.1 4.1,16.95 3.5,26.42 -0.63,9.48 -5.15,18.91 -11.21,27.93 -6.06,9.08 -13.74,17.95 -19.99,28.78 -6.44,10.49 -9.72,25.12 -4.45,38.24 4.63,13.05 13.86,24.05 18.25,37.31 4.54,13.26 1.49,28.22 -4.87,41.82 -6.17,13.81 -14.85,27.16 -20.93,42.52 -3.08,7.63 -5.21,15.98 -5.33,24.62 -0.11,8.65 1.9,17.31 5.35,25.3 7.07,16.02 18.49,29.45 28.21,43.9 9.74,14.22 17.82,30.88 15.25,48.47 -2.26,17.56 -12.4,33.48 -19.28,51.05 -3.45,8.83 -6.05,18.23 -6.13,27.88 -0.01,9.66 2.57,19.1 6.66,27.5 8.34,16.87 21,30.11 32.1,43.62 11.21,13.46 21.22,27.43 25.88,43.55 5.17,15.88 7.7,32.6 14.99,47.65 3.6,7.49 8.62,14.41 15.12,19.52 6.48,5.22 14.09,8.2 21.35,10.75 7.29,2.54 14.48,4.7 20.97,7.89 6.42,3.32 12.29,7.41 17.39,12.27 10.13,9.83 17.59,21.57 24.39,33 6.8,11.45 13.09,22.72 20.21,32.83 14.11,20.5 33.74,33.78 52.36,39.92 18.65,6.39 35.99,7.27 49.65,5.6 13.72,-1.65 23.95,-5.27 30.49,-8.36 6.51,-3.13 9.65,-5.31 9.65,-5.31 -0.27,-0.95 -13.07,8.99 -40.34,11.88 -13.45,1.37 -30.45,0.24 -48.58,-6.24 -18.17,-6.29 -36.94,-19.25 -50.54,-39.38 -6.91,-9.98 -13.06,-21.19 -19.82,-32.76 -6.77,-11.53 -14.27,-23.59 -24.8,-33.96 -5.32,-5.1 -11.51,-9.5 -18.29,-13.05 -6.89,-3.42 -14.22,-5.63 -21.39,-8.16 -7.14,-2.55 -14.26,-5.43 -20.12,-10.19 -5.9,-4.69 -10.46,-11.04 -13.87,-18.11 -6.86,-14.24 -9.37,-30.82 -14.62,-47.16 -4.76,-16.73 -15.34,-31.59 -26.58,-45.08 -11.18,-13.62 -23.61,-26.76 -31.44,-42.71 -3.86,-7.94 -6.21,-16.62 -6.21,-25.49 0.09,-8.85 2.49,-17.65 5.84,-26.2 6.6,-17.07 17.03,-33.18 19.53,-52.14 1.31,-9.38 -0.11,-19.02 -3.27,-27.69 -3.15,-8.71 -7.84,-16.55 -12.79,-23.93 -9.94,-14.68 -21.21,-27.95 -27.9,-43.11 -3.29,-7.56 -5.14,-15.54 -5.05,-23.48 0.07,-7.95 1.99,-15.79 4.94,-23.15 5.77,-14.82 14.39,-28.18 20.68,-42.41 6.48,-13.93 9.84,-30.27 4.79,-44.68 -4.86,-14.17 -14.17,-25.06 -18.54,-37.3 -4.89,-12.17 -2.13,-25.16 3.95,-35.44 5.91,-10.47 13.49,-19.43 19.6,-28.75 6.08,-9.26 10.78,-19.26 11.31,-29.38 0.5,-10.08 -2.03,-19.04 -3.91,-27.1 -1.92,-8.05 -3.63,-15.54 -3.21,-22.19 0.99,-13.45 8.06,-22.82 14.22,-26.02 6.44,-3.19 10.55,-1.51 10.49,-1.96z"/>
  <path class="fil4" d="M7640.49 2768.56c0,0 4.2,0.33 12.08,-0.97 7.82,-1.39 19.54,-4.57 32.32,-13.19 12.58,-8.44 26.61,-22.89 32.89,-44.28 6.31,-20.91 4.91,-48.61 -11.13,-72.09 -7.99,-11.61 -18.94,-21.45 -29.85,-31.83 -10.79,-10.35 -22.27,-21.69 -27.83,-36.7 -5.88,-15.01 -3.03,-32.33 3.23,-48.32 6.13,-16.22 15.33,-31.97 21.25,-49.95 11.6,-35.77 9.81,-78.56 -9.52,-115.56 -19.15,-36.84 -55.71,-66.6 -99.45,-76.59l1.31 3.58c7.16,-9.59 11.87,-21.06 13.81,-33.03 1.79,-11.97 1.23,-24.35 -1.6,-36.26 -2.94,-11.86 -7.7,-23.44 -14.67,-33.73 -6.97,-10.29 -15.58,-19.44 -25.33,-27.25 -29.38,-23.41 -65.07,-34.97 -99.41,-42.32 -34.64,-7.21 -69.34,-9.05 -102.29,-6.3l2.42 2.19c-0.55,-40.96 -25.41,-78.5 -59.46,-94.74 -16.82,-8.41 -35.42,-11.97 -53.27,-11.28 -18.12,0.43 -34.59,7.26 -50.19,12.27 -7.86,2.46 -15.74,4.5 -23.58,4.98 -7.82,0.63 -15.58,-0.6 -22.87,-2.83 -14.67,-4.56 -27.44,-12.87 -39.93,-20.35 -12.41,-7.62 -25.07,-14.44 -38.15,-18.31 -13.01,-3.98 -26.02,-5.82 -38.38,-5.85 -24.77,-0.17 -46.72,6.57 -63.53,16.07 -16.94,9.48 -29.13,21.12 -37.63,31.46 -8.53,10.42 -13.48,19.62 -16.48,25.9 -3.01,6.33 -3.98,9.85 -3.98,9.85 0.19,0.09 1.46,-3.33 4.67,-9.5 3.21,-6.14 8.33,-15.13 16.94,-25.28 8.6,-10.09 20.78,-21.39 37.54,-30.52 16.63,-9.13 38.18,-15.54 62.45,-15.17 12.1,0.12 24.81,2.02 37.48,6 12.75,3.87 24.96,10.54 37.33,18.23 12.41,7.51 25.28,16.05 40.61,20.92 7.62,2.37 15.86,3.71 24.16,3.08 8.32,-0.47 16.49,-2.58 24.49,-5.04 15.97,-5.07 31.83,-11.54 49.2,-11.91 17.2,-0.6 35.11,2.89 51.27,11.03 32.59,15.63 56.41,51.83 56.85,91.05l0.03 2.38 2.38 -0.19c32.53,-2.67 66.79,-0.81 100.97,6.35 33.94,7.27 69.04,18.76 97.45,41.44 9.42,7.53 17.73,16.4 24.39,26.2 6.66,9.81 11.23,20.91 14.03,32.24 2.73,11.37 3.24,23.16 1.55,34.47 -1.81,11.31 -6.24,22.03 -12.89,31l-2.09 2.82 3.41 0.78c42.33,9.61 77.98,38.49 96.6,74.16 18.84,35.84 20.73,77.53 9.57,112.32 -5.65,17.46 -14.76,33.25 -20.98,49.84 -6.34,16.33 -9.39,34.86 -3.02,50.88 6.06,15.99 18.01,27.51 28.89,37.85 11.03,10.36 21.87,19.99 29.68,31.15 15.6,22.47 17.25,49.38 11.31,69.76 -5.87,20.82 -19.35,35.11 -31.56,43.59 -12.39,8.67 -23.88,12.07 -31.56,13.71 -7.76,1.55 -11.95,1.54 -11.93,1.79z"/>
  <path class="fil4" d="M6009.22 2287.32c0.07,0 0.24,-0.97 0.49,-2.91 0.24,-2.16 0.55,-4.98 0.96,-8.54 0.87,-7.8 2.1,-18.79 3.64,-32.81 1.74,-14.21 4.06,-31.61 8.28,-51.48 4.24,-19.81 10.39,-42.29 21.3,-65.32 10.91,-22.92 26.87,-46.55 49.71,-65.83 11.45,-9.49 24.74,-17.61 39.47,-23.36 14.82,-5.65 31.04,-8.7 47.57,-12.79 16.53,-3.88 33.57,-9.97 48.42,-20.44 14.8,-10.39 27.51,-23.82 39.48,-37.89 12.07,-14.03 23.58,-28.87 36.91,-42.23 13.21,-13.44 28.7,-24.91 46.32,-32.91 35.2,-16.4 73.86,-20.57 110.39,-21.43 36.77,-0.48 72.3,1.63 105.78,6.2 67.1,8.79 125.64,28.24 171.26,51.13 45.76,22.98 77.89,49.92 98.14,69.97 4.98,5.13 9.57,9.53 13.28,13.62 3.51,4.13 6.5,7.68 9.01,10.62 2.34,2.71 4.2,4.85 5.62,6.5 1.28,1.44 1.98,2.16 2.04,2.11 0.07,-0.04 -0.49,-0.85 -1.66,-2.4 -1.33,-1.72 -3.09,-3.97 -5.28,-6.78 -2.41,-3.05 -5.32,-6.7 -8.7,-10.97 -3.61,-4.2 -8.12,-8.71 -13.02,-13.97 -19.96,-20.53 -52.02,-48.09 -97.94,-71.62 -45.76,-23.44 -104.66,-43.36 -172.16,-52.44 -33.7,-4.72 -69.41,-6.93 -106.45,-6.52 -36.85,0.83 -76.11,4.95 -112.28,21.77 -18.06,8.2 -34.17,20.14 -47.62,33.87 -13.59,13.65 -25.12,28.58 -37.09,42.53 -11.86,14 -24.3,27.15 -38.57,37.22 -14.28,10.11 -30.5,15.99 -46.91,19.91 -16.33,4.11 -32.74,7.25 -48,13.13 -15.17,6 -28.79,14.43 -40.48,24.24 -23.27,19.86 -39.31,44.03 -50.21,67.36 -10.88,23.47 -16.83,46.2 -20.87,66.2 -4,20.05 -6.07,37.53 -7.54,51.8 -1.43,14.29 -2.26,25.4 -2.76,32.94 -0.22,3.56 -0.39,6.4 -0.52,8.57 -0.08,1.94 -0.09,2.94 -0.01,2.95z"/>
  <path class="fil18" d="M6674.39 2923.13c-1.22,-20.48 -14.14,-40.19 -33,-48.27 -18.86,-8.08 -42.83,-3.35 -56.27,12.15 -12.79,14.76 -14.1,38.32 -2.82,54.08 5.03,8.36 12.74,15.1 21.66,19.15 11.45,5.19 24.54,6.2 36.89,3.92 10.15,-1.86 20.34,-6.25 26.61,-14.46 5.65,-7.43 7.49,-17.24 6.93,-26.57z"/>
  <path class="fil4" d="M6655.09 2849.08c-5.72,0.12 -2.63,38.21 -32.99,67.94 -30.28,29.82 -71.23,28.89 -71.09,34.26 -0.32,2.42 9.66,6.63 26.84,5.68 16.84,-0.81 40.93,-8.24 59.51,-26.42 18.52,-18.23 25.22,-41.06 25.22,-56.79 0.14,-16.03 -4.89,-25.11 -7.49,-24.67z"/>
  <path class="fil6" d="M7320.2 3481l-295.49 -112.06c0,0 -227.76,135.37 -403.32,107.32 -136.06,-21.75 -147.24,-91.7 -147.24,-91.7l-163.7 26.38c0,0 -247.96,206.1 -299.74,415.59 -30.59,123.72 -38.02,285.7 -38.02,427.86 0,56.88 72.46,281.78 72.46,281.78l28.11 325.53 -136.98 542.5 1429.1 0 0 -1501.06 -45.18 -422.14z"/>
  <polygon class="fil6" points="5720.81,4376.49 5513.33,3856.85 6108.82,3442 6310.46,3410.95 6258.01,4146.43 "/>
  <path class="fil4" d="M6031.75 4475.18c-0.18,0.09 -1.48,-2.4 -3.75,-7.2 -2.18,-4.86 -5.79,-11.85 -9.44,-21.28 -7.85,-18.64 -17.65,-46.35 -26.57,-81.45 -18.35,-70.05 -28.42,-170.98 -18.29,-281.09 10.08,-110.15 33.91,-207.59 51.75,-277.47 9.05,-34.97 16.84,-63.13 22.36,-82.55 2.68,-9.19 4.86,-16.6 6.53,-22.33 1.55,-5.07 2.48,-7.71 2.68,-7.65 0.22,0.04 -0.3,2.8 -1.46,7.99 -1.38,5.79 -3.18,13.29 -5.39,22.62 -5,20.32 -11.93,48.5 -20.42,82.99 -16.73,70.1 -39.79,167.41 -49.81,276.97 -10.07,109.48 -0.77,209.62 16.35,279.47 8.31,35.01 17.41,62.77 24.53,81.6 3.29,9.53 6.54,16.66 8.33,21.68 1.9,4.95 2.81,7.61 2.6,7.7z"/>
  <path class="fil9" d="M5963.82 4187.79c-47.12,-159.36 -6.51,-338.73 89.22,-481.52 -1.1,3.76 -2.37,8.07 -3.79,12.99 -21.01,62.96 -37.53,128.91 -49.46,195.87 -10.67,50.73 -20.5,107.93 -26.09,169.03 -3.15,34.23 -4.35,67.57 -3.95,99.37l-5.93 4.26zm11.97 -8.59c-0.1,-25.92 0.82,-52.85 2.96,-80.43 -1.38,26.73 -2.02,53.33 -1.91,79.67l-1.05 0.76z"/>
  <path class="fil12" d="M5969.75 4183.53c-0.4,-31.8 0.8,-65.14 3.95,-99.37 5.59,-61.1 15.42,-118.3 26.09,-169.03 -10.84,60.89 -17.88,122.6 -21.04,183.64 -2.14,27.58 -3.06,54.51 -2.96,80.43l-6.04 4.33zm79.5 -464.27c1.42,-4.92 2.69,-9.23 3.79,-12.99 0.42,-0.64 0.84,-1.27 1.28,-1.91 -1.72,4.95 -3.42,9.91 -5.07,14.9z"/>
  <path class="fil9" d="M7062.67 5209.21c-5.58,0 -11.28,-0.22 -17.09,-0.68 -176.21,-14 -238.63,-55.57 -352.82,-194.69 -114.16,-139.13 -319.22,-897.86 -319.22,-897.86l65.3 -13.52 489.35 816.97 189.96 -313.01 240.08 134.14c0,0 7.15,119.25 -31.98,198.75 -37.85,76.88 -100.18,269.92 -263.58,269.9z"/>
  <path class="fil15" d="M6405.65 4214.78c0,0 208.77,485.67 358.46,764.15 126.75,235.79 385.28,209.62 467.31,78.46 82.03,-131.17 219.3,-523.84 219.3,-523.84l-436.1 -76.63 -48.56 138.16 -330.62 -421.56 -229.79 41.26z"/>
  <path class="fil15" d="M6762.43 4144.78l-32.11 -145.26c0,0 -14.66,-40.21 -38.57,-4.74 -23.91,35.45 -12.79,102.36 -12.79,102.36 0,0 -45.15,-345.5 -84.86,-383.12 -14.49,-13.72 -34.39,5.17 -34.39,5.17 0,0 -4.63,-67.58 -25.79,-67.14 -21.18,0.45 -41.22,50.79 -41.22,50.79 0,0 -26.35,-14.36 -47,10.71 -18.53,22.5 -18.64,210.33 -18.64,210.33 0,0 -17.63,-154.74 -45.33,-164.49 -44.41,-15.64 -44.41,43.24 -44.41,43.24l12.94 201.41c0,0 24.23,137.45 54.78,223.88 30.54,86.44 48.36,87.34 48.36,87.34l199.05 -5.31c0,0 44.89,-41.08 80.29,-72.86 25.84,-23.18 37.18,-58.42 29.69,-92.31z"/>
  <path class="fil18" d="M7100.17 4790.92c-0.22,0.09 -1.36,-2 -3.38,-6.02 -2.25,-4.68 -5.06,-10.52 -8.52,-17.7 -4.4,-7.63 -9.55,-16.63 -15.48,-26.93 -6.36,-10.32 -14.08,-21.77 -22.35,-34.57 -34.43,-50.43 -86.47,-116.99 -145.73,-189.02 -59.34,-72.04 -113.98,-136.52 -152.37,-184.2 -19.22,-23.8 -34.39,-43.41 -44.57,-57.17 -4.62,-6.53 -8.38,-11.88 -11.39,-16.11 -2.53,-3.73 -3.8,-5.75 -3.62,-5.86 0.18,-0.12 1.78,1.63 4.65,5.11 3.23,4.05 7.31,9.13 12.28,15.37 10.77,13.28 26.42,32.43 46.06,55.85 39.22,46.91 94.41,110.93 153.79,183.03 59.32,72.1 110.94,139.26 144.59,190.54 8.08,13.02 15.57,24.71 21.66,35.25 5.76,10.76 10.84,19.95 14.66,27.61 3.04,7.44 5.52,13.48 7.5,18.32 1.65,4.19 2.41,6.44 2.22,6.5z"/>
  <path class="fil6" d="M7271.17 3468.11c0,0 238.04,48.62 297.95,318.11 55.09,247.8 38.02,774.86 38.02,774.86l-648.31 -114.09 157.72 -899.9 154.62 -78.98z"/>
  <path class="fil4" d="M7050.85 3898.03c0.11,0.03 0.04,0.99 -0.16,2.86 -0.3,2.24 -0.65,4.96 -1.08,8.31 -1.17,7.78 -2.75,18.42 -4.76,31.87 -4.49,28.19 -10.84,68.1 -18.66,117.31 -16.46,99.58 -39.08,236.65 -64.26,389.13l-2.54 -3.61c6.71,1.21 13.95,2.49 21.22,3.79 156.91,28.33 298.95,53.97 402.36,72.64 51.04,9.52 92.53,17.25 121.82,22.71 13.96,2.74 24.99,4.91 33.05,6.5 3.46,0.74 6.29,1.35 8.57,1.85 1.93,0.44 2.9,0.72 2.89,0.83 -0.03,0.11 -1.04,0.03 -3,-0.22 -2.32,-0.32 -5.17,-0.72 -8.66,-1.22 -8.12,-1.31 -19.23,-3.08 -33.28,-5.34 -29.37,-4.99 -70.98,-12.05 -122.16,-20.76 -103.5,-18.2 -245.64,-43.21 -402.7,-70.84 -7.26,-1.28 -14.5,-2.58 -21.21,-3.77l-3.06 -0.54 0.53 -3.07c25.91,-152.34 49.21,-289.3 66.13,-388.8 8.65,-49.08 15.66,-88.87 20.6,-116.98 2.49,-13.39 4.46,-23.95 5.89,-31.68 0.69,-3.31 1.24,-6 1.7,-8.22 0.41,-1.83 0.67,-2.76 0.77,-2.75z"/>
  <path class="fil4" d="M7087.19 3811.55c-0.39,-0.14 1.36,-5.65 4.95,-15.45 3.59,-9.77 8.98,-23.88 16.3,-41.06 14.89,-33.87 36.9,-82.16 77.86,-123.14 20.27,-20.51 43.78,-35.55 66.26,-46.16 22.61,-10.49 44.33,-16.56 62.76,-20.02 18.45,-3.52 33.64,-4.43 44.09,-4.58 10.47,-0.15 16.24,0.41 16.24,0.78 0.07,1.31 -23.24,0.32 -59.44,8.15 -35.78,7.62 -85.62,26.11 -125.51,66.28 -39.93,39.9 -62.38,87.2 -78.21,120.51 -7.25,16.1 -13.32,29.56 -18.11,40.15 -4.26,9.52 -6.79,14.71 -7.19,14.54z"/>
  <path class="fil18" d="M6489 3954.2c-0.87,0.03 -2.02,-14.03 -3.28,-36.78 -1.2,-22.73 -2.49,-54.21 -2.64,-88.99 -0.13,-34.82 1.23,-66.38 3.6,-89.1 2.28,-22.75 5.25,-36.6 6.02,-36.49 0.95,0.14 -0.48,14.14 -1.6,36.82 -1.24,22.68 -1.9,54.05 -1.77,88.75 0.33,33.72 0.6,64.21 0.83,88.88 0.1,22.79 -0.31,36.89 -1.16,36.91z"/>
  <path class="fil18" d="M6554.75 3721.57c0.89,0.02 1.35,11.5 1.91,30.04 0.56,18.53 1.33,44.12 2.78,72.33 1.46,28.24 3.33,53.76 4.68,72.25 1.34,18.5 2.08,29.98 1.19,30.07 -0.83,0.11 -3.1,-11.17 -5.59,-29.61 -2.49,-18.43 -5.06,-44.03 -6.53,-72.38 -1.46,-28.35 -1.53,-54.07 -0.95,-72.66 0.56,-18.59 1.67,-30.07 2.51,-30.04z"/>
  <path class="fil6" d="M2080.34 2328.76c-16.06,-107.02 -42.56,-223.99 -113.18,-305.97 -50.94,-59.13 -100.98,-104.51 -167.75,-144.9 -71.37,-43.18 -134.34,-57.32 -210.98,-65.48l-50.22 44.52c160.74,38.92 300.45,150.54 382.61,294.07 82.15,143.52 107.97,316.52 81.23,479.73 -17.51,106.86 -56.32,208.89 -85.85,313.08 -29.53,104.19 -49.88,214.18 -29.41,320.52 88.36,-34.35 63.39,23.71 100.67,-63.44 37.3,-87.16 56.66,-278.94 78.3,-371.24 35.69,-152.12 36.6,-354.22 14.58,-500.89z"/>
  <path class="fil4" d="M1993.77 2090.46c-135.47,-210.53 -451.65,-275.41 -451.65,-275.41 -462.9,-33.12 -545.57,322.56 -592.3,646.54 -29.06,201.46 77.8,830.82 77.8,830.82l113.43 40.96 744.88 -0.26c-0.4,-13.59 52.69,-127.64 65.68,-164.79 68.5,-336.72 121.85,-954.01 42.16,-1077.86z"/>
  <polygon class="fil4" points="2014.44,3200.93 2014.45,3200.89 2014.44,3200.92 "/>
  <path class="fil16" d="M1607.98 1935.68l-28.96 -27.6 -312.96 126.12c-45.28,2.5 -81.12,39.24 -82.49,84.57l2.74 1019.71c-0.39,69.14 13.47,129.03 55.22,184.14l43.95 58.05c100.22,132.3 306.37,121.41 385.72,-24.37 5.54,-10.18 9.39,-19.13 11.06,-26.37 1.67,-9.09 4.16,-15.07 4.67,-22.8 9.3,-82.05 9.83,-153.18 9.83,-153.18 5.58,-90.07 7.42,-127.02 7.44,-126.19 0,0 191.67,-22.04 243.5,-268.09 25.77,-122.36 20.91,-290.71 13.66,-456.39 -10.01,-229.31 -169.07,-367.83 -353.38,-367.6z"/>
  <path class="fil4" d="M1551.4 2456.17c-0.25,16.82 -14.7,30.49 -32.28,30.55 -17.54,0.06 -31.61,-13.49 -31.36,-30.32 0.26,-16.82 14.71,-30.51 32.25,-30.56 17.58,-0.07 31.63,13.51 31.39,30.33z"/>
  <path class="fil4" d="M1866.64 2466.86c-0.25,16.83 -14.71,30.49 -32.29,30.56 -17.54,0.06 -31.59,-13.49 -31.35,-30.32 0.25,-16.83 14.71,-30.51 32.25,-30.57 17.58,-0.08 31.64,13.51 31.39,30.33z"/>
  <path class="fil4" d="M1928.64 2368.81c-4.16,3.96 -27.35,-15.09 -61.6,-16.72 -34.17,-2.12 -60.17,14.23 -63.67,9.86 -1.73,-1.95 2.66,-9.23 13.99,-16.66 11.16,-7.38 29.93,-14.17 51.24,-13.02 21.31,1.19 38.85,9.95 48.76,18.49 10.11,8.6 13.31,16.28 11.28,18.05z"/>
  <path class="fil4" d="M1581.29 2372.36c-4.54,3.5 -25.71,-17.83 -59.58,-22.95 -33.76,-5.63 -61.31,7.97 -64.34,3.26 -1.52,-2.12 3.56,-8.93 15.64,-15.13 11.87,-6.21 31.21,-11.04 52.3,-7.7 21.08,3.37 37.63,13.88 46.61,23.4 9.15,9.6 11.56,17.57 9.37,19.12z"/>
  <path class="fil4" d="M1700.86 2621.52c-0.07,-1.96 21.4,-4.55 56.1,-7.25 8.78,-0.47 17.15,-1.77 18.91,-7.67 2.38,-6.21 -0.8,-15.82 -4.53,-26.19 -7.17,-21.57 -14.66,-44.18 -22.52,-67.86 -31.14,-96.56 -53.23,-175.78 -49.32,-176.99 3.9,-1.23 32.32,76.04 63.46,172.61 7.46,23.79 14.61,46.48 21.4,68.2 2.82,10.08 7.93,21.64 2.82,34.52 -2.69,6.41 -9.34,10.84 -15.02,12.07 -5.69,1.43 -10.61,1.27 -14.95,1.3 -34.78,0.14 -56.32,-0.79 -56.35,-2.74z"/>
  <path class="fil19" d="M1704.2 3027.77c0,0 -167.39,2.39 -327.72,-105.26 0,0 74.9,175.88 324.31,165.12l3.41 -59.86z"/>
  <path class="fil19" d="M1682.26 2703.29c-11.5,-16.89 -32.62,-26.92 -54.14,-25.68 -14.93,0.85 -30.31,7.26 -39.94,18.91 -9.63,11.64 -12.39,28.73 -4.76,40.66 8.59,13.46 27.73,17.41 44.3,13.6 16.58,-3.82 31.18,-13.87 45.07,-23.91 3.84,-2.79 7.76,-5.69 10.27,-9.64 2.52,-3.95 3.28,-9.24 0.59,-12.75l-1.39 -1.19z"/>
  <path class="fil4" d="M1598.95 2640.15c5.58,-0.05 3.79,37.11 34.27,65.08 30.41,28.05 70.24,25.86 70.26,31.07 0.4,2.35 -9.19,6.76 -25.92,6.39 -16.43,-0.25 -40.11,-6.72 -58.75,-23.83 -18.6,-17.14 -25.86,-39.15 -26.36,-54.45 -0.64,-15.61 3.96,-24.6 6.5,-24.26z"/>
  <path class="fil4" d="M1614.05 2238.93c-4.75,8.69 -37.91,-0.87 -78.38,-2.17 -40.45,-2.11 -74.29,4.61 -78.29,-4.46 -1.76,-4.31 5.17,-12.12 19.49,-19.05 14.21,-6.94 36.01,-12.26 60.27,-11.26 24.26,1.05 45.53,8.19 59.11,16.29 13.68,8.13 19.91,16.49 17.8,20.65z"/>
  <path class="fil4" d="M1923.72 2221.75c-6.41,7.46 -29.58,-1.78 -57.92,-3.59 -28.26,-2.79 -52.63,2.6 -57.74,-5.8 -2.24,-4.08 1.94,-11.67 12.8,-18.51 10.7,-6.82 28.3,-11.94 47.76,-10.37 19.45,1.6 35.98,9.48 45.43,17.95 9.63,8.48 12.52,16.66 9.67,20.32z"/>
  <path class="fil4" d="M1189.82 2553.95c0,0 175.31,54.57 274.51,-378.11 33.93,-147.95 171.08,-267.76 171.08,-267.76l-55.62 -16.74c0,0 -345.71,97.4 -351.53,101.75 -5.82,4.37 -87.22,178.81 -87.22,178.81l48.78 382.05z"/>
  <path class="fil16" d="M1233.03 2537.83c0.88,-18.47 -18.29,-63.08 -36.39,-66.85 -48.32,-10.03 -136.32,-10.52 -143.34,113.15 -9.59,169.05 162.1,143.81 162.68,138.98 0.45,-3.77 14,-121.49 17.05,-185.28z"/>
  <path class="fil19" d="M1167.97 2656.15c-0.71,-0.59 -3.05,1.88 -8.16,3.89 -4.99,1.94 -13.42,3.01 -22.05,-0.8 -17.48,-7.56 -30.9,-36.77 -30,-67.3 0.44,-15.41 4.49,-29.87 10.63,-41.69 5.87,-12.09 14.36,-20.26 23.45,-21.34 9.05,-1.58 15.11,4.17 16.91,9.04 2,4.87 0.73,8.18 1.61,8.51 0.45,0.46 3.79,-2.62 2.83,-9.67 -0.52,-3.4 -2.26,-7.5 -6.06,-10.97 -3.87,-3.54 -9.73,-5.56 -16.04,-5.24 -13.09,0.18 -25.5,11.5 -32.24,24.48 -7.47,12.99 -12.4,29.22 -12.89,46.54 -0.85,34.12 14.77,66.98 38.82,75.44 11.71,3.76 21.84,0.75 27.2,-2.96 5.47,-3.86 6.56,-7.6 5.99,-7.93z"/>
  <path class="fil4" d="M1308.74 2471.21c-0.07,-0.56 9.32,-0.6 25.32,-5.12 15.91,-4.45 38.27,-14.85 60.2,-34.94 10.9,-10.03 21.64,-22.34 31.4,-36.78 9.58,-14.53 18.18,-31.18 25.55,-49.4 14.96,-36.42 24.55,-78.87 36.41,-122.94 11.88,-44.09 24.75,-85.73 38.88,-122.76 13.96,-37.08 29.42,-69.36 44.05,-95.5 14.71,-26.14 28.53,-46.12 38.73,-59.41 4.99,-6.72 9.34,-11.58 12.1,-14.99 2.86,-3.37 4.41,-5.09 4.51,-4.99 0.13,0.09 -1.19,2.01 -3.78,5.55 -2.55,3.6 -6.66,8.61 -11.42,15.47 -9.72,13.56 -23.09,33.71 -37.35,59.91 -14.21,26.2 -29.29,58.42 -42.96,95.42 -13.86,36.94 -26.57,78.47 -38.42,122.47 -11.82,43.93 -21.57,86.58 -36.91,123.34 -7.56,18.39 -16.4,35.2 -26.3,49.92 -10.06,14.61 -21.13,27.01 -32.36,37.06 -22.58,20.14 -45.6,30.27 -61.86,34.26 -16.39,4.06 -25.79,3.43 -25.79,3.43z"/>
  <path class="fil8" d="M1047.07 3176.29c0,0 3.47,-20.91 3.72,-59.1 0.37,-38.17 -4.43,-93.43 -16.38,-160.56 -6.03,-33.56 -12.63,-70.28 -19.71,-109.69 -6.83,-39.42 -12.88,-81.81 -15.15,-126.68 -2.07,-44.78 -0.69,-92.33 10.22,-139.92 5.45,-23.73 13.2,-47.41 23.79,-70.19 10.45,-22.87 24.24,-44.51 40.02,-64.97 31.71,-40.95 69.67,-74.94 106.45,-107.21 37.03,-32.08 72.54,-63.58 104.08,-95.86 63.49,-64.22 113.73,-128.52 152.01,-184.94 38.48,-56.37 65,-104.92 82.37,-138.84 8.66,-16.99 15.08,-30.32 19.17,-39.5 2.01,-4.41 3.57,-7.85 4.72,-10.39 1.04,-2.35 1.54,-3.57 1.46,-3.6 -0.07,-0.04 -0.71,1.12 -1.89,3.4 -1.26,2.49 -2.96,5.87 -5.14,10.18 -4.36,9.05 -11.04,22.23 -19.93,39.08 -17.83,33.62 -44.76,81.8 -83.47,137.81 -38.55,56.04 -88.9,119.94 -152.36,183.77 -31.52,32.12 -66.91,63.37 -104.02,95.45 -36.85,32.26 -75.07,66.38 -107.14,107.8 -15.95,20.68 -29.94,42.64 -40.54,65.86 -10.72,23.12 -18.55,47.12 -24.03,71.14 -10.97,48.16 -12.26,96.11 -10.06,141.14 2.4,45.13 8.63,87.66 15.63,127.13 7.28,39.38 14.08,76.07 20.28,109.59 12.33,66.98 17.62,121.95 17.81,160.02 0.22,19.02 -0.42,33.79 -1.08,43.8 -0.31,4.82 -0.56,8.6 -0.74,11.37 -0.14,2.57 -0.17,3.89 -0.09,3.91z"/>
  <path class="fil8" d="M992.66 3192.17c0,0 3.48,-20.9 3.73,-59.09 0.36,-38.17 -4.44,-93.43 -16.38,-160.57 -6.04,-33.56 -12.64,-70.27 -19.72,-109.69 -6.82,-39.42 -12.88,-81.8 -15.14,-126.68 -2.08,-44.78 -0.7,-92.33 10.22,-139.91 5.44,-23.74 13.19,-47.4 23.78,-70.19 10.46,-22.87 24.25,-44.51 40.02,-64.97 31.71,-40.97 69.68,-74.95 106.46,-107.22 37.02,-32.08 72.53,-63.56 104.07,-95.86 63.49,-64.2 113.73,-128.51 152.01,-184.94 38.47,-56.37 65.02,-104.92 82.38,-138.84 8.66,-16.98 15.06,-30.32 19.16,-39.49 2,-4.4 3.58,-7.85 4.72,-10.39 1.04,-2.36 1.53,-3.57 1.46,-3.61 -0.07,-0.03 -0.71,1.12 -1.88,3.41 -1.27,2.48 -2.96,5.86 -5.15,10.19 -4.36,9.03 -11.04,22.22 -19.92,39.06 -17.84,33.62 -44.76,81.81 -83.49,137.81 -38.54,56.05 -88.9,119.95 -152.35,183.79 -31.53,32.11 -66.91,63.36 -104.02,95.44 -36.85,32.25 -75.06,66.39 -107.15,107.8 -15.95,20.68 -29.93,42.64 -40.52,65.86 -10.73,23.13 -18.56,47.11 -24.04,71.14 -10.97,48.16 -12.25,96.11 -10.06,141.15 2.4,45.13 8.63,87.66 15.63,127.12 7.29,39.37 14.08,76.06 20.28,109.59 12.34,66.98 17.62,121.95 17.81,160.01 0.23,19.02 -0.41,33.8 -1.08,43.79 -0.31,4.84 -0.55,8.61 -0.74,11.39 -0.14,2.57 -0.17,3.89 -0.09,3.9z"/>
  <path class="fil4" d="M748.16 5402.76c0,0 -15.77,-140.69 74.23,-375.82 73.75,-192.67 160.31,-298.99 160.31,-298.99l1165.78 -76.81 89.88 751.62 -1490.2 0z"/>
  <path class="fil2" d="M2135.18 4214.01c17.13,-259.65 0,-653.18 0,-653.18l-192.56 -323.02 -253.63 -39.77c0,0 -0.6,177.43 -133.27,206.78 -226.84,50.18 -374.71,-222.68 -374.71,-222.68 -21.41,0 -344.2,67.79 -446.51,165.18 -105.08,100.03 -279.07,365.35 -328.09,441.4 0,0 -339.89,496.26 -389.69,632.43 -37.62,102.88 -2.67,181.76 16.68,214.2 10.33,30.7 324.94,481.83 568.29,662.04l18.99 -35.98 126.41 -216.68 -327.34 -537.9 379.73 -399.96 74.61 -70.13 21.44 94.44 92.13 443.9c0,0 -183.5,366.8 -209.19,557.47 0,0 902.06,310.94 1458.7,157.39 0,0 -119.11,-816.28 -101.99,-1075.93z"/>
  <path class="fil16" d="M1186.47 4947.33c0,0 -152.65,-41.2 -168.05,-32.52 -15.4,8.68 -129.33,68.77 -129.33,68.77 0,0 -35.02,42.97 -53.8,58.28 0,0 -39.13,37.14 -66.13,38.37 -26.99,1.23 -42.9,-4.62 -42.9,-4.62l-105.57 185.8c0,0 62.65,59.67 95.79,59.1 33.13,-0.58 217.12,-77.93 217.12,-77.93l44.44 -9.7c0,0 166.88,24.14 180.54,-26.07l1.54 -14.29 -163.96 -32.09 -62.39 3.63 110.54 -28.55c0,0 156.26,7.6 171,5.07 14.74,-2.55 33.49,-23.27 28.69,-36.19l-32.26 -7.6c0,0 37.9,-20.6 39.05,-43.21l-144.47 -39.12c0,0 93.2,-34.72 80.15,-67.13z"/>
  <path class="fil19" d="M1228.88 5096.27c-0.19,0.49 -4.83,-0.92 -13.26,-3.32 -8.39,-2.47 -20.62,-5.83 -35.78,-9.76 -30.32,-7.88 -72.47,-17.85 -119.18,-28.22 -5.89,-1.21 -11.62,-2.85 -16.95,-3.28 -5.45,-0.46 -10.89,-0.08 -16.06,1.13 -10.4,2.86 -21,6.49 -30.7,9.74 -19.56,6.68 -36.94,13.36 -51.27,19.55 -14.33,6.19 -25.58,11.91 -33.19,16.19 -7.64,4.21 -11.61,7.01 -11.97,6.53 -0.22,-0.27 3.24,-3.83 10.57,-8.79 7.27,-5.02 18.35,-11.51 32.59,-18.32 14.23,-6.82 31.6,-14.03 51.19,-21.09 9.93,-3.5 19.91,-7.11 31.26,-10.32 5.82,-1.41 11.97,-1.88 18.14,-1.39 6.33,0.54 12.03,2.21 17.87,3.4 46.8,10.38 88.88,21.12 119,30.23 15.06,4.54 27.15,8.63 35.33,11.89 8.21,3.19 12.58,5.45 12.41,5.83z"/>
  <path class="fil19" d="M1109.9 5021.5c-0.55,1.02 -11.55,-5.3 -30.77,-11.19 -19.08,-5.98 -47.02,-10.58 -77.25,-6.13 -30.22,4.47 -55.64,16.96 -72.19,28.19 -16.7,11.19 -25.39,20.42 -26.22,19.61 -0.56,-0.44 6.95,-10.98 23.43,-23.56 16.27,-12.55 42.44,-26.34 73.99,-30.99 31.54,-4.65 60.57,0.98 79.77,8.29 19.41,7.29 29.66,15.19 29.24,15.78z"/>
  <polygon class="fil2" points="2918.83,3860.54 2323.67,3417.45 2101.43,3271.18 1937.24,3237.81 2006.99,3931.68 2161.18,3931.68 2824.75,4220.12 3637.6,4289.08 3649.59,4037.11 "/>
  <path class="fil4" d="M2146.02 4518.13c-0.2,0.01 -0.5,-3.53 -0.86,-10.28 -0.31,-7.31 -0.75,-17.14 -1.28,-29.54 -0.98,-25.64 -2.05,-62.77 -2.88,-108.67 -0.88,-45.9 -1.46,-100.55 -1.52,-161.23 -0.2,-60.69 0.57,-127.4 -0.54,-197.34 -0.38,-140.16 -26.56,-264.94 -47.42,-354.07 -10.5,-44.63 -19.67,-80.62 -25.81,-105.52 -2.95,-12.05 -5.27,-21.62 -7.01,-28.72 -1.53,-6.59 -2.24,-10.07 -2.02,-10.13 0.21,-0.06 1.31,3.32 3.25,9.8 2.02,7.04 4.72,16.51 8.12,28.43 6.89,24.71 16.7,60.54 27.77,105.11 22,88.88 49,214.28 49.39,354.98 1.1,70.09 0.15,136.79 0.04,197.46 -0.26,60.67 -0.13,115.29 0.17,161.16 0.38,45.45 0.69,82.42 0.9,108.69 0.04,12.4 0.08,22.24 0.1,29.57 -0.05,6.74 -0.18,10.3 -0.4,10.3z"/>
  <path class="fil20" d="M2142.93 3942.07c-0.03,-0.53 -0.07,-1.07 -0.09,-1.61l0.88 -5.99c-0.1,-0.94 -0.2,-1.86 -0.29,-2.8l2.22 0c-0.88,3.49 -1.78,6.94 -2.72,10.4z"/>
  <path class="fil21" d="M2145.66 3931.68l-2.22 0c-1.36,-12.85 -2.86,-25.69 -4.5,-38.51 -9.33,-92.43 -27.49,-174.03 -43.12,-237.19 -11.07,-44.57 -20.88,-80.4 -27.77,-105.11 -3.4,-11.92 -6.1,-21.39 -8.12,-28.43 -1.92,-6.42 -3.02,-9.8 -3.25,-9.8l0 0c-0.22,0.06 0.49,3.54 2.02,10.13 1.74,7.1 4.06,16.67 7.01,28.72 4.68,18.93 11.1,44.3 18.53,75.01 -19.33,-67.83 -42.65,-134.55 -69.8,-199.66 124.28,132.08 175.08,329.02 131.22,504.84z"/>
  <path class="fil12" d="M2142.21 3944.75l0.64 -4.29c0.02,0.54 0.06,1.08 0.09,1.61 -0.23,0.89 -0.49,1.79 -0.73,2.68zm-3.28 -51.59c-11.48,-90.1 -29.8,-179.31 -54.7,-266.67 -7.43,-30.71 -13.85,-56.08 -18.53,-75.01 -2.95,-12.05 -5.27,-21.62 -7.01,-28.72 -1.53,-6.59 -2.24,-10.07 -2.02,-10.13l0 0c0.23,0 1.33,3.38 3.25,9.8 2.02,7.04 4.72,16.51 8.12,28.43 6.89,24.71 16.7,60.54 27.77,105.11 15.63,63.16 33.79,144.76 43.12,237.19z"/>
  <path class="fil6" d="M1651.59 1820.46c-372.68,33.43 -387.35,488.96 -436.9,848.31 -70.8,513.37 304.87,623.64 304.87,623.64l-466.66 -87.48c0,0 -255.26,-103.33 -253.42,-386.71 1.84,-283.37 46.36,-630.2 343.49,-893.83 256.56,-227.62 485.14,-119.5 508.62,-103.93z"/>
  <path class="fil6" d="M2014.45 3182.14c-28.15,-25.41 -17.22,-35.18 -97.81,-42.58 -90.97,-8.37 -192.56,49.86 -283.12,61.9 -90.56,12.05 -187.31,0.04 -263.31,-50.65 -89.09,-59.4 -137.73,-161.87 -182.19,-259.29l-218.82 180c-42.49,34.95 -67.83,87.43 -65.68,142.4 0.47,12.23 1.99,22.17 5.18,26.99 6.7,10.09 35.71,2.41 64.52,-5.26 26.13,-6.98 52.09,-13.95 61.1,-7.65 100.24,70.11 142.95,181.44 234.78,262.26 107.37,94.48 206.69,169.46 282.29,166.85 74.18,-2.57 215.18,-82.69 265.25,-175.47 46.27,-85.76 86.71,-148.27 123.03,-213.68 9.23,-16.63 29.46,-14 48.87,-11.38 20.93,2.82 40.9,5.65 45.07,-15.67 4.15,-21.25 -3.09,-44.26 -19.16,-58.77z"/>
  <path class="fil4" d="M799.47 3717.41c0.21,-0.05 1.14,2.9 2.7,8.52 1.66,6.25 3.84,14.48 6.56,24.75 5.5,22.25 13.18,53.3 22.61,91.36 18.67,77.24 43.78,184.11 70.37,302.4 26.56,118.36 49.49,225.74 64.72,303.76 7.6,39.02 13.21,70.69 16.8,92.63 1.49,10.53 2.69,18.96 3.6,25.36 0.75,5.79 1.04,8.86 0.83,8.89 -0.21,0.03 -0.92,-2.96 -2.08,-8.7 -1.2,-6.35 -2.78,-14.69 -4.74,-25.13 -4.57,-22.43 -10.94,-53.75 -18.75,-92.17 -16.33,-77.74 -39.94,-184.94 -66.48,-303.26 -26.71,-117.93 -50.89,-224.68 -68.58,-302.77 -8.61,-38.26 -15.64,-69.46 -20.67,-91.8 -2.25,-10.39 -4.04,-18.7 -5.41,-25.02 -1.18,-5.73 -1.69,-8.77 -1.48,-8.82z"/>
  <path class="fil4" d="M2014.45 3229.24c0.06,0.1 -0.78,0.63 -2.45,1.66 -2,1.14 -4.47,2.56 -7.49,4.3 -6.75,3.45 -16.13,9.82 -29.46,15.45 -25.91,12.84 -65.49,27.34 -115.94,38.82 -50.44,11.59 -111.9,18.69 -180.2,20.44 -68.33,2.12 -143.41,-1.43 -221.94,-6.54 -39.32,-2.55 -77.71,-6.37 -114.48,-12.09 -36.75,-5.86 -71.9,-13.28 -105.05,-21.72 -66.09,-17.6 -123.96,-39.48 -170.32,-62.38 -46.43,-22.8 -82.06,-44.95 -105.54,-61.79 -12.04,-7.97 -20.59,-15.3 -26.7,-19.79 -2.74,-2.16 -4.97,-3.93 -6.78,-5.38 -1.5,-1.22 -2.24,-1.91 -2.18,-1.99 0.07,-0.07 0.94,0.43 2.57,1.49 1.91,1.31 4.26,2.91 7.14,4.87 6.35,4.16 15.11,11.15 27.33,18.79 23.82,16.16 59.65,37.65 106.07,59.8 46.36,22.28 104.06,43.6 169.86,60.81 33,8.22 67.96,15.49 104.53,21.23 36.61,5.6 74.74,9.35 113.95,11.9 78.49,5.1 153.34,8.81 221.39,7.02 68.03,-1.42 129.16,-8.03 179.41,-19.01 50.23,-10.85 89.78,-24.61 115.87,-36.69 13.43,-5.27 22.92,-11.27 29.87,-14.34 3.14,-1.52 5.69,-2.76 7.78,-3.77 1.77,-0.81 2.71,-1.19 2.76,-1.09z"/>
  <path class="fil4" d="M1299.33 3278.1c-0.08,0.08 -0.87,-0.41 -2.39,-1.46 -1.79,-1.29 -3.96,-2.85 -6.61,-4.76 -6.17,-4.62 -14.53,-10.89 -25.09,-18.81 -10.86,-8.2 -23.54,-19.02 -38.57,-31.22 -7.43,-6.19 -15.03,-13.22 -23.28,-20.45 -8.31,-7.18 -16.8,-15.08 -25.46,-23.67 -34.9,-33.86 -74.88,-76.82 -108.64,-132.11 -33.82,-54.97 -58.36,-124.37 -60.8,-199.32 -2.79,-74.93 12.25,-145.28 28.41,-207.43 16.48,-62.31 34.44,-117.42 48.92,-163.85 14.29,-46.02 25.91,-83.48 34.14,-109.99 3.82,-12.61 6.83,-22.61 9.06,-29.98 1.01,-3.11 1.83,-5.66 2.51,-7.76 0.59,-1.74 0.95,-2.61 1.06,-2.58 0.1,0.02 -0.05,0.96 -0.45,2.75 -0.51,2.15 -1.14,4.75 -1.91,7.92 -1.94,7.46 -4.59,17.57 -7.93,30.32 -7.22,26.24 -18.12,64.09 -32.25,110.63 -13.93,46.6 -31.46,101.82 -47.57,163.99 -15.81,62.01 -30.49,131.86 -27.74,205.74 2.43,73.87 26.34,142.05 59.5,196.59 33.09,54.83 72.43,97.81 106.78,131.91 8.51,8.65 16.87,16.62 25.05,23.88 8.12,7.34 15.58,14.47 22.89,20.77 14.77,12.41 27.19,23.47 37.81,31.96 10.23,8.29 18.34,14.86 24.32,19.71 2.5,2.11 4.54,3.83 6.24,5.24 1.38,1.23 2.07,1.89 2,1.98z"/>
  <path class="fil4" d="M1651.59 1820.46c0.13,1.29 -19.4,2.3 -49.34,10.92 -15.08,3.93 -32.25,11.09 -50.96,19.58 -18.43,9.16 -38.04,20.53 -57.62,34.03 -39.06,27.26 -70.55,57.07 -92.53,79.28 -21.97,22.29 -34.76,36.9 -35.52,36.25 -0.33,-0.28 2.52,-4.21 7.99,-11.11 5.41,-6.93 13.68,-16.62 24.32,-28.19 21.29,-23.12 52.6,-53.76 92.18,-81.37 19.82,-13.69 39.84,-25.09 58.72,-34.09 19.15,-8.37 36.78,-15.2 52.25,-18.65 7.6,-2.21 14.68,-3.3 20.87,-4.35 6.17,-1.2 11.53,-1.8 15.95,-1.98 8.81,-0.62 13.67,-0.75 13.69,-0.32z"/>
  <path class="fil9" d="M1031.06 3020.64c-43.46,-76.02 -60.94,-170.75 -59.3,-259.12 2.57,-137.88 51.85,-270.05 100.5,-399.08 24.61,-65.26 49.21,-130.51 73.82,-195.76 3.17,-8.42 10.26,-12.16 17.34,-12.16 10.3,0 20.6,7.91 18.86,20.89 -1.57,11.63 -4.19,23.27 -7.06,34.37 -18.22,70.68 -43.15,139.43 -67.79,208.23 5.99,-20.54 10.97,-38.13 14.87,-52.32 3.34,-12.75 5.99,-22.86 7.93,-30.32 0.77,-3.17 1.4,-5.77 1.91,-7.92 0.4,-1.79 0.55,-2.73 0.45,-2.75 -0.01,0 -0.01,0 -0.01,0 -0.11,0 -0.47,0.87 -1.05,2.58 -0.68,2.1 -1.5,4.65 -2.51,7.76 -2.23,7.37 -5.24,17.37 -9.06,29.98 -8.23,26.51 -19.85,63.97 -34.14,109.99 -14.48,46.43 -32.44,101.54 -48.92,163.85 -16.16,62.15 -31.2,132.5 -28.41,207.43 1.89,58.17 17.1,112.99 39.62,160.33l-17.05 14.02z"/>
  <path class="fil9" d="M1127.88 3125.19c-40.95,-26.35 -72.84,-62.61 -96.82,-104.54l17.05 -14.02c6.5,13.66 13.61,26.68 21.18,38.99 18.3,29.97 38.43,56.33 58.59,79.57z"/>
  <path class="fil9" d="M1052.87 3002.71c-21.7,-46.45 -36.26,-99.86 -38.13,-156.65 -1.5,-40.52 2.23,-79.83 8.52,-117.29 -10.12,92.76 -2.63,187.74 34.05,270.29l-4.44 3.65z"/>
  <path class="fil9" d="M1117.5 3104.53c-14.95,-18.75 -29.64,-39.32 -43.26,-61.89 -7.67,-12.61 -14.85,-25.96 -21.37,-39.94l4.44 -3.65c10.42,23.44 23.19,45.88 38.58,66.99l21.61 38.49z"/>
  <path class="fil12" d="M1129.77 3126.39c-0.63,-0.4 -1.27,-0.8 -1.89,-1.2 -20.16,-23.24 -40.29,-49.6 -58.59,-79.57 -7.57,-12.31 -14.68,-25.33 -21.18,-38.99 -22.52,-47.34 -37.73,-102.16 -39.62,-160.33 -2.79,-74.93 12.25,-145.28 28.41,-207.43 16.48,-62.31 34.44,-117.42 48.92,-163.85 14.29,-46.02 25.91,-83.48 34.14,-109.99 3.82,-12.61 6.83,-22.61 9.06,-29.98 1.01,-3.11 1.83,-5.66 2.51,-7.76 0.58,-1.71 0.94,-2.58 1.05,-2.58 0,0 0,0 0.01,0 0.1,0.02 -0.05,0.96 -0.45,2.75 -0.51,2.15 -1.14,4.75 -1.91,7.92 -1.94,7.46 -4.59,17.57 -7.93,30.32 -3.9,14.19 -8.88,31.78 -14.87,52.32 -25.73,71.81 -51.14,143.7 -68.3,217.94 -7.01,30.3 -12.45,61.42 -15.87,92.81 -6.29,37.46 -10.02,76.77 -8.52,117.29 1.87,56.79 16.43,110.2 38.13,156.65 6.52,13.98 13.7,27.33 21.37,39.94 13.62,22.57 28.31,43.14 43.26,61.89l12.27 21.85z"/>
  <path class="fil4" d="M2021.14 3262.31c-0.56,-0.31 2.95,-5.44 5.51,-15.93 2.5,-10.35 3.29,-26.64 -3.91,-44.48 -6.79,-17.83 -23.06,-35.67 -46.11,-46.34 -22.88,-11.12 -51.49,-14.61 -80.9,-12.13 -29.49,2.5 -57.44,8.67 -82.65,14.22 -25.2,5.75 -47.66,11.98 -66.39,17.63 -18.73,5.67 -33.75,10.74 -44.14,14.26 -10.37,3.48 -16.13,5.41 -16.31,4.98 -0.15,-0.37 5.31,-3.06 15.46,-7.27 10.15,-4.22 25,-9.94 43.65,-16.19 18.65,-6.23 41.11,-12.93 66.41,-19.02 25.33,-5.9 53.26,-12.28 83.48,-14.85 30.08,-2.55 60.01,1.19 83.9,13.16 24.04,11.45 41.11,30.88 47.73,49.97 7.06,19.03 5.46,36.14 2.12,46.69 -1.69,5.35 -3.63,9.24 -5.16,11.73 -1.58,2.46 -2.5,3.69 -2.69,3.57z"/>
  <path class="fil9" d="M1548.64 3358.14c-36.32,0 -72.62,-2.32 -108.64,-6.99 -151.29,-19.64 -277.9,-62.87 -397.05,-156.27 7.7,4.06 15.76,8.16 24.17,12.3 46.36,22.9 104.23,44.78 170.32,62.38 33.15,8.44 68.3,15.86 105.05,21.72 36.77,5.72 75.16,9.54 114.48,12.09 62.72,4.08 123.24,7.17 179.87,7.17 14.28,0 28.31,-0.21 42.07,-0.63 68.3,-1.75 129.76,-8.85 180.2,-20.44 0.52,-0.12 1.02,-0.24 1.52,-0.35 24.53,-2.77 36.56,-4.86 36.56,-4.86 -109.26,48.74 -228.94,73.88 -348.55,73.88zm94.08 -53.54c-25.72,0 -52.28,-0.64 -79.52,-1.72 108.14,0 189.09,-4.24 244.21,-8.67 -38.8,5.57 -82.12,8.96 -128.65,9.93 -11.82,0.31 -23.83,0.46 -36.04,0.46z"/>
  <path class="fil12" d="M1636.85 3310.54c-56.63,0 -117.15,-3.09 -179.87,-7.17 -39.32,-2.55 -77.71,-6.37 -114.48,-12.09 -36.75,-5.86 -71.9,-13.28 -105.05,-21.72 -66.09,-17.6 -123.96,-39.48 -170.32,-62.38 -8.41,-4.14 -16.47,-8.24 -24.17,-12.3 -2.67,-2.1 -5.34,-4.22 -8,-6.36 0,0 193.7,111.86 494.38,114.23 11.48,0.09 22.73,0.13 33.66,0.13 0.08,0 0.13,0 0.21,0 27.24,1.08 53.8,1.72 79.52,1.72 12.21,0 24.22,-0.15 36.04,-0.46 46.53,-0.97 89.85,-4.36 128.65,-9.93 21.74,-1.76 39.44,-3.54 53.22,-5.09 -0.5,0.11 -1,0.23 -1.52,0.35 -50.44,11.59 -111.9,18.69 -180.2,20.44 -13.76,0.42 -27.79,0.63 -42.07,0.63z"/>
 </g>
</svg>
