<?xml version="1.0" encoding="UTF-8"?>
<!DOCTYPE svg PUBLIC "-//W3C//DTD SVG 1.1//EN" "http://www.w3.org/Graphics/SVG/1.1/DTD/svg11.dtd">
<!-- Creator: CorelDRAW 2018 (64 Bit Versão de avaliação) -->
<svg xmlns="http://www.w3.org/2000/svg" xml:space="preserve" width="100mm" height="84.84mm" version="1.1" style="shape-rendering:geometricPrecision; text-rendering:geometricPrecision; image-rendering:optimizeQuality; fill-rule:evenodd; clip-rule:evenodd"
viewBox="0 0 10000 8484"
 xmlns:xlink="http://www.w3.org/1999/xlink">
 <defs>
  <style type="text/css">
   <![CDATA[
    .fil18 {fill:none}
    .fil0 {fill:white}
    .fil12 {fill:#273035;fill-rule:nonzero}
    .fil4 {fill:#2C3C43;fill-rule:nonzero}
    .fil10 {fill:#33484E;fill-rule:nonzero}
    .fil8 {fill:#42616A;fill-rule:nonzero}
    .fil17 {fill:#516065;fill-rule:nonzero}
    .fil11 {fill:#8B5D54;fill-rule:nonzero}
    .fil7 {fill:#935953;fill-rule:nonzero}
    .fil9 {fill:#ABAEAF;fill-rule:nonzero}
    .fil6 {fill:#C88172;fill-rule:nonzero}
    .fil1 {fill:#D9DAD9;fill-rule:nonzero}
    .fil2 {fill:#E5E6E5;fill-rule:nonzero}
    .fil15 {fill:#EE695A;fill-rule:nonzero}
    .fil3 {fill:#EFEFEF;fill-rule:nonzero}
    .fil5 {fill:#F3786E;fill-rule:nonzero}
    .fil14 {fill:#F48C83;fill-rule:nonzero}
    .fil16 {fill:#F69E99;fill-rule:nonzero}
    .fil13 {fill:#FEFEFE;fill-rule:nonzero}
   ]]>
  </style>
   <clipPath id="id0">
    <path d="M-0 0.23l10000 0 0 8483.59 -10000 0 0 -8483.59z"/>
   </clipPath>
 </defs>
 <g id="Camada_x0020_1">
  <metadata id="CorelCorpID_0Corel-Layer"/>
  <polygon class="fil0" points="-0,0.23 10000,0.23 10000,8483.82 -0,8483.82 "/>
  <g style="clip-path:url(#id0)">
   <g id="_1975415140112">
    <g>
     <path id="1" class="fil1" d="M2649.47 -48.62l8.88 14.76c9.96,16.53 24.45,29.89 41.76,38.46l15.41 7.62 -14.73 8.88c-16.56,9.96 -29.91,24.45 -38.47,41.74l-7.63 15.44 -8.87 -14.74c-9.95,-16.56 -24.44,-29.89 -41.76,-38.46l-15.41 -7.63 14.73 -8.87c16.54,-9.96 29.91,-24.45 38.47,-41.76l7.62 -15.44z"/>
     <path class="fil1" d="M4822.51 1083.63l8.88 14.75c9.96,16.53 24.45,29.9 41.76,38.45l15.43 7.62 -14.73 8.87c-16.55,9.96 -29.9,24.47 -38.47,41.77l-7.63 15.43 -8.87 -14.74c-9.95,-16.56 -24.44,-29.9 -41.75,-38.46l-15.44 -7.63 14.76 -8.87c16.53,-9.96 29.87,-24.45 38.44,-41.77l7.62 -15.42z"/>
     <path class="fil1" d="M1083.68 4230.33l8.87 14.76c9.96,16.56 24.44,29.89 41.76,38.46l15.43 7.62 -14.74 8.88c-16.56,9.96 -29.9,24.45 -38.46,41.76l-7.63 15.43 -8.88 -14.75c-9.96,-16.56 -24.44,-29.89 -41.76,-38.47l-15.43 -7.62 14.75 -8.88c16.54,-9.95 29.89,-24.44 38.45,-41.76l7.64 -15.43z"/>
     <path class="fil1" d="M6945.35 8190.02l8.87 14.75c9.97,16.54 24.45,29.91 41.74,38.47l15.44 7.62 -14.71 8.86c-16.58,9.97 -29.9,24.46 -38.48,41.76l-7.62 15.42 -8.88 -14.72c-9.95,-16.57 -24.43,-29.9 -41.77,-38.47l-15.42 -7.63 14.74 -8.87c16.54,-9.96 29.9,-24.45 38.46,-41.76l7.63 -15.43z"/>
     <path class="fil1" d="M8614.06 3796.86l19.43 32.24c21.74,36.19 53.43,65.37 91.29,84.08l33.71 16.68 -32.23 19.39c-36.2,21.76 -65.36,53.47 -84.07,91.32l-16.68 33.7 -19.4 -32.23c-21.77,-36.17 -53.47,-65.35 -91.29,-84.06l-33.75 -16.69 32.24 -19.39c36.2,-21.77 65.38,-53.46 84.09,-91.31l16.66 -33.73z"/>
     <path class="fil1" d="M6758.35 -320.15l19.38 32.23c21.79,36.18 53.48,65.38 91.33,84.09l33.73 16.68 -32.26 19.39c-36.17,21.76 -65.35,53.46 -84.06,91.31l-16.7 33.72 -19.39 -32.24c-21.75,-36.17 -53.45,-65.36 -91.3,-84.08l-33.71 -16.69 32.23 -19.38c36.18,-21.77 65.34,-53.47 84.07,-91.3l16.68 -33.73z"/>
     <path class="fil1" d="M2785.08 7699.84l19.4 32.22c21.76,36.19 53.45,65.37 91.3,84.1l33.71 16.66 -32.21 19.41c-36.19,21.77 -65.37,53.44 -84.09,91.31l-16.67 33.72 -19.42 -32.24c-21.76,-36.19 -53.44,-65.37 -91.29,-84.07l-33.73 -16.69 32.24 -19.39c36.18,-21.79 65.37,-53.46 84.08,-91.31l16.68 -33.72z"/>
     <path class="fil2" d="M8061.68 2404.32c0,0 -165.32,81.26 -381.47,209.64 -263.51,156.51 -806.06,464.15 -1152.8,221.14l-317.45 -623.23c0,0 203.76,93.45 513.84,53.18 276.51,-35.91 497.94,-181.63 597.49,-248.72 40.3,-27.16 93.37,-63.95 135.07,-88.93 69.75,-41.75 153.23,-103.04 275.05,-162.26l330.27 639.18z"/>
     <path class="fil3" d="M6925.13 2556.76c-23.02,-131.33 70.47,-257.45 208.78,-281.69 138.32,-24.25 269.11,62.58 292.13,193.9 23.01,131.36 -70.48,257.46 -208.79,281.72 -138.31,24.22 -269.09,-62.6 -292.12,-193.93z"/>
     <path class="fil2" d="M7198.63 2523.48l25.84 40.15c11.17,-12.03 11.17,-23.6 5.18,-32.93 -6.4,-9.9 -17.4,-10.39 -31.02,-7.22zm-87.21 -40.16c6.4,9.88 17.14,10.53 30.7,7.81l-25.1 -39.02c-10.6,11.23 -11.42,22.15 -5.6,31.21zm-18.44 -68.51l-20.41 -31.66 25.19 -16.22 19.86 30.81c26.02,-14.36 55.59,-21.01 77.28,-17.79l8.33 43.4c-19.32,-2.33 -42.38,1.71 -61.78,11.44l30.41 47.18c32.87,-10.39 70.84,-20.07 96.87,20.34 19.28,29.96 16.46,68.19 -20.04,98.91l20.2 31.35 -25.21 16.21 -19.81 -30.78c-20,10.47 -42.03,16.64 -62.26,15.69l-9.77 -42.89c18.12,-0.07 34.33,-3.71 47.97,-10.12l-30.92 -48.04c-32.68,10.66 -70.17,20 -95.83,-19.83 -18.94,-29.39 -16.17,-67.15 19.92,-98z"/>
     <path class="fil3" d="M7031.91 2259c149.87,-61.36 422.26,-238.34 574.38,-340.51 14.06,21.37 35.72,37.77 60.35,44.8 26.89,7.65 56.65,4.04 81.13,-9.37l156.29 321.07c-25.01,9.54 -44.37,32.75 -51.77,58.81 -7.09,24.98 -4.32,51.75 4.16,76.42 -41.74,22.68 -85.54,50.97 -136.87,84.29 -110.77,71.95 -248.67,161.48 -469.15,261.77 -221.55,100.75 -391.23,110.36 -494.58,100.69 -30.57,-2.87 -57.25,-7.55 -79.98,-12.83 -8.65,-29.18 -39.76,-104.39 -131.98,-114.05l-166.6 -320.92c17.02,-1.28 39.2,-11.53 43.56,-54.69 221.43,41.66 469.23,-37.36 611.06,-95.48zm-470.15 579.38l4.2 2.48c10.32,6.11 257.63,146.87 698.57,-53.61 222.8,-101.34 367.74,-195.46 473.57,-264.19 95.54,-62.05 164.6,-106.86 240.2,-126.92l19.98 -5.29 -285.45 -586.45 -16.31 11.38c-4.67,3.23 -470.01,326.79 -677.5,411.74 -164.72,67.45 -476.05,164.48 -710.82,56.35l-45.06 -20.77 298.62 575.28z"/>
     <path class="fil2" d="M2438.6 282.02c0,0 -165.32,81.23 -381.48,209.62 -263.5,156.51 -806.04,464.16 -1152.78,221.14l-317.48 -623.24c0,0 203.78,93.43 513.85,53.19 276.52,-35.91 497.93,-181.63 597.51,-248.71 40.29,-27.15 93.36,-63.95 135.05,-88.91 69.74,-41.75 153.24,-103.06 275.04,-162.29l330.29 639.2z"/>
     <path class="fil3" d="M1302.05 434.45c-23.01,-131.33 70.46,-257.46 208.78,-281.71 138.3,-24.22 269.1,62.59 292.11,193.93 23.02,131.34 -70.46,257.46 -208.77,281.7 -138.32,24.23 -269.1,-62.59 -292.12,-193.92z"/>
     <path class="fil2" d="M1575.53 401.19l25.84 40.12c11.16,-12.01 11.18,-23.61 5.18,-32.93 -6.38,-9.9 -17.39,-10.39 -31.02,-7.19zm-87.19 -40.2c6.38,9.9 17.13,10.56 30.69,7.81l-25.11 -39c-10.59,11.24 -11.42,22.14 -5.58,31.19zm-18.45 -68.48l-20.4 -31.66 25.18 -16.25 19.84 30.82c26.02,-14.37 55.61,-21.01 77.3,-17.79l8.33 43.4c-19.31,-2.32 -42.37,1.72 -61.78,11.42l30.41 47.19c32.88,-10.37 70.83,-20.04 96.87,20.38 19.3,29.94 16.46,68.15 -20.06,98.88l20.22 31.35 -25.19 16.21 -19.84 -30.78c-19.99,10.48 -42.02,16.66 -62.23,15.7l-9.8 -42.89c18.1,-0.07 34.33,-3.71 47.99,-10.13l-30.94 -48.03c-32.69,10.65 -70.15,20 -95.82,-19.84 -18.93,-29.39 -16.17,-67.16 19.92,-97.98z"/>
     <path class="fil3" d="M1408.84 136.68c149.85,-61.35 422.24,-238.33 574.37,-340.51 14.04,21.37 35.71,37.76 60.34,44.8 26.88,7.64 56.65,4.03 81.13,-9.37l156.28 321.06c-24.98,9.55 -44.35,32.78 -51.76,58.82 -7.08,24.96 -4.34,51.75 4.16,76.44 -41.75,22.66 -85.55,50.94 -136.86,84.29 -110.79,71.93 -248.67,161.48 -469.15,261.75 -221.56,100.75 -391.24,110.36 -494.59,100.71 -30.59,-2.87 -57.27,-7.57 -79.98,-12.85 -8.63,-29.18 -39.76,-104.39 -131.97,-114.04l-166.62 -320.92c17.04,-1.3 39.22,-11.54 43.56,-54.7 221.43,41.66 469.23,-37.37 611.09,-95.48zm-470.16 579.38l4.19 2.48c10.33,6.11 257.64,146.89 698.55,-53.61 222.81,-101.32 367.78,-195.47 473.61,-264.2 95.53,-62.05 164.57,-106.85 240.17,-126.91l19.98 -5.29 -285.44 -586.45 -16.32 11.37c-4.67,3.27 -469.99,326.78 -677.48,411.75 -164.72,67.45 -476.06,164.48 -710.83,56.33l-45.07 -20.75 298.64 575.28z"/>
     <path class="fil2" d="M8322.61 7347.51c0,0 -165.34,81.21 -381.48,209.62 -263.52,156.51 -806.06,464.15 -1152.78,221.14l-317.5 -623.23c0,0 203.79,93.44 513.86,53.18 276.52,-35.91 497.95,-181.63 597.5,-248.72 40.32,-27.14 93.39,-63.95 135.07,-88.94 69.72,-41.73 153.23,-103 275.06,-162.25l330.27 639.2z"/>
     <path class="fil3" d="M7186.06 7499.94c-23.02,-131.34 70.44,-257.46 208.77,-281.7 138.3,-24.25 269.08,62.58 292.1,193.93 23.02,131.32 -70.43,257.43 -208.76,281.67 -138.31,24.26 -269.1,-62.59 -292.11,-193.9z"/>
     <path class="fil2" d="M7459.54 7466.65l25.82 40.15c11.17,-12.04 11.19,-23.61 5.19,-32.93 -6.37,-9.9 -17.39,-10.39 -31.01,-7.22zm-87.19 -40.16c6.37,9.9 17.13,10.56 30.69,7.81l-25.13 -39c-10.57,11.21 -11.38,22.13 -5.56,31.19zm-18.48 -68.51l-20.38 -31.66 25.19 -16.24 19.83 30.83c26.03,-14.37 55.6,-21.01 77.3,-17.79l8.34 43.4c-19.33,-2.33 -42.36,1.71 -61.78,11.42l30.41 47.21c32.87,-10.39 70.82,-20.08 96.87,20.35 19.28,29.94 16.45,68.16 -20.07,98.88l20.21 31.36 -25.19 16.21 -19.83 -30.8c-19.99,10.49 -42.02,16.68 -62.24,15.69l-9.8 -42.87c18.12,-0.07 34.33,-3.68 48,-10.13l-30.95 -48.03c-32.66,10.66 -70.12,20 -95.8,-19.84 -18.93,-29.39 -16.17,-67.15 19.89,-97.99z"/>
     <path class="fil3" d="M7292.85 7202.17c149.84,-61.35 422.22,-238.33 574.35,-340.51 14.07,21.39 35.71,37.77 60.34,44.8 26.89,7.64 56.66,4.02 81.13,-9.37l156.28 321.07c-24.96,9.54 -44.35,32.76 -51.74,58.82 -7.1,24.97 -4.35,51.76 4.15,76.44 -41.74,22.65 -85.55,50.94 -136.86,84.25 -110.79,71.98 -248.65,161.51 -469.15,261.77 -221.57,100.74 -391.25,110.37 -494.59,100.69 -30.59,-2.85 -57.27,-7.54 -79.95,-12.8 -8.65,-29.18 -39.81,-104.41 -132.02,-114.07l-166.59 -320.92c17.02,-1.29 39.23,-11.54 43.54,-54.72 221.44,41.69 469.24,-37.33 611.11,-95.45zm-470.17 579.38l4.22 2.48c10.29,6.08 257.62,146.87 698.52,-53.61 222.8,-101.34 367.78,-195.46 473.62,-264.2 95.52,-62.07 164.58,-106.85 240.18,-126.91l19.96 -5.31 -285.45 -586.44 -16.29 11.38c-4.7,3.24 -470,326.79 -677.48,411.75 -164.73,67.45 -476.1,164.48 -710.86,56.34l-45.07 -20.76 298.65 575.28z"/>
     <path class="fil2" d="M2146.1 5422.1c0,0 -165.32,81.24 -381.49,209.62 -263.49,156.51 -806.04,464.15 -1152.78,221.15l-317.48 -623.24c0,0 203.78,93.43 513.86,53.2 276.52,-35.9 497.94,-181.65 597.5,-248.72 40.29,-27.15 93.37,-63.96 135.07,-88.92 69.73,-41.75 153.22,-103.04 275.04,-162.28l330.28 639.19z"/>
     <path class="fil3" d="M1009.56 5574.53c-23.02,-131.31 70.45,-257.45 208.77,-281.68 138.3,-24.27 269.1,62.59 292.12,193.91 23.01,131.34 -70.46,257.46 -208.77,281.69 -138.33,24.23 -269.11,-62.58 -292.12,-193.92z"/>
     <path class="fil2" d="M1283.03 5541.27l25.85 40.12c11.15,-12.01 11.17,-23.58 5.17,-32.93 -6.37,-9.89 -17.39,-10.38 -31.02,-7.19zm-87.18 -40.18c6.36,9.87 17.13,10.55 30.69,7.8l-25.13 -38.99c-10.58,11.2 -11.4,22.14 -5.56,31.19zm-18.46 -68.52l-20.41 -31.66 25.2 -16.21 19.83 30.8c26.04,-14.36 55.61,-21 77.29,-17.78l8.36 43.41c-19.34,-2.33 -42.39,1.7 -61.8,11.43l30.4 47.2c32.88,-10.4 70.83,-20.07 96.88,20.34 19.29,29.96 16.46,68.18 -20.06,98.88l20.21 31.35 -25.19 16.21 -19.83 -30.77c-19.99,10.46 -42.02,16.65 -62.24,15.69l-9.78 -42.9c18.1,-0.07 34.31,-3.7 47.98,-10.12l-30.95 -48.04c-32.67,10.67 -70.14,20.03 -95.82,-19.83 -18.93,-29.38 -16.16,-67.15 19.93,-98z"/>
     <path class="fil3" d="M1116.33 5276.79c149.85,-61.36 422.24,-238.34 574.37,-340.56 14.06,21.4 35.72,37.79 60.36,44.82 26.87,7.65 56.63,4.04 81.12,-9.37l156.28 321.07c-24.99,9.56 -44.35,32.77 -51.76,58.84 -7.08,24.96 -4.34,51.72 4.17,76.41 -41.75,22.67 -85.56,50.95 -136.88,84.29 -110.78,71.95 -248.65,161.49 -469.14,261.76 -221.57,100.75 -391.24,110.38 -494.59,100.69 -30.59,-2.86 -57.27,-7.54 -79.97,-12.83 -8.65,-29.16 -39.78,-104.4 -132,-114.03l-166.61 -320.94c17.04,-1.29 39.24,-11.54 43.57,-54.7 221.42,41.67 469.22,-37.35 611.08,-95.45zm-470.15 579.36l4.19 2.47c10.31,6.11 257.64,146.88 698.56,-53.6 222.8,-101.32 367.76,-195.46 473.6,-264.22 95.53,-62.03 164.58,-106.82 240.18,-126.89l19.98 -5.29 -285.46 -586.45 -16.3 11.37c-4.68,3.26 -470,326.79 -677.48,411.77 -164.73,67.42 -476.07,164.46 -710.84,56.34l-45.07 -20.78 298.64 575.28z"/>
     <path class="fil2" d="M7245.82 5524.41c0,0 316.7,-371.21 939.12,-132.14 23.66,9.11 48.01,16.45 73.02,20.8 52.08,9.03 136.23,15.48 212.32,-15.13 121.23,-48.77 293.66,-119.8 293.66,-119.8l533.24 315.55c0,0 -223.5,163.02 -439.97,176.71 -216.49,13.69 -472.31,-163.96 -720.5,-103.3 0,0 -176.94,26.82 -327.97,188.56l-562.92 -331.25z"/>
     <path class="fil3" d="M8531.12 5606.11c-23.98,21.48 -168.39,1.78 -322.55,-43.98 -154.15,-45.78 -259.68,-100.27 -235.72,-121.75 23.98,-21.47 168.39,-1.78 322.56,44 154.15,45.74 259.69,100.25 235.71,121.73z"/>
     <path class="fil2" d="M8321.81 5551.01c-3.11,-3.27 -14.15,-7.06 -29.39,-11.52l12.09 12.77c15.24,2.53 20.09,1.7 17.3,-1.25zm-76.88 -34.56l-12.46 -13.13c-16.12,-2.67 -20.36,-1.47 -17.48,1.59 3.06,3.23 14.45,7.12 29.94,11.54zm71.13 48.02l9.85 10.34 -32.42 -7.13 -9.56 -10.05c-32.62,-7.62 -66.1,-17.26 -87.71,-25.17l7.14 -7.35c19.44,6.98 45.17,14.6 69.1,20.38l-14.64 -15.45c-38.34,-10.41 -81.78,-22.65 -94.3,-35.88 -9.3,-9.8 7.68,-12.73 57.32,-3.14l-9.74 -10.26 32.4 7.12 9.57 10.09c24.82,5.9 50.23,12.93 71.14,20.1l-5.43 7.82c-19.06,-6.32 -37.43,-11.59 -54.13,-15.73l14.87 15.74c38.25,10.31 81.04,22.42 93.42,35.46 9.09,9.62 -7.62,12.53 -56.88,3.11z"/>
     <path class="fil3" d="M8531.12 5651.79c-36.01,-9.51 -74.28,-19.63 -115.47,-30 -236.27,-59.43 -432.08,23.75 -539.63,88.73 -79.39,-41.62 -134.6,-4.07 -154.9,14.29l-280.12 -169.6c54.03,-47.15 22.45,-87.87 4.13,-104.74 190.59,-101.86 383.65,-85.7 386.6,-85.48 98.39,2.76 197.72,34.55 277.54,60.22 44.56,14.33 82.98,26.71 113.1,31.45 14.74,2.3 27.99,4.62 40.27,6.73 64.45,11.2 103.35,17.94 182.72,-2.16 83.2,-21.07 172.81,-56.65 235.36,-83.74 20.2,17.3 72.95,50.17 151.34,10.88l285.8 169.07c-21.34,10.11 -53.32,36.45 -2.44,94.12 -210.48,98.93 -345.96,63.24 -584.3,0.23zm225.76 -335.74l-5.82 2.87c-1.67,0.82 -166.93,82.45 -311.58,119.07 -74.44,18.85 -109.35,12.8 -172.74,1.8 -12.38,-2.16 -25.78,-4.47 -40.64,-6.81 -28.26,-4.46 -65.9,-16.57 -109.5,-30.57 -80.58,-25.92 -180.7,-58.12 -280.93,-61.26l-2.5 -0.08c-2.77,-0.23 -278.77,-23.75 -502.71,156.43l-13.35 10.74 479.05 290.01 6.64 -6.1c2.56,-2.36 259.58,-234.51 607,-147.14 41.09,10.35 79.28,20.45 115.17,29.94 281.41,74.41 422.65,111.75 705.56,-58.16l17.23 -10.33 -490.88 -290.41z"/>
     <path class="fil2" d="M2423.6 2874.58c0,0 -5.08,-487.93 621.22,-716.56 23.84,-8.72 47.01,-19.15 68.7,-32.31 45.21,-27.39 112.9,-77.83 150.15,-150.91 59.37,-116.39 142.69,-283.23 142.69,-283.23l609.32 -112.38c0,0 -61.39,269.71 -215.6,422.24 -154.21,152.52 -463.8,186.64 -611.07,395.44 0,0 -115.76,136.49 -123.41,357.63l-642 120.08z"/>
     <path class="fil3" d="M3446.3 2091.8c-3.97,31.93 -125.78,111.96 -272.08,178.72 -146.28,66.78 -261.65,95 -257.68,63.08 3.97,-31.95 125.79,-111.98 272.07,-178.74 146.3,-66.77 261.65,-95.01 257.69,-63.06z"/>
     <path class="fil2" d="M3252.27 2187.76c-4.42,-0.42 -15.28,3.96 -29.68,10.62l17.49 1.68c13.16,-8.1 16.28,-11.92 12.19,-12.3zm-80.61 24.46l-18.04 -1.73c-13.89,8.59 -16.33,12.27 -12.14,12.66 4.44,0.45 15.56,-4.11 30.18,-10.93zm85.17 -10.55l14.2 1.35 -29.13 15.92 -13.8 -1.33c-29.6,15.7 -61.19,30.45 -82.65,38.66l0.53 -10.22c19.24,-7.52 43.65,-18.64 65.49,-30.02l-21.18 -2.03c-35.75,17.33 -76.53,36.62 -94.68,34.89 -13.44,-1.28 -2.56,-14.67 41.15,-40.01l-14.06 -1.36 29.12 -15.92 13.81 1.33c22.59,-11.86 46.4,-23.24 66.85,-31.57l1.02 9.45c-18.52,7.78 -35.82,15.83 -51.12,23.72l21.55 2.07c35.62,-17.36 75.83,-36.33 93.72,-34.61 13.2,1.27 2.47,14.44 -40.82,39.68z"/>
     <path class="fil3" d="M3476.31 2126.23c-33.39,16.47 -68.9,33.99 -106.78,53.24 -217.16,110.41 -310.15,301.76 -348.54,421.41 -87.2,20.79 -104.14,85.34 -107.38,112.53l-322.62 56.16c9.75,-71.06 -40.81,-81.01 -65.69,-81.67 76.77,-202.01 232.93,-316.68 235.3,-318.42 76.02,-62.57 171.78,-103.86 248.82,-136.93 42.99,-18.47 80.1,-34.39 105.93,-50.6 12.61,-7.93 24.13,-14.92 34.79,-21.37 55.92,-33.9 89.68,-54.38 136.32,-121.69 48.88,-70.52 93.08,-156.21 122.43,-217.77 26.6,-0.2 87.97,-10.07 121.26,-91.21l326.55 -60.27c-9.45,21.62 -16.25,62.5 60,72.54 -93.71,212.89 -219.31,275.01 -440.39,384.05zm-50.37 -401.44l-2.48 6.01c-0.7,1.7 -71.71,171.8 -156.7,294.43 -43.73,63.1 -74.03,81.5 -129.04,114.85 -10.76,6.52 -22.37,13.56 -35.11,21.56 -24.24,15.23 -60.57,30.82 -102.64,48.9 -77.79,33.4 -174.44,74.89 -252.05,138.36l-1.92 1.61c-2.26,1.62 -225.79,165.23 -276.27,448.18l-3.01 16.84 551.71 -96.03 0.98 -8.95c0.38,-3.47 41.65,-347.36 360.99,-509.71 37.77,-19.2 73.2,-36.68 106.5,-53.12 261.04,-128.75 392.05,-193.41 493.72,-507.34l6.21 -19.14 -560.89 103.55z"/>
     <path class="fil2" d="M6960.22 752.78c0,0 298.59,-385.94 931.72,-176.89 24.08,7.93 48.74,14.11 73.92,17.25 52.46,6.54 136.81,8.96 211.37,-25.27 118.76,-54.51 287.6,-133.71 287.6,-133.71l547.69 289.68c0,0 -215.41,173.54 -430.98,197.56 -95.57,10.65 -200.65,-15.88 -309.36,-42.42 -136.57,-33.32 -278.86,-66.65 -415.26,-26.29 0,0 -175.46,35.27 -318.58,204.03l-578.12 -303.94z"/>
     <path class="fil3" d="M8247.95 772.89c-22.91,22.6 -168.1,9.83 -324.26,-28.48 -156.18,-38.35 -264.2,-87.74 -241.27,-110.34 22.94,-22.61 168.11,-9.84 324.28,28.5 156.16,38.35 264.18,87.74 241.25,110.32z"/>
     <path class="fil2" d="M8036.23 727.88c-3.21,-3.1 -14.44,-6.39 -29.9,-10.1l12.69 12.17c15.35,1.8 20.16,0.74 17.21,-2.07zm-78.4 -30.84l-13.08 -12.52c-16.25,-1.9 -20.43,-0.51 -17.4,2.4 3.23,3.09 14.78,6.43 30.48,10.12zm73.34 44.55l10.31 9.88 -32.72 -5.57 -10.01 -9.61c-32.95,-6.05 -66.88,-14.07 -88.81,-20.93l6.76 -7.68c19.76,6.04 45.81,12.43 69.98,17.05l-15.35 -14.72c-38.79,-8.57 -82.75,-18.72 -95.93,-31.33 -9.73,-9.37 7.1,-13.1 57.14,-5.88l-10.21 -9.8 32.69 5.58 10.05 9.6c25.08,4.7 50.8,10.55 72,16.69l-5.05 8.05c-19.33,-5.39 -37.92,-9.79 -54.82,-13.09l15.63 14.98c38.71,8.48 82.01,18.53 94.98,30.96 9.58,9.19 -7.02,12.89 -56.64,5.82z"/>
     <path class="fil3" d="M8250.14 818.52c-36.41,-7.78 -75.12,-16.06 -116.77,-24.44 -238.84,-48.06 -430.46,44.38 -534.76,114.43 -81.3,-37.75 -134.64,2.37 -154.06,21.71l-287.9 -156.02c51.73,-49.7 18.24,-88.86 -0.88,-104.81 185.51,-110.88 379.13,-103.97 382.08,-103.85 98.4,-1.98 199.15,25.01 280.1,46.84 45.16,12.2 84.16,22.71 114.47,26.01 14.81,1.6 28.19,3.25 40.53,4.81 64.93,8.1 104.08,12.96 182.44,-10.91 82.09,-25.03 169.88,-64.84 231.07,-94.94 20.99,16.37 75.27,46.67 151.69,3.66l293.57 155.21c-20.83,11.11 -51.53,38.98 2.07,94.13 -205.53,108.88 -342.59,79.73 -583.65,28.17zm209.44 -346.17l-5.68 3.16c-1.6,0.92 -162.77,90.36 -305.5,133.84 -73.46,22.38 -108.64,18.01 -172.48,10.07 -12.47,-1.54 -25.94,-3.24 -40.9,-4.86 -28.47,-3.1 -66.62,-13.38 -110.84,-25.31 -81.75,-22.04 -183.29,-49.41 -283.53,-47.72l-2.52 0.05c-2.76,-0.12 -279.59,-10.41 -494.66,180.28l-12.8 11.33 492.35 266.8 6.34 -6.41c2.44,-2.48 248.07,-246.68 599.28,-176.02 41.52,8.38 80.17,16.64 116.48,24.39 284.65,60.86 427.5,91.4 701.95,-91.83l16.74 -11.17 -504.23 -266.6z"/>
     <path class="fil4" d="M9366.34 8835.85c0,2.96 -1934.26,5.33 -4319.76,5.33 -2386.28,0 -4320.14,-2.37 -4320.14,-5.33 0,-2.94 1933.86,-5.32 4320.14,-5.32 2385.5,0 4319.76,2.38 4319.76,5.32z"/>
     <path class="fil5" d="M8965.63 4463.74l12.93 21.51c14.52,24.1 35.65,43.56 60.87,56.05l22.48 11.1 -21.48 12.94c-24.13,14.52 -43.58,35.63 -56.06,60.88l-11.11 22.48 -12.93 -21.5c-14.51,-24.1 -35.64,-43.59 -60.89,-56.04l-22.46 -11.14 21.46 -12.93c24.14,-14.51 43.59,-35.63 56.07,-60.87l11.12 -22.48z"/>
     <path class="fil5" d="M2719.64 8469.17l12.52 20.86c14.08,23.38 34.58,42.26 59.04,54.38l21.81 10.75 -20.83 12.56c-23.39,14.09 -42.26,34.56 -54.37,59.02l-10.79 21.83 -12.54 -20.87c-14.08,-23.37 -34.55,-42.23 -59.04,-54.34l-21.81 -10.78 20.85 -12.56c23.39,-14.07 42.25,-34.56 54.36,-59.05l10.8 -21.8z"/>
     <path class="fil5" d="M1462.81 1644.9l22.53 37.48c25.31,42.06 62.16,75.99 106.16,97.74l39.19 19.39 -37.46 22.56c-42.07,25.29 -75.98,62.13 -97.75,106.13l-19.39 39.21 -22.54 -37.49c-25.32,-42.05 -62.14,-75.96 -106.15,-97.73l-39.2 -19.39 37.47 -22.56c42.06,-25.29 75.99,-62.13 97.74,-106.13l19.4 -39.21z"/>
     <path class="fil5" d="M5989 333.12l22.55 37.49c25.32,42.05 62.15,75.98 106.15,97.73l39.18 19.39 -37.46 22.56c-42.07,25.31 -75.99,62.14 -97.73,106.13l-19.41 39.21 -22.52 -37.47c-25.33,-42.07 -62.16,-75.98 -106.15,-97.75l-39.21 -19.39 37.49 -22.54c42.05,-25.31 75.96,-62.13 97.73,-106.15l19.38 -39.21z"/>
     <path class="fil5" d="M9410.34 3623.37l8.87 14.73c9.96,16.56 24.44,29.91 41.76,38.47l15.44 7.62 -14.76 8.87c-16.56,9.96 -29.9,24.45 -38.46,41.77l-7.62 15.43 -8.88 -14.75c-9.96,-16.55 -24.46,-29.88 -41.77,-38.45l-15.43 -7.62 14.76 -8.88c16.55,-9.96 29.89,-24.47 38.47,-41.76l7.62 -15.43z"/>
     <path class="fil5" d="M1863.65 3538.26l9.15 15.21c10.27,17.04 25.2,30.82 43.06,39.63l15.89 7.87 -15.19 9.16c-17.07,10.27 -30.84,25.21 -39.66,43.05l-7.87 15.91 -9.14 -15.21c-10.27,-17.06 -25.21,-30.82 -43.06,-39.65l-15.9 -7.88 15.2 -9.13c17.06,-10.26 30.82,-25.21 39.65,-43.05l7.87 -15.91z"/>
     <path class="fil5" d="M3425.57 873.9l9.16 15.18c10.27,17.07 25.2,30.85 43.05,39.65l15.9 7.88 -15.2 9.16c-17.07,10.24 -30.82,25.18 -39.65,43.03l-7.88 15.9 -9.13 -15.18c-10.27,-17.07 -25.21,-30.83 -43.06,-39.65l-15.9 -7.88 15.2 -9.16c17.05,-10.24 30.8,-25.2 39.66,-43.05l7.85 -15.88z"/>
     <path class="fil6" d="M6980.78 5609.21c0,22.03 132.12,605.42 132.12,605.42 0,0 275.19,-187.12 379.76,-275.18 104.57,-88.06 610.94,-555.9 610.94,-555.9l302.72 280.12c0,0 -1003.87,1366.05 -1359.75,1448.09 -182.68,42.08 -385.21,-95.93 -424.5,-193.4 -87.63,-217.45 -223.5,-1144.9 -223.5,-1144.9l196.94 -87.21 385.27 -77.04z"/>
     <path class="fil7" d="M7124.58 6215.86c0.23,2.28 -25.64,0.92 -62.46,16.41 -36.64,14.86 -82.06,49.64 -114.31,101.22 -32.17,51.79 -48,105.83 -59.3,144.4 -11.04,38.83 -17.55,63.08 -19.17,62.7 -1.4,-0.34 2.4,-25.12 11.52,-64.72 9.45,-39.26 24.22,-94.69 57.51,-148.32 33.5,-53.65 81.9,-89.07 120.84,-102.63 19.47,-7.01 36.1,-9.73 47.59,-10.11 11.47,-0.47 17.78,0.44 17.78,1.05z"/>
     <path class="fil6" d="M8023.14 5457.76c0,0 276.78,-309.88 388.34,-300.96 111.54,8.94 272.18,33.02 316.8,25.43 44.6,-7.58 169.54,0 169.54,0 0,0 290.04,-157.14 343.59,-144.82 0,0 49.76,-2.54 66.89,25.63 0,0 110.24,-69.77 189.86,-26.31l-289.07 240.67 88.18 -11.03c0,0 259.69,-137.18 341.75,-42.87l-195.98 105.34c0,0 162.92,-2.44 187.41,63.69l-365.02 58.8c0,0 -693.41,57.91 -730.17,73.83 -36.74,15.92 -183.39,205.91 -183.39,205.91l-328.73 -273.31z"/>
     <path class="fil7" d="M9312.3 5064.56c0.47,0.62 -5.74,6.6 -17.42,16.95 -11.79,10.22 -29.04,24.79 -51.1,41.86 -44.01,34.23 -107.03,79.03 -180.62,121.98 -34.94,20.23 -68.18,39.06 -100.56,54.01 -32.07,14.83 -66.74,21.53 -94.25,12.63l5.09 -2.81c-10.41,31.79 -35.35,47.02 -51.67,52.45 -8.46,2.85 -15.39,3.54 -19.99,3.69 -4.67,-0.02 -7.08,-0.41 -7.08,-0.78 -0.1,-1.15 9.82,-0.65 25.46,-7.2 14.98,-6.29 37.15,-21.84 45.37,-50.43l1.15 -3.93 3.93 1.13c25.15,7.15 56.7,0.61 87.73,-14.23 31.15,-14.9 64.64,-34.14 99.16,-54.14 73.16,-42.73 136.47,-86.19 181.55,-118.67 20.91,-15.31 38.64,-28.32 53.1,-38.94 12.5,-9.29 19.63,-14.15 20.15,-13.57z"/>
     <path class="fil7" d="M9209.09 5282.91c0.82,1.03 -12.7,14.2 -38.59,30.19 -25.77,15.92 -64.61,33.82 -110.45,42.57 -22.94,4.67 -45.03,5.43 -63.98,8.93 -19.08,3.1 -34.59,10.7 -48.28,17.17 -27.08,13.94 -47.12,15.35 -47.04,13.55 -0.08,-1.39 17.69,-5.1 43.45,-20.6 12.91,-7.21 29.63,-16.34 49.89,-20.22 20.03,-4.24 41.79,-5.28 63.85,-9.78 89.69,-16.88 149.47,-65.04 151.15,-61.81z"/>
     <path class="fil7" d="M9458.04 5308.1c0.8,1.05 -13.3,13.86 -39.21,30.35 -25.87,16.52 -64.14,35.82 -109.14,49.49 -45.04,13.59 -87.63,18.71 -118.28,19.28 -30.75,0.64 -49.57,-2.21 -49.47,-3.52 -0.15,-3.69 76.12,0.82 164.54,-26.44 88.63,-26.26 149.62,-72.29 151.56,-69.16z"/>
     <path class="fil4" d="M3874.57 7261.56c-299.4,466.1 -646.9,1049.08 -858.7,1574.29l3607.18 0 -430.84 -1574.29 -2317.64 0z"/>
     <path class="fil6" d="M1641.17 5557.53c0,0 254.89,373.55 341.36,472.06 86.45,98.52 450.85,620.21 640.39,829.62 191.97,212.07 396.33,324.33 530.09,324.33 137.32,0 276.27,-46.95 385.25,-302.97 157.36,-369.62 289.91,-1454.94 289.91,-1454.94l-614.83 -225.2 -223.54 1124.7c-59.97,-59.97 -1007.27,-943.25 -1007.27,-943.25l-217.04 89.77 -124.32 85.88z"/>
     <path class="fil6" d="M851.12 5097.43c0,0 14.46,-26.04 95.49,-14.47 81.01,11.58 222.81,95.5 254.64,95.5 31.82,0 387.75,11.56 457.18,28.91 69.45,17.39 177.44,27.77 241.1,94.34l103.17 91.36 -344.47 189.33c0,0 -31.62,-50.95 -109.75,-56.72 -78.13,-5.78 -436.94,-23.14 -436.94,-23.14l-277.79 -63.66 -353.01 -170.72c0,0 28.93,-69.45 101.27,-52.09 72.34,17.35 208.33,66.56 208.33,66.56l118.65 36.12 -312.51 -148.98c0,0 60.77,-69.45 159.14,-37.63 98.38,31.85 266.23,107.08 266.23,107.08l23.14 -8.69 -193.87 -133.1z"/>
     <path class="fil7" d="M1241.66 5302.96c0.21,2.54 -49.37,3.71 -105.82,-17.36 -56.64,-20.62 -93.6,-53.67 -91.79,-55.47 1.87,-2.63 40.56,25.77 95.39,45.69 54.63,20.41 102.5,23.92 102.22,27.14z"/>
     <path class="fil7" d="M1176.26 5392.51c0.09,1.24 -17.47,4 -46.13,3.46 -28.61,-0.47 -68.31,-5.28 -110.24,-18.2 -41.93,-12.99 -77.43,-31.45 -101.33,-47.17 -23.95,-15.76 -36.87,-27.95 -36.12,-28.89 1.86,-2.93 57.98,41.09 140.53,66.11 82.22,25.93 153.42,21.23 153.29,24.69z"/>
     <path class="fil7" d="M556.82 5305.31c-24.35,11.48 -40.4,38.55 -38.74,65.42 117.26,38.4 237.97,66.2 360.23,82.98l-321.49 -148.4z"/>
     <path class="fil7" d="M3206.87 6798.62c-2.09,-0.18 2.04,-31.19 -1.12,-81.05 -1.36,-24.9 -5.69,-54.37 -12.94,-86.46 -7.92,-31.97 -19.11,-66.5 -34.78,-101.13 -16.08,-34.45 -35.03,-65.41 -54.14,-92.22 -19.65,-26.42 -39.18,-48.9 -57.22,-66.15 -35.76,-34.85 -62.02,-51.87 -60.82,-53.57 0.41,-0.59 7.11,3.36 18.93,11.13 5.99,3.77 13.12,8.67 20.86,15.1 7.79,6.31 17.09,13.08 26.12,21.99 18.93,16.83 39.42,39.18 59.88,65.78 19.89,26.97 39.47,58.45 55.88,93.59 15.98,35.31 27.13,70.64 34.65,103.33 6.89,32.83 10.53,62.92 10.96,88.27 0.9,12.63 -0.02,24.12 -0.28,34.14 -0.16,10.06 -1.11,18.67 -2.14,25.67 -1.8,14.02 -3.15,21.68 -3.84,21.58z"/>
     <path class="fil8" d="M3794.69 4110.47c-85.05,52.48 -281.54,211.58 -484.97,641.9 -270.63,572.47 -340.84,929.67 -340.84,929.67l719.4 256.94 218.1 -1882.6c0,0 -83.6,36.75 -111.69,54.09z"/>
     <path class="fil8" d="M3638.45 4710.07c0,0 17.01,607.3 17.01,772.38 0,165.08 73.84,1405.52 73.84,1405.52 0,0 -0.48,408.34 253.49,401.99 253.97,-6.35 686.93,42.65 858.38,42.65 126.48,0 845.12,8.48 1223.45,-25.33 179.4,-16.05 248.37,-103.45 303.72,-245.48 7.51,-19.25 2.94,-8 7.51,-19.25 108.3,-266.53 24.59,-1406.45 24.59,-1406.45l-134.23 -1030.58 -305.94 -608.52 -1731.81 -5.4c-555.76,38.1 -556.02,265.87 -590.01,718.47z"/>
     <path class="fil8" d="M6684.35 4495.1c-285.13,-473.53 -724.08,-498.1 -724.08,-498.1l259.06 2134.76 204.41 -57c15.15,-5.04 768.49,-305.4 768.49,-305.4 0,0 -332.38,-982.81 -507.88,-1274.26z"/>
     <path class="fil4" d="M6176.24 4648.24c0.18,-0.08 1.04,1.32 2.53,4.15 1.76,3.42 3.87,7.58 6.45,12.66 5.39,11.26 13.99,27.57 23.47,49.29 19.79,43.09 45.98,106.64 73.32,186.98 55.52,160.35 108.1,390.34 132.29,648.19 24.36,257.91 22.54,492.61 20,661.92 -1.46,84.74 -3.42,153.27 -5.05,200.61 -0.9,22.95 -1.6,41.15 -2.13,54.51 -0.33,5.69 -0.61,10.35 -0.82,14.18 -0.27,3.2 -0.47,4.82 -0.67,4.82 -0.17,0 -0.31,-1.64 -0.44,-4.84 -0.06,-3.85 -0.14,-8.5 -0.22,-14.2 0.04,-13.35 0.08,-31.58 0.14,-54.55 0.41,-48.32 0.96,-116.6 1.64,-200.61 0.62,-169.27 1.24,-403.61 -23.09,-660.81 -24.1,-257.13 -75.32,-486.41 -128.83,-646.84 -26.33,-80.37 -51.35,-144.18 -69.95,-187.71 -8.88,-21.94 -16.85,-38.51 -21.6,-50.04 -2.19,-5.27 -4,-9.55 -5.48,-13.09 -1.18,-2.98 -1.69,-4.54 -1.56,-4.62z"/>
     <path class="fil9" d="M6426.9 6168.81c-0.95,-31.98 -2.02,-63.43 -3.16,-94.05 0.45,-0.14 1.5,-0.53 3.09,-1.14 0.15,33.32 0.13,65.12 0.07,95.19z"/>
     <path class="fil10" d="M5402.45 6720.42l-486.1 -662.23c0,0 58.74,-63.88 159.86,-124.87l370.89 505.3c0,0 208.68,-283.44 369.94,-380.15 101.63,-60.93 238.7,-97.07 378.18,-125.35l24.11 198.64 204.41 -57 0 0c1.14,30.62 2.21,62.07 3.16,94.05 0,2.03 -0.02,4.05 -0.02,6.06 -211.18,45 -493.1,74.08 -667.19,178.46 -155.73,93.36 -357.24,367.09 -357.24,367.09z"/>
     <path class="fil10" d="M6219.33 6131.76l-24.11 -198.64c77.39,-15.72 155.52,-29 228.71,-42.75 1.86,64.9 2.64,126.3 2.9,183.25 -1.59,0.61 -2.64,1 -3.09,1.14l0 0 -204.41 57z"/>
     <path class="fil9" d="M6434.83 6173.15c0.43,-32.36 0.75,-66.76 0.86,-102.96 2.5,-0.97 5.37,-2.1 8.61,-3.37 5.22,32.11 10.77,65.76 16.62,100.49 -8.58,1.99 -17.26,3.93 -26.09,5.84z"/>
     <path class="fil11" d="M6460.92 6167.31c-5.85,-34.73 -11.4,-68.38 -16.62,-100.49 69.86,-27.44 302.18,-119.87 489.55,-194.5l14.12 11.59c0,0 -141.19,131.24 -320.08,227.37 -42.89,23.06 -100.62,40.66 -166.97,56.03z"/>
     <path class="fil10" d="M6435.69 6070.19c0.15,-56.52 -0.29,-117.4 -1.86,-181.68 114.16,-21.69 215.57,-44.85 282.24,-80.67 28.22,-15.16 55.54,-31.16 81.57,-47.42l136.21 111.9c-187.37,74.63 -419.69,167.06 -489.55,194.5 -3.24,1.27 -6.11,2.4 -8.61,3.37z"/>
     <path class="fil12" d="M6426.88 6174.87c0,-2.01 0.02,-4.03 0.02,-6.06 0.06,-30.07 0.08,-61.87 -0.07,-95.19 -0.26,-56.95 -1.04,-118.35 -2.9,-183.25 3.32,-0.61 6.59,-1.24 9.9,-1.86 1.57,64.28 2.01,125.16 1.86,181.68 -0.11,36.2 -0.43,70.6 -0.86,102.96 -2.62,0.57 -5.31,1.15 -7.95,1.72z"/>
     <path class="fil12" d="M5691.19 8560.07c0,0 -184.74,-7.12 -363.24,-117.26 -144.8,-89.34 -531.65,-389.79 -649.62,-456.43 -215.65,-121.83 -424.14,-158.79 -424.14,-158.79l-4.96 -284.77c74.01,17.71 233.08,62.96 396.1,155.06 122.16,69.02 522.78,380.15 672.73,472.66 184.8,114.03 376.14,121.44 376.14,121.44l125.16 -528.19c37.75,-1.41 61.25,-3.04 61.25,-3.04l-189.42 799.32z"/>
     <path class="fil9" d="M3181.19 5042.47c-2.32,-0.72 -4.62,-1.46 -6.91,-2.22l73 -155.53c0.61,-0.17 1.25,-0.31 1.84,-0.47 -24.59,55.18 -47.19,107.95 -67.93,158.22z"/>
     <path class="fil10" d="M3263.55 5054.32c-28.16,0 -55.87,-3.76 -82.36,-11.85 20.74,-50.27 43.34,-103.04 67.93,-158.22 77.57,-19.37 153.87,-60.22 255.49,-160.38 60.76,-59.89 108.04,-162.81 141.89,-259.16 4.38,-0.13 8.76,-0.27 13.12,-0.39 -8.87,73.03 -14.35,154.87 -21.17,245.75 0,0 1.17,41.91 2.91,106.73 -16.32,24.1 -33.1,47.3 -49.97,69.33 -73.62,96.32 -204.82,168.19 -327.84,168.19z"/>
     <path class="fil10" d="M3641.36 4816.8c-1.74,-64.82 -2.91,-106.73 -2.91,-106.73 6.82,-90.88 12.3,-172.72 21.17,-245.75 46.56,-1.41 91.91,-2.56 132.01,-2.56 1.2,0 2.4,0 3.57,0 -17.87,122.34 -81.15,247.7 -153.84,355.04z"/>
     <path class="fil4" d="M3672.7 5205.26c0.39,0 0.81,5.82 1.33,16.89 0.45,12.03 1.04,28.14 1.78,48.37 1.19,43.09 2.87,103.63 4.91,177.98 4.04,151.18 9.55,358.32 15.68,587.13 6.66,229.31 13.92,436.87 20.62,587.04 3.56,74.27 6.5,134.72 8.59,177.76 0.94,20.25 1.72,36.32 2.3,48.36 0.4,11.07 0.44,16.89 0.08,16.91 -0.37,0.03 -1.13,-5.72 -2.25,-16.77 -1.06,-11.99 -2.5,-28.06 -4.3,-48.22 -3.73,-41.89 -7.52,-102.62 -11.96,-177.67 -8.63,-150.14 -17.07,-357.71 -23.76,-587.08 -6.72,-229.32 -10.59,-436.98 -12.53,-587.32 -0.64,-74.39 -1.18,-134.95 -1.53,-178.04 0.1,-20.24 0.18,-36.38 0.21,-48.43 0.18,-11.07 0.46,-16.91 0.83,-16.91z"/>
     <path class="fil9" d="M3692.12 6475.5c-8.67,-19.57 -16.84,-39.2 -24.62,-58.95 9.11,-43.18 17.94,-87.28 26.48,-131.63 0.37,10.08 0.76,20.04 1.13,29.97 -0.7,54.12 -1.71,107.68 -2.99,160.61z"/>
     <path class="fil11" d="M3667.5 6416.55c-66.29,-169.05 -99.67,-345 -106.47,-523.03l114.33 40.85c5.45,103.45 11.54,214.66 17.6,323.28 0.35,9.13 0.67,18.23 1.02,27.27 -8.54,44.35 -17.37,88.45 -26.48,131.63z"/>
     <path class="fil10" d="M3675.36 5934.37l-114.33 -40.85c-8.7,-226.83 25.75,-457.06 90.11,-680.83 2.47,112.91 4.32,215.36 4.32,269.76 0,56.28 8.58,237.46 19.9,451.92z"/>
     <path class="fil10" d="M3692.96 6257.65c-6.06,-108.62 -12.15,-219.83 -17.6,-323.28 -11.32,-214.46 -19.9,-395.64 -19.9,-451.92 0,-54.4 -1.85,-156.85 -4.32,-269.76 6.86,-23.83 14.05,-47.61 21.56,-71.28 13.39,285.04 22.23,590.26 23.56,888.95 -6.07,-226.72 -11.54,-431.83 -15.54,-581.86 -2.04,-74.35 -3.72,-134.89 -4.91,-177.98 -0.74,-20.23 -1.33,-36.34 -1.78,-48.37 -0.52,-11.07 -0.94,-16.89 -1.33,-16.89 -0.37,0 -0.65,5.84 -0.83,16.91 -0.03,12.05 -0.11,28.19 -0.21,48.43 0.35,43.09 0.89,103.65 1.53,178.04 1.94,150.34 5.81,358 12.53,587.32 2.24,76.78 4.68,151.12 7.24,221.69z"/>
     <path class="fil12" d="M3695.11 6314.89c-0.37,-9.93 -0.76,-19.89 -1.13,-29.97 -0.35,-9.04 -0.67,-18.14 -1.02,-27.27 -2.56,-70.57 -5,-144.91 -7.24,-221.69 -6.72,-229.32 -10.59,-436.98 -12.53,-587.32 -0.64,-74.39 -1.18,-134.95 -1.53,-178.04 0.1,-20.24 0.18,-36.38 0.21,-48.43 0.18,-11.07 0.46,-16.91 0.83,-16.91 0.39,0 0.81,5.82 1.33,16.89 0.45,12.03 1.04,28.14 1.78,48.37 1.19,43.09 2.87,103.63 4.91,177.98 4,150.03 9.47,355.14 15.54,581.86 0.43,95.8 0.09,190.93 -1.15,284.53z"/>
     <path class="fil4" d="M5926.52 1968.77c-46.54,-152.85 -157.27,-285.03 -299.61,-357.62 -156.38,-79.75 -342.75,-86.54 -513.82,-47.19 -171.1,39.37 -329.2,121.83 -478.58,214.05 -83.82,51.75 -167.24,108.37 -226.3,187.18 -107.79,143.86 -211.71,378.04 -217.37,557.72 -4.57,145.29 61.31,506.81 126.38,636.8 23.15,46.23 77.42,87.18 142.7,121.6 70.22,128.14 162.11,244.35 272.63,340.03 30.82,-98.35 61.67,-196.69 92.48,-295.06l1101.49 -1357.51z"/>
     <path class="fil4" d="M5837.83 1792.33l-287.32 -42.94c166.89,367.68 233.54,1217.46 334.18,1608.51 101.01,-155.89 332.42,-628.54 314.02,-813.38 -18.37,-184.86 -22.13,-793.43 -360.88,-752.19z"/>
     <path class="fil6" d="M4500.22 2450.47c9.18,-217.84 144.83,-400.19 354.5,-460.09l653.49 -186.74c283.62,-38.85 483.6,305.72 510.38,590.72 29.74,316.66 52.06,651.07 21.77,888.93 -60.98,478.34 -423.95,550.15 -423.95,550.15 -0.05,-0.72 6.4,226.47 10.11,365.51l-387.61 808.51 -603.13 -968.96 -137.07 -1582.19c-0.42,-8.16 1.04,5.02 1.51,-5.84z"/>
     <path class="fil4" d="M5836.31 2743.99c2.13,32.21 -23.39,60.55 -56.99,63.42 -33.49,2.83 -62.47,-20.9 -64.62,-53.12 -2.11,-32.21 23.4,-60.59 56.89,-63.42 33.6,-2.85 62.58,20.93 64.72,53.12z"/>
     <path class="fil4" d="M5952.47 2582.89c-7.34,8.2 -54.64,-24.59 -120.34,-22.42 -65.67,1.25 -112.82,36.55 -120.2,28.74 -3.6,-3.47 3.67,-18.08 24.19,-34.01 20.18,-15.83 55,-31.74 95.93,-32.82 40.92,-1.02 75.8,12.98 96.04,27.78 20.68,14.88 27.96,29.07 24.38,32.73z"/>
     <path class="fil4" d="M5269.06 2744.01c2.13,32.19 -23.39,60.56 -56.95,63.4 -33.52,2.82 -62.49,-20.9 -64.64,-53.12 -2.13,-32.19 23.39,-60.59 56.94,-63.42 33.56,-2.85 62.52,20.95 64.65,53.14z"/>
     <path class="fil4" d="M5328.53 2600.72c-7.34,8.2 -54.69,-24.59 -120.34,-22.42 -65.63,1.25 -112.81,36.52 -120.16,28.71 -3.62,-3.46 3.58,-18.06 24.18,-33.98 20.18,-15.85 54.98,-31.75 95.88,-32.84 40.92,-1.02 75.83,12.97 96.09,27.79 20.62,14.87 27.94,29.06 24.35,32.74z"/>
     <path class="fil4" d="M5548.64 3110.82c-0.41,-3.71 40.2,-12.04 106.12,-22.53 16.73,-2.25 32.48,-6.06 34.96,-17.59 3.59,-12.27 -3.98,-30.12 -12.72,-49.38 -17.03,-40.11 -34.85,-82.16 -53.54,-126.22 -74.47,-179.73 -128.96,-327.74 -121.7,-330.66 7.28,-2.94 73.55,140.35 148.02,320.11 17.98,44.3 35.15,86.59 51.5,127.02 6.93,18.87 18.5,40.16 10.72,65.58 -4.15,12.66 -16.17,22.16 -26.83,25.36 -10.65,3.61 -20.11,4.08 -28.38,4.84 -66.46,5.64 -107.78,7.2 -108.15,3.47z"/>
     <path class="fil7" d="M4980.19 3682.06c0,0 164.25,322.56 639.3,263.35l-3.08 -111.97c0,0 -313.09,29.55 -636.22,-151.38z"/>
     <path class="fil4" d="M5301.13 2363.93c-5.93,18.03 -71.77,11.59 -148.54,23.26 -77.03,10.12 -138.46,34.59 -149.2,18.87 -4.79,-7.52 5.53,-24.66 30.12,-42.73 24.37,-18.01 63.61,-35.66 109.72,-42.23 46.12,-6.48 88.69,-0.43 117.12,10.1 28.65,10.55 43.31,24.14 40.78,32.73z"/>
     <path class="fil4" d="M5925.27 2382.57c-11.09,15.25 -56.8,1.17 -111.26,2.11 -54.45,-0.96 -100.19,13.12 -111.28,-2.14 -4.87,-7.46 1.93,-22.61 21.62,-37.37 19.41,-14.67 52.26,-27.21 89.69,-27.23 37.41,0.04 70.22,12.56 89.62,27.28 19.73,14.73 26.5,29.89 21.61,37.35z"/>
     <path class="fil4" d="M5876.87 1963.26c-31.16,-70.79 -110.99,-111.56 -188.34,-113.28 -77.34,-1.7 -151.92,29.69 -217.75,70.31 -278.83,171.96 -413.25,571.92 -688.55,749.47 -67.71,43.68 -158.48,8.04 -215.51,64.95 -57.02,56.9 -92.5,146.26 -57.99,219.04 -39.1,-50.53 -78.75,-102.01 -101.88,-161.6 -23.13,-59.6 -27.8,-129.54 2.56,-185.77 23.05,-42.69 64.92,-75.97 75.34,-123.35 9.16,-41.68 -8.41,-84.51 -7.83,-127.18 0.57,-43.44 19.86,-84.27 40.15,-122.67 104.18,-197.2 250.11,-377.05 441.39,-491.75 124.96,-74.94 269.02,-120.79 414.71,-119.98 145.7,0.79 292.62,50.16 402,146.44 64.33,56.62 131.92,115.18 101.7,195.37z"/>
     <path class="fil6" d="M4575.27 2793.53c-5.39,-13.53 -256.26,-96.06 -252.05,167.98 4.14,256.5 261.41,198.65 261.74,191.28 0.29,-7.36 -9.69,-359.26 -9.69,-359.26z"/>
     <path class="fil7" d="M4503.95 3057.15c-1.12,-0.81 -4.4,3.19 -11.89,6.79 -7.29,3.53 -19.92,6.1 -33.38,1.36 -27.29,-9.45 -50.92,-52.01 -53.05,-98.23 -1.11,-23.34 3.36,-45.66 11.27,-64.19 7.47,-18.92 19.37,-32.28 32.95,-34.97 13.52,-3.4 23.34,4.59 26.6,11.76 3.59,7.1 2.05,12.24 3.42,12.66 0.74,0.62 5.43,-4.39 3.15,-14.95 -1.16,-5.08 -4.28,-11.07 -10.41,-15.88 -6.24,-4.88 -15.34,-7.28 -24.81,-6.05 -19.77,1.74 -37.21,20.27 -45.93,40.66 -9.79,20.47 -15.35,45.58 -14.11,71.79 2.64,51.64 30.02,99.51 67.3,109.51 18.13,4.36 33.09,-1.37 40.73,-7.56 7.83,-6.49 9.06,-12.28 8.16,-12.7z"/>
     <path class="fil8" d="M4469.5 2664.64c0.21,0.35 5.43,-2.76 15.22,-9.05 9.64,-6.53 24.54,-15.27 42.24,-28.58 35.08,-26.92 83.61,-69.39 134.83,-129.94 51.54,-60.25 105.06,-138.02 163.01,-224.77 58.09,-86.52 121.83,-182.33 204.08,-269.52 41.95,-42.65 86.23,-81.13 133.48,-111.79 47.11,-30.91 96.74,-54.08 145.58,-71.15 97.85,-34.6 192.44,-44.24 270.67,-41.11 78.57,2.66 141.07,17.54 182.98,30.47 21.27,5.78 37.05,12.44 47.99,16.25 10.93,3.93 16.76,5.83 16.93,5.45 0.16,-0.37 -5.34,-2.99 -16.02,-7.64 -10.72,-4.53 -26.3,-11.89 -47.51,-18.41 -41.76,-14.34 -104.6,-30.64 -184.01,-34.4 -79.06,-4.22 -175.07,4.65 -274.58,39.2 -49.7,17.03 -100.24,40.39 -148.27,71.69 -48.17,31.08 -93.2,70.15 -135.68,113.32 -83.28,88.28 -147.02,184.81 -204.62,271.66 -57.47,87.07 -110,164.93 -160.39,225.42 -50.03,60.8 -97.25,103.8 -131.27,131.66 -17.15,13.78 -31.56,23.08 -40.72,30.19 -9.35,6.91 -14.17,10.72 -13.94,11.05z"/>
     <path class="fil13" d="M4476.12 3103.3c-25.13,-3.94 -51.68,14.2 -57.16,39.01 -5.48,24.8 10.97,52.46 35.4,59.45 24.4,7.03 53.01,-7.66 61.54,-31.6 8.55,-23.94 -4.35,-53.41 -27.71,-63.4l-12.07 -3.46z"/>
     <path class="fil4" d="M4488.19 3106.76c-1.44,1.56 16.99,8.4 24.04,33.79 3.32,12.11 2.17,28.36 -8.87,40.54 -10.44,12.13 -29.68,20.04 -47.38,15.06 -17.67,-5.19 -29.78,-22.11 -32.18,-37.93 -2.89,-16.18 4.76,-30.56 14,-39.07 19.47,-17.76 38.69,-13.78 38.32,-15.85 0.12,-0.64 -4.01,-2.55 -12.11,-2.48 -7.95,0.04 -20.09,2.8 -31.66,12.09 -11.4,8.77 -22.19,26.37 -19.24,46.83 2.43,19.66 16.51,40.69 39.63,47.68 23.3,6.36 46.38,-4.01 58.87,-19.38 13.34,-15.77 13.57,-36.42 8.56,-49.91 -4.87,-14.02 -13.68,-22.79 -20.42,-27.05 -6.83,-4.34 -11.33,-4.93 -11.56,-4.32z"/>
     <path class="fil4" d="M4536.06 2735.37c-2.03,70.14 -3.13,144.18 31.01,205.49 34.12,61.32 116.93,101.33 176.84,64.79 48.87,-29.82 61.91,-93.87 68.7,-150.71 19.66,-163.98 26.1,-329.4 47.17,-493.25l-323.72 373.68z"/>
     <path class="fil8" d="M5810.23 1843.1c-0.22,1.49 -22.76,-3.63 -63.88,-3.78 -40.89,0.08 -101.1,7.2 -168.81,35.87 -33.73,14.26 -69.53,32.93 -104.76,57.77 -35.27,24.77 -71.13,54.31 -107.28,86.87 -71.74,65.66 -145.74,144.29 -208.11,237.6 -31.27,46.67 -58.75,94.53 -88.78,138.96 -29.71,44.57 -63.05,85.01 -99.5,118.53 -72.7,66.88 -148.17,114.47 -212.54,151.14 -64.64,36.55 -118.78,62.41 -156.12,80.29 -17.66,8.11 -32.01,14.71 -43.32,19.92 -10,4.4 -15.32,6.5 -15.56,6.04 -0.22,-0.45 4.7,-3.4 14.27,-8.64 11,-5.85 24.96,-13.24 42.09,-22.35 36.57,-19.4 89.93,-46.6 153.54,-84.08 63.34,-37.59 137.5,-85.65 208.57,-152.04 35.4,-33.04 67.65,-72.56 96.86,-116.7 29.47,-43.96 56.93,-91.87 88.52,-139.07 63.29,-94.67 138.29,-173.72 211.18,-239.46 36.81,-32.66 73.16,-62.03 109.4,-86.85 36.25,-24.92 73.06,-43.45 107.69,-57.38 69.58,-27.99 131.28,-33.69 172.74,-32.01 20.83,0.78 36.92,3.09 47.64,5.25 10.72,2.23 16.27,3.63 16.16,4.12z"/>
     <path class="fil8" d="M4524.45 2577.18c0.44,0.75 -7.42,6.34 -22.22,15.97 -17.27,10.79 -38.55,24.11 -63.85,39.95 -6.93,4.22 -14.11,8.61 -21.53,13.15 -8.02,4.72 -16.89,8.93 -27.78,10.11 -5.37,0.48 -11.77,0.17 -17.49,-3.58 -5.69,-3.64 -9.44,-9.93 -10.08,-16.64 -0.9,-13.47 6.03,-23.59 11.2,-32.78 22.04,-37.67 46.24,-78.97 71.92,-122.82l10.44 9.16c-23.52,18.5 -51.11,33.5 -81.23,43.44 -30.21,9.98 -61.45,14.36 -91.47,13.42 -7.34,-0.02 -15.63,-0.78 -23.39,-3.32 -7.55,-2.43 -16.41,-7.3 -20.36,-16.76 -4.08,-9.26 -0.8,-19.74 3.55,-26.03 4.28,-6.72 9.66,-11.72 14.15,-16.47 37.07,-37.96 64.52,-77.61 84.16,-112.63 39.21,-70.54 49.48,-120.57 52.18,-119.67 0.83,0.19 -0.98,12.71 -7.08,34.75 -6.31,21.9 -17.1,53.42 -36.12,89.77 -18.87,36.31 -46.08,77.52 -83.59,117 -9.3,9.32 -18.48,20.02 -14.54,27.99 3.25,7.99 17.96,11.53 31.43,11.27 28.38,0.68 57.93,-3.55 86.56,-13.01 28.53,-9.41 54.69,-23.53 77.03,-40.86l29.99 -23.26 -19.55 32.42c-26.25,43.52 -50.95,84.53 -73.49,121.9 -5.68,9.05 -10.74,17.96 -10.19,25.35 0.54,7.28 6.89,11.36 15.09,10.49 16.6,-1.33 31.31,-13.05 45.53,-20.3 26.17,-14.4 48.14,-26.5 65.97,-36.33 15.61,-8.26 24.32,-12.42 24.76,-11.68z"/>
     <path class="fil7" d="M5302.24 3239.1c7.58,-39.34 46.72,-70.48 86.73,-67.61 29.32,2.11 56.31,21.15 70.29,47.04 13.99,25.88 15.47,57.66 6.35,85.62l-1.21 6.21c-26.05,30.44 -72.32,42.21 -109.19,26.52 -36.89,-15.72 -60.58,-58.43 -52.97,-97.78z"/>
     <path class="fil4" d="M5415.05 3332.29c0.84,0.83 -2.56,6.92 -13.03,13.11 -10.21,6.07 -28.18,11.87 -50.19,7.51 -22.07,-4 -46.03,-21.07 -59.12,-47.59 -13.79,-26.42 -14.19,-61.68 -1.56,-92.4 6.45,-15.32 14.47,-29.58 27.17,-41.12 12.46,-11.92 31.99,-16.73 47.22,-13.42 30.66,6.95 48.43,25.16 64.7,36.39 32.15,24.39 51.16,40.68 49.49,43.12 -1.67,2.42 -23.71,-9.47 -58.03,-30.7 -17.26,-10.07 -36.96,-25.74 -59.31,-29.41 -10.99,-1.49 -21.28,1.28 -30.05,9.56 -8.79,8.09 -16.02,20.59 -21.37,33.52 -10.64,26.17 -10.68,54.37 -0.53,75.95 9.81,21.9 27.78,36.56 45,41.46 17.5,5.27 33.19,2.72 43.13,-0.45 10.19,-3.16 15.37,-6.84 16.48,-5.53z"/>
     <path class="fil5" d="M6989.53 2849.6c0,0 179.34,67.06 319.02,233.34 113.32,134.91 396.05,556.07 490.36,659.94 172.42,189.87 373.56,267.85 373.56,267.85l-224.29 720.21c0,0 -180.93,-84.34 -342.85,-218.52 -163.98,-135.89 -338.39,-564.11 -570.45,-738.69 -150.27,-113.06 -491.4,-199.8 -491.4,-199.8l446.05 -724.33z"/>
     <path class="fil14" d="M7930.88 4684.38l-19.27 -8.88c-1.8,-0.84 -45.03,-20.98 -110.47,-64.66 -60.1,-40.12 -151.07,-108.67 -243.19,-207.22 -82.05,-87.79 -141.69,-188 -204.83,-294.08 -88.3,-148.38 -179.62,-301.79 -337.52,-417.15 -118.61,-86.69 -370.1,-154.72 -372.63,-155.4l-24.43 -6.54 390.52 -607.81 13.32 3.96c5.74,1.72 142.8,44.47 314.9,255.53 53.84,66.03 125.39,163.44 201.14,266.56 99.94,135.99 203.25,276.62 270.2,350.57 95.17,105.15 318.16,231.63 320.23,233.04l-197.97 652.08zm-563.66 -623.3c5.91,9.88 11.76,19.73 17.63,29.57 62.09,104.35 120.74,202.88 200.06,287.76 99.87,106.85 198.69,178.21 264.31,219.46 -6.45,-36.84 15.87,-61.83 39.13,-61.83 14.93,0 30.21,10.27 38.56,34.27l133.1 -438.38 -3.42 1.3c-2.26,0.5 -4.49,0.72 -6.68,0.72 -22.79,0 -40.85,-25.09 -44.95,-45.92 -5.72,-29.02 6.18,-43.81 27.93,-52.2 -69.39,-50.21 -184.76,-137.89 -251.62,-211.8 -35.19,-38.85 -79.89,-95.35 -128.69,-159.64 33.14,116.03 -12.82,231.51 -60.69,312.07 -36.87,62.02 -107.19,93.22 -170.36,93.22 -19.14,0 -37.63,-2.85 -54.31,-8.6zm-620.45 -623.07c20.14,0 36.81,11.57 43.49,36.84 4.14,15.63 -6.27,45.23 -19.35,63.12 84.84,29 195.98,73.08 266.5,124.6 98.2,71.77 170.97,156.79 232.98,245.99 -17.46,-96.43 -8.12,-222.49 58.32,-315.75 51.19,-71.85 104.66,-98.99 152.08,-98.99 19.14,0 37.3,4.44 53.92,12.12 -8.69,-11.82 -17.36,-23.63 -26.02,-35.38 -75.5,-102.77 -146.78,-199.77 -200.04,-265.11 -85.74,-105.19 -161.95,-165.81 -210.79,-198.13l-4.12 -2.66c-3.49,38.82 -40.76,73.29 -76.44,73.29 -16.27,0 -32.21,-7.17 -44.45,-24.35l-1.98 -3.2 -253.68 394.84c10.18,-4.76 20.26,-7.23 29.58,-7.23z"/>
     <path class="fil5" d="M7473.4 3752.99l29.84 -47.75c-18.41,-5.88 -30.78,-0.06 -37.7,11.02 -7.37,11.77 -2.37,23.77 7.86,36.73zm0.92 113.26c7.38,-11.78 2.64,-23.6 -7.08,-36.71l-29 46.4c17.28,5.68 29.36,1.05 36.08,-9.69zm-63.82 54.08l-23.53 37.67 -29.96 -18.74 22.89 -36.63c-28.4,-20.58 -50.34,-48.78 -57.81,-73.53l42.12 -30.75c7.23,21.83 23.11,44.4 43.24,60.22l35.08 -56.15c-27.58,-29.86 -56.97,-65.52 -26.91,-113.62 22.25,-35.64 64.46,-51.82 115.58,-28.28l23.3 -37.32 29.97 18.71 -22.89 36.65c21.22,16.08 38.91,36.47 48.01,58.55l-40.83 31.98c-9.21,-19.3 -21.18,-34.75 -34.91,-46.15l-35.73 57.18c27.8,29.53 56.59,64.82 26.96,112.22 -21.87,34.98 -63.56,51.01 -114.58,27.99z"/>
     <path class="fil5" d="M4943.76 5752.84c0,0 129.61,-140.93 336.22,-207.78 167.64,-54.26 664.18,-157.78 795.91,-206.1 240.82,-88.32 388.74,-245.34 388.74,-245.34l582.9 478.78c0,0 -146.2,135.88 -331.46,235.44 -187.59,100.81 -649.95,101.3 -899.03,250.63 -161.26,96.71 -369.94,380.15 -369.94,380.15l-503.34 -685.78z"/>
     <path class="fil14" d="M5435.03 6352.71l-416.23 -590.48 8.69 -10.85c3.72,-4.69 94.9,-115.6 355.18,-195.62 81.47,-25.06 198.62,-54.72 322.67,-86.12 163.57,-41.43 332.75,-84.24 426.47,-118.44 133.21,-48.65 334.29,-207.66 336.38,-209.05l529.7 428.75 -15.49 14.49c-1.43,1.38 -36.35,33.88 -101.46,78.07 -59.8,40.57 -157.51,99.09 -283.49,147.33 -112.19,43.02 -227.47,60.56 -349.52,79.17 -170.71,26 -347.22,52.89 -513.5,155.77 -124.92,77.3 -282.58,284.73 -284.13,286.82l-15.27 20.16zm321.95 -858.07c-14.2,3.6 -28.4,7.21 -42.61,10.79 -123.55,31.27 -240.28,60.84 -320.84,85.62 -129.71,39.88 -214.55,87.67 -262.89,120.75l-3.99 2.82c50.43,25.97 65.42,114.8 -0.14,130.42l-3.73 0.63 270.41 383.6c-1.69,-32.57 14.05,-57.14 46.07,-57.14 2.83,0 5.78,0.18 8.85,0.57 16.03,2.06 39.55,22.83 51.21,41.68 58.77,-67.7 141.44,-154.1 215.71,-200.05 103.43,-63.99 209.59,-99.44 315.57,-123.32 -95.93,-20.11 -209.22,-76.18 -270.62,-172.82 -66.43,-104.51 -49.5,-180.03 -3,-223.55zm678.39 -262.26c-72.64,45.41 -197.27,119.32 -290.91,153.49 -49.25,17.98 -118.41,38.12 -196.3,59.17 119.96,12.93 209.67,98.99 266.29,173.63 56.78,74.92 43.78,182.75 -6.11,239.99 11.37,-1.75 22.71,-3.47 34.02,-5.2 120.02,-18.29 233.39,-35.55 341.9,-77.11 136.56,-52.35 239.85,-117.06 302.74,-162.35 -58.66,-12.65 -61.16,-82.47 -0.5,-82.47 1.36,0 2.78,0.05 4.21,0.11l-356.1 -288.22 -0.09 3.65c-3.82,21.93 -28.36,31.89 -49.67,31.89 -4.04,0 -7.97,-0.35 -11.62,-1.06 -29.04,-5.62 -38.3,-22.2 -37.86,-45.52z"/>
     <path class="fil5" d="M6068.53 5687.68c-8.13,-11.25 -20.86,-11.36 -36.64,-7.26l32.08 44.31c11.74,-13.88 12,-26.81 4.56,-37.05zm-105.27 -41.79l-33 -45.6c-12.4,14.84 -11.65,28.48 -4,39.1 8.17,11.25 21.16,11.11 37,6.5zm131.4 121.25l26.03 35.95 -28.64 20.74 -25.32 -35c-29.71,18.59 -64.12,28.3 -89.85,25.9l-12.64 -50.59c22.92,1.53 49.78,-4.74 72.02,-17.39l-38.82 -53.63c-38.05,14.3 -82.14,28.12 -115.39,-17.78 -24.62,-34.06 -23.76,-79.25 17.3,-117.76l-25.82 -35.65 28.62 -20.74 25.35 35.02c22.86,-13.61 48.41,-22.34 72.28,-22.46l14.28 49.86c-21.35,1.25 -40.18,6.55 -55.88,14.98l39.53 54.63c37.8,-14.67 81.34,-28.05 114.1,17.22 24.2,33.42 23.37,78.07 -17.15,116.7z"/>
     <path class="fil5" d="M4997.18 -151.76l-697.71 -93.69 -72.63 7.49c-126.19,17.22 -226.93,47.72 -377.23,206.76 -146.2,154.68 -207.54,550.04 -207.54,550.04 0,0 173.29,-89.21 440.32,-83.21 267.03,5.99 364.14,52.61 364.14,52.61 0,0 1.8,-267.05 116.03,-400.04 142.32,-165.73 434.62,-239.96 434.62,-239.96z"/>
     <path class="fil15" d="M3642.07 518.84c0,0 61.34,-395.36 207.54,-550.04 150.3,-159.04 251.04,-189.54 377.23,-206.76l0 0 2.5 -0.26c2.32,-0.19 6.24,-0.43 11.67,-0.43 44.87,0 193.88,15.86 409.18,200.32 9.3,7.97 18.95,16.87 28.92,26.54 -43.18,28.63 -83.82,61.88 -116.55,99.99 -114.23,132.99 -116.03,400.04 -116.03,400.04 0,0 -97.11,-46.62 -364.14,-52.61 -8.69,-0.21 -17.28,-0.29 -25.76,-0.29 -252.34,0 -414.56,83.5 -414.56,83.5z"/>
     <path class="fil5" d="M4226.84 -237.96c0,0 163.31,-23.15 423.35,199.63 166.07,142.3 449.9,578.68 449.9,578.68 0,0 78.14,-116.65 220.48,-201.06 231.27,-137.16 364.05,-171.83 364.05,-171.83 0,0 -146.18,-220.56 -367.44,-308.19 -533.64,-211.33 -1090.34,-97.23 -1090.34,-97.23z"/>
     <path class="fil13" d="M4935.27 -243.96c-12.44,-1.96 -24.82,-3.81 -37.12,-5.53 4.41,1.01 8.88,1.97 13.41,2.93 -113.75,-16.41 -221.12,-22.15 -315.7,-22.15 -54.8,0 -105.29,1.92 -150.19,4.82 -0.13,-0.05 -0.23,-0.09 -0.33,-0.15l-2.28 -0.7 0 0c0,0 84.29,-7.74 187.05,-7.74 26.35,0 53.93,0.48 81.61,1.78 112.19,5.2 172.65,14.77 223.55,26.74z"/>
     <path class="fil14" d="M4803.52 -181.74c-117.36,0 -260.09,-43.09 -327.29,-68.78 -10.7,-4.86 -20.93,-9.3 -30.56,-13.37 44.9,-2.9 95.39,-4.82 150.19,-4.82 94.58,0 201.95,5.74 315.7,22.15 19.28,4.08 39.71,7.89 61.31,12.3 49.39,15.53 11.13,37.48 -131.18,50.82 -12.31,1.16 -25.08,1.7 -38.17,1.7z"/>
     <path class="fil13" d="M5191.64 -184.61c-82.84,-25.29 -165.16,-43.59 -244.75,-56.52 -3.83,-0.96 -7.7,-1.88 -11.62,-2.83 82.59,13.12 168.15,31.97 254.29,58.41 0.7,0.31 1.38,0.63 2.08,0.94zm-817.18 -73.57c20.77,-2.4 42.75,-4.9 68.6,-6.56l0 0c0.54,0.29 1.12,0.59 1.72,0.9 -25.3,1.65 -48.81,3.57 -70.32,5.66z"/>
     <path class="fil14" d="M5093.88 455.54l-13.41 -20.48c-2.63,-4 -263.55,-400.64 -382.27,-500.19 -126.06,-105.77 -271.18,-164.24 -347.92,-190.3 7.99,-0.86 15.98,-1.81 24.18,-2.75 21.51,-2.09 45.02,-4.01 70.32,-5.66 6.52,3.28 17.31,7.94 31.45,13.32 71.89,32.61 165.17,82.92 248.96,153.21 84.08,70.54 229.73,273.65 317.46,401.21 2.95,-10.33 10.46,-18.66 26.54,-23.28 4.85,-1.39 10.06,-2.07 15.41,-2.07 28.94,0 62.17,19.3 67.05,46.52 1.59,8.82 -0.63,19.04 -4.96,29.31 40.93,-33.61 97.03,-77.31 153.56,-113.84 66.74,-43.14 131.94,-73.02 183.42,-92.89 -17.33,-19.13 -16.92,-67.9 7.43,-81.92 -57.08,-51.82 -136.36,-118.67 -222.56,-177.88 -117.15,-80.43 -214.74,-105.58 -295.67,-122.11 -2.04,-0.64 -4.24,-1.28 -6.58,-1.89 -6.41,-1.7 -12.87,-3.36 -19.4,-4.98 79.59,12.93 161.91,31.23 244.75,56.52 27.78,12.68 54.95,26.05 80.59,40 180.24,98.09 329.49,258.36 335.77,265.14l24.73 26.75 -35.54 7.99c-1.35,0.31 -136.36,31.45 -274.14,120.52 -103.91,67.17 -209.92,162.39 -210.99,163.35l-18.18 16.4z"/>
     <path class="fil13" d="M4946.89 -241.13c-11.83,-1.92 -23.63,-3.73 -35.33,-5.43 -4.53,-0.96 -9,-1.92 -13.41,-2.93 12.3,1.72 24.68,3.57 37.12,5.53 3.92,0.95 7.79,1.87 11.62,2.83z"/>
     <path class="fil16" d="M4972.87 -234.26c-21.6,-4.41 -42.03,-8.22 -61.31,-12.3 11.7,1.7 23.5,3.51 35.33,5.43 6.53,1.62 12.99,3.28 19.4,4.98 2.34,0.61 4.54,1.25 6.58,1.89z"/>
     <path class="fil13" d="M4444.78 -263.84c-0.6,-0.31 -1.18,-0.61 -1.72,-0.9l2.28 0.7c0.1,0.06 0.2,0.1 0.33,0.15 -0.31,0.01 -0.58,0.03 -0.89,0.05z"/>
     <path class="fil16" d="M4476.23 -250.52c-14.14,-5.38 -24.93,-10.04 -31.45,-13.32 0.31,-0.02 0.58,-0.04 0.89,-0.05 9.63,4.07 19.86,8.51 30.56,13.37z"/>
     <path class="fil5" d="M2458.79 4796.29l630.44 107.59 66.22 -4.46c115.11,-11.57 207.58,-36 349.16,-175.55 137.73,-135.74 206.18,-492.72 206.18,-492.72 0,0 -160.21,75.41 -402.47,61.33 -242.26,-14.05 -328.92,-59.5 -328.92,-59.5 0,0 -10.25,242.38 -118.27,359.48 -134.57,145.87 -402.34,203.83 -402.34,203.83z"/>
     <path class="fil15" d="M3148.03 4899.7c-32.71,0 -171.39,-11.92 -370.54,-195.2 -8.18,-7.52 -16.66,-15.9 -25.41,-25.03 40.15,-24.59 78.12,-53.48 109.05,-87.01 108.02,-117.1 118.27,-359.48 118.27,-359.48 0,0 86.66,45.45 328.92,59.5 20.66,1.22 40.74,1.77 60.17,1.77 208.25,0 342.3,-63.1 342.3,-63.1 0,0 -2.42,12.64 -7.28,34.08 -6.58,29.1 -17.66,74.44 -33.23,126.34 -7.01,23.34 -14.94,48.03 -23.78,73.14 -33.85,96.35 -81.13,199.27 -141.89,259.16 -101.62,100.16 -177.92,141.01 -255.49,160.38 -0.59,0.16 -1.23,0.3 -1.84,0.47 -29.89,7.31 -59.99,11.49 -91.83,14.7l-2.3 0.15c-1.23,0.06 -2.93,0.13 -5.12,0.13z"/>
     <path class="fil5" d="M3155.45 4899.42c0,0 -149.05,15.74 -377.96,-194.92 -146.19,-134.56 -389.81,-539.94 -389.81,-539.94 0,0 -74.72,103.4 -206.67,175.47 -214.42,117.06 -336.09,144.25 -336.09,144.25 0,0 125.59,205 323.67,291.67 477.73,209.09 986.86,123.47 986.86,123.47z"/>
     <path class="fil13" d="M2860.58 4919.02c-42.43,0 -94.3,-1.23 -146.45,-5.51 -101.69,-8.34 -156.28,-19 -202.12,-31.5 11.25,2.19 22.42,4.26 33.52,6.23 -3.97,-1.07 -7.99,-2.09 -12.07,-3.1 134.31,24.29 259.38,31.64 361.65,31.64 21.28,0 41.59,-0.32 60.8,-0.87 0.1,0.06 0.2,0.09 0.31,0.14l2.02 0.7c0,0 -40.14,2.27 -97.66,2.27z"/>
     <path class="fil14" d="M2895.11 4916.78c-102.27,0 -227.34,-7.35 -361.65,-31.64 -17.37,-4.32 -35.8,-8.43 -55.26,-13.16 -44.33,-15.69 -8.9,-34.38 120.73,-41.9 6.61,-0.39 13.32,-0.57 20.18,-0.57 109.14,0 246.45,46.58 309.42,73.24 9.59,4.76 18.73,9.14 27.38,13.16 -19.21,0.55 -39.52,0.87 -60.8,0.87z"/>
     <path class="fil13" d="M2958.24 4916.75l0 0c-0.47,-0.27 -0.98,-0.56 -1.53,-0.86 23.07,-0.68 44.53,-1.69 64.17,-2.87 -18.98,1.51 -39.05,3.05 -62.64,3.73zm-446.23 -34.74c-74.53,-14.57 -151.63,-34.46 -228.99,-61.24 -0.6,-0.3 -1.22,-0.6 -1.8,-0.89 74.38,25.63 148.51,44.9 220.35,59.2 3.45,0.98 6.91,1.97 10.44,2.93z"/>
     <path class="fil14" d="M2956.71 4915.89c-5.81,-3.2 -15.47,-7.77 -28.18,-13.14 -64.19,-31.94 -147.26,-80.62 -221.04,-147.11 -74.08,-66.75 -199.74,-255.87 -275.29,-374.52 -3,9.28 -10.07,16.6 -24.85,20.29 -3.81,0.94 -7.85,1.39 -12,1.39 -26.76,0 -57.78,-18.91 -61.43,-44.43 -1.14,-8.03 1.19,-17.27 5.43,-26.46 -38.24,29.21 -90.58,67.08 -143.1,98.43 -61.97,37.01 -122.13,62.04 -169.5,78.4 15.1,17.92 13.15,62.21 -9.4,74.13 50.14,48.92 119.98,112.16 196.32,168.7 103.78,76.81 191.59,102.79 264.53,120.41 1.83,0.66 3.81,1.31 5.9,1.95 5.8,1.74 11.57,3.47 17.47,5.15 -71.84,-14.3 -145.97,-33.57 -220.35,-59.2 -24.85,-12.43 -49.11,-25.45 -71.96,-38.97 -160.47,-94.84 -290.8,-245.2 -296.28,-251.55l-21.59 -25.08 32.53 -6.11c1.22,-0.23 124.79,-24.18 252.78,-100.6 96.52,-57.62 195.85,-140.65 196.83,-141.48l17.06 -14.28 11.52 19c2.25,3.7 226.34,372.27 330.92,466.5 111.07,100.09 240.94,157.86 309.77,184.01 -7.24,0.53 -14.51,1.1 -21.92,1.7 -19.64,1.18 -41.1,2.19 -64.17,2.87z"/>
     <path class="fil13" d="M2958.24 4916.75l-2.02 -0.7c-0.11,-0.05 -0.21,-0.08 -0.31,-0.14 0.26,0 0.52,0 0.8,-0.02 0.55,0.3 1.06,0.59 1.53,0.86l0 0z"/>
     <path class="fil16" d="M2955.91 4915.91c-8.65,-4.02 -17.79,-8.4 -27.38,-13.16 12.71,5.37 22.37,9.94 28.18,13.14 -0.28,0.02 -0.54,0.02 -0.8,0.02z"/>
     <path class="fil13" d="M2545.53 4888.24c-11.1,-1.97 -22.27,-4.04 -33.52,-6.23 -3.53,-0.96 -6.99,-1.95 -10.44,-2.93 10.66,2.13 21.34,4.16 31.89,6.06 4.08,1.01 8.1,2.03 12.07,3.1z"/>
     <path class="fil16" d="M2533.46 4885.14c-10.55,-1.9 -21.23,-3.93 -31.89,-6.06 -5.9,-1.68 -11.67,-3.41 -17.47,-5.15 -2.09,-0.64 -4.07,-1.29 -5.9,-1.95 19.46,4.73 37.89,8.84 55.26,13.16z"/>
     <path class="fil5" d="M6976.4 1079.56c0,0 147.41,-119.78 334.97,-298.66 228.67,-218.09 702.88,-652.44 1107.36,-488.25l462.86 553.03c0,0 -226.34,-46.89 -528.64,65.12 -269.58,99.89 -458.45,297.42 -543.02,387.82 -34.22,36.58 -79.06,85.81 -115.19,120.5 -60.44,58.03 -130.19,138.92 -238.95,226.54l-479.39 -566.1z"/>
     <path class="fil14" d="M7825.75 1029.58c-99.63,0 -192.57,-55.58 -232.04,-149.12 -53.43,-126.68 11.39,-274.98 144.8,-331.26 34.86,-14.69 70.99,-21.66 106.24,-21.66 99.64,0 192.57,55.58 232.04,149.13 53.43,126.67 -11.39,274.95 -144.8,331.25 -34.86,14.7 -70.97,21.66 -106.24,21.66z"/>
     <path class="fil5" d="M7914.92 781.43c-8.69,-8.46 -19.65,-6.64 -32.65,-0.76l34.24 33.41c8.08,-13.73 6.36,-24.9 -1.59,-32.65zm-96.92 -20.28l-35.26 -34.39c-8.47,14.63 -5.78,26.29 2.4,34.28 8.71,8.49 19.88,6.44 32.86,0.11zm131.31 84.9l27.78 27.11 -21.53 22.09 -27.08 -26.38c-22.83,20.46 -51.02,33.94 -73.57,35.71l-18.43 -41.71c19.99,-2.11 42.23,-11.49 59.49,-25.69l-41.47 -40.46c-30.65,18.01 -66.58,36.5 -102.08,1.86 -26.33,-25.65 -32.31,-64.72 -2.7,-104.02l-27.56 -26.89 21.55 -22.09 27.08 26.38c17.66,-15.13 38.36,-26.46 58.93,-30.15l19.74 40.84c-18.18,4.27 -33.63,11.64 -45.9,21.27l42.19 41.16c30.44,-18.26 65.93,-36.3 100.93,-2.15 25.85,25.16 31.76,63.77 2.63,103.12z"/>
     <path class="fil14" d="M7465.4 1601.91l-422.15 -523.41 18.85 -9.94c71.34,-37.61 130.37,-98.57 212.08,-182.96 90.48,-93.49 214.42,-221.53 414.92,-374.76 251.48,-192.16 456.42,-228.66 575.82,-228.66 69.02,0 109.46,12.22 113.77,13.58l4.8 1.52 432.85 509.2 -50.11 -10.48c-34.7,-7.25 -69.93,-10.53 -105.3,-10.53 -230.37,0 -465.98,139.47 -595.98,231.16 -188.89,133.27 -581.82,565.75 -585.76,570.1l-13.79 15.18zm4.39 -170.44c1.78,0 3.59,0.04 5.36,0.12 26.39,1.37 51.94,12.85 70.97,31.12 129.32,-137.8 362.18,-378.5 498.6,-474.75 129.15,-91.11 359.92,-227.7 592.04,-236.92 -5.59,-44.39 14.32,-59.82 31.16,-65.02l-241.48 -284.06c-7.29,0.91 -14.32,1.32 -21.07,1.32 -81.11,0 -123.67,-60.24 -137.89,-85.46 -0.54,0 -1.09,0 -1.64,0 -23.67,0 -51.01,1.48 -81.66,5.58 -106.1,14.11 -274.39,62.94 -473.76,215.29 -198.44,151.65 -316.33,273.44 -411.06,371.32 -43.87,45.32 -81.37,83.85 -118.07,116.25 14.24,22.86 23.18,49.13 21.82,75.85 -1.41,27.91 -15.55,55.7 -38.44,71.05l231.12 286.57c20.18,-17.93 46.99,-28.26 74,-28.26z"/>
     <path class="fil5" d="M1102.13 6373.6c0,0 147.15,120.08 360.32,267.55 259.86,179.77 781.24,556.2 702.35,985.57l-447.83 565.25c0,0 0.07,-231.15 -170.83,-504.53 -152.41,-243.76 -384.09,-388.71 -489.74,-453.22 -42.75,-26.11 -100.04,-60.04 -141.34,-88.41 -69.08,-47.44 -162.39,-99.38 -270.22,-188.12l457.29 -584.09z"/>
     <path class="fil14" d="M1583.3 7411.71c-82.52,0 -165.37,-41.13 -217.5,-116.83 -82.11,-119.23 -56.9,-279.12 56.32,-357.09 41.35,-28.46 88.73,-42.09 136.21,-42.09 82.52,0 165.35,41.12 217.49,116.83 82.12,119.23 56.9,279.09 -56.33,357.09 -41.34,28.46 -88.71,42.09 -136.19,42.09z"/>
     <path class="fil5" d="M1582.01 7131.85l26.52 -41.47c-16.03,-5.31 -26.92,-0.35 -33.09,9.3 -6.52,10.23 -2.27,20.78 6.57,32.17zm-0.26 99.05c6.54,-10.23 2.55,-20.61 -5.84,-32.13l-25.77 40.33c15.05,5.09 25.63,1.14 31.61,-8.2zm-56.28 46.73l-20.92 32.74 -26.05 -16.64 20.37 -31.87c-24.64,-18.21 -43.58,-43.09 -49.86,-64.81l37.1 -26.48c6.11,19.12 19.82,39 37.22,53.04l31.2 -48.8c-23.83,-26.35 -49.19,-57.81 -22.48,-99.57 19.81,-30.99 56.83,-44.76 101.33,-23.73l20.74 -32.42 26.03 16.66 -20.37 31.83c18.41,14.24 33.67,32.23 41.44,51.6l-35.99 27.62c-7.84,-16.94 -18.21,-30.58 -30.11,-40.66l-31.76 49.67c24.04,26.07 48.88,57.18 22.53,98.37 -19.42,30.4 -56.01,44.05 -100.42,23.45z"/>
     <path class="fil14" d="M1742.14 8120.12l0.12 -51.17c0.52,-266.5 -224.13,-516.65 -358.09,-642.09 -168.74,-158.01 -671.84,-455.22 -676.89,-458.2l-17.67 -10.39 427.11 -519.42 13.55 16.42c51.28,62.27 122.91,107.74 222.1,170.65 109.88,69.69 260.36,165.13 451.02,330.45 377.28,327.18 351.55,619.48 350.27,631.77l-0.53 4.98 -410.99 527zm47.62 -192.68c22.28,0 34.09,11.75 40.28,22.95l229.27 -293.99c-30.57,-90.61 26.57,-152.08 50.21,-172.72 -4.79,-23.54 -11.86,-50.58 -22.31,-80.47 -35.32,-100.99 -117.2,-255.92 -306.8,-420.34 -188.68,-163.61 -331.81,-254.37 -446.83,-327.33 -53.28,-33.79 -98.6,-62.71 -137.79,-92.1 -19.48,18.57 -43.39,32.65 -69.84,36.73 -4.76,0.74 -9.59,1.1 -14.44,1.1 -23.23,0 -46.63,-8.37 -62.92,-24.36l-233.83 284.36c23.07,17.2 39.25,43.54 43.62,72.03 4.01,26.12 -2.08,53.45 -16.09,75.8 161.12,98.73 443.98,278.01 565.86,392.16 115.39,107.99 295.89,306.33 351.9,531.77 11.56,-3.95 21.37,-5.59 29.71,-5.59z"/>
     <path class="fil5" d="M128.32 2980.43c0,0 326.52,-382.71 968.25,-136.21 24.4,9.37 49.5,16.95 75.26,21.41 53.72,9.31 140.48,15.97 218.94,-15.59 124.98,-50.29 302.78,-123.51 302.78,-123.51l549.75 325.33c0,0 -230.41,168.08 -453.6,182.2 -99.4,6.29 -206.83,-26.56 -318.04,-59.39 -138.51,-40.9 -282.88,-81.81 -424.8,-47.12 0,0 -182.45,27.68 -338.16,194.4l-580.38 -341.52z"/>
     <path class="fil14" d="M1407.39 3073.62c-61.15,0 -171.16,-20.06 -286.45,-54.3 -158.93,-47.18 -267.75,-103.37 -243.01,-125.53 6.78,-6.06 22.95,-8.95 46.1,-8.95 61.16,0 171.16,20.08 286.45,54.3 158.94,47.19 267.74,103.4 243.01,125.53 -6.79,6.08 -22.95,8.95 -46.1,8.95z"/>
     <path class="fil5" d="M1237.67 3007.86c-3.16,-3.34 -14.56,-7.28 -30.29,-11.87l12.47 13.16c15.73,2.62 20.72,1.76 17.82,-1.29zm-79.22 -35.62l-12.86 -13.55c-16.62,-2.74 -21.01,-1.52 -18.03,1.65 3.16,3.31 14.9,7.33 30.89,11.9zm73.34 49.49l10.12 10.68 -33.42 -7.34 -9.84 -10.41c-33.63,-7.83 -68.17,-17.76 -90.43,-25.9l7.33 -7.6c20.07,7.19 46.57,15.06 71.25,21.02l-15.09 -15.93c-39.52,-10.73 -84.3,-23.35 -97.22,-36.98 -9.6,-10.13 7.93,-13.14 59.1,-3.26l-10.03 -10.58 33.42 7.36 9.83 10.37c25.62,6.09 51.82,13.36 73.35,20.74l-5.6 8.05c-19.65,-6.49 -38.58,-11.94 -55.82,-16.18l15.36 16.2c39.44,10.65 83.55,23.12 96.29,36.57 9.41,9.92 -7.85,12.9 -58.6,3.19z"/>
     <path class="fil14" d="M695.73 3262.79l-493.91 -299.03 13.74 -11.07c182.38,-146.73 398.24,-162.42 482.31,-162.42 22.37,0 35.42,1.1 36,1.17l2.6 0.05c103.33,3.22 206.55,36.44 289.66,63.17 44.94,14.44 83.75,26.92 112.89,31.51 15.32,2.42 29.12,4.82 41.9,7.01 34.95,6.06 61.49,10.68 90.38,10.68 25.13,0 52.03,-3.49 87.72,-12.52 149.12,-37.75 319.53,-121.91 321.24,-122.76l6.01 -2.96 506.1 299.39 -17.77 10.68c-152.15,91.38 -264.55,124.62 -378.46,124.59 -104.46,0 -210.19,-27.94 -348.98,-64.63 -37.01,-9.79 -76.4,-20.21 -118.75,-30.86 -56.69,-14.26 -111.04,-20.26 -162.39,-20.26 -273.12,0 -461.23,169.9 -463.45,171.97l-6.84 6.29zm2.05 -447.81c-65.83,0 -215.62,9.94 -363.96,89.25 18.88,17.36 51.44,59.34 -4.27,107.95l288.81 174.89c14.01,-12.69 44.12,-34.2 87.05,-34.2 21.21,0 45.57,5.26 72.65,19.45 84.15,-50.85 220.7,-112.49 388.12,-112.49 53.2,0 109.51,6.22 168.26,21 42.46,10.68 81.94,21.14 119.05,30.93 135.86,35.92 239.3,63.24 341.32,63.24 82.51,0 164.1,-17.87 261.13,-63.47 -52.47,-59.44 -19.48,-86.62 2.51,-97.03l-294.66 -174.33c-27.84,13.95 -52.53,19.09 -73.81,19.09 -40.5,0 -68.59,-18.61 -82.23,-30.33 -64.51,27.98 -156.9,64.63 -242.67,86.37 -38.01,9.63 -67.02,13.27 -93.85,13.27 -30.92,0 -58.95,-4.86 -94.55,-11.02 -12.65,-2.2 -26.31,-4.57 -41.51,-6.97 -31.04,-4.88 -70.69,-17.65 -116.62,-32.42 -82.28,-26.45 -184.69,-59.25 -286.16,-62.07 -0.72,-0.07 -13.24,-1.11 -34.61,-1.11z"/>
     <path class="fil5" d="M7628.82 8144.49c0,0 -38.66,-501.58 590.01,-779.71 23.91,-10.57 47.03,-22.91 68.45,-37.92 44.65,-31.3 110.82,-87.79 144.14,-165.52 53.08,-123.81 127.41,-301.16 127.41,-301.16l619.14 -157.34c0,0 -44.7,281.67 -192.89,449.16 -148.2,167.47 -464.35,223.76 -601.57,448.66 0,0 -109.74,148.32 -102.46,376.33l-652.23 167.5z"/>
     <path class="fil14" d="M8118.12 7566.35c-12.84,0 -19.71,-3.89 -19.24,-12.12 1.91,-33.17 121.73,-123.81 267.64,-202.52 109.62,-59.12 202.78,-94.68 241.55,-94.68 12.86,0 19.72,3.89 19.25,12.13 -1.91,33.15 -121.75,123.8 -267.66,202.51 -109.6,59.12 -202.76,94.68 -241.54,94.68z"/>
     <path class="fil5" d="M8434.29 7381.2c-4.61,-0.14 -15.45,5.1 -29.83,12.95l18.11 0.53c13.02,-9.24 15.92,-13.37 11.72,-13.48zm-81.29 30.66l-18.66 -0.54c-13.7,9.78 -15.95,13.75 -11.61,13.9 4.59,0.11 15.73,-5.31 30.27,-13.36zm86.91 -16.67l14.72 0.41 -28.88 18.39 -14.3 -0.43c-29.37,18.17 -60.87,35.52 -82.39,45.43l-0.16 -10.56c19.32,-9.04 43.62,-22.17 65.32,-35.36l-21.92 -0.62c-35.58,20.27 -76.21,42.89 -95,42.35 -13.92,-0.4 -3.63,-14.89 39.61,-43.99l-14.57 -0.41 28.85 -18.38 14.31 0.43c22.43,-13.77 46.13,-27.09 66.6,-37.08l1.72 9.66c-18.53,9.26 -35.78,18.74 -50.98,27.91l22.31 0.65c35.45,-20.31 75.52,-42.55 94.02,-42.03 13.67,0.4 3.54,14.72 -39.26,43.63z"/>
     <path class="fil14" d="M7669.13 8080.81l1.94 -17.55c32.57,-294.53 251.33,-478.15 253.52,-479.98l1.89 -1.76c75.47,-70.64 172.06,-119.93 249.79,-159.64 42.04,-21.44 78.34,-40.02 102.23,-57.3 12.59,-9.12 24.04,-17.13 34.66,-24.59 54.3,-38.08 84.22,-59.07 124.92,-126.97 79.03,-131.98 140.4,-311.87 141,-313.67l2.17 -6.33 569.93 -144.94 -5.11 20.11c-83.07,329.92 -213.43,405.39 -473.16,555.75 -33.13,19.18 -68.38,39.59 -105.93,61.93 -317.41,188.9 -336.32,545.49 -336.46,549.09l-0.4 9.26 -560.99 136.59zm55.91 -135.42c26.79,0 73.66,9.86 68.78,79.62l328.06 -79.84c1.46,-28.2 14.48,-95.79 102.77,-123.14 31.29,-125.71 113.84,-328.93 329.69,-457.4 37.62,-22.39 72.98,-42.84 106.2,-62.09 219.97,-127.32 344.93,-199.82 426.74,-425.22 -79.12,-5.11 -74.92,-47.65 -66.68,-70.54l-331.8 84.37c-28.68,85.76 -91.14,100.13 -118.49,102.14 -25.99,65.33 -65.6,156.5 -111.06,232.41 -43.34,72.42 -76.68,95.81 -131.91,134.53 -10.5,7.36 -21.87,15.33 -34.32,24.34 -25.46,18.47 -62.55,37.39 -105.5,59.34 -77,39.3 -172.7,88.32 -246.6,157.9 -2.32,1.96 -155.13,130.6 -220.26,343.67 1.4,-0.06 2.85,-0.09 4.38,-0.09z"/>
     <path class="fil5" d="M8546.07 3180.43c0,0 -139.44,-483.39 419.9,-883.04 21.26,-15.19 41.43,-31.95 59.37,-50.99 37.37,-39.69 90.74,-108.41 107.63,-191.28 26.91,-132.02 63.79,-320.72 63.79,-320.72l574.42 -279.46c0,0 13.3,284.87 -97.92,478.9 -111.23,194.03 -409.41,313.19 -498.24,561.2 0,0 -77.45,167.47 -24.13,389.28l-604.82 296.11z"/>
     <path class="fil14" d="M8899.59 2516.17c-7.42,0 -11.82,-2.89 -12.73,-9 -4.83,-32.83 94.15,-145.87 221.1,-252.51 103.39,-86.82 193.43,-142.61 225.93,-142.61 7.43,0 11.85,2.91 12.76,8.99 4.83,32.83 -94.15,145.89 -221.13,252.52 -103.36,86.83 -193.43,142.61 -225.93,142.61z"/>
     <path class="fil5" d="M9180.28 2269.85c-4.51,0.77 -14.08,8.12 -26.58,18.72l17.85 -3.15c10.86,-11.68 12.89,-16.32 8.73,-15.57zm-73.39 46.47l-18.36 3.26c-11.47,12.35 -12.85,16.7 -8.58,15.94 4.52,-0.8 14.34,-8.38 26.94,-19.2zm81.76 -33.92l14.48 -2.56 -24.57 23.84 -14.08 2.48c-25.1,23.73 -52.42,47.09 -71.46,61.16l-2.32 -10.3c17.08,-12.77 38.24,-30.55 56.83,-47.85l-21.62 3.81c-30.74,27.07 -65.96,57.46 -84.45,60.74 -13.71,2.42 -6.57,-13.86 29.86,-51.11l-14.34 2.54 24.54 -23.84 14.11 -2.49c19.17,-18.01 39.67,-35.86 57.7,-49.75l3.65 9.09c-16.27,12.81 -31.25,25.6 -44.29,37.64l22 -3.86c30.61,-27.05 65.33,-56.98 83.56,-60.22 13.47,-2.37 6.44,13.7 -29.6,50.68z"/>
     <path class="fil14" d="M8572.64 3109.89l-1.64 -17.56c-27.77,-295.04 149.29,-519.15 151.06,-521.36l1.49 -2.13c59.62,-84.46 144.22,-152.29 212.3,-206.9 36.81,-29.55 68.64,-55.05 88.54,-76.85 10.45,-11.46 20.04,-21.64 28.94,-31.08 45.49,-48.29 70.52,-74.91 96.6,-149.65 50.68,-145.23 74.37,-333.81 74.6,-335.7l0.84 -6.66 528.74 -257.33 -0.91 20.72c-14.57,339.92 -126.91,440.23 -350.84,640.06 -28.54,25.49 -58.95,52.61 -91.19,82.08 -272.58,249.27 -218.88,602.31 -218.3,605.85l1.51 9.16 -521.74 247.35zm46.91 -146.03c25.66,0 56.6,11.9 63.92,66.15l305.08 -144.64c-4.28,-27.91 -5.21,-96.71 75.68,-141.38 5.2,-129.46 44.92,-345.16 230.3,-514.68 32.3,-29.55 62.75,-56.72 91.4,-82.3 189.62,-169.23 297.31,-265.53 331.8,-502.84 -8.75,1.21 -16.56,1.78 -23.56,1.78 -55.85,0 -59.07,-35.94 -56.02,-57.36l-307.84 149.83c-10.73,89.75 -69.02,116.48 -95.38,124.02 -12.21,69.23 -32.52,166.52 -61.66,250.08 -27.8,79.72 -55.71,109.35 -101.95,158.43 -8.81,9.34 -18.32,19.45 -28.67,30.8 -21.21,23.21 -53.71,49.29 -91.34,79.46 -67.42,54.07 -151.2,121.47 -209.49,204.57 -1.9,2.38 -125.46,159.32 -146.11,381.16 6.48,-1.6 14.83,-3.08 23.84,-3.08z"/>
     <path class="fil5" d="M2605.21 1540.56c0,0 -191.35,-7.38 -376.15,-121.42 -149.95,-92.53 -550.56,-403.64 -672.71,-472.66 -223.33,-126.17 -439.23,-164.41 -439.23,-164.41l-12.64 -726.87c0,0 198.27,23.27 394.11,99.86 198.35,77.57 498.34,429.39 773.5,522.31 178.15,60.18 529.24,35.45 529.24,35.45l-196.12 827.74z"/>
     <path class="fil14" d="M2547.75 1477.77c-19.29,0 -159.56,-5.13 -377.09,-143.78 -71.85,-45.81 -170.36,-115.81 -274.66,-189.93 -137.56,-97.78 -279.81,-198.86 -366.58,-248.07 -123.36,-69.96 -362.26,-138.5 -364.67,-139.18l-13.05 -3.72 -16.17 -659.14 21.08 2.42c1.97,0.21 49.35,5.75 125.19,26.71 69.67,19.23 177.56,55.73 295.92,120.41 105.47,57.6 193.55,134.03 286.8,214.93 130.42,113.16 265.28,230.18 451.37,290.14 85.19,27.44 214.99,32.85 304.05,32.85 57.14,0 97.53,-2.23 98.55,-2.28l25.23 -1.44 -180.01 699.64 -13.87 0.42c-0.31,0 -1,0.02 -2.09,0.02zm-666.18 -389.25c11.95,8.48 23.89,16.97 35.81,25.43 103.91,73.84 202.06,143.59 273.13,188.91 114.44,72.95 205.81,106.6 262.31,121.97l4.76 1.21c-10.23,-43.79 24.07,-96.24 65.84,-96.24 10.9,0 22.32,3.59 33.59,11.83l2.89 2.42 116.93 -454.52c-12.6,11.89 -26.66,18.59 -40.2,18.57 -14.18,0 -27.77,-7.34 -38.49,-23.75 -8.81,-13.53 -8.22,-44.9 -1.43,-65.99 -89.64,-0.91 -209.01,-7.87 -292.13,-34.66 -115.77,-37.31 -211.55,-95.2 -298.45,-160.46 46.87,86.09 77.56,208.73 43.76,318.12 -33.62,108.8 -94.24,148.04 -152.97,148.04 -5.13,0 -10.26,-0.31 -15.35,-0.88zm-676.18 -436.17c18.83,0 38.13,15.41 46.97,31.11 14.54,25.76 7.9,43.52 -10.14,58.32 81.66,25.89 218.71,72.93 305.42,122.1 45.59,25.86 105.75,65.45 172.26,111.19 -67.88,-99.78 -60.47,-223.87 -40.3,-315.37 20.09,-91.1 109.47,-150.87 185.03,-150.87 0.57,0 1.14,0 1.71,0.02 -8.7,-7.54 -17.37,-15.04 -26.01,-22.56 -91.7,-79.56 -178.32,-154.7 -280.29,-210.4 -128.36,-70.11 -244.58,-106.84 -319.84,-125.4 20.28,37.77 -0.24,72.61 -27.92,72.61 -11.96,0 -25.26,-6.49 -37.19,-22.05l11.23 458 2.84 -2.32c5.19,-3.05 10.69,-4.38 16.23,-4.38z"/>
     <path class="fil5" d="M1862.3 834.84l-13.36 54.71c19.33,-0.18 29.28,-9.61 32.37,-22.32 3.3,-13.47 -5.24,-23.32 -19.01,-32.39zm-36.41 -107.24c-3.29,13.48 4.88,23.21 18.24,32.62l12.97 -53.16c-18.18,0.05 -28.19,8.22 -31.21,20.54zm43.61 -71.38l10.52 -43.16 34.32 8.38 -10.24 41.99c33.42,10.6 63.14,30.5 77.99,51.67l-30.36 42.38c-13.67,-18.45 -35.87,-34.87 -59.93,-43.59l-15.71 64.32c35.58,19.7 74.68,44.33 61.23,99.42 -9.96,40.84 -44.93,69.45 -100.87,63.16l-10.44 42.74 -34.31 -8.38 10.25 -41.98c-25.21,-8.59 -48.38,-22.4 -63.97,-40.5l28.71 -43.2c14.81,15.45 31.07,26.35 47.66,32.85l15.97 -65.48c-35.67,-19.32 -74.05,-43.79 -60.8,-98.09 9.77,-40.07 44.3,-68.37 99.98,-62.53z"/>
     <path class="fil5" d="M5694.2 8291.98c0,0 -191.34,-7.41 -376.14,-121.44 -149.95,-92.51 -550.57,-403.64 -672.73,-472.66 -223.31,-126.16 -439.23,-164.4 -439.23,-164.4l-12.62 -726.89c0,0 198.25,23.31 394.11,99.87 198.34,77.56 498.33,429.39 773.48,522.32 178.15,60.16 529.25,35.44 529.25,35.44l-196.12 827.76z"/>
     <path class="fil14" d="M5636.74 8229.16c-19.28,0 -159.57,-5.12 -377.09,-143.78 -71.85,-45.8 -170.38,-115.8 -274.65,-189.92 -137.57,-97.78 -279.81,-198.85 -366.58,-248.07 -123.39,-69.98 -362.27,-138.48 -364.67,-139.18l-13.05 -3.71 -16.17 -659.13 21.07 2.39c1.96,0.22 49.34,5.76 125.19,26.72 69.68,19.23 177.55,55.76 295.93,120.42 105.46,57.59 193.54,134.03 286.78,214.91 130.44,113.16 265.29,230.19 451.41,290.15 85.16,27.46 214.99,32.86 304.06,32.84 57.12,0 97.5,-2.21 98.5,-2.27l25.25 -1.46 -180.01 699.68 -13.88 0.39c-0.32,0.02 -1.02,0.02 -2.09,0.02zm-666.18 -389.25c11.94,8.49 23.89,16.98 35.82,25.43 103.9,73.86 202.06,143.62 273.13,188.91 114.44,72.96 205.81,106.59 262.29,121.96l4.78 1.25c-10.25,-43.8 24.07,-96.27 65.82,-96.27 10.92,0 22.33,3.59 33.59,11.84l2.89 2.43 116.93 -454.54c-12.6,11.91 -26.66,18.59 -40.18,18.59 -14.21,0 -27.8,-7.36 -38.49,-23.76 -8.81,-13.53 -8.24,-44.89 -1.43,-65.99 -89.66,-0.91 -209.01,-7.88 -292.13,-34.66 -115.77,-37.3 -211.55,-95.21 -298.42,-160.44 46.84,86.09 77.53,208.7 43.71,318.1 -33.61,108.8 -94.22,148.04 -152.95,148.04 -5.14,0 -10.26,-0.31 -15.36,-0.89zm-676.17 -436.15c18.83,0 38.12,15.41 46.97,31.09 14.53,25.76 7.91,43.52 -10.14,58.33 81.64,25.9 218.71,72.95 305.4,122.11 45.6,25.84 105.77,65.44 172.26,111.18 -67.87,-99.77 -60.45,-223.85 -40.28,-315.34 20.1,-91.13 109.47,-150.91 185.05,-150.91 0.55,0 1.13,0 1.68,0.03 -8.69,-7.52 -17.36,-15.04 -26.01,-22.54 -91.7,-79.59 -178.32,-154.73 -280.3,-210.41 -128.35,-70.09 -244.56,-106.83 -319.81,-125.42 20.27,37.8 -0.25,72.61 -27.93,72.61 -11.98,0 -25.27,-6.49 -37.2,-22.04l11.23 458 2.82 -2.31c5.22,-3.05 10.71,-4.38 16.26,-4.38z"/>
     <path class="fil5" d="M4951.31 7586.23l-13.34 54.69c19.33,-0.19 29.25,-9.59 32.34,-22.29 3.31,-13.48 -5.23,-23.32 -19,-32.4zm-36.41 -107.21c-3.28,13.46 4.87,23.19 18.26,32.57l12.97 -53.14c-18.22,0.05 -28.22,8.23 -31.23,20.57zm43.63 -71.43l10.51 -43.14 34.33 8.36 -10.25 42c33.42,10.59 63.12,30.49 77.97,51.66l-30.35 42.4c-13.68,-18.44 -35.9,-34.88 -59.92,-43.58l-15.69 64.3c35.56,19.69 74.61,44.32 61.19,99.43 -9.94,40.83 -44.92,69.46 -100.85,63.14l-10.43 42.77 -34.33 -8.36 10.25 -42.01c-25.18,-8.59 -48.38,-22.42 -63.96,-40.5l28.71 -43.18c14.8,15.43 31.06,26.34 47.65,32.83l15.99 -65.47c-35.66,-19.33 -74.09,-43.8 -60.82,-98.1 9.76,-40.06 44.32,-68.37 100,-62.55z"/>
     <path class="fil5" d="M4219.06 2353.47c-131.02,3.24 -371.59,-1.84 -599.01,-106.15 -281.66,-129.21 -403.74,-314.84 -403.74,-314.84l-60.92 690.5c163.51,386.43 815.35,413.2 1119,420.26 -80.79,-334.45 -101.62,-491.46 -55.33,-689.77z"/>
     <path class="fil14" d="M3891.19 2930.09c-32.81,0 -66.38,-6.25 -98.94,-19.47 -128.95,-52.36 -193.17,-194.05 -143.46,-316.47 37.16,-91.53 127.47,-146.39 224.55,-146.39 32.81,0 66.38,6.27 98.93,19.49 128.95,52.36 193.17,194.05 143.46,316.48 -37.16,91.5 -127.46,146.36 -224.54,146.36z"/>
     <path class="fil5" d="M3882.34 2713.47l0.61 47.34c15.7,-4.2 21.81,-13.95 21.66,-24.96 -0.14,-11.66 -9.14,-17.89 -22.27,-22.38zm-52.14 -79.65c0.14,11.66 8.84,17.89 21.68,22.71l-0.61 -46.02c-14.8,3.9 -21.21,12.64 -21.07,23.31zm20.5 -67.27l-0.5 -37.35 29.72 -0.39 0.47 36.34c29.43,1.62 57.79,11.58 74.31,25.7l-15.8 40.86c-15.01,-12.13 -36.52,-20.86 -57.94,-22.89l0.74 55.65c33.08,8.57 70.09,20.42 70.7,68.08 0.48,35.36 -22,65.96 -68.86,72.57l0.47 37.01 -29.68 0.39 -0.5 -36.33c-22.29,-1.7 -44.06,-8.07 -60.56,-19.56l14.33 -41.16c15.27,9.47 30.78,14.94 45.66,16.73l-0.74 -56.68c-33.08,-8.21 -69.47,-20.08 -70.1,-67.07 -0.45,-34.67 21.74,-64.98 68.28,-71.9z"/>
     <path class="fil17" d="M4256.15 2966.21c-0.08,-0.32 -0.16,-0.67 -0.25,-1 0.02,0 0.04,0 0.06,0l0.19 1zm-51.23 -540.49l0 0c1.87,-12.04 4.01,-24.15 6.41,-36.34l0 0 -6.41 36.34z"/>
     <path class="fil14" d="M4173.37 2999.33c-91.93,0 -191.56,-4.83 -373.6,-29.05 -475.83,-63.37 -609.59,-311.66 -615.04,-322.2l-2.24 -4.31 51.56 -640.28 26.98 41.13c140.35,214.28 452.94,296.44 626.77,326.38 77.66,13.37 199.87,17.23 323.53,18.38 -2.4,12.19 -4.54,24.3 -6.41,36.34 -122.9,-1.3 -245.55,-7.49 -324.59,-21.09 -149.73,-25.77 -399.45,-89.64 -563.56,-241.07 -16.68,21.53 -32.44,28.18 -45.56,28.18 -7.58,0 -14.3,-2.23 -19.8,-5.12l-28.74 357.2c72.4,56.57 58.99,136.13 50.92,165.19 16.29,16.39 36.26,34.35 60.44,52.83 81.73,62.44 229.33,143.57 468.43,175.42 180.83,24.06 273.1,28.98 364.44,28.98 28.84,0 57.61,-0.5 89,-1.03 0.09,0.33 0.17,0.68 0.25,1l5.8 32.12c-30.37,0.49 -59.08,1 -88.58,1z"/>
    </g>
   </g>
  </g>
  <polygon class="fil18" points="-0,0.23 10000,0.23 10000,8483.82 -0,8483.82 "/>
 </g>
</svg>
