<?xml version="1.0" encoding="UTF-8"?>
<!DOCTYPE svg PUBLIC "-//W3C//DTD SVG 1.1//EN" "http://www.w3.org/Graphics/SVG/1.1/DTD/svg11.dtd">
<!-- Creator: CorelDRAW 2018 (64 Bit Versão de avaliação) -->
<svg xmlns="http://www.w3.org/2000/svg" xml:space="preserve" width="15.5868mm" height="15.5868mm" version="1.1" style="shape-rendering:geometricPrecision; text-rendering:geometricPrecision; image-rendering:optimizeQuality; fill-rule:evenodd; clip-rule:evenodd"
viewBox="0 0 96.55 96.55"
 xmlns:xlink="http://www.w3.org/1999/xlink">
 <defs>
  <style type="text/css">
   <![CDATA[
    .fil0 {fill:#FEFEFE}
   ]]>
  </style>
 </defs>
 <g id="Camada_x0020_1">
  <metadata id="CorelCorpID_0Corel-Layer"/>
  <path class="fil0" d="M8.33 0l79.89 0c4.58,0 8.33,3.75 8.33,8.33l0 79.89c0,4.58 -3.75,8.33 -8.33,8.33l-79.89 0c-4.58,0 -8.33,-3.75 -8.33,-8.33l0 -79.89c0,-4.58 3.75,-8.33 8.33,-8.33zm9.62 60.57l60.64 0 0 9.83 -60.64 0 0 -9.83zm0 -17.21l60.64 0 0 9.83 -60.64 0 0 -9.83zm0 -17.21l60.64 0 0 9.83 -60.64 0 0 -9.83z"/>
 </g>
</svg>
