<?xml version="1.0" encoding="UTF-8"?>
<!DOCTYPE svg PUBLIC "-//W3C//DTD SVG 1.1//EN" "http://www.w3.org/Graphics/SVG/1.1/DTD/svg11.dtd">
<!-- Creator: CorelDRAW 2018 (64 Bit Versão de avaliação) -->
<svg xmlns="http://www.w3.org/2000/svg" xml:space="preserve" width="15.5868mm" height="15.5868mm" version="1.1" style="shape-rendering:geometricPrecision; text-rendering:geometricPrecision; image-rendering:optimizeQuality; fill-rule:evenodd; clip-rule:evenodd"
viewBox="0 0 90.14 90.14"
 xmlns:xlink="http://www.w3.org/1999/xlink">
 <defs>
  <style type="text/css">
   <![CDATA[
    .fil0 {fill:#FEFEFE}
    .fil1 {fill:#FE6775}
   ]]>
  </style>
 </defs>
 <g id="Camada_x0020_1">
  <metadata id="CorelCorpID_0Corel-Layer"/>
  <path class="fil0" d="M7.78 0l74.58 0c4.28,0 7.78,3.5 7.78,7.78l0 74.58c0,4.28 -3.5,7.78 -7.78,7.78l-74.58 0c-4.28,0 -7.78,-3.5 -7.78,-7.78l0 -74.58c0,-4.28 3.5,-7.78 7.78,-7.78z"/>
  <path class="fil1" d="M16.76 44.91c0,0.69 0.02,1.1 0.3,1.69 0.55,1.14 1.74,2.02 2.97,2.02l3.78 0 0 21.18c0,1.95 1.56,3.58 3.45,3.58l10.75 0 0 -17.47c0,-1.26 0.35,-1.97 1.14,-2.77 0.68,-0.69 1.55,-1.01 2.9,-1.01l6.08 0c2.46,0 4.03,1.47 4.03,3.77l0 17.47 10.75 0c1.91,0 3.45,-1.67 3.45,-3.58l0 -21.18 3.78 0c1.23,0 2.42,-0.89 2.97,-2.02 0.28,-0.59 0.3,-1 0.3,-1.69 0,-0.8 -0.19,-1.17 -0.49,-1.68 -0.26,-0.43 -0.62,-0.87 -0.96,-1.21l-1.07 -1.11c-0.12,-0.13 -0.13,-0.1 -0.27,-0.24l-2.49 -2.5c-0.16,-0.2 -0.05,-0.09 -0.26,-0.26 -0.32,-0.26 -0.76,-0.8 -1.07,-1.1 -0.12,-0.12 -0.21,-0.13 -0.31,-0.26 -0.23,-0.3 -0.11,-1.61 -0.11,-2.13 0,-2.92 0,-5.84 0,-8.77 0,-1.77 0.13,-2.68 -0.63,-3.79 -0.63,-0.92 -1.63,-1.59 -2.83,-1.59l-3.77 0c-1.3,0 -2.29,0.78 -2.84,1.57 -0.76,1.09 -0.61,2.11 -0.61,3.87 -0.3,-0.2 -0.9,-0.86 -1.2,-1.17l-6.36 -6.37c-0.15,-0.15 -0.2,-0.16 -0.35,-0.29 -0.96,-0.81 -1.37,-1.13 -2.83,-1.13 -1.44,0 -2.43,0.99 -3.34,1.9l-14.97 14.97c-0.6,0.6 -1.15,1.18 -1.76,1.76 -0.08,0.08 -0.13,0.12 -0.2,0.18 -0.01,0.01 -0.02,0.02 -0.03,0.03l-1.18 1.18c-0.01,0.01 -0.02,0.02 -0.03,0.03l-3.39 3.39c-0.25,0.31 -0.81,0.79 -1.1,1.07l-1.07 1.17c-0.53,0.68 -1.06,1.27 -1.06,2.46z"/>
 </g>
</svg>
