<?xml version="1.0" encoding="UTF-8"?>
<!DOCTYPE svg PUBLIC "-//W3C//DTD SVG 1.1//EN" "http://www.w3.org/Graphics/SVG/1.1/DTD/svg11.dtd">
<!-- Creator: CorelDRAW 2018 (64 Bit Versão de avaliação) -->
<svg xmlns="http://www.w3.org/2000/svg" xml:space="preserve" width="6.6405mm" height="6.642mm" version="1.1" shape-rendering="geometricPrecision" text-rendering="geometricPrecision" image-rendering="optimizeQuality" fill-rule="evenodd" clip-rule="evenodd"
viewBox="0 0 185.77 185.81"
 xmlns:xlink="http://www.w3.org/1999/xlink">
 <g id="Camada_x0020_1">
  <metadata id="CorelCorpID_0Corel-Layer"/>
  <g id="_2087840768080">
   <path fill="#33CC66" d="M22.85 163.49c2.24,-11.07 10.56,-25.06 7.81,-29.8 -5.58,-9.61 -9.65,-15.88 -11.95,-28.67 -13.23,-73.4 74.91,-119.69 128.42,-68.95 12.41,11.76 24.33,31.64 23.54,57.33 -1.42,45.98 -43.59,79.62 -87.73,72.9 -16.02,-2.44 -18.75,-6.04 -29.59,-10.82 -3.96,-1.75 -24.74,6.55 -30.5,8.01zm-22.62 20.88l-0.23 1.44 1.37 -0.3c4.21,-0.46 31.33,-9.57 37.7,-11.6 11.7,-3.73 8.04,-4.31 18.63,0.39 73.97,32.85 154.1,-43.67 119.97,-120.05 -6.17,-13.82 -11.16,-19 -20.16,-28.55 -14,-14.85 -43.48,-28.65 -73.11,-25.13 -29.98,3.56 -49.53,18.5 -62.87,35.17 -19.15,23.92 -25.68,62.78 -9.86,94.64 5.03,10.12 4.49,5.94 0.63,17.53l-12.05 36.48z"/>
   <path fill="#33CC66" d="M117.1 101.6c-2.06,1.9 -3.68,4.19 -5.38,6.21 -2.55,3.06 -2.89,5.5 -7.59,4.58 -9,-1.76 -21.36,-12.92 -27.25,-20.9 -6.92,-9.38 -4.03,-7.31 1.33,-14.73 3.93,-5.43 -0.57,-11.37 -3.06,-17.41 -2.89,-7.01 -3.24,-12.43 -13.17,-9.57 -10.98,3.16 -15.64,19.38 -9.75,33.39 4.3,10.25 13.96,21.29 20.28,27.58 9.09,9.03 15.3,13.43 29.86,18.82 11.58,4.3 25.94,7.71 35.24,-4.92 1.6,-2.18 2.71,-5.71 2.89,-9.04 0.29,-5.32 -1.8,-5.1 -5.67,-6.93 -4.58,-2.18 -12.71,-7.18 -17.74,-7.08z"/>
  </g>
 </g>
</svg>
