<?xml version="1.0" encoding="UTF-8"?>
<!DOCTYPE svg PUBLIC "-//W3C//DTD SVG 1.1//EN" "http://www.w3.org/Graphics/SVG/1.1/DTD/svg11.dtd">
<!-- Creator: CorelDRAW 2018 (64 Bit Versão de avaliação) -->
<svg xmlns="http://www.w3.org/2000/svg" xml:space="preserve" width="15.0575mm" height="18.5081mm" version="1.1" shape-rendering="geometricPrecision" text-rendering="geometricPrecision" image-rendering="optimizeQuality" fill-rule="evenodd" clip-rule="evenodd"
viewBox="0 0 1505.74 1850.8"
 xmlns:xlink="http://www.w3.org/1999/xlink">
 <g id="Camada_x0020_1">
  <metadata id="CorelCorpID_0Corel-Layer"/>
  <g id="_1785275548960">
   <g>
    <path fill="black" d="M873.33 43.46c0,61.69 63.9,81.56 94.17,126.77 -128.79,0 -278.05,-8.3 -398.42,21.72 -109.17,27.23 -207.85,78.4 -283.35,140.43 -19.55,16.06 -38.54,30.99 -56.21,48.82 -97.87,98.75 -154.4,194.94 -198.79,330.02 -44.96,136.85 -39.73,325.4 10.07,458.14 13.97,37.22 54.88,156.27 100.9,156.27 33.07,0 61.57,-13.88 61.57,-54.33 0,-23.03 -26.94,-62.74 -36.18,-83.35 -27.85,-62.1 -42.49,-118.56 -51.86,-187.18 -14.78,-108.27 4.21,-220.14 40.95,-312.61 46.81,-117.83 79.98,-144.48 142.3,-219.89l66.19 -56.96c45.25,-34.12 100.3,-68.33 155.05,-87.62 59.92,-21.11 122,-41.49 201.48,-41.19 80.87,0.3 161.8,0.01 242.68,0.01 -32.58,48.64 -90.55,58.59 -90.55,126.77 0,30.99 47.11,60.39 81.92,38.47 12.88,-8.11 55.26,-54.32 69.29,-68.35 24.06,-24.06 131.3,-119.94 131.3,-147.6 0,-42.25 -17.66,-48.45 -42.56,-73.34l-108.66 -108.66c-49,-49.01 -37.65,-49.79 -88.96,-49.8l-2.49 0c-20.33,0 -39.84,23.94 -39.84,43.46z"/>
    <path fill="black" d="M1394.89 905.47c0,209.07 -82.87,394.17 -246.76,524.72 -198.13,157.82 -367.35,134.48 -608.02,134.48 28.49,-42.55 135.32,-99.2 79.02,-155.08 -46.61,-46.28 -86.77,5.27 -108.9,27.4l-115.9 115.91c-67.72,67.71 -58.29,77.53 0,135.82l112.28 112.28c24.14,24.14 38.79,49.8 73.34,49.8 31.08,0 54.33,-24.79 54.33,-54.33 0,-44.89 -72.51,-87.17 -94.17,-119.52 140.37,0 270.63,9.2 403.49,-23.9 62.66,-15.62 103.73,-34.14 154.29,-59.41 42.8,-21.38 95.31,-54.74 131.2,-86.12 70.38,-61.52 126.39,-122.57 172.86,-203.81 133.13,-232.73 143.01,-528.11 1.51,-758.13 -32.47,-52.78 -138.9,-15.2 -86.17,71.69 42.55,70.12 77.6,202.14 77.6,288.21z"/>
    <path fill="black" d="M695.86 615.73l0 36.22c-134.33,0 -199.83,150.68 -138.45,247.11 25.01,39.28 71.79,79.05 134.7,78.99 94.4,-0.09 166.74,-18.54 166.74,61.45 0,17.82 -13.7,32.53 -25.91,39.28 -33.32,18.44 -215.03,0.69 -255.81,8.59 -60.73,11.75 -51.89,107.87 6.45,107.87l112.28 0c0,29.84 -3.45,64.67 12.13,85.67 32.56,43.87 100.15,21.63 100.15,-31.34l0 -54.33c185.43,0 226.89,-263.49 47.6,-319.25 -77.07,-23.97 -167.01,18.08 -200.64,-31.16 -26.06,-38.16 2.37,-81.02 44.42,-84.19 53.17,-4 154.89,2.73 217.41,0.09 74.82,-3.15 69.52,-108.78 -0.13,-108.78l-108.66 0c0,-50.94 10.28,-108.66 -61.57,-108.66 -33.81,0 -50.71,34.16 -50.71,72.44z"/>
   </g>
  </g>
 </g>
</svg>
