<?xml version="1.0" encoding="UTF-8"?>
<!DOCTYPE svg PUBLIC "-//W3C//DTD SVG 1.1//EN" "http://www.w3.org/Graphics/SVG/1.1/DTD/svg11.dtd">
<!-- Creator: CorelDRAW 2018 (64 Bit Versão de avaliação) -->
<svg xmlns="http://www.w3.org/2000/svg" xml:space="preserve" width="100mm" height="84.8359mm" version="1.1" style="shape-rendering:geometricPrecision; text-rendering:geometricPrecision; image-rendering:optimizeQuality; fill-rule:evenodd; clip-rule:evenodd"
viewBox="0 0 10000 8483.59"
 xmlns:xlink="http://www.w3.org/1999/xlink">
 <defs>
  <style type="text/css">
   <![CDATA[
    .fil21 {fill:none}
    .fil0 {fill:white}
    .fil11 {fill:#01265A;fill-rule:nonzero}
    .fil5 {fill:#303270;fill-rule:nonzero}
    .fil9 {fill:#3B3C77;fill-rule:nonzero}
    .fil14 {fill:#52328D;fill-rule:nonzero}
    .fil6 {fill:#7A4495;fill-rule:nonzero}
    .fil20 {fill:#8756A0;fill-rule:nonzero}
    .fil13 {fill:#9B72AF;fill-rule:nonzero}
    .fil2 {fill:#A5DDEF;fill-rule:nonzero}
    .fil4 {fill:#AF8EBF;fill-rule:nonzero}
    .fil3 {fill:#BDA1CA;fill-rule:nonzero}
    .fil1 {fill:#D5F3FF;fill-rule:nonzero}
    .fil8 {fill:#D95574;fill-rule:nonzero}
    .fil12 {fill:#DED0E5;fill-rule:nonzero}
    .fil10 {fill:#DF6E89;fill-rule:nonzero}
    .fil15 {fill:#F6D430;fill-rule:nonzero}
    .fil19 {fill:#F8DD59;fill-rule:nonzero}
    .fil16 {fill:#FA6886;fill-rule:nonzero}
    .fil18 {fill:#FCAD97;fill-rule:nonzero}
    .fil7 {fill:#FCF699;fill-rule:nonzero}
    .fil17 {fill:#FFC7AE;fill-rule:nonzero}
   ]]>
  </style>
   <clipPath id="id0">
    <path d="M-0 0l10000 0 0 8483.59 -10000 0 0 -8483.59z"/>
   </clipPath>
 </defs>
 <g id="Camada_x0020_1">
  <metadata id="CorelCorpID_0Corel-Layer"/>
  <polygon class="fil0" points="-0,0 10000,0 10000,8483.59 -0,8483.59 "/>
  <g style="clip-path:url(#id0)">
   <g id="_2369854886720">
    <path id="1" class="fil1" d="M12113.28 8656.78l0 -1109.45c-271.54,-68.72 -554.58,-92.93 -835.41,-88.8 -245.68,3.61 -490.54,28.12 -733.89,60.75 -250.66,33.59 -502.64,83.5 -756.71,68.52 -213.44,-12.59 -435.64,-78.64 -591.36,-231.54 -157.61,-154.76 -225.67,-373.12 -302.44,-574.21 -179.16,-469.28 -399.39,-942.79 -735.61,-1321.9 -5.8,-6.53 -14.47,-9.44 -23.05,-9.48 -124.54,-152.31 -281.42,-273.36 -427.55,-404.15 -170.75,-152.82 -311.89,-320.75 -384.79,-541.39 -143.03,-432.8 -80.13,-920.05 -337.8,-1315.51 -232.6,-357 -634.34,-569.7 -1034.91,-682.59 -517.36,-145.81 -1063.11,-146.7 -1580.77,-290.74 -250.87,-69.78 -470.25,-181.92 -661.69,-359.57 -179.26,-166.35 -352.14,-336.12 -546.09,-485.92 -372.51,-287.68 -797.58,-520.77 -1260.17,-622.65 -396.55,-87.34 -820.39,-78.84 -1205.84,53.12l0 7855.51 11418.08 0z"/>
    <path class="fil1" d="M-10438.48 8656.78l0 -1109.45c271.54,-68.72 554.58,-92.93 835.41,-88.8 245.68,3.61 490.54,28.12 733.89,60.75 250.66,33.59 502.64,83.5 756.71,68.52 213.44,-12.59 435.64,-78.64 591.36,-231.54 157.61,-154.76 225.67,-373.12 302.44,-574.21 179.16,-469.28 399.39,-942.79 735.61,-1321.9 5.8,-6.53 14.47,-9.44 23.05,-9.48 124.54,-152.31 281.42,-273.36 427.55,-404.15 170.75,-152.82 311.89,-320.75 384.79,-541.39 143.03,-432.8 80.13,-920.05 337.8,-1315.51 232.6,-357 634.34,-569.7 1034.91,-682.59 517.36,-145.81 1063.11,-146.7 1580.77,-290.74 250.87,-69.78 470.25,-181.92 661.69,-359.57 179.26,-166.35 352.14,-336.12 546.09,-485.92 372.51,-287.68 797.58,-520.77 1260.17,-622.65 396.55,-87.34 820.39,-78.84 1205.84,53.12l0 7855.51 -11418.08 0z"/>
    <path class="fil2" d="M738.52 7978.39c-116.31,71.93 -268.91,35.98 -340.87,-80.31 -71.95,-116.31 -35.98,-268.91 80.31,-340.86 116.31,-71.95 268.91,-35.98 340.86,80.31 71.95,116.29 35.98,268.9 -80.3,340.86zm243.53 -529.61l-84.81 33.9c-4.76,1.9 -10.18,0.77 -13.89,-2.76 -26.96,-25.83 -57.07,-47.38 -89.3,-64.35 -4.56,-2.39 -7.32,-7.16 -7.04,-12.31l5.27 -91.12c0.39,-6.33 -3.85,-12 -10.03,-13.46l-120.3 -28.33c-6.15,-1.46 -12.47,1.75 -14.99,7.56l-35.97 83.9c-2.02,4.72 -6.62,7.74 -11.75,7.86 -36.43,0.79 -72.99,6.63 -108.67,17.68 -4.89,1.52 -10.24,0.14 -13.67,-3.69l-60.73 -68.22c-4.2,-4.7 -11.19,-5.74 -16.58,-2.41l-105.13 65.03c-5.37,3.33 -7.6,10.06 -5.23,15.94l33.9 84.81c1.88,4.76 0.77,10.15 -2.78,13.88 -25.82,26.96 -47.36,57.06 -64.34,89.31 -2.39,4.52 -7.16,7.32 -12.29,7.01l-91.15 -5.25c-6.31,-0.38 -11.98,3.85 -13.44,10.02l-28.35 120.3c-1.43,6.16 1.75,12.49 7.57,14.98l83.91 35.99c4.7,2.02 7.73,6.63 7.85,11.76 0.79,36.43 6.63,72.98 17.7,108.64 1.54,4.91 0.12,10.24 -3.72,13.65l-68.19 60.73c-4.73,4.25 -5.76,11.24 -2.42,16.63l65.02 105.1c3.32,5.39 10.05,7.6 15.93,5.25l84.81 -33.9c4.76,-1.88 10.18,-0.77 13.88,2.78 26.97,25.81 57.08,47.36 89.31,64.35 4.56,2.39 7.32,7.14 7.03,12.26l-5.27 91.15c-0.38,6.33 3.86,12.01 10.04,13.47l120.3 28.34c6.15,1.44 12.49,-1.74 14.98,-7.56l35.97 -83.92c2.03,-4.72 6.63,-7.74 11.78,-7.84 36.41,-0.81 72.97,-6.65 108.65,-17.72 4.9,-1.52 10.23,-0.1 13.66,3.73l60.74 68.18c4.22,4.74 11.19,5.78 16.58,2.43l105.12 -65.03c5.38,-3.33 7.61,-10.06 5.23,-15.94l-33.87 -84.78c-1.91,-4.79 -0.79,-10.18 2.75,-13.89 25.83,-26.98 47.36,-57.07 64.35,-89.31 2.39,-4.56 7.16,-7.32 12.31,-7.03l91.13 5.27c6.3,0.36 11.98,-3.85 13.44,-10.04l28.35 -120.3c1.43,-6.16 -1.75,-12.49 -7.57,-14.98l-83.91 -35.97c-4.7,-2.03 -7.73,-6.65 -7.85,-11.78 -0.79,-36.41 -6.63,-72.98 -17.7,-108.64 -1.54,-4.91 -0.12,-10.24 3.71,-13.67l68.2 -60.74c4.73,-4.22 5.76,-11.21 2.42,-16.6l-65.02 -105.1c-3.33,-5.39 -10.06,-7.6 -15.93,-5.25z"/>
    <path class="fil2" d="M10754.94 8656.78c-10.33,-35.18 -15.89,-72.4 -15.89,-110.93 0,-217.25 176.14,-393.4 393.42,-393.4 217.27,0 393.4,176.15 393.4,393.4 0,38.53 -5.56,75.75 -15.88,110.93l406.93 0c2.75,-3.54 4.37,-7.98 4.37,-12.74l0 -196.36c0,-10.06 -7.22,-18.67 -17.13,-20.41l-142.91 -25.08c-8.05,-1.42 -14.39,-7.47 -16.44,-15.35 -14.86,-57.41 -37.51,-111.68 -66.88,-161.58 -4.14,-7.04 -3.92,-15.77 0.78,-22.46l83.29 -118.75c5.78,-8.24 4.8,-19.46 -2.31,-26.56l-138.86 -138.85c-7.11,-7.13 -18.3,-8.09 -26.55,-2.31l-118.74 83.29c-6.69,4.7 -15.45,4.93 -22.49,0.76 -49.87,-29.35 -104.15,-52.02 -161.56,-66.88 -7.93,-2.04 -13.95,-8.39 -15.36,-16.44l-25.07 -142.91c-1.74,-9.89 -10.35,-17.15 -20.41,-17.15l-196.35 0c-10.09,0 -18.69,7.26 -20.44,17.15l-25.08 142.91c-1.39,8.05 -7.43,14.4 -15.32,16.44 -57.44,14.86 -111.71,37.53 -161.58,66.88 -7.06,4.17 -15.82,3.94 -22.51,-0.76l-118.72 -83.29c-8.23,-5.78 -19.44,-4.82 -26.57,2.31l-138.84 138.85c-7.12,7.1 -8.11,18.32 -2.31,26.56l83.28 118.75c4.68,6.69 4.93,15.42 0.79,22.46 -29.37,49.9 -52.02,104.17 -66.9,161.58 -2.02,7.88 -8.39,13.93 -16.42,15.35l-142.91 25.08c-9.92,1.74 -17.15,10.35 -17.15,20.41l0 196.36c0,4.76 1.62,9.2 4.38,12.74l406.94 0z"/>
    <path class="fil2" d="M2453.28 7256.47c-175.96,-44.52 -282.52,-223.27 -238,-399.25 44.52,-175.96 223.26,-282.51 399.23,-237.99 175.96,44.52 282.51,223.27 237.99,399.24 -44.52,175.96 -223.27,282.5 -399.22,238zm729.89 -256.54l-110.6 -49.59c-6.22,-2.78 -10.13,-8.98 -10.16,-15.8 -0.28,-49.54 -7.5,-98.14 -21.06,-144.57 -1.92,-6.53 0.06,-13.58 5.23,-18.04l91.78 -79.09c6.39,-5.47 7.89,-14.76 3.59,-21.99l-84.01 -140.89c-4.3,-7.23 -13.18,-10.32 -21.05,-7.31l-113.23 43.1c-6.37,2.45 -13.5,0.82 -18.35,-3.98 -34.38,-34 -73.69,-63.47 -117.16,-87.28 -5.98,-3.28 -9.57,-9.65 -9.06,-16.46l8.98 -120.87c0.63,-8.37 -4.86,-15.99 -13.02,-18.06l-159.02 -40.25c-8.15,-2.04 -16.62,2.05 -20.05,9.72l-49.59 110.6c-2.8,6.21 -8.98,10.13 -15.81,10.17 -49.55,0.26 -98.15,7.49 -144.55,21.06 -6.56,1.91 -13.61,-0.06 -18.05,-5.23l-79.1 -91.8c-5.5,-6.36 -14.76,-7.87 -21.98,-3.57l-140.9 83.99c-7.22,4.3 -10.32,13.18 -7.32,21.03l43.12 113.24c2.43,6.39 0.83,13.51 -3.98,18.38 -33.99,34.36 -63.47,73.67 -87.27,117.13 -3.28,5.99 -9.67,9.57 -16.46,9.07l-120.88 -8.98c-8.39,-0.61 -16.01,4.86 -18.06,13.01l-40.24 159.03c-2.07,8.17 2.03,16.62 9.69,20.05l110.61 49.61c6.23,2.78 10.14,8.96 10.16,15.79 0.28,49.55 7.5,98.14 21.06,144.57 1.93,6.53 -0.06,13.59 -5.23,18.05l-91.8 79.09c-6.36,5.47 -7.86,14.75 -3.56,21.99l84.01 140.88c4.3,7.24 13.18,10.32 21.02,7.32l113.23 -43.1c6.39,-2.46 13.52,-0.85 18.37,3.95 34.38,34.02 73.7,63.5 117.14,87.28 6,3.29 9.57,9.67 9.08,16.46l-8.98 120.87c-0.63,8.4 4.87,16.02 13.02,18.09l159.02 40.24c8.15,2.05 16.61,-2.04 20.05,-9.73l49.59 -110.59c2.78,-6.21 8.99,-10.12 15.8,-10.16 49.56,-0.27 98.16,-7.5 144.57,-21.06 6.54,-1.91 13.58,0.05 18.04,5.23l79.09 91.77c5.49,6.39 14.78,7.89 22,3.6l140.9 -84c7.21,-4.3 10.3,-13.18 7.31,-21.02l-43.14 -113.25c-2.41,-6.39 -0.81,-13.51 3.99,-18.37 34,-34.39 63.46,-73.68 87.28,-117.14 3.27,-5.98 9.66,-9.59 16.47,-9.06l120.87 8.96c8.37,0.63 15.99,-4.85 18.06,-13.02l40.24 -159.02c2.07,-8.16 -2.02,-16.61 -9.7,-20.05z"/>
    <path class="fil2" d="M3620.2 8391.42c-168.91,-42.73 -271.2,-214.31 -228.44,-383.21 42.74,-168.9 214.29,-271.18 383.19,-228.44 168.92,42.73 271.2,214.32 228.44,383.21 -42.73,168.89 -214.29,271.18 -383.19,228.44zm-166.2 265.36l207.32 0 24.26 -54.13c2.68,-5.97 8.62,-9.71 15.17,-9.75 47.56,-0.26 94.21,-7.22 138.75,-20.21 6.29,-1.84 13.06,0.06 17.33,5.03l68.13 79.06 49.78 0 114.37 -68.16c6.93,-4.13 9.89,-12.65 7.02,-20.19l-41.4 -108.7c-2.34,-6.11 -0.8,-12.96 3.81,-17.63 32.64,-33 60.94,-70.73 83.79,-112.45 3.14,-5.74 9.27,-9.18 15.79,-8.68l116.03 8.6c8.04,0.6 15.36,-4.66 17.35,-12.49l38.6 -152.65c1.99,-7.83 -1.93,-15.94 -9.31,-19.23l-106.15 -47.62c-5.98,-2.68 -9.72,-8.61 -9.76,-15.16 -0.27,-47.57 -7.21,-94.2 -20.22,-138.76 -1.82,-6.29 0.08,-13.04 5.03,-17.31l88.11 -75.93c6.12,-5.27 7.56,-14.18 3.42,-21.1l-80.63 -135.25c-4.13,-6.93 -12.65,-9.91 -20.19,-7.03l-108.69 41.4c-6.12,2.33 -12.97,0.79 -17.63,-3.81 -32.99,-32.65 -70.72,-60.92 -112.44,-83.77 -5.73,-3.17 -9.18,-9.3 -8.7,-15.82l8.62 -116.01c0.61,-8.06 -4.68,-15.38 -12.51,-17.37l-152.64 -38.6c-7.82,-1.99 -15.93,1.95 -19.24,9.3l-47.6 106.16c-2.68,5.98 -8.62,9.73 -15.16,9.77 -47.57,0.26 -94.22,7.2 -138.76,20.21 -6.28,1.85 -13.05,-0.06 -17.33,-5.03l-75.91 -88.1c-5.29,-6.13 -14.19,-7.56 -21.1,-3.43l-135.27 80.65c-6.93,4.11 -9.89,12.63 -7.01,20.17l41.4 108.69c2.33,6.12 0.79,12.97 -3.82,17.64 -32.63,32.98 -60.94,70.73 -83.79,112.43 -3.14,5.74 -9.26,9.18 -15.79,8.72l-116.03 -8.63c-8.04,-0.59 -15.36,4.67 -17.35,12.5l-38.6 152.66c-1.99,7.81 1.93,15.94 9.31,19.25l106.15 47.57c5.98,2.68 9.73,8.62 9.75,15.19 0.26,47.54 7.22,94.19 20.23,138.74 1.83,6.3 -0.08,13.05 -5.03,17.32l-88.11 75.94c-6.12,5.26 -7.55,14.16 -3.42,21.1l80.63 135.24c4.13,6.94 12.65,9.9 20.19,7.02l108.68 -41.41c6.13,-2.33 12.98,-0.78 17.65,3.83 32.98,32.62 70.71,60.93 112.43,83.78 5.74,3.14 9.19,9.29 8.7,15.79l-8.21 110.65z"/>
    <path class="fil2" d="M6852.48 7804.24c-284.6,0 -515.33,-230.71 -515.33,-515.33 0,-284.6 230.73,-515.34 515.33,-515.34 284.63,0 515.34,230.74 515.34,515.34 0,284.62 -230.71,515.33 -515.34,515.33zm1010.87 -670.69l-187.19 -32.82c-10.54,-1.87 -18.85,-9.76 -21.53,-20.12 -19.48,-75.23 -49.14,-146.31 -87.62,-211.63 -5.44,-9.25 -5.13,-20.7 1.01,-29.48l109.11 -155.52c7.58,-10.81 6.29,-25.46 -3.04,-34.79l-181.85 -181.89c-9.33,-9.33 -24.01,-10.6 -34.81,-3.02l-155.54 109.09c-8.76,6.14 -20.23,6.46 -29.44,1.01 -65.34,-38.46 -136.44,-68.14 -211.66,-87.6 -10.33,-2.7 -18.26,-11.01 -20.1,-21.55l-32.85 -187.19c-2.27,-12.99 -13.57,-22.46 -26.74,-22.46l-257.23 0c-13.18,0 -24.45,9.47 -26.74,22.46l-32.83 187.19c-1.86,10.54 -9.77,18.85 -20.11,21.55 -75.23,19.46 -146.31,49.14 -211.65,87.6 -9.23,5.45 -20.69,5.13 -29.46,-1.01l-155.54 -109.09c-10.79,-7.58 -25.46,-6.31 -34.79,3.02l-181.88 181.89c-9.32,9.33 -10.6,23.98 -3.04,34.79l109.12 155.52c6.14,8.78 6.45,20.23 1.01,29.48 -38.46,65.32 -68.16,136.4 -87.6,211.63 -2.7,10.36 -11.01,18.25 -21.55,20.12l-187.19 32.82c-13,2.29 -22.46,13.56 -22.46,26.76l0 257.21c0,13.2 9.46,24.47 22.46,26.74l187.19 32.86c10.54,1.83 18.85,9.76 21.55,20.09 19.44,75.24 49.14,146.34 87.6,211.67 5.44,9.2 5.13,20.69 -1.01,29.43l-109.12 155.54c-7.56,10.79 -6.28,25.48 3.04,34.81l181.88 181.87c9.33,9.33 24,10.6 34.79,3.03l155.54 -109.12c8.77,-6.12 20.23,-6.43 29.46,-1 65.34,38.47 136.42,68.15 211.65,87.63 10.34,2.68 18.25,10.99 20.11,21.51l32.83 187.21c2.29,12.97 13.56,22.46 26.74,22.46l257.23 0c13.17,0 24.47,-9.49 26.74,-22.46l32.85 -187.21c1.84,-10.52 9.77,-18.83 20.1,-21.51 75.22,-19.48 146.32,-49.16 211.66,-87.63 9.21,-5.43 20.68,-5.12 29.44,1l155.54 109.12c10.8,7.57 25.48,6.3 34.81,-3.03l181.85 -181.87c9.33,-9.33 10.62,-24.02 3.04,-34.81l-109.11 -155.54c-6.14,-8.74 -6.45,-20.23 -1.01,-29.43 38.48,-65.33 68.14,-136.43 87.62,-211.67 2.68,-10.33 10.99,-18.26 21.53,-20.09l187.19 -32.86c12.99,-2.27 22.48,-13.54 22.48,-26.74l0 -257.21c0,-13.2 -9.49,-24.47 -22.48,-26.76z"/>
    <path class="fil2" d="M9022.94 7636.94c-235.18,-160.32 -295.86,-480.91 -135.53,-716.08 116.33,-170.66 317.06,-249.39 508.31,-218.5l0.05 0.01c30.34,4.9 60.45,12.56 89.94,23.05l0.29 0.11c2.98,1.06 5.94,2.16 8.9,3.28l2.77 1.04c2.45,0.94 4.88,1.92 7.32,2.89l4.43 1.8c2.27,0.93 4.55,1.91 6.81,2.88l4.31 1.86c2.33,1.03 4.65,2.09 6.97,3.15l4.45 2.06 6.3 3.01 5.32 2.64 5.68 2.89 5.39 2.83 5.83 3.14 5.08 2.84c1.94,1.09 3.88,2.18 5.8,3.29 1.94,1.12 3.86,2.29 5.78,3.44l4.89 2.92c2.16,1.32 4.3,2.68 6.44,4.03l4.5 2.85c3.52,2.27 7.03,4.6 10.52,6.98 235.18,160.32 295.83,480.91 135.53,716.08 -2.35,3.44 -4.73,6.85 -7.15,10.21l-1.12 1.56c-1.87,2.56 -3.75,5.1 -5.64,7.63 -1.4,1.86 -2.81,3.69 -4.23,5.53l-0.94 1.21c-165.63,213.29 -470.83,263.57 -697,109.37zm-73.77 -1170.35c-50.99,24.87 -99.63,55.28 -145.13,90.76l-0.04 -0.11c-12.32,9.6 -24.4,19.59 -36.23,29.95 -8.05,7.04 -19.36,8.91 -29.13,4.49l-173.16 -78.32c-12.02,-5.44 -26.19,-1.46 -33.63,9.45l-144.9 212.53c-7.42,10.9 -5.96,25.54 3.51,34.77l136.15 132.56c7.69,7.46 10.1,18.69 6.48,28.75 -26.28,73.1 -41.79,148.58 -46.82,224.22 -0.71,10.69 -7.39,20 -17.43,23.77l-177.76 67.06c-12.33,4.65 -19.55,17.5 -17.11,30.46l47.84 252.7c2.46,12.98 13.85,22.31 27.05,22.12l189.98 -2.53c10.69,-0.16 20.34,6.06 24.9,15.75 32.31,68.57 74.32,133.16 125.51,191.6 7.03,8.06 8.9,19.39 4.48,29.11l-78.29 173.18c-5.46,12.03 -1.46,26.2 9.45,33.62l212.5 144.91c10.91,7.42 25.56,5.94 34.77,-3.51l132.57 -136.17c7.46,-7.66 18.69,-10.07 28.74,-6.45 73.13,26.28 148.6,41.79 224.25,46.83 10.67,0.69 19.97,7.41 23.74,17.42l67.07 177.76c4.66,12.35 17.5,19.54 30.45,17.09l252.73 -47.81c12.98,-2.45 22.28,-13.86 22.12,-27.04l-2.53 -189.99c-0.17,-10.7 6.06,-20.33 15.72,-24.91 68.59,-32.32 133.17,-74.32 191.62,-125.52 8.06,-7.05 19.37,-8.9 29.13,-4.48l173.17 78.3c12.02,5.46 26.2,1.46 33.62,-9.42l144.89 -212.55c7.44,-10.89 5.94,-25.55 -3.48,-34.75l-136.18 -132.57c-7.67,-7.46 -10.08,-18.69 -6.47,-28.75 26.27,-73.12 41.8,-148.59 46.83,-224.23 0.69,-10.68 7.4,-19.98 17.42,-23.76l177.78 -67.06c12.33,-4.64 19.54,-17.5 17.09,-30.45l-47.83 -252.73 0 -0.02 -0.12 -0.58 0 -0.03 -0.13 -0.58 0 -0.01 -0.15 -0.58 0 -0.02 -0.16 -0.57 0 -0.01 -0.35 -1.15 0 -0.01 -0.2 -0.56 -0.43 -1.12 0 -0.01 -0.23 -0.54 0 -0.01 -0.5 -1.07 0 -0.01 -0.27 -0.52 0 -0.01 -0.28 -0.51 0 -0.01 -0.28 -0.51 -0.3 -0.51 0 0 -0.31 -0.5 0 0 -0.32 -0.49 0 -0.01c-0.33,-0.49 -0.66,-0.96 -1.02,-1.42l0 -0.01 -0.35 -0.46 0 0 -0.38 -0.45 0 -0.01 -0.37 -0.44 0 0 -0.39 -0.43 0 -0.01 -0.39 -0.42 0 0 -0.41 -0.42 0 0 -0.41 -0.41 0 -0.01 -0.42 -0.39 -0.43 -0.39 -0.44 -0.38 0 -0.01 -0.45 -0.37 0 0 -0.45 -0.36 0 0 -0.47 -0.36 -0.46 -0.34 -0.48 -0.33 -0.49 -0.33 0 0 -0.49 -0.31 -0.5 -0.3 0 -0.01 -0.5 -0.28 0 -0.01 -0.52 -0.27 -0.51 -0.27 0 -0.01 -0.53 -0.26 -0.52 -0.25 -0.54 -0.23 -0.54 -0.23 -0.55 -0.21 -0.55 -0.21 -0.56 -0.19 -0.56 -0.18 -0.57 -0.17 -0.58 -0.15 -0.57 -0.14 -0.58 -0.13 -0.59 -0.12 -0.59 -0.11 -0.59 -0.09 -0.61 -0.08 -0.59 -0.06 -0.61 -0.06 -0.61 -0.04 -0.61 -0.02 -0.62 -0.01 -0.61 0 -189.99 2.53c-10.68,0.15 -20.33,-6.06 -24.89,-15.75 -32.32,-68.58 -74.32,-133.16 -125.53,-191.62 -7.04,-8.03 -8.89,-19.36 -4.47,-29.12l78.3 -173.16c5.43,-12.02 1.44,-26.19 -9.45,-33.65l-212.53 -144.88c-10.88,-7.42 -25.54,-5.96 -34.74,3.51l-132.58 136.18c-7.46,7.66 -18.69,10.08 -28.74,6.45 -73.15,-26.3 -148.59,-41.81 -224.25,-46.84 -10.66,-0.7 -19.97,-7.39 -23.76,-17.41l-67.05 -177.78c-4.66,-12.33 -17.51,-19.52 -30.44,-17.07l-252.75 47.81c-12.96,2.45 -22.29,13.86 -22.1,27.04l2.53 189.98c0.14,10.71 -6.06,20.34 -15.73,24.92l-2.57 1.22 -0.64 0.31 -1.91 0.9 -1.3 0.63 -1.26 0.61 -1.94 0.94 -0.61 0.3z"/>
    <path class="fil3" d="M4005.92 4252.53l3253.54 0 1166.5 0c61.57,0 111.5,49.93 111.5,111.5l0 1637.3 0 1176.07c0,61.59 -49.93,111.51 -111.5,111.51l-4420.04 0c-61.58,0 -111.5,-49.92 -111.5,-111.51l0 -2813.37c0,-61.57 49.92,-111.5 111.5,-111.5z"/>
    <path class="fil4" d="M4005.92 4252.53c-61.58,0 -111.5,49.93 -111.5,111.5l0 2813.37c0,61.59 49.92,111.51 111.5,111.51l1489.81 0c40.14,-20.73 79.23,-44.61 117.07,-72.12 149.55,-108.8 242.35,-265.14 338.28,-419.42 49.14,-79.03 100.11,-157.67 164.29,-225.52 64.27,-67.94 141.39,-116.44 220.95,-164.24 72.86,-43.77 147.31,-88.7 206.18,-150.96 59.76,-63.17 95.45,-141.16 121.22,-223.33 28.68,-91.5 46.02,-188.26 92.12,-273.31 39.74,-73.29 99.42,-132.2 166.61,-180.66 131.8,-95.04 285.03,-155.27 417.47,-249.42 140.5,-99.85 229.32,-236.51 305.71,-388.52 44.82,-89.21 86.56,-180.32 139.89,-264.94 59.86,-94.94 134.55,-169.11 227.99,-231.1 86.61,-57.49 185.85,-116.49 259.99,-192.84l-1014.04 0 -3253.54 0z"/>
    <path class="fil3" d="M5320.41 5770.73c0,-711.92 577.12,-1289.03 1289.03,-1289.03 711.91,0 1289.04,577.11 1289.04,1289.03 0,711.91 -577.13,1289.02 -1289.04,1289.02 -711.91,0 -1289.03,-577.11 -1289.03,-1289.02z"/>
    <path class="fil5" d="M6609.44 4481.7l0 1289.03 1289.04 0c0,-711.92 -577.13,-1289.03 -1289.04,-1289.03z"/>
    <path class="fil6" d="M5329.92 5613.94c-6.23,51.39 -9.51,103.7 -9.51,156.79 0,365.23 151.95,694.96 396.04,929.51l892.99 -929.51 -1279.52 -156.79z"/>
    <path class="fil7" d="M5716.45 6700.24c231.67,222.65 546.34,359.51 892.99,359.51 320.31,0 613.32,-116.88 838.76,-310.26l-838.76 -978.76 -892.99 929.51z"/>
    <path class="fil8" d="M7448.2 6749.49c275.6,-236.42 450.28,-587.17 450.28,-978.76l-1289.04 0 838.76 978.76z"/>
    <polygon class="fil9" points="1696.08,5143.78 1713.92,5143.78 1713.92,4480.91 1696.08,4480.91 "/>
    <polygon class="fil9" points="2053.66,5091.85 2071.5,5091.85 2071.5,4208.33 2053.66,4208.33 "/>
    <polygon class="fil10" points="2420.17,5154.64 2438.01,5154.64 2438.01,4369.83 2420.17,4369.83 "/>
    <polygon class="fil10" points="2786.69,5065.23 2804.51,5065.23 2804.51,4114.85 2786.69,4114.85 "/>
    <polygon class="fil10" points="3153.2,5054.79 3171.04,5054.79 3171.04,4357.29 3153.2,4357.29 "/>
    <polygon class="fil9" points="3519.71,5128.67 3537.55,5128.67 3537.55,4171.51 3519.71,4171.51 "/>
    <polygon class="fil9" points="3886.23,5123.99 3904.05,5123.99 3904.05,4042.43 3886.23,4042.43 "/>
    <polygon class="fil10" points="4252.74,5050.52 4270.58,5050.52 4270.58,4130.74 4252.74,4130.74 "/>
    <polygon class="fil10" points="4619.25,4729.79 4637.08,4729.79 4637.08,3892.85 4619.25,3892.85 "/>
    <polygon class="fil10" points="4985.75,4613.27 5003.6,4613.27 5003.6,3913.24 4985.75,3913.24 "/>
    <polygon class="fil9" points="5352.28,4529.67 5370.11,4529.67 5370.11,3809.04 5352.28,3809.04 "/>
    <polygon class="fil10" points="5718.78,4650.09 5736.63,4650.09 5736.63,3933.62 5718.78,3933.62 "/>
    <polygon class="fil10" points="6085.29,4960.38 6103.13,4960.38 6103.13,3832.18 6085.29,3832.18 "/>
    <polygon class="fil9" points="6451.8,4511.34 6469.64,4511.34 6469.64,3734.27 6451.8,3734.27 "/>
    <polygon class="fil9" points="1603.39,5038.09 1806.59,5038.09 1806.59,4586.6 1603.39,4586.6 "/>
    <polygon class="fil9" points="1960.99,4907.22 2164.19,4907.22 2164.19,4478.83 1960.99,4478.83 "/>
    <polygon class="fil10" points="2327.49,4936.23 2530.7,4936.23 2530.7,4535.55 2327.49,4535.55 "/>
    <polygon class="fil10" points="2694,4920.59 2897.2,4920.59 2897.2,4417.84 2694,4417.84 "/>
    <polygon class="fil10" points="3060.51,4929.91 3263.73,4929.91 3263.73,4529.66 3060.51,4529.66 "/>
    <polygon class="fil9" points="3427.03,4964.42 3630.24,4964.42 3630.24,4364.07 3427.03,4364.07 "/>
    <polygon class="fil9" points="3793.54,5033.51 3996.74,5033.51 3996.74,4326.71 3793.54,4326.71 "/>
    <polygon class="fil10" points="4160.05,4841.42 4363.28,4841.42 4363.28,4256.61 4160.05,4256.61 "/>
    <polygon class="fil10" points="4526.55,4511.34 4729.78,4511.34 4729.78,4062.76 4526.55,4062.76 "/>
    <polygon class="fil10" points="4893.06,4403.83 5096.28,4403.83 5096.28,4104 4893.06,4104 "/>
    <polygon class="fil9" points="5259.59,4326.71 5462.79,4326.71 5462.79,4062.76 5259.59,4062.76 "/>
    <polygon class="fil10" points="5626.09,4429.78 5829.31,4429.78 5829.31,4098.77 5626.09,4098.77 "/>
    <polygon class="fil10" points="5992.6,4729.79 6195.82,4729.79 6195.82,4062.76 5992.6,4062.76 "/>
    <polygon class="fil9" points="6359.1,4364.07 6562.33,4364.07 6562.33,3886.06 6359.1,3886.06 "/>
    <polygon class="fil10" points="1687.15,4343.64 1705,4343.64 1705,3139.38 1687.15,3139.38 "/>
    <polygon class="fil10" points="2053.66,4024.67 2071.5,4024.67 2071.5,2890.25 2053.66,2890.25 "/>
    <polygon class="fil9" points="2420.17,4343.64 2438.01,4343.64 2438.01,2847.23 2420.17,2847.23 "/>
    <polygon class="fil9" points="2786.69,3927.21 2804.51,3927.21 2804.51,2706.99 2786.69,2706.99 "/>
    <polygon class="fil10" points="3153.2,4024.67 3171.04,4024.67 3171.04,2465.23 3153.2,2465.23 "/>
    <polygon class="fil9" points="3519.71,3787.61 3537.55,3787.61 3537.55,2558.63 3519.71,2558.63 "/>
    <polygon class="fil10" points="3886.23,3890.87 3904.05,3890.87 3904.05,2517.9 3886.23,2517.9 "/>
    <polygon class="fil10" points="4252.74,3687.26 4270.58,3687.26 4270.58,2506.28 4252.74,2506.28 "/>
    <polygon class="fil9" points="4619.25,3275.44 4637.08,3275.44 4637.08,2200.84 4619.25,2200.84 "/>
    <polygon class="fil9" points="4985.75,3125.84 5003.6,3125.84 5003.6,2227.03 4985.75,2227.03 "/>
    <polygon class="fil10" points="5352.28,3018.49 5370.11,3018.49 5370.11,2093.23 5352.28,2093.23 "/>
    <polygon class="fil9" points="5718.78,3173.12 5736.63,3173.12 5736.63,2253.2 5718.78,2253.2 "/>
    <polygon class="fil10" points="6085.29,3571.52 6103.13,3571.52 6103.13,2122.93 6085.29,2122.93 "/>
    <polygon class="fil9" points="6451.8,2994.95 6469.64,2994.95 6469.64,1997.23 6451.8,1997.23 "/>
    <polygon class="fil10" points="1594.46,4075.58 1797.68,4075.58 1797.68,3407.42 1594.46,3407.42 "/>
    <polygon class="fil10" points="1960.99,3787.61 2164.19,3787.61 2164.19,3237.55 1960.99,3237.55 "/>
    <polygon class="fil9" points="2327.49,3927.21 2530.7,3927.21 2530.7,3163.19 2327.49,3163.19 "/>
    <polygon class="fil9" points="2694,3741.51 2897.2,3741.51 2897.2,3096 2694,3096 "/>
    <polygon class="fil10" points="3060.51,3532.39 3263.73,3532.39 3263.73,3018.49 3060.51,3018.49 "/>
    <polygon class="fil9" points="3427.03,3576.71 3630.24,3576.71 3630.24,2805.87 3427.03,2805.87 "/>
    <polygon class="fil10" points="3793.54,3665.42 3996.74,3665.42 3996.74,2757.88 3793.54,2757.88 "/>
    <polygon class="fil10" points="4160.05,3418.76 4363.28,3418.76 4363.28,2667.86 4160.05,2667.86 "/>
    <polygon class="fil9" points="4526.55,2994.95 4729.78,2994.95 4729.78,2419.01 4526.55,2419.01 "/>
    <polygon class="fil9" points="4893.06,2856.93 5096.28,2856.93 5096.28,2471.96 4893.06,2471.96 "/>
    <polygon class="fil10" points="5259.59,2757.87 5462.79,2757.87 5462.79,2419 5259.59,2419 "/>
    <polygon class="fil9" points="5626.09,2890.24 5829.31,2890.24 5829.31,2465.23 5626.09,2465.23 "/>
    <polygon class="fil10" points="5992.6,3275.46 6195.82,3275.46 6195.82,2419.01 5992.6,2419.01 "/>
    <polygon class="fil9" points="6359.1,2805.87 6562.33,2805.87 6562.33,2192.12 6359.1,2192.12 "/>
    <path class="fil5" d="M6626.92 8656.78l-84.24 -1312.93c-2.39,-36.86 25.59,-68.67 62.49,-71.04 36.73,-2.45 68.66,25.6 71.03,62.48l84.79 1321.49 -134.07 0z"/>
    <path class="fil5" d="M967.16 8656.78l-84.24 -1312.93c-2.35,-36.86 25.61,-68.67 62.49,-71.04 37.05,-2.45 68.68,25.6 71.05,62.48l84.77 1321.49 -134.07 0z"/>
    <path class="fil5" d="M6647.54 7977.78l-5952.34 0 0 -89.21 5952.34 0c24.61,0 44.6,19.98 44.6,44.61 0,24.63 -19.99,44.6 -44.6,44.6z"/>
    <path class="fil11" d="M6676.2 7335.29c-2.37,-36.88 -34.3,-64.93 -71.03,-62.48 -36.9,2.37 -64.88,34.18 -62.49,71.04l34.94 544.72 -3999.95 0 614.64 89.21 3391.04 0 31.87 496.79 135.35 19.64 -74.37 -1158.92z"/>
    <path class="fil11" d="M1016.46 7335.29c-2.37,-36.88 -34,-64.93 -71.05,-62.48 -36.88,2.37 -64.84,34.18 -62.49,71.04l19.34 301.55 135.35 19.64 -21.15 -329.75z"/>
    <path class="fil5" d="M695.2 6969.74l6411.35 0 -65.82 435.39c-4.12,27.27 -27.54,47.42 -55.13,47.42l-6290.4 0 0 -482.81z"/>
    <polygon class="fil11" points="695.2,7211.14 7070.04,7211.14 7106.55,6969.74 695.2,6969.74 "/>
    <path class="fil12" d="M7669.73 7022.98l-6974.53 0 0 -193.45 6974.53 0c6.17,0 11.16,4.98 11.16,11.15l0 171.13c0,6.16 -4.99,11.17 -11.16,11.17z"/>
    <path class="fil3" d="M3562.66 6747.19l-203.22 0c-131.88,0 -257.51,-106.92 -280.63,-238.8l-50.19 -286.44 -370.77 0 50.2 286.44c23.11,131.88 -65.05,238.8 -196.94,238.8l-203.22 0c-9.69,0 -16.16,7.85 -14.45,17.54l8.27 47.26c1.7,9.69 10.92,17.54 20.62,17.54l1254.77 0c9.69,0 16.16,-7.85 14.48,-17.54l-8.3 -47.26c-1.7,-9.69 -10.93,-17.54 -20.62,-17.54z"/>
    <path class="fil13" d="M3102.64 6580.61c-11.22,-22.79 -19.41,-47.02 -23.83,-72.22l-50.19 -286.44 -370.77 0 50.2 286.44c0.85,4.85 1.24,9.57 1.79,14.31l392.8 57.91z"/>
    <path class="fil3" d="M4510.39 6401.61l-3271.34 0c-36.94,0 -72.15,-29.96 -78.63,-66.9l-349.55 -1994.62c-6.49,-36.96 18.2,-66.9 55.16,-66.9l3271.33 0c36.96,0 72.15,29.94 78.64,66.9l349.56 1994.62c6.49,36.94 -18.22,66.9 -55.17,66.9z"/>
    <path class="fil13" d="M2840.84 6217.71c-15.81,0 -29.58,6.02 -38.74,16.93 -9.4,11.21 -13.01,26.33 -10.17,42.59 6.08,34.61 39.1,62.75 73.62,62.75 15.82,0 29.59,-6 38.75,-16.93 9.41,-11.21 13.02,-26.34 10.18,-42.59 -6.07,-34.61 -39.09,-62.75 -73.64,-62.75zm24.71 140.94c-43.18,0 -84.45,-35.09 -92.01,-78.19 -3.81,-21.8 1.25,-42.33 14.27,-57.81 12.77,-15.22 31.63,-23.59 53.03,-23.59 43.19,0 84.46,35.05 92.03,78.17 3.81,21.79 -1.26,42.33 -14.28,57.84 -12.77,15.2 -31.61,23.58 -53.04,23.58z"/>
    <path class="fil6" d="M4389.62 6172.74l-3110.05 0c-18.47,0 -36.06,-14.98 -39.3,-33.45l-303.54 -1731.96c-3.25,-18.48 9.12,-33.45 27.59,-33.45l3110.05 0c18.47,0 36.07,14.97 39.33,33.45l303.52 1731.96c3.24,18.47 -9.1,33.45 -27.6,33.45z"/>
    <path class="fil14" d="M4113.7 4407.33c-3.26,-18.48 -20.86,-33.45 -39.33,-33.45l-317.83 0c-50.93,57.18 -99.32,116.07 -147.65,169.55 -96.04,106.29 -203.99,201.4 -346.48,236.25 -77.34,18.92 -157.44,24.47 -234.04,46.73 -59.78,17.37 -117.04,43.91 -169.99,76.56 -224.06,138.26 -371.63,368.14 -590.23,513.79 -127.63,85.03 -268.38,147.17 -406.82,212.06 -128.56,60.25 -255.25,124.54 -377.64,196.6 -92.27,54.29 -181.86,113.06 -267.43,176.88l24.01 136.99c3.24,18.47 20.83,33.45 39.3,33.45l3110.05 0c18.5,0 30.84,-14.98 27.6,-33.45l-303.52 -1731.96z"/>
    <polygon class="fil15" points="1321.91,5949.83 1311.53,5949.83 1185.57,5248.91 1195.95,5248.91 "/>
    <polygon class="fil16" points="1501.87,5764.17 1491.49,5764.17 1372.83,5103.9 1383.21,5103.9 "/>
    <polygon class="fil15" points="1748.56,5949.83 1738.16,5949.83 1581.65,5078.88 1592.03,5078.88 "/>
    <polygon class="fil15" points="1918.34,5707.48 1907.93,5707.48 1780.29,4997.24 1790.69,4997.24 "/>
    <polygon class="fil16" points="2141.83,5764.17 2131.45,5764.17 1968.33,4856.54 1978.73,4856.54 "/>
    <polygon class="fil15" points="2330.36,5626.21 2319.97,5626.21 2191.44,4910.89 2201.8,4910.89 "/>
    <polygon class="fil15" points="2554.48,5686.32 2544.1,5686.32 2400.5,4887.21 2410.86,4887.21 "/>
    <polygon class="fil16" points="2746.51,5567.8 2736.13,5567.8 2612.6,4880.44 2622.99,4880.44 "/>
    <polygon class="fil15" points="2916.75,5328.12 2906.37,5328.12 2793.97,4702.66 2804.35,4702.66 "/>
    <polygon class="fil15" points="1159.65,5404.94 1277.93,5404.94 1347.81,5793.81 1229.54,5793.81 "/>
    <polygon class="fil16" points="1355.21,5306.07 1473.49,5306.07 1531.03,5626.21 1412.75,5626.21 "/>
    <polygon class="fil15" points="1560.75,5262.78 1679.03,5262.78 1758.94,5707.48 1640.67,5707.48 "/>
    <polygon class="fil15" points="1767.05,5223.67 1885.33,5223.67 1952.84,5599.36 1834.56,5599.36 "/>
    <polygon class="fil16" points="1972.26,5178.57 2090.54,5178.57 2144.3,5477.68 2026.03,5477.68 "/>
    <polygon class="fil15" points="2163.34,5054.79 2281.62,5054.79 2362.25,5503.45 2243.97,5503.45 "/>
    <polygon class="fil15" points="2371.65,5026.86 2489.93,5026.86 2584.85,5555.11 2466.57,5555.11 "/>
    <polygon class="fil16" points="2575.55,4974.47 2693.82,4974.47 2772.38,5411.53 2654.11,5411.53 "/>
    <polygon class="fil15" points="2762.85,4829.64 2881.11,4829.64 2941.36,5164.86 2823.09,5164.86 "/>
    <polygon class="fil16" points="4117.35,5009.72 4127.73,5009.72 4023.38,4428.99 4012.98,4428.99 "/>
    <polygon class="fil16" points="3753.68,5360.17 3764.06,5360.17 3620.77,4562.75 3610.37,4562.75 "/>
    <polygon class="fil16" points="3530.02,5302.6 3540.41,5302.6 3424.18,4655.85 3413.8,4655.85 "/>
    <polygon class="fil15" points="3336.78,5414.35 3347.16,5414.35 3214.2,4674.48 3203.82,4674.48 "/>
    <polygon class="fil15" points="3154.19,5585.33 3164.57,5585.33 3023.69,4801.45 3013.31,4801.45 "/>
    <polygon class="fil16" points="4097.71,4542.44 3979.43,4542.44 4043.64,4899.66 4161.91,4899.66 "/>
    <polygon class="fil15" points="3904.03,5009.72 3914.41,5009.72 3810.04,4428.99 3799.66,4428.99 "/>
    <polygon class="fil15" points="3884.38,4542.44 3766.11,4542.44 3830.32,4899.66 3948.59,4899.66 "/>
    <polygon class="fil16" points="3706.34,4738.81 3588.07,4738.81 3666.1,5172.97 3784.38,5172.97 "/>
    <polygon class="fil16" points="3506.24,4812.34 3387.97,4812.34 3443.96,5123.99 3562.24,5123.99 "/>
    <polygon class="fil15" points="3292.92,4812.34 3174.65,4812.34 3254.44,5256.4 3372.72,5256.4 "/>
    <polygon class="fil15" points="3106.23,4960.52 2987.95,4960.52 3057.65,5348.32 3175.92,5348.32 "/>
    <path class="fil11" d="M3451.99 4391.7l-324.36 226.54 -439.43 0 -3.28 1.08 -188.54 137.33 -291.32 0 -406.07 -97.82 -4.75 1.03 -423.33 331.8 -225.32 0c-3.08,0 -5.58,2.5 -5.58,5.58 0,3.08 2.5,5.57 5.58,5.57l227.24 0 3.43 -1.17 422.74 -331.34 404.08 97.36 1.32 0.14 293.78 0 3.28 -1.05 188.57 -137.36 439.37 0 3.18 -0.99 325.8 -227.55c2.53,-1.76 3.14,-5.23 1.38,-7.77 -1.77,-2.51 -5.23,-3.14 -7.77,-1.38z"/>
    <path class="fil11" d="M1395.13 4997.24c0,12.32 -9.99,22.3 -22.3,22.3 -12.32,0 -22.3,-9.98 -22.3,-22.3 0,-12.31 9.98,-22.28 22.3,-22.28 12.31,0 22.3,9.97 22.3,22.28z"/>
    <path class="fil11" d="M1819.97 4664.24c0,12.33 -9.98,22.31 -22.28,22.31 -12.33,0 -22.31,-9.98 -22.31,-22.31 0,-12.3 9.98,-22.3 22.31,-22.3 12.3,0 22.28,10 22.28,22.3z"/>
    <path class="fil11" d="M2226.69 4762.23c0,12.32 -9.99,22.3 -22.29,22.3 -12.33,0 -22.31,-9.98 -22.31,-22.3 0,-12.31 9.98,-22.3 22.31,-22.3 12.3,0 22.29,9.99 22.29,22.3z"/>
    <path class="fil11" d="M2520.48 4762.23c0,12.32 -9.97,22.3 -22.3,22.3 -12.31,0 -22.3,-9.98 -22.3,-22.3 0,-12.31 9.99,-22.3 22.3,-22.3 12.33,0 22.3,9.99 22.3,22.3z"/>
    <path class="fil11" d="M2710.5 4623.82c0,12.33 -9.97,22.3 -22.3,22.3 -12.3,0 -22.3,-9.97 -22.3,-22.3 0,-12.31 10,-22.31 22.3,-22.31 12.33,0 22.3,10 22.3,22.31z"/>
    <path class="fil11" d="M3151.7 4623.82c0,12.33 -10,22.3 -22.3,22.3 -12.33,0 -22.31,-9.97 -22.31,-22.3 0,-12.31 9.98,-22.31 22.31,-22.31 12.3,0 22.3,10 22.3,22.31z"/>
    <path class="fil11" d="M1898.63 6111.17l540.76 -281.76 736.53 0 3.94 -1.64 304.63 -304.63 276.8 0 188.68 250.94c1.14,1.52 2.98,2.35 4.87,2.21 1.9,-0.14 3.59,-1.23 4.5,-2.92l274.5 -507.93c1.46,-2.72 0.45,-6.11 -2.27,-7.57 -2.7,-1.46 -6.08,-0.44 -7.54,2.26l-270.37 500.29 -185.14 -246.21 -4.46 -2.23 -281.88 0 -3.94 1.65 -304.63 304.62 -735.6 0 -2.58 0.64 -541.95 282.41c-2.74,1.42 -3.79,4.78 -2.37,7.52 1.42,2.71 4.78,3.79 7.52,2.35z"/>
    <path class="fil11" d="M2471.46 5823.83c0,18.47 -14.98,33.45 -33.45,33.45 -18.47,0 -33.46,-14.98 -33.46,-33.45 0,-18.47 14.99,-33.47 33.46,-33.47 18.47,0 33.45,15 33.45,33.47z"/>
    <path class="fil11" d="M3209.38 5823.83c0,18.47 -14.98,33.45 -33.46,33.45 -18.47,0 -33.45,-14.98 -33.45,-33.45 0,-18.47 14.98,-33.47 33.45,-33.47 18.48,0 33.46,15 33.46,33.47z"/>
    <path class="fil11" d="M3515.63 5517.56c0,18.47 -14.96,33.47 -33.45,33.47 -18.47,0 -33.45,-15 -33.45,-33.47 0,-18.47 14.98,-33.45 33.45,-33.45 18.49,0 33.45,14.98 33.45,33.45z"/>
    <path class="fil11" d="M3797.52 5517.56c0,18.47 -14.97,33.47 -33.46,33.47 -18.47,0 -33.45,-15 -33.45,-33.47 0,-18.47 14.98,-33.45 33.45,-33.45 18.49,0 33.46,14.98 33.46,33.45z"/>
    <path class="fil11" d="M3987.89 5770.73c0,18.47 -14.99,33.44 -33.46,33.44 -18.47,0 -33.45,-14.97 -33.45,-33.44 0,-18.48 14.98,-33.47 33.45,-33.47 18.47,0 33.46,14.99 33.46,33.47z"/>
    <path class="fil11" d="M5814.8 8079.82c30.64,135.99 91.9,396.67 48.58,576.96l-65.23 0 -2940.93 0c32.43,-73.3 63.47,-146.69 93.04,-220.17 73.17,-181.85 233.03,-314.36 424.87,-354.48 518.3,-108.38 1047.83,-138.47 1584.97,-115.26 29.26,1.26 54.5,-20.31 57.56,-49.46l24.09 -228.91c3.02,-28.73 27.63,-50.28 56.5,-49.53l580.49 15.02c25.53,0.67 47.28,18.68 52.68,43.63 19.5,90.36 64.89,300.06 83.38,382.2z"/>
    <path class="fil17" d="M4278.69 4631.46c-2.88,165.19 -7.74,344.45 -4.4,465.57 1.29,47.17 -31.08,88.57 -77.2,98.65l-275.22 60.21c0,0 423.74,657.88 914.34,557.52 490.62,-100.35 323.37,-758.23 323.37,-758.23l-136.91 0c-45.05,0 -84.24,-30.57 -95.31,-74.2 -56.58,-223.25 -97.41,-530.58 -135.73,-851.29l-512.94 501.77z"/>
    <path class="fil17" d="M4356.74 3639.07c-323.36,44.6 -412.56,223.01 -401.39,613.27 11.12,390.27 111.5,590.98 256.44,624.43 144.95,33.45 289.91,-11.15 379.11,-66.9 89.23,-55.75 200.73,-200.71 200.73,-200.71l-434.89 -970.09z"/>
    <path class="fil18" d="M4211.79 4876.77c20.84,4.81 41.64,7.85 62.29,9.63 -1.09,78.44 -1.43,151.48 0.21,210.63 0.44,15.8 -2.98,30.95 -9.37,44.48 61.43,-38.16 132.98,-98.74 164.73,-185.61 61.08,-167.18 21.35,-492.99 21.35,-492.99 0,0 -3.92,34.02 -77.47,150.36 -57.42,90.81 -162.45,202.6 -205.8,247.3 14.17,7.24 28.85,12.7 44.06,16.2z"/>
    <path class="fil11" d="M4938.29 4592.86c-19.3,-40.55 -52.65,-72.05 -68.4,-114 -10.75,-57.64 -21.13,-115.36 -30.03,-173.36 -6.98,-45.51 -13.42,-91.13 -19.22,-136.8 -2.98,-23.46 -5.63,-46.94 -8.49,-70.41 -1.32,-10.83 -6.83,-42.48 -6.83,-59.14 0,-28.55 0.38,-61.02 1.58,-89.37 5.25,-123.34 3.06,-253.76 -50.12,-367.72 -42.19,-90.42 -124.42,-170.64 -225.79,-187.08 -120.73,-19.61 -236.83,47.27 -332.89,112.7 -59.56,40.54 -115.86,87.19 -163.93,140.94 -67.15,1.3 -153.07,27.23 -163.04,98.95 -1.85,13.2 0.22,29.17 5.7,44.02 -22.35,9.61 -42.37,23.98 -57.72,43.26 -27.71,34.83 -32.87,84.13 -3.27,119.47 27.74,33.15 76.45,48.68 115.16,64.35 48.35,19.61 97.96,36.45 148.97,47.54 1.05,4.62 2.11,9.16 3.02,13.42 5.29,24.64 11.84,49.02 19.48,73.03 15.19,47.78 34.79,94.23 58.35,138.49 47.19,88.66 110.37,169.54 185.77,235.98 20.79,18.33 42.55,35.65 65.07,51.82 20.74,14.9 43.39,32.68 67.51,42.41 7.99,19.28 20.66,37 33.49,52.94 18.31,22.69 40.33,42.35 64.74,58.24 54.29,35.36 122.09,51.28 186.07,41.83 61.59,-9.1 126.63,-19.52 159.09,-55.41 32.95,-36.41 36.45,-82.59 15.73,-126.1z"/>
    <path class="fil18" d="M4093.02 4084.28c39.47,-6.43 107.61,152.45 91.62,248.73 -16,96.28 -30.33,132.65 -65.34,129.75 -35.02,-2.92 -37.94,-61.87 -26.28,-166.2 11.64,-104.32 -87.27,-198.07 0,-212.28z"/>
    <path class="fil18" d="M2662.56 6332.09l-64.81 -288.61c-3.94,-17.54 -26.79,-21.8 -37.03,-7.04 -5.02,7.24 -9.14,16.26 -10.85,27.31 -5.79,38.13 -15.99,166.1 -15.99,166.1l128.68 102.24z"/>
    <path class="fil17" d="M2471.54 6078.9l-263.17 -107.6c-13.16,-5.37 -27.63,4.99 -26.3,19.16 1.6,16.95 7.02,37.87 22.38,53.22 30.56,30.55 130.91,96.01 130.91,96.01l136.18 -60.79z"/>
    <path class="fil17" d="M2452.89 6075.47l-309.84 15.23c-15.51,0.74 -26.71,15.95 -20.28,27.87 7.73,14.3 20.79,30.45 42.15,37.56 42.41,14.18 169.3,29.89 169.3,29.89l118.67 -110.55z"/>
    <path class="fil17" d="M2682.24 6384.03c-17.69,-61.02 -154.05,-373.42 -296.7,-306.33 -142.64,67.1 -187.61,155.07 -219.62,220.51 -11.6,23.77 -19.39,40.04 -24.59,51.16 -5.76,12.3 2.43,26.75 15.99,27.83 11.94,0.94 26.26,0.34 39.15,-4.82 29.09,-11.62 49.44,-40.29 49.44,-40.29l-43.4 85.27c-5.31,10.45 -0.45,23.3 10.54,27.31 14.82,5.39 35.38,8.58 51.78,-5.37 29.07,-24.74 45.07,-56.73 45.07,-56.73 0,0 -41.52,97.95 9.06,173.32 50.58,75.38 194.57,155.38 194.57,155.38l304.73 311.71 262.48 -387.33c0,0 -354.87,-101.11 -398.5,-251.62z"/>
    <path class="fil18" d="M3080.74 6635.65c0,0 -354.87,-101.11 -398.5,-251.62 -3.1,-10.7 -9.91,-29.21 -19.68,-51.94l-12.55 -55.81c-31.24,60.23 -70.15,141.79 -94.38,216.83 -32.86,101.66 -6.32,211.18 22.61,284.35l240.02 245.52 262.48 -387.33z"/>
    <path class="fil15" d="M2722.69 6458.54l-211.17 268.77c-7.76,9.89 -9.43,23.21 -4.22,34.64 45.84,100.97 275.32,579.38 540.7,657.17 296.99,87.06 556.33,-376.68 556.33,-376.68 -153.77,-264.82 -487.68,-434.51 -841.32,-593.8 -14.1,-6.34 -30.75,-2.24 -40.32,9.9z"/>
    <path class="fil19" d="M4271.15 5129.56c256.03,68.43 479.43,17.52 686.3,-93.91 17.35,-9.34 37.26,-12.79 56.83,-10.25 118.44,15.32 542.15,73.17 690.21,134.82 253.08,105.38 605.79,407.88 747.65,912.11 145.38,516.77 265.67,902.68 -0.06,1011.27 -270.53,110.55 -396.55,70.5 -396.55,70.5 0,0 -149.66,1046.49 -152.9,1058.11 -3.23,11.65 -1980.76,0 -1980.76,0l-57.23 -1229.32c0,0 -543.19,539.93 -816.64,436.23 -386.17,-146.41 -378.38,-459.42 -173.1,-889.58 205.32,-430.15 509.38,-1082.23 805.07,-1252.32 165.77,-95.37 474.26,-140.09 553.87,-150.35 12.53,-1.63 25.12,-0.57 37.31,2.69z"/>
    <path class="fil15" d="M6281.88 5949.87c-62.11,-78.96 -112.62,-166.24 -170.8,-248 -94.42,-132.63 -220.05,-264.57 -388.61,-290.89 -195.92,-30.61 -389.66,95.08 -557.18,179.06 -345.94,173.34 -687.88,377.98 -921.64,694.49 -58.22,78.84 -101.24,167.28 -158.72,246.45 -59.93,82.49 -142.4,124.17 -228.76,173.07 -70.05,39.64 -132.39,87.89 -172.7,158.88 -38.61,68.09 -56.29,145.59 -72.69,221.37 -10.28,47.44 -19.84,96.25 -34.57,143 161.78,-118.5 288.43,-244.41 288.43,-244.41l52.85 1135.37c45.48,12.38 89.64,29.01 131.21,53 22.1,12.75 43.19,26.94 63.6,42 495.61,2.57 1787.71,8.36 1790.33,-1.05 3.24,-11.62 152.9,-1058.11 152.9,-1058.11 0,0 126.02,40.05 396.55,-70.5 257.74,-105.33 152.33,-471.53 13.09,-964.99 -68.46,-48.49 -130.39,-101.51 -183.29,-168.74z"/>
    <path class="fil6" d="M3735.39 8656.78c101.11,-372.36 154.12,-1659.35 139.06,-2240 -4.09,-158.26 121.04,-289.7 279.29,-293.59l1600.13 -39.1c148.65,-3.65 275.26,107.12 291.77,254.89 86.74,777.52 111.86,1549.89 83.79,2317.8l-331.28 0 -2062.76 0z"/>
    <path class="fil14" d="M6129.43 8656.78c24.95,-682.66 7.73,-1368.84 -57.34,-2059.02 -49.21,13.89 -102.65,17.09 -153.96,26.66 -84.86,15.83 -154.26,52.59 -202.57,125.71 -51.92,78.63 -69.01,178.05 -131.57,250.04 -67.92,78.13 -176.67,103.88 -265.43,150.02 -87.54,45.46 -147.36,111.55 -186.01,202.11 -42.92,100.56 -66.52,204.3 -136.48,291.31 -74.18,92.27 -151.48,171.38 -203.61,279.55 -53.98,112.06 -100.61,229.26 -144.85,345.46 -47.08,123.6 -88.05,254.91 -109.15,388.16l1259.69 0 331.28 0z"/>
    <path class="fil20" d="M4395.76 8656.78c8.43,-57.86 15.21,-116.01 20.87,-174.23 11.76,-120.79 18.81,-241.96 25.34,-363.14 6.84,-126.3 13.63,-252.63 18.57,-379.03 9.87,-251.94 12.47,-504.69 -7.74,-756.21 -10.06,-125.21 -25.81,-250.03 -48.94,-373.52 -21.73,-115.88 -44.95,-237.02 -95.57,-344.33 -25.63,-54.33 -62.41,-105.64 -108.97,-144.22l-45.58 1.09c-158.25,3.89 -283.38,135.33 -279.29,293.59 15.06,580.65 -37.95,1867.64 -139.06,2240l660.37 0z"/>
    <path class="fil2" d="M2110.22 1715.74c-235.18,-160.32 -295.86,-480.91 -135.53,-716.08 116.33,-170.66 317.06,-249.39 508.31,-218.5l0.05 0.01c30.34,4.9 60.45,12.56 89.94,23.05l0.29 0.11c2.98,1.06 5.94,2.16 8.9,3.28l2.77 1.04c2.45,0.94 4.88,1.92 7.32,2.89l4.43 1.8c2.27,0.93 4.55,1.91 6.81,2.88l4.31 1.86c2.33,1.03 4.65,2.09 6.97,3.15l4.45 2.06 6.3 3.01 5.32 2.64 5.68 2.89 5.39 2.83 5.83 3.14 5.08 2.84c1.94,1.09 3.88,2.18 5.8,3.29 1.94,1.12 3.86,2.29 5.78,3.44l4.89 2.92c2.16,1.32 4.3,2.68 6.44,4.03l4.5 2.85c3.52,2.27 7.03,4.6 10.52,6.98 235.18,160.32 295.83,480.91 135.53,716.08 -2.35,3.44 -4.73,6.85 -7.15,10.21l-1.12 1.56c-1.87,2.56 -3.75,5.1 -5.64,7.63 -1.4,1.86 -2.81,3.69 -4.23,5.53l-0.94 1.21c-165.63,213.29 -470.83,263.57 -697,109.37zm-73.77 -1170.35c-50.99,24.87 -99.63,55.28 -145.13,90.76l-0.04 -0.11c-12.32,9.6 -24.4,19.59 -36.23,29.95 -8.05,7.04 -19.36,8.91 -29.13,4.49l-173.16 -78.32c-12.02,-5.44 -26.19,-1.46 -33.63,9.45l-144.9 212.53c-7.42,10.9 -5.96,25.54 3.51,34.77l136.15 132.56c7.69,7.46 10.1,18.69 6.48,28.75 -26.28,73.1 -41.79,148.58 -46.82,224.22 -0.71,10.69 -7.39,20 -17.43,23.77l-177.76 67.06c-12.33,4.65 -19.55,17.5 -17.11,30.46l47.84 252.7c2.46,12.98 13.85,22.31 27.05,22.12l189.98 -2.53c10.69,-0.16 20.34,6.06 24.9,15.75 32.31,68.57 74.32,133.16 125.51,191.6 7.03,8.06 8.9,19.39 4.48,29.11l-78.29 173.18c-5.46,12.03 -1.46,26.2 9.45,33.62l212.5 144.91c10.91,7.42 25.56,5.94 34.77,-3.51l132.57 -136.17c7.46,-7.66 18.69,-10.07 28.74,-6.45 73.13,26.28 148.6,41.79 224.25,46.83 10.67,0.69 19.97,7.41 23.74,17.42l67.07 177.76c4.66,12.35 17.5,19.54 30.45,17.09l252.73 -47.81c12.98,-2.45 22.28,-13.86 22.12,-27.04l-2.53 -189.99c-0.17,-10.7 6.06,-20.33 15.72,-24.91 68.59,-32.32 133.17,-74.32 191.62,-125.52 8.06,-7.05 19.37,-8.9 29.13,-4.48l173.17 78.3c12.02,5.46 26.2,1.46 33.62,-9.42l144.89 -212.55c7.44,-10.89 5.94,-25.55 -3.48,-34.75l-136.18 -132.57c-7.67,-7.46 -10.08,-18.69 -6.47,-28.75 26.27,-73.12 41.8,-148.59 46.83,-224.23 0.69,-10.68 7.4,-19.98 17.42,-23.76l177.78 -67.06c12.33,-4.64 19.54,-17.5 17.09,-30.45l-47.83 -252.73 0 -0.02 -0.12 -0.58 0 -0.03 -0.13 -0.58 0 -0.01 -0.15 -0.58 0 -0.02 -0.16 -0.57 0 -0.01 -0.35 -1.15 0 -0.01 -0.2 -0.56 -0.43 -1.12 0 -0.01 -0.23 -0.54 0 -0.01 -0.5 -1.07 0 -0.01 -0.27 -0.52 0 -0.01 -0.28 -0.51 0 -0.01 -0.28 -0.51 -0.3 -0.51 0 0 -0.31 -0.5 0 0 -0.32 -0.49 0 -0.01c-0.33,-0.49 -0.66,-0.96 -1.02,-1.42l0 -0.01 -0.35 -0.46 0 0 -0.38 -0.45 0 -0.01 -0.37 -0.44 0 0 -0.39 -0.43 0 -0.01 -0.39 -0.42 0 0 -0.41 -0.42 0 0 -0.41 -0.41 0 -0.01 -0.42 -0.39 -0.43 -0.39 -0.44 -0.38 0 -0.01 -0.45 -0.37 0 0 -0.45 -0.36 0 0 -0.47 -0.36 -0.46 -0.34 -0.48 -0.33 -0.49 -0.33 0 0 -0.49 -0.31 -0.5 -0.3 0 -0.01 -0.5 -0.28 0 -0.01 -0.52 -0.27 -0.51 -0.27 0 -0.01 -0.53 -0.26 -0.52 -0.25 -0.54 -0.23 -0.54 -0.23 -0.55 -0.21 -0.55 -0.21 -0.56 -0.19 -0.56 -0.18 -0.57 -0.17 -0.58 -0.15 -0.57 -0.14 -0.58 -0.13 -0.59 -0.12 -0.59 -0.11 -0.59 -0.09 -0.61 -0.08 -0.59 -0.06 -0.61 -0.06 -0.61 -0.04 -0.61 -0.02 -0.62 -0.01 -0.61 0 -189.99 2.53c-10.68,0.15 -20.33,-6.06 -24.89,-15.75 -32.32,-68.58 -74.32,-133.16 -125.53,-191.62 -7.04,-8.03 -8.89,-19.36 -4.47,-29.12l78.3 -173.16c5.43,-12.02 1.44,-26.19 -9.45,-33.65l-212.53 -144.88c-10.88,-7.42 -25.54,-5.96 -34.74,3.51l-132.58 136.18c-7.46,7.66 -18.69,10.08 -28.74,6.45 -73.15,-26.3 -148.59,-41.81 -224.25,-46.84 -10.66,-0.7 -19.97,-7.39 -23.76,-17.41l-67.05 -177.78c-4.66,-12.33 -17.51,-19.52 -30.44,-17.07l-252.75 47.81c-12.96,2.45 -22.29,13.86 -22.1,27.04l2.53 189.98c0.14,10.71 -6.06,20.34 -15.73,24.92l-2.57 1.22 -0.64 0.31 -1.91 0.9 -1.3 0.63 -1.26 0.61 -1.94 0.94 -0.61 0.3z"/>
    <path class="fil2" d="M-4.81 3576.72c-166.39,-113.43 -209.33,-340.26 -95.89,-506.66 82.31,-120.74 224.34,-176.45 359.65,-154.59l0.04 0.01c21.46,3.47 42.77,8.88 63.63,16.31l0.21 0.07c2.1,0.75 4.2,1.53 6.3,2.33l1.96 0.73c1.73,0.67 3.45,1.36 5.17,2.05l3.14 1.27c1.61,0.66 3.22,1.35 4.82,2.04l3.05 1.32c1.64,0.72 3.29,1.47 4.93,2.22l3.14 1.46 4.46 2.13 3.77 1.87 4.02 2.04 3.81 2.01 4.13 2.22 3.59 2.01c1.37,0.76 2.74,1.54 4.11,2.32 1.37,0.8 2.72,1.62 4.09,2.43l3.46 2.07c1.52,0.93 3.03,1.9 4.55,2.86l3.18 2.01c2.5,1.61 4.98,3.26 7.45,4.94 166.39,113.43 209.31,340.26 95.89,506.65 -1.66,2.44 -3.35,4.85 -5.06,7.23l-0.79 1.1c-1.32,1.81 -2.65,3.61 -3.99,5.4 -0.99,1.31 -1.99,2.61 -3,3.91l-0.66 0.86c-117.19,150.91 -333.13,186.48 -493.16,77.38zm-52.19 -828.07c-36.08,17.6 -70.49,39.12 -102.68,64.22l-0.04 -0.08c-8.71,6.8 -17.26,13.86 -25.63,21.2 -5.69,4.97 -13.7,6.29 -20.61,3.17l-122.52 -55.42c-8.5,-3.84 -18.53,-1.03 -23.79,6.69l-102.52 150.37c-5.25,7.72 -4.22,18.08 2.48,24.6l96.34 93.8c5.43,5.28 7.14,13.22 4.57,20.34 -18.59,51.72 -29.56,105.13 -33.12,158.65 -0.5,7.56 -5.23,14.14 -12.34,16.81l-125.76 47.45c-8.73,3.29 -13.83,12.38 -12.11,21.55l33.85 178.8c1.74,9.18 9.8,15.78 19.14,15.65l134.42 -1.8c7.56,-0.11 14.38,4.29 17.61,11.15 22.87,48.52 52.59,94.22 88.81,135.57 4.97,5.69 6.3,13.71 3.17,20.59l-55.4 122.54c-3.86,8.5 -1.03,18.53 6.69,23.78l150.35 102.53c7.72,5.25 18.09,4.2 24.6,-2.48l93.8 -96.35c5.28,-5.42 13.23,-7.13 20.34,-4.56 51.74,18.59 105.13,29.56 158.66,33.13 7.55,0.49 14.13,5.24 16.8,12.33l47.45 125.77c3.3,8.74 12.38,13.82 21.55,12.09l178.81 -33.82c9.19,-1.74 15.77,-9.82 15.65,-19.14l-1.79 -134.42c-0.11,-7.57 4.29,-14.39 11.13,-17.63 48.53,-22.87 94.22,-52.59 135.57,-88.81 5.71,-4.99 13.71,-6.3 20.61,-3.17l122.53 55.4c8.51,3.86 18.54,1.03 23.79,-6.67l102.51 -150.38c5.27,-7.71 4.21,-18.08 -2.46,-24.59l-96.35 -93.8c-5.42,-5.28 -7.13,-13.22 -4.58,-20.34 18.59,-51.74 29.58,-105.13 33.14,-158.65 0.48,-7.56 5.23,-14.14 12.32,-16.81l125.79 -47.45c8.72,-3.28 13.82,-12.38 12.09,-21.54l-33.84 -178.82 0 -0.02 -0.09 -0.41 0 -0.01 -0.09 -0.41 0 -0.02 -0.1 -0.4 0 -0.01 -0.12 -0.41 0 -0.01 -0.25 -0.81 0 -0.01 -0.14 -0.39 -0.3 -0.79 0 -0.01 -0.17 -0.38 0 -0.01 -0.35 -0.76 0 -0.01 -0.19 -0.36 0 -0.01 -0.2 -0.36 0 -0.01 -0.2 -0.36 -0.21 -0.36 0 -0.01 -0.22 -0.34 0 -0.01 -0.22 -0.34 0 -0.01c-0.24,-0.34 -0.47,-0.68 -0.72,-1.01l0 0 -0.26 -0.33 0 0 -0.26 -0.32 0 0 -0.26 -0.31 0 0 -0.28 -0.31 0 0 -0.28 -0.3 0 0 -0.29 -0.3 0 0 -0.29 -0.29 0 0 -0.3 -0.28 -0.3 -0.28 -0.31 -0.27 0 0 -0.32 -0.26 0 -0.01 -0.32 -0.25 0 0 -0.33 -0.25 -0.33 -0.25 -0.33 -0.23 -0.35 -0.23 0 0 -0.35 -0.22 -0.35 -0.21 0 -0.01 -0.36 -0.2 0 -0.01 -0.36 -0.19 -0.36 -0.19 0 -0.01 -0.38 -0.18 -0.37 -0.17 -0.38 -0.17 -0.38 -0.16 -0.39 -0.15 -0.39 -0.15 -0.39 -0.13 -0.4 -0.13 -0.41 -0.12 -0.4 -0.11 -0.41 -0.1 -0.41 -0.09 -0.41 -0.08 -0.42 -0.08 -0.42 -0.06 -0.43 -0.06 -0.42 -0.04 -0.43 -0.05 -0.43 -0.02 -0.43 -0.02 -0.44 -0.01 -0.43 0 -134.43 1.79c-7.56,0.11 -14.39,-4.28 -17.61,-11.14 -22.87,-48.53 -52.59,-94.21 -88.82,-135.58 -4.98,-5.68 -6.29,-13.7 -3.16,-20.6l55.4 -122.52c3.84,-8.5 1.02,-18.53 -6.68,-23.81l-150.38 -102.5c-7.7,-5.25 -18.07,-4.22 -24.58,2.48l-93.8 96.35c-5.28,5.42 -13.23,7.13 -20.34,4.56 -51.76,-18.6 -105.13,-29.58 -158.67,-33.14 -7.54,-0.5 -14.13,-5.23 -16.81,-12.32l-47.43 -125.78c-3.3,-8.72 -12.4,-13.81 -21.55,-12.08l-178.83 33.82c-9.16,1.74 -15.76,9.82 -15.63,19.14l1.79 134.42c0.1,7.58 -4.29,14.39 -11.13,17.63l-1.82 0.86 -0.46 0.22 -1.35 0.64 -0.92 0.44 -0.89 0.44 -1.37 0.66 -0.43 0.21z"/>
   </g>
  </g>
  <polygon class="fil21" points="-0,0 10000,0 10000,8483.59 -0,8483.59 "/>
 </g>
</svg>
