<?xml version="1.0" encoding="UTF-8"?>
<!DOCTYPE svg PUBLIC "-//W3C//DTD SVG 1.1//EN" "http://www.w3.org/Graphics/SVG/1.1/DTD/svg11.dtd">
<!-- Creator: CorelDRAW 2018 (64 Bit Versão de avaliação) -->
<svg xmlns="http://www.w3.org/2000/svg" xml:space="preserve" width="100mm" height="84.8359mm" version="1.1" style="shape-rendering:geometricPrecision; text-rendering:geometricPrecision; image-rendering:optimizeQuality; fill-rule:evenodd; clip-rule:evenodd"
viewBox="0 0 10000 8483.59"
 xmlns:xlink="http://www.w3.org/1999/xlink">
 <defs>
  <style type="text/css">
   <![CDATA[
    .fil46 {fill:none}
    .fil0 {fill:white}
    .fil29 {fill:black;fill-rule:nonzero}
    .fil44 {fill:#1D1B1A;fill-rule:nonzero}
    .fil25 {fill:#1D1D1B;fill-rule:nonzero}
    .fil31 {fill:#21111D;fill-rule:nonzero}
    .fil4 {fill:#223749;fill-rule:nonzero}
    .fil13 {fill:#3D75D2;fill-rule:nonzero}
    .fil1 {fill:#3F9896;fill-rule:nonzero}
    .fil16 {fill:#468DD3;fill-rule:nonzero}
    .fil21 {fill:#49263E;fill-rule:nonzero}
    .fil5 {fill:#4CB7D8;fill-rule:nonzero}
    .fil12 {fill:#5790DE;fill-rule:nonzero}
    .fil43 {fill:#6A99DA;fill-rule:nonzero}
    .fil10 {fill:#6AA2E5;fill-rule:nonzero}
    .fil15 {fill:#6DA3F0;fill-rule:nonzero}
    .fil2 {fill:#7FC6A6;fill-rule:nonzero}
    .fil14 {fill:#80B4F7;fill-rule:nonzero}
    .fil34 {fill:#AFC3FE;fill-rule:nonzero}
    .fil17 {fill:#AFD1F2;fill-rule:nonzero}
    .fil8 {fill:#B4D0F2;fill-rule:nonzero}
    .fil9 {fill:#B5D6FB;fill-rule:nonzero}
    .fil11 {fill:#D7E4F7;fill-rule:nonzero}
    .fil22 {fill:#E24259;fill-rule:nonzero}
    .fil32 {fill:#E78F9C;fill-rule:nonzero}
    .fil26 {fill:#EA5942;fill-rule:nonzero}
    .fil30 {fill:#ED2B47;fill-rule:nonzero}
    .fil33 {fill:#ED586E;fill-rule:nonzero}
    .fil18 {fill:#EF3A4C;fill-rule:nonzero}
    .fil45 {fill:#EF7162;fill-rule:nonzero}
    .fil24 {fill:#F07162;fill-rule:nonzero}
    .fil35 {fill:#F4A045;fill-rule:nonzero}
    .fil39 {fill:#F7597F;fill-rule:nonzero}
    .fil42 {fill:#F9A58C;fill-rule:nonzero}
    .fil23 {fill:#F9B498;fill-rule:nonzero}
    .fil6 {fill:#FBC758;fill-rule:nonzero}
    .fil27 {fill:#FBFDFC;fill-rule:nonzero}
    .fil19 {fill:#FC4F68;fill-rule:nonzero}
    .fil37 {fill:#FCAF5B;fill-rule:nonzero}
    .fil7 {fill:#FD7583;fill-rule:nonzero}
    .fil20 {fill:#FDBA68;fill-rule:nonzero}
    .fil38 {fill:#FDEACF;fill-rule:nonzero}
    .fil40 {fill:#FEBAC7;fill-rule:nonzero}
    .fil36 {fill:#FEC786;fill-rule:nonzero}
    .fil28 {fill:#FECC86;fill-rule:nonzero}
    .fil41 {fill:#FFB294;fill-rule:nonzero}
    .fil3 {fill:white;fill-rule:nonzero}
   ]]>
  </style>
   <clipPath id="id0">
    <path d="M-0 0l10000 0 0 8483.59 -10000 0 0 -8483.59z"/>
   </clipPath>
 </defs>
 <g id="Camada_x0020_1">
  <metadata id="CorelCorpID_0Corel-Layer"/>
  <polygon class="fil0" points="-0,0 10000,0 10000,8483.59 -0,8483.59 "/>
  <g style="clip-path:url(#id0)">
   <g id="_2369756811216">
    <path id="1" class="fil1" d="M1888.7 4570.81c0,0 635.42,243.39 821.1,-223.65 0,0 -416.48,-183.55 -821.1,223.65z"/>
    <path class="fil2" d="M1746.38 3635.64c0,0 370.62,1111.66 1195.09,848.25 0,0 -210.95,-754.86 -1195.09,-848.25z"/>
    <path class="fil1" d="M6743.65 4640.65c128.53,323.27 568.29,154.84 568.29,154.84 -280.05,-281.87 -568.29,-154.84 -568.29,-154.84z"/>
    <path class="fil2" d="M6583.25 4735.3c570.7,182.31 827.24,-587.12 827.24,-587.12 -681.22,64.64 -827.24,587.12 -827.24,587.12z"/>
    <polygon class="fil3" points="2545.46,8129.73 6772.45,8129.73 6772.45,2644.27 2545.46,2644.27 "/>
    <path class="fil4" d="M6772.48 8043.06c0,74.76 -60.65,135.38 -135.41,135.38l-3933.22 0c-74.78,0 -135.39,-60.62 -135.39,-135.38l0 -5247.72c0,-83.43 67.63,-151.06 151.05,-151.06l3901.9 0c83.45,0 151.07,67.63 151.07,151.06l0 5247.72zm-146.61 -5499.5l-3910.81 0c-137.64,0 -249.23,111.58 -249.23,249.26l0 5319.94c0,137.64 111.59,249.25 249.23,249.25l3910.81 0c137.66,0 249.25,-111.61 249.25,-249.25l0 -5319.94c0,-137.68 -111.59,-249.26 -249.25,-249.26z"/>
    <polygon class="fil5" points="4606.61,1644.92 4545.57,1705.7 4460.92,1689.85 4499.84,1766.67 4458.62,1842.27 4543.71,1828.98 4602.9,1891.55 4616.56,1806.55 4694.36,1769.61 4617.71,1730.3 "/>
    <polygon class="fil6" points="1585.34,3334.97 1560.1,3283.57 1534.66,3334.87 1477.99,3342.99 1518.91,3383.04 1509.12,3439.45 1559.85,3412.91 1610.48,3439.65 1600.91,3383.2 1641.99,3343.31 "/>
    <polygon class="fil6" points="7684.02,4397.46 7658.78,4346.07 7633.34,4397.36 7576.72,4405.51 7617.62,4445.55 7607.84,4501.94 7658.52,4475.41 7709.14,4502.13 7699.62,4445.69 7740.65,4405.8 "/>
    <polygon class="fil7" points="5344.31,1923.37 5217.8,1997.83 5084.76,1935.77 5116.44,2079.12 5016.31,2186.43 5162.43,2200.62 5233.59,2329.01 5292.19,2194.42 5436.29,2166.42 5326.41,2069.09 "/>
    <polygon class="fil7" points="7501.05,3519.17 7374.57,3593.6 7241.51,3531.55 7273.21,3674.88 7173.06,3782.23 7319.16,3796.39 7390.36,3924.77 7448.96,3790.2 7593.08,3762.2 7483.15,3664.86 "/>
    <polygon class="fil7" points="2297.64,3217.54 2231.73,3256.31 2162.42,3223.99 2178.92,3298.66 2126.77,3354.58 2202.88,3361.95 2239.96,3428.84 2270.49,3358.73 2345.56,3344.14 2288.32,3293.44 "/>
    <polygon class="fil5" points="1588.89,4299.31 1514.19,4348.19 1431.59,4314.37 1454.98,4400.5 1397.29,4468.61 1486.45,4472.97 1533.4,4548.91 1565.09,4465.47 1651.81,4444.28 1582.24,4388.31 "/>
    <path class="fil8" d="M6467.79 8033.44l-3594.65 0c-73.72,0 -133.48,-59.76 -133.48,-133.5l0 -4894.32c0,-73.72 59.76,-133.48 133.48,-133.48l3594.65 0c73.7,0 133.47,59.76 133.47,133.48l0 4894.32c0,73.74 -59.77,133.5 -133.47,133.5zm-3229.48 -2521l0 1542.95 1267.04 0 0 -1542.95 -1267.04 0zm1567.23 -1839.88l0 1542.91 1267.03 0 0 -1542.91 -1267.03 0z"/>
    <polygon class="fil3" points="3238.31,5215.47 4505.34,5215.47 4505.34,3672.56 3238.31,3672.56 "/>
    <path class="fil9" d="M4083.66 4045.04c-0.33,0.76 -1.03,1.66 -2.53,1.66l-181.66 0 -49.15 0 -173.36 0c-1.49,0 -2.2,-0.9 -2.52,-1.66 -0.45,-1.06 -0.29,-2 0.49,-2.81 24.03,-25.24 82.49,-69.04 204.11,-79.41 121.63,10.37 180.09,54.17 204.13,79.41 0.77,0.81 0.93,1.75 0.49,2.81zm-194.08 -101.91l0 -73.17c0,0 -6.87,-0.06 -10.54,-0.06 -19.9,0 -36.1,-16.19 -36.1,-36.1 0,-19.91 16.2,-36.11 36.1,-36.11 19.09,0 34.72,14.89 35.98,33.66l0.13 -0.07 15.31 0c-1.33,-27.25 -23.85,-49.02 -51.42,-49.02 -28.42,0 -51.53,23.12 -51.53,51.54 0,24.81 17.62,45.58 41.01,50.45l0 58.88c-122.51,12.3 -183.05,58.18 -208.5,84.9 -6.49,6.82 -8.21,16.44 -4.5,25.11 3.68,8.59 12.1,14.15 21.44,14.15l404.17 0c9.34,0 17.76,-5.56 21.44,-14.15 3.72,-8.67 1.99,-18.29 -4.51,-25.11 -25.45,-26.72 -85.99,-72.6 -208.48,-84.9z"/>
    <path class="fil10" d="M4035.09 3979.11c0,0 -20.9,-18.63 -65.59,-23.22 0,0 1.8,159.65 -65.66,167.65l-50.3 0c-67.45,-8 -65.65,-167.65 -65.65,-167.65 -44.69,4.59 -65.6,23.22 -65.6,23.22 37.57,273.23 20.36,373.08 20.36,373.08 -97.56,190.54 -117.37,660.02 -117.37,660.02 92.7,17.53 228.91,23.2 349.83,17.01l9.26 -166.65 23.99 166.05c35.48,-3.15 94.92,-10.97 123.75,-16.41 0,0 -19.81,-469.48 -117.37,-660.02 0,0 -17.21,-99.85 20.35,-373.08z"/>
    <path class="fil11" d="M3884.03 4159.3c-2.76,0 -5.01,2.24 -5.01,5.01 0,2.77 2.25,5.02 5.01,5.02 2.77,0 5.02,-2.25 5.02,-5.02 0,-2.77 -2.25,-5.01 -5.02,-5.01z"/>
    <path class="fil11" d="M3884.03 4199.06c-2.76,0 -5.01,2.25 -5.01,5.02 0,2.76 2.25,5.01 5.01,5.01 2.77,0 5.02,-2.25 5.02,-5.01 0,-2.77 -2.25,-5.02 -5.02,-5.02z"/>
    <path class="fil11" d="M3884.03 4238.83c-2.76,0 -5.01,2.25 -5.01,5.02 0,2.76 2.25,5.01 5.01,5.01 2.77,0 5.02,-2.25 5.02,-5.01 0,-2.77 -2.25,-5.02 -5.02,-5.02z"/>
    <path class="fil11" d="M3884.03 4278.6c-2.76,0 -5.01,2.25 -5.01,5.01 0,2.78 2.25,5.02 5.01,5.02 2.77,0 5.02,-2.24 5.02,-5.02 0,-2.76 -2.25,-5.01 -5.02,-5.01z"/>
    <path class="fil11" d="M3884.03 4318.37c-2.76,0 -5.01,2.24 -5.01,5.01 0,2.77 2.25,5.01 5.01,5.01 2.77,0 5.02,-2.24 5.02,-5.01 0,-2.77 -2.25,-5.01 -5.02,-5.01z"/>
    <polygon class="fil3" points="3238.31,7055.39 4505.35,7055.39 4505.35,5512.45 3238.31,5512.45 "/>
    <path class="fil2" d="M4291.02 6368.48l-838.38 0c-46.72,0 -84.59,37.88 -84.59,84.62 0,46.68 37.87,84.57 84.59,84.57l838.38 0c46.71,0 84.59,-37.89 84.59,-84.57 0,-46.74 -37.88,-84.62 -84.59,-84.62z"/>
    <path class="fil10" d="M4291.02 6368.48l-838.38 0c-46.72,0 -84.59,37.88 -84.59,84.62 0,46.68 37.87,84.57 84.59,84.57l838.38 0c46.71,0 84.59,-37.89 84.59,-84.57 0,-46.74 -37.88,-84.62 -84.59,-84.62z"/>
    <path class="fil12" d="M3787.24 6537.67l-334.6 0c-46.72,0 -84.59,-37.89 -84.59,-84.57 0,-46.74 37.87,-84.62 84.59,-84.62l334.6 0 0 0c46.71,0 84.59,37.88 84.59,84.62 0,46.68 -37.88,84.57 -84.59,84.57zm-302.4 -95.87c-6.23,0 -11.27,5.06 -11.27,11.3 0,6.23 5.04,11.29 11.27,11.29l244.13 0c6.23,0 11.27,-5.06 11.27,-11.29 0,-6.24 -5.04,-11.3 -11.27,-11.3l-244.13 0z"/>
    <path class="fil13" d="M3728.97 6464.39l-244.13 0c-6.23,0 -11.27,-5.06 -11.27,-11.29 0,-6.24 5.04,-11.3 11.27,-11.3l244.13 0c6.23,0 11.27,5.06 11.27,11.3 0,6.23 -5.04,11.29 -11.27,11.29z"/>
    <path class="fil2" d="M4291.02 6199.3l-838.38 0c-46.72,0 -84.59,37.88 -84.59,84.62 0,46.73 37.87,84.56 84.59,84.56l838.38 0c46.71,0 84.59,-37.83 84.59,-84.56 0,-46.74 -37.88,-84.62 -84.59,-84.62z"/>
    <path class="fil9" d="M4291.02 6199.3l-838.38 0c-46.72,0 -84.59,37.88 -84.59,84.62 0,46.73 37.87,84.56 84.59,84.56l838.38 0c46.71,0 84.59,-37.83 84.59,-84.56 0,-46.74 -37.88,-84.62 -84.59,-84.62z"/>
    <path class="fil14" d="M3787.24 6368.48l-334.6 0 0 0c-46.72,0 -84.59,-37.83 -84.59,-84.56 0,-46.74 37.87,-84.62 84.59,-84.62l334.6 0 0 0c46.71,0 84.59,37.88 84.59,84.62 0,46.73 -37.88,84.56 -84.59,84.56zm-302.4 -95.86c-6.23,0 -11.27,5.06 -11.27,11.3 0,6.23 5.04,11.29 11.27,11.29l244.13 0c6.23,0 11.27,-5.06 11.27,-11.29 0,-6.24 -5.04,-11.3 -11.27,-11.3l-244.13 0z"/>
    <path class="fil15" d="M3728.97 6295.21l-244.13 0c-6.23,0 -11.27,-5.06 -11.27,-11.29 0,-6.24 5.04,-11.3 11.27,-11.3l244.13 0c6.23,0 11.27,5.06 11.27,11.3 0,6.23 -5.04,11.29 -11.27,11.29z"/>
    <path class="fil2" d="M4291.02 6030.16l-838.38 0c-46.72,0 -84.59,37.84 -84.59,84.57 0,46.74 37.87,84.57 84.59,84.57l838.38 0c46.71,0 84.59,-37.83 84.59,-84.57 0,-46.73 -37.88,-84.57 -84.59,-84.57z"/>
    <path class="fil10" d="M4291.02 6030.16l-838.38 0c-46.72,0 -84.59,37.84 -84.59,84.57 0,46.74 37.87,84.57 84.59,84.57l838.38 0c46.71,0 84.59,-37.83 84.59,-84.57 0,-46.73 -37.88,-84.57 -84.59,-84.57z"/>
    <path class="fil12" d="M3787.24 6199.3l-334.6 0 0 0c-46.72,0 -84.59,-37.83 -84.59,-84.57 0,-46.73 37.87,-84.57 84.59,-84.57l334.6 0c46.71,0 84.59,37.84 84.59,84.57 0,46.74 -37.88,84.57 -84.59,84.57z"/>
    <path class="fil10" d="M3728.96 6103.43l-244.12 0c-6.23,0 -11.27,5.07 -11.27,11.3 0,6.24 5.04,11.3 11.27,11.3l244.12 0c6.24,0 11.28,-5.06 11.28,-11.3 0,-6.23 -5.04,-11.3 -11.28,-11.3z"/>
    <polygon class="fil3" points="4835.58,7055.39 6102.62,7055.39 6102.62,5512.45 4835.58,5512.45 "/>
    <path class="fil3" d="M5263.17 6532.51l-78.33 62.87c-1.59,1.26 -1.83,3.6 -0.56,5.15 0.74,0.94 1.82,1.4 2.9,1.4 0.8,0 1.6,-0.28 2.3,-0.8l78.29 -62.85c1.59,-1.27 1.83,-3.61 0.56,-5.21 -1.27,-1.59 -3.61,-1.83 -5.16,-0.56z"/>
    <polygon class="fil10" points="5454.34,5937.91 5442.66,5938 5181.56,5939.74 5118.08,6716.83 5447.92,6717.35 5459.59,6717.25 5789.66,6715.05 5715.49,5936.13 "/>
    <path class="fil3" d="M5449.98 6156.4c-94.55,0.62 -170.73,77.83 -170.08,172.37 0.62,94.56 77.82,170.73 172.38,170.07 94.6,-0.6 170.72,-77.81 170.12,-172.36 -0.66,-94.6 -77.82,-170.73 -172.42,-170.08z"/>
    <path class="fil10" d="M5471.12 5681.96c-0.84,-0.43 -1.78,-0.66 -2.76,-0.66l-7.69 0.05 -20.49 0.13 -7.68 0.05c-0.99,0 -1.93,0.28 -2.77,0.71 -56.35,7.49 -100.18,71.63 -99.66,149.16l0.84 128.12c0.05,3.42 2.81,6.14 6.24,6.14 3.37,-0.05 6.09,-2.81 6.09,-6.19l-0.89 -128.16c-0.47,-75.43 43.41,-137.17 97.92,-137.49l20.49 -0.15c54.47,-0.37 99.24,60.71 99.76,136.19l0.84 128.12c0,3.41 2.82,6.13 6.19,6.13 3.37,-0.04 6.14,-2.81 6.1,-6.19l-0.85 -128.16c-0.51,-77.49 -45.24,-141.1 -101.68,-147.8z"/>
    <path class="fil3" d="M5687.74 6521.96l-113.16 86.02c-1.59,1.22 -1.92,3.56 -0.7,5.16 0.75,0.98 1.88,1.5 2.99,1.5 0.76,-0.05 1.56,-0.28 2.21,-0.8l113.12 -86.02c1.64,-1.22 1.92,-3.56 0.7,-5.15 -1.22,-1.65 -3.56,-1.97 -5.16,-0.71z"/>
    <path class="fil3" d="M5734.71 6529.32l-78.28 62.87c-1.59,1.26 -1.87,3.61 -0.56,5.2 0.7,0.89 1.78,1.36 2.91,1.36 0.79,0 1.59,-0.29 2.24,-0.8l78.34 -62.86c1.59,-1.27 1.83,-3.61 0.56,-5.16 -1.26,-1.6 -3.61,-1.88 -5.21,-0.61z"/>
    <polygon class="fil3" points="4805.54,5215.47 6072.57,5215.47 6072.57,3672.56 4805.54,3672.56 "/>
    <polygon class="fil10" points="5125.72,4678.95 5764.67,4678.95 5764.67,4209.09 5125.72,4209.09 "/>
    <polygon class="fil16" points="5087.05,4291.22 5791.06,4291.22 5791.06,4209.09 5087.05,4209.09 "/>
    <polygon class="fil17" points="5294.44,4470.07 5571.39,4470.07 5571.39,4380.53 5294.44,4380.53 "/>
    <polygon class="fil17" points="5294.44,4568.37 5571.39,4568.37 5571.39,4559.32 5294.44,4559.32 "/>
    <polygon class="fil17" points="5294.44,4519.1 5571.39,4519.1 5571.39,4510.05 5294.44,4510.05 "/>
    <path class="fil3" d="M6375.91 3175.82l-261.58 -6.95 -12.56 -62.57 -71.63 0.03c-4.64,0 -8.39,3.77 -8.39,8.41 0,4.65 3.75,8.41 8.39,8.41l57.99 -0.02 57.1 284.36 201.2 -0.08c4.64,0 8.43,-3.77 8.43,-8.41 0,-4.65 -3.79,-8.41 -8.43,-8.41l-187.56 0.08 -17.2 -85.83 205.5 -8.46 28.74 -120.56z"/>
    <path class="fil3" d="M6171.9 3418.28c-14.21,0.01 -25.73,11.54 -25.73,25.76 0,14.23 11.52,25.75 25.78,25.74 14.2,0 25.73,-11.54 25.73,-25.76 0,-14.22 -11.53,-25.75 -25.78,-25.74z"/>
    <path class="fil3" d="M6318.2 3418.23c-14.2,0 -25.73,11.53 -25.73,25.75 0,14.22 11.53,25.75 25.79,25.74 14.2,-0.01 25.73,-11.54 25.73,-25.76 0,-14.22 -11.53,-25.75 -25.79,-25.73z"/>
    <path class="fil10" d="M5182.31 7419.11l-1046.71 0c-104.13,0 -188.54,84.43 -188.54,188.54l0 0c0,104.12 84.41,188.55 188.54,188.55l1046.71 0c104.16,0 188.54,-84.43 188.54,-188.55l0 0c0,-104.11 -84.38,-188.54 -188.54,-188.54z"/>
    <path class="fil3" d="M4523.77 7680.92c-8.46,7.13 -20.56,10.69 -36.28,10.73l-49.13 0 -0.03 -82.78 43.19 0c18.57,-0.04 32.38,3.38 41.4,10.22 9.01,6.89 13.53,17.3 13.54,31.27 0,13.26 -4.23,23.44 -12.69,30.56zm-85.48 -160.51l40.43 0c17.2,-0.05 29.94,2.96 38.23,8.86 8.28,5.96 12.42,15.01 12.43,27.24 0,11.63 -3.91,20.53 -11.72,26.81 -7.82,6.24 -18.99,9.38 -33.53,9.38l-45.81 0 -0.03 -72.29zm81.72 78.9l0 -1.5c10.12,-4.55 17.45,-10.22 22,-17.16 4.55,-6.89 6.83,-15.75 6.82,-26.63 0,-16.54 -5.9,-29.01 -17.68,-37.45 -11.78,-8.39 -29.16,-12.61 -52.16,-12.61l-59.61 0.05 0.08 204.06 67.2 0c23.28,0 40.69,-4.83 52.22,-14.44 11.54,-9.61 17.31,-24.15 17.31,-43.55 -0.01,-12.52 -2.94,-22.88 -8.78,-31.13 -5.84,-8.21 -14.98,-14.76 -27.4,-19.64z"/>
    <path class="fil3" d="M4724.48 7503.86l0.05 137.45c0.01,17.21 -4.61,30.47 -13.85,39.75 -9.24,9.28 -22.51,13.93 -39.81,13.98 -17.39,0 -30.72,-4.64 -40.02,-13.93 -9.29,-9.28 -13.94,-22.55 -13.95,-39.75l-0.06 -137.45 -18.91 0 0.07 137.45c0,22.64 6.26,39.99 18.79,52.03 12.5,12.05 30.54,18.05 54.09,18.05 23.55,0 41.53,-6.05 53.95,-18.09 12.42,-12.05 18.61,-29.39 18.6,-52.04l-0.05 -137.45 -18.9 0z"/>
    <polygon class="fil3" points="4901.1,7503.82 4848.84,7601.66 4797.33,7503.82 4777.32,7503.86 4839.88,7624.29 4839.92,7707.92 4858.83,7707.92 4858.79,7624.29 4921.11,7503.77 "/>
    <path class="fil16" d="M6375.91 3009.9c-57.33,0 -103.78,46.48 -103.78,103.82 0,57.34 46.45,103.82 103.78,103.82 57.38,0 103.84,-46.48 103.84,-103.82 0,-57.34 -46.46,-103.82 -103.84,-103.82z"/>
    <path class="fil3" d="M6387.54 3088.71l0 39.33 -38.63 0 0 -0.37 28.83 -40.05c3.28,-5.44 6.19,-10.51 9.8,-17.39l0.56 0c-0.38,6.16 -0.56,12.32 -0.56,18.48zm15.04 -33.89l-17.2 0 -52.6 75.21 0 10.51 54.76 0 0 32.07 15.04 0 0 -32.07 16.51 0 0 -12.5 -16.51 0 0 -73.22z"/>
    <path class="fil5" d="M3634.8 1713.37c-13.37,9.97 -26.42,20.7 -38.76,31.95l-3.33 3 6.08 6.72 3.33 -3.07c12.12,-11.06 24.93,-21.6 38.08,-31.38l3.62 -2.69 -5.4 -7.22 -3.62 2.69z"/>
    <path class="fil5" d="M3466.75 1957.05c-4.57,15.73 -8.57,32.09 -11.88,48.77l-0.88 4.41 8.85 1.79 0.88 -4.48c3.26,-16.36 7.19,-32.53 11.69,-47.99l1.27 -4.28 -8.67 -2.56 -1.26 4.34z"/>
    <path class="fil5" d="M3504.11 1863.94c-7.7,14.57 -14.78,29.91 -21.05,45.63l-1.67 4.22 8.38 3.32 1.67 -4.22c6.16,-15.4 13.1,-30.42 20.65,-44.73l2.1 -3.97 -7.98 -4.21 -2.1 3.96z"/>
    <path class="fil5" d="M3560.82 1781.17c-10.95,12.53 -21.3,25.89 -30.76,39.76l-2.55 3.7 7.45 5.12 2.55 -3.77c9.27,-13.55 19.39,-26.66 30.11,-38.93l2.97 -3.38 -6.8 -5.95 -2.97 3.45z"/>
    <path class="fil5" d="M3720.8 1661.6c-14.97,7.09 -29.88,15.08 -44.29,23.71l-3.87 2.36 4.66 7.74 3.86 -2.37c14.16,-8.5 28.79,-16.29 43.48,-23.26l4.09 -1.92 -3.84 -8.18 -4.09 1.92z"/>
    <path class="fil5" d="M3815.84 1629.13c-16.01,3.45 -32.36,7.99 -48.47,13.55l-4.27 1.47 2.94 8.5 4.26 -1.47c15.82,-5.43 31.76,-9.84 47.42,-13.23l4.41 -0.89 -1.88 -8.82 -4.41 0.89z"/>
    <path class="fil5" d="M3453.23 2204.77c-1.19,-16.62 -1.92,-33.23 -2.15,-49.53l-0.06 -4.47 -9.03 0.12 0.07 4.48c0.23,16.42 0.96,33.29 2.18,50.04l0.32 4.54 9 -0.71 -0.33 -4.47z"/>
    <path class="fil5" d="M3915.31 1631.75l4.48 0.45 0.92 -9.01 -4.49 -0.45c-16.15,-1.66 -33.14,-1.92 -50.5,-0.7l-4.5 0.32 0.63 9.01 4.49 -0.32c16.84,-1.15 33.32,-0.96 48.97,0.7z"/>
    <path class="fil5" d="M3903.97 1706.72l8.35 3.51 1.73 -4.21c6.22,-14.96 13.43,-29.85 21.46,-44.36l2.18 -3.9 -7.89 -4.4 -2.19 3.96c-8.18,14.76 -15.55,29.97 -21.9,45.25l-1.74 4.15z"/>
    <path class="fil5" d="M3458.14 2254.11l-0.57 -4.48 -8.95 1.15 0.56 4.48c2.09,16.55 4.65,33.23 7.6,49.53l0.8 4.41 8.89 -1.6 -0.81 -4.47c-2.91,-16.11 -5.45,-32.6 -7.52,-49.02z"/>
    <path class="fil5" d="M3451.91 2105.71c0.81,-16.75 2.2,-33.3 4.1,-49.28l0.54 -4.53 -8.97 -1.03 -0.53 4.48c-1.94,16.17 -3.34,32.98 -4.16,49.91l-0.22 4.54 9.01 0.45 0.23 -4.54z"/>
    <path class="fil5" d="M4025.95 1545.35c11.77,-10.93 24.59,-21.41 38.1,-31.13l3.66 -2.68 -5.27 -7.29 -3.66 2.62c-13.82,9.97 -26.93,20.65 -38.98,31.83l-3.3 3.07 6.14 6.64 3.31 -3.06z"/>
    <path class="fil5" d="M4338.86 1404.68c-16.72,2.37 -33.33,5.18 -49.36,8.37l-4.42 0.9 1.77 8.82 4.42 -0.83c15.87,-3.2 32.3,-6.01 48.84,-8.31l4.47 -0.64 -1.26 -8.95 -4.46 0.64z"/>
    <path class="fil5" d="M4071.69 1738.74l8.1 -3.96 -1.99 -4.09c-2.96,-5.95 -6.16,-11.83 -9.53,-17.45 -5.38,-8.95 -11.49,-17.39 -18.15,-25.12l-2.94 -3.39 -6.84 5.88 2.95 3.39c6.32,7.35 12.12,15.4 17.25,23.9 3.24,5.37 6.32,11.06 9.16,16.81l1.99 4.03z"/>
    <path class="fil5" d="M4095.27 1778.24l-1.11 -4.35 -8.75 2.24 1.11 4.34c4.07,16.04 6.43,32.28 7.01,48.25l0.16 4.54 9.03 -0.32 -0.17 -4.54c-0.6,-16.68 -3.06,-33.55 -7.28,-50.16z"/>
    <path class="fil5" d="M4089.48 1877.1c-3.63,16.75 -9.51,31.77 -17.48,44.74l-2.36 3.84 7.69 4.72 2.35 -3.83c8.52,-13.81 14.78,-29.85 18.62,-47.55l0.96 -4.41 -8.83 -1.92 -0.95 4.41z"/>
    <path class="fil5" d="M4146.09 1457.41c-15.61,6.9 -30.72,14.44 -44.91,22.43l-3.94 2.24 4.43 7.86 3.94 -2.24c13.94,-7.8 28.79,-15.27 44.14,-22.05l4.13 -1.85 -3.66 -8.25 -4.13 1.86z"/>
    <path class="fil5" d="M4438.51 1395.86c-16.6,0.64 -33.4,1.66 -49.94,3.13l-4.5 0.39 0.79 9.01 4.5 -0.39c16.4,-1.47 33.04,-2.49 49.48,-3.13l4.52 -0.13 -0.34 -9.01 -4.51 0.13z"/>
    <path class="fil5" d="M4240.72 1424.43c-16.37,4.35 -32.26,9.2 -47.93,14.63l-4.27 1.47 2.96 8.5 4.26 -1.47c15.48,-5.3 31.16,-10.09 47.31,-14.44l4.36 -1.15 -2.33 -8.75 -4.36 1.21z"/>
    <path class="fil5" d="M3889.17 1750.11c-4.63,16.49 -8.13,33.05 -10.38,49.28l-0.62 4.47 8.94 1.22 0.62 -4.48c2.2,-15.78 5.61,-31.95 10.13,-48.06l1.22 -4.34 -8.69 -2.43 -1.22 4.34z"/>
    <path class="fil5" d="M3910.24 1941.72l-2.6 -3.71 -7.37 5.24 2.61 3.64c11.24,15.92 25.18,26.4 41.4,31.13l4.34 1.27 2.54 -8.69 -4.33 -1.21c-14.24,-4.22 -26.55,-13.49 -36.59,-27.67z"/>
    <path class="fil5" d="M3884.8 1849.56l-0.11 -4.54 -9.02 0.26 0.11 4.47c0.44,18.02 2.64,34.89 6.53,50.3l1.1 4.34 8.76 -2.17 -1.11 -4.41c-3.72,-14.7 -5.83,-30.93 -6.26,-48.25z"/>
    <path class="fil5" d="M4039.11 1955.84c-7.37,4.73 -15.45,8.5 -24.02,11.25l-0.03 0c-6.52,2.11 -13.46,3.64 -20.63,4.54l-4.47 0.57 1.14 8.95 4.48 -0.58c7.7,-1.02 15.18,-2.62 22.22,-4.85l0.02 0c9.32,-3.01 18.13,-7.1 26.16,-12.27l3.79 -2.43 -4.86 -7.61 -3.8 2.43z"/>
    <path class="fil5" d="M4010.65 1664.73l4.91 -7.54 -3.79 -2.49c-13.9,-8.95 -29.35,-16.24 -45.95,-21.67l-4.29 -1.4 -2.8 8.56 4.3 1.41c15.85,5.17 30.6,12.14 43.83,20.7l3.79 2.43z"/>
    <path class="fil5" d="M3961.65 1619.87c9.32,-13.3 19.5,-26.4 30.28,-38.92l2.95 -3.39 -6.84 -5.88 -2.95 3.39c-10.97,12.78 -21.35,26.13 -30.84,39.62l-2.58 3.71 7.38 5.17 2.6 -3.7z"/>
    <path class="fil18" d="M4567.89 1325.43l-3.19 91.39 34.87 -44.09c0,0 182.21,-28.76 184.71,-30.17 2.5,-1.41 94.36,-53.24 94.36,-53.24l-118.67 -1.15 -192.08 37.26z"/>
    <polygon class="fil19" points="4567.89,1325.43 4878.64,1289.32 4519.45,1232.89 "/>
    <polygon class="fil19" points="4650.45,1471.34 4878.64,1289.32 4599.57,1372.73 "/>
    <path class="fil20" d="M5893.02 582.48c-3.04,-10.8 -14.29,-17.06 -25.13,-14l-757.92 215.76c-10.82,3.07 -17.06,14.32 -14.01,25.12l158.3 556.14c3.1,10.81 14.35,17.07 25.13,14l513.27 -146.16c39.47,29.46 98.58,72.54 98.3,69.92 -0.28,-2.37 -18.71,-51.07 -33,-88.46l179.4 -51.06c10.78,-3.13 17.06,-14.38 13.97,-25.12l-158.31 -556.14z"/>
    <path class="fil3" d="M5621.88 1047.23c-8.95,9.4 -20.44,15.21 -34.36,17.51 -15.8,2.62 -28.88,1.09 -39.24,-4.6 -10.36,-5.62 -16.55,-14.63 -18.56,-26.9 -1.6,-9.72 0.42,-18.41 6.09,-26.08 5.72,-7.67 16.83,-16.23 33.38,-25.63 2.2,-1.34 5.49,-3.19 9.7,-5.49 29.02,-16.36 48.95,-29.53 59.77,-39.44 10.69,-9.58 18.24,-20.83 22.65,-33.74 4.36,-12.85 5.34,-26.78 2.85,-41.73 -4.22,-25.38 -17.06,-44.42 -38.67,-57.14 -15,-8.88 -32.2,-13.42 -51.61,-13.61l-6.89 -41.73 -52.36 8.69 6.89 41.54c-15.1,5.18 -27.89,12.53 -38.35,22.05 -15.9,14.51 -26.16,33.81 -30.7,57.84l56.95 10.8c4.31,-15.21 10.41,-26.72 18.38,-34.64 7.97,-7.93 18.56,-12.98 31.83,-15.15 12.8,-2.17 23.44,-0.83 31.83,3.96 8.39,4.73 13.41,12.27 15.14,22.56 2.63,15.92 -12.99,34 -46.88,54.26 -10.4,6.2 -18.57,11.19 -24.47,14.89 -28.17,17.84 -46.6,34.39 -55.31,49.6 -8.72,15.21 -11.3,33.55 -7.74,55.15 4.83,29.02 18.14,50.3 39.89,63.79 17.21,10.6 37.93,15.33 62.25,14.12l7.08 42.88 52.37 -8.69 -7.41 -44.67c14.86,-5.63 27.75,-13.23 38.63,-22.88 18,-16.04 30.05,-37.26 36.23,-63.78l-57.66 -15.02c-5.53,18.15 -12.75,31.89 -21.7,41.28z"/>
    <path class="fil19" d="M2713.97 398.87l-709.81 -134.73c-11.11,-2.1 -21.83,5.18 -23.94,16.3l-80.14 422.25c-2.11,11.12 5.19,21.8 16.3,23.91l709.81 134.72c11.12,2.11 21.83,-5.18 23.94,-16.3l80.15 -422.25c2.1,-11.12 -5.19,-21.79 -16.31,-23.9z"/>
    <path class="fil19" d="M2277.74 927.66c0.76,-2.05 76.32,-175.12 76.32,-175.12l-93.87 -12.01c0.08,1.47 16.8,189.17 17.55,187.13z"/>
    <path class="fil3" d="M2345.79 502.15c-4.98,-17.45 -29.31,-87.05 -93.41,-58.29 -86.1,38.6 -8.26,207.45 49.74,266.44l0.04 0c76.8,-30.74 215.91,-154.02 152.58,-224 -47.15,-52.09 -97.39,1.85 -108.95,15.85z"/>
    <path class="fil19" d="M4505.34 4996.74c-120.79,0 -218.73,97.93 -218.73,218.73 0,120.81 97.94,218.73 218.73,218.73 120.81,0 218.74,-97.92 218.74,-218.73 0,-120.8 -97.93,-218.73 -218.74,-218.73z"/>
    <path class="fil3" d="M4527.98 5273.6c-6.09,4.55 -13.29,6.85 -21.59,6.8 -9.39,0 -16.82,-2.16 -22.27,-6.42 -5.44,-4.27 -8.16,-10.08 -8.14,-17.4 0,-5.76 2.01,-10.59 6.05,-14.48 4.03,-3.94 11.28,-7.78 21.77,-11.63 1.43,-0.61 3.48,-1.35 6.17,-2.24 18.37,-6.71 31.17,-12.38 38.4,-17.07 7.13,-4.55 12.59,-10.31 16.36,-17.34 3.79,-7.08 5.68,-15.05 5.69,-23.91 0.01,-15.1 -5.6,-27.38 -16.88,-36.85 -7.85,-6.57 -17.37,-10.83 -28.57,-12.84l0.02 -24.8 -31.14 -0.05 -0.02 24.71c-9.25,1.54 -17.37,4.59 -24.33,9.09 -10.61,6.84 -18.4,17.02 -23.37,30.52l31.94 11.76c3.96,-8.39 8.62,-14.48 13.99,-18.32 5.37,-3.8 12,-5.72 19.88,-5.68 7.63,0 13.65,1.78 18.06,5.34 4.39,3.57 6.59,8.45 6.57,14.54 0,9.47 -10.78,18.47 -32.35,26.91 -6.62,2.58 -11.83,4.68 -15.61,6.27 -18.03,7.6 -30.31,15.38 -36.82,23.35 -6.51,7.97 -9.78,18.38 -9.78,31.18 -0.02,17.29 5.63,30.89 16.93,40.78 8.92,7.83 20.49,12.56 34.68,14.21l-0.03 25.54 31.15 0 0.03 -26.57c9.15,-1.84 17.34,-4.98 24.57,-9.52 11.96,-7.55 21.01,-18.71 27.15,-33.48l-31.95 -14.24c-4.96,9.98 -10.48,17.25 -16.56,21.84z"/>
    <path class="fil19" d="M6102.62 4996.74c-120.81,0 -218.73,97.93 -218.73,218.73 0,120.81 97.92,218.73 218.73,218.73 120.8,0 218.73,-97.92 218.73,-218.73 0,-120.8 -97.93,-218.73 -218.73,-218.73z"/>
    <path class="fil3" d="M6121.37 5273.6c-6.1,4.55 -13.32,6.85 -21.62,6.8 -9.37,0 -16.82,-2.16 -22.26,-6.42 -5.44,-4.27 -8.16,-10.08 -8.16,-17.4 0,-5.76 2.02,-10.59 6.05,-14.48 4.03,-3.94 11.3,-7.78 21.8,-11.63 1.4,-0.61 3.46,-1.35 6.14,-2.24 18.37,-6.71 31.17,-12.38 38.43,-17.07 7.13,-4.55 12.57,-10.31 16.37,-17.34 3.75,-7.08 5.67,-15.05 5.67,-23.91 0,-15.1 -5.62,-27.38 -16.88,-36.85 -7.83,-6.57 -17.39,-10.83 -28.59,-12.84l0.04 -24.8 -31.12 -0.05 -0.05 24.71c-9.24,1.54 -17.35,4.59 -24.32,9.09 -10.6,6.84 -18.39,17.02 -23.35,30.52l31.92 11.76c3.94,-8.39 8.62,-14.48 13.97,-18.32 5.39,-3.8 12,-5.72 19.88,-5.68 7.64,0 13.68,1.78 18.09,5.34 4.36,3.57 6.56,8.45 6.56,14.54 0,9.47 -10.78,18.47 -32.34,26.91 -6.66,2.58 -11.86,4.68 -15.61,6.27 -18.05,7.6 -30.33,15.38 -36.85,23.35 -6.52,7.97 -9.75,18.38 -9.75,31.18 -0.04,17.29 5.62,30.89 16.92,40.78 8.91,7.83 20.49,12.56 34.69,14.21l-0.04 25.54 31.17 0 0 -26.57c9.14,-1.84 17.34,-4.98 24.56,-9.52 11.96,-7.55 21,-18.71 27.15,-33.48l-31.93 -14.24c-4.97,9.98 -10.5,17.25 -16.54,21.84z"/>
    <path class="fil19" d="M4505.34 6836.65c-120.79,0 -218.73,97.93 -218.73,218.74 0,120.8 97.94,218.73 218.73,218.73 120.81,0 218.74,-97.93 218.74,-218.73 0,-120.81 -97.93,-218.74 -218.74,-218.74z"/>
    <path class="fil3" d="M4527.98 7113.47c-6.09,4.59 -13.29,6.84 -21.59,6.84 -9.39,0 -16.82,-2.16 -22.27,-6.42 -5.44,-4.31 -8.16,-10.08 -8.14,-17.4 0,-5.76 2.01,-10.63 6.05,-14.52 4.03,-3.9 11.28,-7.74 21.77,-11.64 1.43,-0.55 3.48,-1.31 6.17,-2.24 18.37,-6.66 31.17,-12.38 38.4,-17.06 7.13,-4.51 12.59,-10.32 16.36,-17.35 3.79,-7.03 5.68,-15 5.69,-23.91 0.01,-15.09 -5.6,-27.38 -16.88,-36.8 -7.85,-6.56 -17.37,-10.87 -28.57,-12.89l0.02 -24.8 -31.14 0 -0.02 24.71c-9.25,1.54 -17.37,4.54 -24.33,9.05 -10.61,6.89 -18.4,17.06 -23.37,30.56l31.94 11.72c3.96,-8.39 8.62,-14.49 13.99,-18.28 5.37,-3.8 12,-5.72 19.88,-5.72 7.63,0 13.65,1.82 18.06,5.39 4.39,3.56 6.59,8.39 6.57,14.53 0,9.47 -10.78,18.42 -32.35,26.86 -6.62,2.62 -11.83,4.69 -15.61,6.28 -18.03,7.64 -30.31,15.43 -36.82,23.4 -6.51,7.96 -9.78,18.32 -9.78,31.17 -0.02,17.3 5.63,30.89 16.93,40.78 8.92,7.83 20.49,12.52 34.68,14.21l-0.03 25.5 31.15 0.05 0.03 -26.63c9.15,-1.78 17.34,-4.97 24.57,-9.52 11.96,-7.54 21.01,-18.66 27.15,-33.42l-31.95 -14.25c-4.96,9.98 -10.48,17.25 -16.56,21.8z"/>
    <path class="fil19" d="M6102.62 6836.65c-120.81,0 -218.73,97.93 -218.73,218.74 0,120.8 97.92,218.73 218.73,218.73 120.8,0 218.73,-97.93 218.73,-218.73 0,-120.81 -97.93,-218.74 -218.73,-218.74z"/>
    <path class="fil3" d="M6121.37 7113.47c-6.1,4.59 -13.32,6.84 -21.62,6.84 -9.37,0 -16.82,-2.16 -22.26,-6.42 -5.44,-4.31 -8.16,-10.08 -8.16,-17.4 0,-5.76 2.02,-10.63 6.05,-14.52 4.03,-3.9 11.3,-7.74 21.8,-11.64 1.4,-0.55 3.46,-1.31 6.14,-2.24 18.37,-6.66 31.17,-12.38 38.43,-17.06 7.13,-4.51 12.57,-10.32 16.37,-17.35 3.75,-7.03 5.67,-15 5.67,-23.91 0,-15.09 -5.62,-27.38 -16.88,-36.8 -7.83,-6.56 -17.39,-10.87 -28.59,-12.89l0.04 -24.8 -31.12 0 -0.05 24.71c-9.24,1.54 -17.35,4.54 -24.32,9.05 -10.6,6.89 -18.39,17.06 -23.35,30.56l31.92 11.72c3.94,-8.39 8.62,-14.49 13.97,-18.28 5.39,-3.8 12,-5.72 19.88,-5.72 7.64,0 13.68,1.82 18.09,5.39 4.36,3.56 6.56,8.39 6.56,14.53 0,9.47 -10.78,18.42 -32.34,26.86 -6.66,2.62 -11.86,4.69 -15.61,6.28 -18.05,7.64 -30.33,15.43 -36.85,23.4 -6.52,7.96 -9.75,18.32 -9.75,31.17 -0.04,17.3 5.62,30.89 16.92,40.78 8.91,7.83 20.49,12.52 34.69,14.21l-0.04 25.5 31.17 0.05 24.56 -36.15c11.96,-7.54 21,-18.66 27.15,-33.42l-31.93 -14.25c-4.97,9.98 -10.5,17.25 -16.54,21.8z"/>
    <path class="fil21" d="M1185.35 5420.51c-34.24,116.78 -152.89,79.51 -216.94,234.44 -148.91,360.35 378.43,467.56 389.84,470.14 11.41,2.58 99.97,-461.94 110.76,-507.59 10.79,-45.71 12.08,-427.34 12.08,-427.34 0,0 -82.19,62.11 -135.94,80.25 -53.76,18.14 -125.56,33.38 -159.8,150.1z"/>
    <path class="fil21" d="M1840.36 5251.24c0,0 36.56,-100.36 -52.01,-169.42 -64.78,-50.53 -80.46,-8.2 -154.41,-4.26 -36.6,1.92 -97.7,-13.27 -128.39,49.31 -30.68,62.63 -54.41,131.64 -85.83,153.67 -42.21,29.58 -190.76,143.49 -173.01,269.31 17.75,125.82 184.72,39.19 184.72,39.19 0,0 253.35,297.11 298.16,178.84 44.81,-118.27 238.14,-71.77 152.66,-338.7 -13.61,-42.51 -73.01,-105.93 -41.89,-177.94z"/>
    <path class="fil22" d="M1757.72 5279.88c-1.75,-0.51 -3.55,-0.79 -5.41,-0.79 -15.35,0 -27.8,18.37 -27.8,41.01 0,22.65 12.45,41.02 27.8,41.02 1.86,0 3.66,-0.28 5.41,-0.8 -12.77,-3.7 -22.4,-20.29 -22.4,-40.22 0,-19.92 9.63,-36.51 22.4,-40.22z"/>
    <path class="fil23" d="M1565.47 5201.78l-1.93 82.83 -0.91 37.65 -0.07 3.7 -0.96 40.22 -1.21 52.13 -0.27 11.35 -2.84 121.46 95.48 2.2 7.89 0.19 46.89 1.12 1.49 -63.66 1.01 -42.8c20.34,0.1 33.68,-7.17 40.98,-12.89 1.76,-17.34 4.05,-29.01 4.4,-30.66l4.79 0.94c-0.08,0.37 -1.94,9.75 -3.54,24.56 0.87,-0.98 1.29,-1.54 1.29,-1.54 29.48,-37.08 8.11,-207.81 8.11,-207.81l-200.6 -18.99z"/>
    <path class="fil24" d="M1710.58 5307.64c-3.5,-15.94 7.3,-30.62 7.41,-30.8 0.46,-0.57 0.34,-1.46 -0.27,-1.88 -0.62,-0.47 -1.47,-0.33 -1.92,0.23 -0.48,0.66 -11.66,15.85 -7.91,33.01 2.31,10.54 9.75,19.41 22.11,26.39 -1.69,3.52 -7.49,14.25 -16.35,15.94 -0.74,0.14 -1.24,0.84 -1.1,1.59 0.13,0.66 0.69,1.08 1.32,1.13l0.29 -0.05c12.01,-2.25 18.6,-18 18.88,-18.66l0.46 -1.12 -1.08 -0.61c-12.29,-6.66 -19.64,-15.15 -21.84,-25.17z"/>
    <path class="fil24" d="M1709.03 5490.97l0.99 -42.8c0,0 -72.3,-5.95 -116.06,-35.01 0,0 58.93,59.39 115.07,77.81z"/>
    <path class="fil21" d="M1629.81 5274.4c-1.07,1.07 -1.08,2.81 -0.02,3.89 0.53,0.51 1.2,0.8 1.88,0.8 0.72,0.04 1.45,-0.24 2,-0.8 1.32,-1.31 32.74,-31.83 60.37,-8.53 1.16,0.98 2.88,0.84 3.86,-0.33 0.97,-1.13 0.83,-2.86 -0.33,-3.85 -31.47,-26.58 -67.4,8.49 -67.76,8.82z"/>
    <path class="fil21" d="M1725.29 5270.51c-1.17,0.93 -1.33,2.67 -0.37,3.84 0.52,0.66 1.28,0.99 2.05,0.99 0.64,0.04 1.27,-0.19 1.8,-0.61 0.23,-0.19 22.28,-18.15 33.91,-7.69 1.13,1.03 2.86,0.93 3.86,-0.19 1.02,-1.12 0.93,-2.86 -0.2,-3.89 -15.14,-13.6 -40,6.65 -41.05,7.55z"/>
    <path class="fil25" d="M1750.36 5289.49c-4.22,-0.1 -7.72,3.24 -7.81,7.46 -0.1,4.22 3.24,7.68 7.45,7.83 4.2,0.09 7.7,-3.24 7.8,-7.46 0.1,-4.22 -3.24,-7.73 -7.44,-7.83z"/>
    <path class="fil25" d="M1682.83 5287.94c-4.21,-0.14 -7.71,3.24 -7.8,7.41 -0.11,4.22 3.23,7.74 7.44,7.83 4.21,0.1 7.71,-3.23 7.81,-7.45 0.1,-4.23 -3.24,-7.69 -7.45,-7.79z"/>
    <path class="fil23" d="M1550.76 5282.32c-23.61,-0.52 -43.2,18.14 -43.75,41.77 -0.56,23.62 18.13,43.22 41.74,43.74 23.62,0.56 43.21,-18.15 43.76,-41.73 0.55,-23.62 -18.14,-43.22 -41.75,-43.78z"/>
    <path class="fil24" d="M1552.04 5306.46c-9.29,-5.39 -20.49,-2.06 -20.96,-1.87 -0.73,0.19 -1.13,0.98 -0.91,1.68 0.23,0.71 0.99,1.13 1.71,0.89 0.11,0 10.52,-3.14 18.79,1.64 3.68,2.17 6.4,5.54 8.13,10.13 -4.49,-2.96 -12.8,-6.52 -22.16,-0.98 -6.57,3.84 -9.44,11.53 -7.29,19.59 1.82,6.75 7.66,13.64 16.63,13.83l0.25 0.05c0.76,0 1.38,-0.61 1.39,-1.36 0,-0.8 -0.62,-1.41 -1.36,-1.41 -8.22,-0.09 -12.81,-6.42 -14.26,-11.86 -1.38,-5.16 -0.63,-12.56 6.03,-16.5 12.06,-7.08 21.91,2.96 22.32,3.38l3.4 3.51 -1.08 -4.78c-1.68,-7.45 -5.25,-12.84 -10.63,-15.94z"/>
    <path class="fil23" d="M1666.74 5145.34c-87.88,-9.28 -101.27,56.44 -101.27,56.44l99.99 22.74 94.14 -4.36 6.48 0.61c0,0 -11.47,-66.1 -99.34,-75.43z"/>
    <path class="fil21" d="M1646.13 5123.03c-6.09,-0.14 -103.13,36.75 -103.13,36.75 0,0 -30.8,119.59 20.52,124.79 51.33,5.25 77.07,-81.01 77.07,-81.01 70.78,13.79 126.79,-38.53 126.79,-38.53l-13.05 -45.57c0,0 -102.12,3.71 -108.2,3.57z"/>
    <path class="fil26" d="M1692.47 5316.73c-2.19,-0.05 -2.26,3.33 -0.09,3.37 2.2,0.06 2.27,-3.33 0.09,-3.37z"/>
    <path class="fil26" d="M1682.02 5322.59c-2.19,-0.05 -2.26,3.32 -0.09,3.37 2.2,0.05 2.27,-3.33 0.09,-3.37z"/>
    <path class="fil26" d="M1663.61 5309.93c-2.2,-0.05 -2.27,3.33 -0.09,3.37 2.19,0.05 2.26,-3.32 0.09,-3.37z"/>
    <path class="fil26" d="M1647.28 5321.79c-2.18,-0.09 -2.26,3.33 -0.07,3.37 2.18,0.06 2.26,-3.32 0.07,-3.37z"/>
    <path class="fil26" d="M1630.88 5304.96c-2.19,-0.04 -2.27,3.33 -0.09,3.38 2.19,0.09 2.27,-3.33 0.09,-3.38z"/>
    <path class="fil26" d="M1624.2 5329.24c-2.19,-0.04 -2.27,3.33 -0.08,3.38 2.18,0.09 2.26,-3.33 0.08,-3.38z"/>
    <path class="fil26" d="M1726.67 5307.59c-2.19,-0.05 -2.26,3.32 -0.08,3.38 2.18,0.08 2.26,-3.33 0.08,-3.38z"/>
    <path class="fil26" d="M1738.94 5321.6c-2.18,-0.05 -2.26,3.38 -0.07,3.43 2.17,0.04 2.26,-3.33 0.07,-3.43z"/>
    <path class="fil26" d="M1754.35 5315.89c-2.18,-0.05 -2.26,3.33 -0.08,3.37 2.19,0.04 2.26,-3.33 0.08,-3.37z"/>
    <path class="fil26" d="M1754.93 5339.93c-2.18,-0.05 -2.25,3.38 -0.07,3.42 2.18,0.05 2.26,-3.37 0.07,-3.42z"/>
    <path class="fil26" d="M1766.72 5326.1c-2.19,-0.05 -2.26,3.33 -0.08,3.38 2.19,0.04 2.26,-3.33 0.08,-3.38z"/>
    <path class="fil26" d="M1764.53 5305.05c-2.18,-0.04 -2.25,3.33 -0.07,3.38 2.19,0.05 2.26,-3.33 0.07,-3.38z"/>
    <path class="fil26" d="M1669.56 5332.99c-2.19,-0.04 -2.27,3.33 -0.08,3.38 2.18,0.04 2.25,-3.33 0.08,-3.38z"/>
    <path class="fil27" d="M1696.78 5387.18c18.63,4.27 30.15,-14.71 30.15,-14.71 -0.76,-0.29 -50.89,-11.63 -50.89,-11.63 0,0 2.12,22.13 20.74,26.34z"/>
    <path class="fil28" d="M2136.04 5949.53c0,0 -38.16,184.19 -119.58,-96.66 -81.42,-280.89 -273.65,-318.35 -273.65,-318.35 0,0 56.27,253.9 52.54,320.65 -3.73,66.75 26.72,442.01 26.72,442.01 0,0 145.88,71.68 237.31,36.85 91.44,-34.83 86.77,-379.86 76.66,-384.5z"/>
    <polygon class="fil23" points="890.31,8187.39 1037.61,8290.29 1145.28,8134.42 986.96,8048.12 "/>
    <path class="fil5" d="M1170.51 8411.28l-20.32 -14.58 -54.01 -124.13 -91.9 19.22 -127.22 -91.46c-3.18,-2.3 -7.6,-1.54 -9.88,1.59l-13.83 19.32c-1.56,2.2 -1.06,5.2 1.11,6.8l295.81 212.63c8.93,6.43 21.78,3.38 26.65,-7.17 3.62,-7.83 0.59,-17.15 -6.41,-22.22z"/>
    <path class="fil7" d="M1077.85 8233.1c-73.9,11.16 -98.12,-59.39 -98.12,-59.39 -22.05,-38.21 -64.18,-24.71 -64.18,-24.71l-37.48 52.32 292.53 210.29c3.38,-21.7 -19.13,-52.88 -19.13,-52.88l-73.62 -125.63z"/>
    <polygon class="fil29" points="877.17,8200.24 879.33,8201.83 916.64,8149.75 914.47,8148.2 "/>
    <path class="fil29" d="M980.98 8173.24l-2.5 0.93c8.79,24.42 25.49,39.24 34.93,46.04 4.13,2.95 6.88,4.4 6.97,4.45l1.21 -2.39c-0.27,-0.14 -28.34,-14.86 -40.61,-49.03z"/>
    <polygon class="fil29" points="904.24,8191.19 911.35,8210.41 913.85,8209.47 906.74,8190.25 "/>
    <polygon class="fil29" points="916.02,8195.64 923.14,8214.91 925.64,8213.97 918.52,8194.75 "/>
    <path class="fil29" d="M1171.76 8410.72l-292.48 -210.3c-4.61,-3.32 -11.03,-2.25 -14.33,2.35l-10.37 14.49 2.17 1.54 10.36 -14.49c2.45,-3.37 7.21,-4.17 10.61,-1.73l292.48 210.3c7.39,5.3 9.09,15.65 3.79,23.01 -2.84,3.99 -7.23,6.47 -12.07,6.85l0.22 2.67c5.61,-0.47 10.72,-3.38 14.01,-7.92 6.16,-8.63 4.19,-20.63 -4.39,-26.77z"/>
    <path class="fil29" d="M1079 8232.4l-2.3 1.36c0.65,1.12 65.8,112.27 80.89,137.21 14.75,24.37 12.11,40.41 12.08,40.59l2.61 0.47c0.14,-0.7 2.93,-17.11 -12.41,-42.47 -15.08,-24.89 -80.22,-136.04 -80.87,-137.16z"/>
    <polygon class="fil23" points="1702.51,8256.25 1705.08,8425.86 1884.63,8423.38 1881.35,8233.85 "/>
    <path class="fil5" d="M2063.06 8444.05l-25.01 0 -116.13 -69.24 -63.49 69.24 -156.59 0c-3.91,0 -7.08,3.19 -7.08,7.12l0 23.77c0,2.67 2.17,4.83 4.85,4.83l364.11 0c10.99,0 19.67,-9.98 17.49,-21.38 -1.63,-8.48 -9.53,-14.34 -18.15,-14.34z"/>
    <path class="fil7" d="M2016.98 8412.5l-132.96 -59.06c-53.54,52.22 -114.27,9.04 -114.27,9.04 -40.16,-18.14 -66.53,17.39 -66.53,17.39l0 64.41 360.08 0c-9.87,-19.59 -46.32,-31.78 -46.32,-31.78z"/>
    <polygon class="fil29" points="1701.89,8443.96 1704.55,8443.96 1704.55,8379.87 1701.89,8379.87 "/>
    <path class="fil29" d="M1770.5 8361.4l-1.51 2.16c21.38,14.77 43.56,17.02 55.19,17.02 5.09,0 8.15,-0.42 8.25,-0.42l-0.39 -2.68c-0.31,0.05 -31.69,4.46 -61.54,-16.08z"/>
    <polygon class="fil29" points="1718.59,8420.8 1735.58,8432.24 1737.07,8430.03 1720.08,8418.55 "/>
    <polygon class="fil29" points="1730.77,8417.52 1747.76,8429 1749.24,8426.8 1732.26,8415.31 "/>
    <path class="fil29" d="M2063.72 8442.88l-360.03 0c-5.66,0 -10.26,4.59 -10.26,10.26l0 17.82 2.66 0 0 -17.82c0,-4.21 3.41,-7.59 7.6,-7.59l360.03 0c9.09,0 16.49,7.41 16.49,16.5 0,4.83 -2.12,9.42 -5.82,12.61l1.72 2.02c4.3,-3.66 6.76,-9 6.76,-14.63 0,-10.59 -8.59,-19.17 -19.15,-19.17z"/>
    <path class="fil29" d="M2030.12 8416.39c-26.74,-11.44 -144.37,-63.66 -145.55,-64.18l-1.09 2.45c1.19,0.51 118.84,52.78 145.59,64.21 26.19,11.16 33.38,25.74 33.44,25.88l2.41 -1.12c-0.29,-0.66 -7.58,-15.61 -34.8,-27.24z"/>
    <path class="fil23" d="M2253.48 5781.11c0.22,-29.03 -20.91,-40.56 -20.91,-40.56 0,0 -1.73,-15.94 -14.26,-25.97 -12.51,-9.94 -57.27,21.1 -57.27,21.1 -39.99,-20.68 -52.91,-1.55 -71.23,32.48 2.5,3.71 4.77,7.45 6.82,11.25l-4.3 2.35c-1.59,-2.96 -3.3,-5.86 -5.16,-8.72 -3.88,7.27 -8.05,15.09 -12.82,23.35 -10.21,17.57 -26.97,41.86 -26.97,41.86 2.04,22.87 69.1,119.16 69.1,119.16 0,0 106.89,-48.85 124.71,-64.97 17.81,-16.18 35.08,-38.35 35.08,-38.35 10.14,-17.11 -4.89,-39.24 -4.89,-39.24 -3.22,-18.61 -17.9,-33.74 -17.9,-33.74z"/>
    <path class="fil30" d="M2233.66 5600.15l-74.92 -16.78c-7.6,-1.73 -15.33,3.99 -17.29,12.75l-20.17 90.38 -18.53 83.02c-1.95,8.77 2.62,17.21 10.21,18.94l74.93 16.73c7.59,1.74 15.33,-3.98 17.28,-12.7l38.7 -173.45c1.95,-8.76 -2.62,-17.2 -10.21,-18.89z"/>
    <path class="fil31" d="M2234.27 5597.38l-74.93 -16.73c-1.51,-0.38 -3,0.61 -3.33,2.11 -0.34,1.5 0.61,3 2.11,3.33l74.94 16.78c6.07,1.36 9.7,8.34 8.09,15.57l-38.71 173.44c-1.61,7.22 -7.86,11.96 -13.94,10.6 -1.5,-0.33 -2.99,0.6 -3.33,2.11 -0.33,1.54 0.61,3 2.11,3.37 9.08,2.02 18.32,-4.64 20.6,-14.86l38.71 -173.44c2.28,-10.22 -3.24,-20.21 -12.32,-22.28z"/>
    <path class="fil32" d="M2213.65 5658.71c-0.75,0 -1.51,-0.1 -2.27,-0.29l-5.47 -1.22c-5.58,-1.22 -9.09,-6.79 -7.84,-12.38l4.65 -20.86c1.08,-4.82 5.36,-8.1 10.1,-8.1 0.75,0 1.51,0.09 2.27,0.23l5.46 1.27c5.59,1.22 9.1,6.75 7.86,12.37l-4.66 20.86c-1.08,4.83 -5.35,8.12 -10.1,8.12z"/>
    <path class="fil33" d="M1948.94 6633.11c-6.48,-42.24 -50.27,-67.7 -90.12,-52.36l-249.58 96c-26.63,10.27 -43.85,36.24 -42.88,64.79 6.77,199.37 34.69,1030.75 96.56,1540.87 4.08,33.66 32.54,59.02 66.35,58.93 37.44,-0.09 89.51,-4.59 147.22,-22.22 27.9,-8.53 47.25,-33.94 47.73,-63.15l26.67 -1603.93c0.06,-3.75 -0.2,-7.54 -0.77,-11.24l-1.18 -7.69z"/>
    <path class="fil7" d="M1366.42 7369.04c0,0 -302.38,470.05 -418.37,674.2 -13.84,24.38 -7.76,55.13 14.23,72.53 31.13,24.6 81.37,57.94 147.8,80.91 22.52,7.77 47.54,0.65 62.49,-17.96l541.17 -647.9c16.34,-19.6 27.36,-43.08 31.98,-68.16l132.55 -719.95 -469.88 -92.86 -41.97 719.19z"/>
    <polygon class="fil31" points="925.65,8082.99 925.68,8082.99 "/>
    <path class="fil28" d="M1317.72 6151.86c1.47,38.43 -12.22,606.93 42.81,657.28 55.03,50.29 635.47,30.04 651.74,-24.48 16.25,-54.52 -19.96,-659.57 -19.96,-659.57l-674.59 26.77z"/>
    <path class="fil28" d="M1868.8 5645.96c-30.09,-50.63 -72.22,-99.9 -125.99,-111.44 8.76,4.46 -18.92,-3.84 -18.92,-3.84 0,0 -211.05,0.47 -291.32,8.81 -124.73,12.98 -125.35,311.08 -125.35,311.08 -7.3,213.44 36.8,602.25 36.8,602.25 107.07,147.62 659.09,-99.01 659.09,-99.01l-70.67 -522.13c-8.87,-65.44 -29.91,-128.92 -63.64,-185.72z"/>
    <path class="fil28" d="M1674.14 5596.07l-131.6 -39.79 -74.88 125.77c0,0 195.39,-20.72 203.07,-20.07 7.68,0.66 67.46,-61.55 67.8,-65.91 0.34,-4.31 -11.02,-56.86 -11.02,-56.86l-53.37 56.86z"/>
    <path class="fil23" d="M2180.03 5757.94l0.88 -34.4c0,0 -70.55,38.67 -95.54,82.83 -24.97,44.2 45.59,62.21 45.59,62.21l78.81 -35.96 -19.83 -49.78 -9.91 -24.9z"/>
    <path class="fil24" d="M2268.47 5812.75c-0.12,0.18 -12.59,17.29 -35.65,30.42 -1.72,0.98 -2.32,3.14 -1.34,4.87 0.96,1.74 3.12,2.35 4.84,1.37l0.04 0c24.4,-13.89 37.38,-31.7 37.92,-32.44 1.16,-1.65 0.8,-3.85 -0.81,-5.02 -1.6,-1.18 -3.84,-0.8 -5,0.8z"/>
    <path class="fil23" d="M2171.18 5729.34c-21.42,14.91 7.02,94.14 7.02,94.14l47.7 8.48c0,0 36.28,-20.9 37.58,-25.45 1.31,-4.5 -51.68,-93.85 -51.68,-93.85 0,0 -19.2,1.78 -40.62,16.68z"/>
    <path class="fil24" d="M2230.69 5737.51c0,0 -23.2,14.43 -43.6,27.28 -1.67,1.08 -2.18,3.28 -1.12,4.96 1.01,1.6 3.11,2.17 4.75,1.23l0.19 -0.1c20.38,-12.89 43.56,-27.28 43.56,-27.28 1.69,-1.08 2.2,-3.28 1.15,-4.97 -1.04,-1.69 -3.43,-2.11 -4.93,-1.12z"/>
    <path class="fil24" d="M2251.43 5775.48c-0.14,0.09 -15.31,10.45 -45.47,29.48 -1.67,1.08 -2.17,3.28 -1.12,4.97 1.02,1.6 3.11,2.16 4.76,1.22l0.19 -0.09c30.28,-19.13 45.53,-29.53 45.68,-29.63 1.64,-1.12 2.06,-3.37 0.94,-5.02 -1.11,-1.59 -3.27,-2.02 -4.98,-0.93z"/>
    <path class="fil24" d="M2157.12 5734.36l-53.65 45.38c-1.51,1.27 -1.7,3.52 -0.43,5.01 1.01,1.23 2.65,1.6 4.04,1.04l1.01 -0.56 53.66 -45.39c1.51,-1.26 1.7,-3.51 0.43,-5.06 -1.28,-1.5 -3.53,-1.68 -5.06,-0.42z"/>
    <path class="fil28" d="M2037.07 5792.78l-222.56 173.54 -401.08 158.21c0,0 105.25,326.88 326.37,299.27 221.11,-27.61 437.46,-474.27 437.46,-474.27 -42.45,-87.47 -140.19,-156.75 -140.19,-156.75z"/>
    <path class="fil25" d="M2039.49 5789.77l-2.38 -1.92 -370.29 288.68 -18.96 38.43 6.96 3.43 18.17 -36.85 364.03 -283.8c16.8,13.79 117.36,98.03 136.07,151.61 -6.51,14.06 -62.45,132.71 -150.78,246.76 -86.06,111.1 -221.37,240.39 -376.85,225.48 -124.71,-12 -214.52,-78.98 -266.93,-199.18 -39.24,-90 -41.56,-177.67 -41.57,-178.56l-7.76 0.19c0.02,0.89 2.34,89.87 42.12,181.23 36.86,84.66 114.2,188.78 273.4,204.06 8.39,0.79 16.79,1.22 25.24,1.22 118.3,-0.05 241.69,-78.9 358.48,-229.7 94.17,-121.61 151.78,-248.46 152.35,-249.72l0.62 -1.36 -0.47 -1.41c-19.59,-60.28 -136.48,-154.6 -141.45,-158.59z"/>
    <path class="fil25" d="M1403.13 5570.25l2.62 7.31c4.02,-1.46 99.03,-34.23 151.69,65.49 53.99,102.24 108.09,433.29 108.63,436.62l7.66 -1.27c-2.22,-13.64 -54.85,-335.6 -109.43,-438.96 -55.85,-105.76 -160.12,-69.57 -161.17,-69.19z"/>
    <path class="fil23" d="M2206.39 5713.6c0,0 13.93,21.94 19.2,24.28 0.28,0.14 2.65,-11.07 -1.26,-17.11 -7.64,-11.81 -17.94,-7.17 -17.94,-7.17z"/>
    <path class="fil25" d="M1321.29 6364.17c-1.37,-99.43 -6.11,-301.14 -11.01,-442.95 -4.79,-138.57 20.34,-237.2 20.59,-238.18l-7.5 -1.98c-0.26,1.04 -25.67,100.65 -20.84,240.44 4.89,141.76 9.64,343.38 11,442.81l0.13 9.89c1.45,107.49 4.46,331.1 25.37,393.96l7.36 -2.43c-20.53,-61.7 -23.53,-284.56 -24.97,-391.62l-0.13 -9.94z"/>
    <path class="fil25" d="M1865.64 5648.2c0.62,0.89 62.04,89.39 68.14,222.25l7.75 -0.33c-6.21,-135.24 -68.93,-225.48 -69.56,-226.37l-6.33 4.45z"/>
    <path class="fil25" d="M1999.24 6227.85c0.15,3.71 14.94,372.02 13.35,454.85l7.75 0.15c1.6,-83.07 -13.2,-451.58 -13.35,-455.33l-7.75 0.33z"/>
    <path class="fil23" d="M1580.23 5540.76l88.58 52.36 20.52 -9.33c0,0 28.59,-55.92 27.81,-55.92 -0.77,0 -144.06,-5.16 -144.06,-5.16l7.15 18.05z"/>
    <path class="fil7" d="M1709.47 5471.9l-1.38 58.78c0,0 -15.62,45.42 -37.9,61.03 -44.2,-30.65 -112.14,-73.31 -112.14,-73.31l1.42 -60.76c-82.03,-9.37 -173.3,46.46 -151.93,73.04 21.38,26.63 132.47,34.79 161.96,44.49 29.08,9.56 103.4,32.16 103.4,32.16 19.55,-14.54 71.74,-71.45 71.74,-71.45l50.7 23.35c1.03,-53.96 -85.87,-87.33 -85.87,-87.33z"/>
    <path class="fil23" d="M2089.81 5768.16c-0.88,1.55 -1.73,3.19 -2.64,4.88 -0.3,5.15 0.15,8.91 1.73,11.81l11.68 -5.91c-2.06,-3.75 -5.7,-11.67 -10.77,-10.78z"/>
    <path class="fil23" d="M1751.02 5435.28c2.66,-2.06 4.52,-3.93 5.65,-5.16 1.6,-14.81 9.89,-32.9 9.97,-33.27l-27.01 2.19c-0.34,1.65 13.15,18.9 11.39,36.24z"/>
    <path class="fil7" d="M3347 4954.92l-1266.82 0c-43.37,4.88 -77.07,41.63 -77.07,86.35l0 275.08c0,48 38.91,86.91 86.93,86.91l1256.96 0c48.02,0 86.92,-38.91 86.92,-86.91l0 -274.52c0,-47.99 -38.9,-86.91 -86.92,-86.91z"/>
    <path class="fil7" d="M2229.67 5556.18c0.21,7.08 211.71,-201.81 213.5,-206.26l-158.36 -41.63c0,0 -55.34,240.86 -55.14,247.89z"/>
    <polygon class="fil3" points="3235,5152.56 3209.77,5101.42 3184.53,5152.56 3128.1,5160.76 3168.93,5200.57 3159.3,5256.77 3209.77,5230.24 3260.24,5256.77 3250.59,5200.57 3291.42,5160.76 "/>
    <polygon class="fil3" points="2989.38,5152.56 2964.14,5101.42 2938.91,5152.56 2882.48,5160.76 2923.31,5200.57 2913.67,5256.77 2964.14,5230.24 3014.61,5256.77 3004.97,5200.57 3045.81,5160.76 "/>
    <polygon class="fil3" points="2743.75,5152.56 2718.52,5101.42 2693.28,5152.56 2636.86,5160.76 2677.69,5200.57 2668.05,5256.77 2718.52,5230.24 2768.99,5256.77 2759.35,5200.57 2800.18,5160.76 "/>
    <polygon class="fil3" points="2498.13,5152.56 2472.9,5101.42 2447.67,5152.56 2391.24,5160.76 2432.07,5200.57 2422.43,5256.77 2472.9,5230.24 2523.37,5256.77 2513.73,5200.57 2554.56,5160.76 "/>
    <polygon class="fil3" points="2252.51,5152.56 2227.28,5101.42 2202.04,5152.56 2145.62,5160.76 2186.45,5200.57 2176.81,5256.77 2227.28,5230.24 2277.74,5256.77 2268.1,5200.57 2308.94,5160.76 "/>
    <polygon class="fil16" points="7198.37,1709.98 7373.8,1789.8 7463.98,1591.62 7288.55,1511.73 "/>
    <path class="fil16" d="M6786.98 1106.99c-23.77,52.15 -0.7,113.76 51.45,137.47l1122.77 510.9c52.15,23.77 113.7,0.7 137.47,-51.45l6.14 -13.55 -1311.69 -596.86 -6.14 13.49z"/>
    <path class="fil16" d="M7805.45 1309.71l-528.66 -240.56c-52.22,-23.77 -113.82,-0.7 -137.54,51.45l-6.13 13.55 717.71 326.58 6.13 -13.49c23.71,-52.21 0.71,-113.75 -51.51,-137.53z"/>
    <path class="fil4" d="M7625.74 1113.89l-83.28 -37.9c-52.15,-23.71 -113.69,-0.7 -137.47,51.51l272.26 123.86c23.71,-52.15 0.64,-113.69 -51.51,-137.47z"/>
    <polygon class="fil4" points="7067.61,1437.66 7664.98,1709.53 7698.47,1635.84 7101.16,1364.03 "/>
    <polygon class="fil34" points="5675.04,2465.65 5723.42,2487.63 6294.35,1233.15 6245.97,1211.1 "/>
    <polygon class="fil34" points="7748.32,3409.13 7796.7,3431.14 8367.54,2176.58 8319.22,2154.6 "/>
    <polygon class="fil34" points="5675.04,2465.65 7792.16,3429.09 7819.38,3369.36 5702.23,2405.89 "/>
    <path class="fil4" d="M6685.26 548.74c-20.54,-9.34 -44.72,-0.26 -54.05,20.25l-118.74 260.95c-9.33,20.51 -0.28,44.74 20.2,54.07l0 0c20.53,9.33 44.73,0.25 54.05,-20.26l118.71 -261.01c9.34,-20.45 0.32,-44.67 -20.17,-54z"/>
    <polygon class="fil16" points="6461.23,828.41 6621.55,901.33 6641.76,856.91 6481.48,783.92 "/>
    <polygon class="fil34" points="6096.85,445.27 7149.8,924.46 7167.18,886.18 6114.24,407.05 "/>
    <path class="fil4" d="M8586.37 1413.88c-20.45,-9.33 -44.68,-0.25 -54.01,20.26l-118.74 260.95c-9.33,20.51 -0.32,44.74 20.26,54.07 20.45,9.33 44.67,0.25 54,-20.26l118.75 -261.01c9.33,-20.45 0.25,-44.67 -20.26,-54.01z"/>
    <polygon class="fil16" points="8362.36,1693.55 8522.71,1766.47 8542.91,1722.06 8382.62,1649.07 "/>
    <polygon class="fil34" points="7998.01,1310.41 9050.93,1789.61 9068.31,1751.33 8015.4,1272.2 "/>
    <polygon class="fil4" points="5639.79,2377.52 5813.05,2456.32 5845.77,2384.48 5672.51,2305.62 "/>
    <polygon class="fil4" points="7713.04,3320.97 7886.3,3399.81 7919.02,3327.93 7745.76,3249.1 "/>
    <polygon class="fil20" points="5987.25,2535.63 7637.43,3286.56 8127.05,2210.71 6476.84,1459.77 "/>
    <polygon class="fil35" points="7227.45,3099.99 7637.43,3286.56 8127.05,2210.71 7717.06,2024.1 "/>
    <polygon class="fil36" points="6842.65,2007.99 7007.15,2082.83 7151.14,1766.6 6986.57,1691.7 "/>
    <polygon class="fil34" points="6217.37,1290.41 8334.5,2253.85 8369.33,2177.35 6252.2,1213.97 "/>
    <path class="fil10" d="M6399.63 800.35c-23.72,52.21 -0.66,113.76 51.53,137.47l1995.63 908.16c52.15,23.77 113.76,0.7 137.47,-51.45l-2184.63 -994.18z"/>
    <polygon class="fil16" points="2237.73,1462.52 2271.06,1599.86 2392.63,1570.4 2359.3,1433.06 "/>
    <path class="fil16" d="M1817.35 1447.37c10.02,41.35 51.64,66.72 92.96,56.69l759.02 -184.19c41.31,-10.03 66.68,-51.64 56.66,-92.99l-908.64 220.49z"/>
    <path class="fil16" d="M2411.41 1154.73l-347.56 84.3c-41.31,10.03 -66.69,51.64 -56.66,92.99l497.18 -120.67c-10.02,-41.28 -51.64,-66.65 -92.96,-56.62z"/>
    <path class="fil4" d="M2250.58 1124.44l-57.67 13.99c-36.15,8.76 -58.35,45.19 -49.57,81.3l188.58 -45.76c-8.77,-36.11 -45.19,-58.35 -81.34,-49.53z"/>
    <polygon class="fil4" points="2082.92,1462.14 2095.3,1513.2 2509.1,1412.8 2496.72,1361.73 "/>
    <polygon class="fil34" points="1585.11,1726.53 1795.99,2595.58 1829.5,2587.46 1618.63,1718.42 "/>
    <polygon class="fil34" points="3021.32,1378.03 3232.2,2247.08 3265.71,2238.96 3054.83,1369.91 "/>
    <polygon class="fil34" points="1785.95,2554.23 1795.99,2595.58 3262.59,2239.73 3252.55,2198.31 "/>
    <path class="fil4" d="M1576.11 1232c-3.44,-14.26 -17.75,-22.95 -31.95,-19.5 -14.2,3.46 -22.93,17.77 -19.47,31.96l43.86 180.8c3.45,14.19 17.76,22.88 31.96,19.43 14.2,-3.45 22.92,-17.7 19.47,-31.96l-43.87 -180.73z"/>
    <polygon class="fil16" points="1534.3,1414.14 1541.77,1444.94 1652.82,1417.97 1645.35,1387.23 "/>
    <polygon class="fil34" points="1195.91,1368.76 1202.34,1395.29 1931.74,1218.32 1925.31,1191.8 "/>
    <path class="fil4" d="M2893.09 912.38c-3.44,-14.19 -17.75,-22.88 -31.95,-19.43 -14.2,3.39 -22.92,17.71 -19.48,31.96l43.87 180.74c3.45,14.25 17.76,22.94 31.96,19.49 14.2,-3.45 22.92,-17.77 19.48,-31.96l-43.88 -180.8z"/>
    <polygon class="fil16" points="2851.28,1094.59 2858.75,1125.4 2969.8,1098.43 2962.33,1067.62 "/>
    <polygon class="fil34" points="2512.89,1049.21 2519.31,1075.74 3248.73,898.71 3242.29,872.25 "/>
    <polygon class="fil4" points="1730.61,2514.92 1742.7,2564.71 1862.7,2535.57 1850.62,2485.78 "/>
    <polygon class="fil4" points="3166.82,2166.42 3178.91,2216.21 3298.91,2187.07 3286.83,2137.28 "/>
    <polygon class="fil20" points="1802.54,1761.04 1983.38,2506.3 3126.52,2228.93 2945.68,1483.61 "/>
    <polygon class="fil35" points="2661.66,1552.57 2842.51,2297.82 3126.52,2228.93 2945.68,1483.61 "/>
    <polygon class="fil36" points="2155.63,1675.34 2208.8,1894.42 2322.78,1866.75 2269.62,1647.67 "/>
    <polygon class="fil34" points="1589.42,1725.51 1602.28,1778.49 3068.88,1422.58 3056.02,1369.6 "/>
    <path class="fil10" d="M1499.1 1455.3c8.78,36.17 45.19,58.35 81.35,49.59l1382.43 -335.46c36.16,-8.76 58.35,-45.19 49.58,-81.36l-1513.36 367.23z"/>
    <path class="fil29" d="M2881.16 6771.49c-1.37,-0.7 -2.9,-1.12 -4.54,-1.12l-59.12 0c-1.64,0 -3.17,0.42 -4.54,1.12 -92.92,11.67 -165.9,116.96 -165.9,244.71l0 211.13c0,5.58 4.54,10.13 10.13,10.13 5.6,0 10.14,-4.55 10.14,-10.13l0 -211.13c0,-124.37 73.05,-225.54 162.83,-225.54l33.8 0c89.78,0 162.83,101.17 162.83,225.54l0 211.13c0,5.58 4.54,10.13 10.14,10.13 5.59,0 10.13,-4.55 10.13,-10.13l0 -211.13c0,-127.75 -72.98,-233.04 -165.9,-244.71z"/>
    <polygon class="fil37" points="2882.46,7193.07 2432.91,7193.07 2319.34,8477.38 3426.36,8477.38 3312.8,7193.07 "/>
    <polygon class="fil36" points="3020.88,7193.07 2571.33,7193.07 2457.76,8477.38 3564.78,8477.38 3451.21,7193.07 "/>
    <path class="fil38" d="M3011.27 7553.04c-155.85,0 -282.19,126.34 -282.19,282.16 0,155.87 126.34,282.2 282.19,282.2 155.85,0 282.19,-126.33 282.19,-282.2 0,-155.82 -126.34,-282.16 -282.19,-282.16z"/>
    <path class="fil29" d="M3083.72 7186.97l-517.96 0 -57.27 647.71c-0.29,3.33 2.17,6.29 5.52,6.57l0.54 0.04c3.12,0 5.77,-2.39 6.05,-5.53l56.3 -636.65 506.82 0c3.36,0 6.08,-2.72 6.08,-6.04 0,-3.38 -2.72,-6.1 -6.08,-6.1z"/>
    <path class="fil29" d="M3015.81 6771.49c-1.37,-0.7 -2.9,-1.12 -4.54,-1.12l-59.13 0c-1.64,0 -3.17,0.42 -4.54,1.12 -92.91,11.67 -165.89,116.96 -165.89,244.71l0 211.13c0,5.58 4.54,10.13 10.14,10.13 5.59,0 10.13,-4.55 10.13,-10.13l0 -211.13c0,-124.37 73.05,-225.54 162.83,-225.54l33.8 0c89.78,0 162.83,101.17 162.83,225.54l0 211.13c0,5.58 4.53,10.13 10.13,10.13 5.6,0 10.13,-4.55 10.13,-10.13l0 -211.13c0,-127.75 -72.97,-233.04 -165.89,-244.71z"/>
    <path class="fil29" d="M3398.97 8158.05l-187.38 140.54c-2.67,2.01 -3.22,5.81 -1.2,8.53 1.18,1.55 3.02,2.39 4.87,2.39 1.26,0 2.54,-0.38 3.64,-1.22l187.38 -140.49c2.67,-2.02 3.22,-5.87 1.21,-8.54 -2.02,-2.67 -5.82,-3.23 -8.52,-1.21z"/>
    <path class="fil29" d="M3476.33 8170.76l-129.73 102.7c-2.64,2.06 -3.08,5.9 -0.99,8.53 1.2,1.5 2.98,2.3 4.77,2.3 1.32,0 2.65,-0.42 3.76,-1.32l129.73 -102.65c2.64,-2.11 3.09,-5.92 1,-8.59 -2.09,-2.62 -5.92,-3.05 -8.54,-0.97z"/>
    <path class="fil29" d="M3658.26 6771.49c-1.37,-0.7 -2.89,-1.12 -4.54,-1.12l-59.12 0c-1.64,0 -3.17,0.42 -4.54,1.12 -92.92,11.67 -165.9,116.96 -165.9,244.71l0 211.13c0,5.58 4.54,10.13 10.14,10.13 5.6,0 10.13,-4.55 10.13,-10.13l0 -211.13c0,-124.37 73.05,-225.54 162.84,-225.54l33.79 0c89.78,0 162.83,101.17 162.83,225.54l0 211.13c0,5.58 4.54,10.13 10.13,10.13 5.6,0 10.14,-4.55 10.14,-10.13l0 -211.13c0,-127.75 -72.97,-233.04 -165.9,-244.71z"/>
    <polygon class="fil39" points="3659.57,7193.07 3210.02,7193.07 3096.45,8477.38 4203.47,8477.38 4089.89,7193.07 "/>
    <polygon class="fil40" points="3797.98,7193.07 3348.43,7193.07 3235.26,8472.88 3778.76,8477.38 4341.89,8477.38 4228.31,7193.07 "/>
    <path class="fil38" d="M3788.37 7553.04c-155.85,0 -282.18,126.34 -282.18,282.16 0,155.87 126.33,282.2 282.18,282.2 155.85,0 282.19,-126.33 282.19,-282.2 0,-155.82 -126.34,-282.16 -282.19,-282.16z"/>
    <path class="fil29" d="M3860.83 7186.97l-517.97 0 -57.27 647.71c-0.3,3.33 2.18,6.29 5.52,6.57l0.54 0.04c3.12,0 5.77,-2.39 6.05,-5.53l56.3 -636.65 506.83 0c3.35,0 6.08,-2.72 6.08,-6.04 0,-3.38 -2.73,-6.1 -6.08,-6.1z"/>
    <path class="fil29" d="M3792.91 6771.49c-1.37,-0.7 -2.9,-1.12 -4.54,-1.12l-59.12 0c-1.65,0 -3.18,0.42 -4.55,1.12 -92.91,11.67 -165.89,116.96 -165.89,244.71l0 211.13c0,5.58 4.54,10.13 10.14,10.13 5.59,0 10.13,-4.55 10.13,-10.13l0 -211.13c0,-124.37 73.04,-225.54 162.83,-225.54l33.8 0c89.78,0 162.83,101.17 162.83,225.54l0 211.13c0,5.58 4.53,10.13 10.13,10.13 5.6,0 10.13,-4.55 10.13,-10.13l0 -211.13c0,-127.75 -72.97,-233.04 -165.89,-244.71z"/>
    <path class="fil29" d="M4176.08 8158.05l-187.38 140.54c-2.68,2.01 -3.23,5.81 -1.22,8.53 1.2,1.55 3.03,2.39 4.88,2.39 1.26,0 2.54,-0.38 3.64,-1.22l187.38 -140.49c2.68,-2.02 3.22,-5.87 1.21,-8.54 -2.01,-2.67 -5.82,-3.23 -8.51,-1.21z"/>
    <path class="fil29" d="M4253.43 8170.76l-129.73 102.7c-2.63,2.06 -3.08,5.9 -0.99,8.53 1.2,1.5 2.97,2.3 4.77,2.3 1.32,0 2.66,-0.42 3.77,-1.32l129.72 -102.65c2.64,-2.11 3.08,-5.92 1,-8.59 -2.09,-2.62 -5.92,-3.05 -8.54,-0.97z"/>
    <path class="fil39" d="M3899.52 7724.52c-64.1,-42.89 -103.19,27.94 -111.79,45.89 -9.96,-17.25 -54.4,-84.85 -115.01,-37.17 -81.39,64.08 46.5,223.09 123.98,270.44l0.05 0c73.6,-53.16 188.85,-221.55 102.77,-279.16z"/>
    <path class="fil29" d="M3210.55 7187.02c-3.31,-0.29 -6.29,2.15 -6.59,5.48l-114.01 1280.38 12.99 0 113.13 -1279.3c0.3,-3.33 -2.18,-6.28 -5.52,-6.56z"/>
    <g>
     <path class="fil25" d="M7074.4 6042.31l1.34 5.62c51,-11.81 134.02,-121.83 137.53,-126.52l-4.6 -3.47c-0.83,1.12 -85.25,113.02 -134.27,124.37z"/>
     <path class="fil41" d="M7251.68 5513.34c-40,65.48 -194.79,286.04 -194.79,286.04l-247.97 -170.91c-33.75,-23.26 -72.67,-37.98 -113.31,-42.9l-83.28 -10.03 -3.2 -3.09c-9.33,0 -28.07,-1.27 -50.01,-1.5 -1.31,18.47 -2.86,32.67 -5.11,32.81l0.24 4.08c0.04,1.03 -0.33,2.02 -0.94,2.72 0.84,18.84 2.44,42.8 2.53,62.86 0.05,14.3 -4.64,26.49 6.61,34.41 6.52,4.59 41.89,6.43 54.55,6.14l84.8 11.11 0 -0.47c61.74,68.11 303.7,330.26 367.17,321.82 72.92,-9.65 256.6,-279.91 256.6,-279.91 0,0 -24.48,-73.04 -25.7,-118.27 0,0 14.77,-27.75 36.69,-217.93 0,0 -44.8,17.53 -84.88,83.02z"/>
     <path class="fil42" d="M7519.21 6333.13c-125.26,-42.42 -232.37,90.24 -229.37,309.26 11.57,842.59 40.33,1586.4 43.59,1617.43l-2.69 154.32 198.57 2.72 2.17 -141.62c3.96,-43.64 144.38,-1590.8 148.66,-1718.21 -3.77,-67.79 -106.03,-201.3 -160.93,-223.9z"/>
     <polygon class="fil41" points="8128.66,8095.04 8247.72,8267.18 8410.63,8153.6 8303.71,7999.79 "/>
     <path class="fil7" d="M8436.19 8169.62c-2.49,-3.51 -7.41,-4.31 -10.93,-1.78l-140.66 100.98 -101.68 -21.19 -59.7 137.07 -22.49 16.13c-7.74,5.53 -11.12,15.89 -7.1,24.52 5.37,11.67 19.56,15 29.47,7.92l327.15 -234.86c2.43,-1.69 3.01,-5.06 1.28,-7.45l-15.34 -21.34z"/>
     <path class="fil4" d="M8311.76 8138.45c0,0 -26.84,77.87 -108.52,65.58l-81.42 138.72c0,0 -24.93,34.45 -21.16,58.41l323.52 -232.24 -41.48 -57.76c0,0 -46.59,-14.9 -70.94,27.29z"/>
     <path class="fil29" d="M8422.83 8167.94l-323.51 232.18c-9.46,6.85 -11.63,20.11 -4.79,29.58 3.58,5.07 9.27,8.25 15.47,8.77l0.25 -2.95c-5.37,-0.42 -10.22,-3.19 -13.36,-7.5 -5.81,-8.21 -3.96,-19.6 4.16,-25.46l323.51 -232.23c3.77,-2.67 9.01,-1.83 11.76,1.92l11.44 15.98 2.36 -1.73 -11.44 -15.94c-3.64,-5.1 -10.8,-6.28 -15.85,-2.62z"/>
     <path class="fil29" d="M8112.49 8354.75c-16.94,27.98 -13.87,46.13 -13.68,46.87l2.81 -0.56c0,-0.14 -2.94,-17.86 13.36,-44.81 16.68,-27.47 88.77,-150.25 89.54,-151.51l-2.56 -1.45c-0.76,1.21 -72.79,123.94 -89.47,151.46z"/>
     <path class="fil7" d="M7532.89 8437.02l-173.2 0 -70.23 -76.51 -128.4 76.51 -27.67 0c-9.52,0 -18.22,6.42 -20.07,15.79 -2.43,12.62 7.16,23.63 19.36,23.63l402.7 0c3.01,0 5.37,-2.39 5.37,-5.39l0 -26.2c0,-4.36 -3.52,-7.83 -7.86,-7.83z"/>
     <path class="fil4" d="M7457.8 8346.92c0,0 -67.17,47.63 -126.42,-10.04l-146.99 65.26c0,0 -40.39,13.45 -51.26,35.06l398.22 0 0 -71.06c0,0 -29.14,-39.29 -73.55,-19.22z"/>
     <polygon class="fil29" points="7529.95,8436.88 7532.9,8436.88 7532.9,8366.14 7529.95,8366.14 "/>
     <path class="fil29" d="M7388.9 8363.51l-0.38 2.91c0.06,0 3.45,0.47 9.07,0.47 12.91,0 37.39,-2.49 61.1,-18.75l-1.73 -2.44c-32.97,22.69 -67.74,17.86 -68.06,17.81z"/>
     <polygon class="fil29" points="7493.97,8421.5 7495.63,8423.94 7514.42,8411.28 7512.69,8408.85 "/>
     <polygon class="fil29" points="7480.48,8417.94 7482.14,8420.37 7500.87,8407.72 7499.27,8405.23 "/>
     <path class="fil29" d="M7530.84 8435.66l-398.16 0c-11.69,0 -21.21,9.52 -21.21,21.19 0,6.23 2.75,12.14 7.47,16.17l1.92 -2.25c-4.09,-3.47 -6.45,-8.58 -6.45,-13.92 0,-10.08 8.18,-18.24 18.27,-18.24l398.16 0c4.67,0 8.44,3.75 8.44,8.39l0 19.69 2.94 0 0 -19.69c0,-6.23 -5.11,-11.34 -11.38,-11.34z"/>
     <path class="fil29" d="M7169.82 8406.45c-30.1,12.85 -38.16,29.35 -38.48,30.05l2.62 1.27c0.13,-0.14 8.06,-16.27 37.01,-28.6 29.65,-12.65 159.71,-70.36 161.05,-70.93l-1.21 -2.71c-1.28,0.61 -131.4,58.32 -160.99,70.92z"/>
     <path class="fil41" d="M7812.69 6424.31c-628.05,164.03 -542.34,-80.68 -439.07,539.75 112.81,548.1 40.65,272.22 797.66,1192.67l161.63 -115.03c0,0 -480.79,-806.63 -482.26,-808.88 0.83,27.23 -37.64,-807.99 -37.96,-808.51z"/>
     <path class="fil10" d="M7853.52 6441.66c-45.88,-109.23 -95.8,-225.49 -129.41,-316.85 -29.02,-78.8 -45.89,-139.04 -37.45,-160.04 19.04,-47.58 159.96,-475.72 152.29,-490.96 -1.91,-3.84 -40.32,-45.89 -90.81,-47.85 -116.77,-4.6 -297.63,-4.18 -377.77,-4.13 -22.12,0.04 -42.89,10.12 -56.56,27.56 -36.63,46.56 -106.67,143.63 -122.33,222.11 -5.11,25.64 -6.9,52.78 -6.39,80.16 1.66,93.9 30.68,190.18 46.97,237.11 6.71,19.41 7.1,40.31 1.09,59.96 -24.41,80.53 -85.19,306.16 -68.32,508.39 2.43,29.63 4.86,60.99 7.29,93.24l0 0c17.89,241.05 32.72,531.45 32.72,531.45 0,0 603.69,55.23 853.2,-34.31 0,0 -92.74,-438.26 -191.8,-675.56 -4.22,-9.98 -8.43,-20.11 -12.72,-30.28z"/>
     <path class="fil41" d="M7387.62 5421.83c0,0 -51.38,127.74 -17.13,163.93 34.32,36.19 102.83,27.66 131.72,16.31 49.21,-19.45 171.09,-177.99 171.09,-177.99l-153 -7.17 -132.68 4.92z"/>
     <path class="fil41" d="M7730.43 5425.39c0,0 -68.95,162.57 -74.71,210.15 -5.68,47.63 9.4,170.36 84.94,174.58l48.76 -142.93 44.61 -190.79 -48.7 -6.66 -54.9 -44.35z"/>
     <path class="fil41" d="M8054.07 5903.82c0,0 -161.05,-384.3 -190.45,-434.22 -26.33,-44.68 -133.19,-44.21 -133.19,-44.21l-3.83 250.52c0,0 159.84,326.97 213.2,384.11 53.3,57.1 515.95,62.59 515.95,62.59l-24.54 -114.01 -377.14 -104.78z"/>
     <path class="fil25" d="M7262.87 5515.73c-37.96,52.08 -62.89,104.25 -74.2,155.12 -17.58,79.13 -1.47,180.85 19.49,249.67 3.77,12.19 7.22,23.01 10.29,32.53 14.19,44.39 20.71,64.64 11.89,94.88 -0.9,3.09 -2.11,7.13 -3.64,12.24 -17.32,55.83 -69.86,225.62 -65.89,481.76l5.75 -0.09c-3.96,-255.21 48.38,-424.39 65.57,-479.99 1.6,-5.11 2.88,-9.14 3.83,-12.32 9.21,-31.93 2.56,-52.7 -12.01,-98.21 -3.07,-9.52 -6.52,-20.35 -10.23,-32.49 -20.77,-68.11 -36.81,-168.72 -19.43,-246.72 11.12,-50.06 35.79,-101.54 73.18,-152.97 40.84,-55.97 54.32,-74.48 54.52,-74.62l-4.67 -3.42c-0.13,0.18 -13.68,18.65 -54.45,74.63z"/>
     <path class="fil25" d="M7731.26 5691.89c5.88,11.35 145.34,279.07 164,308.65l4.86 -3.1c-18.48,-29.34 -162.27,-305.46 -163.74,-308.22l-5.12 2.67z"/>
     <path class="fil43" d="M7172.12 6650.36l0 0c-2.43,-32.25 -4.86,-63.61 -7.29,-93.24 -0.45,-5.06 -0.77,-10.18 -1.15,-15.24l2.88 -0.04c-3.96,-255.21 48.38,-424.39 65.57,-479.99 1.6,-5.11 2.88,-9.14 3.83,-12.32 9.21,-31.93 2.56,-52.7 -12.01,-98.21 -3.07,-9.52 -6.52,-20.35 -10.23,-32.49 -13.61,-44.58 -25.18,-103.09 -26.65,-160.04 6.46,18.93 26.59,51.8 89.22,51.8 4.22,0 8.76,-0.14 13.49,-0.47 51.83,-3.61 97.07,-10.78 140.21,-10.78 40.84,0 79.83,6.42 120.73,28.41 78.99,42.37 -18.41,57.61 -68.83,57.61 -3.26,0 -6.33,-0.05 -9.14,-0.19 -15.08,-0.66 -35.02,-3.42 -55.15,-3.42 -41.48,0 -83.98,11.67 -87.43,77.3 -5.18,97.46 95.92,97.46 -10.55,246.2 -105.83,147.91 -147.05,441.92 -147.5,445.11z"/>
     <path class="fil44" d="M7163.68 6541.88c-12.65,-198.19 45.63,-414.63 69.47,-493.15 6.01,-19.65 5.62,-40.55 -1.09,-59.96 -16.29,-46.93 -45.31,-143.21 -46.97,-237.11 0.38,1.97 1.09,4.41 1.98,7.13 1.47,56.95 13.04,115.46 26.65,160.04 3.71,12.14 7.16,22.97 10.23,32.49 14.57,45.51 21.22,66.28 12.01,98.21 -0.95,3.18 -2.23,7.21 -3.83,12.32 -17.19,55.6 -69.53,224.78 -65.57,479.99l-2.88 0.04z"/>
     <path class="fil25" d="M7806.93 6318.13c-32.65,-78.84 -69.66,-168.24 -91.32,-225.57 -38.8,-102.95 -26.65,-126.06 -26.53,-126.2l0.2 -0.28 76.05 -219.43 -5.43 -1.88 -75.86 218.83c-1.86,3.6 -11.89,30.1 26.2,130.97 21.66,57.43 58.73,146.87 91.39,225.77 28.57,68.96 55.47,134.07 68.32,168.38 0.96,2.3 95.54,233.22 185.27,659.39l5.63 -1.17c-89.86,-426.74 -184.57,-658.12 -185.53,-660.33 -12.78,-34.31 -39.82,-99.47 -68.39,-168.48z"/>
     <path class="fil4" d="M6974.57 5923.19c-0.7,1.41 -2.11,3.09 -4.98,2.91l-346.59 -21.62 -93.78 -5.86 0 0 -330.78 -20.62c-2.86,-0.19 -4.13,-2.01 -4.64,-3.52 -0.7,-2.06 -0.28,-3.84 1.27,-5.29 48.89,-45.29 165.62,-121.89 398.93,-127.23 230.83,34.27 337.18,124.78 380,175.84 1.4,1.64 1.59,3.47 0.57,5.39zm-358.15 -217.51l7.03 -112.37 0.77 -13.08 0.89 -14.16c0,0 -13.04,-0.94 -20.07,-1.36 -37.94,-2.39 -66.97,-35.21 -64.58,-73.22 2.39,-37.97 35.21,-66.95 73.21,-64.6 36.37,2.29 64.49,32.58 64.62,68.54l0.25 -0.14 29.21 1.83c0.7,-52.14 -39.63,-96.39 -92.22,-99.67 -54.25,-3.37 -101.13,37.97 -104.5,92.21 -2.96,47.35 28.22,89.07 72.23,101.16l-6.98 112.32c-235.23,8.91 -356.23,89.26 -407.93,137.22 -13.22,12.23 -17.63,30.37 -11.58,47.34 6,16.83 21.38,28.46 39.19,29.53l330.77 20.63 37.83 2.39 33.98 2.11 21.97 1.36 346.65 21.61c17.83,1.13 34.51,-8.43 42.63,-24.42 8.05,-16.08 5.94,-34.64 -5.63,-48.43 -45.37,-54 -155.49,-148.74 -387.74,-186.8z"/>
     <path class="fil36" d="M6858 5778.29c0,0 -33.55,-33.85 -109.03,-46.41 0,0 -13.49,111.15 -128.97,117.57l-42.78 -2.67 -42.76 -2.67c-113.82,-20.72 -94.18,-131.5 -94.18,-131.5 -76.45,3.1 -113.95,32.53 -113.95,32.53 34.87,468.41 -4.32,485.85 -4.32,485.85 -186.01,313.52 -243.48,719.1 -243.48,719.1 155.73,39.57 386.65,63.66 592.85,66.06l56.63 2.44c60.58,-1.6 162.52,-8.53 212.05,-14.77 0,0 -9.91,-409.76 -155.49,-744 0,0 -19.37,-21.05 73.43,-481.53z"/>
     <path class="fil41" d="M6603.64 5607.04l-53.24 -5.48c0,0 -9.75,6.52 -10.5,16.92 -0.75,10.46 5.63,16.22 7.36,16.41l53.44 5.53c6.52,0.66 12.65,-5.44 13.74,-14.3 1.15,-9.65 -3.84,-18.33 -10.8,-19.08z"/>
     <path class="fil41" d="M6603.45 5641.87l-59 -7.68c0,0 -6.24,3.74 -7.12,14.15 -0.9,10.41 3.51,19.08 5.2,19.32l57.53 7.49c6.45,0.85 12.72,-5.1 13.87,-13.91 1.34,-9.66 -3.58,-18.47 -10.48,-19.37z"/>
     <path class="fil45" d="M6603.83 5603.9l-52.67 -5.44c-1.28,-0.14 -2.39,1.18 -2.49,2.91 -0.14,1.73 0.79,3.24 2.01,3.38l52.7 5.43c2.75,0.29 5.18,2.11 6.91,5.07 1.66,2.95 2.3,6.65 1.85,10.45 -0.83,7.03 -5.75,12.14 -11.19,11.58l-57.53 -6.24c-1.27,-0.14 -2.39,1.13 -2.53,2.86 -0.15,1.55 0.56,2.87 1.54,3.29l0.48 0.14 57.53 6.23c7.86,0.8 14.96,-6.66 16.24,-16.97 0.64,-5.53 -0.32,-10.97 -2.75,-15.28 -2.43,-4.31 -6.07,-6.99 -10.1,-7.41z"/>
     <path class="fil41" d="M6612.33 5575.54l-53.63 -6.47c-5.95,-0.75 -11.81,7.55 -12.42,13.59 -1.08,10.36 3.6,19.04 5.34,19.23l57.45 6.93c6.33,0.8 12.46,-4.92 13.87,-13.55 1.47,-9.84 -3.52,-18.89 -10.61,-19.73z"/>
     <path class="fil45" d="M6612.59 5572.4l-52.62 -6.38c-1.27,-0.13 -2.39,1.13 -2.53,2.87 -0.15,1.73 0.79,3.27 2.01,3.42l52.62 6.37c2.75,0.33 5.18,2.16 6.84,5.16 1.66,2.95 2.3,6.7 1.79,10.45 -0.89,7.08 -5.88,12.05 -11.25,11.44l-57.5 -7.27c-1.27,-0.14 -2.44,1.13 -2.58,2.87 -0.09,1.49 0.56,2.85 1.55,3.28l0.47 0.14 57.49 7.22c7.8,0.98 15.02,-6.38 16.36,-16.7 0.7,-5.52 -0.19,-10.96 -2.62,-15.32 -2.43,-4.32 -6.07,-7.08 -10.03,-7.55z"/>
     <path class="fil45" d="M6603.7 5638.73l-58.97 -7.69c-1.26,-0.14 -2.44,1.13 -2.58,2.86 -0.14,1.74 0.76,3.29 2.01,3.43l58.97 7.69c2.81,0.32 5.17,2.2 6.84,5.2 1.59,2.99 2.23,6.75 1.72,10.5 -0.96,6.98 -5.43,11.39 -10.86,10.68l-55.96 -8.38c-1.26,-0.19 -2.44,1.07 -2.58,2.81 -0.18,1.55 0.52,2.9 1.55,3.38l0.42 0.08 55.99 8.4c7.8,0.99 14.57,-5.72 15.98,-15.99 0.77,-5.48 -0.19,-10.92 -2.56,-15.32 -2.36,-4.37 -6,-7.13 -9.97,-7.65z"/>
     <path class="fil41" d="M6662.88 5590.54l-54.83 12.8c-7.22,1.69 -11.38,11.62 -8.63,21.66 2.3,8.77 9.33,13.97 15.79,12.47l59.56 -4.08c1.79,-0.38 4.86,-19.55 2.56,-30.15 -1.35,-6.18 -8.38,-14.11 -14.45,-12.7z"/>
     <path class="fil45" d="M6674.71 5630.16l-60.21 4.07c-5.49,1.31 -11.25,-3.33 -12.97,-10.5 -0.9,-3.84 -0.7,-7.78 0.7,-11.06 1.35,-3.28 3.65,-5.48 6.46,-6.1l53.75 -12.56c1.34,-0.33 2.04,-1.97 1.72,-3.75 -0.32,-1.78 -1.66,-3 -2.94,-2.67l-53.75 12.52c-4.09,0.94 -7.54,4.21 -9.53,8.95 -2.01,4.78 -2.35,10.54 -0.99,16.17 2.6,10.55 10.84,17.35 18.83,15.47l60.14 -4.08 0.51 -0.18c0.96,-0.56 1.47,-2.07 1.22,-3.61 -0.32,-1.79 -1.73,-2.95 -2.94,-2.67z"/>
     <path class="fil41" d="M6601.53 5676.89l-54.83 -8.02c0,0 -5.81,3.43 -6.75,13.09 -0.89,9.7 3.14,17.85 4.73,18.09l53.49 7.83c5.98,0.89 11.86,-4.6 13.01,-12.8 1.34,-8.95 -3.13,-17.2 -9.65,-18.19z"/>
     <path class="fil45" d="M6602.55 5671.69l-54.86 -8.06c-1.27,-0.19 -2.44,1.08 -2.59,2.81 -0.18,1.74 0.71,3.28 1.98,3.47l54.83 8.01c2.56,0.38 4.73,2.11 6.2,4.88 1.47,2.77 2.05,6.23 1.47,9.66 -0.89,6.42 -5.49,10.92 -10.48,10.17l-53.43 -7.83c-1.27,-0.19 -2.44,1.08 -2.62,2.81 -0.14,1.5 0.56,2.91 1.59,3.33l0.42 0.14 53.44 7.83c7.38,1.08 14.21,-5.67 15.62,-15.37 0.77,-5.21 -0.06,-10.37 -2.24,-14.54 -2.23,-4.13 -5.62,-6.8 -9.33,-7.31z"/>
     <path class="fil41" d="M8567.4 6003.02l0.19 -4.08c-2.3,-0.14 -3.77,-14.34 -5.11,-32.81 -21.99,0.23 -40.71,1.5 -49.98,1.54l-3.26 3.05 -83.27 10.08c-18.09,2.2 -44.42,3.42 -97.08,-0.65l99.7 138.94 75.99 -9.89c12.65,0.28 48.05,-1.59 54.51,-6.14 11.31,-7.97 6.65,-20.16 6.71,-34.41 0,-20.11 1.66,-44.07 2.49,-62.86 -0.64,-0.75 -1.02,-1.69 -0.89,-2.77z"/>
     <path class="fil4" d="M8927.79 6269.71c-0.51,1.46 -1.73,3.28 -4.6,3.47l-330.8 20.62 0 0 -93.76 5.86 -346.65 21.62c-2.87,0.18 -4.28,-1.46 -4.98,-2.86 -1.02,-1.97 -0.77,-3.8 0.57,-5.44 42.89,-51 149.17,-141.53 380.01,-175.79 233.27,5.29 350.1,81.89 398.93,127.18 1.6,1.5 1.98,3.27 1.28,5.34zm25.5 -34.17c-51.77,-47.96 -172.75,-128.31 -407.94,-137.22l-7.03 -112.32c44.03,-12.09 75.22,-53.81 72.28,-101.16 -3.45,-54.19 -50.23,-95.58 -104.49,-92.21 -52.6,3.28 -92.99,47.53 -92.29,99.67l29.21 -1.83 0.26 0.14c0.19,-35.96 28.24,-66.24 64.67,-68.49 37.96,-2.39 70.81,26.58 73.18,64.6 2.36,37.97 -26.59,70.78 -64.61,73.17 -7.03,0.43 -20.07,1.36 -20.07,1.36l0.89 14.16 0.83 13.13 6.97 112.32c-232.25,38.06 -342.37,132.8 -387.74,186.8 -11.57,13.79 -13.68,32.35 -5.56,48.48 8.05,15.94 24.73,25.5 42.56,24.42l346.65 -21.61 21.98 -1.41 33.94 -2.11 37.84 -2.34 330.79 -20.63c17.83,-1.12 33.24,-12.75 39.24,-29.58 6.08,-16.97 1.6,-35.11 -11.56,-47.34z"/>
     <path class="fil5" d="M8795.3 6140.32c0,0 -37.51,-29.43 -113.95,-32.53 0,0 19.56,110.78 -94.27,131.54l-42.75 2.67 -42.76 2.68c-115.48,-6.47 -128.97,-117.62 -128.97,-117.62 -75.48,12.57 -109.03,46.41 -109.03,46.41 92.8,460.48 73.5,481.53 73.5,481.53 -145.65,334.24 -155.56,744.05 -155.56,744.05 49.59,6.19 151.47,13.12 212.05,14.72l56.69 -2.44c206.18,-2.34 437.08,-26.44 592.83,-66.05 0,0 -57.45,-405.59 -243.5,-719.11 0,0 -39.17,-17.44 -4.28,-485.85z"/>
     <path class="fil5" d="M8752.74 6339.05l127.37 21.6c16.04,-57.61 48.06,-146.25 48.06,-146.25 -82.51,-65.83 -182.78,-96.62 -182.78,-96.62l7.35 221.27z"/>
     <path class="fil5" d="M8130.96 6261.27c0,0 40.26,85.23 61.73,141.06l124.69 -33.57 -13.67 -220.98c0,0 -96.89,40.18 -172.75,113.49z"/>
     <path class="fil3" d="M8891.87 7219.74c-14.83,0 -26.78,12 -26.78,26.76 0,14.77 11.95,26.77 26.78,26.77 14.76,0 26.71,-12 26.71,-26.77 0,-14.76 -11.95,-26.76 -26.71,-26.76z"/>
     <path class="fil3" d="M8484.7 7193.02c-14.76,0 -26.78,11.95 -26.78,26.72 0,14.81 12.02,26.76 26.78,26.76 14.76,0 26.71,-11.95 26.71,-26.76 0,-14.77 -11.95,-26.72 -26.71,-26.72z"/>
     <path class="fil3" d="M8718.67 6871.95c-14.76,0 -26.77,12 -26.77,26.77 0,14.77 12.01,26.76 26.77,26.76 14.77,0 26.72,-11.99 26.72,-26.76 0,-14.77 -11.95,-26.77 -26.72,-26.77z"/>
     <path class="fil3" d="M8403.34 6925.48c-14.76,0 -26.78,11.96 -26.78,26.72 0,14.82 12.02,26.78 26.78,26.78 14.77,0 26.78,-11.96 26.78,-26.78 0,-14.76 -12.01,-26.72 -26.78,-26.72z"/>
     <path class="fil3" d="M8448.59 6673.98c-14.76,0 -26.78,12.01 -26.78,26.78 0,14.76 12.02,26.76 26.78,26.76 14.76,0 26.71,-12 26.71,-26.76 0,-14.77 -11.95,-26.78 -26.71,-26.78z"/>
     <path class="fil3" d="M8678.92 6488.4c-14.76,0 -26.78,12 -26.78,26.76 0,14.77 12.02,26.77 26.78,26.77 14.77,0 26.72,-12 26.72,-26.77 0,-14.76 -11.95,-26.76 -26.72,-26.76z"/>
     <path class="fil3" d="M8525.47 6325.26c-14.76,0 -26.77,11.95 -26.77,26.77 0,14.76 12.01,26.72 26.77,26.72 14.77,0 26.78,-11.96 26.78,-26.72 0,-14.82 -12.01,-26.77 -26.78,-26.77z"/>
     <path class="fil3" d="M8302.11 6239.19c-14.76,0 -26.72,12 -26.72,26.77 0,14.77 11.96,26.76 26.72,26.76 14.76,0 26.78,-11.99 26.78,-26.76 0,-14.77 -12.02,-26.77 -26.78,-26.77z"/>
     <path class="fil3" d="M8759.13 6185.71c-14.76,0 -26.72,11.95 -26.72,26.72 0,14.81 11.96,26.76 26.72,26.76 14.76,0 26.78,-11.95 26.78,-26.76 0,-14.77 -12.02,-26.72 -26.78,-26.72z"/>
     <path class="fil41" d="M8571.23 5996.74l-53.3 5.53c-6.96,0.7 -11.95,9.38 -10.73,19.08 1.08,8.81 7.22,14.95 13.67,14.25l53.43 -5.53c1.73,-0.19 8.18,-5.95 7.35,-16.36 -0.7,-10.45 -10.42,-16.97 -10.42,-16.97z"/>
     <path class="fil41" d="M8577.18 6029.37l-58.99 7.68c-6.97,0.9 -11.83,9.71 -10.55,19.37 1.22,8.81 7.48,14.76 13.87,13.92l57.52 -7.46c1.73,-0.23 6.14,-8.91 5.24,-19.31 -0.89,-10.4 -7.09,-14.2 -7.09,-14.2z"/>
     <path class="fil45" d="M8578.2 6026.22l-57.58 6.24c-5.44,0.56 -10.36,-4.5 -11.19,-11.58 -0.45,-3.79 0.26,-7.5 1.86,-10.45 1.72,-2.96 4.15,-4.74 6.9,-5.02l52.72 -5.48c1.22,-0.14 2.18,-1.65 2.05,-3.38 -0.13,-1.73 -1.28,-3.05 -2.56,-2.91l-52.66 5.49c-3.96,0.38 -7.67,3.1 -10.1,7.36 -2.43,4.31 -3.38,9.75 -2.75,15.28 1.28,10.32 8.38,17.81 16.24,16.97l57.52 -6.23 0.51 -0.14c1.02,-0.42 1.66,-1.73 1.6,-3.24 -0.2,-1.74 -1.28,-3.05 -2.56,-2.91z"/>
     <path class="fil41" d="M8562.86 5964.25l-53.62 6.47c-7.09,0.84 -12.01,9.89 -10.54,19.79 1.34,8.62 7.47,14.29 13.8,13.54l57.52 -6.94c1.72,-0.23 6.33,-8.85 5.3,-19.26 -0.57,-6.05 -6.45,-14.3 -12.46,-13.6z"/>
     <path class="fil45" d="M8569.7 5993.7l-57.52 7.21c-5.43,0.66 -10.42,-4.36 -11.31,-11.39 -0.51,-3.79 0.19,-7.5 1.79,-10.5 1.66,-3 4.09,-4.83 6.84,-5.16l52.59 -6.37c1.28,-0.15 2.18,-1.69 2.05,-3.38 -0.13,-1.73 -1.28,-3.04 -2.56,-2.86l-52.6 6.33c-3.96,0.47 -7.6,3.24 -10.03,7.55 -2.36,4.36 -3.32,9.8 -2.62,15.33 1.41,10.31 8.56,17.67 16.36,16.73l57.52 -7.22 0.45 -0.13c1.02,-0.48 1.66,-1.79 1.53,-3.29 -0.13,-1.73 -1.28,-3.05 -2.49,-2.85z"/>
     <path class="fil45" d="M8518.51 6040.2l58.92 -7.69c1.22,-0.14 2.18,-1.69 1.98,-3.43 -0.12,-1.73 -1.27,-3 -2.49,-2.86l-58.99 7.69c-4.02,0.52 -7.6,3.33 -9.97,7.65 -2.43,4.4 -3.32,9.84 -2.55,15.37 1.4,10.27 8.11,16.97 15.97,15.94l55.99 -8.39 0.38 -0.09c1.09,-0.43 1.73,-1.83 1.6,-3.38 -0.19,-1.74 -1.41,-2.95 -2.62,-2.77l-55.99 8.34c-5.43,0.71 -9.9,-3.65 -10.86,-10.68 -0.51,-3.75 0.13,-7.5 1.73,-10.5 1.66,-3 4.09,-4.83 6.9,-5.2z"/>
     <path class="fil41" d="M8513.52 5998.52l-54.83 -12.75c-6.07,-1.45 -13.04,6.47 -14.45,12.66 -2.23,10.64 0.83,29.76 2.56,30.19l59.56 4.03c6.46,1.5 13.55,-3.66 15.85,-12.47 2.69,-10.04 -1.47,-19.97 -8.69,-21.66z"/>
     <path class="fil45" d="M8514.16 5995.29l-53.75 -12.52c-1.34,-0.28 -2.62,0.89 -2.94,2.67 -0.38,1.78 0.39,3.47 1.67,3.75l53.74 12.56c2.82,0.66 5.12,2.82 6.52,6.1 1.34,3.28 1.6,7.22 0.64,11.06 -1.72,7.22 -7.41,11.81 -12.97,10.55l-60.14 -4.08c-1.28,-0.32 -2.62,0.89 -3.01,2.67 -0.25,1.55 0.26,3.01 1.22,3.57l0.51 0.18 60.2 4.08c7.93,1.88 16.24,-4.92 18.79,-15.47 1.41,-5.62 1.03,-11.34 -1.02,-16.17 -1.98,-4.73 -5.43,-7.97 -9.46,-8.95z"/>
     <path class="fil41" d="M8574.88 6064.05l-54.84 8.07c-6.45,0.94 -10.99,9.19 -9.65,18.19 1.15,8.15 7.03,13.64 13.04,12.75l53.49 -7.83c1.54,-0.24 5.63,-8.39 4.73,-18.05 -0.96,-9.7 -6.77,-13.13 -6.77,-13.13z"/>
     <path class="fil45" d="M8575.96 6089.98l-53.49 7.83c-4.98,0.75 -9.59,-3.71 -10.48,-10.17 -0.51,-3.42 0,-6.85 1.47,-9.66 1.53,-2.77 3.71,-4.5 6.26,-4.88l54.84 -8.01c1.21,-0.19 2.11,-1.73 1.98,-3.47 -0.19,-1.73 -1.41,-3 -2.62,-2.81l-54.84 8.06c-3.77,0.51 -7.15,3.24 -9.33,7.31 -2.24,4.22 -3.07,9.38 -2.3,14.54 1.41,9.7 8.25,16.45 15.59,15.37l53.5 -7.83 0.45 -0.14c1.02,-0.42 1.66,-1.78 1.53,-3.33 -0.19,-1.73 -1.28,-3 -2.56,-2.81z"/>
     <path class="fil21" d="M7344.99 5078.21c-38.66,72.99 -1.02,323.6 -1.02,323.6l24.54 -2.81c0.26,-8.39 3.07,-32.63 3.07,-32.63l11.12 30.99 95.35 -10.97 8.76 -387.91c0,0 -103.15,6.75 -141.82,79.73z"/>
     <path class="fil23" d="M7545.93 5011.93c0,3.51 -150.19,104.35 -150.19,104.35 0,0 -53.62,192.57 50.23,219.95l1.6 135.15 143.86 -33.47 -2.75 -435.07c0,0 -42.75,5.58 -42.75,9.09z"/>
     <path class="fil24" d="M7441.43 5169.21c-0.64,0.46 -0.76,1.26 -0.32,1.87 0.13,0.14 10.29,14.49 6.65,29.77 -2.3,9.6 -9.52,17.67 -21.47,23.91l-1.03 0.51 0.39 1.12c0.25,0.66 6.39,15.9 17.89,18.29l0.26 0.04c0.64,0 1.15,-0.46 1.34,-1.08 0.13,-0.69 -0.38,-1.4 -1.09,-1.54 -8.5,-1.78 -13.86,-12.19 -15.46,-15.61 12.01,-6.51 19.36,-14.96 21.73,-25.04 3.9,-16.5 -6.59,-31.31 -7.1,-31.92 -0.38,-0.61 -1.28,-0.75 -1.79,-0.32z"/>
     <path class="fil24" d="M7446.23 5377.48c54.38,-16.83 112.09,-73.08 112.09,-73.08 -42.62,27.28 -112.35,31.83 -112.35,31.83l0.26 41.25z"/>
     <path class="fil29" d="M7484 5179.85c-4.03,0.04 -7.29,3.32 -7.29,7.4 0.07,4.03 3.39,7.32 7.42,7.32 4.09,-0.05 7.35,-3.38 7.28,-7.41 0,-4.08 -3.32,-7.31 -7.41,-7.31z"/>
     <path class="fil29" d="M7409.73 5182.7c-4.09,0.05 -7.35,3.33 -7.35,7.41 0.07,4.08 3.33,7.31 7.42,7.31 4.09,-0.04 7.35,-3.32 7.35,-7.41 -0.07,-4.02 -3.33,-7.31 -7.42,-7.31z"/>
     <path class="fil27" d="M7453.19 5261.84c0,0 14.83,16.5 32.41,8.86 17.51,-7.69 15.46,-29.82 15.46,-29.82 -0.83,0.19 -47.87,20.96 -47.87,20.96z"/>
     <path class="fil21" d="M7588.68 5002.84c-52.79,-22.74 -153.38,-8.91 -144.56,41.95 0,0 19.87,89.44 104.43,123.94 84.61,34.51 36.55,147.81 36.55,147.81l79.76 -120.75c0,0 -3.7,-161.69 -76.18,-192.95z"/>
     <path class="fil21" d="M7506.94 5156.03c-0.83,-0.51 -21.22,-12.28 -42.31,-4.78 -1.4,0.47 -2.11,1.97 -1.6,3.33 0.45,1.36 1.99,2.06 3.33,1.59 18.72,-6.66 37.71,4.27 37.9,4.36 0.83,0.47 1.72,0.47 2.43,0.09 0.51,-0.18 0.89,-0.56 1.21,-1.03 0.7,-1.22 0.32,-2.85 -0.96,-3.56z"/>
     <path class="fil21" d="M7432.49 5153.55c-22.18,-3.01 -39.76,12.75 -40.46,13.4 -1.09,0.99 -1.15,2.63 -0.19,3.71 0.64,0.66 1.47,0.94 2.3,0.84 0.51,-0.1 1.02,-0.28 1.41,-0.66 0.19,-0.13 16.48,-14.76 36.23,-12.09 1.41,0.19 2.75,-0.8 2.94,-2.25 0.2,-1.41 -0.83,-2.72 -2.23,-2.95z"/>
     <polygon class="fil23" points="7459.58,5084.69 7485.85,5045.4 7450.45,5079.29 "/>
     <path class="fil21" d="M7564.78 4995.57l5.69 178.6c0,0 19.81,77.63 12.01,193.56l-2.23 21.84c0,0 36.36,-2.57 77.9,-11.29 2.81,-17.11 7.54,-44.86 7.54,-44.86l11.51 40.45c9.2,-2.29 18.4,-4.92 27.29,-7.92 0,0 -0.77,-189.39 -17.71,-263.45 -20.83,-91.13 -122,-106.93 -122,-106.93z"/>
     <path class="fil23" d="M7598.65 5164.66c-22.75,0.14 -41.09,18.7 -40.96,41.43 0.19,22.79 18.72,41.12 41.54,40.98 22.68,-0.19 41.03,-18.75 40.9,-41.49 -0.13,-22.74 -18.73,-41.07 -41.48,-40.92z"/>
     <path class="fil24" d="M7611.69 5199.16c-8.95,-5.44 -17,-2.16 -21.41,0.61 1.79,-4.36 4.47,-7.59 8.05,-9.61 7.99,-4.46 17.96,-1.31 18.15,-1.27 0.64,0.24 1.41,-0.14 1.6,-0.84 0.26,-0.71 -0.13,-1.45 -0.83,-1.69 -0.45,-0.14 -11.18,-3.52 -20.2,1.5 -5.24,2.91 -8.75,8.02 -10.48,15.19l-1.15 4.59 3.33 -3.32c0.38,-0.42 10.03,-9.95 21.53,-2.91 6.33,3.89 6.97,11.06 5.56,16.03 -1.47,5.2 -6,11.21 -13.93,11.16 -0.77,0 -1.34,0.6 -1.34,1.31 0,0.75 0.57,1.31 1.28,1.36l0.25 0c8.7,-0.09 14.38,-6.61 16.3,-13.12 2.17,-7.7 -0.45,-15.15 -6.71,-18.99z"/>
     <path class="fil3" d="M6336.26 6174.03l-10.54 51.66c217.23,108.57 458.85,34.13 458.85,34.13l0.96 -58.74c-174.73,22.45 -449.27,-27.05 -449.27,-27.05z"/>
    </g>
   </g>
  </g>
  <polygon class="fil46" points="-0,0 10000,0 10000,8483.59 -0,8483.59 "/>
 </g>
</svg>
