<?xml version="1.0" encoding="UTF-8"?>
<!DOCTYPE svg PUBLIC "-//W3C//DTD SVG 1.1//EN" "http://www.w3.org/Graphics/SVG/1.1/DTD/svg11.dtd">
<!-- Creator: CorelDRAW 2018 (64 Bit Versão de avaliação) -->
<svg xmlns="http://www.w3.org/2000/svg" xml:space="preserve" width="24.113mm" height="24.113mm" version="1.1" shape-rendering="geometricPrecision" text-rendering="geometricPrecision" image-rendering="optimizeQuality" fill-rule="evenodd" clip-rule="evenodd"
viewBox="0 0 2411.3 2411.3"
 xmlns:xlink="http://www.w3.org/1999/xlink">
 <g id="Camada_x0020_1">
  <metadata id="CorelCorpID_0Corel-Layer"/>
  <path fill="#6699FF" d="M1205.65 0c665.84,0 1205.65,539.81 1205.65,1205.65 0,665.84 -539.81,1205.65 -1205.65,1205.65 -665.84,0 -1205.65,-539.81 -1205.65,-1205.65 0,-665.84 539.81,-1205.65 1205.65,-1205.65zm575.23 1125.36c3.73,24.95 1.29,211.19 1.29,253.06 0,139.5 19.36,187.11 -68.39,186.82l-1016.25 0c-48.75,0.29 -68.53,-11.33 -68.53,-61.36 0,-52.91 -2.44,-352.71 1.29,-378.37l1150.45 0 0.14 -0.15zm-1151.75 -173.77c-0.14,-68.25 -9.61,-105.81 68.39,-105.52l850.22 0c238.15,0 236.86,-19.5 231.98,105.38l-1150.59 0 0 0.14zm-55.34 592.71c24.23,95.06 122.73,79.43 184.67,79.43l917.89 0c43.44,0 83.88,5.02 116.28,-17.21 64.23,-43.87 47.89,-121.58 47.89,-214.63 0,-71.69 5.02,-489.2 -3.01,-523.9 -22.65,-96.21 -124.45,-80.58 -184.96,-80.58l-917.89 0c-43.59,0 -83.59,-5.16 -116.28,17.21 -64.23,43.87 -47.89,121.58 -47.89,214.63 0,70.11 -5.02,492.5 3.3,525.04l0 0.01zm226.68 -162.58c24.37,147.53 252.2,118 231.55,-36.7 -7.89,-58.93 -64.95,-109.54 -134.63,-98.93 -58.21,8.89 -108.54,65.38 -96.92,135.49l0 0.14zm29.68 88.03c-23.66,-26.81 -51.04,-50.33 -50.76,-108.39 0.29,-70.68 47.74,-99.22 49.18,-106.24 0.29,-1.15 1,-1.43 1.29,-2.15 -37.99,-19.07 -85.74,-3.87 -112.55,16.34 -22.37,16.92 -46.31,50.47 -45.16,95.49 2.44,101.94 116.42,132.77 158,104.95z"/>
 </g>
</svg>
