<?xml version="1.0" encoding="UTF-8"?>
<!DOCTYPE svg PUBLIC "-//W3C//DTD SVG 1.1//EN" "http://www.w3.org/Graphics/SVG/1.1/DTD/svg11.dtd">
<!-- Creator: CorelDRAW 2018 (64 Bit Versão de avaliação) -->
<svg xmlns="http://www.w3.org/2000/svg" xml:space="preserve" width="100mm" height="84.84mm" version="1.1" style="shape-rendering:geometricPrecision; text-rendering:geometricPrecision; image-rendering:optimizeQuality; fill-rule:evenodd; clip-rule:evenodd"
viewBox="0 0 10000 8484"
 xmlns:xlink="http://www.w3.org/1999/xlink">
 <defs>
  <style type="text/css">
   <![CDATA[
    .fil66 {fill:none}
    .fil0 {fill:white}
    .fil46 {fill:#7D97F4;fill-rule:nonzero}
    .fil2 {fill:#91B3FA;fill-rule:nonzero}
    .fil3 {fill:#BDD0FB;fill-rule:nonzero}
    .fil4 {fill:white;fill-rule:nonzero}
    .fil52 {fill:url(#id1)}
    .fil5 {fill:url(#id2)}
    .fil9 {fill:url(#id3)}
    .fil10 {fill:url(#id4)}
    .fil16 {fill:url(#id5)}
    .fil11 {fill:url(#id6)}
    .fil13 {fill:url(#id7)}
    .fil12 {fill:url(#id8)}
    .fil15 {fill:url(#id9)}
    .fil14 {fill:url(#id10)}
    .fil44 {fill:url(#id11)}
    .fil7 {fill:url(#id12)}
    .fil6 {fill:url(#id13)}
    .fil8 {fill:url(#id14)}
    .fil61 {fill:url(#id15)}
    .fil31 {fill:url(#id16)}
    .fil57 {fill:url(#id17)}
    .fil42 {fill:url(#id18)}
    .fil45 {fill:url(#id19)}
    .fil26 {fill:url(#id20)}
    .fil48 {fill:url(#id21)}
    .fil38 {fill:url(#id22)}
    .fil24 {fill:url(#id23)}
    .fil43 {fill:url(#id24)}
    .fil49 {fill:url(#id25)}
    .fil34 {fill:url(#id26)}
    .fil53 {fill:url(#id27)}
    .fil37 {fill:url(#id28)}
    .fil21 {fill:url(#id29)}
    .fil29 {fill:url(#id30)}
    .fil32 {fill:url(#id31)}
    .fil64 {fill:url(#id32)}
    .fil60 {fill:url(#id33)}
    .fil39 {fill:url(#id34)}
    .fil18 {fill:url(#id35)}
    .fil63 {fill:url(#id36)}
    .fil17 {fill:url(#id37)}
    .fil30 {fill:url(#id38)}
    .fil59 {fill:url(#id39)}
    .fil35 {fill:url(#id40)}
    .fil62 {fill:url(#id41)}
    .fil54 {fill:url(#id42)}
    .fil56 {fill:url(#id43)}
    .fil25 {fill:url(#id44)}
    .fil55 {fill:url(#id45)}
    .fil58 {fill:url(#id46)}
    .fil27 {fill:url(#id47)}
    .fil47 {fill:url(#id48)}
    .fil40 {fill:url(#id49)}
    .fil22 {fill:url(#id50)}
    .fil20 {fill:url(#id51)}
    .fil36 {fill:url(#id52)}
    .fil51 {fill:url(#id53)}
    .fil50 {fill:url(#id54)}
    .fil33 {fill:url(#id55)}
    .fil65 {fill:url(#id56)}
    .fil23 {fill:url(#id57)}
    .fil19 {fill:url(#id58)}
    .fil28 {fill:url(#id59)}
    .fil1 {fill:url(#id60)}
    .fil41 {fill:url(#id61)}
   ]]>
  </style>
   <clipPath id="id0">
    <path d="M-0 0.23l10000 0 0 8483.59 -10000 0 0 -8483.59z"/>
   </clipPath>
  <linearGradient id="id1" gradientUnits="userSpaceOnUse" x1="9252.95" y1="6885.2" x2="9376.37" y2="6885.2">
   <stop offset="0" style="stop-opacity:1; stop-color:#020039"/>
   <stop offset="1" style="stop-opacity:1; stop-color:#090056"/>
  </linearGradient>
  <linearGradient id="id2" gradientUnits="userSpaceOnUse" x1="-266.67" y1="6826.22" x2="1347.98" y2="6826.22">
   <stop offset="0" style="stop-opacity:1; stop-color:#DAE3FE"/>
   <stop offset="1" style="stop-opacity:1; stop-color:#E9EFFD"/>
  </linearGradient>
  <linearGradient id="id3" gradientUnits="userSpaceOnUse" xlink:href="#id2" x1="-52.06" y1="6803.81" x2="438.54" y2="6803.81">
  </linearGradient>
  <linearGradient id="id4" gradientUnits="userSpaceOnUse" xlink:href="#id2" x1="538.76" y1="7490.55" x2="1041.67" y2="7490.55">
  </linearGradient>
  <linearGradient id="id5" gradientUnits="userSpaceOnUse" xlink:href="#id2" x1="8958.25" y1="7441.8" x2="9461.15" y2="7441.8">
  </linearGradient>
  <linearGradient id="id6" gradientUnits="userSpaceOnUse" xlink:href="#id2" x1="8651.99" y1="6777.43" x2="10266.69" y2="6777.43">
  </linearGradient>
  <linearGradient id="id7" gradientUnits="userSpaceOnUse" xlink:href="#id2" x1="10015.14" y1="6177.25" x2="10385.9" y2="6177.25">
  </linearGradient>
  <linearGradient id="id8" gradientUnits="userSpaceOnUse" xlink:href="#id2" x1="9955.95" y1="5998.49" x2="10015.79" y2="5998.49">
  </linearGradient>
  <linearGradient id="id9" gradientUnits="userSpaceOnUse" xlink:href="#id2" x1="9561.41" y1="6755.12" x2="10052.03" y2="6755.12">
  </linearGradient>
  <linearGradient id="id10" gradientUnits="userSpaceOnUse" xlink:href="#id2" x1="9523.47" y1="6531.4" x2="9568.15" y2="6531.4">
  </linearGradient>
  <linearGradient id="id11" gradientUnits="userSpaceOnUse" x1="4528.7" y1="3092.75" x2="4544.08" y2="3858.03">
   <stop offset="0" style="stop-opacity:1; stop-color:#09005D"/>
   <stop offset="1" style="stop-opacity:1; stop-color:#1A0F91"/>
  </linearGradient>
  <linearGradient id="id12" gradientUnits="userSpaceOnUse" xlink:href="#id2" x1="-385.88" y1="6225.98" x2="-15.12" y2="6225.98">
  </linearGradient>
  <linearGradient id="id13" gradientUnits="userSpaceOnUse" xlink:href="#id2" x1="-15.81" y1="6047.2" x2="44.04" y2="6047.2">
  </linearGradient>
  <linearGradient id="id14" gradientUnits="userSpaceOnUse" xlink:href="#id2" x1="431.83" y1="6580.19" x2="476.51" y2="6580.19">
  </linearGradient>
  <linearGradient id="id15" gradientUnits="userSpaceOnUse" x1="16785.92" y1="-20289.4" x2="16703.35" y2="-20025.71">
   <stop offset="0" style="stop-opacity:1; stop-color:#FF928E"/>
   <stop offset="1" style="stop-opacity:1; stop-color:#FEB3B1"/>
  </linearGradient>
  <linearGradient id="id16" gradientUnits="userSpaceOnUse" xlink:href="#id11" x1="2936.62" y1="2309.07" x2="2669.96" y2="2974.75">
  </linearGradient>
  <linearGradient id="id17" gradientUnits="userSpaceOnUse" xlink:href="#id15" x1="24223.6" y1="29848.86" x2="22563.36" y2="27455.97">
  </linearGradient>
  <linearGradient id="id18" gradientUnits="userSpaceOnUse" x1="4182.14" y1="-102.76" x2="3952.56" y2="1940.08">
   <stop offset="0" style="stop-opacity:1; stop-color:#E1473D"/>
   <stop offset="1" style="stop-opacity:1; stop-color:#E9605A"/>
  </linearGradient>
  <linearGradient id="id19" gradientUnits="userSpaceOnUse" xlink:href="#id11" x1="5361.52" y1="3473.39" x2="4914.18" y2="3042.63">
  </linearGradient>
  <linearGradient id="id20" gradientUnits="userSpaceOnUse" xlink:href="#id15" x1="4398.04" y1="-2890.11" x2="4281.8" y2="-2559.64">
  </linearGradient>
  <linearGradient id="id21" gradientUnits="userSpaceOnUse" xlink:href="#id15" x1="12226.48" y1="16352.59" x2="12342.74" y2="16688.56">
  </linearGradient>
  <linearGradient id="id22" gradientUnits="userSpaceOnUse" xlink:href="#id11" x1="4174.91" y1="2166.41" x2="4249.7" y2="2627.35">
  </linearGradient>
  <linearGradient id="id23" gradientUnits="userSpaceOnUse" x1="2307.92" y1="2433.64" x2="2014.13" y2="3160.12">
   <stop offset="0" style="stop-opacity:1; stop-color:#4042E2"/>
   <stop offset="1" style="stop-opacity:1; stop-color:#4F52FF"/>
  </linearGradient>
  <linearGradient id="id24" gradientUnits="userSpaceOnUse" xlink:href="#id15" x1="6235.95" y1="-2202.2" x2="6119.72" y2="-1875.25">
  </linearGradient>
  <linearGradient id="id25" gradientUnits="userSpaceOnUse" xlink:href="#id11" x1="9010.9" y1="4311.23" x2="8980.67" y2="4902.65">
  </linearGradient>
  <linearGradient id="id26" gradientUnits="userSpaceOnUse" x1="4539.74" y1="2686.93" x2="3000.03" y2="3912.63">
   <stop offset="0" style="stop-opacity:1; stop-color:#FE7062"/>
   <stop offset="1" style="stop-opacity:1; stop-color:#FF928E"/>
  </linearGradient>
  <linearGradient id="id27" gradientUnits="userSpaceOnUse" xlink:href="#id26" x1="8514.63" y1="5287.08" x2="8922.28" y2="6710.07">
  </linearGradient>
  <linearGradient id="id28" gradientUnits="userSpaceOnUse" xlink:href="#id15" x1="5973.1" y1="-2104.13" x2="5856.87" y2="-1791.8">
  </linearGradient>
  <linearGradient id="id29" gradientUnits="userSpaceOnUse" x1="5140.77" y1="4568.93" x2="1993.42" y2="5766.61">
   <stop offset="0" style="stop-opacity:1; stop-color:#FFE2E0"/>
   <stop offset="1" style="stop-opacity:1; stop-color:#FFE9E8"/>
  </linearGradient>
  <linearGradient id="id30" gradientUnits="userSpaceOnUse" xlink:href="#id15" x1="3991.94" y1="-3076.28" x2="3877.19" y2="-2742.27">
  </linearGradient>
  <linearGradient id="id31" gradientUnits="userSpaceOnUse" xlink:href="#id15" x1="4523.18" y1="2362.78" x2="3984.77" y2="3323.12">
  </linearGradient>
  <linearGradient id="id32" gradientUnits="userSpaceOnUse" x1="8786.1" y1="1566.84" x2="6591.3" y2="5853.95">
   <stop offset="0" style="stop-opacity:1; stop-color:#FFC1BB"/>
   <stop offset="1" style="stop-opacity:1; stop-color:#FFCFCE"/>
  </linearGradient>
  <linearGradient id="id33" gradientUnits="userSpaceOnUse" xlink:href="#id11" x1="8763.82" y1="5376.06" x2="8456.13" y2="5157.1">
  </linearGradient>
  <linearGradient id="id34" gradientUnits="userSpaceOnUse" xlink:href="#id15" x1="5455.16" y1="-1630.1" x2="5366.78" y2="-1350.28">
  </linearGradient>
  <linearGradient id="id35" gradientUnits="userSpaceOnUse" xlink:href="#id23" x1="4896.32" y1="9627.82" x2="4752.77" y2="16519.94">
  </linearGradient>
  <linearGradient id="id36" gradientUnits="userSpaceOnUse" xlink:href="#id29" x1="8786.11" y1="1566.89" x2="6591.31" y2="5853.93">
  </linearGradient>
  <linearGradient id="id37" gradientUnits="userSpaceOnUse" xlink:href="#id2" x1="8914.5" y1="7194.43" x2="8960.51" y2="7194.43">
  </linearGradient>
  <linearGradient id="id38" gradientUnits="userSpaceOnUse" xlink:href="#id11" x1="2623.6" y1="2118.62" x2="2370.68" y2="3609.39">
  </linearGradient>
  <linearGradient id="id39" gradientUnits="userSpaceOnUse" xlink:href="#id15" x1="10731.93" y1="-127.03" x2="10615.69" y2="172.47">
  </linearGradient>
  <linearGradient id="id40" gradientUnits="userSpaceOnUse" xlink:href="#id15" x1="4208.61" y1="2329.78" x2="4000.79" y2="2902.29">
  </linearGradient>
  <linearGradient id="id41" gradientUnits="userSpaceOnUse" xlink:href="#id26" x1="8786.1" y1="1566.89" x2="6591.3" y2="5853.92">
  </linearGradient>
  <linearGradient id="id42" gradientUnits="userSpaceOnUse" xlink:href="#id15" x1="10330.06" y1="-987.35" x2="10213.82" y2="-648.89">
  </linearGradient>
  <linearGradient id="id43" gradientUnits="userSpaceOnUse" xlink:href="#id15" x1="24428.69" y1="31639.33" x2="22767.02" y2="29054.63">
  </linearGradient>
  <linearGradient id="id44" gradientUnits="userSpaceOnUse" xlink:href="#id11" x1="2611.75" y1="1914.07" x2="2489.24" y2="2132.19">
  </linearGradient>
  <linearGradient id="id45" gradientUnits="userSpaceOnUse" xlink:href="#id26" x1="9822.66" y1="4580.75" x2="9470.52" y2="5166.14">
  </linearGradient>
  <linearGradient id="id46" gradientUnits="userSpaceOnUse" xlink:href="#id15" x1="12450.45" y1="16094.68" x2="12566.69" y2="16425.73">
  </linearGradient>
  <linearGradient id="id47" gradientUnits="userSpaceOnUse" xlink:href="#id11" x1="1707.81" y1="2083.55" x2="1738.57" y2="2349.81">
  </linearGradient>
  <linearGradient id="id48" gradientUnits="userSpaceOnUse" xlink:href="#id11" x1="9584.68" y1="4340.65" x2="9554.25" y2="4932.14">
  </linearGradient>
  <linearGradient id="id49" gradientUnits="userSpaceOnUse" xlink:href="#id26" x1="4398.14" y1="2621.63" x2="3095.33" y2="3836.72">
  </linearGradient>
  <linearGradient id="id50" gradientUnits="userSpaceOnUse" x1="5545.87" y1="-638.52" x2="5156.14" y2="3791.86">
   <stop offset="0" style="stop-opacity:1; stop-color:#7186F0"/>
   <stop offset="1" style="stop-opacity:1; stop-color:#778CFC"/>
  </linearGradient>
  <linearGradient id="id51" gradientUnits="userSpaceOnUse" xlink:href="#id26" x1="5140.79" y1="4568.95" x2="1993.4" y2="5766.62">
  </linearGradient>
  <linearGradient id="id52" gradientUnits="userSpaceOnUse" xlink:href="#id15" x1="6526.73" y1="-2292.77" x2="6410.5" y2="-1954.36">
  </linearGradient>
  <linearGradient id="id53" gradientUnits="userSpaceOnUse" xlink:href="#id11" x1="10139.29" y1="5321.05" x2="9717.34" y2="6307.35">
  </linearGradient>
  <linearGradient id="id54" gradientUnits="userSpaceOnUse" xlink:href="#id15" x1="11751.19" y1="16451.99" x2="11865.51" y2="16786.11">
  </linearGradient>
  <linearGradient id="id55" gradientUnits="userSpaceOnUse" xlink:href="#id15" x1="4653.93" y1="2430.36" x2="4069.4" y2="3422.64">
  </linearGradient>
  <linearGradient id="id56" gradientUnits="userSpaceOnUse" x1="8786.11" y1="1566.9" x2="6591.29" y2="5853.93">
   <stop offset="0" style="stop-opacity:1; stop-color:#FFCFCB"/>
   <stop offset="1" style="stop-opacity:1; stop-color:#FFDBD9"/>
  </linearGradient>
  <linearGradient id="id57" gradientUnits="userSpaceOnUse" xlink:href="#id50" x1="5545.89" y1="-639.22" x2="5156.15" y2="3791.54">
  </linearGradient>
  <linearGradient id="id58" gradientUnits="userSpaceOnUse" xlink:href="#id23" x1="5544.67" y1="-639" x2="5155.04" y2="3791.63">
  </linearGradient>
  <linearGradient id="id59" gradientUnits="userSpaceOnUse" xlink:href="#id23" x1="1892.83" y1="2839.23" x2="2430.8" y2="3671.43">
  </linearGradient>
  <linearGradient id="id60" gradientUnits="userSpaceOnUse" xlink:href="#id2" x1="-1155.22" y1="9994.16" x2="9977.9" y2="1571.69">
  </linearGradient>
  <linearGradient id="id61" gradientUnits="userSpaceOnUse" xlink:href="#id18" x1="4270.88" y1="-90.8" x2="4041.47" y2="1950.66">
  </linearGradient>
 </defs>
 <g id="Camada_x0020_1">
  <metadata id="CorelCorpID_0Corel-Layer"/>
  <polygon class="fil0" points="-0,0.23 10000,0.23 10000,8483.82 -0,8483.82 "/>
  <g style="clip-path:url(#id0)">
   <g id="_2369853218704">
    <g>
     <path id="1" class="fil1" d="M8484.01 8225.14c-65.49,0 -132.46,-1.18 -200.63,-2.46 -133.06,-2.56 -265.52,-9.95 -397.63,-21.08l952.55 0c78.03,0 142.06,-63.84 142.06,-141.84l14.1 -597.52 91.19 -3859.22c2.33,-97.78 -35.65,-192.26 -104.95,-261.35 -67.22,-67.11 -158.32,-104.49 -252.97,-104.49 -3.03,0 -5.97,0.03 -9,0.11l-7499.27 194.1c-6.06,-0.41 -12.01,-0.61 -17.88,-0.61 -156.95,0 -242.38,144.17 -242.38,219.37l55.18 3812.09 8.67 597.52c0,39.18 16.13,74.76 42.06,100.51 -225.49,35.74 -450.03,50.25 -624.48,50.25 -19.98,0 -39.38,-0.2 -57.97,-0.56 -632.24,-12.62 -1228.64,-658.29 -1083.92,-1410.98 120.59,-627.17 625.18,-1009.82 877.09,-1554.83 236.33,-511.36 32.6,-1021.41 180.7,-1542.45 182.71,-642.75 681.77,-1225.43 1253.16,-1386.03 116.08,-32.62 238.51,-49.75 367.69,-49.75 40.43,0 81.55,1.68 123.31,5.09 568.79,46.42 1105.55,324.56 1679.77,341.81 21.69,0.65 43.23,0.97 64.67,0.97 1020.64,-0.01 1757.65,-727.61 2681.62,-1101.19 340.76,-137.77 703.29,-214.02 1061.99,-214.02 634.86,0 1257.69,239 1725.14,798.97 302.63,362.57 119.22,597.41 135.22,1026.34 24.83,660.11 667.56,888.28 974.87,1325.15 644.64,916.33 -393.3,2329.78 -759.44,3123.14 -270.45,585.99 -686.6,652.96 -1180.52,652.96z"/>
     <path class="fil2" d="M841.78 4978.64c-145.33,-147.3 -382.55,-148.88 -529.84,-3.54 -147.29,145.33 -148.88,382.55 -3.54,529.84l0.03 0.03c80.79,81.86 122.51,194.49 114.66,309.26 -9.03,131.89 36.4,266.92 136.58,368.39l0.02 0.07c97.79,99.06 143.84,238.04 124.81,375.93 -22.25,161.28 28.04,330.76 151.24,455.63 210.48,213.33 554.04,215.58 767.35,5.13 213.32,-210.51 215.61,-554.04 5.13,-767.37 -11.26,-11.38 -22.9,-22.2 -34.87,-32.41 -117.29,-99.84 -188.21,-243.68 -196.1,-397.52 -5.79,-112.87 -51.42,-224.13 -137.07,-310.93 -37.62,-38.13 -80.08,-68.61 -125.43,-91.41 -91.03,-45.78 -154.09,-133.03 -169.18,-233.8 -11.34,-75.71 -45.91,-148.65 -103.79,-207.3z"/>
     <path class="fil3" d="M599.31 5231.73c85.93,135.22 162.26,275.8 234.49,418.45 17.92,35.74 36.1,71.34 53.04,107.54l25.84 54.15 12.92 27.02 12.39 27.33 49.39 109.28 47.02 110.31c61.11,147.74 119.17,296.87 169.65,448.66l19.35 56.76c3.17,9.49 6.56,18.87 9.57,28.41l8.87 28.67 35.52 114.56c12.35,38.05 22.38,76.77 33.22,115.28l32.11 115.58c1.36,4.93 -1.51,10.01 -6.4,11.34 -4.89,1.38 -9.96,-1.49 -11.32,-6.41l-0.01 0 -0.08 -0.31 -31.53 -115.38c-10.65,-38.46 -20.49,-77.12 -32.64,-115.12l-34.94 -114.46 -8.74 -28.57c-2.96,-9.53 -6.3,-18.92 -9.42,-28.4l-19.06 -56.72c-49.72,-151.64 -107.02,-300.66 -167.37,-448.4l-46.45 -110.3 -48.84 -109.23 -12.25 -27.34 -12.77 -27.02 -25.58 -54.16c-16.75,-36.2 -34.73,-71.81 -52.47,-107.55 -71.45,-142.61 -147.19,-283.48 -232.08,-418.33l-0.1 -0.15c-1.51,-2.4 -0.78,-5.57 1.61,-7.07 2.4,-1.51 5.56,-0.81 7.06,1.58z"/>
     <path class="fil3" d="M742.51 5544.25c-114.79,0 -296.47,-104.61 -304.65,-109.36 -2.45,-1.42 -3.28,-4.56 -1.86,-7.01 1.41,-2.44 4.56,-3.28 7.01,-1.87 2.1,1.22 212.09,122.15 320.31,106.59 2.81,-0.38 5.39,1.55 5.8,4.35 0.41,2.81 -1.54,5.41 -4.34,5.81 -7.06,1.02 -14.52,1.49 -22.27,1.49z"/>
     <path class="fil3" d="M769.28 5537.63c-0.73,0 -1.48,-0.16 -2.19,-0.49 -2.57,-1.22 -3.65,-4.28 -2.44,-6.83 0.71,-1.47 69.86,-148.6 68,-278.58 -0.05,-2.83 2.22,-5.16 5.05,-5.21 2.67,-0.07 5.17,2.24 5.2,5.07 1.9,132.4 -68.27,281.62 -68.98,283.12 -0.88,1.84 -2.72,2.92 -4.64,2.92z"/>
     <path class="fil3" d="M1006.39 6053.56l-0.12 0c-182.23,-4.26 -370.14,-143.74 -372.01,-145.13 -2.26,-1.69 -2.72,-4.92 -1.02,-7.17 1.7,-2.26 4.91,-2.72 7.18,-1.03 1.85,1.38 187.18,138.86 366.09,143.07 2.83,0.05 5.07,2.41 5.01,5.23 -0.07,2.77 -2.35,5.03 -5.13,5.03z"/>
     <path class="fil4" d="M1011.41 6053.91c-1.28,0 -2.57,-0.51 -3.57,-1.49 -2.03,-1.94 -2.08,-5.17 -0.11,-7.22 1.17,-1.24 117.07,-123.64 123.23,-354.43 0.07,-2.83 2.24,-5.19 5.26,-4.99 2.83,0.07 5.06,2.44 4.98,5.27 -6.26,235.03 -124.91,360.04 -126.11,361.28 -1.01,1.02 -2.34,1.58 -3.68,1.58z"/>
     <path class="fil4" d="M1257.27 6701.79c-1.32,0 -2.65,-0.51 -3.65,-1.49 -1.99,-2.05 -1.96,-5.27 0.05,-7.27 1.41,-1.39 141.22,-141.59 162.24,-345.99 0.28,-2.83 2.81,-4.83 5.62,-4.57 2.81,0.26 4.86,2.77 4.58,5.59 -21.41,208.2 -163.8,350.87 -165.24,352.3 -0.99,0.97 -2.3,1.43 -3.6,1.43z"/>
     <path class="fil4" d="M1245.35 6704.92c-32.34,0 -187.87,-7.33 -350.77,-139.63 -2.2,-1.8 -2.54,-5.03 -0.76,-7.24 1.79,-2.19 5.02,-2.5 7.22,-0.71 178.92,145.27 348.13,137.32 349.82,137.23 2.84,-0.11 5.25,2 5.42,4.82 0.16,2.82 -1.99,5.28 -4.81,5.43 -0.19,0 -2.3,0.1 -6.12,0.1z"/>
     <path class="fil3" d="M-697.02 6033.66c-86.09,-250.76 47.41,-523.83 298.17,-609.92 250.76,-86.1 523.84,47.4 609.93,298.18l0.02 0.06c47.84,139.37 153.26,251.47 289.41,307.93 156.5,64.87 285.48,194 344.82,366.87 57.87,168.61 191,300.86 359.98,357.63 197.84,66.46 363.67,220.82 436.67,433.48 124.69,363.17 -68.65,758.64 -431.83,883.36 -363.17,124.66 -758.66,-68.67 -883.34,-431.84 -6.67,-19.43 -12.42,-38.97 -17.3,-58.51 -47.67,-191.53 -172.21,-354.91 -344.22,-451.73 -126.22,-71.02 -227.85,-186.87 -278.57,-334.61 -22.3,-64.92 -33.04,-131.02 -33.34,-196.09 -0.6,-130.57 -64.74,-252.67 -171.76,-327.49 -80.39,-56.15 -144.35,-137.43 -178.64,-237.32z"/>
     <path class="fil5" d="M-258.6 5894.18c106.34,174.45 224.74,341.78 347.64,505.16 30.89,40.72 61.49,81.69 93.49,121.59l47.5 60.26 23.74 30.1 24.36 29.64 97.52 118.4 100.26 116.05c135.35,153.28 273.97,303.84 419.84,447.12l54.31 54.1c9.09,8.98 17.99,18.16 27.24,26.97l27.9 26.31 111.58 105.18c36.72,35.53 75.53,68.81 113.62,102.87l114.61 101.84 0.27 0.2c5.04,4.47 5.49,12.21 1.02,17.24 -4.45,5.02 -12.15,5.43 -17.19,0.97l-0.07 -0.06 -114.13 -102.97c-37.92,-34.46 -76.57,-68.15 -113.11,-104.09l-111.01 -106.31 -27.75 -26.56c-9.21,-8.93 -18.07,-18.16 -27.11,-27.23l-54 -54.66c-145.06,-144.77 -282.76,-296.67 -417.12,-451.28l-99.54 -117.02 -97.22 -118.97 -24.26 -29.74 -23.66 -30.26 -47.34 -60.51c-31.88,-40.05 -62.36,-81.23 -93.15,-122.16 -122.46,-164.14 -240.25,-331.88 -346.3,-507.47 -1.34,-2.2 -0.63,-5.08 1.58,-6.41 2.2,-1.33 5.07,-0.61 6.41,1.59l0.07 0.11z"/>
     <path class="fil6" d="M-11.26 6268.53c-1,0 -2.02,-0.31 -2.91,-0.93 -2.33,-1.64 -2.92,-4.82 -1.31,-7.13 79.89,-115.69 60.88,-426.09 60.67,-429.22 -0.18,-2.82 1.96,-5.27 4.8,-5.43 2.85,-0.1 5.25,1.95 5.44,4.77 0.83,12.87 19.44,317.06 -62.47,435.68 -0.99,1.43 -2.59,2.26 -4.22,2.26z"/>
     <path class="fil7" d="M-20.18 6271.55l-0.09 0c-2.11,0 -213.03,-4.62 -363.57,-82.2 -2.5,-1.28 -3.5,-4.36 -2.2,-6.87 1.31,-2.51 4.39,-3.54 6.9,-2.21 148.44,76.46 356.97,81.02 359.06,81.02 2.82,0.06 5.08,2.42 5.03,5.24 -0.04,2.81 -2.34,5.02 -5.13,5.02z"/>
     <path class="fil8" d="M436.49 6837.9c-0.73,0 -1.47,-0.16 -2.17,-0.52 -2.57,-1.18 -3.67,-4.26 -2.48,-6.82 97.47,-208.04 45.36,-499.58 44.82,-502.5 -0.51,-2.77 1.33,-5.43 4.11,-5.95 2.77,-0.56 5.46,1.34 5.98,4.11 0.53,2.92 53.26,297.63 -45.61,508.7 -0.88,1.85 -2.72,2.98 -4.65,2.98z"/>
     <path class="fil9" d="M290.99 6860.66c-86.74,0 -206.21,-15.89 -340.81,-78.41 -2.57,-1.17 -3.69,-4.2 -2.49,-6.76 1.19,-2.62 4.23,-3.7 6.81,-2.52 268.88,124.87 475.93,61.49 477.98,60.87 2.69,-0.87 5.58,0.62 6.45,3.33 0.85,2.68 -0.63,5.55 -3.33,6.41 -1.07,0.37 -55.62,17.08 -144.61,17.08z"/>
     <path class="fil10" d="M801.31 7529.05c-78.24,0 -168.63,-10.91 -259.89,-45.17 -2.64,-0.97 -3.99,-3.95 -3,-6.56 1,-2.68 3.96,-4.01 6.6,-3.03 247.15,92.71 488.1,12.05 490.5,11.23 2.69,-0.93 5.6,0.51 6.52,3.18 0.91,2.67 -0.51,5.58 -3.19,6.51 -1.55,0.57 -100.96,33.84 -237.54,33.84z"/>
     <path class="fil4" d="M1044.11 7490.24c-0.86,0 -1.73,-0.26 -2.54,-0.72 -2.46,-1.39 -3.31,-4.51 -1.91,-6.98 1.09,-1.89 107.03,-191.89 42.24,-480.7 -0.62,-2.77 1.11,-5.48 3.88,-6.1 2.75,-0.67 5.5,1.07 6.12,3.84 65.72,292.92 -42.23,486.14 -43.32,488.04 -0.96,1.64 -2.69,2.62 -4.47,2.62z"/>
     <path class="fil2" d="M9158.23 4929.89c145.35,-147.28 382.58,-148.87 529.83,-3.53 147.25,145.33 148.9,382.55 3.55,529.84l0 0.03c-80.81,81.86 -122.51,194.49 -114.72,309.23 9.08,131.94 -36.34,266.92 -136.61,368.45l0 0c-97.77,99.13 -143.79,238.1 -124.76,376 22.24,161.27 -28.12,330.75 -151.23,455.62 -210.49,213.28 -554.05,215.59 -767.4,5.08 -213.35,-210.45 -215.6,-554.04 -5.1,-767.31 11.24,-11.44 22.83,-22.21 34.86,-32.42 117.32,-99.89 188.17,-243.68 196.13,-397.52 5.8,-112.88 51.39,-224.14 137.05,-310.94 37.63,-38.14 80.11,-68.61 125.45,-91.42 91.01,-45.78 154.08,-133.02 169.13,-233.8 11.34,-75.71 45.95,-148.64 103.82,-207.31z"/>
     <path class="fil3" d="M9409.22 5188.63c-84.87,134.84 -160.58,275.73 -232.04,418.34 -17.73,35.73 -35.73,71.35 -52.51,107.57l-25.53 54.1 -12.8 27.07 -12.2 27.29 -48.88 109.28 -46.46 110.3c-60.3,147.69 -117.66,296.77 -167.32,448.4l-19.12 56.72c-3.12,9.44 -6.41,18.87 -9.43,28.36l-8.74 28.61 -34.87 114.46c-12.2,38 -21.97,76.66 -32.7,115.08l-31.49 115.43 -0.09 0.25c-1.3,4.93 -6.4,7.8 -11.25,6.46 -4.93,-1.33 -7.78,-6.41 -6.49,-11.28l0 -0.05 32.1 -115.59c10.9,-38.51 20.85,-77.22 33.22,-115.27l35.56 -114.61 8.83 -28.62c3.03,-9.55 6.4,-18.92 9.6,-28.41l19.38 -56.77c50.44,-151.79 108.49,-300.91 169.66,-448.66l46.98 -110.36 49.4 -109.27 12.37 -27.28 12.89 -27.07 25.87 -54.1c16.96,-36.23 35.13,-71.83 53.03,-107.56 72.24,-142.66 148.55,-283.24 234.46,-418.45 1.56,-2.39 4.76,-3.1 7.1,-1.57 2.42,1.51 3.11,4.68 1.56,7.08l-0.09 0.12z"/>
     <path class="fil3" d="M9257.47 5495.52c-7.79,0 -15.23,-0.49 -22.24,-1.5 -2.85,-0.4 -4.75,-3 -4.32,-5.81 0.34,-2.8 2.94,-4.79 5.79,-4.35 108.15,15.54 318.21,-105.36 320.29,-106.58 2.42,-1.42 5.54,-0.58 7.01,1.87 1.47,2.44 0.6,5.58 -1.82,7 -8.22,4.74 -189.9,109.37 -304.71,109.37z"/>
     <path class="fil3" d="M9230.73 5488.9c-1.99,0 -3.8,-1.08 -4.67,-2.92 -0.69,-1.49 -70.85,-150.73 -68.95,-283.14 0,-2.8 2.34,-5.05 5.1,-5.05l0.09 0c2.86,0.04 5.1,2.37 5.02,5.21 -1.82,130.03 67.31,277.1 68,278.56 1.3,2.57 0.17,5.63 -2.42,6.84 -0.69,0.34 -1.47,0.5 -2.17,0.5z"/>
     <path class="fil3" d="M8993.59 6004.79c-2.77,0 -5.1,-2.21 -5.1,-4.97 -0.09,-2.88 2.16,-5.19 5.02,-5.29 179,-4.15 364.23,-141.64 366.05,-143.02 2.33,-1.69 5.54,-1.23 7.18,1.03 1.73,2.25 1.3,5.48 -0.95,7.18 -1.91,1.38 -189.82,140.81 -372.11,145.07l-0.09 0z"/>
     <path class="fil3" d="M8988.58 6005.14c-1.3,0 -2.69,-0.51 -3.72,-1.53 -1.13,-1.23 -119.83,-126.3 -126.06,-361.31 -0.09,-2.83 2.16,-5.18 4.93,-5.26 3.03,0.08 5.28,2.16 5.28,5 6.23,230.8 122.07,353.21 123.29,354.44 1.9,2 1.9,5.28 -0.09,7.23 -1.04,0.98 -2.34,1.43 -3.63,1.43z"/>
     <path class="fil3" d="M8742.78 6653.07c-1.38,0 -2.68,-0.51 -3.63,-1.47 -1.47,-1.44 -143.88,-144.11 -165.25,-352.26 -0.26,-2.82 1.73,-5.33 4.59,-5.64 2.85,-0.26 5.36,1.8 5.62,4.62 21.02,204.51 160.75,344.61 162.22,345.99 1.99,2 2.08,5.23 0.09,7.23 -1.04,1.02 -2.34,1.53 -3.64,1.53z"/>
     <path class="fil3" d="M8754.64 6656.21c-3.81,0 -5.89,-0.11 -6.06,-0.16 -2.86,-0.15 -5.02,-2.56 -4.85,-5.38 0.18,-2.87 2.69,-5.03 5.45,-4.82 1.65,0.11 170.87,8.05 349.79,-137.28 2.16,-1.74 5.37,-1.44 7.18,0.77 1.82,2.2 1.47,5.43 -0.69,7.23 -162.91,132.26 -318.47,139.64 -350.82,139.64z"/>
     <path class="fil3" d="M10697.02 5984.94c86.08,-250.76 -47.41,-523.85 -298.14,-609.94 -250.81,-86.09 -523.86,47.4 -609.94,298.17l0 0.05c-47.84,139.42 -153.31,251.52 -289.48,307.98 -156.51,64.87 -285.42,193.99 -344.77,366.86 -57.88,168.56 -191.03,300.86 -360,357.63 -197.86,66.41 -363.71,220.82 -436.65,433.43 -124.75,363.22 68.61,758.69 431.81,883.35 363.19,124.73 758.66,-68.65 883.33,-431.82 6.66,-19.39 12.37,-38.93 17.3,-58.46 47.67,-191.54 172.26,-354.92 344.25,-451.74 126.14,-71.07 227.8,-186.87 278.5,-334.66 22.32,-64.92 33.14,-131.02 33.39,-196.04 0.61,-130.56 64.72,-252.66 171.74,-327.48 80.37,-56.21 144.4,-137.49 178.66,-237.33z"/>
     <path class="fil11" d="M10266.68 5850.18c-106.07,175.53 -223.9,343.27 -346.32,507.48 -30.8,40.91 -61.26,82.04 -93.09,122.14l-47.41 60.51 -23.62 30.2 -24.31 29.8 -97.25 118.98 -99.49 117.02c-134.36,154.55 -272.01,306.5 -417.1,451.22l-53.99 54.71c-9.08,9.02 -17.9,18.31 -27.07,27.23l-27.86 26.57 -111 106.3c-36.51,35.95 -75.19,69.58 -113.08,104.04l-114.12 103.03c-5.01,4.51 -12.71,4.1 -17.21,-0.87 -4.5,-5.02 -4.07,-12.72 0.86,-17.23l0.09 -0.05 0.26 -0.26 114.63 -101.79c38.07,-34.05 76.92,-67.34 113.6,-102.92l111.6 -105.18 27.86 -26.26c9.26,-8.81 18.17,-17.99 27.34,-26.96l54.25 -54.11c145.86,-143.33 284.46,-293.84 419.78,-447.12l100.35 -116.09 97.51 -118.41 24.31 -29.64 23.71 -30.1 47.58 -60.21c32.01,-39.89 62.64,-80.86 93.44,-121.63 122.94,-163.39 241.29,-330.67 347.71,-505.12l0.08 -0.15c1.3,-2.21 4.16,-2.88 6.41,-1.55 2.16,1.35 2.85,4.21 1.55,6.42z"/>
     <path class="fil12" d="M10011.29 6219.76c-1.65,0 -3.29,-0.77 -4.24,-2.21 -81.93,-118.61 -63.33,-422.8 -62.47,-435.68 0.18,-2.82 2.6,-4.92 5.45,-4.82 2.86,0.21 4.93,2.62 4.76,5.44 -0.17,3.13 -19.21,313.53 60.65,429.21 1.64,2.36 1.04,5.55 -1.3,7.13 -0.86,0.62 -1.9,0.93 -2.85,0.93z"/>
     <path class="fil13" d="M10020.2 6222.84c-2.86,0 -5.11,-2.26 -5.11,-5.03 -0.08,-2.87 2.17,-5.18 5.02,-5.23 2.08,-0.06 210.67,-4.61 358.96,-81.08 2.59,-1.28 5.71,-0.3 6.92,2.21 1.3,2.56 0.35,5.64 -2.16,6.92 -150.54,77.54 -361.47,82.16 -363.55,82.21l-0.08 0z"/>
     <path class="fil14" d="M9563.48 6789.12c-1.9,0 -3.72,-1.07 -4.59,-2.91 -98.89,-211.13 -46.2,-505.79 -45.68,-508.71 0.52,-2.82 3.29,-4.67 6.06,-4.16 2.77,0.52 4.58,3.19 4.06,6 -0.51,2.93 -52.68,294.41 44.82,502.51 1.21,2.56 0.09,5.58 -2.42,6.81 -0.78,0.32 -1.47,0.46 -2.25,0.46z"/>
     <path class="fil15" d="M9709 6811.95c-89.03,0 -143.53,-16.77 -144.57,-17.08 -2.77,-0.87 -4.24,-3.74 -3.38,-6.46 0.87,-2.67 3.81,-4.15 6.49,-3.34 2.08,0.67 209.11,64.01 477.92,-60.82 2.6,-1.23 5.62,-0.09 6.84,2.47 1.21,2.57 0.08,5.64 -2.43,6.82 -134.62,62.51 -254.1,78.41 -340.87,78.41z"/>
     <path class="fil16" d="M9198.64 7480.29c-136.61,0 -235.93,-33.29 -237.49,-33.8 -2.68,-0.92 -4.07,-3.84 -3.2,-6.51 0.95,-2.67 3.89,-4.1 6.49,-3.18 2.42,0.82 243.54,81.44 490.55,-11.23 2.68,-0.98 5.62,0.36 6.57,2.98 1.04,2.66 -0.34,5.64 -3.03,6.61 -91.19,34.26 -181.59,45.13 -259.89,45.13z"/>
     <path class="fil17" d="M8955.87 7441.47c-1.73,0 -3.46,-0.92 -4.5,-2.57 -1.03,-1.94 -109.01,-195.17 -43.34,-488.04 0.69,-2.76 3.46,-4.46 6.23,-3.89 2.77,0.62 4.5,3.38 3.89,6.15 -64.89,289.02 41.1,478.81 42.14,480.65 1.47,2.47 0.6,5.65 -1.82,7.03 -0.87,0.47 -1.73,0.67 -2.6,0.67z"/>
     <path class="fil18" d="M8838.3 8201.6l-7673.28 0c-38.84,0 -74.2,-15.84 -99.91,-41.33 -25.93,-25.75 -42.06,-61.33 -42.06,-100.51l-8.67 -597.52 -55.18 -3812.09c0,-75.2 85.43,-219.37 242.38,-219.37 5.87,0 11.82,0.2 17.88,0.61l7499.27 -194.1c3.03,-0.08 5.97,-0.11 9,-0.11 94.65,0 185.75,37.38 252.97,104.49 69.3,69.09 107.28,163.57 104.95,261.35l-91.19 3859.22 -14.1 597.52c0,78 -64.03,141.84 -142.06,141.84zm-7455.58 -4582.34c-149.55,0 -230.9,134.55 -230.9,204.71l60.83 4115.13c0,72.76 60.83,132.3 135.17,132.3l7309.66 0c74.4,0 135.22,-59.54 135.22,-132.3l100.36 -4159.05c2.25,-91.3 -33.91,-179.49 -99.93,-243.99 -64.02,-62.47 -150.62,-97.43 -240.77,-97.43 -2.86,0 -5.88,0.05 -8.83,0.12l-7143.83 181.08c-5.75,-0.38 -11.41,-0.57 -16.98,-0.57z"/>
     <path class="fil19" d="M8657.48 8071.4l-7309.66 0c-74.34,0 -135.17,-59.54 -135.17,-132.3l-60.83 -4115.13c0,-70.16 81.35,-204.71 230.9,-204.71 5.57,0 11.23,0.19 16.98,0.57l7143.83 -181.08c2.95,-0.07 5.97,-0.12 8.83,-0.12 90.15,0 176.75,34.96 240.77,97.43 66.02,64.5 102.18,152.69 99.93,243.99l-100.36 4159.05c0,72.76 -60.82,132.3 -135.22,132.3zm-6726.79 -767.67c-70.63,0 -127.89,57.23 -127.89,127.89 0,70.61 57.26,127.85 127.89,127.85l2174.07 0c70.67,0 127.9,-57.24 127.9,-127.85 0,-70.66 -57.23,-127.89 -127.9,-127.89l-2174.07 0zm5010.87 -46.51c-70.61,0 -127.9,57.23 -127.9,127.89 0,70.61 57.29,127.9 127.9,127.9l953.36 0c70.6,0 127.87,-57.29 127.87,-127.9 0,-70.66 -57.27,-127.89 -127.87,-127.89l-953.36 0zm-5031.68 -2139.22c-78.4,0 -141.95,63.55 -141.95,141.96l0 715.96c0,78.36 63.55,141.95 141.95,141.95l948.47 0c78.39,0 141.95,-63.59 141.95,-141.95l0 -715.96c0,-78.41 -63.56,-141.96 -141.95,-141.96l-948.47 0zm5246.39 -1631.84c-698.23,0 -1264.28,566.03 -1264.28,1264.27 0,698.24 566.05,1264.26 1264.28,1264.26 375.89,0 713.47,-164 945.08,-424.42 38.24,52.4 83.23,96.72 131.94,134.22 48.19,-51.92 81.58,-109.28 103.12,-153.95 -57.27,-23.78 -106.93,-56.06 -148.37,-89.31 146.47,-206.35 232.47,-458.52 232.47,-730.8 0,-698.24 -565.99,-1264.27 -1264.24,-1264.27z"/>
     <path class="fil2" d="M8653.15 8087.81l-816.37 0c-2.85,0 -5.1,-2.31 -5.1,-5.13 0,-2.87 2.25,-5.13 5.1,-5.13l816.37 0c107.37,0 201.58,-96.91 201.58,-207.43l0 -2507.98c0,-2.82 2.34,-5.12 5.11,-5.12 2.94,0 5.19,2.3 5.19,5.12l0 2507.98c0,115.95 -98.97,217.69 -211.88,217.69z"/>
     <path class="fil2" d="M1163.37 5344.03c-2.84,0 -5.14,-2.29 -5.14,-5.13l0 -1471.71c0,-72 25.93,-138.83 73.02,-188.2 47.68,-49.99 113.04,-77.52 184.02,-77.52l654.94 0c2.82,0 5.13,2.3 5.13,5.13 0,2.83 -2.31,5.13 -5.13,5.13l-654.94 0c-140.69,0 -246.78,109.82 -246.78,255.46l0 1471.71c0,2.84 -2.3,5.13 -5.12,5.13z"/>
     <path class="fil20" d="M2858.35 6117.87l-948.47 0c-78.4,0 -141.95,-63.59 -141.95,-141.95l0 -715.96c0,-78.41 63.55,-141.96 141.95,-141.96l948.47 0c78.39,0 141.95,63.55 141.95,141.96l0 715.96c0,78.36 -63.56,141.95 -141.95,141.95zm-628.76 -656.21c-26.61,0 -48.25,21.64 -48.25,48.25l0 227.66c0,26.61 21.64,48.25 48.25,48.25l285.8 0c26.6,0 48.25,-21.64 48.25,-48.25l0 -227.66c0,-26.61 -21.65,-48.25 -48.25,-48.25l-285.8 0zm285.8 313.9l-285.8 0c-20.95,0 -37.99,-17.02 -37.99,-37.99l0 -227.66c0,-20.96 17.04,-38 37.99,-38l285.8 0c20.95,0 37.99,17.04 37.99,38l0 227.66c0,20.97 -17.04,37.99 -37.99,37.99z"/>
     <path class="fil21" d="M2515.39 5785.82l-285.8 0c-26.61,0 -48.25,-21.64 -48.25,-48.25l0 -227.66c0,-26.61 21.64,-48.25 48.25,-48.25l285.8 0c26.6,0 48.25,21.64 48.25,48.25l0 227.66c0,26.61 -21.65,48.25 -48.25,48.25zm-285.8 -313.91c-20.95,0 -37.99,17.04 -37.99,38l0 227.66c0,20.97 17.04,37.99 37.99,37.99l285.8 0c20.95,0 37.99,-17.02 37.99,-37.99l0 -227.66c0,-20.96 -17.04,-38 -37.99,-38l-285.8 0z"/>
     <path class="fil4" d="M2186.48 5553.29l-418.55 0c-2.83,0 -5.13,-2.29 -5.13,-5.13 0,-2.83 2.3,-5.13 5.13,-5.13l418.55 0c2.82,0 5.12,2.3 5.12,5.13 0,2.84 -2.3,5.13 -5.12,5.13z"/>
     <path class="fil4" d="M2186.48 5646.31l-418.55 0c-2.83,0 -5.13,-2.29 -5.13,-5.13 0,-2.84 2.3,-5.13 5.13,-5.13l418.55 0c2.82,0 5.12,2.29 5.12,5.13 0,2.84 -2.3,5.13 -5.12,5.13z"/>
     <path class="fil4" d="M3000.3 5553.29l-441.79 0c-2.83,0 -5.13,-2.29 -5.13,-5.13 0,-2.83 2.3,-5.13 5.13,-5.13l441.79 0c2.83,0 5.13,2.3 5.13,5.13 0,2.84 -2.3,5.13 -5.13,5.13z"/>
     <path class="fil4" d="M3000.3 5646.31l-441.79 0c-2.83,0 -5.13,-2.29 -5.13,-5.13 0,-2.84 2.3,-5.13 5.13,-5.13l441.79 0c2.83,0 5.13,2.29 5.13,5.13 0,2.84 -2.3,5.13 -5.13,5.13z"/>
     <path class="fil4" d="M2251.02 5471.23c-2.31,0 -4.42,-1.59 -4.98,-3.94l-83.54 -352.74c-0.66,-2.75 1.05,-5.52 3.81,-6.17 2.73,-0.67 5.52,1.05 6.17,3.8l83.55 352.74c0.65,2.76 -1.06,5.52 -3.81,6.17l-1.2 0.14z"/>
     <path class="fil4" d="M2476.91 5471.23l-1.23 -0.15c-2.75,-0.67 -4.43,-3.45 -3.75,-6.2l86.64 -352.73c0.67,-2.76 3.45,-4.49 6.2,-3.76 2.75,0.68 4.43,3.45 3.75,6.21l-86.63 352.72c-0.57,2.35 -2.67,3.91 -4.98,3.91z"/>
     <path class="fil4" d="M2167.49 6130.32l-1.18 -0.15c-2.76,-0.67 -4.47,-3.44 -3.81,-6.2l83.54 -352.72c0.65,-2.76 3.42,-4.46 6.18,-3.79 2.75,0.61 4.46,3.39 3.81,6.16l-83.55 352.75c-0.56,2.36 -2.66,3.95 -4.99,3.95z"/>
     <path class="fil4" d="M2563.54 6130.32c-2.31,0 -4.39,-1.59 -4.97,-3.95l-86.64 -352.7c-0.68,-2.77 1,-5.54 3.75,-6.21 2.75,-0.71 5.53,0.97 6.21,3.74l86.63 352.77c0.68,2.71 -1,5.48 -3.75,6.2l-1.23 0.15z"/>
     <path class="fil2" d="M3011.92 4182.09c0,93.11 -75.47,168.58 -168.58,168.58l-1057.97 0c-93.11,0 -168.58,-75.47 -168.58,-168.58 0,-93.1 75.47,-168.57 168.58,-168.57l1057.97 0c93.11,0 168.58,75.47 168.58,168.57z"/>
     <path class="fil2" d="M3104.93 6712.46c0,88.97 -72.12,161.08 -161.1,161.08l-1165.94 0c-88.98,0 -161.1,-72.11 -161.1,-161.08l0 -3.33c0,-88.97 72.12,-161.13 161.1,-161.13l1165.94 0c88.98,0 161.1,72.16 161.1,161.13l0 3.33z"/>
     <path class="fil2" d="M4802.34 6712.46c0,88.97 -72.11,161.08 -161.08,161.08l-1165.96 0c-88.97,0 -161.09,-72.11 -161.09,-161.08l0 -3.33c0,-88.97 72.12,-161.13 161.09,-161.13l1165.96 0c88.97,0 161.08,72.16 161.08,161.13l0 3.33z"/>
     <path class="fil2" d="M6499.77 6712.46c0,88.97 -72.14,161.08 -161.12,161.08l-1165.92 0c-88.96,0 -161.12,-72.11 -161.12,-161.08l0 -3.33c0,-88.97 72.16,-161.13 161.12,-161.13l1165.92 0c88.98,0 161.12,72.16 161.12,161.13l0 3.33z"/>
     <path class="fil2" d="M8197.21 6712.46c0,88.97 -72.16,161.08 -161.09,161.08l-1166 0c-88.97,0 -161.07,-72.11 -161.07,-161.08l0 -3.33c0,-88.97 72.1,-161.13 161.07,-161.13l1166 0c88.93,0 161.09,72.16 161.09,161.13l0 3.33z"/>
     <path class="fil22" d="M4104.76 7559.47l-2174.07 0c-70.63,0 -127.89,-57.24 -127.89,-127.85 0,-70.66 57.26,-127.89 127.89,-127.89l2174.07 0c70.67,0 127.9,57.23 127.9,127.89 0,70.61 -57.23,127.85 -127.9,127.85z"/>
     <path class="fil23" d="M7894.92 7513.01l-953.36 0c-70.61,0 -127.9,-57.29 -127.9,-127.9 0,-70.66 57.29,-127.89 127.9,-127.89l953.36 0c70.6,0 127.87,57.23 127.87,127.89 0,70.61 -57.27,127.9 -127.87,127.9z"/>
     <path class="fil24" d="M2526.16 2438.92c0.11,-3.4 0.22,-6.54 0.3,-9.25 0.25,-7.67 -2.86,-15 -8.57,-20.12 -33.42,-30.01 -158.58,-132.95 -335.46,-165.01 -9.54,-1.73 -17.81,2.58 -22.45,9.39 14.74,1.79 34.51,5.54 61.13,12.54 87.43,22.96 214.56,84.08 305.05,172.45z"/>
     <path class="fil25" d="M2221.11 2266.47c-26.62,-7 -46.39,-10.75 -61.13,-12.54 -4.68,6.84 -5.67,16.22 -0.58,24.52 2.88,4.68 6.4,9.74 10.74,15.17 27.69,34.66 251.42,264.21 251.42,264.21 0,0 71.03,8.67 92.73,-3.91 7.05,-4.08 10.54,-77.81 11.87,-115 -90.49,-88.37 -217.62,-149.49 -305.05,-172.45z"/>
     <path class="fil26" d="M2517.64 2677.36l0 -136.73c0,-11.58 -7.35,-21.99 -18.38,-25.52 -16.96,-5.45 -43.05,-10.54 -66.77,-1.65 -13.93,5.21 -23.28,18.42 -24.46,33.23l-10.19 127.69 119.8 2.98z"/>
     <path class="fil27" d="M1975.4 2556.28c-1.63,-5.38 -4.8,-9.88 -8.84,-13.25 -28.7,5.67 -88.46,21.48 -210.92,64.72 -141.96,50.11 -183.51,93.89 -195.48,117.29 60.82,17.82 199.06,45.04 397.38,6.29l39.17 -18.37c0,0 -2.75,-95.54 -21.31,-156.68z"/>
     <path class="fil28" d="M1755.64 2607.75c122.46,-43.24 182.22,-59.05 210.92,-64.72 -6.32,-5.25 -14.83,-7.66 -23.43,-5.87 -70.49,14.66 -283.52,64.81 -394.85,155.07 -11.12,9.01 -7.87,26.79 5.81,31 1.92,0.59 3.96,1.2 6.07,1.81 11.97,-23.4 53.52,-67.18 195.48,-117.29z"/>
     <path class="fil29" d="M2070.09 2795.54l-83.44 -99.99c-8.13,-9.74 -21.35,-13.58 -33.39,-9.63 -13.36,4.38 -31.1,13.43 -48.27,32.1 -8.01,8.7 -9.58,21.61 -4.16,32.12l60.7 117.63 108.56 -72.23z"/>
     <path class="fil30" d="M2379.56 2629.75c0,0 101.81,-19.55 158.31,0 0,0 74.47,446.9 61.67,590.59l-219.98 44.71c0,0 -6.25,-503.5 0,-635.3z"/>
     <path class="fil31" d="M3282.4 3412.75c0,0 -719.36,40.4 -1011.33,20.26 -28.6,-1.98 -53.97,-18.9 -66.78,-44.54 -62.58,-125.28 -250.25,-501.21 -266.71,-537.08 0,0 76.23,-63.69 132.51,-72.48 0,0 266.43,296.4 277.57,447.64 0,0 617.01,-177.46 677.95,-175.78 60.94,1.68 247.81,85.06 247.81,85.06l8.98 276.92z"/>
     <path class="fil32" d="M4241.32 2852.05c0,0 -26.41,-54.88 -3.49,-83.83 22.88,-28.97 105.44,-118.6 105.44,-118.6l9.59 -61.94 33.89 100.9 -72.77 152.21c0,0 -42.6,46.09 -72.66,11.26z"/>
     <path class="fil33" d="M4426.19 3107.31c-26.67,-93.66 -63.38,-182.83 -112.21,-266.52l-72.66 11.26 35.84 251.83c27.44,8.29 102.26,27.2 149.03,3.43z"/>
     <path class="fil34" d="M4473.21 3352.52c-9.27,-84.6 -24.67,-166.49 -47.02,-245.21 -46.77,23.77 -121.59,4.86 -149.03,-3.43l10.32 72.31 -27.54 -97.38c-33.48,-118.45 -104.72,-222.73 -202.87,-297l-68.4 -51.73c-67.18,-50.83 -174.57,-33.28 -243.12,15.71 -152.16,108.76 -378.05,291.11 -455.17,353.83 -16.57,13.48 -39.29,16.49 -58.84,7.84l-12.85 -5.7c-12.18,-5.38 -25.6,4.46 -24.12,17.67l32.74 299.36 522.74 -6.04c62.67,0 244.26,-6.45 273.18,-62.07l48.3 -118.65c113.28,96.34 258.61,162.52 336.45,181.81 35.85,8.88 69.49,-22.45 65.23,-61.32z"/>
     <path class="fil35" d="M4106.04 2569.5l-160.66 156.1c-10.72,10.41 -11.74,27.39 -2.15,38.83 49.59,59.06 92.1,90.03 127.48,92.36 15.03,1 29.23,-6.92 37.28,-19.62l85.39 -134.69 -87.34 -132.98z"/>
     <polygon class="fil36" points="4430.39,3338.71 4568.65,3284.92 4729.36,3412.75 4441.57,3413.84 "/>
     <path class="fil37" d="M4375.52 2533.39c0,0 -21.94,154.2 -81.17,201.62 -59.23,47.42 -174.61,11.72 -213.59,-104.53l77.64 -198.76 217.12 101.67z"/>
     <path class="fil38" d="M4149.68 2560.34c4.47,1.46 9.18,-1.43 9.9,-6.11 2.15,-14.24 7.48,-42.41 18.31,-61.6 0,0 -5.7,-20.23 51.13,10.34 56.76,30.55 142.04,75.45 192.25,48.71 48.97,-26.06 98.56,-157.23 -30.82,-132.93 -4.92,0.93 -9.44,-2.99 -9.08,-7.99 1.59,-21.56 -0.56,-71.16 -50.76,-87.07 -47.04,-14.9 -72.77,6.31 -83.39,19.12 -3.08,3.77 -8.87,3.69 -11.84,-0.19 -14.11,-18.38 -52.31,-57.5 -108.62,-32.71 -46.35,20.45 -53.59,49 -52.81,66.79 0.26,5.76 -5.59,9.68 -10.83,7.26 -14.2,-6.54 -37.08,-9.93 -58.92,17.48 -30.25,37.9 12.97,70.76 25.95,79.38 2.1,1.41 3.44,3.75 3.44,6.3 0.1,19.71 3.18,105.68 46.3,154.17 3.69,4.2 10.61,2.96 12.77,-2.21l33.18 -79.05c1.54,-3.67 5.64,-5.55 9.44,-4.33l14.4 4.64z"/>
     <path class="fil39" d="M4150.35 2576.39c0,0 -20.26,-82.52 -51.02,-55.72 -30.77,26.79 8.05,85.75 43.27,96.99l7.75 -41.27z"/>
     <path class="fil40" d="M3918.92 2924.46c0,0 6.21,-190.9 -72.2,-194.74 -97.38,-4.76 -253.93,65.82 -160.77,345.59 51.49,154.58 129.08,269.28 342.1,317.87 10.35,-78.34 45.84,-132.92 72.09,-163.7 -86.76,-61.14 -160.3,-156.42 -181.22,-305.02z"/>
     <path class="fil41" d="M4090.35 3230.02c-1.49,0 -3.02,-0.45 -4.35,-1.39 -99.96,-70.41 -155.44,-166.73 -174.62,-303.1l-0.1 -1.32c1.64,-51.01 -6.82,-184.02 -64.98,-186.87 -28.1,-1.34 -57.58,3.93 -83.02,14.95 -3.84,1.66 -8.36,-0.11 -10.04,-3.97 -1.65,-3.88 0.14,-8.37 3.99,-10.05 27.54,-11.92 59.44,-17.6 89.85,-16.18 83.27,4.09 79.89,187.24 79.48,201.94 18.67,131.59 72.11,224.43 168.2,292.13 3.44,2.43 4.26,7.18 1.85,10.63 -1.49,2.12 -3.85,3.23 -6.26,3.23z"/>
     <path class="fil42" d="M3960.25 3381.63c-0.87,0 -1.69,-0.13 -2.5,-0.43 -176.72,-60.97 -238.51,-181.89 -279.03,-303.46 -9.15,-27.54 -16.24,-54.08 -21.03,-78.86 -0.81,-4.15 1.9,-8.14 6.04,-8.94 4.15,-0.8 8.12,1.91 8.94,6.04 4.67,24.14 11.59,50.01 20.52,76.93 39.27,117.87 99.12,235.05 269.53,293.87 4,1.38 6.1,5.72 4.72,9.71 -1.09,3.16 -4.05,5.14 -7.19,5.14z"/>
     <path class="fil43" d="M4469.52 3412.75l-0.31 -74.04c0,0 -207.53,4.6 -369.07,-109.23 -26.25,30.78 -61.74,85.36 -72.09,163.7 107.74,24.58 250.14,32.27 441.47,19.57z"/>
     <path class="fil44" d="M4203.53 3438.6c0.46,0.02 0.97,0.04 1.49,0.03l660.08 -0.72c16.36,0 29.54,-13.25 29.54,-29.58 0,-16.31 -13.29,-29.79 -29.59,-29.51l-660.08 0.72c-16.31,0.02 -29.54,13.27 -29.54,29.58 0.05,15.81 12.46,28.71 28.1,29.48z"/>
     <path class="fil45" d="M5458.52 2839.27l-549.73 0c-40.56,0 -77.48,23.4 -94.76,60.09l-254.15 538.89 683.16 0c26.16,0 49.64,-15.97 59.23,-40.27l197.07 -498.67c11.38,-28.81 -9.85,-60.04 -40.82,-60.04z"/>
     <path class="fil46" d="M5071.25 3115.58c-11.95,37.01 -3.13,72.96 19.65,80.28 22.76,7.33 50.86,-16.73 62.81,-53.75 11.9,-37 3.08,-72.95 -19.7,-80.28 -22.76,-7.33 -50.87,16.74 -62.76,53.75z"/>
     <path class="fil3" d="M7686.67 1914.54c-155.12,-135.87 -356.79,-212.29 -551.94,-269.33 -231.78,-67.76 -472.09,-129.65 -714.6,-140.33 -447.83,-19.71 -841.4,236.77 -1059.5,598.28 -42.98,71.26 -74.56,148.15 -102.66,226.28 -26.17,72.91 -64.98,151.52 -72.31,229.06 -3.03,31.81 -7.8,63.51 -8.92,95.48 -0.37,9.49 -1.39,94.69 25.99,63.48 397.89,-453.21 838.03,-332.25 1190.74,57.95 111.38,123.18 337.68,212.77 500.55,214.11 179.74,1.48 359.47,-70.85 518.74,-147.64 158.33,-76.28 334.65,-175.34 426.96,-331.28 121.13,-204.6 10.9,-452.48 -153.05,-596.06z"/>
     <path class="fil46" d="M7127.61 2070.06c0,36.88 -11.64,72.75 -31.64,103.72l-19.13 32.08c-19.69,30.53 -53.69,52.11 -90.05,52.11l-457.84 0 -25.08 -92.5 -47.48 -174.91 671.22 0 0 79.5zm-679.68 -114.37l-37.94 -140.19 -110.62 -60.29 -14.76 26.99 99.01 53.45 118.06 432.71 3.64 12.85 481.47 0c46.92,0 90.1,-23.01 115.54,-62.42l21.58 -28.49c23.23,-36 38.56,-77.38 38.56,-120.24l0 -114.37 -714.54 0z"/>
     <path class="fil46" d="M7097.55 2438.19c0,8.52 -6.92,17.42 -15.48,17.42l-564.96 0c-8.56,0 -17.34,-13.37 -17.34,-21.9l0 -266.39c0,-2.94 1.75,-2.33 3.19,-4.67l25.99 95.32 5.7 0 0 162.76 547.42 0c8.56,0 15.48,8.89 15.48,17.46z"/>
     <polygon class="fil46" points="6783.92,2261.17 6804.53,2261.17 6804.53,1971.18 6783.92,1971.18 "/>
     <polygon class="fil46" points="6601.78,2261.17 6622.39,2261.17 6622.39,1971.18 6601.78,1971.18 "/>
     <polygon class="fil46" points="6961.76,2261.17 6982.43,2261.17 6982.43,1971.18 6961.76,1971.18 "/>
     <polygon class="fil46" points="6464.24,2074.92 7134.99,2074.92 7134.99,2056.47 6464.24,2056.47 "/>
     <polygon class="fil46" points="6493.52,2175.86 7118.17,2175.86 7118.17,2157.42 6493.52,2157.42 "/>
     <path class="fil46" d="M6589.46 2582.33c-22.2,0 -40.2,-18.01 -40.2,-40.21 0,-22.2 18,-40.21 40.2,-40.21 22.2,0 40.21,18.01 40.21,40.21 0,22.2 -18.01,40.21 -40.21,40.21zm0 -106.82c-36.77,0 -66.61,29.82 -66.61,66.61 0,36.79 29.84,66.61 66.61,66.61 36.83,0 66.62,-29.82 66.62,-66.61 0,-36.79 -29.79,-66.61 -66.62,-66.61z"/>
     <path class="fil46" d="M7003.4 2582.33c-22.2,0 -40.2,-18.01 -40.2,-40.21 0,-22.2 18,-40.21 40.2,-40.21 22.21,0 40.21,18.01 40.21,40.21 0,22.2 -18,40.21 -40.21,40.21zm0 -106.82c-36.77,0 -66.62,29.82 -66.62,66.61 0,36.79 29.85,66.61 66.62,66.61 36.82,0 66.62,-29.82 66.62,-66.61 0,-36.79 -29.8,-66.61 -66.62,-66.61z"/>
     <path class="fil46" d="M6367.98 1782.09c0,17.29 -14,31.3 -31.28,31.3l-104.15 0c-17.28,0 -31.28,-14.01 -31.28,-31.3 0,-17.28 14,-31.29 31.28,-31.29l104.15 0c17.28,0 31.28,14.01 31.28,31.29z"/>
     <path class="fil46" d="M5176.63 1373.26c-2.41,0 -4.57,-1.71 -5.08,-4.15 -0.51,-2.78 1.28,-5.47 4.05,-6.02 0,0 10.51,-2.04 30.36,-5.49 2.82,-0.47 5.49,1.39 5.95,4.18 0.46,2.79 -1.38,5.45 -4.15,5.93 -19.74,3.42 -30.15,5.44 -30.15,5.44l-0.98 0.11z"/>
     <path class="fil46" d="M1014.39 7467.37c-1.82,0 -3.59,-0.98 -4.51,-2.73 -4.93,-9.07 -9.79,-18.15 -14.56,-27.12 -1.33,-2.51 -0.38,-5.64 2.12,-6.97 2.51,-1.33 5.61,-0.37 6.94,2.15 4.76,8.97 9.6,18 14.51,27.08 1.35,2.51 0.43,5.58 -2.07,6.92 -0.77,0.46 -1.61,0.67 -2.43,0.67z"/>
     <path class="fil47" d="M9459.05 8276.83c0,0 26.48,41.74 33.14,158.66 0.6,10.88 -7.96,20.16 -18.86,20.16l-207.21 0c-8.31,0 -14.27,-8.16 -11.59,-16.05 12.11,-35.95 48.79,-123.54 130.72,-173.59l73.8 10.82z"/>
     <path class="fil48" d="M9468.05 8197.6l-11.68 98.25c-1.04,8.52 -7.7,15.29 -16.18,16.26 -11.33,1.28 -27.77,2.21 -43.78,-0.41 -14.53,-2.41 -25,-15.38 -25,-30.1l0 -94.87 96.64 10.87z"/>
     <path class="fil49" d="M8946.53 8266.01c0,0 39.62,61.64 38.76,146.2 -0.18,19.95 -16.87,35.8 -36.77,35.8l-321.76 0c-15.05,0 -21.19,-19.34 -8.82,-28 60.82,-42.77 180.47,-122.61 267.08,-154l61.51 0z"/>
     <path class="fil50" d="M8979.67 8159.91l-25.01 121.33c-2.77,13.59 -16.09,22.72 -29.59,19.69 -8.22,-1.85 -17.91,-5.38 -28.29,-11.84 -9.86,-6.16 -14.88,-17.9 -12.8,-29.34l25.87 -146.97 69.82 47.13z"/>
     <path class="fil51" d="M9422.2 6472.88c0,0 86.86,76.61 103.21,168.77 16.35,92.2 -46.29,1590.31 -46.29,1590.31 0,0 -86.94,14.46 -131.76,-12.72 0,0 -53.12,-972.23 -93.52,-1196.89 0,0 -211.71,1007.1 -270.46,1189.1 0,0 -83.66,10.2 -110.74,-5.74 0,0 55.55,-1305.56 125.28,-1537.66l424.28 -195.17z"/>
     <path class="fil52" d="M9256.43 6985.13l-0.95 -0.11c-2.08,-0.57 -3.29,-2.62 -2.77,-4.72l36.86 -141.59c0.26,-0.92 0.86,-1.74 1.64,-2.25l79.77 -51.13c1.82,-1.18 4.15,-0.66 5.36,1.13 1.13,1.8 0.61,4.15 -1.21,5.34l-78.47 50.3 -36.51 140.15c-0.43,1.74 -2.08,2.88 -3.72,2.88z"/>
     <path class="fil53" d="M8564.64 5607.24c365.8,-30.37 461.4,45.32 461.4,45.32l-175.8 277.51c0,0 -359.48,-7.07 -616.95,-205.58 48.19,-51.92 81.58,-109.28 103.12,-153.95 66.36,27.6 142.93,43.77 228.23,36.7z"/>
     <path class="fil54" d="M8233.29 5724.49c-48.71,-37.5 -93.7,-81.82 -131.94,-134.22 30.8,-34.68 59.78,-71.09 86.69,-109.04 41.44,33.25 91.1,65.53 148.37,89.31 -21.54,44.67 -54.93,102.03 -103.12,153.95z"/>
     <path class="fil55" d="M8444.21 5768.13c128.83,-138.76 374.1,-201.45 516.08,-227.21 62.2,-11.28 123.54,23.34 145.6,82.61 63.94,171.83 237.75,618.79 271.49,695.61 27.6,63.03 56.5,124.56 74.75,163.02 10.99,23.02 1.39,50.51 -21.54,61.59 -119.48,57.59 -334.47,122.77 -421.68,148.15 -19.12,5.59 -38.24,-8.77 -38.24,-28.77 0,-16.92 -4.59,-33.54 -13.33,-48.05l-330.06 -550.14c-205.73,228.15 -385.95,249.03 -524.37,199.07 23.27,-71.95 38.5,-144 45.76,-216.2 204.53,-35.02 295.54,-279.68 295.54,-279.68z"/>
     <path class="fil56" d="M7753.12 5969.2l66.88 -39.13c119.39,82.1 247,131.74 328.67,117.74 -7.26,72.2 -22.49,144.25 -45.76,216.2 -182.38,-65.8 -349.79,-294.81 -349.79,-294.81z"/>
     <path class="fil57" d="M7435.61 5983.26c41.61,-22.63 164.98,-42.11 164.98,-42.11 0,0 141.8,-82.97 182.55,-99.28 33.92,-13.54 48.54,37.12 52.52,54.71 0.78,3.59 1.12,5.8 1.12,5.8l-5.19 33.74 -143.27 63.64c-30.63,13.65 -64.46,18.57 -97.76,14.21l-152.88 -20.05c-2.51,-0.31 -4.5,-2.15 -4.93,-4.62 -0.43,-2.41 0.69,-4.87 2.86,-6.04z"/>
     <path class="fil58" d="M8764.93 5286.08l109.79 267.68c0,0 -126.05,87.24 -227.54,78.95l-54.68 -240.71 172.43 -105.92z"/>
     <path class="fil59" d="M8579.7 5103.59c-2.51,3.56 -79.42,281.18 -79.42,281.18l159.53 40.52 111.87 -252.32c0,0 -149.93,-128.97 -191.98,-69.38z"/>
     <path class="fil60" d="M8711.64 5211.31l-48.54 137.43c-0.61,1.76 -1.47,3.39 -2.51,4.92 -6.57,9.36 -31.58,39.87 -61.25,12.38 -26.91,-24.94 -51.91,-47.32 -74.92,-51.38 -10.3,-1.82 -20.34,4.49 -23.19,14.62 -6.92,25.22 -21.63,82.35 -26.82,133.93 -0.95,10.47 6.23,19.94 16.52,21.9 31.15,5.91 97.16,16.54 152.36,12.66 7.44,-0.53 14.01,-5.01 17.13,-11.81 15.23,-33.21 61.68,-133.92 79.07,-159.99 16.27,-24.46 56.07,-23.76 72.76,-22.28 5.46,0.48 10.82,-1.29 14.97,-4.91 14.62,-12.8 42.48,-45.52 3.29,-84.67 -8.13,-8.2 -7.96,-21.42 0.52,-29.34 16.78,-15.81 34.78,-43.82 6.75,-78.58 -28.38,-35.32 -66.01,-29.69 -89.03,-21.3 -9.26,3.4 -19.46,-0.53 -24.48,-9.05 -2.94,-4.85 -7.96,-8.52 -16.61,-7.77 -11.77,1.02 -21.63,-8.79 -21.46,-20.56 0.43,-22.63 -7.7,-51.22 -46.89,-63.43 -69.65,-21.68 -113.08,45.61 -117.4,95.82 -4.33,50.22 72.58,69.42 117.74,66.04 34.35,-2.58 59.87,31.48 70.08,47.96 3.29,5.21 3.9,11.61 1.91,17.41z"/>
     <path class="fil61" d="M8721.33 5375.84c0,0 11.24,-87.17 47.49,-91.44 36.25,-4.26 71.55,25.52 35.48,74.46 -44.82,60.86 -82.97,16.98 -82.97,16.98z"/>
     <path class="fil62" d="M7156.27 6014.69c-698.23,0 -1264.28,-566.02 -1264.28,-1264.26 0,-698.24 566.05,-1264.27 1264.28,-1264.27 698.25,0 1264.24,566.03 1264.24,1264.27 0,272.28 -86,524.45 -232.47,730.8 -26.91,37.95 -55.89,74.36 -86.69,109.04 -231.61,260.42 -569.19,424.42 -945.08,424.42zm0 -2488.13c-326.91,0 -634.29,127.3 -865.41,358.46 -231.18,231.16 -358.51,538.5 -358.51,865.41 0,326.9 127.33,634.25 358.51,865.41 231.12,231.16 538.5,358.49 865.41,358.49 326.92,0 634.23,-127.33 865.4,-358.49 231.17,-231.16 358.44,-538.51 358.44,-865.41 0,-326.91 -127.27,-634.25 -358.44,-865.41 -231.17,-231.16 -538.48,-358.46 -865.4,-358.46zm0 2437.52c-669.21,0 -1213.65,-544.46 -1213.65,-1213.65 0,-669.19 544.44,-1213.62 1213.65,-1213.62 669.18,0 1213.63,544.43 1213.63,1213.62 0,669.19 -544.45,1213.65 -1213.63,1213.65zm0 -2240.69c-566.3,0 -1027.05,460.73 -1027.05,1027.04 0,566.31 460.75,1027.03 1027.05,1027.03 566.31,0 1027.01,-460.72 1027.01,-1027.03 0,-566.31 -460.7,-1027.04 -1027.01,-1027.04zm0 1990.75c-531.42,0 -963.72,-432.32 -963.72,-963.71 0,-531.39 432.3,-963.72 963.72,-963.72 531.36,0 963.68,432.33 963.68,963.72 0,531.39 -432.32,963.71 -963.68,963.71zm-397.27 -735.65c-12.72,0 -26.72,11.79 -26.72,24.53l0 5.95c0,129.46 108.97,225.29 238.46,225.29l133.58 0 0 103.59c0,21.37 26.11,38.69 58.15,38.69 32.06,0 58.14,-17.32 58.14,-38.69l0 -103.59 135.31 0c129.43,0 236.71,-95.83 236.71,-225.29l0 -68.59c0,-129.48 -107.28,-240.92 -236.71,-240.92l-135.31 0 0 -302.28 135.31 0c48.02,0 85.57,46.71 85.57,94.71l0 69.25c0,12.74 11.76,22.05 24.57,22.05l101.57 0c12.72,0 25,-9.31 25,-22.05l0 -69.25c0,-129.46 -107.28,-234.22 -236.71,-234.22l-135.31 0 0 -94.66c0,-21.37 -26.08,-38.69 -58.14,-38.69 -32.04,0 -58.15,17.32 -58.15,38.69l0 94.66 -133.58 0c-129.49,0 -238.46,104.76 -238.46,234.22l0 126.64c0,129.45 108.97,232.07 238.46,232.07l133.58 0 0 244.15 -133.58 0c-48,0 -87.28,-37.78 -87.28,-85.78l0 -5.95c0,-12.74 -10.11,-24.53 -22.87,-24.53l-101.59 0zm596.92 116.26l-135.31 0 0 -244.15 135.31 0c48.02,0 85.57,41.77 85.57,89.78l0 68.59c0,48 -37.55,85.78 -85.57,85.78zm-251.6 -395.29l-133.58 0c-48,0 -87.28,-32.93 -87.28,-80.93l0 -126.64c0,-48 39.28,-94.71 87.28,-94.71l133.58 0 0 302.28z"/>
     <path class="fil63" d="M7156.27 5974.33c-326.91,0 -634.29,-127.33 -865.41,-358.49 -231.18,-231.16 -358.51,-538.51 -358.51,-865.41 0,-326.91 127.33,-634.25 358.51,-865.41 231.12,-231.16 538.5,-358.46 865.41,-358.46 326.92,0 634.23,127.3 865.4,358.46 231.17,231.16 358.44,538.5 358.44,865.41 0,326.9 -127.27,634.25 -358.44,865.41 -231.17,231.16 -538.48,358.49 -865.4,358.49zm0 -2437.52c-669.21,0 -1213.65,544.43 -1213.65,1213.62 0,669.19 544.44,1213.65 1213.65,1213.65 669.18,0 1213.63,-544.46 1213.63,-1213.65 0,-669.19 -544.45,-1213.62 -1213.63,-1213.62z"/>
     <path class="fil64" d="M7156.27 5777.46c-566.3,0 -1027.05,-460.72 -1027.05,-1027.03 0,-566.31 460.75,-1027.04 1027.05,-1027.04 566.31,0 1027.01,460.73 1027.01,1027.04 0,566.31 -460.7,1027.03 -1027.01,1027.03zm0 -1990.75c-531.42,0 -963.72,432.33 -963.72,963.72 0,531.39 432.3,963.71 963.72,963.71 531.36,0 963.68,-432.32 963.68,-963.71 0,-531.39 -432.32,-963.72 -963.68,-963.72z"/>
     <path class="fil65" d="M7162.47 5376.54c-32.04,0 -58.15,-17.32 -58.15,-38.69l0 -103.59 -133.58 0c-129.49,0 -238.46,-95.83 -238.46,-225.29l0 -5.95c0,-12.74 14,-24.53 26.72,-24.53l101.59 0c12.76,0 22.87,11.79 22.87,24.53l0 5.95c0,48 39.28,85.78 87.28,85.78l133.58 0 0 -244.15 -133.58 0c-129.49,0 -238.46,-102.62 -238.46,-232.07l0 -126.64c0,-129.46 108.97,-234.22 238.46,-234.22l133.58 0 0 -94.66c0,-21.37 26.11,-38.69 58.15,-38.69 32.06,0 58.14,17.32 58.14,38.69l0 94.66 135.31 0c129.43,0 236.71,104.76 236.71,234.22l0 69.25c0,12.74 -12.28,22.05 -25,22.05l-101.57 0c-12.81,0 -24.57,-9.31 -24.57,-22.05l0 -69.25c0,-48 -37.55,-94.71 -85.57,-94.71l-135.31 0 0 302.28 135.31 0c129.43,0 236.71,111.44 236.71,240.92l0 68.59c0,129.46 -107.28,225.29 -236.71,225.29l-135.31 0 0 103.59c0,21.37 -26.08,38.69 -58.14,38.69zm58.14 -525.94l0 244.15 135.31 0c48.02,0 85.57,-37.78 85.57,-85.78l0 -68.59c0,-48.01 -37.55,-89.78 -85.57,-89.78l-135.31 0zm-249.87 -453.42c-48,0 -87.28,46.71 -87.28,94.71l0 126.64c0,48 39.28,80.93 87.28,80.93l133.58 0 0 -302.28 -133.58 0z"/>
     <path class="fil3" d="M6127.07 1288.22c-2.77,0 -5.08,-2.27 -5.13,-5.08 0,-2.82 2.26,-5.15 5.08,-5.18 20.35,-0.24 40.92,-0.39 61.69,-0.41l0 0c2.81,0 5.12,2.3 5.12,5.12 0,2.83 -2.25,5.13 -5.12,5.13 -20.72,0.03 -41.23,0.17 -61.59,0.42l-0.05 0zm184.97 0.68l-0.1 0c-20.72,-0.41 -41.24,-0.7 -61.65,-0.88 -2.82,-0.01 -5.07,-2.34 -5.07,-5.16 0.05,-2.82 2.31,-5.1 5.13,-5.1l0.05 0c20.41,0.19 40.97,0.47 61.74,0.88 2.83,0.06 5.07,2.39 5.02,5.23 -0.09,2.8 -2.35,5.03 -5.12,5.03zm-308.2 2.01c-2.77,0 -5.02,-2.19 -5.13,-4.96 -0.1,-2.83 2.16,-5.2 4.98,-5.29 20.3,-0.65 40.87,-1.2 61.64,-1.65l0.15 0c2.77,0 5.02,2.22 5.13,5.02 0.05,2.82 -2.21,5.17 -5.03,5.23 -20.76,0.46 -41.28,1.01 -61.58,1.64l-0.16 0.01zm431.43 1.72l-0.21 0c-20.66,-0.85 -41.18,-1.6 -61.59,-2.21 -2.82,-0.09 -5.02,-2.45 -4.93,-5.28 0.07,-2.84 2.42,-5.05 5.24,-4.97 20.46,0.62 41.02,1.36 61.68,2.21 2.83,0.11 5.03,2.5 4.94,5.33 -0.11,2.76 -2.42,4.92 -5.13,4.92zm-554.6 3.41c-2.73,0 -4.98,-2.13 -5.08,-4.86 -0.16,-2.83 2,-5.24 4.82,-5.39 20.25,-1.03 40.82,-1.99 61.63,-2.86 2.88,-0.13 5.24,2.08 5.34,4.9 0.11,2.83 -2.1,5.23 -4.92,5.34 -20.77,0.87 -41.29,1.83 -61.54,2.86l-0.25 0.01zm677.72 3.11l-0.31 -0.01c-20.2,-1.31 -40.87,-2.52 -61.48,-3.62 -2.87,-0.14 -5.03,-2.56 -4.87,-5.38 0.14,-2.84 2.66,-4.91 5.38,-4.86 20.67,1.1 41.39,2.32 61.64,3.63 2.82,0.18 4.98,2.62 4.77,5.45 -0.16,2.71 -2.42,4.79 -5.13,4.79zm-800.75 4.4c-2.66,0 -4.92,-2.07 -5.13,-4.77 -0.2,-2.82 1.95,-5.28 4.77,-5.48 20.11,-1.42 40.67,-2.77 61.54,-4.05 2.82,-0.22 5.28,1.97 5.44,4.81 0.15,2.82 -2.01,5.26 -4.83,5.43 -20.81,1.28 -41.33,2.63 -61.43,4.05l-0.36 0.01zm923.72 5.03l-0.46 -0.03c-20.15,-1.79 -40.82,-3.5 -61.38,-5.08 -2.82,-0.21 -4.97,-2.68 -4.72,-5.5 0.2,-2.83 2.66,-4.9 5.49,-4.72 20.61,1.58 41.33,3.29 61.48,5.09 2.82,0.25 4.92,2.75 4.67,5.56 -0.21,2.67 -2.47,4.68 -5.08,4.68zm-1046.59 4.84c-2.66,0 -4.87,-2.01 -5.13,-4.69 -0.25,-2.81 1.85,-5.31 4.67,-5.56 19.95,-1.8 40.46,-3.55 61.44,-5.23 2.82,-0.24 5.33,1.87 5.54,4.7 0.2,2.82 -1.91,5.3 -4.72,5.52 -20.93,1.68 -41.39,3.43 -61.33,5.23l-0.47 0.03zm1169.25 7.64l-0.61 -0.03c-20.11,-2.31 -40.66,-4.54 -61.23,-6.63 -2.83,-0.29 -4.88,-2.8 -4.57,-5.62 0.26,-2.82 2.77,-4.83 5.59,-4.59 20.62,2.1 41.24,4.34 61.39,6.65 2.82,0.32 4.82,2.86 4.51,5.68 -0.31,2.61 -2.51,4.54 -5.08,4.54zm-1291.91 4.59c-2.61,0 -4.82,-1.94 -5.13,-4.56 -0.3,-2.82 1.75,-5.35 4.57,-5.67 19.74,-2.16 40.2,-4.31 61.33,-6.42 2.87,-0.27 5.34,1.78 5.64,4.6 0.25,2.82 -1.8,5.33 -4.62,5.61 -21.13,2.1 -41.54,4.25 -61.23,6.41l-0.56 0.03zm1414.17 11.14l-0.73 -0.05c-20.25,-2.88 -40.76,-5.67 -61.02,-8.27 -2.82,-0.36 -4.76,-2.93 -4.41,-5.74 0.37,-2.81 2.93,-4.76 5.75,-4.44 20.26,2.62 40.82,5.41 61.12,8.29 2.83,0.4 4.78,3 4.36,5.81 -0.35,2.55 -2.56,4.4 -5.07,4.4zm-1536.58 3.58c-2.56,0 -4.77,-1.88 -5.07,-4.47 -0.37,-2.8 1.59,-5.38 4.41,-5.74 19.28,-2.53 39.68,-5.1 61.23,-7.69 2.82,-0.32 5.33,1.67 5.69,4.48 0.35,2.82 -1.7,5.37 -4.46,5.72 -21.49,2.56 -41.91,5.13 -61.13,7.65l-0.67 0.05zm1658.16 15.55l-0.87 -0.08c-19.84,-3.42 -40.21,-6.77 -60.56,-9.96 -2.77,-0.45 -4.72,-3.08 -4.26,-5.88 0.47,-2.79 3.03,-4.71 5.85,-4.26 20.41,3.21 40.82,6.56 60.72,10 2.77,0.47 4.66,3.13 4.15,5.92 -0.41,2.5 -2.57,4.26 -5.03,4.26zm-1780.2 1.89c-2.52,0 -4.67,-1.81 -5.08,-4.34 -0.42,-2.8 1.49,-5.41 4.25,-5.86 19.8,-3.08 40.31,-6.15 61.08,-9.11 2.76,-0.36 5.39,1.56 5.79,4.37 0.41,2.8 -1.54,5.39 -4.36,5.8 -20.71,2.95 -41.17,6 -60.92,9.08l-0.76 0.06zm1901.08 20.82l-1.09 -0.09c-19.84,-4.06 -40.15,-8.04 -60.25,-11.82 -2.77,-0.52 -4.62,-3.2 -4.11,-5.99 0.52,-2.78 3.19,-4.63 6.01,-4.09 20.16,3.8 40.51,7.78 60.46,11.84 2.77,0.57 4.51,3.28 3.95,6.06 -0.47,2.42 -2.62,4.09 -4.97,4.09zm120.13 26.6l-1.21 -0.14c-19.81,-4.74 -39.97,-9.37 -59.87,-13.78 -2.77,-0.61 -4.58,-3.35 -3.89,-6.11 0.6,-2.77 3.37,-4.51 6.14,-3.9 19.9,4.42 40.14,9.06 60.04,13.8 2.77,0.66 4.42,3.43 3.81,6.19 -0.6,2.35 -2.68,3.94 -5.02,3.94zm119.31 30.71l-1.39 -0.18c-19.55,-5.42 -39.53,-10.76 -59.43,-15.87 -2.77,-0.7 -4.41,-3.49 -3.72,-6.24 0.69,-2.75 3.54,-4.39 6.23,-3.69 19.98,5.13 40.05,10.48 59.69,15.91 2.69,0.76 4.33,3.59 3.55,6.31 -0.61,2.27 -2.68,3.76 -4.93,3.76zm118.09 35.09c-0.43,0 -0.95,-0.08 -1.47,-0.24 -19.29,-6.13 -39.1,-12.21 -58.83,-18.08 -2.77,-0.81 -4.32,-3.66 -3.55,-6.38 0.87,-2.71 3.72,-4.24 6.41,-3.46 19.81,5.89 39.71,12 59,18.15 2.77,0.86 4.24,3.74 3.38,6.44 -0.7,2.18 -2.77,3.57 -4.94,3.57zm116.71 39.76c-0.51,0 -1.12,-0.12 -1.73,-0.32 -19.03,-6.91 -38.5,-13.79 -58.05,-20.44 -2.68,-0.91 -4.15,-3.82 -3.2,-6.51 0.95,-2.68 3.89,-4.13 6.49,-3.2 19.64,6.67 39.19,13.58 58.31,20.51 2.6,0.97 3.98,3.92 3.03,6.57 -0.78,2.09 -2.68,3.39 -4.85,3.39zm114.98 44.65c-0.6,0 -1.29,-0.12 -1.99,-0.38 -18.6,-7.75 -37.89,-15.47 -57.1,-22.93 -2.59,-1.02 -3.97,-4 -2.94,-6.64 1.04,-2.64 3.98,-3.93 6.66,-2.92 19.3,7.5 38.59,15.23 57.36,23.01 2.6,1.08 3.81,4.09 2.77,6.7 -0.86,1.97 -2.68,3.16 -4.76,3.16zm112.82 49.86c-0.78,0 -1.47,-0.17 -2.25,-0.5 -18.34,-8.65 -37.11,-17.24 -55.89,-25.54 -2.68,-1.14 -3.8,-4.17 -2.68,-6.75 1.13,-2.6 4.15,-3.76 6.75,-2.63 18.86,8.33 37.81,16.96 56.23,25.64 2.6,1.22 3.64,4.26 2.43,6.83 -0.87,1.86 -2.68,2.95 -4.59,2.95zm110.14 55.28c-0.78,0 -1.65,-0.19 -2.42,-0.61 -17.91,-9.57 -36.34,-19.08 -54.6,-28.28 -2.51,-1.26 -3.54,-4.35 -2.25,-6.88 1.22,-2.52 4.33,-3.55 6.84,-2.28 18.43,9.23 36.85,18.78 54.85,28.4 2.51,1.34 3.46,4.44 2.16,6.94 -0.95,1.72 -2.77,2.71 -4.58,2.71zm107.11 60.93c-0.96,0 -1.82,-0.24 -2.69,-0.74 -17.3,-10.49 -35.12,-20.95 -53.03,-31.11 -2.42,-1.41 -3.29,-4.54 -1.82,-7 1.39,-2.46 4.5,-3.32 6.92,-1.92 18,10.21 35.82,20.72 53.21,31.26 2.42,1.46 3.2,4.62 1.82,7.04 -1.04,1.59 -2.68,2.47 -4.41,2.47zm103.38 66.72c-1.04,0 -1.99,-0.29 -2.94,-0.89 -16.7,-11.49 -33.83,-22.94 -51.04,-34.02 -2.34,-1.53 -3.12,-4.71 -1.56,-7.09 1.56,-2.39 4.76,-3.06 7.09,-1.53 17.31,11.14 34.52,22.63 51.39,34.17 2.34,1.61 2.95,4.81 1.3,7.14 -1.04,1.45 -2.59,2.22 -4.24,2.22zm99.15 72.61c-1.04,0 -2.16,-0.36 -3.11,-1.08 -16.01,-12.48 -32.45,-24.91 -48.89,-36.95 -2.33,-1.68 -2.76,-4.88 -1.12,-7.18 1.64,-2.27 4.93,-2.77 7.18,-1.09 16.53,12.11 33.05,24.59 49.14,37.12 2.25,1.74 2.6,4.97 0.87,7.21 -1.04,1.29 -2.51,1.97 -4.07,1.97zm94.56 78.63c-1.21,0 -2.42,-0.42 -3.37,-1.28 -15.23,-13.5 -30.89,-26.97 -46.55,-40.03 -2.25,-1.81 -2.51,-5.04 -0.69,-7.22 1.82,-2.17 5.02,-2.48 7.18,-0.66 15.75,13.12 31.58,26.66 46.89,40.23 2.08,1.88 2.25,5.12 0.35,7.24 -0.95,1.14 -2.42,1.72 -3.81,1.72zm89.46 84.72c-1.38,0 -2.68,-0.51 -3.72,-1.52 -14.27,-14.47 -29.07,-28.92 -43.86,-42.98 -2.08,-1.95 -2.17,-5.19 -0.18,-7.24 1.91,-2.06 5.2,-2.15 7.27,-0.2 14.88,14.13 29.76,28.66 44.12,43.21 1.99,2.02 1.91,5.26 -0.08,7.25 -0.95,0.99 -2.34,1.48 -3.55,1.48zm83.49 90.48c-1.38,0 -2.86,-0.61 -3.89,-1.78 -13.33,-15.46 -27.08,-30.88 -40.84,-45.82 -1.99,-2.08 -1.82,-5.32 0.26,-7.24 2.08,-1.92 5.28,-1.79 7.27,0.28 13.84,15.04 27.68,30.53 41.09,46.07 1.82,2.15 1.65,5.39 -0.52,7.24 -1.03,0.84 -2.16,1.25 -3.37,1.25zm77.17 95.94c-1.55,0 -3.11,-0.71 -4.06,-2.06 -12.29,-16.32 -24.92,-32.64 -37.73,-48.49 -1.73,-2.21 -1.38,-5.43 0.87,-7.21 2.16,-1.76 5.36,-1.41 7.18,0.78 12.81,15.94 25.52,32.36 37.9,48.78 1.64,2.25 1.21,5.47 -1.04,7.17 -0.95,0.69 -1.99,1.03 -3.12,1.03zm70.43 100.98c-1.65,0 -3.29,-0.82 -4.33,-2.34 -11.07,-17.14 -22.58,-34.29 -34.26,-50.95 -1.56,-2.32 -1.04,-5.51 1.3,-7.14 2.33,-1.62 5.53,-1.05 7.09,1.27 11.77,16.76 23.36,34 34.52,51.24 1.56,2.38 0.87,5.56 -1.47,7.1 -0.86,0.55 -1.9,0.82 -2.85,0.82zm63.41 105.54c-1.81,0 -3.54,-0.95 -4.5,-2.64 -9.86,-17.83 -20.24,-35.71 -30.71,-53.15 -1.47,-2.43 -0.69,-5.58 1.73,-7.04 2.51,-1.46 5.62,-0.68 7.1,1.76 10.46,17.54 20.93,35.51 30.88,53.45 1.39,2.47 0.52,5.6 -1.99,6.97 -0.78,0.44 -1.64,0.65 -2.51,0.65zm56.24 109.56c-1.9,0 -3.72,-1.08 -4.67,-2.93 -8.65,-18.46 -17.83,-36.99 -27.08,-55.1 -1.3,-2.52 -0.35,-5.62 2.16,-6.91 2.51,-1.32 5.62,-0.3 6.92,2.22 9.35,18.22 18.52,36.85 27.34,55.41 1.13,2.55 0.09,5.6 -2.51,6.81 -0.69,0.34 -1.38,0.5 -2.16,0.5zm49.05 113.02c-2.07,0 -3.98,-1.23 -4.84,-3.24 -3.29,-8.58 -6.75,-17.16 -10.3,-25.78 -4.32,-10.4 -8.74,-20.73 -13.15,-30.98 -1.12,-2.6 0,-5.62 2.68,-6.75 2.51,-1.14 5.54,0.07 6.67,2.66 4.5,10.31 8.91,20.69 13.23,31.16 3.55,8.67 7.01,17.31 10.47,25.93 1.04,2.63 -0.26,5.61 -2.94,6.65 -0.6,0.24 -1.21,0.35 -1.82,0.35zm40.32 116.41c-2.25,0 -4.24,-1.44 -4.84,-3.66 -5.8,-19.29 -12.2,-38.94 -18.95,-58.41 -0.95,-2.67 0.52,-5.6 3.2,-6.52 2.68,-0.94 5.54,0.48 6.49,3.16 6.83,19.6 13.23,39.41 19.03,58.83 0.78,2.72 -0.69,5.57 -3.46,6.38 -0.43,0.15 -0.95,0.22 -1.47,0.22zm29.76 119.56c-2.42,0 -4.58,-1.7 -5.02,-4.15 -3.89,-19.79 -8.47,-39.94 -13.41,-59.87 -0.69,-2.75 0.96,-5.53 3.72,-6.22 2.77,-0.68 5.54,0.98 6.23,3.74 5.02,20.1 9.52,40.41 13.5,60.38 0.52,2.78 -1.3,5.47 -4.07,6.02l-0.95 0.1zm17.31 121.96c-2.69,0 -4.85,-2.01 -5.11,-4.68 -1.73,-20.12 -4.15,-40.63 -7.01,-60.94 -0.43,-2.81 1.56,-5.41 4.42,-5.81 2.76,-0.43 5.36,1.55 5.79,4.35 2.86,20.52 5.28,41.2 7.01,61.52 0.26,2.82 -1.9,5.3 -4.67,5.54l-0.43 0.02zm3.37 123.08l-0.17 -0.01c-2.86,-0.09 -5.02,-2.46 -4.93,-5.29 0.26,-10.88 0.51,-21.93 0.51,-32.82 0,-9.38 -0.17,-18.94 -0.43,-28.41 0,-2.83 2.16,-5.19 5.02,-5.27l0.09 0c2.77,0 5.1,2.21 5.19,4.98 0.26,9.57 0.34,19.23 0.34,28.7 0,11 -0.17,22.16 -0.52,33.15 -0.08,2.78 -2.33,4.97 -5.1,4.97zm-11.59 122.19l-0.78 -0.06c-2.86,-0.45 -4.76,-3.08 -4.24,-5.87 3.11,-20 5.71,-40.39 7.61,-60.6 0.26,-2.82 2.77,-4.86 5.54,-4.63 2.85,0.28 4.93,2.77 4.67,5.59 -1.9,20.43 -4.5,41.03 -7.79,61.25 -0.34,2.53 -2.5,4.32 -5.01,4.32zm-26.82 119.7c-0.44,0 -0.96,-0.07 -1.39,-0.21 -2.77,-0.79 -4.32,-3.63 -3.55,-6.35 5.71,-19.46 10.82,-39.3 15.23,-58.96 0.61,-2.76 3.29,-4.49 6.06,-3.88 2.77,0.62 4.5,3.36 3.89,6.12 -4.41,19.88 -9.6,39.91 -15.31,59.58 -0.69,2.25 -2.68,3.7 -4.93,3.7zm-41.44 115.65c-0.7,0 -1.39,-0.13 -1.99,-0.42 -2.6,-1.11 -3.81,-4.12 -2.69,-6.73 7.96,-18.76 15.49,-37.92 22.32,-56.92 0.96,-2.66 3.9,-4.05 6.58,-3.09 2.68,0.96 4.07,3.9 3.11,6.56 -6.92,19.19 -14.53,38.53 -22.58,57.48 -0.86,1.95 -2.77,3.12 -4.75,3.12zm-54.68 110.08c-0.87,0 -1.73,-0.22 -2.51,-0.67 -2.51,-1.41 -3.38,-4.53 -1.99,-6.99 10.12,-17.8 19.81,-35.99 28.81,-54.03 1.3,-2.55 4.32,-3.58 6.83,-2.32 2.6,1.27 3.64,4.35 2.34,6.88 -9.09,18.22 -18.86,36.56 -29.07,54.53 -0.87,1.67 -2.6,2.6 -4.41,2.6zm-66.19 103.72c-1.04,0 -1.99,-0.31 -2.94,-0.95 -2.25,-1.64 -2.86,-4.84 -1.21,-7.15 11.85,-16.73 23.45,-33.83 34.26,-50.82 1.47,-2.39 4.67,-3.09 7.09,-1.57 2.34,1.52 3.12,4.7 1.56,7.09 -10.9,17.13 -22.49,34.36 -34.52,51.23 -0.95,1.41 -2.59,2.17 -4.24,2.17zm-75.61 97.07c-1.22,0 -2.34,-0.4 -3.38,-1.22 -2.07,-1.84 -2.33,-5.08 -0.52,-7.23 13.33,-15.7 26.39,-31.69 38.76,-47.54 1.73,-2.24 5.02,-2.63 7.18,-0.89 2.25,1.75 2.6,4.97 0.95,7.2 -12.45,15.97 -25.69,32.07 -39.1,47.88 -1.04,1.19 -2.42,1.8 -3.89,1.8zm-83.49 90.53c-1.3,0 -2.6,-0.49 -3.55,-1.49 -2.08,-1.99 -2.08,-5.24 -0.09,-7.25 14.54,-14.62 28.81,-29.54 42.48,-44.33 1.91,-2.09 5.19,-2.21 7.27,-0.29 2.08,1.92 2.16,5.16 0.26,7.24 -13.67,14.89 -28.12,29.9 -42.74,44.61 -0.95,1.01 -2.33,1.51 -3.63,1.51zm-89.72 84.35c-1.47,0 -2.85,-0.59 -3.89,-1.73 -1.91,-2.13 -1.65,-5.37 0.52,-7.24 15.4,-13.63 30.71,-27.53 45.42,-41.32 2.07,-1.94 5.27,-1.84 7.26,0.22 1.91,2.06 1.82,5.32 -0.26,7.26 -14.79,13.86 -30.19,27.85 -45.68,41.54 -0.95,0.85 -2.24,1.27 -3.37,1.27zm-94.91 78.65c-1.56,0 -3.03,-0.68 -4.07,-1.97 -1.73,-2.23 -1.29,-5.46 0.87,-7.2 16.27,-12.68 32.36,-25.66 47.93,-38.55 2.25,-1.81 5.45,-1.5 7.27,0.69 1.73,2.17 1.47,5.4 -0.69,7.22 -15.66,12.94 -31.84,25.98 -48.19,38.72 -0.87,0.73 -1.99,1.09 -3.12,1.09zm-98.97 73.43c-1.65,0 -3.2,-0.76 -4.16,-2.17 -1.64,-2.32 -1.12,-5.52 1.22,-7.15 16.95,-11.96 33.74,-24.08 49.83,-36.03 2.33,-1.69 5.45,-1.2 7.18,1.07 1.73,2.27 1.21,5.49 -1.04,7.17 -16.18,12 -33.05,24.17 -50.09,36.17 -0.87,0.63 -1.9,0.94 -2.94,0.94zm-102.35 68.7c-1.65,0 -3.29,-0.83 -4.33,-2.35 -1.47,-2.4 -0.78,-5.56 1.56,-7.09 17.48,-11.16 34.78,-22.51 51.48,-33.74 2.33,-1.58 5.53,-0.95 7.09,1.41 1.56,2.35 0.95,5.53 -1.38,7.11 -16.79,11.27 -34.18,22.66 -51.65,33.86 -0.87,0.54 -1.82,0.8 -2.77,0.8zm-105.03 64.44c-1.73,0 -3.55,-0.91 -4.42,-2.53 -1.47,-2.44 -0.69,-5.58 1.73,-7.02 17.91,-10.49 35.65,-21.14 52.78,-31.66 2.42,-1.48 5.62,-0.72 7.09,1.7 1.47,2.4 0.7,5.57 -1.64,7.05 -17.3,10.56 -35.13,21.24 -53.03,31.75 -0.78,0.49 -1.65,0.71 -2.51,0.71zm-107.37 60.56c-1.9,0 -3.63,-0.97 -4.59,-2.68 -1.29,-2.49 -0.34,-5.61 2.08,-6.95 18.08,-9.82 36.25,-19.84 53.9,-29.78 2.42,-1.41 5.62,-0.52 7.01,1.94 1.38,2.48 0.52,5.6 -1.99,6.99 -17.65,9.96 -35.82,20.01 -54.08,29.86 -0.77,0.42 -1.55,0.62 -2.33,0.62zm-109.36 57.05c-1.9,0 -3.63,-1.03 -4.58,-2.82 -1.3,-2.52 -0.26,-5.61 2.33,-6.88 18.26,-9.23 36.77,-18.68 54.77,-28.08 2.51,-1.31 5.53,-0.33 6.92,2.18 1.3,2.51 0.35,5.61 -2.16,6.91 -18.09,9.43 -36.6,18.9 -55.03,28.16 -0.69,0.37 -1.47,0.53 -2.25,0.53zm-110.91 53.89c-1.9,0 -3.81,-1.1 -4.67,-2.95 -1.13,-2.57 -0.09,-5.62 2.51,-6.82 18.51,-8.7 37.28,-17.62 55.54,-26.53 2.59,-1.24 5.71,-0.18 6.92,2.38 1.21,2.54 0.17,5.61 -2.34,6.84 -18.42,8.93 -37.2,17.88 -55.8,26.59 -0.69,0.34 -1.38,0.49 -2.16,0.49zm-112.21 50.97c-1.99,0 -3.9,-1.14 -4.76,-3.06 -1.13,-2.59 0.08,-5.62 2.68,-6.76 18.95,-8.31 37.89,-16.77 56.24,-25.11 2.5,-1.19 5.62,-0.03 6.74,2.55 1.22,2.57 0.09,5.62 -2.5,6.78 -18.43,8.37 -37.38,16.84 -56.33,25.17 -0.69,0.29 -1.38,0.43 -2.07,0.43zm-113.43 48.33c-2.07,0 -3.98,-1.2 -4.75,-3.18 -1.13,-2.62 0.08,-5.61 2.76,-6.69 19.04,-7.84 38.07,-15.85 56.76,-23.82 2.68,-1.12 5.71,0.09 6.75,2.71 1.12,2.6 -0.09,5.61 -2.68,6.72 -18.78,7.98 -37.9,16.01 -56.93,23.87 -0.61,0.26 -1.3,0.39 -1.91,0.39zm-114.46 45.88c-2.07,0 -3.98,-1.25 -4.76,-3.27 -1.03,-2.64 0.26,-5.62 2.86,-6.65 19.21,-7.47 38.32,-15.02 57.27,-22.62 2.68,-1.07 5.63,0.22 6.75,2.84 0.95,2.64 -0.26,5.62 -2.94,6.68 -19.03,7.63 -38.15,15.17 -57.36,22.66 -0.61,0.24 -1.21,0.36 -1.82,0.36zm-115.32 43.63c-2.17,0 -4.07,-1.28 -4.85,-3.35 -0.95,-2.67 0.43,-5.61 3.03,-6.59 19.29,-7.11 38.58,-14.29 57.71,-21.53 2.68,-1 5.62,0.33 6.66,2.98 0.95,2.65 -0.35,5.6 -3.03,6.62 -19.12,7.25 -38.42,14.44 -57.79,21.56 -0.61,0.21 -1.22,0.31 -1.73,0.31zm-116.11 41.56c-2.16,0 -4.15,-1.32 -4.84,-3.44 -0.96,-2.68 0.43,-5.6 3.11,-6.53 19.47,-6.78 38.85,-13.62 58.14,-20.51 2.68,-0.96 5.54,0.43 6.57,3.09 0.87,2.67 -0.51,5.6 -3.11,6.56 -19.29,6.91 -38.67,13.75 -58.23,20.55 -0.51,0.19 -1.12,0.28 -1.64,0.28zm-116.79 39.62c-2.14,0 -4.15,-1.35 -4.87,-3.52 -0.86,-2.68 0.57,-5.59 3.29,-6.47 19.53,-6.46 39.02,-12.99 58.41,-19.58 2.66,-0.9 5.58,0.53 6.51,3.22 0.92,2.68 -0.52,5.59 -3.24,6.5 -19.43,6.59 -38.92,13.12 -58.45,19.6 -0.57,0.18 -1.08,0.25 -1.65,0.25zm-117.32 37.85c-2.21,0 -4.21,-1.4 -4.93,-3.59 -0.82,-2.7 0.67,-5.58 3.39,-6.43 19.58,-6.17 39.17,-12.41 58.72,-18.7 2.66,-0.84 5.53,0.62 6.41,3.32 0.86,2.69 -0.62,5.58 -3.29,6.45 -19.54,6.3 -39.12,12.53 -58.76,18.71 -0.52,0.17 -1.03,0.24 -1.54,0.24zm-117.9 36.16c-2.21,0 -4.26,-1.43 -4.92,-3.66 -0.82,-2.71 0.72,-5.56 3.43,-6.37 19.69,-5.9 39.39,-11.87 58.98,-17.87 2.72,-0.84 5.59,0.68 6.4,3.4 0.82,2.7 -0.66,5.57 -3.38,6.4 -19.64,6.03 -39.33,11.98 -59.02,17.88 -0.51,0.15 -1.03,0.22 -1.49,0.22zm-118.16 34.56c-2.24,0 -4.3,-1.48 -4.91,-3.72 -0.82,-2.73 0.76,-5.57 3.49,-6.36 19.69,-5.62 39.38,-11.3 59.02,-17.04 2.66,-0.79 5.54,0.77 6.36,3.5 0.77,2.71 -0.77,5.56 -3.49,6.35 -19.64,5.74 -39.33,11.43 -59.07,17.07 -0.47,0.13 -0.93,0.2 -1.4,0.2zm-118.55 33.07c-2.26,0 -4.31,-1.5 -4.92,-3.79 -0.77,-2.72 0.87,-5.54 3.59,-6.29 19.79,-5.4 39.58,-10.86 59.32,-16.36 2.72,-0.76 5.55,0.83 6.32,3.57 0.76,2.72 -0.88,5.55 -3.6,6.31 -19.74,5.51 -39.53,10.97 -59.38,16.37l-1.33 0.19zm-119.18 31.75c-2.25,0 -4.36,-1.52 -4.92,-3.83 -0.72,-2.73 0.92,-5.54 3.64,-6.26 19.89,-5.18 39.79,-10.42 59.64,-15.71 2.72,-0.75 5.54,0.9 6.26,3.64 0.71,2.74 -0.88,5.54 -3.65,6.28 -19.84,5.28 -39.73,10.53 -59.63,15.72l-1.34 0.16zm-119.73 30.52c-2.26,0 -4.36,-1.57 -4.98,-3.9 -0.66,-2.75 1.02,-5.53 3.74,-6.22 20,-4.97 39.95,-10.01 59.95,-15.09 2.71,-0.72 5.48,0.97 6.21,3.71 0.71,2.74 -0.98,5.54 -3.7,6.24 -19.95,5.08 -39.95,10.11 -59.94,15.1l-1.28 0.16zm-120 29.26c-2.31,0 -4.41,-1.59 -4.98,-3.94 -0.66,-2.76 1.02,-5.53 3.79,-6.18 19.95,-4.76 39.96,-9.58 59.9,-14.44 2.77,-0.69 5.54,1 6.21,3.76 0.67,2.75 -1.03,5.53 -3.75,6.19 -19.99,4.87 -39.99,9.69 -60,14.47l-1.17 0.14zm-120.1 28.05c-2.31,0 -4.42,-1.61 -4.98,-3.98 -0.61,-2.76 1.08,-5.52 3.85,-6.15 19.99,-4.57 40.05,-9.2 60.05,-13.87 2.77,-0.69 5.53,1.06 6.15,3.82 0.67,2.76 -1.03,5.52 -3.79,6.16 -20.05,4.68 -40.1,9.31 -60.11,13.89l-1.17 0.13zm-120.31 26.93c-2.36,0 -4.51,-1.64 -5.02,-4.03 -0.62,-2.76 1.17,-5.51 3.94,-6.11 20.01,-4.4 40.1,-8.84 60.16,-13.33 2.77,-0.6 5.48,1.12 6.1,3.88 0.61,2.77 -1.13,5.52 -3.84,6.13 -20.11,4.5 -40.21,8.94 -60.26,13.34l-1.08 0.12zm-120.56 25.88c-2.41,0 -4.51,-1.66 -5.02,-4.07 -0.57,-2.77 1.17,-5.5 3.94,-6.07 20.11,-4.23 40.21,-8.5 60.31,-12.81 2.77,-0.6 5.49,1.18 6.1,3.94 0.57,2.77 -1.17,5.49 -3.94,6.09 -20.16,4.32 -40.26,8.59 -60.37,12.81l-1.02 0.11zm-120.82 24.87c-2.36,0 -4.5,-1.68 -5.02,-4.11 -0.51,-2.78 1.28,-5.49 4.05,-6.05 20.1,-4.05 40.2,-8.16 60.36,-12.31 2.77,-0.56 5.48,1.22 6.1,4 0.56,2.77 -1.23,5.48 -4,6.05 -20.2,4.16 -40.31,8.26 -60.47,12.32l-1.02 0.1zm-120.96 23.9c-2.42,0 -4.57,-1.7 -5.03,-4.15 -0.52,-2.79 1.28,-5.48 4.05,-6.01 20.15,-3.9 40.31,-7.84 60.51,-11.84 2.77,-0.55 5.48,1.27 6,4.05 0.56,2.77 -1.23,5.48 -4,6.02 -20.21,4 -40.41,7.95 -60.56,11.84l-0.97 0.09zm-121.14 22.98c-2.45,0 -4.61,-1.72 -5.07,-4.18 -0.51,-2.79 1.34,-5.46 4.11,-5.99 20.15,-3.74 40.36,-7.53 60.61,-11.37 2.77,-0.51 5.43,1.31 5.99,4.08 0.52,2.79 -1.33,5.47 -4.1,6 -20.25,3.84 -40.45,7.64 -60.61,11.38l-0.93 0.08zm-121.33 22.11c-2.45,0 -4.61,-1.74 -5.07,-4.22 -0.46,-2.8 1.39,-5.46 4.16,-5.96 20.15,-3.6 40.4,-7.24 60.66,-10.93 2.82,-0.55 5.49,1.33 6,4.12 0.47,2.79 -1.33,5.45 -4.16,5.97 -20.3,3.69 -40.5,7.34 -60.71,10.94l-0.88 0.08zm-121.47 21.25c-2.47,0 -4.62,-1.76 -5.08,-4.26 -0.46,-2.79 1.43,-5.44 4.2,-5.92 20.15,-3.46 40.41,-6.96 60.77,-10.52 2.77,-0.47 5.44,1.38 5.89,4.16 0.52,2.8 -1.37,5.45 -4.15,5.95 -20.31,3.55 -40.61,7.06 -60.77,10.52l-0.86 0.07zm-121.65 20.44c-2.45,0 -4.61,-1.77 -5.02,-4.29 -0.46,-2.8 1.43,-5.43 4.2,-5.89 20.21,-3.33 40.47,-6.7 60.82,-10.13 2.77,-0.47 5.44,1.42 5.9,4.22 0.46,2.79 -1.43,5.43 -4.2,5.91 -20.36,3.41 -40.67,6.79 -60.82,10.12l-0.88 0.06zm-121.73 19.66c-2.47,0 -4.68,-1.8 -5.08,-4.32 -0.41,-2.8 1.49,-5.43 4.25,-5.87 20.21,-3.2 40.52,-6.44 60.93,-9.73 2.72,-0.46 5.38,1.45 5.84,4.25 0.47,2.79 -1.44,5.42 -4.26,5.87 -20.35,3.3 -40.66,6.54 -60.86,9.74l-0.82 0.06zm-121.9 18.89c-2.46,0 -4.67,-1.82 -5.07,-4.36 -0.41,-2.8 1.53,-5.42 4.3,-5.83 20.2,-3.07 40.51,-6.19 60.97,-9.36 2.78,-0.45 5.39,1.48 5.85,4.28 0.41,2.8 -1.49,5.42 -4.31,5.86 -20.41,3.17 -40.77,6.29 -60.97,9.35l-0.77 0.06zm-121.99 18.17c-2.47,0 -4.68,-1.84 -5.03,-4.4 -0.42,-2.8 1.49,-5.39 4.31,-5.8 20.2,-2.95 40.5,-5.94 60.97,-8.99 2.82,-0.43 5.43,1.51 5.85,4.31 0.4,2.79 -1.49,5.41 -4.31,5.83 -20.46,3.05 -40.82,6.05 -61.02,8.99l-0.77 0.06zm-122.1 17.46c-2.52,0 -4.72,-1.85 -5.08,-4.42 -0.37,-2.8 1.59,-5.4 4.41,-5.79 20.15,-2.83 40.51,-5.71 61.02,-8.64 2.77,-0.39 5.39,1.55 5.8,4.35 0.4,2.8 -1.54,5.41 -4.36,5.8 -20.52,2.94 -40.87,5.82 -61.08,8.65l-0.71 0.05zm-122.21 16.77c-2.51,0 -4.71,-1.88 -5.08,-4.45 -0.35,-2.81 1.59,-5.39 4.41,-5.77 20.22,-2.71 40.57,-5.48 61.13,-8.3 2.78,-0.38 5.39,1.58 5.74,4.39 0.42,2.8 -1.58,5.39 -4.36,5.78 -20.56,2.82 -40.97,5.59 -61.12,8.3l-0.72 0.05zm-122.25 16.1c-2.51,0 -4.72,-1.88 -5.08,-4.47 -0.36,-2.81 1.65,-5.38 4.46,-5.74 20.11,-2.6 40.52,-5.25 61.08,-7.97 2.82,-0.38 5.38,1.61 5.8,4.41 0.35,2.81 -1.65,5.38 -4.42,5.76 -20.61,2.71 -41.02,5.38 -61.18,7.97l-0.66 0.04zm-122.3 15.46c-2.51,0 -4.72,-1.91 -5.08,-4.5 -0.31,-2.81 1.64,-5.37 4.46,-5.72l9.02 -1.11c17.19,-2.14 34.57,-4.32 52.1,-6.53 2.83,-0.29 5.39,1.63 5.75,4.44 0.35,2.81 -1.64,5.38 -4.41,5.73 -17.59,2.23 -34.97,4.4 -52.15,6.54l-9.03 1.11 -0.66 0.04zm-122.46 14.46c-2.57,0 -4.78,-1.93 -5.08,-4.55 -0.31,-2.81 1.69,-5.34 4.52,-5.67 20.5,-2.31 40.91,-4.68 61.22,-7.07 2.82,-0.34 5.33,1.68 5.7,4.49 0.3,2.81 -1.7,5.36 -4.52,5.7 -20.25,2.39 -40.71,4.74 -61.28,7.08l-0.56 0.02zm-122.61 13.39c-2.57,0 -4.82,-1.96 -5.08,-4.6 -0.31,-2.81 1.74,-5.34 4.56,-5.63 20.56,-2.16 40.97,-4.36 61.28,-6.58 2.82,-0.26 5.34,1.74 5.64,4.55 0.31,2.82 -1.69,5.34 -4.51,5.66 -20.36,2.21 -40.77,4.4 -61.33,6.57l-0.56 0.03zm-122.67 12.59c-2.62,0 -4.82,-1.98 -5.07,-4.63 -0.32,-2.82 1.74,-5.33 4.56,-5.61 20.56,-2.05 40.97,-4.12 61.33,-6.2 2.82,-0.25 5.34,1.74 5.64,4.57 0.31,2.81 -1.74,5.33 -4.56,5.63 -20.36,2.08 -40.82,4.15 -61.38,6.21l-0.52 0.03zm-122.76 12.01c-2.57,0 -4.82,-1.98 -5.08,-4.63 -0.26,-2.83 1.79,-5.33 4.62,-5.59 20.5,-1.98 40.96,-3.97 61.37,-5.97 2.77,-0.2 5.34,1.79 5.6,4.61 0.25,2.81 -1.8,5.33 -4.62,5.59 -20.35,2.01 -40.82,3.99 -61.38,5.97l-0.51 0.02zm-122.77 11.7c-2.62,0 -4.82,-1.99 -5.08,-4.65 -0.26,-2.83 1.8,-5.33 4.61,-5.59l61.39 -5.81c2.87,-0.36 5.34,1.8 5.59,4.61 0.26,2.82 -1.79,5.33 -4.62,5.59l-61.38 5.82 -0.51 0.03zm-122.75 11.52c-2.61,0 -4.85,-1.99 -5.1,-4.64 -0.26,-2.83 1.81,-5.33 4.63,-5.58l61.39 -5.77c2.81,-0.33 5.32,1.81 5.58,4.62 0.27,2.82 -1.8,5.33 -4.63,5.59l-61.39 5.76 -0.48 0.02zm-122.78 11.56c-2.62,0 -4.85,-1.98 -5.1,-4.64 -0.27,-2.82 1.81,-5.32 4.62,-5.58l61.39 -5.81c2.77,-0.29 5.32,1.8 5.58,4.63 0.27,2.82 -1.8,5.32 -4.62,5.58l-61.38 5.8 -0.49 0.02zm-122.41 11.73c-2.62,0 -4.84,-1.99 -5.1,-4.63 -0.27,-2.82 1.79,-5.33 4.61,-5.6 20.44,-1.98 40.85,-3.95 61.25,-5.9 2.81,-0.3 5.31,1.8 5.58,4.61 0.27,2.82 -1.8,5.33 -4.62,5.6 -20.38,1.94 -40.8,3.92 -61.22,5.9l-0.5 0.02zm-122.64 12.12c-2.6,0 -4.83,-1.97 -5.1,-4.61 -0.28,-2.83 1.78,-5.34 4.59,-5.62 20.47,-2.06 40.92,-4.1 61.35,-6.13 2.83,-0.2 5.34,1.79 5.61,4.61 0.29,2.82 -1.78,5.32 -4.59,5.6 -20.44,2.02 -40.88,4.06 -61.34,6.12l-0.52 0.03zm-122.85 12.68c-2.58,0 -4.82,-1.96 -5.09,-4.6 -0.3,-2.82 1.75,-5.33 4.56,-5.63 20.48,-2.17 40.97,-4.32 61.46,-6.43 2.82,-0.28 5.34,1.76 5.63,4.57 0.29,2.83 -1.76,5.34 -4.58,5.63 -20.47,2.12 -40.94,4.25 -61.43,6.42l-0.55 0.04zm-122.76 13.37c-2.58,0 -4.8,-1.94 -5.09,-4.56 -0.32,-2.82 1.7,-5.35 4.52,-5.67 20.42,-2.29 40.85,-4.56 61.3,-6.77 2.83,-0.33 5.35,1.73 5.65,4.54 0.31,2.81 -1.73,5.34 -4.54,5.65 -20.44,2.23 -40.86,4.48 -61.26,6.77l-0.58 0.04zm-122.49 14.22c-2.56,0 -4.78,-1.91 -5.08,-4.52 -0.35,-2.8 1.65,-5.36 4.47,-5.7 20.38,-2.46 40.81,-4.86 61.25,-7.24 2.83,-0.3 5.36,1.69 5.69,4.51 0.33,2.81 -1.69,5.35 -4.5,5.68 -20.43,2.37 -40.84,4.79 -61.21,7.23l-0.62 0.04zm-122.37 15.28c-2.54,0 -4.74,-1.89 -5.08,-4.48 -0.36,-2.8 1.62,-5.38 4.43,-5.74 20.36,-2.65 40.76,-5.24 61.19,-7.79 2.81,-0.38 5.37,1.65 5.72,4.46 0.35,2.8 -1.64,5.36 -4.46,5.72 -20.4,2.55 -40.79,5.14 -61.13,7.78l-0.67 0.05zm-122.2 16.54c-2.52,0 -4.71,-1.85 -5.07,-4.41 -0.4,-2.82 1.56,-5.4 4.36,-5.8 20.32,-2.87 40.69,-5.68 61.11,-8.44 2.79,-0.37 5.39,1.59 5.77,4.39 0.38,2.8 -1.59,5.39 -4.4,5.77 -20.4,2.76 -40.75,5.56 -61.04,8.44l-0.73 0.05zm-121.99 18c-2.48,0 -4.66,-1.82 -5.06,-4.36 -0.43,-2.79 1.49,-5.41 4.28,-5.85 20.28,-3.12 40.61,-6.19 61.01,-9.2 2.81,-0.43 5.4,1.52 5.82,4.33 0.41,2.8 -1.52,5.41 -4.33,5.82 -20.37,3.01 -40.69,6.06 -60.93,9.19l-0.79 0.07zm-121.72 19.7c-2.45,0 -4.62,-1.76 -5.05,-4.27 -0.47,-2.8 1.41,-5.43 4.2,-5.92 20.21,-3.42 40.49,-6.79 60.86,-10.09 2.8,-0.45 5.43,1.45 5.88,4.24 0.45,2.81 -1.44,5.44 -4.24,5.9 -20.33,3.28 -40.61,6.64 -60.78,10.07l-0.87 0.07zm-121.38 21.68c-2.41,0 -4.57,-1.71 -5.04,-4.17 -0.51,-2.79 1.31,-5.47 4.1,-5.99 20.14,-3.79 40.37,-7.49 60.69,-11.12 2.78,-0.53 5.45,1.35 5.95,4.15 0.49,2.79 -1.37,5.45 -4.15,5.95 -20.3,3.61 -40.5,7.32 -60.6,11.1l-0.95 0.08zm-120.95 23.99c-2.38,0 -4.52,-1.67 -5.02,-4.08 -0.58,-2.78 1.2,-5.5 3.97,-6.07 20.04,-4.19 40.2,-8.3 60.47,-12.3 2.79,-0.57 5.48,1.24 6.03,4.03 0.55,2.77 -1.25,5.47 -4.04,6.02 -20.23,4.01 -40.36,8.1 -60.36,12.28l-1.05 0.12zm-120.4 26.59c-2.32,0 -4.43,-1.59 -4.99,-3.96 -0.65,-2.75 1.07,-5.51 3.83,-6.16 19.68,-4.6 39.91,-9.2 60.18,-13.67 2.77,-0.62 5.51,1.13 6.11,3.89 0.62,2.77 -1.13,5.51 -3.9,6.13 -20.22,4.46 -40.43,9.05 -60.06,13.64l-1.17 0.13zm-119.67 29.65c-2.28,0 -4.35,-1.52 -4.95,-3.82 -0.72,-2.74 0.91,-5.55 3.65,-6.26 19.55,-5.15 39.67,-10.28 59.81,-15.26 2.77,-0.71 5.52,1 6.21,3.75 0.68,2.74 -1,5.53 -3.75,6.21 -20.09,4.97 -40.16,10.1 -59.66,15.22l-1.31 0.16zm-118.73 33.21c-2.22,0 -4.25,-1.44 -4.92,-3.67 -0.8,-2.72 0.74,-5.57 3.47,-6.39 19.37,-5.76 39.33,-11.5 59.3,-17.08 2.73,-0.78 5.57,0.83 6.33,3.55 0.75,2.74 -0.84,5.56 -3.56,6.32 -19.93,5.57 -39.83,11.3 -59.16,17.05 -0.48,0.15 -0.98,0.22 -1.46,0.22zm-117.5 37.28c-2.14,0 -4.13,-1.34 -4.86,-3.47 -0.91,-2.69 0.53,-5.6 3.21,-6.51 19.14,-6.49 38.88,-12.96 58.67,-19.23 2.69,-0.87 5.58,0.63 6.44,3.33 0.86,2.71 -0.64,5.58 -3.34,6.44 -19.72,6.26 -39.4,12.71 -58.47,19.18 -0.54,0.19 -1.1,0.26 -1.65,0.26zm-115.84 42.1c-2.05,0 -3.99,-1.24 -4.78,-3.27 -1.03,-2.63 0.28,-5.61 2.92,-6.63 18.87,-7.36 38.3,-14.68 57.79,-21.74 2.67,-0.96 5.6,0.4 6.57,3.07 0.97,2.66 -0.4,5.6 -3.07,6.56 -19.4,7.05 -38.78,14.33 -57.57,21.66 -0.61,0.24 -1.24,0.35 -1.86,0.35zm-113.62 47.69c-1.95,0 -3.82,-1.12 -4.67,-3.03 -1.18,-2.56 -0.03,-5.59 2.55,-6.76 18.42,-8.31 37.47,-16.61 56.62,-24.66 2.62,-1.12 5.62,0.14 6.71,2.74 1.1,2.61 -0.13,5.61 -2.74,6.73 -19.07,7.96 -38.02,16.27 -56.36,24.52 -0.69,0.31 -1.4,0.46 -2.11,0.46zm-110.58 54.31c-1.84,0 -3.61,-1.02 -4.54,-2.72 -1.33,-2.52 -0.39,-5.64 2.12,-6.97 17.78,-9.44 36.29,-18.92 55.01,-28.1 2.54,-1.24 5.61,-0.21 6.85,2.35 1.26,2.57 0.21,5.64 -2.34,6.87 -18.61,9.13 -37.01,18.51 -54.7,27.95 -0.77,0.42 -1.6,0.62 -2.4,0.62zm-106.42 61.94c-1.7,0 -3.35,-0.82 -4.33,-2.36 -1.52,-2.4 -0.82,-5.59 1.57,-7.07 16.98,-10.87 34.75,-21.64 52.78,-32.15 2.45,-1.44 5.59,-0.62 7.01,1.85 1.42,2.45 0.59,5.58 -1.86,7.01 -17.92,10.42 -35.55,21.14 -52.42,31.9 -0.85,0.56 -1.81,0.82 -2.75,0.82zm-100.63 70.83c-1.54,0 -3.04,-0.72 -4.05,-2.01 -1.74,-2.2 -1.34,-5.43 0.89,-7.17 15.93,-12.42 32.64,-24.77 49.67,-36.77 2.33,-1.65 5.53,-1.03 7.16,1.28 1.63,2.31 1.06,5.48 -1.25,7.13 -16.9,11.89 -33.48,24.15 -49.28,36.45 -0.93,0.72 -2.05,1.09 -3.14,1.09zm-92.7 80.76c-1.32,0 -2.65,-0.51 -3.66,-1.54 -1.98,-2.05 -1.94,-5.28 0.08,-7.28 14.43,-14.1 29.71,-28.2 45.41,-41.9 2.14,-1.84 5.37,-1.58 7.23,0.51 1.87,2.16 1.63,5.39 -0.51,7.24 -15.53,13.54 -30.67,27.48 -44.96,41.48 -0.99,0.98 -2.29,1.49 -3.59,1.49zm-81.97 91.44c-1.1,0 -2.22,-0.36 -3.15,-1.08 -2.23,-1.75 -2.63,-4.98 -0.88,-7.18 12.48,-16.05 25.83,-31.95 39.67,-47.39 1.9,-2.1 5.13,-2.25 7.24,-0.35 2.11,1.89 2.29,5.13 0.39,7.23 -13.68,15.23 -26.88,30.97 -39.22,46.81 -1.03,1.29 -2.52,1.96 -4.05,1.96zm-68.21 102.04c-0.87,0 -1.72,-0.2 -2.52,-0.66 -2.47,-1.39 -3.34,-4.52 -1.95,-6.97 10.01,-17.75 20.91,-35.49 32.39,-52.62 1.57,-2.36 4.76,-2.97 7.11,-1.39 2.35,1.54 2.98,4.77 1.41,7.08 -11.33,16.97 -22.09,34.41 -31.98,51.95 -0.94,1.69 -2.68,2.61 -4.46,2.61zm-51.72 111.18c-0.6,0 -1.21,-0.11 -1.79,-0.3 -2.66,-1.03 -4.01,-3.96 -3.02,-6.62 7.17,-19.24 15.19,-38.42 23.82,-56.97 1.21,-2.57 4.26,-3.7 6.82,-2.47 2.57,1.19 3.69,4.21 2.49,6.77 -8.53,18.36 -16.44,37.29 -23.52,56.26 -0.77,2.05 -2.73,3.33 -4.8,3.33zm-33.8 117.84l-1.04 -0.1c-2.78,-0.56 -4.56,-3.28 -3.99,-6.05 4.16,-20.2 9.12,-40.36 14.73,-59.95 0.78,-2.71 3.61,-4.3 6.34,-3.53 2.73,0.76 4.3,3.63 3.53,6.35 -5.55,19.33 -10.45,39.28 -14.56,59.23 -0.49,2.41 -2.63,4.05 -5.01,4.05zm-16.17 121.79l-0.32 0c-2.83,-0.2 -4.98,-2.61 -4.81,-5.43 1.33,-20.77 3.34,-41.49 6,-61.59 0.37,-2.82 2.97,-4.77 5.75,-4.41 2.81,0.36 4.79,2.93 4.41,5.74 -2.62,19.9 -4.61,40.41 -5.91,60.87 -0.18,2.72 -2.43,4.82 -5.12,4.82zm-0.12 123.13c-2.7,0 -4.96,-2.1 -5.13,-4.82 -1.2,-20.77 -1.81,-41.54 -1.81,-61.74 0,-2.82 2.29,-5.19 5.12,-5.19 2.84,0 5.13,2.21 5.13,5.03l0 0.16c0,20 0.61,40.56 1.81,61.12 0.16,2.82 -2,5.29 -4.83,5.44l-0.29 0zm13.62 122.41c-2.47,0 -4.64,-1.79 -5.05,-4.31 -3.33,-20.57 -6.16,-41.18 -8.42,-61.28 -0.31,-2.82 1.71,-5.33 4.53,-5.64 2.75,-0.31 5.34,1.69 5.66,4.51 2.24,19.95 5.05,40.36 8.35,60.77 0.45,2.82 -1.45,5.43 -4.25,5.89l-0.82 0.06zm25 120.66c-2.3,0 -4.38,-1.59 -4.97,-3.89 -5.06,-20.21 -9.73,-40.52 -13.83,-60.26 -0.58,-2.77 1.21,-5.49 3.98,-6.06 2.77,-0.61 5.49,1.19 6.07,3.96 4.07,19.64 8.69,39.79 13.73,59.84 0.69,2.77 -0.98,5.54 -3.73,6.25l-1.25 0.16zm34.29 118.3c-2.15,0 -4.16,-1.33 -4.87,-3.48 -6.47,-19.8 -12.61,-39.65 -18.24,-59.08 -0.79,-2.71 0.77,-5.53 3.49,-6.36 2.73,-0.77 5.57,0.83 6.36,3.54 5.6,19.29 11.69,39.03 18.14,58.67 0.87,2.72 -0.59,5.59 -3.28,6.45 -0.53,0.21 -1.07,0.26 -1.6,0.26zm41.87 115.9c-2.05,0 -3.98,-1.23 -4.78,-3.24 -7.63,-19.37 -14.98,-38.81 -21.84,-57.79 -0.96,-2.66 0.42,-5.59 3.08,-6.56 2.67,-0.92 5.61,0.41 6.57,3.07 6.83,18.87 14.14,38.21 21.73,57.55 1.04,2.61 -0.25,5.59 -2.89,6.61 -0.61,0.26 -1.25,0.36 -1.87,0.36zm48.09 113.48c-1.95,0 -3.82,-1.12 -4.67,-3.02 -8.54,-18.87 -16.89,-37.9 -24.81,-56.56 -1.1,-2.62 0.12,-5.6 2.72,-6.72 2.61,-1.08 5.63,0.1 6.72,2.71 7.89,18.57 16.2,37.54 24.71,56.31 1.17,2.62 0.03,5.64 -2.55,6.82 -0.69,0.31 -1.41,0.46 -2.12,0.46zm53.28 111.07c-1.88,0 -3.68,-1.02 -4.59,-2.81 -9.36,-18.51 -18.54,-37.18 -27.27,-55.33 -1.22,-2.57 -0.15,-5.64 2.41,-6.87 2.55,-1.24 5.61,-0.16 6.84,2.4 8.7,18.15 17.84,36.72 27.18,55.18 1.28,2.56 0.26,5.64 -2.27,6.92 -0.74,0.37 -1.52,0.51 -2.3,0.51z"/>
     <polygon class="fil46" points="4994.38,1294.94 5038.58,1421.37 4933.97,1396.95 "/>
     <path class="fil2" d="M4400.5 1421.16l446.14 180.1c8.57,3.45 18.1,3.27 26.51,-0.49 8.41,-3.76 14.92,-10.78 18.06,-19.45l163.94 -454.75c1.89,-5.2 0.41,-11.03 -3.7,-14.72 -4.15,-3.7 -10.09,-4.52 -15.07,-2.09l-635.88 311.4z"/>
     <polygon class="fil46" points="4994.33,1294.97 4400.5,1421.16 4968.12,1368.44 4981.87,1402.98 "/>
     <polygon class="fil46" points="4952.23,1411.88 5038.58,1421.37 4968.12,1368.44 "/>
    </g>
   </g>
  </g>
  <polygon class="fil66" points="-0,0.23 10000,0.23 10000,8483.82 -0,8483.82 "/>
 </g>
</svg>
