<?xml version="1.0" encoding="UTF-8"?>
<!DOCTYPE svg PUBLIC "-//W3C//DTD SVG 1.1//EN" "http://www.w3.org/Graphics/SVG/1.1/DTD/svg11.dtd">
<!-- Creator: CorelDRAW 2018 (64 Bit Versão de avaliação) -->
<svg xmlns="http://www.w3.org/2000/svg" xml:space="preserve" width="24.1242mm" height="24.1242mm" version="1.1" shape-rendering="geometricPrecision" text-rendering="geometricPrecision" image-rendering="optimizeQuality" fill-rule="evenodd" clip-rule="evenodd"
viewBox="0 0 2571.34 2571.34"
 xmlns:xlink="http://www.w3.org/1999/xlink">
 <g id="Camada_x0020_1">
  <metadata id="CorelCorpID_0Corel-Layer"/>
  <path fill="#F51E33" d="M1285.67 0c710.06,0 1285.67,575.62 1285.67,1285.67 0,710.06 -575.62,1285.67 -1285.67,1285.67 -710.06,0 -1285.67,-575.62 -1285.67,-1285.67 0,-710.06 575.62,-1285.67 1285.67,-1285.67zm354.16 1284.03c-40.18,63.7 -161.45,117.23 -101.84,176.09 39.08,38.58 79.56,-9.43 96.87,-26.8 26.42,-26.47 51.74,-53.46 78.42,-77.71 70.22,62.31 120.48,150.7 173.5,105.87 44.17,-37.34 -8.75,-83.84 -25.59,-100.63 -23.8,-23.74 -56.19,-52.54 -75.76,-76.83 49.79,-61.22 160.71,-127.38 101.4,-177.5 -41.87,-35.36 -76.93,10.06 -96.49,29.79 -25.54,25.73 -50.94,53.1 -77.03,76.12 -63.6,-57.83 -122.53,-150.33 -172.9,-106.84 -66.35,57.32 61.36,116.96 99.44,178.43zm-576.1 -541.7c-147.67,28.52 -274.6,163 -241.57,347.2 25.89,144.34 169.8,273.29 349.11,238.64 143.17,-27.67 271.71,-166.87 237.02,-349.88 -26.79,-141.24 -167.85,-270.1 -344.56,-235.95zm-176.5 692.99c-147.86,19.37 -219.09,132.24 -219.59,263.86 -0.63,168.43 -17.31,132.04 356.11,132.16 108.84,0.04 217.68,-0.02 326.52,-0.03 213.5,0 212.75,21.31 213.04,-108.8 0.25,-118.38 -27.46,-175.08 -89.47,-230.88 -69.72,-62.74 -153.56,-58.22 -263.51,-58.29 -90.01,-0.05 -241.03,-8.76 -323.1,1.99z"/>
 </g>
</svg>
