<?xml version="1.0" encoding="UTF-8"?>
<!DOCTYPE svg PUBLIC "-//W3C//DTD SVG 1.1//EN" "http://www.w3.org/Graphics/SVG/1.1/DTD/svg11.dtd">
<!-- Creator: CorelDRAW 2018 (64 Bit Versão de avaliação) -->
<svg xmlns="http://www.w3.org/2000/svg" xml:space="preserve" width="24.113mm" height="24.113mm" version="1.1" shape-rendering="geometricPrecision" text-rendering="geometricPrecision" image-rendering="optimizeQuality" fill-rule="evenodd" clip-rule="evenodd"
viewBox="0 0 2411.3 2411.3"
 xmlns:xlink="http://www.w3.org/1999/xlink">
 <g id="Camada_x0020_1">
  <metadata id="CorelCorpID_0Corel-Layer"/>
  <path fill="#6699FF" d="M1205.65 0c665.84,0 1205.65,539.81 1205.65,1205.65 0,665.84 -539.81,1205.65 -1205.65,1205.65 -665.84,0 -1205.65,-539.81 -1205.65,-1205.65 0,-665.84 539.81,-1205.65 1205.65,-1205.65zm-446.62 692.79l893.09 0c49.61,0 94.63,20.22 127.32,52.91 32.69,32.69 52.91,77.71 52.91,127.32l0 665.27c0,49.61 -20.22,94.63 -52.91,127.32 -32.69,32.69 -77.71,52.91 -127.32,52.91l-893.09 0c-49.61,0 -94.63,-20.22 -127.32,-52.91 -32.69,-32.69 -52.91,-77.71 -52.91,-127.32l0 -665.27c0,-49.61 20.22,-94.63 52.91,-127.32 32.69,-32.69 77.71,-52.91 127.32,-52.91zm877.75 114.13l-870.01 0 435 435.86 435 -435.86 0.01 0zm-943.84 87.03l0 635.59 302.38 -332.63 -302.38 -302.95 0 -0.01zm85.88 710.43l853.81 0 -300.8 -330.91 -129.9 130.19 -125.88 -126.17 -297.08 326.75 -0.15 0.14zm939.54 -74.84l0 -643.33 -306.11 306.68 306.11 336.65z"/>
 </g>
</svg>
