<?xml version="1.0" encoding="UTF-8"?>
<!DOCTYPE svg PUBLIC "-//W3C//DTD SVG 1.1//EN" "http://www.w3.org/Graphics/SVG/1.1/DTD/svg11.dtd">
<!-- Creator: CorelDRAW 2018 (64 Bit Versão de avaliação) -->
<svg xmlns="http://www.w3.org/2000/svg" xml:space="preserve" width="49.9998mm" height="50mm" version="1.1" style="shape-rendering:geometricPrecision; text-rendering:geometricPrecision; image-rendering:optimizeQuality; fill-rule:evenodd; clip-rule:evenodd"
viewBox="0 0 5005.11 5005.13"
 xmlns:xlink="http://www.w3.org/1999/xlink">
 <defs>
  <style type="text/css">
   <![CDATA[
    .fil0 {fill:white}
   ]]>
  </style>
 </defs>
 <g id="Camada_x0020_1">
  <metadata id="CorelCorpID_0Corel-Layer"/>
  <path class="fil0" d="M661 2233.81l1115.54 0 248.27 0 0 -695.32c0,-18.64 61.33,-13.18 84.61,0l1668.89 945.63c23.25,13.17 23.25,34.76 0,47.93l-1668.89 945.64c-23.27,13.19 -84.61,18.64 -84.61,0l0 -695.32 -248.27 0 -1115.54 0c-18.88,0 -34.33,-15.26 -34.33,-33.9l0 -480.74c0,-18.65 15.45,-33.9 34.33,-33.9z"/>
  <path class="fil0" d="M2470.55 0c1399.79,0 2534.56,1120.45 2534.56,2502.55 0,1382.13 -1134.76,2502.57 -2534.56,2502.57 -1197.99,0 -2201.73,-820.74 -2466.27,-1923.79l578.55 0c249.75,795 1000.44,1372.41 1887.71,1372.41 1091.39,0 1976.13,-873.57 1976.13,-1951.19 0,-1077.59 -884.75,-1951.17 -1976.13,-1951.17 -893.85,0 -1648.95,586.04 -1893.06,1390.16l-577.49 0c257.94,-1112 1266.13,-1941.55 2470.55,-1941.55z"/>
 </g>
</svg>
