<?xml version="1.0" encoding="UTF-8"?>
<!DOCTYPE svg PUBLIC "-//W3C//DTD SVG 1.1//EN" "http://www.w3.org/Graphics/SVG/1.1/DTD/svg11.dtd">
<!-- Creator: CorelDRAW 2018 (64 Bit Versão de avaliação) -->
<svg xmlns="http://www.w3.org/2000/svg" xml:space="preserve" width="24.113mm" height="24.113mm" version="1.1" shape-rendering="geometricPrecision" text-rendering="geometricPrecision" image-rendering="optimizeQuality" fill-rule="evenodd" clip-rule="evenodd"
viewBox="0 0 2411.3 2411.3"
 xmlns:xlink="http://www.w3.org/1999/xlink">
 <g id="Camada_x0020_1">
  <metadata id="CorelCorpID_0Corel-Layer"/>
  <path fill="#666666" d="M1205.65 0c665.84,0 1205.65,539.81 1205.65,1205.65 0,665.84 -539.81,1205.65 -1205.65,1205.65 -665.84,0 -1205.65,-539.81 -1205.65,-1205.65 0,-665.84 539.81,-1205.65 1205.65,-1205.65zm-374.09 741.82l0 239.09c0,29.26 25.14,52.6 62.17,52.6 26.3,0 52.6,-26.3 52.6,-52.6l0 -176.93 612.07 0 0 803.34 -612.07 0 0 -176.93c0,-29.26 -25.13,-52.6 -62.17,-52.6 -26.3,0 -52.6,26.3 -52.6,52.6l0 239.09c0,26.31 26.3,52.6 52.6,52.6l736.4 0c26.3,0 52.6,-26.29 52.6,-52.6l0 -927.66c0,-26.31 -26.3,-52.6 -52.6,-52.6l-736.4 0c-26.3,0 -52.6,26.29 -52.6,52.6zm-382.54 459.05c0,38.99 19.23,49.11 46.03,75.91l112.37 112.37c26.79,26.8 36.92,46.03 75.91,46.03 29.26,0 52.6,-25.14 52.6,-62.17 0,-38.32 -69.39,-81.49 -88.47,-109.98 33.23,0 656.96,2.23 673.73,-0.51 59.38,-9.7 62.53,-100.4 2,-113.36 -15.74,-3.36 -643.72,-0.89 -675.73,-0.89 26.38,-39.39 88.47,-63.12 88.47,-119.55 0,-29.26 -25.13,-52.6 -62.17,-52.6 -27.49,0 -51.04,30.72 -66.34,46.03l-112.37 112.37c-15.31,15.31 -46.03,38.86 -46.03,66.35z"/>
 </g>
</svg>
