<?xml version="1.0" encoding="UTF-8"?>
<!DOCTYPE svg PUBLIC "-//W3C//DTD SVG 1.1//EN" "http://www.w3.org/Graphics/SVG/1.1/DTD/svg11.dtd">
<!-- Creator: CorelDRAW 2018 (64 Bit Versão de avaliação) -->
<svg xmlns="http://www.w3.org/2000/svg" xml:space="preserve" width="63.4266mm" height="54.1427mm" version="1.1" style="shape-rendering:geometricPrecision; text-rendering:geometricPrecision; image-rendering:optimizeQuality; fill-rule:evenodd; clip-rule:evenodd"
viewBox="0 0 2139.44 1826.28"
 xmlns:xlink="http://www.w3.org/1999/xlink">
 <defs>
  <style type="text/css">
   <![CDATA[
    .fil4 {fill:#F3786E;fill-rule:nonzero}
    .fil0 {fill:#E5E6E5;fill-rule:nonzero}
    .fil1 {fill:#D9DAD9;fill-rule:nonzero}
    .fil5 {fill:#42616A;fill-rule:nonzero}
    .fil17 {fill:#38404A;fill-rule:nonzero}
    .fil21 {fill:#3D4652;fill-rule:nonzero}
    .fil7 {fill:#4C5765;fill-rule:nonzero}
    .fil9 {fill:#6694D8;fill-rule:nonzero}
    .fil11 {fill:#6C9DE4;fill-rule:nonzero}
    .fil8 {fill:#72A5F0;fill-rule:nonzero}
    .fil10 {fill:#77ADFC;fill-rule:nonzero}
    .fil19 {fill:#8F7D84;fill-rule:nonzero}
    .fil23 {fill:#99CEF2;fill-rule:nonzero}
    .fil18 {fill:#9A878E;fill-rule:nonzero}
    .fil25 {fill:#B9E0FE;fill-rule:nonzero}
    .fil22 {fill:#BFE3FC;fill-rule:nonzero}
    .fil14 {fill:#C1D8F9;fill-rule:nonzero}
    .fil20 {fill:#C2D4E6;fill-rule:nonzero}
    .fil29 {fill:#D3C8CA;fill-rule:nonzero}
    .fil12 {fill:#D5E6FE;fill-rule:nonzero}
    .fil24 {fill:#D9EEFE;fill-rule:nonzero}
    .fil28 {fill:#E6DADC;fill-rule:nonzero}
    .fil13 {fill:#EAF2FF;fill-rule:nonzero}
    .fil15 {fill:#F3F3F3;fill-rule:nonzero}
    .fil27 {fill:#FC7A60;fill-rule:nonzero}
    .fil26 {fill:#FC947F;fill-rule:nonzero}
    .fil16 {fill:#FF6260;fill-rule:nonzero}
    .fil6 {fill:#FF9966;fill-rule:nonzero}
    .fil3 {fill:#FFB48F;fill-rule:nonzero}
    .fil2 {fill:#FFC2A4;fill-rule:nonzero}
    .fil31 {fill:#FFD7CF;fill-rule:nonzero}
    .fil30 {fill:#FFF1EE;fill-rule:nonzero}
   ]]>
  </style>
    <clipPath id="id0">
     <path d="M1944.57 1631.6l-251.98 0c0,0 -64.76,-86 -106.02,-167.63l111.14 0c4.62,9.35 7.3,15.14 7.3,15.14 0,0 -2.19,-5.43 -5.84,-15.14l309.92 0c-32.38,93.29 -64.51,167.63 -64.51,167.63l0 0z"/>
    </clipPath>
    <clipPath id="id1">
     <path d="M750.36 1631.6l-91.5 0c0,0 -65.5,-87.01 -47.42,-108.49 2.25,-2.66 4.81,-3.87 7.49,-3.87 18.57,0 44.44,56.99 44.44,56.99 0,0 -26.54,-66.39 -32.26,-112.26l44.68 0c6.76,22.53 11.38,49.79 14.24,70.96 -1.89,-19.81 -3.84,-45.72 -4.08,-70.96l54.06 0c-0.61,10.71 -1.58,21.62 -2.8,32.09 3.22,-11.47 7.06,-22.63 11.63,-32.09l48.76 0c2.07,53.56 -47.24,167.63 -47.24,167.63zm-56.49 -62.16l0 0 0 0 0 0z"/>
    </clipPath>
    <clipPath id="id2">
     <path d="M174.8 1631.6l-91.5 0c0,0 -65.57,-87.01 -47.49,-108.49 2.31,-2.66 4.81,-3.87 7.49,-3.87 18.57,0 44.5,56.99 44.5,56.99 0,0 -26.54,-66.39 -32.26,-112.26l44.62 0c6.82,22.53 11.38,49.79 14.24,70.96 -1.89,-19.81 -3.77,-45.72 -4.08,-70.96l54.12 0c-0.61,10.71 -1.58,21.62 -2.8,32.09 3.17,-11.47 7.06,-22.63 11.57,-32.09l48.82 0c2.01,53.56 -47.24,167.63 -47.24,167.63zm-56.49 -62.16l0 0 0 0 0 0z"/>
    </clipPath>
 </defs>
 <g id="Camada_x0020_1">
  <metadata id="CorelCorpID_0Corel-Layer"/>
  <g id="_2547367626304">
   <path class="fil0" d="M1519.1 1311.31l-4.66 -0.1c-552.03,-163.34 -195.98,-403.07 -168.01,-452.01 28,-49 -79.34,-56 -91.01,-133.01 -11.67,-77 67.67,-77 149.34,-102.68 81.67,-25.67 -14,-81.67 -72.34,-193.68 -58.34,-112.01 121.34,-107.34 84,-198.34 -37.33,-91.01 7,-224.01 107.34,-231.02 4.61,-0.32 9.03,-0.47 13.28,-0.47 88.32,0 101.39,68.74 108.06,177.82 7,114.34 67.67,30.33 135.34,142.34 67.67,112.01 -58.34,179.67 -84.01,254.34 -25.67,74.68 140.01,11.67 165.68,95.68 25.67,84 -156.34,186.67 -172.68,256.68 -10.29,44.09 54.41,29.86 94.38,54.69 -13.52,47.58 -17.48,116.41 -16.75,187.13 -6.7,8.33 -13.95,16.24 -21.61,23.76 -20.56,-76.9 -49.44,-140.37 -88.75,-140.37 -2.54,0 -5.1,0.26 -7.72,0.8 -51.75,10.65 -39.46,112.91 -13.4,214.59 -55.52,27.38 -105.32,40.97 -116.5,43.84z"/>
   <path class="fil0" d="M2009.02 1463.96l-309.9 0c-12.55,-32.91 -42.51,-114.51 -63.52,-196.49 37.38,-18.44 77.35,-43.12 109.87,-75.02 15.25,57.05 25.93,121.5 32.89,172.89 -5.22,-54.86 -10.55,-126.69 -11.28,-196.65 19.44,-24.14 34.3,-51.77 41.37,-83.14 13.82,-61.32 -1.13,-89.4 -24.62,-103.99 11.03,-38.81 28.42,-63.47 54.81,-63.47 3.04,0 6.2,0.33 9.49,1 79.11,16.18 77.18,191.33 60.25,339.31 23.7,-85 60.25,-163.63 112.99,-163.63 4.37,0 8.85,0.54 13.44,1.66 78.58,19.17 26.1,217.8 -25.78,367.52zm-220.01 -3.5l0 0zm-91.26 3.5l-111.17 0c-27.59,-54.65 -44.65,-107.37 -24.69,-131.06 6.26,-7.44 13.22,-10.69 20.59,-10.69 41.36,0 95.86,102.39 115.28,141.75z"/>
   <g style="clip-path:url(#id0)">
    <image x="1582.06" y="1459.24" width="429.45" height="177.44" xlink:href="modernity_Images\modernity_ImgID1.png"/>
   </g>
   <path class="fil1" d="M1635.6 1267.47c-26.06,-101.68 -38.36,-203.94 13.4,-214.59 2.62,-0.54 5.18,-0.8 7.72,-0.8 39.31,0 68.2,63.47 88.75,140.37 -32.53,31.9 -72.49,56.59 -109.87,75.02zm131.48 -98.78c-0.73,-70.72 3.23,-139.55 16.75,-187.13 23.49,14.59 38.44,42.67 24.62,103.99 -7.07,31.37 -21.94,59 -41.37,83.14z"/>
   <path class="fil2" d="M1220.13 658.28c0,0 113.1,132.25 114.84,135.74 1.74,3.48 -91.32,124.85 -91.32,124.85l9.57 37.45 29.61 18.29 14.8 -23.52c0,0 -19.16,3.49 -18.29,7.84 0,0 -3.48,-40.06 -8.7,-46.15l122.67 -108.31 -108.74 -170.13 -64.44 23.95z"/>
   <path class="fil3" d="M1422.14 1188.2l65.76 184.7 201.32 9.02 21.37 -77.63c0,0 24.22,59.11 2.85,94.73l-257.82 28.49 -82.85 -197.04 49.38 -42.26z"/>
   <path class="fil4" d="M1469.26 1289.98l-71.34 44.54c0,0 -85.46,-127.8 -32.26,-172.17 53.2,-44.36 103.6,127.63 103.6,127.63z"/>
   <path class="fil5" d="M1354.48 1121.26c0,0 -66.95,11.4 -88.31,84.04 -21.37,72.65 -17.09,317.65 -17.09,317.65l139.59 11.39c0,0 67.12,-263.56 13.61,-396l-47.8 -17.07z"/>
   <path class="fil2" d="M1369.05 1158.35l0 0c-14.71,-3.66 -23.67,-18.54 -20.02,-33.24l11.77 -47.4 53.25 13.22 -11.77 47.4c-3.65,14.7 -18.53,23.67 -33.23,20.02z"/>
   <polygon class="fil3" points="1410.21,1106.42 1352.17,1112.46 1359.3,1083.75 1412.55,1096.97 "/>
   <path class="fil2" d="M1507.15 1010.6c-15.38,62.68 -53.95,105.06 -120.48,90.76 -51.5,-11.07 -80.16,-73.55 -64.77,-136.23 15.39,-62.67 50.68,-105.06 120.48,-90.75 51.6,10.58 80.15,73.55 64.76,136.22z"/>
   <path class="fil6" d="M1425.23 1030.96c3.29,11.98 10.79,23.58 24.11,25.25 11.9,1.49 21.71,-5.67 26.19,-16.32 1.16,-2.76 -3.35,-3.97 -4.5,-1.24 -4.49,10.69 -16.84,16.59 -27.62,10.98 -7.62,-3.97 -11.5,-11.98 -13.67,-19.91 -0.79,-2.89 -5.3,-1.67 -4.5,1.24z"/>
   <path class="fil4" d="M1408.01 969.5c6.07,-11.6 20.43,-16.1 32.03,-10.03 11.6,6.07 16.1,20.44 10.04,32.04 -6.07,11.6 -20.44,16.09 -32.04,10.02 -11.6,-6.06 -16.1,-20.43 -10.03,-32.03zm72.71 12.12c6.07,-11.6 20.43,-16.1 32.03,-10.03 11.6,6.07 16.1,20.44 10.03,32.03 -6.06,11.6 -20.43,16.1 -32.03,10.03 -11.6,-6.07 -16.1,-20.44 -10.03,-32.04zm-78.23 -15.01c-7.66,14.64 -1.98,32.78 12.66,40.45 14.64,7.65 32.79,1.97 40.44,-12.67 1.37,-2.61 2.16,-5.35 2.71,-8.09l13.94 1.92c-1.82,12.26 4.03,24.89 15.62,30.95 14.64,7.66 32.78,1.97 40.44,-12.67 7.65,-14.64 1.98,-32.78 -12.66,-40.44 -14.65,-7.66 -32.79,-1.97 -40.44,12.67 -0.58,1.11 -0.94,2.27 -1.37,3.41l-14.97 -2.06c-0.17,-10.63 -5.87,-20.87 -15.93,-26.13 -14.64,-7.66 -32.78,-1.98 -40.44,12.66z"/>
   <path class="fil5" d="M1379.2 978.56c0,0 34.65,-12.52 35.05,-58.52 0,0 111.95,50.72 143.98,-47.87 0,0 -40.2,20.71 -59.84,10.02 0,0 22.93,-25.68 21.24,-51.38 0,0 -32.61,26.74 -59.17,21.27 -26.56,-5.47 -122.59,-22.64 -144.82,60.54 0,0 -33.28,15.5 -27.78,48.43 5.5,32.93 26.3,77.94 47.24,102.66 0,0 22.28,-28.72 21.36,-47.04 0,0 -33.38,-21.22 -21.88,-48.75 11.49,-27.53 51.03,-36.66 44.64,10.65z"/>
   <polygon class="fil7" points="1699.9,1381.92 1454.19,1421.1 1450.63,1391.18 1680.67,1356.29 1735.51,1134.79 1766.85,1143.34 "/>
   <path class="fil2" d="M1625.6 1352.97l47.48 13.29 19 -9.5 -60.78 -39.88 -218.41 78.82 -59.82 -132.95 -53.19 28.49 87.37 169.98 207.02 -92.11c0,0 21.83,5.69 31.33,-16.14z"/>
   <path class="fil4" d="M1384.39 1313.08l-75.97 36.08c0,0 -70.27,-136.74 -12.34,-174.72 57.93,-37.98 88.31,138.64 88.31,138.64z"/>
   <polygon class="fil2" points="2014.02,1691.59 2114.21,1690.05 2090.03,1641.04 2002.56,1644.7 "/>
   <path class="fil5" d="M2063.86 1641.76c0,0 37.32,39.44 24.18,49.01l37.11 7.62c6.07,1.25 12,-2.71 13.17,-8.8l0.95 -178.64c1.72,-8.96 -9.28,-14.59 -15.57,-7.98 -15.73,16.53 -25.8,54.09 -59.83,138.78z"/>
   <path class="fil8" d="M1338.81 1693.88l715.06 0 0 -54.13c0,0 -675.18,-61.25 -675.18,-56.97 0,4.27 -39.88,111.11 -39.88,111.11z"/>
   <path class="fil9" d="M2052.04 1664.04l-693.22 -20.89c-1.27,-0.04 -2.33,0.96 -2.36,2.23 -0.04,1.27 0.96,2.33 2.23,2.37l693.22 20.89c1.27,0.04 2.33,-0.96 2.36,-2.23 0.04,-1.27 -0.96,-2.33 -2.23,-2.37z"/>
   <polygon class="fil2" points="1774.3,1669.96 1825.57,1756.05 1856.01,1710.65 1809.23,1636.66 "/>
   <path class="fil5" d="M1842.34 1688.33c0,0 -15.6,52.01 -30.45,45.4l11.89 35.97c1.95,5.88 8.33,9.04 14.19,7.03l155.33 -88.23c8.63,-2.97 8.02,-15.32 -0.84,-17.48 -22.17,-5.4 -59.75,4.59 -150.12,17.31z"/>
   <path class="fil10" d="M1249.07 1522.95c0,0 -31.34,196.57 125.35,169.5 156.68,-27.07 279.18,-155.27 279.18,-155.27l145.29 172.36 44.16 -31.33 -163.81 -267.79 -290.58 123.92 -139.59 -11.39z"/>
   <path class="fil11" d="M1312.79 1529.33c-0.01,0.06 -1.3,11.53 -1.3,26.9 0.01,15.53 1.3,35.02 6.71,50.92 2.72,7.95 6.47,15.04 11.78,20.25 5.3,5.21 12.26,8.42 20.75,8.4 3.28,0 6.77,-0.47 10.5,-1.43 15.16,-3.93 41.71,-16.3 73.4,-32.71 94.94,-49.21 234.88,-134.67 234.9,-134.68l-1.19 -1.96 -1.91 1.29 150.04 222.21c0.71,1.05 2.14,1.33 3.19,0.62 1.05,-0.71 1.33,-2.14 0.62,-3.19l-151.27 -224.03 -1.88 1.14c-0.01,0.01 -3.88,2.37 -10.8,6.55 -24.2,14.64 -85.53,51.45 -147.22,86.25 -30.84,17.4 -61.78,34.3 -88.19,47.66 -26.39,13.36 -48.36,23.2 -60.85,26.41 -3.41,0.88 -6.52,1.28 -9.36,1.28 -7.35,-0.02 -12.93,-2.62 -17.54,-7.09 -6.88,-6.69 -11.29,-17.91 -13.82,-30.36 -2.55,-12.45 -3.28,-26.07 -3.28,-37.52 0,-7.56 0.32,-14.17 0.64,-18.88 0.16,-2.36 0.32,-4.24 0.44,-5.53 0.12,-1.29 0.2,-1.97 0.2,-1.97 0.14,-1.26 -0.77,-2.4 -2.02,-2.54 -1.26,-0.15 -2.41,0.77 -2.54,2.03z"/>
   <path class="fil0" d="M263.39 1360.93l-4.66 -0.1c-465.85,-137.97 -165.19,-340.4 -141.57,-381.73 23.66,-41.39 -67.03,-47.3 -76.88,-112.36 -9.86,-65.05 57.16,-65.05 126.16,-86.73 68.99,-21.68 -11.83,-69 -61.11,-163.62 -49.28,-94.62 102.5,-90.68 70.96,-167.56 -31.54,-76.88 5.92,-189.23 90.68,-195.15 3.89,-0.27 7.63,-0.4 11.22,-0.4 74.62,0 85.65,58.06 91.28,150.22 5.92,96.59 57.17,25.63 114.33,120.24 57.17,94.62 -49.28,151.79 -70.96,214.87 -16.25,47.27 58.27,29.22 105.78,47.08 4.47,33.21 10.56,65.3 18.12,96.01 -37.29,55.03 -119.87,111.96 -129.81,154.56 -13.8,59.14 132.07,-5.91 100.53,134.05 -29.6,131.38 -220.73,184.59 -244.07,190.62z"/>
   <path class="fil12" d="M797.62 1463.96l-48.8 0c7.69,-16.03 17.4,-27.29 29.43,-27.29 1.59,0 3.21,0.2 4.88,0.6 9.75,2.38 13.94,12.39 14.49,26.69zm-57.59 0l-54.1 0c-0.52,-46.78 4.58,-91.44 25.98,-91.44 1.11,0 2.25,0.12 3.44,0.36 23.12,4.73 27.18,46.82 24.68,91.08zm-64.27 0l-44.65 0c-2.8,-22.39 -0.64,-39.91 11.95,-42.5 0.95,-0.2 1.88,-0.29 2.8,-0.29 12.85,0 22.63,18.68 29.91,42.79z"/>
   <g style="clip-path:url(#id1)">
    <image x="588" y="1459.24" width="214.77" height="177.44" xlink:href="modernity_Images\modernity_ImgID2.png"/>
   </g>
   <path class="fil13" d="M222.03 1463.96l-48.8 0c7.69,-16.03 17.4,-27.29 29.43,-27.29 1.58,0 3.21,0.2 4.88,0.6 9.75,2.38 13.95,12.39 14.49,26.69zm-57.59 0l-54.1 0c-0.52,-46.78 4.58,-91.44 25.97,-91.44 1.11,0 2.26,0.12 3.45,0.36 23.11,4.73 27.17,46.82 24.68,91.08zm-64.27 0l-44.65 0c-2.8,-22.39 -0.65,-39.91 11.94,-42.5 0.95,-0.2 1.89,-0.29 2.8,-0.29 12.85,0 22.64,18.68 29.91,42.79z"/>
   <g style="clip-path:url(#id2)">
    <image x="13.97" y="1459.24" width="214.77" height="177.44" xlink:href="modernity_Images\modernity_ImgID3.png"/>
   </g>
   <path class="fil0" d="M837.39 1230.02c-134.58,0 -250.21,-143.34 -300.64,-348.32 14.47,-21.36 22.12,-42.43 16.06,-62.27 -5.43,-17.78 -18.3,-27.77 -34.18,-33.74 -5.82,-43.16 -8.89,-88.22 -8.89,-134.53 0,-319.7 146.7,-578.86 327.66,-578.86 180.96,0 327.66,259.17 327.66,578.86 0,319.7 -146.7,578.86 -327.66,578.86z"/>
   <path class="fil14" d="M536.75 881.7c-7.56,-30.72 -13.65,-62.8 -18.12,-96.01 15.88,5.97 28.75,15.95 34.18,33.74 6.06,19.84 -1.59,40.92 -16.06,62.27z"/>
   <path class="fil2" d="M1058.6 595.8c0,0 -97.97,183.74 -62.26,239.47l95.79 -152.39 -33.53 -87.08z"/>
   <polygon class="fil15" points="937.77,503.06 916.87,514.16 969.77,634.33 989.37,625.84 "/>
   <path class="fil2" d="M958.02 634.11c0,0 11.32,-17.42 3.48,-44.41l18.29 -2.61c0,0 5.23,-17.42 -25.25,-10.45 0,0 6.09,-12.19 13.93,-10.45 7.84,1.74 5.22,-20.9 -6.1,-20.9 -11.32,0 -22.64,6.1 -22.64,6.1 0,0 9.58,-16.55 14.8,-15.68 0,0 5.22,-8.71 -4.35,-13.06 -9.58,-4.35 -39.19,26.99 -39.19,26.99l21.77 87.09 25.25 -2.61z"/>
   <path class="fil2" d="M996.33 835.27c-39.19,-69.66 -63.57,-198.54 -63.57,-198.54l25.25 -2.61c40.93,45.28 60.08,165.45 60.08,165.45l-21.77 35.7z"/>
   <path class="fil6" d="M973.05 556.38c-0.09,-0.13 -3.11,-3.59 -9.98,-3.58 -3.98,0 -9.22,1.15 -15.9,4.68 -0.43,0.22 -0.59,0.75 -0.36,1.18 0.22,0.43 0.75,0.59 1.17,0.36 6.5,-3.43 11.46,-4.48 15.09,-4.48 3.14,0 5.32,0.78 6.71,1.53 0.69,0.38 1.2,0.75 1.52,1.02l0.34 0.32 0.07 0.08 0.01 0.01 1.23 0.11 0.1 -1.23z"/>
   <path class="fil3" d="M1182.69 995.49c2.61,7.84 -13.06,245.57 10.45,370.96 23.51,125.4 15.68,329.17 15.68,329.17l47.02 -5.23c0,0 41.8,-222.06 23.51,-342.23 -18.29,-120.17 5.23,-232.5 -23.51,-331.77l-73.15 -20.91z"/>
   <path class="fil4" d="M1208.81 1695.63l109.71 0c0,0 -15.67,-44.41 -62.69,-45.72 -47.02,-1.31 -47.02,45.72 -47.02,45.72z"/>
   <path class="fil2" d="M1103.74 1666.68c0.36,13.32 0.57,21.11 0.57,21.11l-172.42 0c0,-16.09 18.18,-28.69 40.54,-38.09 35.73,-15.05 82.24,-22 82.24,-22l-73.15 -310.87c10.45,-169.81 101.89,-410.15 101.89,-420.59l78.37 91.43 -86.21 318.71c17.71,44.21 26.02,286.8 28.16,360.31z"/>
   <path class="fil16" d="M1104.31 1687.79l-172.42 0c0,-16.09 18.18,-28.69 40.54,-38.09 4.34,4.54 7.79,10.03 7.79,15.88l123.52 1.1c0.36,13.32 0.57,21.11 0.57,21.11z"/>
   <path class="fil4" d="M1122.53 574.94c0,0 -62.62,15.63 -63.93,20.86 -1.31,5.22 -9.14,79.68 35.27,262.54l118.87 -2.61c0,0 54.86,-236.42 44.41,-246.88 -10.45,-10.44 -88.82,-35.26 -88.82,-35.26l-45.79 1.34z"/>
   <path class="fil7" d="M1155.29 559.29c56.98,0 91.73,15.65 91.73,15.65 63.49,-268.74 -97.78,-242.95 -97.78,-242.95 0,0 -129.91,-25.79 -66.43,242.95 0,0 15.5,-15.65 72.48,-15.65z"/>
   <path class="fil17" d="M1068.59 508.27c0.88,22.41 5.99,44.63 14.97,65.18 0.44,1.01 1.63,1.48 2.64,1.04 1.01,-0.45 1.48,-1.63 1.04,-2.65 -8.77,-20.09 -13.77,-41.83 -14.63,-63.73 -0.05,-1.11 -0.98,-1.97 -2.09,-1.93 -1.11,0.05 -1.97,0.98 -1.93,2.09z"/>
   <path class="fil17" d="M1093.41 537.07c-0.05,0.92 -0.08,1.85 -0.08,2.78 0,10.2 3.33,20.35 9.43,28.54 0.66,0.89 1.92,1.08 2.81,0.41 0.89,-0.66 1.08,-1.92 0.41,-2.81 -5.57,-7.48 -8.64,-16.82 -8.64,-26.14 0,-0.85 0.02,-1.69 0.08,-2.53 0.06,-1.11 -0.78,-2.06 -1.88,-2.12 -1.11,-0.07 -2.06,0.77 -2.13,1.88z"/>
   <path class="fil17" d="M1211.45 541.72c-0.81,6.49 -1.62,12.98 -2.43,19.47 -0.14,1.1 0.64,2.1 1.74,2.24 1.1,0.14 2.1,-0.64 2.24,-1.74 0.81,-6.49 1.63,-12.98 2.44,-19.47 0.13,-1.1 -0.64,-2.1 -1.75,-2.24 -1.1,-0.14 -2.1,0.64 -2.24,1.74z"/>
   <path class="fil17" d="M1233.26 521.52l0.01 0.28c0,16.13 -2.64,32.26 -7.77,47.54 -0.35,1.06 0.21,2.19 1.26,2.54 1.05,0.36 2.19,-0.21 2.54,-1.26 5.27,-15.7 7.98,-32.26 7.98,-48.82l0 -0.29c-0.01,-1.1 -0.9,-2 -2.01,-2 -1.11,0 -2.01,0.9 -2,2.01l-0.01 0z"/>
   <path class="fil2" d="M1146.12 609.73l0 0c-13.03,0 -23.59,-10.56 -23.59,-23.59l0 -41.98 47.18 0 0 41.98c0,13.03 -10.56,23.59 -23.59,23.59z"/>
   <polygon class="fil3" points="1169.71,557.88 1122.53,574.94 1122.53,549.51 1169.71,549.51 "/>
   <path class="fil2" d="M1220.57 460.74c-3.94,55.35 -30.45,96.86 -88.91,94.41 -45.24,-1.9 -78.6,-50.68 -74.67,-106.03 3.93,-55.35 27.68,-96.39 88.91,-94.41 45.26,1.47 78.6,50.68 74.67,106.03z"/>
   <path class="fil4" d="M1090.88 498.44c4.36,9.32 12.01,17.75 23.05,17.75 10.46,-0.01 18.42,-7.41 20.72,-17.31 0.58,-2.51 -3.29,-3.59 -3.87,-1.06 -2.18,9.36 -10.22,15.88 -20.03,13.97 -8.18,-1.59 -13.08,-8.26 -16.41,-15.37 -1.09,-2.34 -4.55,-0.31 -3.46,2.02z"/>
   <path class="fil2" d="M1205.54 463.6c0,13.56 1.3,24.55 11.15,24.55 9.85,0 24.54,-10.99 24.54,-24.55 0,-13.55 -7.99,-24.54 -17.85,-24.54 -9.86,0 -17.84,10.99 -17.84,24.54z"/>
   <path class="fil7" d="M1223.62 447.37c-14.31,-2.02 -27.51,-3.64 -39.69,-4.89l-8.16 -38.06 -2.35 37.05c-8.86,-0.82 -17.13,-1.44 -24.83,-1.9 -1.97,-10.37 -5.99,-31.57 -5.99,-32.23l0 31.93c-13.49,-0.67 -25.17,-0.82 -35.18,-0.64 -1.32,-9.39 -3.62,-26.02 -3.96,-30.27 -0.28,4.15 -2.4,20.31 -3.75,30.49 -33.53,1.28 -45.75,6.36 -45.75,6.36 0,-13.05 3.26,-81.03 40.78,-97.88 37.52,-16.87 80.49,0 80.49,0 50.02,16.85 48.39,100.05 48.39,100.05z"/>
   <path class="fil7" d="M1208.54 429.51c0.3,1.03 0.63,2.42 0.9,3.7 0.31,1.29 0.55,2.62 0.81,3.95 0.28,1.32 0.48,2.67 0.72,4.01 0.23,1.34 0.46,2.68 0.63,4.04l0.57 4.07 0.46 4.1c0.34,2.73 0.55,5.48 0.77,8.23 0.84,11.02 1,22.13 0.68,33.27 -0.33,5.55 -0.47,11.14 -1.05,16.7 -0.26,2.78 -0.46,5.57 -0.77,8.36l-1.04 8.33 -0.52 4.17 -0.68 4.15 -1.36 8.3c-0.99,5.53 -2.21,11.02 -3.31,16.54 1.66,-5.37 3.43,-10.73 4.99,-16.15l2.21 -8.17 1.11 -4.1 0.95 -4.13 1.9 -8.27c0.59,-2.77 1.09,-5.56 1.64,-8.34 1.16,-5.56 1.88,-11.19 2.79,-16.81 1.47,-11.28 2.49,-22.65 2.78,-34.12 0.07,-2.87 0.13,-5.74 0.08,-8.61l-0.05 -4.32 -0.16 -4.33c-0.04,-1.44 -0.13,-2.89 -0.23,-4.33 -0.1,-1.46 -0.18,-2.9 -0.32,-4.36 -0.15,-1.46 -0.25,-2.91 -0.45,-4.39 -0.18,-1.5 -0.34,-2.88 -0.64,-4.59l-13.4 3.1z"/>
   <path class="fil17" d="M1105.21 349.61c-17.57,6.69 -32.68,19.49 -42.18,35.71 -7.46,12.75 -11.38,27.49 -11.38,42.24 0,4.02 0.29,8.04 0.88,12.02 0.17,1.1 1.18,1.85 2.28,1.69 1.1,-0.17 1.86,-1.18 1.69,-2.28 -0.56,-3.78 -0.84,-7.61 -0.84,-11.43 0,-14.04 3.74,-28.1 10.83,-40.21 9.02,-15.41 23.46,-27.64 40.14,-33.99 1.04,-0.4 1.55,-1.55 1.16,-2.59 -0.4,-1.04 -1.55,-1.56 -2.59,-1.16z"/>
   <path class="fil17" d="M1138.36 351.33c4.53,-1.23 9.22,-1.83 13.92,-1.83 12.22,-0 24.49,4.07 34.06,11.64 5.54,4.37 10.24,9.84 14.52,15.65 13.3,18.04 22.53,39.8 22.52,61.83 0,1.99 -0.07,3.98 -0.23,5.97 -0.08,1.11 0.74,2.07 1.85,2.16 1.11,0.08 2.07,-0.74 2.15,-1.85 0.16,-2.09 0.24,-4.19 0.24,-6.28 -0.01,-23.17 -9.63,-45.66 -23.31,-64.21 -4.4,-5.96 -9.31,-11.72 -15.26,-16.42 -10.33,-8.16 -23.44,-12.5 -36.55,-12.51 -5.05,0 -10.09,0.65 -14.98,1.97 -1.07,0.29 -1.7,1.4 -1.41,2.47 0.29,1.07 1.39,1.7 2.47,1.41l-0 0z"/>
   <path class="fil17" d="M1104.53 386.29c-4.94,16.15 -7.97,32.88 -9.01,49.74 -0.07,1.11 0.77,2.06 1.88,2.13 1.11,0.07 2.06,-0.77 2.13,-1.88 1.02,-16.54 3.99,-32.96 8.84,-48.81 0.33,-1.06 -0.27,-2.18 -1.33,-2.51 -1.06,-0.32 -2.19,0.27 -2.51,1.34z"/>
   <path class="fil17" d="M1170.12 390.49c4.22,14.87 7.65,29.97 10.29,45.2 0.19,1.09 1.23,1.82 2.32,1.64 1.09,-0.19 1.82,-1.23 1.63,-2.32 -2.66,-15.37 -6.13,-30.59 -10.39,-45.6 -0.3,-1.07 -1.41,-1.68 -2.48,-1.38 -1.07,0.3 -1.69,1.42 -1.38,2.48z"/>
   <path class="fil2" d="M1285.44 641.95c0,19.24 -15.6,34.83 -34.83,34.83 -19.24,0 -34.83,-15.6 -34.83,-34.83 0,-19.24 15.6,-34.83 34.83,-34.83 19.24,0 34.83,15.6 34.83,34.83z"/>
   <path class="fil18" d="M1143.5 1119.59c0,0 -133.24,-43.1 -131.93,-47.02 1.31,-3.92 47.03,-154.14 82.29,-214.22l118.87 -2.61c0,0 74.45,146.29 80.98,241.65l-128.01 22.21 -2.61 -75.76 -19.59 75.76z"/>
   <path class="fil19" d="M1195.32 857.62l0.12 0.18c2.66,4.13 48.86,77.63 67.37,245.96l5.19 -0.57c-19.19,-174.56 -68.12,-248.15 -68.34,-248.47l-4.35 2.9z"/>
   <polygon class="fil19" points="1165.05,1042.09 1115.85,986.8 1111.94,990.27 1161.14,1045.57 "/>
   <polygon class="fil20" points="406.89,1373.77 802.58,1373.77 802.58,1332.16 406.89,1332.16 "/>
   <path class="fil7" d="M732.65 1351.64l69.93 0 75.56 -641.39c1.24,-10.57 -7.02,-19.86 -17.66,-19.86l-34.12 0c-9.02,0 -16.61,6.74 -17.66,15.7l-76.05 645.56z"/>
   <path class="fil21" d="M425.04 1351.64l316.02 0c12.95,0 23.46,-10.5 23.46,-23.46l0 -26.56c0,-12.96 -10.51,-23.46 -23.46,-23.46l-316.02 0c-12.96,0 -23.46,10.5 -23.46,23.46l0 26.56c0,12.96 10.5,23.46 23.46,23.46z"/>
   <polygon class="fil20" points="773.37,1703.06 802.58,1703.06 802.58,1372 773.37,1372 "/>
   <polygon class="fil20" points="406.89,1703.06 436.1,1703.06 436.1,1372 406.89,1372 "/>
   <path class="fil2" d="M257.25 1597.04l-30.42 82.43 -2.64 7.15 -3.52 9.56 -147.55 0c0,0 6.94,-12.55 33.39,-26.13 17.21,-8.83 42.68,-18.1 79.92,-24.61l35.41 -69.65 35.41 21.25z"/>
   <path class="fil22" d="M380 1364.52c-1.18,0 -116.85,247.86 -116.85,247.86l-56.65 -25.97c0,0 101.51,-321.03 101.51,-317.5 0,3.54 71.99,95.6 71.99,95.6z"/>
   <path class="fil4" d="M226.83 1679.47l-2.64 7.15 -3.52 9.56 -147.55 0c0,0 6.94,-12.55 33.39,-26.13 6.09,6.49 9.4,7.84 9.4,7.84l110.92 1.58z"/>
   <path class="fil23" d="M235.09 1598.86l116.68 -275.35c0.4,-0.96 -0.04,-2.06 -1.01,-2.47 -0.95,-0.4 -2.06,0.04 -2.47,1.01l-116.67 275.35c-0.41,0.96 0.04,2.06 1,2.47 0.96,0.41 2.06,-0.04 2.47,-1z"/>
   <path class="fil2" d="M525.19 1652.52l-60.19 86.15 -66.11 0c2.37,-22.41 43.67,-36.58 43.67,-36.58l25.98 -76.72 -11.81 -47.2 37.77 -9.45 25.94 70.82 4.76 13z"/>
   <path class="fil24" d="M611.34 1120.23l-3.54 21.22c0,0 -308.05,75.54 -308.05,133.37 0,57.84 156.98,329.3 156.98,329.3l51.94 -21.25c0,0 -36.59,-193.56 -88.52,-262.02 0,0 254.35,-4.13 313.95,-34.23 25.72,-12.99 37.19,-96.78 -14.45,-169.96l-108.3 3.57z"/>
   <path class="fil4" d="M525.19 1652.52l-60.19 86.15 -66.11 0c2.37,-22.41 43.67,-36.58 43.67,-36.58 0,0 10.63,7.67 12.39,22.72l65.47 -85.28 4.76 13z"/>
   <path class="fil25" d="M664.29 1116.59c0,0 0.61,0.84 1.68,2.42 3.77,5.53 13.23,19.92 21.71,36.94 8.5,17.01 15.96,36.72 15.94,52.52 0,7.22 -1.53,13.57 -5.06,18.6 -3.54,5.03 -9.09,8.89 -17.64,11.04 -30.81,7.71 -101.66,14.74 -167.35,21.35 -32.86,3.31 -64.47,6.51 -89.26,9.68 -12.39,1.58 -23.08,3.16 -31.39,4.73 -8.34,1.6 -14.18,3.09 -17.39,4.89 -1.46,0.84 -2.31,2.29 -2.8,3.92 -0.5,1.66 -0.7,3.61 -0.7,5.91 0.01,6.55 1.69,15.97 4.58,27.66 10.12,40.83 35.31,108.98 57.98,167.01 22.67,58.02 42.82,105.87 42.82,105.88 0.4,0.95 1.51,1.4 2.46,1 0.96,-0.4 1.41,-1.51 1.01,-2.47 0,-0.01 -1.64,-3.9 -4.52,-10.83 -10.06,-24.24 -35.24,-85.56 -57.88,-146.25 -11.32,-30.34 -22.01,-60.53 -29.86,-85.81 -7.86,-25.26 -12.84,-45.78 -12.82,-56.19 -0,-2.07 0.2,-3.71 0.54,-4.81 0.34,-1.13 0.77,-1.59 1.07,-1.75 2.24,-1.32 8.07,-2.93 16.22,-4.46 28.67,-5.44 87.12,-10.99 145.12,-16.86 58.04,-5.88 115.59,-12.07 143.09,-18.93 9.22,-2.3 15.73,-6.68 19.82,-12.54 4.09,-5.85 5.74,-13.02 5.73,-20.76 -0.03,-19.35 -10.1,-42.71 -20.06,-61.41 -9.98,-18.68 -19.94,-32.63 -19.97,-32.67 -0.61,-0.84 -1.78,-1.04 -2.63,-0.43 -0.85,0.6 -1.04,1.78 -0.44,2.63z"/>
   <path class="fil3" d="M542.1 820.09c0,0 -23.76,56.44 -14.86,193.09l-118.82 69.81 14.85 37.13 182.69 -86.15 -26.74 -190.11 -37.13 -23.77z"/>
   <path class="fil5" d="M588.82 771.82c4.86,-0.03 67.95,16.45 83.48,32.86 29.16,30.8 47.33,311.98 47.33,311.98l-108.14 4.21c0,0 -143.41,-188.78 -75.06,-305.19l18.76 -28.17 33.62 -15.68z"/>
   <path class="fil26" d="M475.15 728.72c0,0 2.45,46.83 -15.23,60.72 0,0 15.8,16.91 33.13,7.6 17.33,-9.31 39.92,-2.65 46.82,-2.45 20.27,0.62 43.76,-29 43.76,-29l-33.89 -58.45 -74.6 21.57z"/>
   <path class="fil27" d="M524.16 789.38l-0.21 -0.39c-1,-1.88 -5.03,-10.3 -4.99,-17.62 0,-0.7 0.03,-1.39 0.11,-2.06 0.11,-1.01 -0.62,-1.93 -1.63,-2.04 -1.02,-0.11 -1.93,0.62 -2.04,1.63 -0.09,0.82 -0.13,1.65 -0.13,2.48 0.04,9.77 5.62,19.68 5.67,19.81 0.49,0.89 1.62,1.21 2.51,0.72 0.9,-0.49 1.22,-1.62 0.72,-2.51z"/>
   <path class="fil27" d="M494.8 796.43l-0.21 -0.6c-0.93,-2.78 -4.68,-14.89 -4.66,-25.45 -0,-3.83 0.5,-7.44 1.69,-10.26 0.39,-0.94 -0.05,-2.02 -0.99,-2.42 -0.94,-0.39 -2.02,0.05 -2.42,0.98 -1.47,3.5 -1.97,7.55 -1.97,11.69 0.02,12.99 5.05,27.18 5.07,27.28 0.34,0.96 1.4,1.46 2.36,1.13 0.96,-0.34 1.47,-1.39 1.13,-2.35z"/>
   <path class="fil2" d="M589.43 814.67l0 0c13.92,-5.68 20.59,-21.58 14.91,-35.49l-18.33 -44.86 -50.39 20.59 18.32 44.86c5.68,13.91 21.57,20.59 35.49,14.91z"/>
   <polygon class="fil3" points="541.61,769.56 599.44,767.2 588.35,740.04 537.96,760.62 "/>
   <path class="fil2" d="M436.01 659.85c9.36,63.34 43.5,108.8 110.55,100.88 51.9,-6.13 86.03,-65.17 76.68,-128.53 -9.36,-63.35 -40.27,-108.51 -110.55,-100.88 -51.96,5.64 -86.03,65.17 -76.68,128.53z"/>
   <path class="fil4" d="M510.64 686.15c-3.12,8.23 -8.41,16.51 -17.48,18.9 -10.92,2.88 -20.87,-4 -24.12,-14.34 -0.89,-2.83 -5.36,-1.62 -4.47,1.23 3.65,11.64 14.06,19.72 26.57,18.18 12.32,-1.52 19.86,-11.91 23.96,-22.74 1.06,-2.8 -3.42,-4 -4.47,-1.24z"/>
   <path class="fil4" d="M486.57 557.24c0,0 8.2,24.17 21.27,25.51 13.05,1.34 22.01,11.03 26.69,22.46 4.67,11.43 12.36,24.14 34.06,30.29 0,0 -4.47,-23.19 15.71,-28.93 20.18,-5.74 51.93,41.35 3.64,66.08 0,0 -17.94,17.34 -11.26,29.62 6.69,12.28 -1.93,29.98 -11.33,39.66 -9.39,9.67 -21.67,16.36 -17.36,37.12 0,0 12.12,-9.12 30.25,-1.51 18.12,7.61 34.49,10.94 45.29,-3.48 10.79,-14.42 16.36,-37.54 50.21,-36.36 33.85,1.19 27.93,15.29 72.93,-7.27 0,0 -10.26,-10.82 -12.23,-25.86 -1.97,-15.04 -16.58,-32.43 -29.83,-40.37 -13.25,-7.93 -19.81,-21.93 -17.2,-38.01 2.6,-16.08 -7.45,-38.66 -28.73,-45.82 -21.27,-7.15 -19.14,-48.9 -56.26,-66.27 -37.12,-17.36 -87.74,-16.71 -111.47,13 0,0 -70.82,2.24 -54.17,83.85 0,0 1.64,-12.35 12.81,-13.57 11.18,-1.23 34.24,-3.98 36.99,-40.13z"/>
   <path class="fil27" d="M605.57 780.68l-0.06 -0.08c-0.81,-0.92 -8.37,-10.02 -8.37,-25.86 0,-3.85 0.45,-8.11 1.55,-12.77 4.5,-19.13 9.9,-30.77 9.95,-42.05 0.01,-3.84 -0.67,-7.62 -2.25,-11.48 -0.38,-0.94 -1.46,-1.39 -2.41,-1.01 -0.95,0.39 -1.4,1.47 -1.02,2.42 1.4,3.42 1.97,6.66 1.97,10.08 0.05,9.99 -5.22,21.78 -9.85,41.2 -1.17,4.93 -1.65,9.48 -1.65,13.62 0.01,18.2 9.24,28.25 9.41,28.45 0.69,0.75 1.86,0.79 2.61,0.1 0.75,-0.69 0.8,-1.86 0.1,-2.61z"/>
   <path class="fil27" d="M704.69 739.88l-0.01 -0c-0.39,-0.33 -11.57,-9.36 -15.48,-36.39 -2.02,-14.05 -1.63,-22.21 -3.06,-29.5 -1.43,-7.34 -4.91,-13.45 -14.05,-22.34 -8.9,-8.71 -13.61,-15.85 -16.6,-22.9 -2.98,-7.04 -4.24,-14.1 -6.03,-22.59 -0.21,-1 -1.19,-1.64 -2.19,-1.43 -1,0.22 -1.64,1.19 -1.43,2.19 1.78,8.4 3.06,15.73 6.24,23.27 3.18,7.53 8.26,15.16 17.41,24.1 8.92,8.76 11.68,13.86 13.01,20.41 1.33,6.59 0.98,15 3.03,29.31 4.13,28.82 16.57,38.57 16.9,38.8 0.81,0.62 1.97,0.47 2.59,-0.34 0.62,-0.81 0.47,-1.97 -0.35,-2.59z"/>
   <path class="fil27" d="M653.52 738.7l-0.07 -0.09c-0.87,-1.11 -8.48,-11.47 -8.45,-25.42 0,-0.97 0.04,-1.95 0.11,-2.94 0.39,-5.23 0.78,-10.34 0.78,-15.29 0.02,-11.3 -2.1,-22 -11.14,-30.57 -5.68,-5.36 -9.18,-14.7 -11.1,-22.71 -0.97,-4 -1.57,-7.65 -1.92,-10.29 -0.18,-1.33 -0.29,-2.39 -0.36,-3.13 -0.07,-0.74 -0.09,-1.12 -0.09,-1.12 -0.07,-1.02 -0.95,-1.78 -1.97,-1.72 -1.02,0.07 -1.79,0.95 -1.72,1.97 0.01,0.07 0.46,6.85 2.47,15.18 2.04,8.31 5.56,18.2 12.15,24.51 8.05,7.68 9.97,16.95 9.99,27.89 0.01,4.76 -0.38,9.78 -0.77,15.01 -0.08,1.09 -0.12,2.17 -0.12,3.22 0.03,16.33 9.24,27.67 9.35,27.84 0.64,0.79 1.8,0.92 2.6,0.28 0.79,-0.64 0.92,-1.8 0.27,-2.6z"/>
   <path class="fil2" d="M619.94 874.4c18.43,16.82 47.02,15.51 63.84,-2.92 16.82,-18.44 15.51,-47.02 -2.92,-63.84 -18.43,-16.82 -47.02,-15.52 -63.84,2.92 -16.82,18.43 -15.52,47.02 2.92,63.85z"/>
   <path class="fil2" d="M519.82 1097.84l-35.65 -89.12 59.41 54.95 163.38 -26.74c-20.79,-34.87 -96.26,-174.29 -96.26,-174.29l81.52 -38.76c0,0 83.24,177.76 101.23,249.22 0,0 -74.61,35.12 -273.64,24.73z"/>
   <path class="fil5" d="M364.63 978.05l92.44 -23.42c5.32,-1.35 10.83,1.42 12.92,6.5l62.06 150.53c2.19,5.29 -0.74,11.31 -6.25,12.86l-83.66 23.56c-6.56,1.86 -13.5,-1.4 -16.26,-7.64l-66.88 -150.81c-2.11,-4.77 0.57,-10.3 5.63,-11.58z"/>
   <path class="fil2" d="M385.65 1056.66l20.79 51.08c0,0 43.85,-5.43 42.49,-12.66 -1.36,-7.23 -25.31,-0.9 -25.31,-0.9 0,0 39.78,-14.47 37.97,-20.79 -1.81,-6.33 -42.49,4.52 -42.49,4.52 0,0 34.81,-14.92 32.55,-21.7 -2.26,-6.78 -41.13,7.68 -41.13,7.68 0,0 26.67,-18.53 23.05,-23.05 -3.61,-4.52 -47.91,15.82 -47.91,15.82z"/>
   <path class="fil2" d="M798.21 1287.56c0,0 -88.28,138.84 -89.84,181.62l70.78 103.45 97.23 2.33c0,0 -32.67,-28.78 -70.01,-24.89 0,0 -35,-97.23 -41.22,-103.45l59.11 -79.34 -26.06 -79.72z"/>
   <path class="fil2" d="M1044.39 1277.06c0,0 87.89,149.34 89.45,192.12l-70.78 103.45 -97.23 2.33c0,0 32.67,-28.78 70.01,-24.89 0,0 35,-97.23 41.22,-103.45l-58.73 -89.84 26.06 -79.72z"/>
   <path class="fil5" d="M1044.39 1277.06c0,0 -122.51,-87.5 -246.18,10.5 0,0 16.34,207.68 47.84,266.02l134.17 5.83c0,0 60.67,-210.01 64.17,-282.35z"/>
   <path class="fil7" d="M1037.39 1762.43c0,0 204.18,-45.5 156.34,-114.34 -47.84,-68.84 -213.51,-88.67 -213.51,-88.67l-134.17 -5.83c0,0 -197.18,42 -199.51,107.34 -2.33,65.34 270.68,110.84 390.86,101.51z"/>
   <path class="fil28" d="M1105.65 1645.75l-346.52 0c-6.77,0 -12.25,-5.49 -12.25,-12.25 0,-6.77 5.48,-12.25 12.25,-12.25l346.52 0c6.76,0 12.25,5.48 12.25,12.25 0,6.76 -5.49,12.25 -12.25,12.25z"/>
   <path class="fil28" d="M1114.4 1624.75l-364.02 0 0 -193.32c0,-13.08 10.61,-23.69 23.7,-23.69l316.63 0c13.09,0 23.7,10.61 23.7,23.69l0 193.32z"/>
   <path class="fil29" d="M750.96 1625.32l363.44 0c1.28,0 2.31,-1.04 2.31,-2.31 0,-1.28 -1.04,-2.32 -2.31,-2.32l-363.44 0c-1.28,0 -2.31,1.04 -2.31,2.32 0,1.28 1.04,2.31 2.31,2.31z"/>
   <path class="fil29" d="M938.22 1519.74c0,5.48 -4.44,9.92 -9.92,9.92 -5.48,0 -9.92,-4.44 -9.92,-9.92 0,-5.48 4.44,-9.92 9.92,-9.92 5.48,0 9.92,4.44 9.92,9.92z"/>
   <path class="fil2" d="M1222.9 1800.93c-3.93,14.29 -33.84,13.16 -67.11,7.14 -45.55,-8.26 -97.4,-25.81 -97.4,-25.81l-9.33 -31.5c21.89,-1.54 60.76,1.54 96.23,8.45 43.96,8.54 82.79,23.01 77.61,41.72z"/>
   <path class="fil4" d="M1222.9 1800.93c-3.93,14.29 -33.84,13.16 -67.11,7.14 12.69,-3.5 23.94,-9.05 23.94,-17.64 0,-11.43 -18.67,-23.29 -34.44,-31.22 43.96,8.54 82.79,23.01 77.61,41.72z"/>
   <path class="fil21" d="M1061.89 1790.43l11.67 -42.01c0,0 -382.69,-206.51 -429.36,-106.17 -46.67,100.34 417.69,148.18 417.69,148.18z"/>
   <path class="fil2" d="M618.03 1814.93c3.93,14.28 33.84,13.16 67.11,7.14 45.55,-8.26 97.4,-25.81 97.4,-25.81l9.33 -31.5c-21.88,-1.54 -60.76,1.54 -96.23,8.45 -43.96,8.54 -82.79,23.01 -77.61,41.72z"/>
   <path class="fil4" d="M618.03 1814.93c3.93,14.28 33.84,13.16 67.11,7.14 -12.69,-3.5 -23.94,-9.05 -23.94,-17.64 0,-11.43 18.67,-23.29 34.44,-31.22 -43.96,8.54 -82.79,23.01 -77.61,41.72z"/>
   <path class="fil21" d="M779.04 1804.43l-11.67 -42c0,0 382.69,-206.51 429.36,-106.17 46.67,100.34 -417.7,148.17 -417.7,148.17z"/>
   <path class="fil2" d="M834.84 1102.7c0,15.62 -1.5,28.28 -12.86,28.28 -11.36,0 -28.28,-12.66 -28.28,-28.28 0,-15.63 9.21,-28.29 20.57,-28.29 11.36,0 20.57,12.67 20.57,28.29z"/>
   <path class="fil4" d="M819.13 1123.67c0,1.72 -1.4,3.12 -3.12,3.12 -1.73,0 -3.13,-1.4 -3.13,-3.12 0,-1.72 1.4,-3.12 3.13,-3.12 1.72,0 3.12,1.4 3.12,3.12z"/>
   <path class="fil2" d="M988.73 1102.7c0,15.62 1.5,28.28 12.86,28.28 11.36,0 28.28,-12.66 28.28,-28.28 0,-15.63 -9.21,-28.29 -20.57,-28.29 -11.36,0 -20.57,12.67 -20.57,28.29z"/>
   <path class="fil4" d="M1010.56 1123.67c0,1.72 -1.4,3.12 -3.12,3.12 -1.73,0 -3.12,-1.4 -3.12,-3.12 0,-1.72 1.4,-3.12 3.12,-3.12 1.72,0 3.12,1.4 3.12,3.12z"/>
   <path class="fil30" d="M971.73 965.86c0,26.29 -25.58,47.6 -57.11,47.6 -31.54,0 -57.12,-21.31 -57.12,-47.6 0,-23.79 13.63,-47.41 46.23,-48.12 2.98,-0.09 6.13,0.04 9.42,0.39 0.48,0.04 0.96,0.09 1.46,0.15 0.45,0.05 0.89,0.11 1.34,0.18 4.84,0.62 9.53,1.59 14.01,2.87 23.97,6.85 41.76,22.7 41.76,44.53z"/>
   <path class="fil31" d="M895.5 982.65c-1.91,-1.77 -7.85,-13.78 -8.61,-16.65 -1.57,-5.93 -0.48,-12.4 1.28,-18.15 3.15,-10.39 9.8,-20.7 17.46,-28.23 2.46,-2.42 -1.33,-6.2 -3.78,-3.78 -11.4,11.21 -22.17,29.36 -20.99,45.92 0.64,8.88 6.43,21.85 16.72,22.67 1.24,0.1 2.19,-0.91 2.58,-1.96l0.23 -0.62c0.32,-0.85 -0.04,-2.01 -0.68,-2.6l-0.41 -0.38c-2.53,-2.34 -6.32,1.44 -3.79,3.78z"/>
   <path class="fil31" d="M928.08 923.22c5.84,7.17 10.35,15.42 12.29,24.52 1.56,7.33 2.36,35.74 -11.54,33.91 -3.41,-0.44 -3.38,4.91 0,5.36 11.8,1.55 17.35,-16.78 18.03,-25.92 1.13,-15.3 -5.56,-30.05 -15,-41.66 -2.17,-2.67 -5.94,1.13 -3.78,3.78z"/>
   <path class="fil31" d="M910.85 916.78c-9.92,17.43 -16.17,60.08 5.4,72.09 3.02,1.68 5.72,-2.94 2.7,-4.62 -10.04,-5.59 -11.28,-23.82 -11.21,-33.59 0.07,-10.79 2.35,-21.75 7.72,-31.18 1.7,-3.01 -2.92,-5.7 -4.62,-2.7z"/>
   <path class="fil31" d="M913.38 919.16c5.68,15.96 6.17,32.22 1.36,48.46 -0.98,3.32 4.18,4.73 5.16,1.43 5.06,-17.07 4.61,-34.54 -1.36,-51.31 -1.15,-3.22 -6.32,-1.83 -5.16,1.42z"/>
   <path class="fil2" d="M920.23 1271.13l0 0c-15.02,0 -27.18,-12.17 -27.18,-27.19l0 -48.39 54.37 0 0 48.39c0,15.02 -12.17,27.19 -27.19,27.19z"/>
   <polygon class="fil3" points="947.42,1211.36 893.05,1231.02 893.05,1201.72 947.42,1201.72 "/>
   <path class="fil2" d="M1006.06 1099.4c-0.77,10.9 -2.3,21.32 -4.65,31.13 -11.41,47.53 -41.96,80.03 -97.83,77.68 -45.89,-1.91 -81.15,-45.7 -85.87,-99.66 -0.64,-7.36 -0.71,-14.89 -0.18,-22.55 1.01,-14.03 3.11,-27.25 6.52,-39.34 12.14,-42.86 40.91,-71.25 95.96,-69.47 36.43,1.18 66.14,29.2 79.23,67.72 5.66,16.63 8.21,35.26 6.83,54.5z"/>
   <path class="fil30" d="M821.8 1114.3l-4.1 -5.76c-0.64,-7.36 -0.71,-14.89 -0.18,-22.55 1.01,-14.03 3.11,-27.25 6.52,-39.34 5.09,16.21 7.25,39.23 -2.23,67.65z"/>
   <path class="fil30" d="M1006.06 1099.4c-0.77,10.9 -2.3,21.32 -4.65,31.13 -15.69,-36.98 -9.8,-67.02 -2.18,-85.62 5.66,16.63 8.21,35.26 6.83,54.5z"/>
   <path class="fil4" d="M886.68 1142.85c5.03,10.74 13.85,20.46 26.57,20.45 12.06,0 21.23,-8.54 23.88,-19.94 0.67,-2.9 -3.79,-4.14 -4.46,-1.23 -2.5,10.79 -11.79,18.3 -23.09,16.1 -9.42,-1.83 -15.07,-9.53 -18.91,-17.73 -1.26,-2.69 -5.25,-0.34 -4,2.34z"/>
   <path class="fil30" d="M1009.56 1083.99c-16.49,-2.33 -31.7,-4.19 -45.75,-5.64l-9.4 -43.87 -2.71 42.7c-10.21,-0.94 -19.74,-1.65 -28.62,-2.18 -2.27,-11.96 -6.89,-36.39 -6.89,-37.16l0 36.8c-15.55,-0.77 -29.02,-0.94 -40.56,-0.73 -1.52,-10.83 -4.17,-29.99 -4.57,-34.9 -0.32,4.78 -2.77,23.41 -4.33,35.15 -38.64,1.47 -52.72,7.33 -52.72,7.33 0,-15.05 3.76,-93.39 47,-112.82 43.25,-19.44 92.78,0 92.78,0 57.64,19.43 55.76,115.32 55.76,115.32z"/>
   <path class="fil31" d="M873.08 971.31c-20.24,7.71 -37.66,22.46 -48.61,41.16 -8.6,14.7 -13.12,31.69 -13.12,48.69 0,4.63 0.33,9.26 1.02,13.85 0.19,1.26 1.37,2.14 2.63,1.95 1.26,-0.19 2.14,-1.36 1.95,-2.63 -0.65,-4.36 -0.97,-8.76 -0.97,-13.17 0,-16.18 4.31,-32.4 12.49,-46.35 10.4,-17.76 27.04,-31.85 46.27,-39.18 1.19,-0.46 1.8,-1.79 1.34,-2.99 -0.45,-1.19 -1.79,-1.79 -2.99,-1.34z"/>
   <path class="fil31" d="M911.3 973.3c5.22,-1.42 10.63,-2.11 16.05,-2.11 14.09,-0 28.23,4.7 39.26,13.42 6.38,5.04 11.79,11.34 16.73,18.04 15.34,20.79 25.97,45.87 25.96,71.27 0,2.29 -0.09,4.58 -0.26,6.88 -0.1,1.28 0.85,2.38 2.13,2.48 1.28,0.1 2.39,-0.86 2.48,-2.13 0.19,-2.42 0.28,-4.83 0.28,-7.24 -0.01,-26.71 -11.1,-52.63 -26.86,-74.02 -5.07,-6.87 -10.74,-13.5 -17.59,-18.92 -11.9,-9.4 -27.02,-14.41 -42.12,-14.41 -5.82,0 -11.63,0.74 -17.27,2.27 -1.23,0.33 -1.96,1.61 -1.63,2.84 0.34,1.23 1.61,1.96 2.84,1.63z"/>
   <path class="fil31" d="M872.3 1013.58c-5.69,18.61 -9.18,37.9 -10.38,57.33 -0.08,1.27 0.89,2.37 2.17,2.45 1.28,0.08 2.37,-0.89 2.45,-2.17 1.17,-19.06 4.6,-38 10.19,-56.26 0.37,-1.22 -0.31,-2.52 -1.54,-2.89 -1.22,-0.37 -2.51,0.31 -2.89,1.54z"/>
   <path class="fil31" d="M947.91 1018.43c4.86,17.14 8.82,34.53 11.86,52.09 0.21,1.26 1.41,2.1 2.67,1.88 1.26,-0.22 2.1,-1.41 1.89,-2.67 -3.07,-17.72 -7.07,-35.27 -11.97,-52.57 -0.35,-1.23 -1.63,-1.94 -2.86,-1.6 -1.23,0.35 -1.95,1.63 -1.6,2.86z"/>
   <path class="fil10" d="M922.41 1109.69l-2.95 1c4.24,12.48 15.89,20.35 28.38,20.34 3.2,0 6.45,-0.51 9.64,-1.6 12.48,-4.24 20.35,-15.89 20.35,-28.37 0,-3.2 -0.52,-6.45 -1.6,-9.64 -4.24,-12.48 -15.89,-20.35 -28.38,-20.34 -3.19,0 -6.45,0.51 -9.64,1.6 -12.48,4.24 -20.35,15.88 -20.35,28.38 0,3.2 0.52,6.45 1.6,9.63l2.95 -1 2.94 -1c-0.86,-2.53 -1.26,-5.1 -1.26,-7.63 0,-9.89 6.23,-19.13 16.12,-22.48 2.53,-0.86 5.11,-1.27 7.63,-1.27 9.89,0 19.13,6.23 22.48,16.12 0.86,2.53 1.26,5.11 1.26,7.64 0,9.88 -6.23,19.12 -16.12,22.48 -2.53,0.86 -5.1,1.26 -7.63,1.26 -9.89,-0 -19.13,-6.23 -22.48,-16.12l-2.94 1z"/>
   <path class="fil10" d="M848.68 1110.47l-2.95 1c4.24,12.48 15.89,20.35 28.38,20.35 3.19,0 6.44,-0.52 9.63,-1.6 12.48,-4.24 20.35,-15.88 20.34,-28.38 0,-3.2 -0.51,-6.45 -1.6,-9.63 -4.24,-12.48 -15.89,-20.35 -28.38,-20.35 -3.2,0 -6.45,0.52 -9.64,1.6 -12.48,4.24 -20.35,15.89 -20.34,28.38 0,3.19 0.52,6.45 1.6,9.63l2.95 -1 2.95 -1c-0.86,-2.53 -1.26,-5.11 -1.27,-7.63 0,-9.89 6.23,-19.14 16.12,-22.49 2.54,-0.86 5.11,-1.27 7.64,-1.27 9.88,0.01 19.13,6.24 22.48,16.13 0.86,2.53 1.27,5.1 1.27,7.63 -0.01,9.89 -6.23,19.14 -16.12,22.49 -2.53,0.86 -5.11,1.26 -7.63,1.26 -9.89,-0.01 -19.14,-6.23 -22.49,-16.12l-2.95 1z"/>
   <polygon class="fil10" points="921.79,1096.12 901.11,1095.74 900.99,1101.97 921.67,1102.35 "/>
  </g>
 </g>
</svg>
