<?xml version="1.0" encoding="UTF-8"?>
<!DOCTYPE svg PUBLIC "-//W3C//DTD SVG 1.1//EN" "http://www.w3.org/Graphics/SVG/1.1/DTD/svg11.dtd">
<!-- Creator: CorelDRAW 2018 (64 Bit Versão de avaliação) -->
<svg xmlns="http://www.w3.org/2000/svg" xml:space="preserve" width="24.113mm" height="24.113mm" version="1.1" shape-rendering="geometricPrecision" text-rendering="geometricPrecision" image-rendering="optimizeQuality" fill-rule="evenodd" clip-rule="evenodd"
viewBox="0 0 2411.3 2411.3"
 xmlns:xlink="http://www.w3.org/1999/xlink">
 <g id="Camada_x0020_1">
  <metadata id="CorelCorpID_0Corel-Layer"/>
  <path fill="#FF9933" d="M1205.65 0c665.84,0 1205.65,539.81 1205.65,1205.65 0,665.84 -539.81,1205.65 -1205.65,1205.65 -665.84,0 -1205.65,-539.81 -1205.65,-1205.65 0,-665.84 539.81,-1205.65 1205.65,-1205.65zm-622.11 1195.47l25.23 -78c58.35,20.5 100.65,38.28 127.17,53.34 -7.03,-66.38 -10.75,-112.12 -11.18,-137.07l80.29 0c-1.15,36.42 -5.3,81.87 -12.76,136.49 37.85,-19.07 81.29,-36.7 130.04,-52.76l25.23 78c-46.6,15.48 -92.19,25.81 -137.07,30.97 22.37,19.36 53.91,54.34 94.63,104.23l-65.95 46.88c-21.36,-28.96 -46.6,-68.53 -75.56,-118.57 -27.38,51.9 -51.33,91.47 -71.83,118.57l-64.81 -46.88c42.44,-52.62 72.98,-87.32 91.19,-104.23 -47.31,-9.18 -92.19,-19.64 -134.77,-30.97l0.15 0zm440.02 0l25.23 -78c58.35,20.5 100.65,38.28 127.17,53.34 -7.03,-66.38 -10.75,-112.12 -11.18,-137.07l80.29 0c-1.15,36.42 -5.3,81.87 -12.76,136.49 37.85,-19.07 81.29,-36.7 130.04,-52.76l25.23 78c-46.6,15.48 -92.19,25.81 -137.07,30.97 22.37,19.36 53.91,54.34 94.63,104.23l-65.95 46.88c-21.36,-28.96 -46.6,-68.53 -75.56,-118.57 -27.38,51.9 -51.33,91.47 -71.83,118.57l-64.81 -46.88c42.44,-52.62 72.98,-87.32 91.19,-104.23 -47.31,-9.18 -92.19,-19.64 -134.77,-30.97l0.15 0zm440.02 0l25.23 -78c58.35,20.5 100.65,38.28 127.17,53.34 -7.03,-66.38 -10.75,-112.12 -11.18,-137.07l80.29 0c-1.15,36.42 -5.3,81.87 -12.76,136.49 37.85,-19.07 81.29,-36.7 130.04,-52.76l25.23 78c-46.6,15.48 -92.19,25.81 -137.07,30.97 22.37,19.36 53.91,54.34 94.63,104.23l-65.95 46.88c-21.36,-28.96 -46.6,-68.53 -75.56,-118.57 -27.38,51.9 -51.33,91.47 -71.83,118.57l-64.81 -46.88c42.44,-52.62 72.98,-87.32 91.19,-104.23 -47.31,-9.18 -92.19,-19.64 -134.77,-30.97l0.15 0z"/>
 </g>
</svg>
