<?xml version="1.0" encoding="UTF-8"?>
<!DOCTYPE svg PUBLIC "-//W3C//DTD SVG 1.1//EN" "http://www.w3.org/Graphics/SVG/1.1/DTD/svg11.dtd">
<!-- Creator: CorelDRAW 2018 (64 Bit Versão de avaliação) -->
<svg xmlns="http://www.w3.org/2000/svg" xml:space="preserve" width="24.113mm" height="24.113mm" version="1.1" shape-rendering="geometricPrecision" text-rendering="geometricPrecision" image-rendering="optimizeQuality" fill-rule="evenodd" clip-rule="evenodd"
viewBox="0 0 168.18 168.18"
 xmlns:xlink="http://www.w3.org/1999/xlink">
 <g id="Camada_x0020_1">
  <metadata id="CorelCorpID_0Corel-Layer"/>
  <path fill="#1A1A1A" d="M84.09 0c46.44,0 84.09,37.65 84.09,84.09 0,46.44 -37.65,84.09 -84.09,84.09 -46.44,0 -84.09,-37.65 -84.09,-84.09 0,-46.44 37.65,-84.09 84.09,-84.09zm-38.67 127.42c-6.75,0 -4.27,-6.3 -3.07,-10.78 1.12,-4.15 2.88,-8.42 4.84,-11.76 3.47,-5.91 10.46,-13.08 16.53,-16.41 0.78,0.49 1.27,1.14 2,1.74 9.03,7.35 19.46,9.5 30.43,4.28 1.67,-0.8 3.01,-1.7 4.43,-2.74 1,-0.74 3.27,-2.94 3.94,-3.22 3.45,2.16 6.89,4.76 9.31,7.25 5.87,6.05 9.59,12 12.06,20.59 1.35,4.69 3.21,11.06 -2.58,11.06 -26.13,0 -52.25,0 -77.89,0zm37.08 -86.57c7.72,-0.76 14.66,2.99 18.3,6.8 4.54,4.76 6.99,8.69 7.96,17.55 0.83,7.55 -2.5,14.95 -5.99,19.07 -9.25,10.93 -24.66,12.19 -35.33,2.23 -14.56,-13.59 -9.03,-43.3 15.07,-45.66z"/>
 </g>
</svg>
