<?xml version="1.0" encoding="UTF-8"?>
<!DOCTYPE svg PUBLIC "-//W3C//DTD SVG 1.1//EN" "http://www.w3.org/Graphics/SVG/1.1/DTD/svg11.dtd">
<!-- Creator: CorelDRAW 2018 (64 Bit Versão de avaliação) -->
<svg xmlns="http://www.w3.org/2000/svg" xml:space="preserve" width="100mm" height="84.84mm" version="1.1" style="shape-rendering:geometricPrecision; text-rendering:geometricPrecision; image-rendering:optimizeQuality; fill-rule:evenodd; clip-rule:evenodd"
viewBox="0 0 10000 8484"
 xmlns:xlink="http://www.w3.org/1999/xlink">
 <defs>
  <style type="text/css">
   <![CDATA[
    .fil32 {fill:none}
    .fil0 {fill:white}
    .fil29 {fill:#1E3D70;fill-rule:nonzero}
    .fil30 {fill:#204272;fill-rule:nonzero}
    .fil11 {fill:#224275;fill-rule:nonzero}
    .fil26 {fill:#233862;fill-rule:nonzero}
    .fil18 {fill:#2B478B;fill-rule:nonzero}
    .fil15 {fill:#2C3A64;fill-rule:nonzero}
    .fil7 {fill:#82B378;fill-rule:nonzero}
    .fil13 {fill:#91B0F2;fill-rule:nonzero}
    .fil8 {fill:#A8D29F;fill-rule:nonzero}
    .fil12 {fill:#AEC3FF;fill-rule:nonzero}
    .fil6 {fill:#CBE1FD;fill-rule:nonzero}
    .fil17 {fill:#CDE0FB;fill-rule:nonzero}
    .fil16 {fill:#DCE9FA;fill-rule:nonzero}
    .fil5 {fill:#DCEAFF;fill-rule:nonzero}
    .fil22 {fill:#E2810E;fill-rule:nonzero}
    .fil24 {fill:#E5C1A1;fill-rule:nonzero}
    .fil28 {fill:#EA8E50;fill-rule:nonzero}
    .fil4 {fill:#ED7D2B;fill-rule:nonzero}
    .fil27 {fill:#ED975D;fill-rule:nonzero}
    .fil14 {fill:#ED985F;fill-rule:nonzero}
    .fil3 {fill:#EFA26F;fill-rule:nonzero}
    .fil2 {fill:#F99746;fill-rule:nonzero}
    .fil25 {fill:#F9DDBF;fill-rule:nonzero}
    .fil21 {fill:#FFA412;fill-rule:nonzero}
    .fil20 {fill:#FFAE39;fill-rule:nonzero}
    .fil31 {fill:#FFB07B;fill-rule:nonzero}
    .fil1 {fill:#FFB27D;fill-rule:nonzero}
    .fil10 {fill:#FFC197;fill-rule:nonzero}
    .fil19 {fill:#FFC76C;fill-rule:nonzero}
    .fil9 {fill:#FFD3B6;fill-rule:nonzero}
    .fil23 {fill:#FFEDDC;fill-rule:nonzero}
   ]]>
  </style>
   <clipPath id="id0">
    <path d="M-0 0.23l10000 0 0 8483.59 -10000 0 0 -8483.59z"/>
   </clipPath>
 </defs>
 <g id="Camada_x0020_1">
  <metadata id="CorelCorpID_0Corel-Layer"/>
  <polygon class="fil0" points="-0,0.23 10000,0.23 10000,8483.82 -0,8483.82 "/>
  <g style="clip-path:url(#id0)">
   <g id="_1975419923168">
    <path id="1" class="fil1" d="M6565.58 4097.42l-275.13 -270.81 -269.96 -265.74c-13.11,-15.6 -15.81,-31.4 -11.36,-47.17 13.91,-49.54 97.88,-98.75 146.93,-140.07l4.92 -4.2c64.62,-54.51 162.07,-46.23 216.51,18.37l330.05 391.24 0.04 0 97.88 116.04c54.49,64.6 46.22,162.05 -18.4,216.52l-4.92 4.2c-64.61,54.5 -162.07,46.22 -216.56,-18.38z"/>
    <path class="fil1" d="M6645.62 2354.63c-3.17,34.47 -42.11,90.05 -112.11,98.36 -353.74,42.12 -574.05,-69.5 -584.31,-69.36 -268.93,1.28 -459.39,-96.66 -517,-45.97 -2.12,1.85 -1.55,5.85 1.47,11.55 52.74,102.32 868.85,782.73 880.72,858.24 12.54,79.72 -1518.07,454.76 -1518.07,454.76 0,0 -226.11,-140.98 -479.33,-326 -128.44,-93.71 -263.73,-198.73 -380.04,-302.49 -117.32,-104.42 -215.43,-207.76 -267.85,-296.76l-0.28 -0.59c-7.9,-13.31 -14.72,-26.33 -20.34,-39.04 -0.9,-2 -1.75,-3.82 -2.41,-5.5 -40.96,-96.15 -110.74,-180.85 -190.07,-252.96 -205.54,-186.78 -475.14,-289.44 -475.14,-289.44l1123.93 -599.75c0,0 1031.95,121.27 1197.04,221.45 240.59,146.11 744.48,253.24 841.42,309.84 71.93,41.96 451.14,178.12 478.85,190.3 11.88,5.36 27.68,40.27 23.52,83.36z"/>
    <path class="fil2" d="M3749.23 1377.69c0,0 -0.27,2.28 -0.89,6.59l0 0.07c-4.58,33.79 -27.81,192.48 -79.99,373.47l0 0.07c-1.98,6.66 -3.92,13.44 -5.96,20.17l0 0.06c-0.9,3.01 -1.84,6.06 -2.74,9.07l0 0.06c-64.91,214.8 -170.48,452.83 -333.4,548.81l-0.1 0c-9.33,5.48 -18.83,10.51 -28.58,15.07 -22.56,10.5 -46.16,18.34 -70.86,23.04 -18.22,3.58 -36.9,5.4 -56.29,5.4 0,0 -142.9,-17.15 -356.73,-43.19 -11.68,-1.43 -23.6,-2.93 -35.77,-4.43 -386.52,-47.19 -3570.19,-1223.96 -3982.16,-1279.02 -0.08,-9.93 0.12,-19.71 0.66,-29.51 38.17,-731.76 1468.16,-1318.05 2098.29,-1590.13 334.63,200.11 2288.57,1605.04 2513.23,1739.71l0.19 0.07 0.52 0.33c14.33,8.61 28.39,17.03 41.96,25.12l0.85 0.51c183.87,110.28 297.77,178.66 297.77,178.66z"/>
    <path class="fil3" d="M3836.9 2226.81c0.47,1.01 1.13,1.92 1.32,2.95 105.63,667.73 493.35,557.59 493.35,557.59l-14.58 548.86c-128.44,-93.71 -263.73,-198.73 -380.04,-302.49 -117.32,-104.42 -215.43,-207.76 -267.85,-296.76l-0.28 -0.59c-9.13,-16.54 -15.99,-29.76 -20.34,-39.04 -0.9,-2 -1.75,-3.82 -2.41,-5.5 -40.96,-96.15 -110.74,-180.85 -190.07,-252.96 41.24,-70.5 89.45,-150.63 137.1,-229.09 58.03,-95.39 200.41,-85.87 243.8,17.03z"/>
    <path class="fil4" d="M3408.65 1172.38c0,0 -362.64,313.65 -511.99,534.03l108.24 187.69 -184.11 -17.32c0,0 -93.76,340.27 -42.81,455.17l502.04 47.26 578.69 -926.04 -450.06 -280.79z"/>
    <path class="fil5" d="M2811 2409.13c-14.86,-136.47 117.51,-415.11 117.51,-415.11l445.13 88.86 -342.72 -361.24c77.34,-160.13 262.93,-404.49 377.73,-549.25 57.18,-72.07 96.78,-119.46 96.78,-119.46 329.67,250.55 636.58,500.27 636.58,500.27 -134.58,52.14 -260.5,193.7 -365.29,350.13 -174.18,259.95 -289.93,560.98 -289.93,560.98 -267.17,-25.24 -675.79,-55.18 -675.79,-55.18z"/>
    <path class="fil6" d="M2811 2409.13c-14.86,-136.47 117.51,-415.11 117.51,-415.11l445.13 88.86 -342.72 -361.24c77.34,-160.13 262.93,-404.49 377.73,-549.25 5.86,399.2 368.07,730.94 368.07,730.94 -174.18,259.95 -289.93,560.98 -289.93,560.98 -267.17,-25.24 -675.79,-55.18 -675.79,-55.18z"/>
    <path class="fil2" d="M3305.8 1528.82c29.95,3.1 51.71,29.89 48.64,59.84 -3.13,29.94 -29.9,51.72 -59.85,48.61 -29.94,-3.09 -51.7,-29.89 -48.63,-59.84 3.13,-29.94 29.91,-51.71 59.84,-48.61z"/>
    <polygon class="fil7" points="3950.53,2794.37 4370.21,4265.71 7573.12,3352.07 7153.44,1880.74 "/>
    <polygon class="fil8" points="7677.43,3603.43 4402,4207.48 4124.51,2702.83 7399.94,2098.78 "/>
    <path class="fil7" d="M7320.47 3490.88l-661.61 122.03 -0.14 0 -78.99 14.55 -0.1 0 -413.87 76.34 -38.42 7.1 -292 53.84 -92.39 17.02 -59.28 10.97 -42.42 7.83 -138.13 25.45 -57.15 10.5 -34.73 6.46 -32.97 6.07 -26.4 4.83 -116.93 21.59 -33.16 6.13 -506.49 93.38c-79.14,14.61 -155.12,-37.72 -169.73,-116.86l-79.14 -429.34 -81.84 -443.63c-14.61,-79.13 37.75,-155.16 116.9,-169.78l1195.39 -220.4 559.7 -103.23 159.33 -29.41 0.14 0 200.42 -36.94 6.54 -1.24 0.09 0 503.57 -92.85c79.13,-14.61 155.1,37.72 169.72,116.86l160.97 872.96c4.51,24.53 2.61,48.81 -4.54,70.98 -15.89,49.41 -57.7,88.69 -112.34,98.79zm181.98 -118.6l-139.74 -757.81 -0.09 -0.26 -68.79 -373.15 -35.71 6.59 -613.41 113.14 -0.08 0 -6.96 1.3 -459.51 84.69 -58.76 10.83 -0.09 0 -492.64 90.89 -1295.1 238.81 -0.24 0.07 -0.86 0.2 -21.99 4.04 -0.67 0.08 -0.52 0.12 -32.93 6.07 49.77 269.93 58.18 315.6 125.75 681.79 707.78 -130.5 31.5 -5.8 117.37 -21.67 26.09 -4.83 34.45 -6.33 31.45 -5.81 60.04 -11.09 146.45 -27.02 41.53 -7.62 57.62 -10.65 50.29 -9.26 293.94 -54.2 0.1 0 59.71 -11.04 47.02 -8.68 406.95 -75.04 365.68 -67.41 133.64 -24.66 407.9 -75.22 -25.12 -136.1z"/>
    <path class="fil7" d="M5962.58 3525.96c-208.99,34.59 -406.43,-106.78 -441.07,-315.76 -34.57,-208.98 106.81,-406.45 315.77,-441.04 208.99,-34.59 406.45,106.77 441.07,315.76 34.58,208.98 -106.77,406.45 -315.77,441.04z"/>
    <path class="fil7" d="M5163.38 3437.42c-77.15,12.77 -150.07,-39.42 -162.83,-116.57 -12.79,-77.15 39.4,-150.05 116.55,-162.82 77.15,-12.77 150.05,39.41 162.83,116.57 12.76,77.14 -39.4,150.04 -116.55,162.82z"/>
    <path class="fil7" d="M6686.35 3156.55c-77.16,12.78 -150.05,-39.42 -162.83,-116.57 -12.76,-77.15 39.4,-150.05 116.56,-162.82 77.15,-12.77 150.06,39.41 162.82,116.58 12.78,77.15 -39.39,150.04 -116.55,162.81z"/>
    <path class="fil1" d="M5548.43 4137.28l-12.11 -32.53 -81.18 -218.79c-1.88,-5.11 -3.49,-10.31 -4.78,-15.49 -18.2,-72.38 20.92,-148.93 92.39,-175.45l8.38 -3.14c76.62,-28.43 162.58,10.97 191.01,87.59l75.69 203.96 5.48 14.82 12.07 32.53c28.42,76.63 -10.97,162.52 -87.56,190.95l-8.41 3.14c-76.59,28.42 -162.55,-10.98 -190.98,-87.59z"/>
    <path class="fil9" d="M5544.79 3960.1c-13.54,-36.52 -37.46,-102.61 -42.3,-137.89 -1.31,-9.99 4.21,-28.33 23.14,-45.33 11.36,-10.19 27.44,-19.91 49.72,-27.05 10.44,-3.34 20.9,-6.09 31.64,-7.2 12.54,-1.26 25.13,-0.8 37.51,1.48 11.22,2.08 21.34,9.82 26.64,21.03l0.09 0.17c17.6,37.62 39.04,88.29 50.86,132.69 8.18,30.68 -5.54,61.57 -32.41,71.04l-12.58 4.49 -64.29 22.9c-26.72,9.49 -57.05,-6.5 -68.02,-36.33z"/>
    <path class="fil10" d="M5544.79 3960.1c-13.54,-36.52 -37.46,-102.61 -42.3,-137.89 -1.31,-9.99 4.21,-28.33 23.14,-45.33 4.31,-1.79 8.79,-3.44 13.63,-4.99 10.5,-3.35 20.91,-6.1 31.64,-7.22 12.59,-1.26 25.12,-0.79 37.56,1.5 11.21,2.08 21.34,9.81 26.64,21.02l0.08 0.15c17.61,37.63 39.04,88.31 50.85,132.7 5.26,19.67 1.52,39.38 -8.93,53.49l-64.29 22.9c-26.72,9.49 -57.05,-6.5 -68.02,-36.33z"/>
    <path class="fil1" d="M5242.51 4035.91l-44.46 -168.57c-13.53,-51.23 17.3,-104.19 68.55,-117.71l19.05 -5.04c51.24,-13.51 104.22,17.33 117.69,68.56l44.52 168.57c13.53,51.22 -17.36,104.2 -68.54,117.71l-19.12 5.04c-51.18,13.51 -104.17,-17.33 -117.69,-68.56z"/>
    <path class="fil9" d="M5251.46 3945.01c-8,-30.96 -22.1,-86.93 -23.47,-116.22 -0.52,-10.64 8.66,-31.91 36.75,-45.6 6.81,-3.38 14.67,-6.23 23.8,-8.42 8.27,-1.97 16.46,-3.47 24.74,-3.56 9.74,-0.12 19.35,1.18 28.76,3.96 8.47,2.5 15.75,9.63 19.07,19.18l0.09 0.16c11.07,32.14 24.22,75.31 30.47,112.6 4.3,25.74 -8.28,50.06 -29.53,55.91l-15.18 4.23 -45.61 12.6c-21.09,5.82 -43.38,-9.54 -49.89,-34.84z"/>
    <path class="fil10" d="M5251.46 3945.01c-8,-30.96 -22.1,-86.93 -23.47,-116.22 -0.52,-10.64 8.66,-31.91 36.75,-45.6 7.71,-1.82 15.43,-3.11 23.23,-3.22 9.74,-0.12 19.34,1.19 28.76,3.98 8.42,2.5 15.75,9.62 19.07,19.17l0.09 0.16c11.07,32.16 24.22,75.31 30.42,112.61 3.59,21.32 -4.44,41.67 -19.35,51.36l-45.61 12.6c-21.09,5.82 -43.38,-9.54 -49.89,-34.84z"/>
    <path class="fil1" d="M5870.86 4134.48c-0.47,-1.2 -0.85,-2.4 -1.23,-3.64l-54.92 -220.97c-24.12,-97.16 29.09,-197.04 118.35,-221.93l45.71 -12.77c85.66,-23.94 174.64,29.64 202.94,119.96l18.15 72.96 36.76 148.02c24.18,97.16 -29.09,197.03 -118.31,221.94l-45.75 12.75c-84.47,23.6 -172.18,-28.21 -201.7,-116.32z"/>
    <path class="fil9" d="M5933.21 4033.9l-47.44 -107.52 -0.2 -0.67c-1.08,-4.32 -1.93,-8.67 -2.55,-12.98 -0.29,-1.8 -0.47,-3.64 -0.62,-5.42 -0.09,-0.77 -0.09,-1.53 -0.04,-2.28 0.46,-11.81 13.05,-19.8 24.21,-14.6 21.96,10.3 47.45,13.24 72.57,6.63l9.36 -2.49 0.3 -0.08 30.46 -8.05c24.31,-6.39 44.7,-20.23 59.51,-38.38 1.84,-2.18 3.49,-4.44 5.1,-6.74 14.87,-21.05 48.01,-15.41 54.73,9.43l0.2 0.69 16.88 117.72c7.67,29.13 -14.94,56.94 -44.04,64.64l-34.73 9.19 -74.01 19.52c-29.2,7.67 -62.03,0.51 -69.69,-28.61z"/>
    <path class="fil10" d="M5933.21 4033.9l-47.44 -107.52 -0.2 -0.67c-0.43,-2.52 -1.71,-10.38 -3.21,-20.68 0.46,-11.81 13.05,-19.8 24.21,-14.6 21.96,10.3 47.45,13.24 72.57,6.63l9.36 -2.49 0.3 -0.08 30.46 -8.05c24.31,-6.39 44.7,-20.23 59.51,-38.38 5.52,3.84 9.88,9.54 11.88,16.96l0.18 0.68 16.89 117.72c6.48,24.53 -8.57,48.09 -30.81,59.57l-74.01 19.52c-29.2,7.67 -62.03,0.51 -69.69,-28.61z"/>
    <path class="fil1" d="M5190.9 2093.64c0,0 -54.16,-422.72 110.93,-322.47 240.59,146.12 744.44,253.2 841.42,309.75 71.93,41.96 451.19,178.15 478.82,190.39 11.91,5.32 34.91,51.85 12.71,97.32 -15.18,31.19 -53.02,88.56 -118.72,114.11 -235.64,91.63 -556.6,-99.19 -566.86,-99.14 -268.98,1.3 -530.34,-28.75 -606.32,-17.89 -26.42,3.79 -151.98,-272.07 -151.98,-272.07z"/>
    <path class="fil10" d="M6650.26 2278.26l-266.24 -96.8c0,0 -25.97,52.9 -13.19,86.19 12.72,33.3 259.32,91.91 279.43,10.61z"/>
    <g>
     <path class="fil1" d="M9296.1 5427.04c0,0 17.03,11.74 23.42,37.23 4.95,19.53 -0.1,49.71 -1.65,73.69 -3.31,51.09 67.38,126.11 113.1,152.23 45.61,26.11 0,-108.75 0,-141.34 0,-32.65 13,-56.57 -23.95,-130.52 -36.94,-73.94 -110.92,8.71 -110.92,8.71z"/>
     <path class="fil4" d="M8265.56 4178.4c-13.51,-171.63 172.95,-289.29 320.09,-200.04 3.1,1.85 5.99,3.71 8.98,5.62 220.41,141.84 643.58,718.73 706.32,833.53 65.32,119.58 151.69,630.34 151.69,630.34 0,0 -119.4,43.66 -175.22,-1.61 0,0 -186.77,-442.92 -255.39,-518.88 -72.33,-80.09 -741.19,-449.84 -747.49,-606.71 -1.75,-41.48 -5.05,-91.34 -8.98,-142.25z"/>
     <path class="fil11" d="M9596.17 8052.69c0,0 88.84,81.07 71.6,138.69 -17.43,57.63 -97.61,96.03 -108.44,166.48 -10.84,70.38 -54.18,108.79 -93.18,108.79 -39.01,0 -185.95,0 -185.95,0 0,0 -28.78,-49.53 40.56,-64.47 69.35,-14.96 95.55,-97.69 91.21,-174.52 -4.33,-76.82 6.5,-179.23 6.5,-179.23l147.36 -34.15 30.34 38.41z"/>
     <path class="fil11" d="M8506.1 8262.39c0,0 15.89,184.59 -23.12,203.79l-499.22 -1.04c0,0 0,-57.62 80.18,-70.44 80.18,-12.77 221.03,-59.74 244.87,-164.28 23.93,-104.59 197.29,31.97 197.29,31.97z"/>
     <path class="fil12" d="M8084.58 5655.51c0,0 26.31,323.52 57.27,712.37 42.1,528.21 92.66,1177.04 97.62,1299.99 8.66,213.43 43.43,554.83 43.43,554.83 0,0 82.24,81.13 247.04,46.93 0,0 146.83,-487.38 188.72,-1003.06 0.72,-8.46 1.35,-16.98 1.96,-25.49 39.01,-524.95 99.68,-1630.36 99.68,-1630.36l-735.72 44.79z"/>
     <path class="fil13" d="M8084.58 5655.51c0,0 26.31,323.52 57.27,712.37l576.81 898.69c0.72,-8.46 1.35,-16.98 1.96,-25.49 39.01,-524.95 99.68,-1630.36 99.68,-1630.36l-735.72 44.79z"/>
     <path class="fil12" d="M8204.79 5693.93c0,0 474.66,1171.54 786.8,1722.13 312.04,550.57 409.55,704.22 409.55,704.22 0,0 178.83,-70.43 195.03,-118.45 0,0 -119.29,-1062.89 -328.34,-1321.98 -118.05,-146.4 -256.74,-585.77 -263.33,-739.41 -6.52,-153.65 -42.21,-457.78 -42.21,-457.78l-757.5 211.27z"/>
     <path class="fil1" d="M8614.03 3936.54c0,0 -317.92,161.3 -504.17,107.49 0,0 25.49,-33.55 72.23,-69.11 30.03,-22.85 45.61,-60.1 39.62,-97.33 -1.85,-11.6 -3.4,-22.52 -4.75,-32.75 -9.07,-62.94 -7.73,-108.06 -7.73,-108.06l119.9 -90.52 115.68 -95.55c-4.14,262.34 169.22,385.83 169.22,385.83z"/>
     <path class="fil2" d="M8930 5575.38c-128.48,77.72 -250.03,136.14 -392.22,168.98 -167.78,39.78 -374.05,28.04 -442.98,38.55 -7.13,0.94 -13.84,-0.9 -20.13,-5.11 -5.47,-2.78 -35.91,-207.44 -66.34,-465.76 -1.45,-10.42 -2.79,-20.91 -3.41,-31.42l-0.42 -3.45c-11.86,-100.99 -22.28,-207.09 -31.36,-313.39 -7.33,-82.73 -13.31,-164.58 -17.55,-241.44 -5.26,-96.17 -7.53,-184.49 -5.26,-257.16 0.94,-33.23 2.9,-63.07 5.89,-89 18.15,-150.89 81.21,-259.21 149,-339.48l78.31 -62.87c65.22,4.12 118.47,-8.79 181.31,-50.26 68.72,-45.2 142.8,-93.82 156.83,-85.7 105.26,57.59 190.91,206.81 252.09,403.86 35.09,113.43 62.02,242.13 79.25,378.47 5.58,42.29 10.22,85.67 13.83,128.91 0.72,7.99 1.34,16 1.96,23.84 8.25,118.13 21.77,228.86 36.73,327.73 20.12,133.36 42.93,245.04 59.13,323.7 8.15,40.02 14.34,70.95 18.06,93.15 3.3,19.36 -35.49,47.06 -52.72,57.85z"/>
     <path class="fil14" d="M8448.83 3650.9c0,0 -78.12,149.52 -231.87,193.94 -13.82,-79.34 -9.79,-203.99 -9.79,-203.99l121.96 5.41 119.7 4.64z"/>
     <path class="fil1" d="M8117.08 3677.14c0,0 287.38,117.52 357.55,-59.58 70.27,-177.08 154.67,-281.19 -25.8,-363.71 -180.47,-82.53 -243.11,-28.97 -281.19,24.41 -38.08,53.39 -123.41,363.75 -50.56,398.88z"/>
     <path class="fil15" d="M8666.35 3280.76c3.5,-2.49 10.32,-3.56 24.35,-1.11 0,0 -9.49,-9.5 -24.25,-13.3 1.55,-20.01 -0.83,-56.63 -32.3,-72.6 0,0 15.69,13.66 13.31,34.76 -29.41,-48.48 -105.34,-96.31 -338.35,-130.89 -307.09,-45.56 -252.08,170.37 -218.34,202.36 33.74,32 146.53,-8.5 217.94,14.02 71.39,22.5 61.08,130.77 82.44,150.87 21.35,20.11 17.44,-7.64 54.38,-15.04 36.84,-7.4 27.24,48.64 9.38,82.4 -17.95,33.75 17.04,91.74 17.04,91.74 0,0 0,0 57.78,-39.26 57.88,-39.25 150.24,-240.67 139.51,-290.59 -0.93,-4.41 -1.86,-8.86 -2.89,-13.36z"/>
     <path class="fil4" d="M8489.27 4482c0,0 -258.99,197.15 -533.68,240.34 -5.26,-96.17 -7.53,-184.49 -5.26,-257.16l538.94 16.82z"/>
     <path class="fil1" d="M6956.03 3801.41c-2.6,-5.41 -0.8,-189.74 -91.86,-204.48 -59.42,-9.61 -213.4,-50.72 -211.93,31.96 0.57,32.51 193.29,233.09 193.29,233.09l110.5 -60.57z"/>
     <path class="fil2" d="M8543.87 4161.05c114.95,128.15 38.38,334.87 -132.81,353.38 -3.51,0.39 -7.02,0.72 -10.52,1 -261.28,21.2 -1004.48,-191.65 -1107.33,-248.53 -170.72,-94.45 -463.44,-393.15 -463.44,-393.15 0,0 68.31,-107.2 140.17,-105.11 0,0 391.82,249.58 532.15,279.43 94.62,20.16 847.88,-115.29 948.28,5.44 26.42,31.94 59.44,69.53 93.5,107.54z"/>
     <path class="fil1" d="M9428.8 5474.05c0,0 13.93,30.76 23.84,54.64 9.8,23.94 15.27,68.55 7.63,64.2 -7.53,-4.36 -34.77,-36.14 -43.44,-52.32 -8.67,-16.22 11.97,-66.52 11.97,-66.52z"/>
    </g>
    <path class="fil16" d="M3985.75 6156.89l0 -0.01c-0.11,-0.94 -90.58,-757.05 -478.14,-1208.42 -17.46,-20.35 -40.35,-29.38 -62.92,-29.38 -43.94,0 -86.67,34.39 -85.57,86.66 0,1.31 0.05,2.65 0.1,4.02 5,135.02 439.21,704.45 626.53,1147.13z"/>
    <path class="fil16" d="M4032.87 6373.55c-385.19,-486.9 -1121.35,-1046.95 -1173.95,-1213.31 -19.73,-62.4 -11.82,-102.37 5.77,-127.91 16.79,-24.51 44.32,-37.32 72.43,-37.32 16.97,0 34.15,4.68 49.29,14.28 660.04,418.36 1046.46,1364.26 1046.46,1364.26z"/>
    <path class="fil17" d="M4615.11 8249.38c-8.19,-16.31 -16.8,-32.02 -25.92,-46.88l-0.2 -0.28 -0.37 -0.66c-6.11,-9.18 -14.82,-22.2 -25.64,-38.08l-0.05 -0.06 -0.06 -0.08c-26.15,-35.06 -44.21,-61.17 -56.1,-80.24l-0.09 -0.18c-79.27,-110.6 -190.68,-253.27 -252.78,-276.64l0 0c-67.29,244.7 -572.78,376.87 -893.17,376.87 -12.54,0 -24.75,-0.18 -36.67,-0.61 -316.89,-10.74 -198.1,-119.78 -57.05,-288.04 141.07,-168.21 492.88,-190.03 585.59,-262.36 60.97,-47.53 13.29,-76.62 -83.78,-76.62 -50.56,0 -114.52,7.85 -183.48,25.11 -201.53,50.43 -268.89,271.97 -593.35,359.48 -22.85,6.14 -45.89,8.98 -68.88,9.02 -304.07,0 -612.37,-499.15 -612.37,-499.15 17.89,2.36 36.58,3.49 55.84,3.49 239.44,0 571.05,-172.69 573.22,-247.83 0.63,-21.99 -43.18,-29.93 -109.31,-29.93 -85,0 -206.87,13.05 -318.89,26.1 -111.97,13.07 -214.1,26.12 -259.55,26.12 -4.35,0 -8.19,-0.1 -11.45,-0.33 -98.24,-7.58 -295.19,-167.99 -257.19,-562.26 36.2,-375.89 634.3,-384.69 689.94,-384.69 2.74,0 4.11,0.05 4.11,0.05 0,0 538.85,580.52 670.49,580.52 0.67,0 1.28,0 1.89,0 128.34,-5.67 -367.27,-592.02 -367.27,-592.02 34.48,-9.36 77.96,-13.33 127.06,-13.33 291.83,0 783.46,141.29 783.46,141.29 0,0 87.38,740.46 206.02,740.46 2.84,0 5.68,-0.42 8.52,-1.32 122.99,-37.05 -116.14,-683.18 -116.14,-683.18 247.59,30.65 514.2,268.08 514.2,268.08 350.96,400.86 -181.93,830.82 -181.93,830.82 0,0 37.56,268.31 254.54,546.55l0 0c0,0 46.84,50.19 101,139.88l-64.19 10.93zm-352.47 -474.89c-2.79,10.16 -5.67,20.72 -8.74,31.79 0,0 5.38,-11.16 8.74,-31.79z"/>
    <path class="fil17" d="M7278.84 7580.34c-16.32,0 -35.05,-0.84 -56.34,-2.64 -232.5,-19.54 -617.85,-163.49 -646.94,-355.31l0 0c-47.35,11.69 -141.11,106.34 -208.61,180.29l-0.1 0.13c-10.32,12.87 -25.78,30.42 -47.91,53.8l-0.06 0.03 -0.04 0.06c-9.27,10.64 -16.75,19.44 -22,25.59l-0.33 0.42 -0.14 0.19c-8,10.13 -15.62,20.82 -23,32.02l-46.03 -13.53c47.36,-60.83 85.92,-93.46 85.92,-93.46l0 0c182.58,-184.55 233.26,-377.36 233.26,-377.36 0,0 -352.24,-360.22 -61.12,-622.81 0,0 215.33,-150.48 398.87,-151.43 0,0 -230.57,451.44 -143.9,489.14 2.84,1.23 5.68,1.83 8.6,1.83 86.63,-0.04 212.07,-523.41 212.07,-523.41 0,0 254.74,-41.68 463.41,-41.68 85.7,0 163.67,7.05 212.97,26.91 0,0 -412.84,385.58 -319.55,400.82 1.84,0.28 3.78,0.42 5.86,0.42 104.79,0 535.6,-366.52 535.6,-366.52 0,0 480.24,49.68 473.93,341.08 -6.29,287.23 -159.62,388.69 -233.3,388.66 -1.14,0 -2.17,0 -3.2,-0.06 -59.23,-2.45 -358.26,-91.77 -468.34,-91.77 -24.61,0 -39.73,4.45 -40.68,15.33 -5.29,59.08 256.63,232.93 434.52,232.93 1.34,0 2.69,-0.04 4.02,-0.04 0,0 -248.67,313.24 -465.5,313.24 -25.5,0 -50.52,-4.3 -74.64,-14 -229.53,-91.96 -259.62,-259.65 -402.52,-313.91 -64.48,-24.51 -123.99,-36.33 -164.25,-36.33 -48.86,0 -69.25,17.45 -35.51,50.85 61.53,60.88 316.7,107.19 405.25,242.35 80.41,122.69 151.61,208.17 -10.27,208.17zm-706.87 -381.93c0.61,15.32 3.59,23.98 3.59,23.98 -1.23,-8.37 -2.45,-16.31 -3.59,-23.98z"/>
    <path class="fil4" d="M3601.26 6539.17l0 368.74c0,70.58 -60.4,128.34 -134.19,128.34l-276.22 0c-73.79,0 -134.21,-57.76 -134.21,-128.34l0 -368.74c0,-70.62 60.42,-128.38 134.21,-128.38l276.22 0c73.79,0 134.19,57.76 134.19,128.38z"/>
    <path class="fil2" d="M3601.26 6539.17l0 205.4c0,70.58 -60.4,128.39 -134.19,128.39l-276.22 0c-73.79,0 -134.21,-57.81 -134.21,-128.39l0 -205.4c0,-70.62 60.42,-128.38 134.21,-128.38l276.22 0c73.79,0 134.19,57.76 134.19,128.38z"/>
    <path class="fil4" d="M6662.13 6723.52c0,188.64 -40.36,368.83 -113.2,532.79 -218.59,492.12 -729.68,839.47 -1321.51,839.47l-410.13 0c-24.59,0 -49.01,-0.57 -73.33,-1.75 -300.57,-14.66 -577.4,-118.87 -801.91,-285.14 -143.8,-106.4 -266.13,-238.43 -359.32,-388.53 -126.97,-204.58 -200.06,-442.9 -200.06,-696.84 0,-188.74 40.31,-368.74 113.2,-532.85 218.51,-492.06 729.64,-839.43 1321.42,-839.43l410.13 0c538.19,0 1009.62,287.3 1254.99,709.39 114.39,196.79 179.72,422.96 179.72,662.89z"/>
    <path class="fil4" d="M5470.24 7513.18l-133.84 831.14c-17.77,64.38 32.97,127.44 102.62,127.44l351.65 0c75.4,0 144.48,-40.3 179,-104.4l546.62 -1042.84 -1046.05 188.66z"/>
    <path class="fil4" d="M4674.2 8471.76l-351.67 0c-75.41,0 -144.47,-40.26 -179.01,-104.4l-338.04 -570.88 -222.75 -376.12 1086.78 107.1 39.26 298.78 35.19 267.79 32.89 250.29c17.73,64.43 -33.03,127.44 -102.65,127.44z"/>
    <path class="fil2" d="M6446.13 6564.86c-289.55,796.56 -563.58,1222.44 -1673.55,1259.49 -21.52,0.76 -42.81,1.37 -63.81,1.89 -316.84,8.33 -574.32,-2.27 -766.72,-17.35 -49.9,-3.88 -95.45,-8.15 -136.57,-12.41l-222.75 -376.12c-126.97,-204.58 -200.06,-442.9 -200.06,-696.84 0,-188.74 40.31,-368.74 113.2,-532.85 218.51,-492.06 729.64,-839.43 1321.42,-839.43l410.13 0c538.19,0 1009.62,287.3 1254.99,709.39 34.02,158.29 7.24,384.51 -36.28,504.23z"/>
    <path class="fil2" d="M4648.17 5695.07l-564.3 0c-56.9,0 -103.02,-33.08 -103.02,-73.8l0 -736.97c0,-12.54 4.16,-24.02 11.29,-33.91 27.59,-38.32 100.11,-54.11 154.09,-24.88 214.24,116.17 565.24,368.59 604.74,790.7 3.97,42.67 -43.19,78.86 -102.8,78.86z"/>
    <path class="fil4" d="M4106.82 5695.07l-22.95 0c-56.9,0 -103.02,-33.08 -103.02,-73.8l0 -736.97c0,-12.54 4.16,-24.02 11.29,-33.91 2.43,1.99 4.75,4.11 6.96,6.48 122.57,130.51 299.26,386.95 249.45,746.14 -7.25,52.23 -68.45,92.06 -141.73,92.06z"/>
    <path class="fil18" d="M3809.42 6187.7c0,-44.42 37.65,-80.43 84.06,-80.43 46.45,0 84.1,36.01 84.1,80.43 0,44.42 -37.65,80.41 -84.1,80.41 -46.41,0 -84.06,-35.99 -84.06,-80.41z"/>
    <path class="fil19" d="M5503.72 8340.21l0 85.9c0,6.86 2.47,13.2 6.77,18.5 4.45,5.58 10.93,9.98 18.5,12.39 2.32,0.81 4.73,1.38 7.19,1.71 2.26,0.37 4.59,0.57 6.96,0.57l1630.16 0c21.05,0 38.37,-14.01 39.41,-31.46 0.05,-0.53 0.05,-1.14 0.05,-1.71l0 -85.9c0,-0.57 0,-1.14 -0.05,-1.71 -1.04,-17.45 -18.36,-31.46 -39.41,-31.46l-1630.16 0c-2.37,0 -4.7,0.2 -6.96,0.57 -2.46,0.33 -4.87,0.9 -7.19,1.7 -7.57,2.47 -14.05,6.82 -18.5,12.4 -4.3,5.29 -6.77,11.64 -6.77,18.5z"/>
    <path class="fil20" d="M6304.22 8459.28l873.34 0c18.73,0 34.21,-14.01 35.15,-31.46 0.05,-0.53 0.05,-1.14 0.05,-1.71l0 -85.9c0,-0.57 0,-1.14 -0.05,-1.71 -0.94,-17.45 -16.42,-31.46 -35.15,-31.46l-766.1 0c-12.26,44.84 -40.72,106.77 -107.24,152.24z"/>
    <polygon class="fil21" points="5702.08,8459.28 5720.62,8459.28 5720.62,8307.1 5702.08,8307.1 "/>
    <polygon class="fil21" points="5764.81,8459.28 5783.31,8459.28 5783.31,8307.1 5764.81,8307.1 "/>
    <polygon class="fil21" points="5840.02,8459.28 5858.52,8459.28 5858.52,8307.1 5840.02,8307.1 "/>
    <polygon class="fil21" points="5955.3,8459.28 5973.79,8459.28 5973.79,8307.1 5955.3,8307.1 "/>
    <polygon class="fil21" points="6077.15,8459.28 6095.7,8459.28 6095.7,8307.1 6077.15,8307.1 "/>
    <polygon class="fil21" points="6264.06,8459.28 6282.6,8459.28 6282.6,8307.1 6264.06,8307.1 "/>
    <polygon class="fil21" points="6439.05,8459.28 6457.58,8459.28 6457.58,8307.1 6439.05,8307.1 "/>
    <polygon class="fil21" points="6595.29,8459.28 6613.84,8459.28 6613.84,8307.1 6595.29,8307.1 "/>
    <polygon class="fil21" points="5642.37,8459.28 5660.92,8459.28 5660.92,8307.1 5642.37,8307.1 "/>
    <polygon class="fil21" points="5602.93,8459.28 5621.47,8459.28 5621.47,8307.1 5602.93,8307.1 "/>
    <polygon class="fil21" points="5564.84,8459.28 5583.38,8459.28 5583.38,8307.1 5564.84,8307.1 "/>
    <path class="fil21" d="M5536.18 8307.61l0 151.1c2.26,0.37 4.59,0.57 6.96,0.57l11.58 0 0 -152.24 -11.58 0c-2.37,0 -4.7,0.2 -6.96,0.57z"/>
    <path class="fil21" d="M5510.49 8321.71l0 122.9c4.45,5.58 10.93,9.98 18.5,12.39l0 -147.69c-7.57,2.47 -14.05,6.82 -18.5,12.4z"/>
    <path class="fil19" d="M5678 8188.02l0 85.91c0,6.86 2.51,13.2 6.77,18.5 4.48,5.58 10.93,9.93 18.49,12.39 2.33,0.81 4.74,1.37 7.24,1.71 2.28,0.37 4.59,0.51 6.96,0.51l1630.17 0c21,0 38.31,-13.95 39.4,-31.4 0,-0.57 0.05,-1.14 0.05,-1.71l0 -85.91c0,-0.6 -0.05,-1.17 -0.05,-1.7 -1.09,-17.45 -18.4,-31.45 -39.4,-31.45l-1630.17 0c-1.05,0 -2.09,0.04 -3.13,0.14 -0.43,0 -0.9,0.04 -1.32,0.09 -0.48,0.05 -1,0.1 -1.47,0.19l-1.04 0.14c-2.5,0.33 -4.91,0.9 -7.24,1.71l-1 0.33 -1.04 0.37c-0.61,0.23 -1.31,0.53 -1.98,0.8l-1.13 0.53 -1 0.47c-0.61,0.34 -1.23,0.67 -1.84,1 -0.71,0.42 -1.38,0.84 -2.04,1.28 -0.51,0.33 -1,0.66 -1.51,1.04l-0.1 0.09 -1 0.7c-0.98,0.81 -1.97,1.61 -2.84,2.52l-0.8 0.75 -0.75 0.81c-0.53,0.57 -0.99,1.14 -1.46,1.7 -4.26,5.25 -6.77,11.63 -6.77,18.49z"/>
    <path class="fil20" d="M6478.49 8307.04l873.35 0c18.77,0 34.19,-13.95 35.19,-31.4 0,-0.57 0.05,-1.14 0.05,-1.71l0 -85.91c0,-0.6 -0.05,-1.17 -0.05,-1.7 -1,-17.45 -16.42,-31.45 -35.19,-31.45l-766.06 0c-0.33,1.26 -0.7,2.5 -1.09,3.77 -12.78,44.43 -41.48,104.27 -106.2,148.4z"/>
    <polygon class="fil21" points="5876.34,8307.04 5894.89,8307.04 5894.89,8154.86 5876.34,8154.86 "/>
    <polygon class="fil21" points="5939.07,8307.04 5957.62,8307.04 5957.62,8154.86 5939.07,8154.86 "/>
    <polygon class="fil21" points="6014.28,8307.04 6032.83,8307.04 6032.83,8154.86 6014.28,8154.86 "/>
    <polygon class="fil21" points="6129.58,8307.04 6148.11,8307.04 6148.11,8154.86 6129.58,8154.86 "/>
    <polygon class="fil21" points="6251.47,8307.04 6270.02,8307.04 6270.02,8154.86 6251.47,8154.86 "/>
    <polygon class="fil21" points="6438.38,8307.04 6456.88,8307.04 6456.88,8154.86 6438.38,8154.86 "/>
    <polygon class="fil21" points="6613.36,8307.04 6631.86,8307.04 6631.86,8154.86 6613.36,8154.86 "/>
    <polygon class="fil21" points="6769.55,8307.04 6788.09,8307.04 6788.09,8154.86 6769.55,8154.86 "/>
    <polygon class="fil21" points="5816.65,8307.04 5835.2,8307.04 5835.2,8154.86 5816.65,8154.86 "/>
    <polygon class="fil21" points="5777.25,8307.04 5795.74,8307.04 5795.74,8154.86 5777.25,8154.86 "/>
    <polygon class="fil21" points="5739.17,8307.04 5757.66,8307.04 5757.66,8154.86 5739.17,8154.86 "/>
    <path class="fil21" d="M5710.5 8155.39l0 151.14c2.28,0.33 4.59,0.51 6.96,0.51l11.58 0 0 -152.17 -11.58 0c-2.37,0 -4.68,0.18 -6.96,0.52z"/>
    <path class="fil21" d="M5684.77 8169.48l0 122.95c4.48,5.58 10.93,9.93 18.49,12.39l0 -147.73c-7.56,2.46 -14.01,6.86 -18.49,12.39z"/>
    <path class="fil19" d="M5593.8 8039.58l0 85.95c0,6.82 2.45,13.2 6.76,18.45 4.44,5.59 10.93,10 18.5,12.41 2.31,0.79 4.74,1.36 7.19,1.68 2.27,0.39 4.58,0.57 6.95,0.57l1630.17 0c6.58,0 12.78,-1.35 18.22,-3.77 11.53,-5.07 19.76,-14.8 21.04,-26.16 0.1,-0.53 0.15,-1 0.15,-1.48 0.04,-0.56 0.04,-1.12 0.04,-1.7l0 -85.95c0,-0.56 0,-1.13 -0.04,-1.69 -1.05,-17.46 -18.35,-31.42 -39.41,-31.42l-1630.17 0c-2.37,0 -4.68,0.14 -6.95,0.52 -2.45,0.39 -4.88,0.9 -7.19,1.7 -7.57,2.46 -14.06,6.82 -18.5,12.4 -4.31,5.29 -6.76,11.64 -6.76,18.49z"/>
    <path class="fil20" d="M6394.29 8158.64l873.35 0c5.81,0 11.34,-1.35 16.22,-3.77 10.3,-5.07 17.64,-14.8 18.77,-26.16 0.1,-0.53 0.15,-1 0.15,-1.48 0.04,-0.56 0.04,-1.12 0.04,-1.7l0 -85.95c0,-0.56 0,-1.13 -0.04,-1.69 -0.95,-17.46 -16.41,-31.42 -35.14,-31.42l-766.12 0c-11.91,43.58 -39.2,103.36 -101.89,148.4 -1.75,1.26 -3.54,2.5 -5.34,3.77z"/>
    <polygon class="fil21" points="5792.14,8158.64 5810.69,8158.64 5810.69,8006.47 5792.14,8006.47 "/>
    <polygon class="fil21" points="5854.87,8158.64 5873.37,8158.64 5873.37,8006.47 5854.87,8006.47 "/>
    <polygon class="fil21" points="5930.08,8158.64 5948.59,8158.64 5948.59,8006.47 5930.08,8006.47 "/>
    <polygon class="fil21" points="6045.32,8158.64 6063.87,8158.64 6063.87,8006.47 6045.32,8006.47 "/>
    <polygon class="fil21" points="6167.23,8158.64 6185.77,8158.64 6185.77,8006.47 6167.23,8006.47 "/>
    <polygon class="fil21" points="6354.13,8158.64 6372.67,8158.64 6372.67,8006.47 6354.13,8006.47 "/>
    <polygon class="fil21" points="6529.1,8158.64 6547.65,8158.64 6547.65,8006.47 6529.1,8006.47 "/>
    <polygon class="fil21" points="6685.35,8158.64 6703.89,8158.64 6703.89,8006.47 6685.35,8006.47 "/>
    <polygon class="fil21" points="5732.45,8158.64 5751,8158.64 5751,8006.47 5732.45,8006.47 "/>
    <polygon class="fil21" points="5692.99,8158.64 5711.54,8158.64 5711.54,8006.47 5692.99,8006.47 "/>
    <polygon class="fil21" points="5654.91,8158.64 5673.46,8158.64 5673.46,8006.47 5654.91,8006.47 "/>
    <path class="fil21" d="M5626.25 8006.99l0 151.08c2.27,0.39 4.58,0.57 6.95,0.57l11.6 0 0 -152.17 -11.6 0c-2.37,0 -4.68,0.14 -6.95,0.52z"/>
    <path class="fil21" d="M5600.56 8021.09l0 122.89c4.44,5.59 10.93,10 18.5,12.41l0 -147.7c-7.57,2.46 -14.06,6.82 -18.5,12.4z"/>
    <path class="fil19" d="M5554.72 7887.41l0 85.9c0,6.86 2.51,13.2 6.76,18.49 4.5,5.59 10.93,9.94 18.51,12.4 2.31,0.8 4.73,1.37 7.23,1.7 2.28,0.38 4.58,0.57 6.96,0.57l1630.17 0c20.99,0 38.31,-14 39.39,-31.45 0,-0.57 0.06,-1.14 0.06,-1.71l0 -85.9c0,-0.57 -0.06,-1.14 -0.06,-1.7 -0.98,-16.14 -15.89,-29.34 -34.71,-31.23 -1.57,-0.14 -3.07,-0.24 -4.68,-0.24l-1630.17 0c-2.38,0 -4.68,0.19 -6.96,0.57 -2.5,0.33 -4.92,0.9 -7.23,1.7 -7.58,2.42 -14.01,6.82 -18.51,12.4 -4.25,5.29 -6.76,11.64 -6.76,18.5z"/>
    <path class="fil20" d="M6355.22 8006.47l873.34 0c18.78,0 34.2,-14 35.18,-31.45 0,-0.57 0.06,-1.14 0.06,-1.71l0 -85.9c0,-0.57 -0.06,-1.14 -0.06,-1.7 -0.88,-16.14 -14.18,-29.34 -31.03,-31.23 -1.31,-0.14 -2.74,-0.24 -4.15,-0.24l-766.06 0 -0.1 0.24c-12.24,44.8 -40.77,106.63 -107.18,151.99z"/>
    <polygon class="fil21" points="5753.07,8006.47 5771.61,8006.47 5771.61,7854.24 5753.07,7854.24 "/>
    <polygon class="fil21" points="5815.8,8006.47 5834.34,8006.47 5834.34,7854.24 5815.8,7854.24 "/>
    <polygon class="fil21" points="5891.01,8006.47 5909.55,8006.47 5909.55,7854.24 5891.01,7854.24 "/>
    <polygon class="fil21" points="6006.29,8006.47 6024.84,8006.47 6024.84,7854.24 6006.29,7854.24 "/>
    <polygon class="fil21" points="6128.2,8006.47 6146.74,8006.47 6146.74,7854.24 6128.2,7854.24 "/>
    <polygon class="fil21" points="6315.1,8006.47 6333.59,8006.47 6333.59,7854.24 6315.1,7854.24 "/>
    <polygon class="fil21" points="6490.08,8006.47 6508.58,8006.47 6508.58,7854.24 6490.08,7854.24 "/>
    <polygon class="fil21" points="6646.28,8006.47 6664.83,8006.47 6664.83,7854.24 6646.28,7854.24 "/>
    <polygon class="fil21" points="5693.37,8006.47 5711.92,8006.47 5711.92,7854.24 5693.37,7854.24 "/>
    <polygon class="fil21" points="5653.96,8006.47 5672.46,8006.47 5672.46,7854.24 5653.96,7854.24 "/>
    <polygon class="fil21" points="5615.89,8006.47 5634.38,8006.47 5634.38,7854.24 5615.89,7854.24 "/>
    <path class="fil21" d="M5587.22 7854.76l0 151.14c2.28,0.38 4.58,0.52 6.96,0.52l11.59 0 0 -152.18 -11.59 0c-2.38,0 -4.68,0.19 -6.96,0.52z"/>
    <path class="fil21" d="M5561.48 7868.91l0 122.89c4.5,5.59 10.93,9.94 18.51,12.4l0 -147.73c-7.58,2.46 -14.01,6.86 -18.51,12.44z"/>
    <path class="fil19" d="M5674.59 7735.47l0 85.9c0,6.86 2.46,13.2 6.76,18.49 4.51,5.58 10.93,9.93 18.5,12.39 2.33,0.76 4.74,1.33 7.19,1.71 0.81,0.14 1.56,0.23 2.33,0.28 0.42,0.05 0.84,0.1 1.27,0.14 0.43,0.05 0.85,0.05 1.28,0.05 0.71,0.05 1.41,0.05 2.12,0.05l1630.12 0c21.06,0 38.38,-13.96 39.42,-31.41 0.03,-0.57 0.03,-1.13 0.03,-1.7l0 -85.9c0,-0.62 0,-1.19 -0.03,-1.76 0,-0.47 -0.06,-0.89 -0.1,-1.37 -1.57,-14 -13.67,-25.6 -29.57,-28.99l-1.17 -0.25c-2.76,-0.52 -5.64,-0.8 -8.58,-0.8l-1630.12 0c-1.23,0 -2.42,0.04 -3.54,0.15 -0.52,0.04 -1.05,0.08 -1.57,0.13l-0.03 0c-0.63,0.11 -1.23,0.2 -1.86,0.28 -2.45,0.34 -4.86,0.9 -7.19,1.66 -7.57,2.46 -13.99,6.86 -18.5,12.44 -4.3,5.26 -6.76,11.64 -6.76,18.51z"/>
    <path class="fil20" d="M6475.09 7854.48l873.34 0c18.73,0 34.2,-13.96 35.15,-31.41 0.03,-0.57 0.03,-1.13 0.03,-1.7l0 -85.9c0,-0.62 0,-1.19 -0.03,-1.76 0,-0.47 -0.06,-0.89 -0.1,-1.37 -1.42,-14.33 -12.68,-26.07 -27.29,-29.19 -0.53,-0.13 -1.05,-0.24 -1.51,-0.29 -2.05,-0.37 -4.13,-0.56 -6.25,-0.56l-766.1 0 -0.29 1.1c-12.4,44.64 -40.92,105.82 -106.63,150.84l-0.32 0.24z"/>
    <polygon class="fil21" points="5872.93,7854.48 5891.48,7854.48 5891.48,7702.3 5872.93,7702.3 "/>
    <polygon class="fil21" points="5935.66,7854.48 5954.16,7854.48 5954.16,7702.3 5935.66,7702.3 "/>
    <polygon class="fil21" points="6010.88,7854.48 6029.38,7854.48 6029.38,7702.3 6010.88,7702.3 "/>
    <polygon class="fil21" points="6126.16,7854.48 6144.65,7854.48 6144.65,7702.3 6126.16,7702.3 "/>
    <polygon class="fil21" points="6248.08,7854.48 6266.57,7854.48 6266.57,7702.3 6248.08,7702.3 "/>
    <polygon class="fil21" points="6434.93,7854.48 6453.47,7854.48 6453.47,7702.3 6434.93,7702.3 "/>
    <polygon class="fil21" points="6609.9,7854.48 6628.45,7854.48 6628.45,7702.3 6609.9,7702.3 "/>
    <polygon class="fil21" points="6766.15,7854.48 6784.69,7854.48 6784.69,7702.3 6766.15,7702.3 "/>
    <polygon class="fil21" points="5813.24,7854.48 5831.79,7854.48 5831.79,7702.3 5813.24,7702.3 "/>
    <polygon class="fil21" points="5773.78,7854.48 5792.33,7854.48 5792.33,7702.3 5773.78,7702.3 "/>
    <polygon class="fil21" points="5735.71,7854.48 5754.25,7854.48 5754.25,7702.3 5735.71,7702.3 "/>
    <path class="fil21" d="M5707.04 7702.82l0 151.14c2.27,0.33 4.58,0.52 7,0.52l11.55 0 0 -152.18 -11.55 0c-2.42,0 -4.73,0.19 -7,0.52z"/>
    <path class="fil21" d="M5681.35 7716.91l0 122.95c4.51,5.58 10.93,9.93 18.5,12.39l0 -147.73c-7.57,2.46 -13.99,6.86 -18.5,12.39z"/>
    <path class="fil19" d="M5678 7584.31l0 85.97c0,6.86 2.51,13.19 6.77,18.5 4.48,5.58 10.93,9.93 18.49,12.38 1.84,0.63 3.73,1.09 5.64,1.42l0.03 0c0.52,0.11 1.05,0.2 1.57,0.28 2.28,0.34 4.59,0.54 6.96,0.54l1630.17 0c1.7,0 3.44,-0.11 5.11,-0.3 0.65,-0.04 1.27,-0.14 1.94,-0.24 17.68,-2.68 31.4,-15.46 32.35,-30.88 0,-0.57 0.05,-1.14 0.05,-1.7l0 -85.97c0,-0.56 -0.05,-1.12 -0.05,-1.69 -1.09,-17.4 -18.4,-31.42 -39.4,-31.42l-1630.17 0c-1.05,0 -2.09,0.05 -3.13,0.1 -0.43,0.05 -0.9,0.1 -1.32,0.15 -0.48,0 -1,0.1 -1.47,0.13l-1.04 0.16c-2.5,0.37 -4.91,0.94 -7.24,1.7l-1 0.38 -1.04 0.33c-0.65,0.27 -1.31,0.57 -1.98,0.8 -0.71,0.33 -1.42,0.66 -2.13,1.03 -0.61,0.33 -1.23,0.68 -1.84,1.01 -0.71,0.37 -1.38,0.8 -2.04,1.27 -0.51,0.34 -1,0.67 -1.51,1.04l-0.1 0.04 -1 0.76c-0.98,0.77 -1.97,1.61 -2.84,2.47l-0.8 0.8 -0.75 0.81c-0.53,0.51 -0.99,1.08 -1.46,1.64 -4.26,5.31 -6.77,11.64 -6.77,18.49z"/>
    <path class="fil20" d="M6478.49 7703.4l873.35 0c0.7,0 1.41,0 2.07,-0.05 0.77,-0.06 1.52,-0.1 2.28,-0.2 16.73,-1.93 29.93,-15.08 30.84,-31.17 0,-0.57 0.05,-1.14 0.05,-1.7l0 -85.97c0,-0.56 -0.05,-1.12 -0.05,-1.69 -1,-17.4 -16.42,-31.42 -35.19,-31.42l-766.06 0c-0.33,1.24 -0.7,2.51 -1.09,3.75 -12.68,44.08 -41.06,103.31 -104.64,147.35 -0.51,0.39 -1.04,0.72 -1.56,1.1z"/>
    <polygon class="fil21" points="5876.34,7703.4 5894.89,7703.4 5894.89,7551.21 5876.34,7551.21 "/>
    <polygon class="fil21" points="5939.07,7703.4 5957.62,7703.4 5957.62,7551.21 5939.07,7551.21 "/>
    <polygon class="fil21" points="6014.28,7703.4 6032.83,7703.4 6032.83,7551.21 6014.28,7551.21 "/>
    <polygon class="fil21" points="6129.58,7703.4 6148.11,7703.4 6148.11,7551.21 6129.58,7551.21 "/>
    <polygon class="fil21" points="6251.47,7703.4 6270.02,7703.4 6270.02,7551.21 6251.47,7551.21 "/>
    <polygon class="fil21" points="6438.38,7703.4 6456.88,7703.4 6456.88,7551.21 6438.38,7551.21 "/>
    <polygon class="fil21" points="6613.36,7703.4 6631.86,7703.4 6631.86,7551.21 6613.36,7551.21 "/>
    <polygon class="fil21" points="6769.55,7703.4 6788.09,7703.4 6788.09,7551.21 6769.55,7551.21 "/>
    <polygon class="fil21" points="5816.65,7703.4 5835.2,7703.4 5835.2,7551.21 5816.65,7551.21 "/>
    <polygon class="fil21" points="5777.25,7703.4 5795.74,7703.4 5795.74,7551.21 5777.25,7551.21 "/>
    <polygon class="fil21" points="5739.17,7703.4 5757.66,7703.4 5757.66,7551.21 5739.17,7551.21 "/>
    <path class="fil21" d="M5710.5 7551.74l0 151.12c2.28,0.34 4.59,0.54 6.96,0.54l11.58 0 0 -152.2 -11.58 0c-2.37,0 -4.68,0.2 -6.96,0.54z"/>
    <path class="fil21" d="M5684.77 7565.82l0 122.96c4.48,5.58 10.93,9.93 18.49,12.38l0 -147.72c-7.56,2.45 -14.01,6.86 -18.49,12.38z"/>
    <path class="fil19" d="M5593.8 7435.88l0 85.96c0,6.85 2.45,13.19 6.76,18.49 4.44,5.59 10.93,9.94 18.5,12.39 2.31,0.76 4.74,1.32 7.19,1.7 2.27,0.33 4.58,0.53 6.95,0.53l1630.17 0c6.58,0 12.78,-1.33 18.22,-3.75 11.53,-5.05 19.76,-14.8 21.04,-26.2 0.1,-0.47 0.15,-0.94 0.15,-1.47 0.04,-0.55 0.04,-1.12 0.04,-1.69l0 -85.96c0,-0.57 0,-1.13 -0.04,-1.7 -1.05,-17.4 -18.35,-31.41 -39.41,-31.41l-1630.17 0c-2.37,0 -4.68,0.18 -6.95,0.51 -2.45,0.39 -4.88,0.96 -7.19,1.71 -7.57,2.46 -14.06,6.87 -18.5,12.39 -4.31,5.3 -6.76,11.69 -6.76,18.5z"/>
    <path class="fil20" d="M6394.29 7554.95l873.35 0c5.81,0 11.34,-1.33 16.22,-3.75 10.3,-5.05 17.64,-14.8 18.77,-26.2 0.1,-0.47 0.15,-0.94 0.15,-1.47 0.04,-0.55 0.04,-1.12 0.04,-1.69l0 -85.96c0,-0.57 0,-1.13 -0.04,-1.7 -0.95,-17.4 -16.41,-31.41 -35.14,-31.41l-766.12 0c-11.91,43.57 -39.2,103.4 -101.89,148.43 -1.75,1.28 -3.54,2.51 -5.34,3.75z"/>
    <polygon class="fil21" points="5792.14,7554.95 5810.69,7554.95 5810.69,7402.77 5792.14,7402.77 "/>
    <polygon class="fil21" points="5854.87,7554.95 5873.37,7554.95 5873.37,7402.77 5854.87,7402.77 "/>
    <polygon class="fil21" points="5930.08,7554.95 5948.59,7554.95 5948.59,7402.77 5930.08,7402.77 "/>
    <polygon class="fil21" points="6045.32,7554.95 6063.87,7554.95 6063.87,7402.77 6045.32,7402.77 "/>
    <polygon class="fil21" points="6167.23,7554.95 6185.77,7554.95 6185.77,7402.77 6167.23,7402.77 "/>
    <polygon class="fil21" points="6354.13,7554.95 6372.67,7554.95 6372.67,7402.77 6354.13,7402.77 "/>
    <polygon class="fil21" points="6529.1,7554.95 6547.65,7554.95 6547.65,7402.77 6529.1,7402.77 "/>
    <polygon class="fil21" points="6685.35,7554.95 6703.89,7554.95 6703.89,7402.77 6685.35,7402.77 "/>
    <polygon class="fil21" points="5732.45,7554.95 5751,7554.95 5751,7402.77 5732.45,7402.77 "/>
    <polygon class="fil21" points="5692.99,7554.95 5711.54,7554.95 5711.54,7402.77 5692.99,7402.77 "/>
    <polygon class="fil21" points="5654.91,7554.95 5673.46,7554.95 5673.46,7402.77 5654.91,7402.77 "/>
    <path class="fil21" d="M5626.25 7403.34l0 151.08c2.27,0.39 4.58,0.53 6.95,0.53l11.6 0 0 -152.18 -11.6 0c-2.37,0 -4.68,0.18 -6.95,0.57z"/>
    <path class="fil21" d="M5600.56 7417.38l0 122.95c4.44,5.59 10.93,9.94 18.5,12.39l0 -147.73c-7.57,2.46 -14.06,6.87 -18.5,12.39z"/>
    <path class="fil19" d="M5460.58 7283.7l0 85.96c0,6.85 2.47,13.19 6.72,18.49 4.5,5.58 10.98,9.94 18.54,12.39 2.33,0.76 4.74,1.32 7.19,1.7 2.27,0.33 4.6,0.53 6.96,0.53l1630.17 0c21.05,0 38.37,-14 39.41,-31.41 0.04,-0.56 0.04,-1.13 0.04,-1.7l0 -85.96c0,-0.57 0,-1.14 -0.04,-1.7 -1,-16.09 -15.85,-29.28 -34.72,-31.17 -1.53,-0.14 -3.14,-0.24 -4.69,-0.24l-1630.17 0c-2.36,0 -4.69,0.19 -6.96,0.51 -2.45,0.39 -4.86,0.96 -7.19,1.7 -7.56,2.47 -14.04,6.86 -18.54,12.4 -4.25,5.31 -6.72,11.64 -6.72,18.5z"/>
    <path class="fil20" d="M6261.08 7402.77l873.34 0c18.73,0 34.2,-14 35.15,-31.41 0.04,-0.56 0.04,-1.13 0.04,-1.7l0 -85.96c0,-0.57 0,-1.14 -0.04,-1.7 -0.85,-16.09 -14.15,-29.28 -30.99,-31.17 -1.37,-0.14 -2.75,-0.24 -4.16,-0.24l-766.1 0 -0.09 0.24c-12.26,44.79 -40.79,106.57 -107.15,151.94z"/>
    <polygon class="fil21" points="5658.94,7402.77 5677.43,7402.77 5677.43,7250.59 5658.94,7250.59 "/>
    <polygon class="fil21" points="5721.61,7402.77 5740.16,7402.77 5740.16,7250.59 5721.61,7250.59 "/>
    <polygon class="fil21" points="5796.83,7402.77 5815.37,7402.77 5815.37,7250.59 5796.83,7250.59 "/>
    <polygon class="fil21" points="5912.11,7402.77 5930.65,7402.77 5930.65,7250.59 5912.11,7250.59 "/>
    <polygon class="fil21" points="6034.01,7402.77 6052.56,7402.77 6052.56,7250.59 6034.01,7250.59 "/>
    <polygon class="fil21" points="6220.92,7402.77 6239.42,7402.77 6239.42,7250.59 6220.92,7250.59 "/>
    <polygon class="fil21" points="6395.9,7402.77 6414.4,7402.77 6414.4,7250.59 6395.9,7250.59 "/>
    <polygon class="fil21" points="6552.15,7402.77 6570.64,7402.77 6570.64,7250.59 6552.15,7250.59 "/>
    <polygon class="fil21" points="5599.23,7402.77 5617.72,7402.77 5617.72,7250.59 5599.23,7250.59 "/>
    <polygon class="fil21" points="5559.79,7402.77 5578.33,7402.77 5578.33,7250.59 5559.79,7250.59 "/>
    <polygon class="fil21" points="5521.7,7402.77 5540.24,7402.77 5540.24,7250.59 5521.7,7250.59 "/>
    <path class="fil21" d="M5493.03 7251.1l0 151.14c2.27,0.33 4.6,0.53 6.96,0.53l11.59 0 0 -152.18 -11.59 0c-2.36,0 -4.69,0.19 -6.96,0.51z"/>
    <path class="fil21" d="M5467.3 7265.2l0 122.95c4.5,5.58 10.98,9.94 18.54,12.39l0 -147.74c-7.56,2.47 -14.04,6.86 -18.54,12.4z"/>
    <path class="fil19" d="M5674.59 7131.76l0 85.96c0,6.85 2.46,13.19 6.76,18.49 4.51,5.52 10.93,9.93 18.5,12.38 2.33,0.77 4.74,1.33 7.19,1.71 0.81,0.1 1.56,0.23 2.33,0.29 0.61,0.1 1.22,0.1 1.84,0.14l0.9 0.05c0.61,0.05 1.27,0.05 1.93,0.05l1630.12 0c21.06,0 38.38,-14.01 39.42,-31.41 0.03,-0.57 0.03,-1.14 0.03,-1.7l0 -85.96c0,-0.57 0,-1.14 -0.03,-1.71 -1.04,-17.4 -18.36,-31.4 -39.42,-31.4l-1630.12 0c-0.71,0 -1.41,0 -2.12,0.03 -1.65,0.11 -3.27,0.25 -4.88,0.49 -2.45,0.37 -4.86,0.94 -7.19,1.7 -1.17,0.38 -2.32,0.8 -3.41,1.28 -0.71,0.28 -1.37,0.61 -2.02,0.94l-0.25 0.1c-0.65,0.33 -1.31,0.66 -1.99,1.04l-0.33 0.19c-0.6,0.33 -1.17,0.71 -1.74,1.08 -1.43,0.86 -2.69,1.8 -3.93,2.85l-1.14 0.99 -0.18 0.18 -0.66 0.62 -0.14 0.15 -1.14 1.17c-0.57,0.62 -1.09,1.19 -1.57,1.8 -4.3,5.3 -6.76,11.64 -6.76,18.5z"/>
    <path class="fil20" d="M6475.09 7250.83l873.34 0c18.73,0 34.2,-14.01 35.15,-31.41 0.03,-0.57 0.03,-1.14 0.03,-1.7l0 -85.96c0,-0.57 0,-1.14 -0.03,-1.71 -0.95,-17.4 -16.42,-31.4 -35.15,-31.4l-766.1 0c-0.29,1.13 -0.62,2.31 -1,3.5 -12.73,44.42 -41.34,104.21 -105.92,148.44l-0.32 0.24z"/>
    <polygon class="fil21" points="5872.93,7250.83 5891.48,7250.83 5891.48,7098.65 5872.93,7098.65 "/>
    <polygon class="fil21" points="5935.66,7250.83 5954.16,7250.83 5954.16,7098.65 5935.66,7098.65 "/>
    <polygon class="fil21" points="6010.88,7250.83 6029.38,7250.83 6029.38,7098.65 6010.88,7098.65 "/>
    <polygon class="fil21" points="6126.16,7250.83 6144.65,7250.83 6144.65,7098.65 6126.16,7098.65 "/>
    <polygon class="fil21" points="6248.08,7250.83 6266.57,7250.83 6266.57,7098.65 6248.08,7098.65 "/>
    <polygon class="fil21" points="6434.93,7250.83 6453.47,7250.83 6453.47,7098.65 6434.93,7098.65 "/>
    <polygon class="fil21" points="6609.9,7250.83 6628.45,7250.83 6628.45,7098.65 6609.9,7098.65 "/>
    <polygon class="fil21" points="6766.15,7250.83 6784.69,7250.83 6784.69,7098.65 6766.15,7098.65 "/>
    <polygon class="fil21" points="5813.24,7250.83 5831.79,7250.83 5831.79,7098.65 5813.24,7098.65 "/>
    <polygon class="fil21" points="5773.78,7250.83 5792.33,7250.83 5792.33,7098.65 5773.78,7098.65 "/>
    <polygon class="fil21" points="5735.71,7250.83 5754.25,7250.83 5754.25,7098.65 5735.71,7098.65 "/>
    <path class="fil21" d="M5707.04 7099.17l0 151.13c2.27,0.33 4.58,0.53 7,0.53l11.55 0 0 -152.18 -11.55 0c-2.42,0 -4.73,0.19 -7,0.52z"/>
    <path class="fil21" d="M5681.35 7113.26l0 122.95c4.51,5.52 10.93,9.93 18.5,12.38l0 -147.72c-7.57,2.45 -13.99,6.8 -18.5,12.39z"/>
    <path class="fil19" d="M5554.72 6983.08l0 85.96c0,6.86 2.51,13.19 6.76,18.5 4.5,5.58 10.93,9.92 18.51,12.38 2.31,0.76 4.73,1.33 7.23,1.71 2.28,0.33 4.58,0.52 6.96,0.52l1630.17 0c6.34,0 12.3,-1.23 17.59,-3.5 11.93,-5.02 20.39,-14.96 21.67,-26.55 0.04,-0.47 0.09,-0.89 0.13,-1.37 0,-0.57 0.06,-1.12 0.06,-1.69l0 -85.96c0,-0.57 -0.06,-1.14 -0.06,-1.71 -0.98,-16.12 -15.89,-29.27 -34.71,-31.17 -1.57,-0.14 -3.07,-0.23 -4.68,-0.23l-1630.17 0c-2.38,0 -4.68,0.18 -6.96,0.52 -2.5,0.38 -4.92,0.94 -7.23,1.7 -7.58,2.46 -14.01,6.85 -18.51,12.4 -4.25,5.29 -6.76,11.63 -6.76,18.49z"/>
    <path class="fil20" d="M6355.22 7102.15l873.34 0c5.67,0 11.02,-1.23 15.74,-3.5 10.6,-5.02 18.17,-14.96 19.31,-26.55 0.04,-0.47 0.09,-0.89 0.13,-1.37 0,-0.57 0.06,-1.12 0.06,-1.69l0 -85.96c0,-0.57 -0.06,-1.14 -0.06,-1.71 -0.88,-16.08 -14.18,-29.27 -31.03,-31.17 -1.31,-0.14 -2.74,-0.23 -4.15,-0.23l-766.06 0 -0.1 0.23c-11.91,43.62 -39.35,103.46 -102.17,148.45 -1.61,1.17 -3.31,2.36 -5.01,3.5z"/>
    <polygon class="fil21" points="5753.07,7102.15 5771.61,7102.15 5771.61,6949.97 5753.07,6949.97 "/>
    <polygon class="fil21" points="5815.8,7102.15 5834.34,7102.15 5834.34,6949.97 5815.8,6949.97 "/>
    <polygon class="fil21" points="5891.01,7102.15 5909.55,7102.15 5909.55,6949.97 5891.01,6949.97 "/>
    <polygon class="fil21" points="6006.29,7102.15 6024.84,7102.15 6024.84,6949.97 6006.29,6949.97 "/>
    <polygon class="fil21" points="6128.2,7102.15 6146.74,7102.15 6146.74,6949.97 6128.2,6949.97 "/>
    <polygon class="fil21" points="6315.1,7102.15 6333.59,7102.15 6333.59,6949.97 6315.1,6949.97 "/>
    <polygon class="fil21" points="6490.08,7102.15 6508.58,7102.15 6508.58,6949.97 6490.08,6949.97 "/>
    <polygon class="fil21" points="6646.28,7102.15 6664.83,7102.15 6664.83,6949.97 6646.28,6949.97 "/>
    <polygon class="fil21" points="5693.37,7102.15 5711.92,7102.15 5711.92,6949.97 5693.37,6949.97 "/>
    <polygon class="fil21" points="5653.96,7102.15 5672.46,7102.15 5672.46,6949.97 5653.96,6949.97 "/>
    <polygon class="fil21" points="5615.89,7102.15 5634.38,7102.15 5634.38,6949.97 5615.89,6949.97 "/>
    <path class="fil21" d="M5587.22 6950.49l0 151.14c2.28,0.33 4.58,0.52 6.96,0.52l11.59 0 0 -152.18 -11.59 0c-2.38,0 -4.68,0.18 -6.96,0.52z"/>
    <path class="fil21" d="M5561.48 6964.59l0 122.95c4.5,5.58 10.93,9.92 18.51,12.38l0 -147.73c-7.58,2.46 -14.01,6.85 -18.51,12.4z"/>
    <path class="fil19" d="M5503.72 6831.13l0 85.96c0,6.86 2.47,13.19 6.77,18.5 4.45,5.59 10.93,9.93 18.5,12.38 2.32,0.77 4.73,1.33 7.19,1.71 0.81,0.1 1.55,0.24 2.32,0.29 0.38,0.04 0.84,0.09 1.28,0.09 0.42,0.05 0.85,0.09 1.27,0.09 0.72,0.05 1.42,0.05 2.09,0.05l1630.16 0c21.05,0 38.37,-14 39.41,-31.4 0.05,-0.57 0.05,-1.14 0.05,-1.71l0 -85.96c0,-0.57 0,-1.13 -0.05,-1.7 -1.04,-17.4 -18.36,-31.41 -39.41,-31.41l-1630.16 0c-2.37,0 -4.7,0.19 -6.96,0.53 -2.46,0.37 -4.87,0.94 -7.19,1.71 -7.57,2.45 -14.05,6.85 -18.5,12.38 -4.3,5.3 -6.77,11.63 -6.77,18.49z"/>
    <path class="fil20" d="M6304.22 6950.2l873.34 0c18.73,0 34.21,-14 35.15,-31.4 0.05,-0.57 0.05,-1.14 0.05,-1.71l0 -85.96c0,-0.57 0,-1.13 -0.05,-1.7 -0.94,-17.4 -16.42,-31.41 -35.15,-31.41l-766.1 0c-12.2,44.75 -40.63,106.53 -106.91,151.95l-0.33 0.23z"/>
    <polygon class="fil21" points="5702.08,6950.2 5720.62,6950.2 5720.62,6798.02 5702.08,6798.02 "/>
    <polygon class="fil21" points="5764.81,6950.2 5783.31,6950.2 5783.31,6798.02 5764.81,6798.02 "/>
    <polygon class="fil21" points="5840.02,6950.2 5858.52,6950.2 5858.52,6798.02 5840.02,6798.02 "/>
    <polygon class="fil21" points="5955.25,6950.2 5973.79,6950.2 5973.79,6798.02 5955.25,6798.02 "/>
    <polygon class="fil21" points="6077.15,6950.2 6095.7,6950.2 6095.7,6798.02 6077.15,6798.02 "/>
    <polygon class="fil21" points="6264.06,6950.2 6282.6,6950.2 6282.6,6798.02 6264.06,6798.02 "/>
    <polygon class="fil21" points="6439.05,6950.2 6457.58,6950.2 6457.58,6798.02 6439.05,6798.02 "/>
    <polygon class="fil21" points="6595.29,6950.2 6613.84,6950.2 6613.84,6798.02 6595.29,6798.02 "/>
    <polygon class="fil21" points="5642.37,6950.2 5660.92,6950.2 5660.92,6798.02 5642.37,6798.02 "/>
    <polygon class="fil21" points="5602.93,6950.2 5621.47,6950.2 5621.47,6798.02 5602.93,6798.02 "/>
    <polygon class="fil21" points="5564.84,6950.2 5583.38,6950.2 5583.38,6798.02 5564.84,6798.02 "/>
    <path class="fil21" d="M5536.18 6798.55l0 151.13c2.26,0.33 4.59,0.52 6.96,0.52l11.58 0 0 -152.18 -11.58 0c-2.37,0 -4.7,0.19 -6.96,0.53z"/>
    <path class="fil21" d="M5510.49 6812.64l0 122.95c4.45,5.53 10.93,9.93 18.5,12.38l0 -147.71c-7.57,2.45 -14.05,6.85 -18.5,12.38z"/>
    <path class="fil22" d="M8240.81 7678.37c0,-427.87 -346.91,-774.77 -774.77,-774.77 -427.88,0 -774.78,346.9 -774.78,774.77 0,427.87 346.9,774.76 774.78,774.76 427.86,0 774.77,-346.89 774.77,-774.76z"/>
    <path class="fil19" d="M8308.4 7678.37c0,-427.87 -346.92,-774.77 -774.78,-774.77 -427.86,0 -774.75,346.9 -774.75,774.77 0,427.87 346.89,774.76 774.75,774.76 427.86,0 774.78,-346.89 774.78,-774.76z"/>
    <path class="fil21" d="M6869.85 7687.5c0,366.04 297.78,663.78 663.77,663.78 365.95,0 663.75,-297.74 663.75,-663.78 0,-366.01 -297.8,-663.79 -663.75,-663.79 -365.99,0 -663.77,297.78 -663.77,663.79zm164.62 499.16c-133.32,-133.36 -206.72,-310.62 -206.72,-499.16 0,-188.56 73.4,-365.82 206.72,-499.12 133.36,-133.35 310.59,-206.77 499.15,-206.77 188.57,0 365.85,73.42 499.16,206.77 133.32,133.3 206.69,310.56 206.69,499.12 0,188.54 -73.37,365.8 -206.69,499.16 -133.31,133.3 -310.59,206.72 -499.16,206.72 -188.56,0 -365.79,-73.42 -499.15,-206.72z"/>
    <path class="fil21" d="M7631.03 7892.37c1.8,-15.23 1.23,-28.85 -1.67,-40.97 -2.92,-12.11 -8.69,-23.46 -17.35,-34.05 -8.61,-10.55 -20.15,-20.77 -34.62,-30.56 -14.48,-9.79 -32.37,-19.82 -53.7,-30.09 -36.66,-17.93 -69.73,-36.14 -99.21,-54.49 -29.46,-18.41 -54.2,-38.51 -74.17,-60.37 -19.96,-21.85 -34.52,-46.35 -43.8,-73.55 -9.21,-27.21 -11.72,-58.57 -7.52,-94.05 3.64,-30.84 12.45,-58.27 26.4,-82.36 13.96,-24.07 32.16,-44.32 54.68,-60.78 22.51,-16.41 48.63,-28.85 78.34,-37.27 29.66,-8.43 62.3,-12.21 97.78,-11.27l13.81 -116.37 93.67 11.13 -14.01 117.97c33.03,8.33 62.4,20.81 88.14,37.47 25.78,16.64 46.82,36.81 63.44,60.45 16.6,23.65 28.38,50.72 35.18,81.08 6.81,30.41 8.16,63.77 3.93,100l-169.22 -20.05c5.17,-43.53 -0.6,-77.2 -17.35,-101.04 -16.8,-23.85 -41.35,-37.71 -73.75,-41.59 -17.55,-2.08 -32.97,-1.42 -46.21,2 -13.25,3.35 -24.51,8.83 -33.68,16.36 -9.23,7.57 -16.47,16.94 -21.76,28.05 -5.26,11.12 -8.72,23.41 -10.27,36.81 -1.61,13.42 -1.09,25.77 1.51,37.12 2.6,11.36 8.13,22.2 16.61,32.6 8.47,10.36 20.1,20.58 34.95,30.6 14.81,10.03 33.45,20.77 55.82,32.27 36.14,18.59 68.88,37.18 98.16,55.71 29.23,18.55 53.84,38.85 73.81,60.89 19.87,22 34.51,46.65 43.7,73.85 9.29,27.2 11.87,58.33 7.64,93.52 -3.82,31.89 -12.79,59.84 -26.93,83.92 -14.03,24.02 -32.41,44.08 -54.9,60.17 -22.45,16.08 -48.72,28.05 -78.7,35.85 -30.05,7.86 -62.78,11.31 -98.31,10.42l-12.81 108.18 -93.06 -11.02 12.78 -107.66c-32.02,-7.11 -62.48,-17.89 -91.44,-32.37 -28.95,-14.42 -53.93,-33.3 -74.88,-56.57 -21.01,-23.22 -36.66,-51.27 -47.02,-84.11 -10.33,-32.87 -12.92,-71.01 -7.76,-114.53l169.11 20.11c-3.02,25.68 -1.98,47.64 3.22,65.66 5.16,18.12 13.2,33.02 24.07,44.79 10.83,11.73 23.76,20.63 38.66,26.64 14.95,6.01 30.36,9.93 46.4,11.83 18.3,2.17 34.68,1.75 49.1,-1.33 14.43,-3.07 26.78,-8.23 37.14,-15.47 10.36,-7.19 18.59,-16.23 24.59,-27.1 6.07,-10.89 9.85,-23 11.46,-36.43z"/>
    <path class="fil23" d="M4160.23 7464.31c0,0 -97.79,137.66 -187.43,139.56 -89.58,1.88 -225.97,-63.83 -225.97,-63.83 0,0 -82.31,-183.39 -26.49,-255.2 0,0 55.97,-24.55 114.52,18.83 10.03,7.52 20.24,16.94 30.27,29.04 14.25,17.07 30.19,26.77 47.08,31.88 63.95,19.49 139.88,-26.3 168.26,17.88 16.6,25.68 34.63,44.99 49.47,58.52 17.56,15.65 30.29,23.32 30.29,23.32z"/>
    <path class="fil23" d="M2885.55 8457.19c0,0 345.61,-837.39 967.67,-853.32 0,0 574.19,63.8 606.07,853.32l-1573.74 0z"/>
    <path class="fil18" d="M3682.78 7629.45c0,0 249.34,55.44 326.27,22.85 0,0 11.63,-104.27 -93.39,-89.65 -71.86,9.99 -118.69,-24.54 -146.22,-38.55 -38.93,-19.81 -97.03,61.74 -86.66,105.35z"/>
    <path class="fil24" d="M3899.77 7472.26c-15.95,11.97 -64.91,-168.59 -64.91,-168.59 10.03,7.52 20.24,16.94 30.27,29.04 14.25,17.07 30.19,26.77 47.08,31.88 0.18,5.31 3.02,96.04 -12.44,107.67z"/>
    <path class="fil24" d="M4129.94 7440.99c-3.55,2.08 -118.81,71.15 -134.47,71.15 -15.95,0 85,-129.67 85,-129.67 16.6,25.68 34.63,44.99 49.47,58.52z"/>
    <path class="fil25" d="M3223.17 8223.27c-6.39,-5.49 244.56,-369.54 313.66,-372.2 69.12,-2.65 224.43,79.76 336.87,90.41 112.39,10.64 221.39,-21.29 242.67,45.17 21.29,66.46 79.75,302.09 43.86,339.79 -35.86,37.7 -799.07,14.71 -937.06,-103.17z"/>
    <path class="fil8" d="M5610.92 3221.92l-23.56 -132.86 51.13 -9.08 23.38 131.53c6.71,37.85 29.14,54.09 60.35,48.54 31.23,-5.55 46.78,-27.83 40.22,-64.7l-23.65 -133.18 51.17 -9.09 23.28 131.19c12.49,70.41 -20.86,111.97 -83.3,123.05 -62.44,11.11 -106.86,-16.98 -119.02,-85.4z"/>
    <path class="fil8" d="M5986.01 3211.85c22.6,-4.04 34.81,-14.42 31.64,-32.35 -2.8,-15.61 -16.12,-23.18 -42.39,-18.52l-59.13 10.5 9.13 51.14 60.75 -10.77zm-30.23 -91.26c22.55,-4.02 35.56,-13.86 32.4,-31.79 -2.74,-15.28 -16.23,-21.79 -37.8,-17.95l-50.52 8.96 8.75 49.15 47.17 -8.37zm-113.69 -76.77l107.96 -19.17c26.54,-4.72 48.77,-1.13 64.43,9.8 12.54,8.74 20.1,20.74 23.08,37.35 4.64,26.25 -6.71,43.33 -21.66,55.58 28.71,5.53 48.11,18.19 53.78,50.07 7.53,42.51 -23.23,69.91 -75.68,79.22l-110.6 19.65 -41.31 -232.5z"/>
    <polygon class="fil8" points="6084.2,3000.82 6135.35,2991.73 6176.63,3224.23 6125.5,3233.32 "/>
    <path class="fil1" d="M6245.24 7769.14c11.96,13.71 13.47,29.09 7.56,45.46l-0.1 0.24c-10.97,30.33 -47.21,64.15 -89.31,97.97 -5.39,4.35 -10.17,8.28 -14.33,11.92 -1.09,0.94 -2.18,1.94 -3.21,2.88 -0.86,0.76 -1.66,1.52 -2.51,2.23 -39.22,36.19 -24.46,44.51 -94.99,117.94 -80.42,83.63 -135.77,85.14 -151.52,77.51 -13.3,-6.48 13.77,-50.85 43.75,-100.75 1.47,-2.36 2.9,-4.82 4.37,-7.23 4.01,-6.62 7.99,-13.4 11.91,-20.06 35.15,-59.99 26.16,-88.18 17.79,-177.49 -6.77,-72.62 -112.92,-405.55 -112.92,-405.55l154.12 -26.53c0,0 46.41,265.15 97.54,305.97 27.29,21.75 57.91,21.99 84.2,38.17 1.85,1.09 3.7,2.27 5.44,3.45 14.96,9.89 30.18,20.11 42.21,33.87z"/>
    <path class="fil26" d="M6245.24 7769.14c11.96,13.71 13.47,29.09 7.56,45.46l-0.1 0.24c-13.42,30.27 -48.77,63.95 -89.45,97.64 -5.34,4.4 -10.03,8.47 -14.19,12.25 -1.09,0.94 -2.18,1.94 -3.21,2.88 -0.86,0.76 -1.66,1.52 -2.51,2.23 -39.22,36.19 -24.46,44.51 -94.99,117.94 -80.42,83.63 -135.77,85.14 -151.52,77.51 -13.3,-6.48 13.77,-50.85 43.75,-100.75 15.67,-5.72 88.38,-35.25 143.35,-105.57 48.39,-61.79 80.69,-141.18 113.66,-187.15 1.85,1.09 3.7,2.27 5.44,3.45 14.96,9.89 30.18,20.11 42.21,33.87z"/>
    <path class="fil1" d="M5002.72 7672.89c-9.51,47.58 -77.33,39.63 -153.07,21.14 -75.74,-18.5 -57.72,3.5 -165.53,-8.47 -107.81,-11.93 -140.49,-52.13 -143.76,-68.17 -2.97,-14.19 50.34,-19.2 107.44,-25.78 7.19,-0.8 14.43,-1.71 21.62,-2.61 64.52,-8.09 111.78,-49.72 170.34,-83.91 55.53,-32.36 138.36,-164.29 138.36,-164.29l147.83 11.69c0,0 -77.58,117.83 -107.57,169.06 -17.64,30.13 -16.74,70.01 -14.52,100.76 1.14,16.75 2.22,33.82 -1.14,50.58z"/>
    <path class="fil26" d="M4849.65 7694.03c-75.74,-18.5 -57.72,3.5 -165.53,-8.47 -107.81,-11.93 -140.49,-52.13 -143.76,-68.17 -2.97,-14.19 50.34,-19.2 107.44,-25.78l0.55 1.09c0,0 64.63,45.83 154.36,47.97 73.19,1.79 150.63,-19.17 201.15,-18.36 1.14,16.75 2.22,33.82 -1.14,50.58 -9.51,47.58 -77.33,39.63 -153.07,21.14z"/>
    <path class="fil26" d="M5569.29 6727.53l138.24 371.92 180.41 485.57c0,0 48.95,4.75 95.88,-8.74 43.15,-12.49 92.68,-45.13 92.68,-45.13 0,0 -50.1,-521.39 -143.58,-820.7 -23.93,-76.82 -50.76,-138.97 -80.42,-173.92 -144.89,-171.25 -283.21,191 -283.21,191z"/>
    <path class="fil18" d="M5709.84 6136.89c90.53,-29.19 348.77,8.33 608.2,59.09l54.3 -89.6 560.31 -43.76c0,0 184.93,410.04 83.69,671.3 -14.84,38.42 -44.4,63.06 -94.84,63.87l-8.19 0c0,0 -333.48,-0.19 -441.78,-0.19 -278.66,0 -589.74,-191.59 -629.95,-199.63 -65.9,-13.15 -92.25,118.6 -158.09,256.9 -65.9,138.33 -619.18,612.57 -619.18,612.57 0,0 -85.05,0.84 -120.16,-12.3 -37.78,-14.21 -51.6,-32.6 -51.6,-32.6 0,0 613.08,-1219.76 817.29,-1285.65z"/>
    <path class="fil26" d="M6216.24 5327.36c176.72,143.72 602.47,392.78 604.83,391.68 0,0 136.39,81.7 229.42,41.63 155.12,-66.83 274.24,-300.75 59.66,-559.61 -106.95,-129.1 -195.69,-171.62 -174.84,-343.24 22.56,-185.91 -61.4,-419.71 -275.45,-429.52 -17.89,-0.82 -126.26,-15.29 -203.61,8.99 -197.11,61.87 -526.74,794.84 -240.01,890.07z"/>
    <path class="fil12" d="M6970.93 6123.46c-11.5,31.83 -314.48,60.22 -486.81,48.77 -54.77,-3.54 -96.46,-11.26 -111.27,-24.03 -61.49,-53.41 -55.34,64.05 -63.8,-497.98 -4.08,-274.08 232.64,-518.22 232.64,-518.22 0,0 18.88,117.07 253.6,-22.29 8.38,-4.86 100.81,131.98 189.79,300.53 98.02,186.24 -2.31,680.44 -14.15,713.22z"/>
    <path class="fil18" d="M5707.53 7099.45l180.41 485.57c0,0 48.95,4.75 95.88,-8.74 43.15,-12.49 92.68,-45.13 92.68,-45.13 0,0 -50.1,-521.39 -143.58,-820.7l-225.39 389z"/>
    <path class="fil12" d="M6541.64 5131.94c0,0 -214.28,52.57 -269.88,144.96 -67.68,112.43 -405.25,619.63 -405.25,619.63 0,0 332.79,117.71 389.5,60.99 56.72,-56.73 197.36,-526.23 197.36,-526.23l88.27 -299.35z"/>
    <path class="fil1" d="M6795.86 5110.05c0.9,0.14 -86.48,80.61 -150.52,103.88 -25.08,9.13 -66.71,19.16 -66.71,19.16 0,0 -33.44,-33.83 -33.91,-34.3 -29.72,-27.72 0.14,-35.71 -4.36,-88.18 -0.23,-2.5 -0.42,-5.06 -0.7,-7.57 -6.01,-58.7 -22.95,-122.94 -24.03,-127.16l-0.1 -0.19 207.39 -59.26 -6.68 11.44c12.78,107.63 51.42,179.05 79.62,182.18z"/>
    <path class="fil27" d="M6722.92 4916.43c-20.11,60.26 -74.98,141.15 -186.86,158.57 -10.79,-64.67 -19.35,-94.9 -20.43,-99.12l-0.1 -0.19 207.39 -59.26z"/>
    <path class="fil1" d="M6481.04 5038.19c0,0 279.53,-18.6 265.29,-192.49 -14.29,-173.89 12.2,-293.43 -166.84,-288.93 -179.1,4.54 -208.28,73.75 -217.65,132.93 -9.37,59.23 46.11,348.82 119.2,348.49z"/>
    <path class="fil26" d="M6430.8 4553.69c0,0 69.45,203.79 234.36,227.45 120.29,17.31 168.07,-15.25 168.07,-15.25 0,0 -67.18,-63.8 -103.55,-161.91 -10.74,-28.96 -36.05,-50.01 -66.55,-54.68 -85.63,-13.23 -196.19,-69.92 -232.33,4.39z"/>
    <path class="fil26" d="M6490.02 4589.79c0,0 -49.89,20.15 -84.71,94.66 -19.02,40.73 -32.78,137.65 -21.01,177.63 0,0 -80.36,-185.91 -22.19,-269.74 61.69,-88.88 127.91,-2.55 127.91,-2.55z"/>
    <path class="fil13" d="M6540.36 5110.61c0,0 17.08,103.17 38.27,122.48 0,0 -53.59,-19.82 -79.04,-89.13 0,0 18.74,-30.98 40.77,-33.35z"/>
    <path class="fil13" d="M6340.97 5461.56c0,0 -156.09,187.29 -136.89,255.13 19.25,67.78 127.34,67.78 127.34,67.78 0,0 -20.21,-144.47 0,-219.69 20.15,-75.16 32.83,-107.67 9.55,-103.22z"/>
    <path class="fil13" d="M6691.41 6001.13c0,0 224.85,-137.04 221.9,-216.66 -2.97,-79.61 0.11,-225.7 21.2,-205.25 21.05,20.48 87.75,184.58 81.31,231.04 -6.38,46.49 -233.44,370.96 -261.54,370.14 -200.43,-5.58 -62.87,-179.27 -62.87,-179.27z"/>
    <path class="fil13" d="M6752.25 5062.22c0,0 -122.8,154.45 -173.62,170.87 0,0 144.29,0 246.18,-120.44 0,0 -34.07,-49.91 -72.56,-50.43z"/>
    <path class="fil22" d="M5614.56 5834.19c0,-314.72 255.12,-569.88 569.83,-569.88 314.73,0 569.89,255.16 569.89,569.88 0,314.71 -255.16,569.83 -569.89,569.83 -314.71,0 -569.83,-255.12 -569.83,-569.83z"/>
    <path class="fil19" d="M5564.84 5834.19c0,-314.72 255.12,-569.88 569.84,-569.88 314.71,0 569.88,255.16 569.88,569.88 0,314.71 -255.17,569.83 -569.88,569.83 -314.72,0 -569.84,-255.12 -569.84,-569.83z"/>
    <path class="fil21" d="M6134.68 5352.67c-269.21,0 -488.18,219.03 -488.18,488.23 0,269.21 218.97,488.24 488.18,488.24 269.2,0 488.23,-219.03 488.23,-488.24 0,-269.2 -219.03,-488.23 -488.23,-488.23zm0 1007.4c-138.65,0 -269.07,-53.97 -367.13,-152.04 -98.07,-98.06 -152.04,-228.43 -152.04,-367.13 0,-138.69 53.97,-269.07 152.04,-367.13 98.06,-98.05 228.48,-152.09 367.13,-152.09 138.69,0 269.07,54.04 367.13,152.09 98.06,98.06 152.09,228.44 152.09,367.13 0,138.7 -54.03,269.07 -152.09,367.13 -98.06,98.07 -228.44,152.04 -367.13,152.04z"/>
    <path class="fil21" d="M6206.16 5991.57c1.32,-11.16 0.93,-21.24 -1.24,-30.14 -2.12,-8.88 -6.37,-17.26 -12.72,-25.02 -6.34,-7.8 -14.85,-15.28 -25.5,-22.52 -10.64,-7.19 -23.78,-14.57 -39.5,-22.08 -26.96,-13.2 -51.27,-26.58 -72.94,-40.12 -21.66,-13.54 -39.88,-28.29 -54.53,-44.38 -14.68,-16.07 -25.42,-34.1 -32.22,-54.1 -6.82,-20.02 -8.65,-43.06 -5.54,-69.18 2.69,-22.64 9.13,-42.85 19.4,-60.59 10.27,-17.69 23.65,-32.59 40.21,-44.65 16.6,-12.11 35.8,-21.24 57.61,-27.44 21.86,-6.19 45.83,-9 71.95,-8.33l10.13 -85.57 68.88 8.18 -10.28 86.76c24.27,6.15 45.89,15.32 64.82,27.58 18.93,12.25 34.48,27.05 46.69,44.47 12.2,17.41 20.81,37.28 25.87,59.65 5.06,22.38 6,46.88 2.83,73.51l-124.41 -14.76c3.79,-31.97 -0.46,-56.72 -12.77,-74.32 -12.34,-17.5 -30.42,-27.7 -54.21,-30.55 -12.91,-1.52 -24.27,-1.05 -34.01,1.45 -9.75,2.47 -18.02,6.54 -24.79,12.08 -6.76,5.53 -12.11,12.4 -15.99,20.62 -3.88,8.18 -6.39,17.22 -7.57,27.06 -1.17,9.89 -0.79,18.97 1.14,27.29 1.9,8.38 5.96,16.32 12.2,23.99 6.2,7.61 14.81,15.13 25.69,22.51 10.93,7.38 24.6,15.29 41.06,23.71 26.63,13.71 50.67,27.38 72.19,41.01 21.51,13.63 39.64,28.57 54.3,44.74 14.67,16.24 25.36,34.36 32.18,54.32 6.8,20 8.66,42.95 5.58,68.83 -2.8,23.41 -9.38,44.04 -19.73,61.69 -10.4,17.68 -23.89,32.44 -40.44,44.27 -16.52,11.82 -35.82,20.61 -57.91,26.39 -22.05,5.78 -46.17,8.33 -72.28,7.66l-9.41 79.57 -68.45 -8.14 9.36 -79.18c-23.5,-5.2 -45.93,-13.15 -67.22,-23.75 -21.28,-10.64 -39.7,-24.55 -55.11,-41.63 -15.43,-17.13 -26.96,-37.75 -34.53,-61.92 -7.62,-24.12 -9.56,-52.22 -5.77,-84.2l124.41 14.76c-2.23,18.91 -1.46,35.05 2.36,48.33 3.8,13.31 9.7,24.28 17.71,32.93 7.97,8.66 17.49,15.18 28.47,19.59 10.97,4.39 22.32,7.34 34.1,8.7 13.48,1.61 25.51,1.28 36.09,-0.99 10.6,-2.22 19.72,-6 27.34,-11.35 7.63,-5.3 13.68,-11.97 18.09,-19.96 4.43,-7.95 7.27,-16.89 8.41,-26.78z"/>
    <path class="fil1" d="M5525.2 5931.35c0,0 -6.34,-93.61 29.05,-89.92 43.37,4.48 89.49,107.47 68.36,127.4 -21.2,19.9 -96.93,-14.39 -97.41,-37.48z"/>
    <path class="fil1" d="M6737.01 6148l-52.78 -31.64c0,0 -32.74,-13.06 -52.04,-10.32 -19.31,2.76 -65.1,-5.33 -66.51,2.13 -1.47,7.53 43.99,40.93 43.99,40.93 -27.34,41.96 -126.4,49.66 -133.93,65.46 -9.13,19.17 35.63,37.14 59.89,47.56 24.27,10.4 86.33,19.91 122.19,-7.29 26.21,-19.92 69.26,-46.13 69.26,-46.13l9.93 -60.7z"/>
    <path class="fil12" d="M6795.34 5109.76c0,0 221.77,14.47 277.19,101 55.45,86.47 233.51,579.2 204.7,730.01 -28.85,150.81 -556.25,331.79 -556.25,331.79 0,0 -23.33,-20.24 -23.33,-74.27 0,-32.45 16.9,-63.76 16.9,-63.76 0,0 323.56,-270.4 301.27,-324.27 -82.21,-198.87 -220.48,-700.5 -220.48,-700.5z"/>
    <g>
     <path class="fil28" d="M2405 5568.24l52.98 42.99c0,0 144.95,-51.97 177.65,120.26 0,0 8.71,73.42 -37.79,73.55 -46.49,0.14 -27.3,-8.03 -93.15,-6.09 -65.85,1.94 -120.42,-32.79 -130.06,-86.2l-31.51 -45.27 61.88 -99.24z"/>
     <path class="fil29" d="M2398.99 5660.58c42.28,-44.13 38.87,-76.78 38.87,-76.78 0,0 -489.5,-400.77 -539.13,-433.4 -33.83,-22.23 -394.32,-341.82 -562.82,-536.67 -83.59,-96.64 -187.14,-59.14 -305.59,-25.17l-97.55 28.01c-117.8,33.77 -148.42,198.53 -51.78,278.57 272.2,225.46 725.01,479.05 809.74,532.37 210.32,132.31 622.01,289.5 622.01,289.5 0,0 49.95,-18.54 86.25,-56.43z"/>
     <path class="fil30" d="M2957.62 8122.75c0,0 118.77,89.03 300.8,42 0,0 146.74,-33.44 178.95,39.74 0,0 -225.07,114.34 -282.03,145.61 -42.95,23.55 -87.75,60.77 -119.4,89.55 -25.06,22.75 -64.1,19.67 -85.48,-6.64 -9.89,-12.15 -21.23,-26.63 -33.63,-43.47 -34.72,-47.02 -115.57,-198.96 -115.57,-198.96l156.36 -67.83z"/>
     <path class="fil22" d="M1602.31 4871.16c0,-458.7 371.85,-830.55 830.56,-830.55 458.71,0 830.57,371.85 830.57,830.55 0,458.71 -371.86,830.58 -830.57,830.58 -458.71,0 -830.56,-371.87 -830.56,-830.58z"/>
     <path class="fil19" d="M1529.85 4871.16c0,-458.7 371.85,-830.55 830.56,-830.55 458.7,0 830.55,371.85 830.55,830.55 0,458.71 -371.85,830.58 -830.55,830.58 -458.71,0 -830.56,-371.87 -830.56,-830.58z"/>
     <path class="fil21" d="M2360.41 4169.4c-392.37,0 -711.58,319.21 -711.58,711.59 0,392.35 319.21,711.57 711.58,711.57 392.37,0 711.57,-319.22 711.57,-711.57 0,-392.38 -319.2,-711.59 -711.57,-711.59zm0 1468.34c-202.13,0 -392.17,-78.72 -535.08,-221.69 -142.94,-142.89 -221.65,-332.93 -221.65,-535.06 0,-202.13 78.71,-392.17 221.65,-535.09 142.91,-142.94 332.95,-221.65 535.08,-221.65 202.13,0 392.16,78.71 535.08,221.65 142.92,142.92 221.63,332.96 221.63,535.09 0,202.13 -78.71,392.17 -221.63,535.06 -142.92,142.97 -332.95,221.69 -535.08,221.69z"/>
     <path class="fil21" d="M2464.59 5100.63c1.94,-16.31 1.34,-30.98 -1.79,-43.94 -3.12,-13.02 -9.32,-25.17 -18.58,-36.53 -9.26,-11.3 -21.64,-22.23 -37.15,-32.78 -15.51,-10.49 -34.69,-21.23 -57.57,-32.2 -39.29,-19.26 -74.74,-38.75 -106.33,-58.42 -31.6,-19.73 -58.1,-41.3 -79.48,-64.73 -21.41,-23.41 -37.06,-49.72 -46.97,-78.85 -9.9,-29.14 -12.58,-62.77 -8.08,-100.86 3.92,-33.01 13.35,-62.43 28.3,-88.27 14.93,-25.78 34.48,-47.49 58.63,-65.13 24.15,-17.62 52.13,-30.94 83.96,-39.98 31.83,-9.02 66.77,-13.07 104.84,-12.08l14.8 -124.73 100.39 11.91 -15.02 126.47c35.41,8.94 66.92,22.32 94.49,40.18 27.57,17.84 50.26,39.45 68.04,64.79 17.76,25.39 30.34,54.35 37.71,86.95 7.38,32.57 8.76,68.35 4.16,107.18l-181.34 -21.52c5.54,-46.64 -0.68,-82.73 -18.64,-108.33 -17.97,-25.55 -44.31,-40.4 -79.03,-44.51 -18.82,-2.27 -35.34,-1.57 -49.55,2.08 -14.22,3.63 -26.27,9.51 -36.14,17.59 -9.87,8.09 -17.64,18.08 -23.28,30.05 -5.66,11.91 -9.34,25.07 -11.05,39.45 -1.7,14.38 -1.15,27.67 1.64,39.78 2.8,12.16 8.73,23.8 17.81,34.96 9.07,11.11 21.55,22.04 37.46,32.78 15.91,10.79 35.86,22.28 59.84,34.64 38.77,19.95 73.86,39.86 105.23,59.73 31.36,19.88 57.72,41.63 79.1,65.23 21.37,23.61 37.02,50 46.93,79.15 9.89,29.18 12.6,62.58 8.13,100.29 -4.06,34.19 -13.65,64.19 -28.8,89.97 -15.16,25.78 -34.79,47.3 -58.89,64.52 -24.09,17.22 -52.23,30.04 -84.42,38.46 -32.16,8.38 -67.28,12.1 -105.33,11.12l-13.77 115.99 -99.76 -11.82 13.69 -115.43c-34.31,-7.62 -66.98,-19.16 -98,-34.68 -31.04,-15.51 -57.8,-35.71 -80.3,-60.65 -22.49,-24.92 -39.29,-55.01 -50.39,-90.2 -11.09,-35.2 -13.86,-76.11 -8.33,-122.71l181.32 21.47c-3.26,27.64 -2.13,51.09 3.42,70.44 5.55,19.4 14.14,35.38 25.81,48.02 11.64,12.58 25.47,22.14 41.46,28.56 15.99,6.39 32.55,10.65 49.72,12.68 19.65,2.33 37.21,1.85 52.67,-1.41 15.43,-3.31 28.71,-8.85 39.82,-16.56 11.1,-7.76 19.88,-17.45 26.35,-29.09 6.47,-11.63 10.56,-24.65 12.27,-39.03z"/>
     <path class="fil18" d="M3027.34 8077.52c0,0 -72.33,166.8 -239.33,136.15 0,0 -340.69,-281.38 -574.41,-573.68 -75.9,-94.94 -140.54,-191 -178.51,-278.95 -154.98,-358.85 -573.28,-894.01 -839.23,-1165.26l665.4 -240.72c0,0 213.13,428.76 496.72,955.35 204.36,379.48 445.28,809.77 669.36,1167.11z"/>
     <path class="fil26" d="M2357.98 6910.41l-144.38 729.58c-75.9,-94.94 -140.54,-191 -178.51,-278.95 -154.98,-358.85 -573.28,-894.01 -839.23,-1165.26l665.4 -240.72c0,0 213.13,428.76 496.72,955.35z"/>
     <path class="fil30" d="M1814.06 8219.53c0,0 -7.23,133.12 154.1,150.85 0,0 99.85,2.61 100.11,87.29l-485.88 -0.15c0,0 -4.31,-34.62 -7.6,-107.81 -2.56,-56.19 54.46,-203.12 54.46,-203.12l184.81 72.94z"/>
     <path class="fil18" d="M1643.01 5955.06c0,0 296.43,325.73 484.6,912.55 102.37,319.3 -187.66,1122.02 -244.19,1400.93 0,0 -194.57,16.51 -327.6,-34.91 0,0 -10.1,-576.08 67.7,-1020.09 43.53,-248.43 -390.29,-531.42 -579.87,-980.38 -128.98,-305.45 27.93,-300.28 220.73,-307.63l378.63 29.53z"/>
     <path class="fil31" d="M1300.81 4501.87c-164.93,93.12 -502.56,7.25 -502.56,7.25 0,0 137.12,-156.75 74.81,-409.22l129.49 65.76 139.1 70.65c0,0 9,44.59 15.25,124.66 1.59,20.63 3.01,43.66 4,68.83 84.68,25.67 139.91,72.07 139.91,72.07z"/>
     <path class="fil12" d="M1905.57 5938.26c0,28.99 -33.39,42.85 -40.49,44.28 -66.52,12.15 -252.25,84.39 -419.57,100.95 -140.89,14.76 -271.69,0.74 -415.39,-28.11 -19.04,-3.82 -63.7,-15.84 -66.88,-34.09 -3.96,-19.93 -554.3,-1121.89 -126.48,-1595.27 10.04,-11.09 94.5,8.9 171.73,27.23 71.33,16.91 136.74,7.5 195.16,-15.95l72.42 38.1c88.96,49.57 257.23,225.65 276.93,363.82 10,70.25 50.19,122.29 61.81,184.12 4.32,22.84 8.73,45.17 13.22,66.94 8.76,42.7 17.8,83.3 27.09,121.95 25.15,104.49 51.72,194.46 77.8,272.18 27.76,82.51 54.99,151.14 79.3,208.53 31.54,74.45 58.2,130.09 74.85,172.7 11.76,29.99 18.5,53.5 18.5,72.62z"/>
     <path class="fil13" d="M1887.07 5865.64c-776.86,-365.99 -1045.9,-1068.79 -1045.9,-1068.79 0,0 631.17,232.83 786.86,293.43 8.76,42.7 17.8,83.3 27.09,121.95 25.15,104.49 51.72,194.46 77.8,272.18 27.76,82.51 54.99,151.14 79.3,208.53 31.54,74.45 58.2,130.09 74.85,172.7z"/>
     <path class="fil31" d="M2341.59 5653.53l67.12 24.64c0,0 134.45,-95.07 218.13,59.52 0,0 30.29,67.55 -17.63,82.21 -47.92,14.67 -30.5,0.85 -97.86,23.27 -67.35,22.47 -133.72,6.29 -159.16,-41.81l-45.62 -33.5 35.02 -114.33z"/>
     <path class="fil12" d="M2396.84 5748.47c24.81,-64.77 36.15,-94.09 36.15,-94.09 0,0 -507.25,-413.44 -558.94,-448.93 -35.22,-24.16 -385.85,-286.23 -556.8,-490.49 -84.79,-101.33 -218.5,-147.64 -347.82,-120.54l-106.47 22.33c-128.58,26.97 -170.35,189.69 -70.61,275.23 280.9,240.83 754.69,520.11 843.04,578.2 219.29,144.22 704.35,346.31 704.35,346.31 0,0 37.6,-17.16 57.1,-68.02z"/>
     <path class="fil28" d="M1156.9 4360.97c-162.19,9.11 -267.65,-124.79 -267.65,-124.79 0,0 73.31,-40.63 113.3,-70.52l139.1 70.65c0,0 9,44.59 15.25,124.66z"/>
     <path class="fil31" d="M1225.99 4194.46c0,0 -245.74,176.34 -353.2,21.63 -107.47,-154.72 -211.56,-236.17 -59.21,-355.3 152.36,-119.13 224.17,-81.51 272.62,-38.57 48.42,42.91 200.95,322.37 139.79,372.24z"/>
     <path class="fil26" d="M1112.15 3682.47c-8.82,-59.48 -28.64,-101.32 -28.64,-101.32 0,0 -15.42,63.88 -132.16,55.06 -116.74,-8.81 -301.77,11.48 -363.45,144.51 -3.92,8.47 -7.43,17.19 -10.53,26.11 -11.17,-29.51 -13.86,-73.69 -13.86,-73.69 -22.18,57.27 0,128.9 0,128.9l0.01 0c-0.32,2.09 -0.61,4.18 -0.91,6.28 -25.76,21.78 -47.4,89.49 -47.4,89.49 7.77,-18.87 26.73,-31.2 43.63,-38.8 -0.52,103.51 41.47,204.73 115.16,234.85 107.74,44.05 106.88,10.44 215.25,82.32 0,0 29.06,-36.07 9.23,-60.3 -19.82,-24.24 -94.71,-59.48 -52.87,-94.71 41.86,-35.24 57.27,4.39 72.7,-19.83 15.41,-24.23 -61.67,-94.71 37.44,-160.8 99.12,-66.08 165.21,-158.6 156.4,-218.07z"/>
    </g>
   </g>
  </g>
  <polygon class="fil32" points="-0,0.23 10000,0.23 10000,8483.82 -0,8483.82 "/>
 </g>
</svg>
