<?xml version="1.0" encoding="UTF-8"?>
<!DOCTYPE svg PUBLIC "-//W3C//DTD SVG 1.1//EN" "http://www.w3.org/Graphics/SVG/1.1/DTD/svg11.dtd">
<!-- Creator: CorelDRAW 2018 (64 Bit Versão de avaliação) -->
<svg xmlns="http://www.w3.org/2000/svg" xml:space="preserve" width="90.2885mm" height="53.9081mm" version="1.1" style="shape-rendering:geometricPrecision; text-rendering:geometricPrecision; image-rendering:optimizeQuality; fill-rule:evenodd; clip-rule:evenodd"
viewBox="0 0 9028.86 5390.82"
 xmlns:xlink="http://www.w3.org/1999/xlink">
 <defs>
  <style type="text/css">
   <![CDATA[
    .fil14 {fill:#FEFEFE;fill-rule:nonzero}
    .fil4 {fill:#F9B39B;fill-rule:nonzero}
    .fil5 {fill:#F69775;fill-rule:nonzero}
    .fil15 {fill:#F48C83;fill-rule:nonzero}
    .fil11 {fill:#F3786E;fill-rule:nonzero}
    .fil1 {fill:#EFEFEF;fill-rule:nonzero}
    .fil0 {fill:#E5E6E5;fill-rule:nonzero}
    .fil2 {fill:#D9DAD9;fill-rule:nonzero}
    .fil13 {fill:#CC5F52;fill-rule:nonzero}
    .fil3 {fill:#BD7768;fill-rule:nonzero}
    .fil17 {fill:#8D453F;fill-rule:nonzero}
    .fil6 {fill:#794C44;fill-rule:nonzero}
    .fil12 {fill:#A3A5A7;fill-rule:nonzero}
    .fil16 {fill:#949899;fill-rule:nonzero}
    .fil8 {fill:#42616A;fill-rule:nonzero}
    .fil9 {fill:#33484E;fill-rule:nonzero}
    .fil7 {fill:#2C3C43;fill-rule:nonzero}
    .fil10 {fill:#273035;fill-rule:nonzero}
    .fil18 {fill:#666666;fill-rule:nonzero}
   ]]>
  </style>
 </defs>
 <g id="Camada_x0020_1">
  <metadata id="CorelCorpID_0Corel-Layer"/>
  <path class="fil0" d="M2847.49 388.54c-28.09,6.9 -53.3,19.46 -74.79,36.11 -7.54,5.85 -15.76,10.67 -24.51,14.25l-97.5 -397.35c-7.18,-29.24 -36.71,-47.13 -65.97,-39.96l-413.43 101.44 11.51 46.91c2.66,10.85 7.44,21.03 13.97,30.09 13.14,18.19 23.12,39.11 28.8,62.26 24.37,99.35 -38.51,199.71 -139.74,220.31 -89.21,18.15 -180.22,-35.19 -208.01,-121.88 -9.79,-30.55 -10.92,-61.43 -5.1,-90.39 2.59,-12.94 2.66,-26.25 -0.49,-39.05l-8.07 -32.9 -419.2 101.44c-35.91,8.81 -57.89,45.08 -49.07,80.99l90 368.6 -28.56 7.01c-3.23,0.79 -6.55,1.51 -9.89,2.08 -41.68,-17.13 -88.96,-21.71 -136.08,-10.15 -118.19,29 -190.49,148.31 -161.5,266.5 29,118.19 148.32,190.5 266.51,161.5 38.66,-9.48 72.36,-28.68 99.26,-54.28 5.38,-2.64 11.02,-4.72 16.87,-6.16l36.65 -8.99 100.9 411.29c8.82,35.93 45.08,57.9 80.99,49.09l1144.07 -280.7c29.25,-7.18 47.14,-36.71 39.96,-65.95l-102.74 -418.77c7.48,0.03 14.97,0.89 22.35,2.48 39.18,8.44 81.6,5.44 122.71,-12.43 81.64,-35.45 130.65,-122.92 118.84,-211.66 -16.23,-122.1 -133.15,-200.09 -248.74,-171.73z"/>
  <path class="fil0" d="M7941.86 2585.43c16.54,7.69 33.88,11.43 51.04,11.72 6,0.1 11.95,0.95 17.68,2.64l-108.65 233.88c-7.99,17.22 -0.53,37.66 16.69,45.66l243.35 113.04 12.83 -27.61c2.97,-6.39 4.63,-13.28 5,-20.31 0.69,-14.13 4.03,-28.36 10.37,-41.98 27.17,-58.48 97.63,-83.06 155.55,-53.29 51.03,26.22 74.78,88.32 54.3,141.92 -7.23,18.89 -18.84,34.53 -33.11,46.48 -6.39,5.34 -11.67,11.85 -15.17,19.4l-8.99 19.36 246.19 115.32c21.13,9.81 46.24,0.64 56.06,-20.52l100.98 -216.79 16.82 7.81c1.92,0.89 3.81,1.85 5.69,2.88 13.75,24.86 35.19,45.75 62.94,58.62 69.56,32.32 152.15,2.11 184.46,-67.44 32.32,-69.57 2.12,-152.16 -67.45,-184.47 -22.76,-10.58 -46.9,-14.42 -70.22,-12.43 -3.68,-0.82 -7.28,-2.02 -10.72,-3.61l-21.57 -10.02 112.45 -242.09c9.81,-21.14 0.64,-46.24 -20.49,-56.06l-673.39 -312.79c-17.22,-8 -37.66,-0.53 -45.67,16.68l-114.48 246.5c-3.67,-2.98 -7.02,-6.35 -10.03,-10.04 -15.95,-19.6 -37.98,-34.83 -65.26,-42.25 -54.12,-14.72 -112.71,8.98 -141.86,57.28 -40.13,66.47 -13.37,150.92 54.66,182.51z"/>
  <path class="fil1" d="M8353.72 5204.32c10.77,-9.41 18.96,-20.66 24.59,-32.85 1.99,-4.29 4.5,-8.27 7.52,-11.84l133.15 152.11c9.8,11.2 26.83,12.33 38.02,2.52l158.26 -138.53 -15.73 -17.96c-3.62,-4.16 -8.04,-7.54 -12.96,-10.03 -9.9,-4.99 -19.03,-11.88 -26.79,-20.75 -33.3,-38.03 -28.55,-96.36 11.16,-128.42 35,-28.25 87.05,-25.56 118.97,6.15 11.24,11.16 18.75,24.46 22.8,38.47 1.81,6.28 4.79,12.12 9.09,17.02l11.02 12.6 160.8 -139.86c13.74,-12.03 15.13,-32.92 3.09,-46.67l-123.32 -141.21 10.93 -9.56c1.23,-1.09 2.53,-2.16 3.86,-3.17 22.18,-1.97 43.95,-10.72 62,-26.5 45.24,-39.59 49.81,-108.38 10.2,-153.63 -39.6,-45.25 -108.37,-49.81 -153.62,-10.21 -14.8,12.95 -25.22,29.05 -31.18,46.39 -1.77,2.39 -3.76,4.59 -6.01,6.54l-14.02 12.28 -137.82 -157.43c-12.03,-13.75 -32.94,-15.14 -46.7,-3.11l-437.93 383.36c-11.18,9.79 -12.32,26.83 -2.52,38.02l140.33 160.3c-3.29,1.69 -6.78,3.01 -10.37,4 -19.11,5.21 -37.03,16.17 -51.01,33.36 -27.73,34.13 -29.33,83.63 -3.96,119.86 34.9,49.86 103.91,57.48 148.15,18.75z"/>
  <path class="fil1" d="M6792.54 671.97c-21.98,-6.1 -44.15,-7.19 -65.35,-4.03 -7.45,1.1 -14.96,1.26 -22.36,0.34l86.25 -310.8c6.35,-22.89 -7.05,-46.58 -29.93,-52.93l-323.39 -89.74 -10.18 36.7c-2.36,8.48 -2.99,17.32 -1.99,26.07 1.99,17.57 0.78,35.82 -4.22,53.91 -21.58,77.72 -103.53,122.46 -181.07,97.57 -68.34,-21.93 -110.34,-93.72 -96,-164.04 5.05,-24.79 16.18,-46.44 31.35,-64.12 6.78,-7.89 11.97,-17.01 14.74,-27.03l7.14 -25.74 -327.34 -91.96c-28.1,-7.8 -57.2,8.66 -64.99,36.75l-80.31 288.15 -22.33 -6.2c-2.55,-0.69 -5.1,-1.48 -7.6,-2.38 -22.07,-27.86 -52.8,-49.25 -89.66,-59.47 -92.45,-25.65 -188.19,28.48 -213.85,120.93 -25.65,92.44 28.5,188.19 120.95,213.84 30.23,8.39 60.82,8.19 89.18,0.97 4.7,0.27 9.38,1 13.97,2.28l28.66 7.96 -89.27 321.69c-7.81,28.11 8.65,57.2 36.76,64.99l894.85 248.34c22.88,6.36 46.58,-7.03 52.93,-29.92l90.9 -327.55c5.12,2.91 9.96,6.38 14.41,10.33 23.69,20.92 54.01,35.22 89.17,38.79 69.79,7.11 137.24,-34.13 163.35,-99.68 35.94,-90.21 -14.37,-188.94 -104.77,-214.02z"/>
  <path class="fil1" d="M97.16 4019.35c20.07,7.47 40.73,10.26 60.84,9.03 7.04,-0.45 14.08,0.02 20.94,1.48l-105.74 283.9c-7.78,20.88 2.85,44.14 23.75,51.92l295.39 110.03 12.49 -33.54c2.89,-7.74 4.2,-15.97 3.97,-24.23 -0.46,-16.61 2.13,-33.56 8.29,-50.11 26.45,-71 106.72,-106.24 177.29,-76.72 62.18,26.02 95.7,96.58 76.63,161.22 -6.72,22.8 -18.89,42.16 -34.51,57.48 -6.99,6.84 -12.55,14.96 -15.97,24.12l-8.76 23.5 298.93 112.41c25.66,9.57 54.21,-3.5 63.77,-29.16l98.35 -263.19 20.4 7.61c2.32,0.86 4.64,1.8 6.93,2.84 18.38,27.84 45.43,50.34 79.1,62.87 84.44,31.46 178.39,-11.5 209.84,-95.94 31.45,-84.45 -11.52,-178.4 -95.95,-209.85 -27.62,-10.28 -56.25,-12.57 -83.38,-8.07 -4.39,-0.65 -8.71,-1.71 -12.9,-3.27l-26.18 -9.75 109.45 -293.85c9.56,-25.67 -3.5,-54.23 -29.16,-63.78l-817.4 -304.44c-20.89,-7.78 -44.15,2.85 -51.93,23.74l-111.43 299.22c-4.58,-3.15 -8.81,-6.79 -12.67,-10.84 -20.47,-21.47 -47.68,-37.29 -80.31,-43.48 -64.74,-12.27 -131.17,20.88 -160.88,80.13 -40.89,81.52 -1.77,177.96 80.81,208.72z"/>
  <path class="fil2" d="M4370.13 3384.15c72.97,-5.06 136.1,14.72 197.07,43.15 27.25,12.71 59.33,21.9 89.42,21.9l79.83 -1.83 0.95 -887.49c0,-83.81 -68.37,-151.76 -152.7,-151.76l-843.63 3.12 0 -18.19c0,-35.65 9.13,-70.45 24.75,-102.55 40.92,-84.1 57.71,-181.89 40.09,-285.06 -35,-204.71 -205.98,-364.44 -413.67,-387.03 -285.78,-31.08 -527.57,190.54 -527.57,468.27 0,67.53 14.47,131.61 40.27,189.64 13.35,30.03 21.1,62.19 21.1,95.02l4.98 39.9 -1016.72 0c-84.34,0 -152.71,67.95 -152.71,151.77l0 867.76 -72.5 0c-33.74,0 -66.67,-8.63 -97.04,-23.42 -79.59,-38.72 -177.11,-54.6 -274.72,-37.93 -193.71,33.11 -344.85,194.91 -366.23,391.41 -29.41,270.43 180.29,499.21 443.11,499.21 63.89,0 124.53,-13.69 179.43,-38.09 28.41,-12.64 58.85,-19.95 89.92,-19.95l93.04 0 1.86 1061.45c0,68.24 55.67,123.57 124.35,123.57l2721.27 0c68.69,0 122.51,-86.2 122.51,-154.45l0 -964.76 -110.17 0c-25.46,0 -50.61,5.03 -74.2,14.52 -47.45,19.08 -99.2,29.74 -153.53,29.74 -233.28,0 -421.32,-192.57 -411.95,-426.51 8.26,-206.12 186.32,-487.04 393.39,-501.41z"/>
  <path class="fil1" d="M7935.01 3420.5c-65.98,0 -128.6,14.13 -185.28,39.33 -19.86,8.84 -40.69,15.08 -62.02,18.23l0 -932.88c0,-68.67 -55.67,-124.34 -124.35,-124.34l-970.67 0 0 110.15c0,25.46 5.06,50.61 14.6,74.21 19.18,47.44 29.93,99.19 29.93,153.52 0,233.29 -193.77,421.34 -429.14,411.95 -207.4,-8.27 -379.97,-175.85 -394.42,-382.92 -5.1,-72.95 9.2,-141.95 37.81,-202.93 12.79,-27.25 20.16,-56.65 20.16,-86.75l0 -77.23 -983.41 -3.12c-84.34,0 -152.7,68.35 -152.7,152.69l-0.94 865.16 -67.04 0c-7.61,0 -15.34,-0.21 -23.05,-0.77 -82.99,-60.58 -185.21,-96.42 -295.83,-96.42 -277.48,0 -502.42,224.95 -502.42,502.43 0,277.49 224.94,502.42 502.42,502.42 90.75,0 175.81,-24.2 249.29,-66.27 13.35,-2.89 26.96,-4.47 40.71,-4.47l86.03 0 0 965.63c0,84.32 68.37,152.69 152.71,152.69l2685.96 0c68.68,0 124.35,-55.68 124.35,-124.35l0 -983.17c16.54,4.14 32.67,10.1 48.17,17.65 82.15,39.97 177.71,56.38 278.5,39.15 200,-34.17 356.06,-201.24 378.14,-404.15 30.38,-279.22 -186.17,-515.44 -457.51,-515.44z"/>
  <path class="fil3" d="M4661.9 3592.61c0,0 44.08,-22.74 83.02,-14.21 38.93,8.54 180.28,100.69 180.28,100.69l113.89 -21.26 67.12 321.57 -444.31 184.64 0 -571.43z"/>
  <path class="fil4" d="M4333.23 3704.72c0,0 101.78,-12.86 138.65,-31.29 36.88,-18.44 124.78,-96.43 143.22,-95.01 18.44,1.43 85.07,14.19 85.07,14.19l-26.95 80.82c0,0 133.29,80.82 173.01,110.6 39.7,29.77 164.48,163.06 170.16,195.68 5.68,32.61 -4.26,70.9 -19.86,83.66 -15.6,12.76 -72.31,-12.76 -72.31,-12.76 0,0 8.5,29.78 -12.77,58.13 -21.27,28.38 -70.9,18.44 -70.9,18.44 0,0 -4.24,46.8 -26.94,55.3 -22.68,8.51 -73.73,-17.01 -73.73,-17.01 0,0 -15.39,39.7 -33.94,43.95 -18.53,4.26 -71,-26.94 -71,-26.94 0,0 -226.88,-163.07 -277.92,-187.17 -51.05,-24.11 -66.65,-25.52 -66.65,-25.52l42.86 -265.07z"/>
  <path class="fil5" d="M4739.89 4165.47c-1.02,-0.03 -1.67,-4 -4.05,-9.96 -2.36,-5.97 -6.38,-14 -11.41,-22.65 -10.1,-17.28 -19.17,-31.13 -17.55,-32.32 1.38,-1.07 12.98,11 23.47,28.92 5.2,8.93 8.8,17.86 10.11,24.71 1.39,6.91 0.29,11.36 -0.57,11.3z"/>
  <path class="fil5" d="M4834.16 4137.89c-1.85,0.94 -12.94,-19.41 -28.61,-42.83 -15.5,-23.61 -32.13,-39.37 -30.93,-40.85 1.08,-1.57 20.58,12.68 36.59,37.03 16.08,24.06 24.47,45.93 22.95,46.65z"/>
  <path class="fil5" d="M4925.2 4056.05c-2.01,0.51 -8.34,-24.04 -24.01,-50.5 -15.42,-26.63 -33.73,-44.14 -32.31,-45.64 0.97,-1.39 22.11,14.47 38.19,42.2 16.31,27.58 19.83,53.77 18.13,53.94z"/>
  <path class="fil5" d="M4858.76 3879.07c1.77,-0.37 6.66,16.52 7.57,38.01 0.99,21.52 -2.37,38.76 -4.18,38.55 -1.94,-0.19 -1.66,-17.3 -2.65,-38.23 -0.87,-20.95 -2.66,-37.96 -0.74,-38.33z"/>
  <path class="fil3" d="M4528.61 3751.42c0,0 35.45,-113.45 48.21,-127.63 12.76,-14.18 131.33,-45.39 131.33,-45.39l36.77 95.03 -26.31 27.83 -56.71 -3.74c0,0 -35.44,93.6 -133.29,53.9z"/>
  <path class="fil3" d="M4311.03 3975.74c0,0 -16.22,12.48 0,42.26 16.21,29.78 60.18,8.51 74.36,0 0,0 -21.27,49.62 5.67,65.22 26.94,15.61 59.55,11.34 59.55,11.34 0,0 -1.42,29.79 36.87,49.65 38.29,19.83 48.21,0 48.21,0 0,0 4.25,49.62 48.21,53.87 43.95,4.24 59.43,-10.84 59.43,-10.84l-19.73 -29.32c0,0 25.53,-52.01 5.68,-74.7 -19.86,-22.68 -52.47,-19.85 -52.47,-19.85 0,0 8.69,-46.07 -16.61,-58.91 -46.99,-23.84 -67.04,20.63 -67.04,20.63 0,0 -2.85,-50.49 -39.72,-49.35 -36.86,1.14 -56.71,23.82 -56.71,23.82l-85.7 -23.82z"/>
  <path class="fil6" d="M4493.16 4025.09c1.65,0.82 -5.3,18.09 -16.91,37.8 -11.59,19.75 -23.32,34.22 -24.85,33.18 -1.59,-1.09 7.51,-17.11 18.95,-36.63 11.49,-19.5 21.09,-35.22 22.81,-34.35z"/>
  <path class="fil6" d="M4577.72 4069.76c1.65,0.76 -5.57,19.21 -19.32,39.23 -13.68,20.08 -28.24,33.5 -29.56,32.25 -1.44,-1.33 10.57,-16.5 23.92,-36.1 13.43,-19.55 23.21,-36.26 24.96,-35.38z"/>
  <path class="fil7" d="M3699.41 4604.87l-215.09 0 -55.06 782.16 215.65 0c36.72,-119.12 128.48,-739.89 128.48,-739.89l-73.98 -42.27z"/>
  <path class="fil7" d="M2481.23 4604.87c0,0 -137.66,322.79 -123.89,453.44 13.77,130.66 91.07,328.72 91.07,328.72l1065.3 0c0,0 29.72,-109.12 52.68,-270.52 22.93,-161.39 84.88,-511.64 84.88,-511.64l-1170.04 0z"/>
  <path class="fil7" d="M3888.98 1489.68c-35.98,-45.41 -80.45,-89.13 -89.65,-146.32 -8.47,-52.59 14.52,-110.17 -9.04,-157.93 -29.02,-58.75 -112.41,-70.23 -148.57,-124.87 -17.51,-26.47 -21.67,-59.99 -38.95,-86.6 -29.44,-45.37 -89.9,-59.95 -143.89,-56.85 -53.99,3.11 -106.65,19.88 -160.71,21.01 -74.17,1.56 -149.28,-26.27 -221.3,-8.49 -79.47,19.59 -130.73,86.56 -184.95,151.16l-70.22 74.56c-14.39,12.65 -29.53,24.2 -46,33.75 -28.83,16.71 -61.41,27.65 -86.55,49.49 -53.81,46.78 -54.09,141.83 -0.59,188.94 -57.8,15.38 -101.53,72.82 -100.99,132.63 0.3,32.91 12.42,64.36 20.74,96.19 8.3,31.84 12.52,67.06 -2.04,96.56 -14.57,29.51 -54.12,48.29 -81.96,30.77 8.05,43.02 36.69,81.72 75.5,101.96 -16.19,15.11 -38.31,23.69 -60.46,23.44 53.16,143.69 212.7,225.55 365.71,233.66 153,8.1 302.25,-42.94 446.96,-93.29l417.16 -87.51c36.57,-6.56 53.73,-49.82 54.98,-86.96 1.23,-37.14 -6.33,-76.22 8.57,-110.26 20.42,-46.67 76.89,-69.28 98.15,-115.59 24.17,-52.64 -5.91,-114.05 -41.9,-159.45z"/>
  <path class="fil7" d="M2896.21 1819.3c-25.43,-94.53 -50.45,-189.74 -59.24,-287.24 -8.79,-97.5 -0.65,-198.23 38.12,-288.12 5.89,-13.62 54.71,-104.54 69.38,-102.34 10.49,1.59 -21.1,87.14 -16.25,96.56 46.37,89.98 54.78,195.76 41.47,296.1 -13.32,100.34 -38.94,189.9 -73.48,285.04z"/>
  <path class="fil4" d="M2905.79 1445.81c4.67,-245.46 151.39,-447.34 396.63,-435.87l22.61 2.36c227.45,23.98 398.45,218.54 392.83,447.19 -5.22,212.72 -13.73,447.71 -27.04,560.73 -27.59,233.97 -265.76,245.7 -265.76,245.7l-6.41 386.49 -557.64 -386.4 44.78 -820.2z"/>
  <path class="fil5" d="M3425.06 2265.92c0,0 -148.58,-6.91 -295.53,-122.33 0,0 54.91,198 290.91,201.54l4.62 -79.21z"/>
  <path class="fil7" d="M3636.67 1641.04c-1.23,17.74 -17.28,31.32 -35.82,30.36 -18.51,-0.94 -32.54,-16.06 -31.3,-33.79 1.24,-17.73 17.27,-31.33 35.78,-30.38 18.53,0.95 32.59,16.09 31.34,33.81z"/>
  <path class="fil7" d="M3657.54 1551.44c-4.61,3.93 -27.98,-17.5 -63.99,-21.19 -35.92,-4.22 -64.3,11.52 -67.73,6.7 -1.72,-2.16 3.34,-9.59 15.73,-16.76 12.2,-7.14 32.37,-13.22 54.79,-10.76 22.41,2.49 40.41,12.73 50.36,22.33 10.17,9.66 13.09,17.95 10.84,19.68z"/>
  <path class="fil7" d="M3310.86 1641.04c-1.23,17.74 -17.28,31.32 -35.81,30.36 -18.52,-0.94 -32.55,-16.06 -31.31,-33.81 1.24,-17.71 17.27,-31.31 35.79,-30.36 18.53,0.95 32.56,16.09 31.33,33.81z"/>
  <path class="fil7" d="M3303.36 1528.85c-4.61,3.91 -28.02,-17.52 -64.01,-21.21 -35.91,-4.21 -64.28,11.53 -67.73,6.69 -1.71,-2.14 3.3,-9.58 15.74,-16.72 12.2,-7.16 32.36,-13.24 54.79,-10.79 22.41,2.5 40.4,12.74 50.36,22.34 10.14,9.66 13.08,17.95 10.85,19.69z"/>
  <path class="fil7" d="M3403.35 1819.09c0.05,-2.05 22.83,-3.57 59.58,-4.39 9.28,0.03 18.18,-0.88 20.4,-7 2.85,-6.41 0.06,-16.72 -3.27,-27.9 -6.3,-23.15 -12.9,-47.42 -19.8,-72.87 -27.27,-103.64 -45.95,-188.47 -41.78,-189.54 4.2,-1.05 29.68,82.09 56.93,185.74 6.5,25.53 12.71,49.88 18.62,73.17 2.36,10.81 7.11,23.29 0.96,36.58 -3.2,6.62 -10.47,10.89 -16.53,11.86 -6.08,1.17 -11.27,0.72 -15.84,0.53 -36.71,-1.89 -59.36,-4.12 -59.27,-6.18z"/>
  <path class="fil7" d="M3294.76 1832.82c5.9,0.29 1.85,39.37 32.38,70.63 30.45,31.34 72.56,31.36 72.3,36.85 0.29,2.5 -10.08,6.6 -27.71,5.24 -17.32,-1.23 -41.92,-9.44 -60.59,-28.55 -18.6,-19.18 -24.99,-42.79 -24.63,-58.95 0.22,-16.51 5.61,-25.72 8.25,-25.22z"/>
  <path class="fil7" d="M3316.77 1382.54c-4.58,9.41 -40.04,0.98 -82.81,1.63 -42.79,-0.23 -78.16,8.54 -82.84,-0.82 -2.05,-4.47 4.86,-13.05 19.62,-21.07 14.66,-8.02 37.38,-14.72 63.05,-14.87 25.64,-0.1 48.43,6.36 63.15,14.25 14.85,7.88 21.85,16.4 19.83,20.88z"/>
  <path class="fil7" d="M3655.28 1430.2c-7.2,7.51 -31.1,-3.59 -60.88,-7.13 -29.65,-4.59 -55.66,-0.3 -60.57,-9.48 -2.1,-4.42 2.72,-12.19 14.57,-18.77 11.69,-6.56 30.56,-10.96 50.98,-8.18 20.42,2.82 37.39,12.1 46.88,21.58 9.66,9.5 12.23,18.29 9.02,21.98z"/>
  <path class="fil4" d="M2906.63 1621.3c-3.82,-2.15 -155.95,-64.58 -167.73,96.13 -11.75,160.7 152.01,139.37 152.63,134.78 0.62,-4.6 15.1,-230.91 15.1,-230.91z"/>
  <path class="fil5" d="M2846.9 1787.74c-0.67,-0.56 -2.95,1.74 -7.84,3.57 -4.76,1.78 -12.8,2.64 -20.96,-1.11 -16.52,-7.46 -28.84,-35.46 -27.5,-64.5 0.67,-14.64 4.75,-28.35 10.78,-39.49 5.76,-11.4 13.97,-19.06 22.62,-19.96 8.66,-1.34 14.34,4.22 15.97,8.89 1.82,4.65 0.57,7.79 1.4,8.12 0.42,0.45 3.64,-2.44 2.84,-9.17 -0.43,-3.24 -2.05,-7.16 -5.58,-10.53 -3.63,-3.42 -9.19,-5.44 -15.19,-5.23 -12.46,-0.05 -24.45,10.53 -31.07,22.78 -7.31,12.25 -12.24,27.62 -12.99,44.08 -1.34,32.45 13.02,63.98 35.76,72.4 11.09,3.77 20.78,1.04 25.91,-2.39 5.27,-3.61 6.38,-7.13 5.85,-7.46z"/>
  <path class="fil7" d="M3630.97 1186.4c26.95,-12.68 -45.72,-101.99 -107.81,-135.11 -93.83,-50.08 -239.7,-86.58 -330.45,-67.04 -109.25,23.51 -201.84,71.16 -261.99,165.36 -60.15,94.19 -87.73,206.66 -91.77,318.35 -1.24,34.08 0,69.77 16.32,99.71 20.19,36.99 61.83,62.16 56.78,111.07 -1.83,17.89 2.11,36.31 13.56,50.18 27.39,33.18 65.29,6.09 83.73,-22.33 39.4,-60.7 48.18,-135.64 55.93,-207.61 5.52,-51.13 10.97,-103.39 -0.33,-153.57 -6.15,-27.32 -17.15,-53.44 -21.76,-81.06 -4.63,-27.6 -1.82,-58.42 16.56,-79.55 2.98,-3.43 7.82,-7.69 13.9,-12.37 48.11,-36.98 112.63,-44.83 168.41,-20.96 88.48,37.87 240.04,95.67 282.42,67.53 60.95,-40.46 76.69,-68.41 76.69,-68.41l29.81 35.81z"/>
  <path class="fil7" d="M3202.51 962.96c90.28,-23.87 190.77,-15.85 270.71,32.39 42.43,25.58 79.74,64.54 90.07,113.02 10.32,48.46 -13.77,105.75 -60.77,121.45l-3.28 1.79c-70.1,18.66 -114.1,6.6 -180.97,-21.47 -56.28,-23.62 -105.19,-62.45 -161.57,-85.8 -59.94,-24.83 -127.4,-31.14 -190.91,-17.87 66,-66.02 146.48,-119.64 236.72,-143.51z"/>
  <path class="fil8" d="M3243.2 935.04c0.05,-0.43 5.88,0.04 16.36,1.63 10.38,1.95 25.43,5.23 43.26,11.78 17.82,6.53 38.37,16.38 59.23,30.51 20.77,14.08 42.05,32.58 58.99,56.5 17.09,23.98 26.42,50.68 32.47,74.98 5.95,24.44 8.56,46.91 9.88,65.76 1.34,18.88 1.39,34.16 1.18,44.7 -0.2,10.55 -0.72,16.37 -1.17,16.37 -0.49,0 -0.88,-5.82 -1.48,-16.32 -0.63,-10.5 -1.4,-25.69 -3.34,-44.33 -1.93,-18.62 -4.99,-40.76 -11.17,-64.64 -6.25,-23.74 -15.56,-49.62 -31.94,-72.58 -16.31,-23.04 -36.88,-41.23 -56.99,-55.26 -20.19,-14.09 -40.1,-24.2 -57.4,-31.19 -34.76,-13.87 -58.14,-16.6 -57.88,-17.91z"/>
  <path class="fil8" d="M3391.17 926.13c0.14,-0.46 5.06,0.93 13.88,3.84 4.34,1.66 10.03,2.83 15.87,5.93 6.16,3.13 12.86,6.52 20.11,10.19 28.6,16.74 63.92,50.37 83.36,98.04 5.31,11.68 8.46,23.79 11.83,35.36 2.18,11.86 4.74,23.21 5.24,34.3 1.41,11.01 0.6,21.56 0.61,31.37 -1.22,9.76 -1.6,18.97 -3.69,27.09 -1.9,8.15 -3.33,15.58 -5.95,21.73 -2.37,6.2 -3.96,11.69 -6.47,15.69 -4.42,8.23 -7.04,12.62 -7.44,12.37 -1.4,-0.64 9.7,-18.36 15.12,-50.67 1.74,-7.96 1.81,-16.98 2.77,-26.48 -0.28,-9.58 0.34,-19.83 -1.22,-30.53 -0.64,-10.78 -3.27,-21.8 -5.48,-33.29 -3.37,-11.22 -6.46,-22.96 -11.62,-34.29 -18.87,-46.23 -52.32,-79.15 -79.62,-96.59 -6.9,-3.9 -13.3,-7.51 -19.19,-10.84 -5.58,-3.38 -11.05,-4.87 -15.18,-6.9 -8.42,-3.63 -13.06,-5.87 -12.93,-6.32z"/>
  <path class="fil8" d="M3496 2613.58c0,22.08 110.56,507.61 152.87,626.86 42.31,119.27 176.29,1315.27 158.67,1400.46 -17.63,85.18 -63.47,81.77 -63.47,81.77 0,0 -1082.44,-68.14 -1198.8,-57.93 -116.35,10.24 -165.72,6.83 -193.92,-126.07 -28.21,-132.88 0.84,-823.54 -23.85,-990.51 -24.68,-166.96 -24.89,-247.9 -34.43,-495.95 -8.28,-214.99 40.65,-387.44 142.9,-511.9 102.25,-124.45 328.59,-250.29 328.59,-250.29l80.28 -117.11 568.14 300.5 12.99 -68.39 34.47 106.47 35.56 102.09z"/>
  <path class="fil9" d="M3154.37 4217.41c-72.47,0 -140.29,-5.53 -191.09,-21.69 -211.1,-67.14 -275.68,-265.79 -359.05,-471.01 -83.27,-204.99 -133.61,-386.04 -184.75,-636.14l83.38 -31.54c107.39,177.14 214.8,354.29 329.06,527.06 52.27,79.04 106.51,157.79 175.28,222.96 175.82,166.58 426.38,226.66 667.11,253.36 25.75,2.86 56.43,8.93 65.89,33.05 6.61,16.83 -0.89,36.64 -13.9,49.16 -13.03,12.54 -30.56,19.12 -47.86,24.36 -57.24,17.26 -117.23,23.04 -176.83,27.69 -89.6,7.03 -225.05,22.74 -347.24,22.74z"/>
  <path class="fil8" d="M2390.13 3023.2c6.23,11.09 487.96,1039.99 703.04,1082.29 215.08,42.31 883.52,52.19 1013.98,27.51 130.45,-24.68 258.09,-47.66 258.09,-47.66 0,0 94.45,-224.37 8.23,-415.53l-179.54 5.68c0,0 -499.25,-26.92 -569.77,-46.22 -70.51,-19.28 -131.44,-85.4 -194.9,-81.89l-379.79 -883.82c0,0 -246.81,-229.18 -423.1,-158.66 -176.3,70.51 -287.91,426.41 -236.24,518.3z"/>
  <path class="fil7" d="M4207.74 4121.02c-0.44,-0.15 0.84,-6.3 3.57,-17.29 2.84,-10.96 6.39,-26.96 10.13,-46.82 3.84,-19.83 7.14,-43.68 9.54,-70.25 2.06,-26.6 3.04,-55.96 1.86,-86.72 -2.64,-61.6 -13.61,-116.62 -24.43,-155.52 -5.37,-19.48 -10.22,-35.13 -13.97,-45.81 -3.62,-10.73 -5.41,-16.76 -4.98,-16.95 0.43,-0.16 3.08,5.53 7.47,16.02 4.52,10.45 10.11,25.95 16.12,45.39 12.07,38.84 23.94,94.32 26.62,156.58 1.18,31.09 0,60.74 -2.42,87.57 -2.77,26.8 -6.59,50.79 -11.08,70.66 -4.38,19.86 -8.66,35.79 -12.3,46.56 -3.53,10.82 -5.68,16.72 -6.13,16.58z"/>
  <path class="fil7" d="M3049.47 2663.56c0,0 2.56,5.27 7.17,15.66 4.64,10.58 11.43,26.02 20.26,46.18 17.7,40.75 43.63,100.46 76.84,176.95 66.26,153.49 161.55,374.23 278,643.97l-2.63 -1.63c29.98,-1.39 58.16,11.64 84.19,25.78 26.2,14.46 51.58,31.25 79.42,43.96 27.5,13.98 58.72,17.21 90.35,21.03 31.63,3.73 63.91,6.51 96.64,9.36 131.02,10.83 269.84,19.34 414.39,27.42l-0.28 0c56.47,-1.81 117.56,-3.77 179.54,-5.76l2.25 -0.07 0.89 2.04c27.7,63.39 39.31,134.68 35.95,206.05 -3.06,71.46 -17.7,143.35 -44.06,212.16l-0.66 1.7 -1.89 0.34c-36.17,6.68 -75.05,13.87 -114.16,21.08 -41.9,7.74 -83.57,15.42 -124.96,23.06 -41.45,8.09 -83.71,11.2 -125.09,12.9 -83.06,3.79 -164.93,4.09 -245.34,3.69 -80.42,-0.45 -159.4,-2.32 -236.71,-5.18 -77.31,-2.73 -152.95,-6.74 -226.65,-12.36 -36.87,-2.64 -73.22,-6.19 -109.04,-10.1 -35.82,-4.73 -70.98,-7.92 -105.57,-17.53 -16.87,-6.3 -31.82,-15.96 -45.72,-26.39 -13.93,-10.46 -26.68,-22.1 -38.82,-34.07 -24.34,-23.92 -46.13,-49.45 -66.66,-75.16 -81.47,-103.53 -145.3,-208.41 -202.37,-304.42 -112.92,-192.94 -194.42,-354.52 -250.38,-466.22 -27.81,-55.94 -48.89,-99.64 -63.03,-129.33 -14.13,-29.72 -21.21,-45.47 -21.21,-45.47 0,0 2.14,3.76 5.89,11.31 3.8,7.71 9.33,18.92 16.55,33.56 14.75,29.58 36.36,72.93 64.17,128.74 56.67,111.28 138.81,272.5 252.17,464.95 57.26,95.74 121.3,200.4 202.62,303.34 20.5,25.55 42.21,50.91 66.34,74.55 12.03,11.81 24.64,23.27 38.31,33.5 13.61,10.2 28.21,19.55 44.19,25.46 32.76,9.06 68.83,12.49 104.22,17.07 35.72,3.86 72.01,7.35 108.81,9.94 73.6,5.52 149.17,9.45 226.42,12.11 77.24,2.8 156.16,4.6 236.51,5 80.33,0.38 162.13,0.02 244.96,-3.78 41.52,-1.74 82.93,-4.77 124.17,-12.79 41.4,-7.64 83.07,-15.35 124.99,-23.08 39.11,-7.24 78.01,-14.42 114.18,-21.09l-2.54 2.03c25.95,-67.64 40.59,-139.26 43.6,-209.79 3.34,-70.56 -8.11,-140.77 -35.26,-203.04l3.15 1.95c-61.99,1.94 -123.09,3.84 -179.56,5.61l-0.27 0c-144.61,-8.18 -283.43,-16.87 -414.55,-27.9 -32.77,-2.9 -65.07,-5.73 -96.81,-9.53 -15.9,-1.8 -31.6,-3.85 -47.23,-6.8 -15.83,-2.4 -30.64,-8.57 -44.82,-14.86 -28.38,-13.04 -53.8,-29.95 -79.72,-44.3 -25.76,-14.09 -53.09,-26.57 -81.22,-25.28l-1.88 0.09 -0.74 -1.72c-115.54,-270.11 -210.1,-491.17 -275.84,-644.89 -32.63,-76.75 -58.11,-136.65 -75.49,-177.53 -8.53,-20.3 -15.07,-35.84 -19.56,-46.48 -4.36,-10.51 -6.42,-15.99 -6.42,-15.99z"/>
  <path class="fil7" d="M2999.14 2594.18c-0.45,0.41 -6.71,-6.19 -18.69,-17.31 -11.94,-11.14 -30.33,-26.19 -55.1,-41.54 -24.73,-15.4 -56.4,-30.31 -93.53,-40.49 -37.05,-10.23 -79.68,-14.99 -123.84,-10.85 -44.11,4.67 -84.98,17.79 -119.27,35.16 -34.38,17.32 -62.48,38.22 -83.66,58.21 -21.25,19.94 -36.29,38.33 -45.79,51.62 -9.54,13.27 -14.36,20.98 -14.89,20.66 -0.21,-0.11 0.8,-2.15 2.91,-5.94 2.23,-3.7 5.06,-9.49 9.81,-16.22 8.88,-13.87 23.51,-32.94 44.63,-53.62 21.04,-20.71 49.3,-42.38 84.14,-60.32 34.74,-17.99 76.38,-31.58 121.44,-36.34 45.11,-4.25 88.6,0.83 126.2,11.58 37.7,10.69 69.68,26.33 94.41,42.46 24.81,16.1 42.92,31.89 54.39,43.72 5.97,5.66 9.89,10.78 12.82,13.97 2.8,3.29 4.2,5.1 4.02,5.25z"/>
  <path class="fil7" d="M3427.8 3548.16c1.77,0.66 -9.1,34.07 -24.3,74.64 -15.19,40.57 -28.93,72.91 -30.69,72.24 -1.77,-0.65 9.11,-34.07 24.29,-74.63 15.2,-40.56 28.93,-72.91 30.7,-72.25z"/>
  <path class="fil7" d="M4300.43 3717.64c0,-0.39 1.85,-0.92 4.95,0.2 3.08,1.07 7.04,4.2 9.66,9.45 2.47,4.94 4.25,13.15 -0.5,20.42 -4.44,6.73 -12.92,11.9 -22.79,10.53 -10.04,-1.88 -15.9,-10.58 -17.17,-18.32 -1.38,-8.1 1.98,-15.46 6.55,-19.37 4.69,-4.06 9.88,-4.48 12.91,-4.21 3.15,0.31 4.69,1.13 4.63,1.55 0.22,1.31 -7.64,-0.47 -14.18,6.15 -3.02,3.28 -5.06,8.95 -3.74,14.69 1.18,5.7 5.9,11.73 12.14,12.78 6.28,1.02 13.17,-2.67 16.42,-7.3 3.45,-4.56 2.85,-10.59 1.3,-15.01 -3.36,-9.38 -10.44,-10.68 -10.18,-11.56z"/>
  <path class="fil7" d="M3426.56 2507.61c-0.17,0.26 -4.64,-2.07 -12.95,-6.7 -8.93,-5.1 -20.91,-11.95 -35.85,-20.48l2.52 -1.11c-7.08,35.83 -13.95,88.54 -25.97,151.72l-0.8 4.2 -3.66 -2.31c-52.74,-33.24 -116.02,-71.24 -183.54,-112.04 -50.33,-30.13 -97.39,-60.56 -140.73,-86.84 -43.57,-26.07 -83.38,-48.64 -116.89,-67.44 -33.05,-18.37 -60.03,-33.39 -79.54,-44.25 -8.87,-4.99 -16.03,-9.01 -21.59,-12.12 -4.9,-2.83 -7.43,-4.42 -7.32,-4.62 0.11,-0.22 2.85,0.96 7.97,3.39 5.7,2.84 13.06,6.49 22.18,11.01 19.18,9.74 46.79,24.1 80.63,42.37 33.84,18.26 73.92,40.43 117.78,66.26 43.43,26.61 91.04,55.77 141.05,86.4 67.48,40.78 130.67,79.13 183.16,112.91l-4.46 1.89c12.55,-62.69 20.31,-115.48 28.42,-151.22l0.53 -2.35 1.99 1.25c14.6,9.11 26.3,16.41 35.04,21.86 8,5.11 12.19,7.96 12.03,8.22z"/>
  <path class="fil9" d="M3386.05 2691.86c-77.44,-24.86 -144.24,-74.29 -209.48,-122.89 -94.13,-70.14 -188.27,-140.29 -282.42,-210.44 4.71,2.62 9.55,5.31 14.54,8.08 13.06,7.33 27.09,15.23 41.93,23.69l134.1 80.35c26.11,16.32 53.33,33.32 81.59,50.24 67.52,40.8 130.8,78.8 183.54,112.04l3.66 2.31 0.8 -4.2c5.65,-29.7 10.17,-57.09 14.09,-81.51l13.37 -63.72c1.43,68.68 2.86,137.37 4.28,206.05z"/>
  <path class="fil10" d="M3353.51 2635.24l-3.66 -2.31c-52.74,-33.24 -116.02,-71.24 -183.54,-112.04 -28.26,-16.92 -55.48,-33.92 -81.59,-50.24l266.72 159.8 16.96 -80.92c-3.92,24.42 -8.44,51.81 -14.09,81.51l-0.8 4.2zm-402.89 -244.94c-14.84,-8.46 -28.87,-16.36 -41.93,-23.69 -4.99,-2.77 -9.83,-5.46 -14.54,-8.08 -4.68,-3.49 -9.37,-6.99 -14.05,-10.47l70.52 42.24z"/>
  <path class="fil7" d="M5933.12 1316.03c-51.62,6.9 -105.41,-30.06 -117.47,-80.72 -12.06,-50.65 19.31,-107.89 68.5,-124.98 -32.81,-32.35 -41.91,-86.26 -21.54,-127.6 20.36,-41.33 68.66,-66.94 114.3,-60.64 1.01,-45.48 27.33,-89.58 66.89,-112.07 39.53,-22.47 90.88,-22.54 130.49,-0.16 49.39,-44.03 130.35,-47.22 183.06,-7.2 44,-9.02 92.63,13.58 114.13,53.02 21.49,39.45 14.14,92.55 -17.31,124.65l-521.05 335.7z"/>
  <path class="fil3" d="M5917.96 1331.24c14.11,-234.56 206,-418.9 440.92,-423.68l23.35 -0.48c252,9.59 384.64,228.95 368.09,480.59l14.99 897.79 -612.36 219.8 -5.33 -323.32c0,0 -242.75,-32.68 -250.65,-274.55 -3.83,-116.82 7.86,-357.99 20.99,-576.15z"/>
  <path class="fil6" d="M6145.6 2181.64c0,0 154.68,6.15 315.11,-99.23 0,0 -71.01,175.62 -312.86,158.76l-2.25 -59.53z"/>
  <path class="fil7" d="M5985.93 1549.99c-0.29,18.25 14.94,33.54 34.01,34.18 19.03,0.62 34.71,-13.62 34.98,-31.88 0.26,-18.25 -14.95,-33.56 -33.99,-34.19 -19.05,-0.65 -34.74,13.64 -35,31.89z"/>
  <path class="fil7" d="M5972.38 1448.55c4.38,4.41 30.15,-15.49 67.34,-16.15 37.12,-1.19 64.82,17.38 68.73,12.75 1.96,-2.07 -2.58,-10.1 -14.64,-18.52 -11.86,-8.37 -31.98,-16.34 -55.14,-15.77 -23.15,0.61 -42.46,9.52 -53.48,18.47 -11.26,9.02 -14.95,17.24 -12.81,19.22z"/>
  <path class="fil7" d="M6324.66 1550c-0.29,18.24 14.95,33.53 34.01,34.16 19.02,0.64 34.71,-13.61 34.99,-31.88 0.27,-18.24 -14.97,-33.55 -33.99,-34.18 -19.07,-0.65 -34.75,13.64 -35.01,31.9z"/>
  <path class="fil7" d="M6337.96 1448.04c4.38,4.42 30.2,-15.48 67.35,-16.14 37.12,-1.19 64.8,17.38 68.75,12.74 1.94,-2.06 -2.55,-10.09 -14.66,-18.5 -11.86,-8.38 -31.98,-16.35 -55.14,-15.79 -23.16,0.61 -42.45,9.53 -53.48,18.47 -11.23,9.01 -14.95,17.24 -12.82,19.22z"/>
  <path class="fil7" d="M6208.66 1726.5c0.13,-2.12 -23.07,-5.65 -60.61,-9.67 -9.51,-0.77 -18.54,-2.48 -20.26,-8.94 -2.39,-6.8 1.39,-17.12 5.76,-28.26 8.46,-23.15 17.31,-47.42 26.6,-72.86 36.9,-103.72 63.39,-188.92 59.19,-190.37 -4.18,-1.44 -37.49,81.44 -74.37,185.17 -8.86,25.55 -17.37,49.93 -25.42,73.26 -3.36,10.86 -9.3,23.23 -4.16,37.36 2.7,7.04 9.77,12.05 15.9,13.55 6.11,1.75 11.47,1.73 16.16,1.92 37.72,1.26 61.1,0.95 61.21,-1.16z"/>
  <path class="fil7" d="M6324.12 1321.71c5.09,9.32 36.74,-1.55 75.96,-3.61 39.14,-2.95 72.34,3.76 75.73,-6.1 1.44,-4.7 -5.69,-13.02 -19.99,-20.28 -14.16,-7.26 -35.6,-12.66 -59.1,-11.18 -23.47,1.53 -43.72,9.59 -56.45,18.57 -12.83,9.01 -18.43,18.14 -16.15,22.6z"/>
  <path class="fil7" d="M5965.19 1317.03c8.01,8.28 38.51,-1.1 75.41,-2.27 36.83,-2.24 68.26,4.29 75.26,-4.69 3.07,-4.35 -2.02,-12.72 -15.83,-20.43 -13.61,-7.7 -36.26,-13.74 -61.6,-12.59 -25.33,1.18 -47.16,9.29 -59.82,18.21 -12.84,8.94 -16.97,17.73 -13.42,21.77z"/>
  <path class="fil7" d="M5938.97 1219.81c0,0 60.73,-152.8 133.06,-189.65 87.58,-44.59 127.63,51.7 211.43,26.43 83.81,-25.28 167.41,-68.07 254.86,-4.67 95.74,69.4 52.58,120.33 60.59,227.56 32.48,434.72 114.46,556.17 132.89,350.72 2.02,-22.52 63.99,-41.64 71.3,-136.71 9.45,-123.28 11.15,-272.79 -18.08,-359.54 -24.66,-73.13 -67.64,-123.12 -144.04,-177.65 -120.59,-86.07 -283.79,-84.65 -394.36,-71.24 -110.58,13.4 -321.6,145.26 -307.65,334.75z"/>
  <path class="fil3" d="M6716.26 1623.92c0.76,-37.37 32.32,-67.5 69.61,-64.72 45.19,3.37 95.93,27.97 94.84,121.27 -1.9,165.51 -167.68,129.45 -167.9,124.69 -0.16,-3.22 2.03,-111.98 3.45,-181.24z"/>
  <path class="fil6" d="M6749.55 1743.31c0.72,-0.52 2.86,2.06 7.71,4.35 4.71,2.23 12.87,3.81 21.53,0.68 17.56,-6.21 32.6,-33.79 33.75,-63.62 0.6,-15.05 -2.38,-29.44 -7.59,-41.37 -4.91,-12.18 -12.65,-20.71 -21.43,-22.38 -8.74,-2.13 -15.02,3.07 -17.1,7.71 -2.27,4.6 -1.26,7.92 -2.14,8.19 -0.47,0.41 -3.52,-2.83 -2.11,-9.64 0.72,-3.28 2.71,-7.16 6.62,-10.29 4.02,-3.19 9.87,-4.77 16,-4.04 12.76,1.04 24.11,12.91 29.82,26.02 6.43,13.17 10.13,29.33 9.46,46.24 -1.44,33.35 -18.87,64.35 -42.88,70.99 -11.68,2.9 -21.34,-0.73 -26.32,-4.68 -5.09,-4.15 -5.9,-7.86 -5.32,-8.16z"/>
  <path class="fil7" d="M6706.49 1303.54c-21.18,15.1 -43.57,30.69 -69.39,33.78 -25.84,3.08 -55.73,-11.18 -60.62,-36.74 -2.19,-11.47 0.34,-24.88 -7.41,-33.62 -9.25,-10.45 -25.84,-6.78 -39.67,-5.02 -47.98,6.08 -97.93,-26.94 -111.13,-73.47 -11.89,18.62 -40.52,18.4 -59.32,6.82 -18.81,-11.59 -31.16,-30.92 -46.02,-47.27 -14.87,-16.33 -35.56,-30.79 -57.36,-27.23 -12.19,1.97 -23.49,9.49 -35.81,8.65 -21.76,-1.5 -32.87,-26.7 -36.61,-48.2 -3.72,-21.49 -6.79,-46.6 -25.43,-57.93 -17.26,-10.52 -39.23,-3.79 -59.16,-0.44 -19.94,3.36 -45.84,-0.81 -51.37,-20.26 -2.9,-10.2 1.28,-21.08 6.79,-30.15 24.93,-41.06 80.71,-60.23 125.62,-43.12 15.07,-54.99 65.33,-98.57 121.89,-105.7 56.55,-7.13 116.06,22.6 144.31,72.12 34.31,-32.43 84.83,-46.77 131.07,-37.21 46.23,9.55 86.93,42.75 105.57,86.14 40,-11.4 86.19,3.22 112.34,35.59 26.16,32.36 30.77,80.58 11.23,117.31 30.08,16.38 56.13,45.4 57.45,79.63 1.31,34.22 -31.35,69.02 -64.56,60.68 13.89,26.39 3.76,62.78 -21.76,78.2 -25.52,15.41 -62.46,7.44 -79.35,-17.13l8.7 4.57z"/>
  <path class="fil8" d="M6168.3 978.24c-0.13,0.03 -0.09,1.05 0.1,3.05 0.27,1.97 0.44,4.97 1.22,8.8 1.7,7.6 5,18.86 12.67,31.63 7.73,12.58 19.59,27.04 37.48,38.35 17.52,11.47 41.4,19.95 68.15,17.95l-2.88 -3.61c-4.86,14.25 -3.1,31.2 4.24,45.6 6.97,14.66 17.76,27.55 29.14,40.1 5.82,6.01 10.91,13.13 18.89,18.61 7.77,5.24 17,8.19 26.42,9.19 18.69,1.99 39.63,-4.19 52.84,-20.17l-6.21 -1.64c4.87,32.79 24.24,65.31 54.37,84.76 15.95,11.04 35.54,17.59 54.66,16.7 19.15,-0.59 36.84,-6.57 53.29,-12.84l-4.45 -1.85c9.31,20.37 23.32,37.63 40.18,50.25 16.55,12.6 38.4,19.74 57.95,14.51 38.86,-9.06 64.1,-42.05 68.69,-72.72l-3.71 1.81c19.58,10.17 40.4,10.76 57.02,7.2 16.84,-3.44 29.96,-11.05 39.27,-18.48 9.34,-7.58 14.8,-15.28 18.07,-20.6 2.98,-5.51 4.2,-8.56 4.02,-8.63 -0.84,-0.67 -5.22,12.68 -23.81,27.04 -9.28,6.84 -22.13,13.83 -38.34,16.73 -16,3.07 -35.72,2.04 -53.8,-7.7l-3.15 -1.69 -0.58 3.51c-4.66,28.63 -28.99,59.43 -65.04,67.41 -17.7,4.54 -36.92,-1.86 -52.6,-13.77 -15.75,-11.9 -29.12,-28.54 -37.77,-47.7l-1.38 -3.03 -3.08 1.17c-16.21,6.13 -33.28,11.75 -50.97,12.23 -17.7,0.74 -35.27,-5.08 -50.49,-15.55 -28.46,-18.4 -46.64,-48.82 -51.41,-79.86l-1.19 -7.82 -5.03 6.18c-11.15,13.64 -29.86,19.55 -46.67,17.78 -8.45,-0.84 -16.64,-3.43 -23.41,-7.95 -6.6,-4.34 -11.91,-11.37 -17.81,-17.43 -11.36,-12.34 -21.85,-24.74 -28.48,-38.37 -6.98,-13.46 -8.56,-28.35 -4.42,-41.25l1.26 -3.97 -4.14 0.35c-25.19,2.22 -48.18,-5.45 -65.29,-16.17 -17.46,-10.56 -29.29,-24.29 -37.21,-36.27 -15.56,-24.71 -15.43,-42.23 -16.61,-41.84z"/>
  <path class="fil7" d="M6336.81 1739.3c-5.9,0.69 0.93,39.7 -27.55,73.28 -28.41,33.65 -70.76,36.62 -70.1,42.13 -0.11,2.54 10.6,5.94 28.23,3.31 17.32,-2.45 41.47,-12.44 58.91,-32.96 17.35,-20.58 22.1,-44.78 20.6,-61.01 -1.4,-16.56 -7.46,-25.45 -10.09,-24.75z"/>
  <path class="fil11" d="M4985.22 3621.6c20.97,-8.39 713.67,-91.62 713.67,-91.62l281.06 -237.93 -26.37 688.83 -884.5 85.27 -83.86 -444.55z"/>
  <path class="fil12" d="M5777.85 3463.15l0 0c0,0 69.39,-61.68 77.83,-65.9l-77.83 65.9z"/>
  <path class="fil13" d="M5799.02 3993.56l-21.17 -530.41 77.83 -65.9 0 0 -1.29 13.52c-22.08,147.97 -41.05,313.3 -43.2,454.67l-12.17 128.12z"/>
  <path class="fil7" d="M7035.89 4644.7l-1170.03 0c0,0 61.93,330.13 84.87,482.25 22.95,152.14 56.48,260.08 56.48,260.08l1059.71 0c0,0 79.1,-191.77 92.86,-314.92 13.76,-123.17 -123.89,-427.41 -123.89,-427.41z"/>
  <path class="fil7" d="M5778.67 4684.53c0,0 -32.69,376.32 0,702.5l405.31 0 0 -300.54 -405.31 -401.96z"/>
  <path class="fil0" d="M6003.86 2839.87l126.07 -276.12 15.68 -170.56c0,0 241.78,-151.96 356.5,-209.31 114.7,-57.35 269.23,-109.27 269.23,-109.27l0 160.92 -767.48 604.34z"/>
  <path class="fil11" d="M7057.78 4250.1c0,0 68.49,-920.37 73.13,-988.76 0,0 40.45,-491.77 -46.87,-679.03 -87.33,-187.25 -282.72,-351.84 -282.72,-351.84l-17.98 -98.31 -381.67 240.56 -176.4 153.44c0,0 -100.14,105.72 -166.48,207.12 -50.08,69.29 -105.76,158.44 -130.54,270.52 -9.04,40.99 -114.06,530.93 -117.19,872.44 0,0 -16.12,297.95 -33.34,466.7 -21.31,208.88 -53.76,685.04 -46.69,967.18l1236.7 -37.77c305.64,-46.63 251.89,-77.01 251.89,-77.01l-161.84 -945.24z"/>
  <path class="fil7" d="M6771.34 2235.53c0,0 -2.86,1.48 -8.57,3.91 -6.03,2.52 -14.43,6.04 -25.23,10.55 -10.8,5.19 -23.91,12.04 -39.29,20.04 -14.78,9.14 -32.41,18.6 -50.65,31.6 -74.19,49.78 -172.1,134.15 -271.72,251.13l-0.71 0.84 -1.02 0.19c-37.67,6.93 -77.46,14.24 -118.66,21.82l2.56 -2.96c-1.86,55.13 -3.82,112.99 -5.85,172.86l-0.04 1.36 -1.03 0.96c-59.42,56.28 -119.79,119.97 -174.46,191.25 -22.19,29.23 -42.61,59.26 -59.84,90.43l-6.45 11.65 -4.94 12.17c-3.37,8.05 -6.58,16.15 -8.95,24.69 -5.29,16.75 -10.5,33.38 -14.81,50.18 -18.32,66.84 -33.42,132.06 -47.58,194.22 -28.17,124.36 -51.62,236.81 -71.06,331.27 -38.82,188.96 -60.68,306.22 -60.68,306.22 0,0 0.29,-7.5 2.65,-21.51 2.16,-14.04 5.75,-34.69 10.47,-61.24 9.58,-53.08 24.05,-129.82 42.85,-224.44 18.83,-94.61 41.8,-207.17 69.64,-331.69 13.99,-62.24 28.98,-127.54 47.25,-194.61 4.31,-16.83 9.54,-33.61 14.86,-50.51 2.36,-8.52 5.66,-16.9 9.16,-25.27l5.12 -12.59 6.52 -11.81c17.43,-31.61 38.03,-61.88 60.35,-91.28 55.05,-71.76 115.54,-135.47 175.43,-192.01l-1.08 2.32c2.17,-59.86 4.25,-117.71 6.23,-172.84l0.09 -2.51 2.47 -0.46c41.23,-7.43 81.05,-14.61 118.74,-21.4l-1.74 1.01c100.58,-117.17 199.23,-201.06 274.35,-250.26 18.46,-12.84 36.3,-22.12 51.27,-31.08 15.59,-7.8 28.87,-14.43 39.82,-19.37 10.98,-4.2 19.53,-7.44 25.65,-9.77 5.8,-2.16 8.88,-3.06 8.88,-3.06z"/>
  <path class="fil11" d="M6356.16 2962.8l14.83 1228.11 -187.01 1196.11 493.02 0c0,0 224.07,-908.18 276.26,-1099.03 50.66,-185.32 126.59,-1118.16 133.32,-1163.95 2.65,-17.96 56.1,-340.13 -101.26,-492.11l-629.16 330.87z"/>
  <path class="fil7" d="M6985.31 2631.93c0,0 3.56,3.38 10.32,10.25 6.69,6.88 16.13,17.74 26.93,33.11 21.56,30.64 46.95,81.24 61.58,151.34 14.76,69.87 19.94,158.13 9.37,259.12 -7.41,50.32 -11.11,104.09 -16.57,161.42 -5.19,57.24 -10.69,117.75 -16.47,181.31 -11.76,127.12 -25.04,266.37 -41.08,415.81 -8.22,74.67 -16.76,151.94 -27.32,231.37 -10.75,79.27 -21.22,161.47 -43.42,243.44 -82.37,328.08 -173.02,689.12 -268.33,1068.74l-0.65 2.6 -2.67 0c-16.79,0 -34.96,0 -53.18,0 -149.62,-0.01 -296.56,-0.02 -439.84,-0.04l-3.95 0 0.61 -3.9c69.2,-441.15 133.06,-848.36 187.59,-1196.02l-0.03 0.45c-4,-371.87 -7.3,-678.85 -9.61,-893.04 -0.95,-106.91 -1.7,-190.64 -2.21,-247.81 -0.17,-28.41 -0.29,-50.18 -0.38,-65.02 -0.04,-14.7 0.16,-22.26 0.16,-22.26 0,0 0.38,7.55 0.7,22.25 0.26,14.83 0.66,36.61 1.18,65.01 0.88,57.16 2.15,140.88 3.77,247.79 2.86,214.18 6.98,521.15 11.98,893.02l0 0.24 -0.03 0.23c-54.2,347.73 -117.68,754.99 -186.45,1196.2l-3.33 -3.89c143.28,-0.01 290.22,-0.02 439.84,-0.04 18.22,0 36.39,0 53.18,0l-3.31 2.59c95.53,-379.62 186.38,-740.66 268.93,-1068.74 22.16,-81.46 32.67,-163.32 43.54,-242.6 10.66,-79.32 19.3,-156.56 27.66,-231.19 16.28,-149.35 29.82,-288.56 41.89,-415.62 5.94,-63.56 11.6,-124.05 16.95,-181.28 5.59,-57.08 9.57,-111.49 17.1,-161.44 10.88,-100.57 6.1,-188.52 -8.19,-258.16 -14.18,-69.87 -39.02,-120.37 -60.12,-151.11 -10.59,-15.43 -19.81,-26.38 -26.32,-33.4 -6.57,-7 -9.82,-10.73 -9.82,-10.73z"/>
  <path class="fil7" d="M6616.9 4311.77c-0.29,0.84 -14.91,-3.13 -38.1,-11.04 -23.18,-7.91 -54.83,-19.97 -89.01,-35.12 -34.18,-15.18 -64.35,-30.57 -85.76,-42.46 -21.42,-11.87 -34.18,-20.08 -33.74,-20.87 0.48,-0.85 14.05,5.85 35.96,16.6 21.93,10.75 52.29,25.37 86.32,40.5 34.01,15.08 65.23,27.79 87.91,36.82 22.67,9.06 36.74,14.62 36.42,15.57z"/>
  <path class="fil7" d="M5772.87 4393.18c-0.12,-0.01 -0.16,-1.1 -0.14,-3.22 0.1,-2.53 0.21,-5.61 0.34,-9.4 0.48,-8.84 1.13,-20.9 1.94,-36.14 2.04,-31.94 4.91,-77.14 8.46,-132.76 7.56,-112.07 18.36,-266.88 33.46,-437.64 15.15,-170.82 32.59,-325.08 46.79,-436.52 7.15,-55.72 13.21,-100.77 17.76,-131.86 2.26,-15.08 4.04,-27.02 5.34,-35.77 0.64,-3.75 1.16,-6.79 1.56,-9.28 0.41,-2.09 0.65,-3.14 0.77,-3.13 0.12,0.01 0.1,1.1 -0.07,3.22 -0.23,2.52 -0.53,5.6 -0.88,9.38 -1,8.76 -2.36,20.76 -4.08,35.92 -3.76,31.79 -9.07,76.77 -15.6,132.1 -12.99,111.54 -29.66,265.82 -44.78,436.54 -15.12,170.68 -26.67,325.4 -35.46,437.39 -4.45,55.55 -8.08,100.71 -10.62,132.61 -1.35,15.2 -2.42,27.24 -3.21,36.03 -0.41,3.78 -0.75,6.84 -1.01,9.35 -0.27,2.12 -0.46,3.2 -0.57,3.18z"/>
  <path class="fil7" d="M6771.34 2476.99c-2.13,0.72 -14.21,-47.19 -46.38,-97.83 -31.71,-50.96 -69.64,-82.6 -68.07,-84.22 0.51,-0.63 10.63,6.44 25,20.22 14.36,13.72 32.6,34.6 48.84,60.37 16.17,25.79 27.09,51.27 33.22,70.18 6.19,18.91 8.17,31.1 7.39,31.28z"/>
  <path class="fil7" d="M5901.36 4002.83c0.35,-0.06 1.6,3.03 1.19,8.93 -0.43,5.76 -2.97,14.59 -10.71,22.23 -7.21,7.72 -21.57,13.25 -35.56,8.09 -6.84,-2.35 -13.37,-6.8 -18.26,-13.1 -4.94,-6.22 -7.65,-14.78 -7.4,-23.01 0.14,-10.58 3.39,-20.7 9.49,-28.58 3.05,-3.92 7,-7.18 11.49,-9.07 4.72,-1.74 8.14,-2.58 12.05,-3.81l0.48 -0.16 0.43 0.01c8.93,0.21 17.59,2.15 23.78,6.83 6.27,4.52 9.4,10.75 11,15.64 3.04,10.04 2.45,15.95 2.02,16 -0.81,0.17 -1.54,-5.77 -5.28,-14.74 -1.96,-4.38 -5.11,-9.44 -10.52,-12.86 -5.32,-3.58 -12.83,-4.97 -21,-4.9l0.91 -0.15c-3.57,1.27 -8.09,2.61 -11.33,3.93 -3.33,1.51 -6.35,4.07 -8.82,7.33 -4.92,6.51 -7.78,15.49 -7.86,24.56 -0.72,14.4 9.49,26.02 20.94,30.14 11.58,4.57 23.26,0.67 30.15,-5.68 7.18,-6.25 10.21,-13.9 11.38,-19.1 1.15,-5.3 0.86,-8.46 1.43,-8.53z"/>
  <path class="fil7" d="M5883.02 4437.08c0.35,-0.08 1.59,3.03 1.21,8.94 -0.45,5.75 -2.99,14.59 -10.71,22.22 -7.22,7.73 -21.6,13.26 -35.56,8.07 -6.87,-2.32 -13.4,-6.76 -18.29,-13.07 -4.93,-6.24 -7.64,-14.8 -7.38,-23.03 0.13,-10.58 3.4,-20.7 9.48,-28.57 3.05,-3.91 7.01,-7.17 11.48,-9.07 4.73,-1.75 8.15,-2.57 12.06,-3.82l0.47 -0.14 0.45 0c8.91,0.22 17.59,2.15 23.76,6.83 6.28,4.52 9.41,10.75 11.02,15.64 3.02,10.04 2.43,15.94 2.01,16 -0.81,0.18 -1.54,-5.76 -5.28,-14.74 -1.95,-4.39 -5.11,-9.45 -10.53,-12.85 -5.31,-3.59 -12.8,-4.97 -20.98,-4.92l0.9 -0.14c-3.57,1.27 -8.09,2.62 -11.31,3.93 -3.34,1.51 -6.38,4.06 -8.83,7.31 -4.92,6.55 -7.8,15.51 -7.88,24.58 -0.71,14.41 9.51,26.03 20.96,30.15 11.57,4.56 23.25,0.65 30.14,-5.68 7.19,-6.26 10.22,-13.91 11.38,-19.09 1.15,-5.33 0.85,-8.49 1.43,-8.55z"/>
  <path class="fil7" d="M6929.81 2559.25c-0.69,1.17 -16.97,-9.24 -45.74,-20.27 -14.31,-5.64 -31.98,-10.71 -51.88,-14.78 -19.96,-3.65 -42.22,-6.05 -65.67,-5.87 -23.45,0.47 -45.65,3.48 -65.52,7.68 -19.77,4.62 -37.28,10.17 -51.43,16.2 -28.46,11.83 -44.44,22.68 -45.17,21.54 -0.25,-0.39 3.6,-3.28 10.84,-8.17 3.57,-2.51 8.07,-5.41 13.59,-8.26 5.48,-2.91 11.55,-6.58 18.81,-9.54 14.15,-6.69 31.85,-12.86 51.96,-17.9 20.19,-4.63 42.87,-7.89 66.83,-8.38 23.95,-0.18 46.69,2.47 67,6.54 20.26,4.49 38.09,10.15 52.43,16.45 7.34,2.76 13.52,6.27 19.07,9.02 5.6,2.7 10.18,5.47 13.82,7.89 7.37,4.68 11.3,7.46 11.06,7.85z"/>
  <path class="fil13" d="M5852.82 3703.7c3.26,-16.05 6.67,-32.73 10.22,-50.01 19.44,-94.46 42.89,-206.91 71.06,-331.27 14.16,-62.16 29.26,-127.38 47.58,-194.22 4.31,-16.8 9.52,-33.43 14.81,-50.18 2.37,-8.54 5.58,-16.64 8.95,-24.69l4.94 -12.17 6.45 -11.65c17.23,-31.17 37.65,-61.2 59.84,-90.43 7.82,-10.21 15.76,-20.26 23.81,-30.16 34.61,-39.74 71.69,-80.59 100.12,-111.52 16.82,-17.12 33.71,-33.63 50.53,-49.57l1.03 -0.96 0.04 -1.36c2,-58.97 3.92,-115.99 5.76,-170.36 40.32,-7.42 79.27,-14.57 116.19,-21.36l1.02 -0.19 0.71 -0.84c28.92,-33.94 57.69,-65.15 85.78,-93.57 -5.01,22.31 -27.36,72.26 -57.41,104.56 -5.93,6.37 -55.54,42.56 -102.76,42.56 -0.31,0 -0.61,0 -0.91,0 1.3,156.16 -8.55,213.91 -75,259.34 -68.12,46.56 -114.2,121.07 -153.39,193.7 -66.54,123.33 -78.39,274.23 -120.78,407.8 -27.99,88.2 -47.41,160.43 -98.59,236.55zm136.33 -624.84c4.85,-19.55 8.53,-33.18 10.64,-38.96 3.49,-9.54 14.93,-26.38 31.13,-47.38 -7.04,11.09 -13.75,22.31 -20.04,33.72l-6.52 11.81 -5.12 12.59c-3.5,8.37 -6.8,16.75 -9.16,25.27 -0.3,0.98 -0.62,1.96 -0.93,2.95z"/>
  <path class="fil10" d="M5849.87 3708.03c0,0 102.79,-482.15 139.28,-629.17 0.31,-0.99 0.63,-1.97 0.93,-2.95 2.36,-8.52 5.66,-16.9 9.16,-25.27l5.12 -12.59 6.52 -11.81c6.29,-11.41 13,-22.63 20.04,-33.72 18.56,-24.04 43.35,-53.49 69.56,-83.6 -8.05,9.9 -15.99,19.95 -23.81,30.16 -22.19,29.23 -42.61,59.26 -59.84,90.43l-6.45 11.65 -4.94 12.17c-3.37,8.05 -6.58,16.15 -8.95,24.69 -5.29,16.75 -10.5,33.38 -14.81,50.18 -18.32,66.84 -33.42,132.06 -47.58,194.22 -28.17,124.36 -51.62,236.81 -71.06,331.27 -3.55,17.28 -6.96,33.96 -10.22,50.01 -0.97,1.44 -1.95,2.89 -2.95,4.33zm350.73 -910.63c28.48,-30.97 48.3,-52.01 48.3,-52.01 2.96,-60.07 3.08,-112.76 6.03,-172.83 0.01,0 0.01,0 0.01,0 2.2,0 118.69,-21.64 118.69,-21.64 0,0 55.55,-60.1 88.87,-96.34 -0.18,1.36 -0.46,2.91 -0.84,4.61 -28.09,28.42 -56.86,59.63 -85.78,93.57l-0.71 0.84 -1.02 0.19c-36.92,6.79 -75.87,13.94 -116.19,21.36 -1.84,54.37 -3.76,111.39 -5.76,170.36l-0.04 1.36 -1.03 0.96c-16.82,15.94 -33.71,32.45 -50.53,49.57zm54.33 -224.84c-0.03,0 -0.03,0 0,-0.02l0 0.02z"/>
  <path class="fil13" d="M6726.99 5201.98c78.25,-311.69 152.85,-608.81 221.66,-882.87 22.2,-81.97 32.67,-164.17 43.42,-243.44 10.56,-79.43 19.1,-156.7 27.32,-231.37 16.04,-149.44 29.32,-288.69 41.08,-415.81 4.92,-54.29 9.67,-106.37 14.18,-156.08 15.83,675.66 -71.4,1382.99 -347.66,1929.57z"/>
  <path class="fil13" d="M6707.92 5238.88c0,0 22.12,-82.76 53.4,-200.9 -15.81,62.84 -31.8,126.36 -47.94,190.48 -1.81,3.47 -3.64,6.97 -5.46,10.42zm284.39 -1211.21c12.04,-101.32 25.35,-222.03 37.68,-337.35 -5.08,49.81 -10.46,100.97 -16.17,153.36 -6.7,59.74 -13.57,121.16 -21.51,183.99z"/>
  <path class="fil10" d="M6713.38 5228.46c16.14,-64.12 32.13,-127.64 47.94,-190.48 68.64,-259.32 181.33,-689.04 200.67,-787.87 7.24,-37.04 18.13,-119.8 30.32,-222.44 7.94,-62.83 14.81,-124.25 21.51,-183.99 5.71,-52.39 11.09,-103.55 16.17,-153.36 24.05,-224.76 44.4,-428.97 44.4,-428.97 0.09,3.68 0.18,7.38 0.26,11.06 -4.51,49.71 -9.26,101.79 -14.18,156.08 -11.76,127.12 -25.04,266.37 -41.08,415.81 -8.22,74.67 -16.76,151.94 -27.32,231.37 -10.75,79.27 -21.22,161.47 -43.42,243.44 -68.81,274.06 -143.41,571.18 -221.66,882.87 -4.5,8.89 -9.02,17.68 -13.61,26.48z"/>
  <path class="fil7" d="M6752.63 2146.31c0.13,0.19 -2.14,1.92 -6.57,5.01 -5.06,3.44 -11.53,7.83 -19.52,13.24 -17.85,11.74 -42.42,27.88 -72.47,47.64 -62.18,40.07 -146.87,94.63 -240.4,154.93 -36.23,23.09 -71.12,45.33 -103.74,66.14l0.22 -0.16c-11.34,8.78 -22.4,17.33 -33.13,25.64 -11.02,8.07 -20.47,16.29 -29.6,25.27 -18.16,17.55 -34.32,34.6 -48.87,50.08l-2.62 2.79 -1.49 -3.47c-15.71,-36.3 -28.55,-65.97 -37.84,-87.43 -4.09,-9.83 -7.4,-17.77 -9.95,-23.93 -2.2,-5.51 -3.25,-8.46 -3.04,-8.56 0.23,-0.09 1.71,2.66 4.35,7.97 2.87,6.01 6.58,13.77 11.18,23.4 9.79,21.23 23.32,50.59 39.87,86.5l-4.13 -0.67c14.33,-15.75 30.31,-33.04 48.44,-50.91 8.83,-8.92 19.17,-18.02 29.98,-26.05 10.65,-8.35 21.61,-16.95 32.85,-25.76l0.12 -0.09 0.12 -0.08c32.58,-20.89 67.44,-43.24 103.58,-66.44 94,-59.64 179.08,-113.62 241.55,-153.26 30.52,-18.99 55.49,-34.53 73.62,-45.8 8.27,-4.97 14.96,-9 20.2,-12.15 4.67,-2.73 7.16,-4.05 7.29,-3.85z"/>
  <path class="fil7" d="M589.19 1576.49c-1.57,0.88 -57.28,-95.79 -124.43,-215.87 -67.17,-120.11 -120.33,-218.17 -118.76,-219.05 1.55,-0.88 57.26,95.75 124.43,215.88 67.15,120.08 120.32,218.16 118.76,219.04z"/>
  <path class="fil7" d="M777.46 1159.62c1.8,0.09 -0.85,74.12 -5.9,165.31 -5.04,91.23 -10.59,165.08 -12.38,164.97 -1.79,-0.09 0.86,-74.11 5.9,-165.32 5.05,-91.2 10.59,-165.06 12.38,-164.96z"/>
  <path class="fil7" d="M454.58 1678.96c-0.58,1.71 -63.39,-17.99 -140.29,-43.97 -76.93,-26.01 -138.79,-48.46 -138.22,-50.16 0.57,-1.69 63.38,17.99 140.3,44 76.9,25.99 138.78,48.44 138.21,50.13z"/>
  <path class="fil11" d="M1396.46 1864.9c-115.83,-264.42 -424.11,-384.88 -688.54,-269.04 -264.43,115.83 -384.9,424.12 -269.05,688.55 83.87,191.44 268.61,307.34 464.55,312.82 24.86,56.72 52.92,120.78 52.92,120.78l419.65 -183.83c0,0 -27.16,-68.91 -52.73,-129.84 119.34,-147.07 154.44,-353.99 73.2,-539.44z"/>
  <path class="fil14" d="M1313.1 2561.59c0,0 -1.19,-1.85 -3.37,-5.58 -2.22,-3.81 -5.42,-9.34 -9.61,-16.56 -8.36,-14.6 -20.52,-36.24 -35.79,-64.33 -30.39,-56.23 -73.16,-138.35 -120.06,-242.65 -11.76,-26.04 -23.74,-53.49 -35.85,-82.24 -5.98,-14.42 -12.07,-29.12 -18.29,-44.1 -6.02,-14.95 -12.79,-30.5 -14.2,-47.72 -0.72,-8.55 0.36,-17.46 3.74,-25.64 3.35,-8.08 9.45,-15.76 18.2,-19.1 8.77,-3.46 18.71,-1.48 26.61,2.95 7.92,4.57 14.63,11.33 18.97,19.52 8.94,16.62 7.02,37.18 -0.89,54.03 -7.95,17.09 -21.89,31.3 -38.64,40.68 -16.78,9.36 -36.58,13.82 -56.23,12.19 -19.72,-1.51 -38.79,-9.66 -54.72,-21.77 -15.97,-12.16 -29.12,-28.34 -37.7,-46.95 -4.24,-9.28 -7.67,-19.2 -8.6,-29.66 -0.98,-10.25 0.11,-21.64 6.86,-30.57 3.32,-4.38 8.09,-7.69 13.31,-9.41 5.25,-1.67 10.83,-2.02 16.18,-1.18 10.78,1.48 20.63,7.33 28.14,14.9 7.64,7.59 13.47,16.68 18.49,26.02 4.99,9.41 9.39,19.06 13.42,28.97 7.99,19.78 13.98,40.75 15.81,62.48 1.83,21.58 -0.63,44.37 -10.82,64.27 -4.98,9.91 -11.48,19.1 -19.56,26.7 -8.12,7.55 -17.8,13.49 -28.43,16.72 -10.65,3.2 -22.04,3.27 -32.76,1.16 -10.79,-2.17 -20.86,-6.82 -29.93,-12.6 -18.18,-11.72 -32.97,-27.41 -46.09,-43.75 -6.6,-8.19 -12.77,-16.64 -18.68,-25.2 -5.91,-8.52 -11.91,-17.09 -16.34,-26.64 -4.41,-9.43 -7.11,-20.31 -5.1,-30.9 0.94,-5.23 2.9,-10.39 6.26,-14.7 3.33,-4.35 8.36,-7.42 13.76,-8.39 5.42,-1.08 10.97,0 15.78,2.07 4.86,2.06 9.19,4.99 13.12,8.26 7.91,6.52 14.22,14.66 19.71,22.92 22.1,32.94 35.58,72.01 32.25,110.43 -1.73,19.11 -8.31,37.51 -18.9,52.94 -10.54,15.4 -25.65,27.82 -43.22,33.28 -17.59,5.74 -36.75,3.09 -52.67,-4.36 -16.06,-7.36 -29.69,-19.55 -37.95,-34.61 -4.21,-7.48 -7.06,-15.62 -8.19,-24.08 -0.93,-8.34 -0.26,-17.28 4.43,-24.7 2.37,-3.66 5.98,-6.53 10.09,-7.97 4.14,-1.44 8.7,-1.26 12.7,0.06 8.08,2.69 14.18,8.5 19.35,14.41 10.6,12.04 16.35,26.62 23.27,39.74 6.69,13.38 13.23,26.47 19.63,39.24 50.99,102.29 90.74,185.83 117.15,244.04 13.24,29.09 23.1,51.87 29.7,67.36 3.19,7.7 5.63,13.6 7.33,17.68 1.62,4 2.37,6.08 2.37,6.08 0,0 -0.99,-1.98 -2.74,-5.94 -1.76,-4.04 -4.32,-9.88 -7.67,-17.52 -6.82,-15.38 -16.88,-38.05 -30.32,-67.05 -26.81,-58 -66.93,-141.34 -118.21,-243.45 -6.43,-12.77 -13.01,-25.82 -19.74,-39.18 -6.98,-13.21 -12.74,-27.57 -22.97,-39.09 -4.98,-5.7 -10.91,-11.17 -18.05,-13.48 -7.01,-2.56 -15.36,0.23 -19.36,6.73 -4.09,6.43 -4.82,14.8 -3.91,22.68 1.08,7.91 3.84,15.79 7.88,22.92 7.94,14.41 21.08,26.14 36.56,33.18 15.36,7.17 33.66,9.63 50.32,4.12 16.75,-5.22 31.24,-17.11 41.4,-32 10.23,-14.93 16.6,-32.81 18.26,-51.34 3.2,-37.36 -10,-75.73 -31.79,-108.11 -5.46,-8.17 -11.48,-15.9 -19.03,-22.14 -7.34,-6.03 -16.64,-11.32 -25.9,-9.53 -9.46,1.44 -15.57,10.68 -17.07,20.14 -1.83,9.65 0.6,19.63 4.83,28.71 4.23,9.14 10.13,17.58 16.03,26.07 5.89,8.51 12.02,16.87 18.54,24.97 12.98,16.18 27.58,31.59 45.19,42.91 8.79,5.61 18.44,10.06 28.67,12.09 10.2,1.99 20.92,1.92 30.93,-1.07 20.18,-6.1 36.3,-22.4 45.68,-41.5 9.82,-19.15 12.23,-41.14 10.44,-62.26 -1.77,-21.22 -7.65,-41.87 -15.52,-61.4 -8.23,-19.26 -16.68,-39.14 -31.06,-53.73 -7.15,-7.2 -16.16,-12.49 -26.05,-13.88 -9.73,-1.61 -20.21,1.36 -26.02,9.18 -5.88,7.72 -7.07,18.19 -6.12,27.94 0.87,9.91 4.14,19.46 8.25,28.49 8.3,18.05 21.09,33.8 36.57,45.6 15.46,11.78 33.84,19.64 52.82,21.11 18.94,1.59 38.05,-2.67 54.25,-11.7 16.16,-9.01 29.61,-22.72 37.24,-39.06 7.62,-16.12 9.33,-35.67 1.05,-51.02 -4.02,-7.64 -10.32,-14.01 -17.64,-18.24 -7.33,-4.09 -16.2,-5.79 -23.85,-2.79 -7.69,2.91 -13.27,9.78 -16.42,17.31 -3.17,7.64 -4.23,16.02 -3.56,24.19 1.3,16.48 7.87,31.83 13.89,46.8 6.17,14.98 12.23,29.69 18.16,44.11 12.05,28.75 23.93,56.21 35.61,82.29 46.55,104.35 88.94,186.61 118.92,243.03 15.05,28.18 27.01,49.93 35.16,64.65 4.04,7.3 7.13,12.88 9.27,16.75 2.07,3.79 3.04,5.77 3.04,5.77z"/>
  <path class="fil7" d="M944.82 2560.52c0.01,0.13 -2.19,0.33 -6.4,0.6 -4.22,0.17 -10.43,0.79 -18.45,0.74 -16.02,0.38 -39.29,-0.34 -67.77,-4 -28.47,-3.61 -62.07,-10.81 -97.95,-23.31 -35.88,-12.44 -73.83,-30.62 -110.37,-54.9 -36.37,-24.56 -67.63,-52.76 -92.78,-81.2 -25.22,-28.44 -44.66,-56.78 -58.82,-81.73 -14.21,-24.95 -23.73,-46.2 -29.48,-61.15 -3.1,-7.41 -4.87,-13.38 -6.32,-17.35 -1.36,-3.99 -2.01,-6.1 -1.89,-6.15 0.12,-0.04 1.02,1.99 2.6,5.88 1.67,3.88 3.68,9.77 6.97,17.06 6.15,14.74 16,35.73 30.43,60.35 14.38,24.66 33.93,52.66 59.11,80.77 25.12,28.12 56.2,56.01 92.28,80.38 36.25,24.09 73.87,42.22 109.42,54.76 35.57,12.58 68.9,20.01 97.17,23.95 28.27,3.97 51.42,5.09 67.4,5.17 8,0.28 14.2,-0.11 18.42,-0.04 4.21,-0.01 6.43,0.04 6.43,0.17z"/>
  <path class="fil7" d="M434.92 2131.87c1.04,-0.18 3.93,11.6 6.47,26.32 2.54,14.74 3.76,26.81 2.74,26.98 -1.03,0.18 -3.92,-11.62 -6.47,-26.33 -2.54,-14.71 -3.77,-26.79 -2.74,-26.97z"/>
  <path class="fil7" d="M1392.23 1999.35c-0.13,0.02 -0.62,-1.84 -1.44,-5.38 -0.86,-3.9 -1.98,-9.07 -3.4,-15.53 -0.72,-3.42 -1.51,-7.16 -2.36,-11.23 -0.99,-4.08 -2.38,-8.43 -3.69,-13.15 -2.82,-9.37 -5.35,-20.26 -9.94,-31.72 -2.11,-5.79 -4.32,-11.85 -6.62,-18.17 -2.34,-6.29 -5.49,-12.55 -8.36,-19.2 -5.49,-13.42 -13.12,-26.91 -20.72,-41.29 -16.35,-28.15 -36.68,-57.73 -61.45,-86.02 -25.14,-27.97 -52.09,-51.71 -78.1,-71.29 -13.37,-9.27 -25.84,-18.46 -38.51,-25.51 -6.27,-3.63 -12.11,-7.51 -18.08,-10.59 -6,-3.03 -11.75,-5.95 -17.25,-8.74 -10.83,-5.93 -21.34,-9.73 -30.31,-13.65 -4.52,-1.86 -8.68,-3.76 -12.61,-5.23 -3.94,-1.33 -7.56,-2.57 -10.87,-3.68 -6.24,-2.18 -11.23,-3.92 -15.01,-5.23 -3.42,-1.23 -5.21,-1.95 -5.17,-2.07 0.04,-0.13 1.89,0.34 5.39,1.34 3.83,1.15 8.91,2.66 15.26,4.56 3.35,1.03 7.03,2.16 11.02,3.39 3.98,1.37 8.18,3.17 12.78,4.96 9.08,3.75 19.72,7.4 30.68,13.21 5.58,2.73 11.4,5.6 17.46,8.57 6.05,3.04 11.97,6.87 18.3,10.47 12.83,6.98 25.45,16.13 38.99,25.39 26.29,19.56 53.54,43.4 78.86,71.58 24.95,28.5 45.37,58.4 61.64,86.83 7.6,14.53 15.16,28.16 20.57,41.73 2.82,6.71 5.91,13.06 8.21,19.41 2.24,6.37 4.37,12.51 6.43,18.36 4.45,11.58 6.82,22.58 9.45,32.05 1.22,4.78 2.52,9.16 3.4,13.28 0.74,4.1 1.42,7.89 2.05,11.34 1.13,6.54 2.04,11.76 2.71,15.7 0.58,3.59 0.82,5.49 0.69,5.51z"/>
  <path class="fil15" d="M590.2 2268.36c-20.04,0 -39.47,-7.93 -55.1,-20.93 -36.14,-30.04 -58.55,-97.56 -63.61,-142.16 -14.94,-131.69 14.66,-222.57 93.45,-321.74 26.77,-33.71 65.03,-57.09 107.76,-62.33 6.19,-0.77 12.32,-1.16 18.31,-1.16 22.94,0 43.78,5.77 57.36,18.85 31.95,30.75 20.54,85.34 -3.95,122.3 -24.49,36.98 -59.8,67.8 -74.02,109.8 -17.26,50.98 0.27,106.27 5.16,159.86 5.25,57.52 -14.64,128.87 -75.57,136.87 -3.27,0.43 -6.53,0.64 -9.79,0.64z"/>
  <path class="fil15" d="M884.32 1774.95c-2.96,0 -5.93,-0.2 -8.88,-0.59 -30.68,-4.12 -57.14,-29.24 -63.75,-59.48 -5.49,-25.09 2.14,-52.39 18.78,-71.96 11.87,-13.16 33.3,-21 55.27,-21 16.41,0 33.14,4.36 46.41,14.15 24.92,18.38 31.11,67.74 18.85,96.18 -11.1,25.68 -38.8,42.7 -66.68,42.7z"/>
  <path class="fil7" d="M1180 2910.14c0,0 22.06,3.63 38.03,12.28 8.32,4.49 18.3,4.64 26.94,0.84l84.42 -37.06c9.46,-4.14 16.35,-12.68 18.17,-22.86 2.15,-11.91 8.47,-27.65 19,-35.11l-186.56 81.91z"/>
  <path class="fil2" d="M985.41 2715.19c0.74,1.69 78.22,124.95 107.84,172.09 12.16,19.36 33.02,32.14 55.87,32.45 8.34,0.11 17.3,-1.3 26.34,-5.28 36.18,-15.89 184.64,-81.04 184.64,-81.04 0,0 48.25,-21.2 42.39,-64.28 -6.17,-45.35 -53.93,-213.36 -53.93,-213.36l-363.15 159.42z"/>
  <path class="fil2" d="M1406.49 2746.29l-321.16 142.34c-5.05,2.24 -10.95,-0.03 -13.19,-5.07l-0.44 -1c-2.23,-5.05 0.05,-10.96 5.09,-13.19l321.17 -142.34c5.04,-2.24 10.94,0.04 13.18,5.08l0.43 1c2.25,5.04 -0.02,10.94 -5.08,13.18z"/>
  <path class="fil7" d="M1406.49 2746.29c-0.25,-0.19 2.99,-0.91 4.94,-5.61 0.89,-2.31 0.92,-5.57 -0.96,-8.76 -1.52,-3.15 -5.63,-5.86 -10.18,-4.92 -17.56,7.43 -43.27,19.44 -74.92,33.52 -63.63,28.34 -151.17,67.33 -247.88,110.4 -2.53,1.1 -4.39,3.51 -4.83,6.23 -0.21,1.34 -0.12,2.75 0.33,4.03 0.53,1.36 1.16,2.78 2.01,3.74 1.77,2.08 4.6,3.16 7.28,2.82 2.44,-0.34 5.64,-2.25 8.53,-3.39 11.8,-5.21 23.43,-10.36 34.85,-15.41 22.86,-10.09 44.9,-19.83 65.91,-29.11 42,-18.46 79.83,-35.09 111.68,-49.09 31.67,-13.79 57.38,-24.98 75.41,-32.83 8.76,-3.74 15.65,-6.67 20.57,-8.77 2.23,-0.91 3.99,-1.64 5.38,-2.2 1.22,-0.49 1.87,-0.7 1.88,-0.65l-1.73 0.96c-1.36,0.66 -3.08,1.48 -5.26,2.52 -4.85,2.24 -11.65,5.36 -20.3,9.36 -17.93,8.07 -43.49,19.6 -74.97,33.81 -31.78,14.2 -69.51,31.06 -111.38,49.77 -20.99,9.33 -43.01,19.12 -65.83,29.27 -11.42,5.09 -23.04,10.24 -34.84,15.48l-4.43 1.95c-1.37,0.62 -3.14,1.49 -5.06,1.7 -3.8,0.48 -7.76,-1.04 -10.26,-3.96 -1.3,-1.54 -2.01,-3.16 -2.65,-4.87 -0.64,-1.79 -0.77,-3.79 -0.48,-5.68 0.6,-3.82 3.25,-7.24 6.81,-8.79 96.87,-42.73 184.56,-81.39 248.29,-109.5 31.9,-13.84 57.33,-25.36 75.64,-32.62 5.24,-0.96 9.77,2.24 11.34,5.78 1.87,3.38 1.77,7.07 0.7,9.46 -2.34,4.92 -5.76,5.36 -5.59,5.36z"/>
  <path class="fil2" d="M1395.07 2701.76l-334.77 148.37c-5.05,2.24 -10.96,-0.04 -13.19,-5.1l-0.44 -0.99c-2.24,-5.05 0.04,-10.95 5.09,-13.19l334.77 -148.38c5.04,-2.22 10.94,0.06 13.18,5.11l0.45 0.99c2.23,5.05 -0.04,10.94 -5.09,13.19z"/>
  <path class="fil7" d="M1395.07 2701.76c-0.27,-0.2 3.15,-0.96 5.04,-5.9 0.89,-2.45 0.65,-5.78 -1.35,-9.05 -1.8,-3.17 -6.36,-5.61 -10.95,-4.09 -18.6,8.37 -45.14,20.29 -77.85,35.01 -66.09,29.44 -157.04,69.93 -257.5,114.67 -2.63,1.16 -4.55,3.72 -4.87,6.56 -0.2,1.41 0.02,2.85 0.54,4.16 0.65,1.62 1.24,2.71 2.28,3.75 1.99,2.02 5.05,2.87 7.77,2.19 2.62,-0.85 6.02,-2.59 8.99,-3.83 12.26,-5.43 24.34,-10.76 36.2,-16.02 23.74,-10.48 46.64,-20.59 68.47,-30.22 43.62,-19.19 82.92,-36.48 116,-51.03 32.91,-14.34 59.62,-25.96 78.32,-34.12 9.11,-3.89 16.27,-6.94 21.38,-9.12 2.3,-0.95 4.14,-1.71 5.58,-2.29 1.26,-0.5 1.93,-0.72 1.95,-0.67 0.03,0.05 -0.59,0.38 -1.81,0.99 -1.4,0.67 -3.2,1.52 -5.45,2.6 -5.03,2.32 -12.11,5.55 -21.12,9.7 -18.6,8.4 -45.15,20.37 -77.88,35.11 -33,14.75 -72.19,32.26 -115.7,51.68 -21.8,9.7 -44.67,19.88 -68.39,30.43 -11.86,5.25 -23.93,10.61 -36.17,16.05 -3.23,1.34 -5.79,2.8 -9.58,4.04 -3.86,0.96 -8.15,-0.24 -10.96,-3.07 -1.42,-1.35 -2.44,-3.33 -3.03,-4.88 -0.74,-1.84 -1.04,-3.89 -0.77,-5.88 0.45,-3.98 3.17,-7.63 6.87,-9.24 100.62,-44.38 191.71,-84.56 257.91,-113.76 33.08,-14.46 59.7,-26.17 78.41,-34.08 5.3,-1.61 10.35,1.29 12.22,4.85 2.04,3.46 2.22,7.26 1.13,9.79 -2.27,5.21 -5.88,5.67 -5.68,5.67z"/>
  <path class="fil2" d="M1381.18 2658.3l-343.45 152.24c-5.05,2.22 -10.94,-0.05 -13.19,-5.09l-0.44 -1.01c-2.24,-5.05 0.04,-10.94 5.09,-13.19l343.44 -152.21c5.05,-2.24 10.96,0.04 13.19,5.08l0.44 1c2.25,5.04 -0.03,10.94 -5.08,13.18z"/>
  <path class="fil7" d="M1381.18 2658.3c-0.29,-0.19 3.25,-0.95 5.08,-6.06 0.9,-2.52 0.53,-5.94 -1.62,-9.22 -1.95,-3.16 -6.8,-5.43 -11.38,-3.51 -19.04,8.57 -46.23,20.81 -79.73,35.9 -67.65,30.13 -160.78,71.59 -263.64,117.39 -2.68,1.19 -4.63,3.84 -4.9,6.76 -0.15,1.44 0.11,2.9 0.69,4.25 0.7,1.65 1.33,2.73 2.45,3.73 2.14,1.97 5.33,2.63 8.06,1.76 2.87,-1.17 6.23,-2.73 9.3,-4.07 12.56,-5.55 24.91,-11.03 37.06,-16.4 24.31,-10.72 47.75,-21.09 70.1,-30.95 44.66,-19.64 84.89,-37.34 118.76,-52.23 33.69,-14.69 61.04,-26.61 80.17,-34.95 9.35,-3.99 16.67,-7.13 21.88,-9.34 2.37,-0.98 4.27,-1.76 5.71,-2.36 1.32,-0.51 1.98,-0.75 2.01,-0.7 0.03,0.06 -0.6,0.41 -1.85,1.02 -1.43,0.68 -3.28,1.56 -5.59,2.66 -5.14,2.37 -12.38,5.7 -21.62,9.93 -19.03,8.57 -46.22,20.83 -79.74,35.94 -33.79,15.09 -73.91,33.01 -118.47,52.9 -22.31,9.93 -45.73,20.33 -70,31.14 -12.14,5.39 -24.5,10.87 -37.05,16.44 -3.22,1.39 -6.09,2.78 -9.63,4.2 -3.86,1.26 -8.35,0.31 -11.36,-2.46 -1.53,-1.27 -2.67,-3.32 -3.3,-4.89 -0.81,-1.83 -1.18,-3.93 -0.97,-5.97 0.37,-4.09 3.13,-7.87 6.92,-9.51 103.01,-45.45 196.28,-86.59 264.03,-116.49 33.71,-14.68 61.07,-26.6 80.22,-34.93 5.29,-2.09 10.66,0.64 12.72,4.2 2.18,3.48 2.51,7.37 1.43,9.97 -2.21,5.38 -5.96,5.85 -5.74,5.85z"/>
  <path class="fil2" d="M1369.91 2613.69l-357.37 158.4c-5.05,2.23 -10.95,-0.04 -13.19,-5.09l-0.44 -0.99c-2.24,-5.05 0.04,-10.96 5.08,-13.19l357.38 -158.4c5.05,-2.23 10.95,0.05 13.19,5.09l0.45 1c2.23,5.05 -0.04,10.95 -5.1,13.18z"/>
  <path class="fil7" d="M1369.91 2613.69c-0.32,-0.2 3.42,-0.99 5.19,-6.35 0.86,-2.62 0.23,-6.21 -2.09,-9.46 -2.28,-3.15 -7.47,-5.06 -12.09,-2.53 -19.74,8.89 -47.95,21.6 -82.74,37.27 -70.16,31.23 -166.77,74.23 -273.48,121.75 -2.8,1.22 -4.76,4.05 -4.92,7.08 -0.17,2.89 1.4,6.32 3.66,8.08 2.39,1.85 5.74,2.22 8.48,0.97 3.28,-1.45 6.54,-2.89 9.8,-4.33 13.02,-5.77 25.84,-11.43 38.44,-17.02 25.22,-11.14 49.54,-21.87 72.72,-32.11 46.32,-20.38 88.06,-38.75 123.18,-54.2 34.97,-15.26 63.33,-27.62 83.18,-36.27 9.68,-4.15 17.29,-7.4 22.67,-9.7 2.47,-1.02 4.43,-1.83 5.94,-2.45 1.34,-0.52 2.04,-0.79 2.06,-0.73 0.02,0.06 -0.62,0.42 -1.93,1.05 -1.46,0.7 -3.37,1.61 -5.79,2.75 -5.32,2.45 -12.85,5.9 -22.42,10.29 -19.74,8.89 -47.95,21.6 -82.73,37.26 -35.04,15.64 -76.68,34.24 -122.89,54.87 -23.15,10.29 -47.45,21.09 -72.63,32.3 -12.6,5.59 -25.42,11.28 -38.43,17.05 -3.25,1.44 -6.51,2.89 -9.79,4.35 -3.8,1.74 -8.59,1.23 -11.93,-1.37 -1.66,-1.28 -3.02,-3.12 -3.75,-4.95 -0.84,-1.7 -1.41,-3.97 -1.24,-6.05 0.22,-4.26 3,-8.27 6.94,-9.99 106.87,-47.15 203.62,-89.84 273.88,-120.84 34.97,-15.24 63.33,-27.61 83.18,-36.26 5.15,-2.69 11.07,-0.44 13.44,3.13 2.42,3.52 2.97,7.5 1.93,10.26 -0.91,2.81 -2.66,4.38 -3.85,5.19 -1.23,0.81 -1.99,0.96 -1.99,0.96z"/>
  <path class="fil11" d="M888.89 2621.76c1.51,3.42 44.57,80.85 66.69,120.58 8.12,14.58 22.47,24.62 38.95,27.3l24.19 3.92 357.01 -156.73 13.29 -20.17c9.3,-14.1 11.54,-31.71 6.08,-47.7l-44.4 -129.93 -461.81 202.73z"/>
  <path class="fil16" d="M1109.15 2879.93c6,-2.68 11.96,-5.33 17.87,-7.95 22.82,-10.15 44.84,-19.94 65.83,-29.27 41.87,-18.71 79.6,-35.57 111.38,-49.77 31.48,-14.21 57.04,-25.74 74.97,-33.81 6.11,-2.82 11.28,-5.21 15.52,-7.16 -2.94,4.05 -13.88,11.97 -24.8,17.34 -23.71,11.65 -45.48,22.66 -69.5,33.81 -32.79,15.2 -63.04,27.48 -93.45,41 -33.58,14.91 -64.69,27.97 -97.82,35.81z"/>
  <path class="fil10" d="M1096.92 2882.56l298.43 -131.68c-0.13,0.33 -0.34,0.68 -0.63,1.09 -4.24,1.95 -9.41,4.34 -15.52,7.16 -17.93,8.07 -43.49,19.6 -74.97,33.81 -31.78,14.2 -69.51,31.06 -111.38,49.77 -20.99,9.33 -43.01,19.12 -65.83,29.27 -5.91,2.62 -11.87,5.27 -17.87,7.95 -4.04,0.95 -8.12,1.83 -12.23,2.63z"/>
  <path class="fil16" d="M1080.21 2843.15c8.26,-3.68 16.44,-7.31 24.51,-10.88 23.72,-10.55 46.59,-20.73 68.39,-30.43 43.51,-19.42 82.7,-36.93 115.7,-51.68 32.73,-14.74 59.28,-26.71 77.88,-35.11 8.43,-3.87 15.17,-6.96 20.12,-9.24 -3.38,4.22 -15.13,12.45 -26.8,18.14 -25.61,12.48 -49.13,24.26 -75.03,36.23 -35.36,16.34 -67.95,29.65 -100.75,44.19 -35.78,15.89 -68.94,29.86 -104.02,38.78z"/>
  <path class="fil16" d="M1378.86 2708.43l8.76 -3.87c-0.02,0.05 -0.04,0.11 -0.07,0.16 -0.01,0 -0.01,0 -0.01,0 -2.44,1.04 -5.34,2.28 -8.68,3.71z"/>
  <path class="fil10" d="M1065.89 2846.47l312.97 -138.04c3.34,-1.43 6.24,-2.67 8.68,-3.71 0,0 0,0 0.01,0 -0.17,0.31 -0.41,0.68 -0.74,1.09 -4.95,2.28 -11.69,5.37 -20.12,9.24 -18.6,8.4 -45.15,20.37 -77.88,35.11 -33,14.75 -72.19,32.26 -115.7,51.68 -21.8,9.7 -44.67,19.88 -68.39,30.43 -8.07,3.57 -16.25,7.2 -24.51,10.88 -4.73,1.2 -9.51,2.31 -14.32,3.32z"/>
  <path class="fil16" d="M1060.26 2802.38c7.96,-3.54 15.85,-7.02 23.65,-10.49 24.27,-10.81 47.69,-21.21 70,-31.14 44.56,-19.89 84.68,-37.81 118.47,-52.9 33.52,-15.11 60.71,-27.37 79.74,-35.94 6.71,-3.08 12.37,-5.68 16.93,-7.77 -2.84,4.06 -15.04,12.67 -27.14,18.57 -25.6,12.48 -49.12,24.26 -75.03,36.23 -35.36,16.35 -67.95,29.65 -100.75,44.21 -36.41,16.16 -70.11,30.35 -105.87,39.23z"/>
  <path class="fil10" d="M1047.79 2805.24l321.74 -141.9c-0.11,0.23 -0.26,0.5 -0.48,0.8 -4.56,2.09 -10.22,4.69 -16.93,7.77 -19.03,8.57 -46.22,20.83 -79.74,35.94 -33.79,15.09 -73.91,33.01 -118.47,52.9 -22.31,9.93 -45.73,20.33 -70,31.14 -7.8,3.47 -15.69,6.95 -23.65,10.49 -4.12,1.03 -8.28,1.98 -12.47,2.86z"/>
  <path class="fil16" d="M1054.42 2757.88l283.69 -124.53c-4.35,2.83 -9.34,5.71 -14.3,8.14 -25.6,12.48 -49.11,24.26 -75.03,36.23 -35.36,16.34 -67.94,29.63 -100.75,44.19 -32.22,14.32 -62.32,27.07 -93.61,35.97z"/>
  <path class="fil13" d="M1018.72 2773.56l-3.88 -0.63 -15.32 -2.48 -4.99 -0.81c-16.48,-2.68 -30.83,-12.72 -38.95,-27.3 -22.12,-39.73 -65.18,-117.16 -66.69,-120.58l461.81 -202.73 44.4 129.93c1.96,5.75 2.93,11.71 2.93,17.63 0,10.57 -3.05,21.04 -9.01,30.07l-13.29 20.17 -37.62 16.52c7,-4.56 12.34,-9 13.31,-11.25l-321.73 141.9c8.36,-1.74 16.59,-3.8 24.73,-6.12l-33.26 14.61 -2.44 1.07z"/>
  <path class="fil17" d="M1029.69 2764l321.73 -141.9c-0.97,2.25 -6.31,6.69 -13.31,11.25l-283.69 124.53c-8.14,2.32 -16.37,4.38 -24.73,6.12z"/>
  <path class="fil7" d="M1393.91 2569.99c0.38,0.86 -94.8,43.49 -212.57,95.18 -117.81,51.72 -213.59,92.94 -213.97,92.08 -0.38,-0.86 94.79,-43.47 212.6,-95.2 117.77,-51.69 213.57,-92.91 213.94,-92.06z"/>
  <path class="fil7" d="M1347.15 2417.78c0.45,0.94 -102.73,47.64 -230.43,104.3 -127.74,56.68 -231.63,101.85 -232.08,100.9 -0.45,-0.93 102.7,-47.62 230.45,-104.31 127.69,-56.65 231.6,-101.83 232.06,-100.89z"/>
  <path class="fil14" d="M5543.72 1541.14l-163.75 -19.11c-65.98,67 -150.71,117.18 -248.71,141.27 -281.89,69.27 -566.55,-103.08 -635.83,-384.96 -69.28,-281.88 103.08,-566.54 384.95,-635.82 281.89,-69.27 566.56,103.07 635.83,384.95 28.93,117.71 15.6,235.83 -30.12,338.63l0.19 -0.23 57.44 175.27z"/>
  <polygon class="fil18" points="4763.73,1165.08 4826.63,1095.51 4960.05,1202.62 5158.25,975.02 5223.09,1038.13 4957.04,1330.82 "/>
  <path class="fil1" d="M4101.4 1586.61c23.77,-2.98 58.63,-7.33 103.88,-12.97l1.11 0.4c40.52,40.83 103,87.56 189.39,113.55 21.41,6.91 44.59,10.25 68.3,14.98 12.05,1.06 24.31,2.15 36.77,3.24 6.23,0.78 12.53,0.8 18.89,0.6 6.36,-0.08 12.77,-0.16 19.23,-0.24 51.56,-1.6 106.26,-12.31 159.45,-34.64 13.64,-5.71 27.18,-12.23 40.53,-19.46 -4.08,-1.58 -8.18,-3.06 -12.26,-4.76 -61.52,-25.55 -121.27,-64.59 -172.2,-116.7 -50.74,-52.03 -93.28,-116.94 -118.38,-191 -25.35,-73.79 -34.72,-155.73 -24.22,-237.47 9.58,-81.96 42.24,-162.43 91.28,-232.66 5.53,-8.95 12.37,-16.9 19.01,-24.96l19.92 -24.1 8.56 -8.6c-4.92,-0.24 -9.83,-0.57 -14.72,-0.62 -66.1,-1.37 -130.22,12.14 -186.92,36.63 -56.81,24.43 -106.2,59.66 -145.59,100.58 -39.52,40.92 -68.94,87.43 -89,134.36 -10.81,23.27 -17.09,47.36 -23.96,70.35 -5.77,23.32 -9.32,46.32 -11.2,68.58 -7.7,89.53 12.93,165.15 36.46,219l-0.38 1.65c-16.16,48.05 -28.59,85.05 -37.05,110.27 -4.27,12.56 -7.52,22.13 -9.77,28.81 -2.23,6.49 -3.49,9.92 -3.49,9.92 0,0 3.25,-0.51 9.35,-1.3 6.29,-0.79 15.26,-1.95 27.01,-3.44z"/>
 </g>
</svg>
