<?xml version="1.0" encoding="UTF-8"?>
<!DOCTYPE svg PUBLIC "-//W3C//DTD SVG 1.1//EN" "http://www.w3.org/Graphics/SVG/1.1/DTD/svg11.dtd">
<!-- Creator: CorelDRAW 2018 (64 Bit Versão de avaliação) -->
<svg xmlns="http://www.w3.org/2000/svg" xml:space="preserve" width="200.639mm" height="29.1511mm" version="1.1" style="shape-rendering:geometricPrecision; text-rendering:geometricPrecision; image-rendering:optimizeQuality; fill-rule:evenodd; clip-rule:evenodd"
viewBox="0 0 20063.94 2915.11"
 xmlns:xlink="http://www.w3.org/1999/xlink">
 <defs>
  <style type="text/css">
   <![CDATA[
    .fil1 {fill:#999999}
    .fil0 {fill:#DBDB00}
   ]]>
  </style>
 </defs>
 <g id="Camada_x0020_1">
  <metadata id="CorelCorpID_0Corel-Layer"/>
  <g id="_2819847360208">
   <polygon class="fil0" points="1532.56,0 1892.72,1115.73 3065.13,1113.47 2115.3,1800.78 2479.74,2915.11 1532.56,2224.16 585.39,2915.11 949.83,1800.78 -0,1113.47 1172.41,1115.73 "/>
   <polygon class="fil0" points="5782.27,0 6142.42,1115.73 7314.83,1113.47 6365.01,1800.78 6729.45,2915.11 5782.27,2224.16 4835.09,2915.11 5199.53,1800.78 4249.7,1113.47 5422.11,1115.73 "/>
   <polygon class="fil0" points="10031.97,0 10392.12,1115.73 11564.54,1113.47 10614.71,1800.78 10979.15,2915.11 10031.97,2224.16 9084.79,2915.11 9449.23,1800.78 8499.41,1113.47 9671.82,1115.73 "/>
   <polygon class="fil0" points="14281.67,0 14641.83,1115.73 15814.24,1113.47 14864.41,1800.78 15228.85,2915.11 14281.67,2224.16 13334.5,2915.11 13698.93,1800.78 12749.11,1113.47 13921.52,1115.73 "/>
   <polygon class="fil0" points="18531.38,0 18531.38,2224.16 19478.55,2915.11 19114.11,1800.78 20063.94,1113.47 18891.53,1115.73 18531.38,0 18171.22,1115.73 16998.81,1113.47 17948.64,1800.78 17584.2,2915.11 18531.38,2224.16 "/>
  </g>
  <polygon class="fil1" points="19015.11,2577.03 19478.55,2915.11 19114.11,1800.78 20063.94,1113.47 19015.11,1115.49 "/>
 </g>
</svg>
