<?xml version="1.0" encoding="UTF-8"?>
<!DOCTYPE svg PUBLIC "-//W3C//DTD SVG 1.1//EN" "http://www.w3.org/Graphics/SVG/1.1/DTD/svg11.dtd">
<!-- Creator: CorelDRAW 2018 (64 Bit Versão de avaliação) -->
<svg xmlns="http://www.w3.org/2000/svg" xml:space="preserve" width="100mm" height="84.84mm" version="1.1" style="shape-rendering:geometricPrecision; text-rendering:geometricPrecision; image-rendering:optimizeQuality; fill-rule:evenodd; clip-rule:evenodd"
viewBox="0 0 10000 8484"
 xmlns:xlink="http://www.w3.org/1999/xlink">
 <defs>
  <style type="text/css">
   <![CDATA[
    .str12 {stroke:#A1AFCA;stroke-width:18.41;stroke-miterlimit:10}
    .str1 {stroke:#6C7C9F;stroke-width:18.41;stroke-miterlimit:10}
    .str0 {stroke:#94A3BB;stroke-width:36.83;stroke-miterlimit:10}
    .str3 {stroke:#F8A36E;stroke-width:18.41;stroke-linecap:round;stroke-linejoin:round;stroke-miterlimit:10}
    .str8 {stroke:#F8A36E;stroke-width:18.41;stroke-linecap:round;stroke-linejoin:round;stroke-miterlimit:4}
    .str6 {stroke:#EEECEE;stroke-width:18.41;stroke-linecap:round;stroke-linejoin:round;stroke-miterlimit:10}
    .str7 {stroke:#A2546A;stroke-width:18.41;stroke-linecap:round;stroke-linejoin:round;stroke-miterlimit:10}
    .str11 {stroke:#342F42;stroke-width:18.41;stroke-linecap:round;stroke-linejoin:round;stroke-miterlimit:10}
    .str10 {stroke:#43436D;stroke-width:18.41;stroke-linecap:round;stroke-linejoin:round;stroke-miterlimit:10}
    .str13 {stroke:#3E3A62;stroke-width:18.41;stroke-linecap:round;stroke-linejoin:round;stroke-miterlimit:10}
    .str4 {stroke:#F8A36E;stroke-width:18.41;stroke-linecap:round;stroke-linejoin:round;stroke-miterlimit:10}
    .str2 {stroke:#FEFEFE;stroke-width:55.24;stroke-linecap:round;stroke-linejoin:round;stroke-miterlimit:10}
    .str5 {stroke:#F8A36E;stroke-width:18.41;stroke-linecap:round;stroke-linejoin:round;stroke-miterlimit:10;stroke-dasharray:143.990000 110.110000}
    .str9 {stroke:#F8A36E;stroke-width:18.41;stroke-linecap:round;stroke-linejoin:round;stroke-miterlimit:4;stroke-dasharray:143.990000 110.110000}
    .fil18 {fill:none}
    .fil3 {fill:none;fill-rule:nonzero}
    .fil0 {fill:white}
    .fil14 {fill:#FFCF79;fill-rule:nonzero}
    .fil9 {fill:#F6904F;fill-rule:nonzero}
    .fil1 {fill:#EF5A8B;fill-rule:nonzero}
    .fil12 {fill:#F9C26B;fill-rule:nonzero}
    .fil2 {fill:#EEECEE;fill-rule:nonzero}
    .fil5 {fill:#D7D7E1;fill-rule:nonzero}
    .fil8 {fill:#C2697A;fill-rule:nonzero}
    .fil17 {fill:#B2506A;fill-rule:nonzero}
    .fil11 {fill:#A1B0CB;fill-rule:nonzero}
    .fil4 {fill:#A1AFCA;fill-rule:nonzero}
    .fil15 {fill:#A2546A;fill-rule:nonzero}
    .fil7 {fill:#94A3BB;fill-rule:nonzero}
    .fil6 {fill:#6C7C9F;fill-rule:nonzero}
    .fil13 {fill:#342F42;fill-rule:nonzero}
    .fil10 {fill:#43436D;fill-rule:nonzero}
    .fil16 {fill:#3E3A62;fill-rule:nonzero}
   ]]>
  </style>
   <clipPath id="id0">
    <path d="M-0 0.23l10000 0 0 8483.59 -10000 0 0 -8483.59z"/>
   </clipPath>
 </defs>
 <g id="Camada_x0020_1">
  <metadata id="CorelCorpID_0Corel-Layer"/>
  <polygon class="fil0" points="-0,0.23 10000,0.23 10000,8483.82 -0,8483.82 "/>
  <g style="clip-path:url(#id0)">
   <g id="_1975416949952">
    <path id="1" class="fil1" d="M8979.91 1095.76c0,385.89 -312.83,698.73 -698.72,698.73 -385.91,0 -698.74,-312.84 -698.74,-698.73 0,-385.91 312.83,-698.74 698.74,-698.74 385.89,0 698.72,312.83 698.72,698.74z"/>
    <path class="fil2" d="M8851.02 1095.76c0,314.7 -255.12,569.84 -569.83,569.84 -314.73,0 -569.85,-255.14 -569.85,-569.84 0,-314.73 255.12,-569.86 569.85,-569.86 314.71,0 569.83,255.13 569.83,569.86z"/>
    <polyline class="fil3 str0" points="8508.27,689.74 8281.19,1095.76 8606.46,986.35 "/>
    <line class="fil3 str1" x1="8281.19" y1="582.06" x2="8281.19" y2= "680.26" />
    <line class="fil3 str1" x1="8281.19" y1="1511.25" x2="8281.19" y2= "1609.45" />
    <line class="fil3 str1" x1="8794.88" y1="1095.76" x2="8696.69" y2= "1095.76" />
    <line class="fil3 str1" x1="7865.69" y1="1095.76" x2="7767.48" y2= "1095.76" />
    <path class="fil4" d="M3241.94 1327.34c-158.75,0 -287.45,-128.7 -287.45,-287.45 0,-158.76 128.7,-287.46 287.45,-287.46 158.76,0 287.46,128.7 287.46,287.46 0,158.75 -128.7,287.45 -287.46,287.45zm545.09 -216.29c3.02,-23.31 4.73,-47.02 4.73,-71.16 0,-24.14 -1.71,-47.86 -4.73,-71.19l-120.66 -15.64c-6.55,-32.23 -17.03,-62.94 -30.3,-92.14l88.84 -83.98c-22.91,-41.98 -51.22,-80.56 -83.85,-115.01l-107.29 58.52c-23.83,-21.77 -49.92,-40.99 -78.15,-57.06l22.49 -120.11c-42.41,-20.2 -87.85,-35.02 -135.39,-43.84l-52.29 110.17c-15.93,-1.77 -32.08,-2.88 -48.49,-2.88 -16.4,0 -32.53,1.11 -48.47,2.88l-52.29 -110.17c-47.55,8.82 -92.99,23.64 -135.39,43.84l22.48 120.11c-28.23,16.07 -54.32,35.29 -78.14,57.06l-107.3 -58.52c-32.62,34.45 -60.94,73.03 -83.84,115.01l88.83 83.98c-13.27,29.2 -23.74,59.91 -30.3,92.14l-120.66 15.64c-3,23.33 -4.73,47.05 -4.73,71.19 0,24.14 1.73,47.85 4.73,71.16l120.66 15.65c6.56,32.23 17.03,62.96 30.3,92.16l-88.83 83.98c22.9,41.98 51.22,80.55 83.84,115l107.3 -58.51c23.82,21.76 49.91,40.98 78.16,57.06l-22.5 120.1c42.4,20.2 87.83,35.02 135.39,43.84l52.29 -110.18c15.94,1.79 32.07,2.89 48.47,2.89 16.41,0 32.56,-1.1 48.49,-2.89l52.29 110.18c47.54,-8.82 92.98,-23.64 135.39,-43.84l-22.49 -120.1c28.23,-16.08 54.32,-35.3 78.15,-57.06l107.29 58.51c32.63,-34.45 60.94,-73.02 83.85,-115l-88.84 -83.98c13.27,-29.2 23.75,-59.93 30.3,-92.16l120.66 -15.65z"/>
    <path class="fil5" d="M4094.63 945.85c-84.81,22.02 -171.44,-28.85 -193.48,-113.67 -22.04,-84.81 28.86,-171.43 113.66,-193.47 84.83,-22.03 171.44,28.86 193.48,113.66 22.04,84.81 -28.85,171.45 -113.66,193.48zm261.17 -191.21c-1.63,-12.87 -4,-25.78 -7.35,-38.69 -3.35,-12.88 -7.57,-25.31 -12.41,-37.35l-66.64 8.39c-7.97,-16.31 -17.82,-31.26 -28.98,-45.01l35.81 -57.21c-18.06,-19.25 -38.55,-35.93 -60.75,-49.79l-49.21 46.14c-15.74,-8.32 -32.35,-14.97 -49.65,-19.63l-4.66 -67.28c-25.46,-4.92 -51.8,-6.51 -78.42,-4.64l-12.65 66.12c-8.75,1.26 -17.53,2.91 -26.3,5.19 -8.76,2.29 -17.23,5.11 -25.5,8.27l-43.23 -51.59c-24.17,11.31 -46.38,25.54 -66.23,42.22l28.69 61.02c-12.85,12.5 -24.14,26.4 -33.82,41.34l-65.44 -16.35c-12.67,22.92 -22.43,47.44 -28.84,73.06l59.1 32.53c-3.03,17.44 -4.36,35.32 -3.38,53.43l-62.29 25.12c1.62,12.87 3.99,25.78 7.34,38.68 3.36,12.89 7.57,25.32 12.42,37.36l66.63 -8.4c7.98,16.32 17.82,31.27 28.98,45.03l-35.81 57.21c18.06,19.23 38.56,35.91 60.76,49.78l49.2 -46.16c15.75,8.32 32.35,14.99 49.68,19.65l4.64 67.28c25.46,4.91 51.79,6.51 78.42,4.64l12.65 -66.12c8.76,-1.27 17.52,-2.91 26.29,-5.2 8.77,-2.28 17.23,-5.1 25.5,-8.26l43.23 51.59c24.18,-11.31 46.38,-25.54 66.25,-42.22l-28.7 -61.04c12.85,-12.5 24.14,-26.38 33.84,-41.34l65.43 16.38c12.66,-22.93 22.42,-47.47 28.82,-73.07l-59.1 -32.55c3.03,-17.42 4.36,-35.29 3.38,-53.42l62.3 -25.11z"/>
    <path class="fil1" d="M3960.7 1388.11c-49.7,12.9 -100.44,-16.91 -113.35,-66.6 -12.9,-49.68 16.9,-100.43 66.6,-113.35 49.68,-12.91 100.42,16.9 113.35,66.6 12.91,49.69 -16.91,100.44 -66.6,113.35zm153.01 -112.03c-0.96,-7.54 -2.34,-15.11 -4.31,-22.66 -1.95,-7.55 -4.42,-14.84 -7.27,-21.89l-39.04 4.91c-4.67,-9.55 -10.44,-18.32 -16.98,-26.36l20.98 -33.52c-10.57,-11.28 -22.58,-21.04 -35.6,-29.18l-28.81 27.05c-9.22,-4.88 -18.97,-8.77 -29.11,-11.51l-2.72 -39.42c-14.92,-2.87 -30.35,-3.81 -45.94,-2.71l-7.4 38.74c-5.15,0.74 -10.28,1.7 -15.42,3.04 -5.13,1.33 -10.09,2.98 -14.93,4.84l-25.33 -30.23c-14.16,6.63 -27.18,14.97 -38.8,24.75l16.79 35.75c-7.53,7.31 -14.12,15.47 -19.81,24.22l-38.34 -9.6c-7.42,13.44 -13.14,27.81 -16.88,42.81l34.63 19.06c-1.78,10.22 -2.55,20.69 -2.01,31.3l-36.47 14.71c0.94,7.55 2.34,15.12 4.29,22.67 1.97,7.55 4.44,14.84 7.27,21.89l39.04 -4.92c4.67,9.56 10.46,18.32 16.98,26.37l-20.98 33.51c10.59,11.29 22.59,21.05 35.61,29.18l28.82 -27.04c9.22,4.88 18.94,8.78 29.09,11.51l2.72 39.42c14.92,2.87 30.35,3.81 45.94,2.7l7.43 -38.72c5.12,-0.75 10.27,-1.71 15.39,-3.05 5.13,-1.33 10.11,-2.99 14.95,-4.85l25.31 30.24c14.19,-6.63 27.18,-14.95 38.82,-24.73l-16.81 -35.76c7.53,-7.33 14.14,-15.47 19.81,-24.23l38.35 9.59c7.4,-13.42 13.13,-27.8 16.89,-42.81l-34.63 -19.05c1.78,-10.22 2.55,-20.68 1.99,-31.3l36.49 -14.72z"/>
    <path class="fil6" d="M1410.12 7329.69c0,0 -255.31,-1045.85 -62.7,-1133.46 192.62,-87.59 225.32,581.08 167.17,1115.3l-104.47 18.16z"/>
    <path class="fil6" d="M1627.26 7311.53c0,0 65.82,-1035.72 278.21,-1039.37 212.39,-3.63 -21.8,635.97 -162.73,1039.37l-115.48 0z"/>
    <path class="fil6" d="M1311.08 7296.99c0,0 -145.37,-816.89 -323.43,-802.75 -178.08,14.16 220.47,817.29 220.47,817.29l102.96 -14.54z"/>
    <path class="fil6" d="M1794.43 7311.53c0,0 262.87,-723.19 434.88,-683.21 172.01,39.97 -190.69,546.87 -307.34,675l-127.54 8.21z"/>
    <path class="fil7" d="M1147.56 7329.69c0,0 -426.34,-410.66 -271.33,-556.01 155.03,-145.36 333.1,392.49 344,534.21l-72.67 21.8z"/>
    <path class="fil7" d="M1278.38 7296.99c0,0 -254.39,-694.12 -79.95,-792.24 174.44,-98.12 228.94,516.05 207.14,792.24l-127.19 0z"/>
    <path class="fil7" d="M1514.59 7311.53c0,0 -112.64,-923.07 112.67,-970.32 225.31,-47.23 138.09,566.92 0,970.32l-112.67 0z"/>
    <path class="fil7" d="M1714.46 7311.53c0,0 149.01,-661.41 319.81,-643.24 170.81,18.17 -43.6,407.01 -239.84,643.24l-79.97 0z"/>
    <path class="fil7" d="M1905.47 7296.99c0,0 168.77,-399.76 292.34,-377.96 123.55,21.82 -109.02,323.44 -207.14,410.66l-85.2 -32.7z"/>
    <path class="fil5" d="M2085.14 8484.4l-1148.37 0c-18.5,0 -34.04,-13.9 -36.11,-32.3l-134.46 -1201.96c-1.16,-10.27 2.13,-20.56 9.02,-28.27 6.91,-7.7 16.76,-12.1 27.08,-12.1l1424.58 0c10.37,0 20.26,4.43 27.16,12.19 6.89,7.77 10.14,18.1 8.93,28.41l-141.74 1201.95c-2.15,18.3 -17.65,32.08 -36.09,32.08z"/>
    <path class="fil4" d="M876.23 8233.74l24.43 218.36c2.07,18.4 17.61,32.3 36.11,32.3l1148.37 0c18.44,0 33.94,-13.78 36.09,-32.08l108.08 -916.49 -1353.08 697.91z"/>
    <line class="fil3 str2" x1="876.23" y1="7398.74" x2="965.85" y2= "8339.97" />
    <path class="fil8" d="M2124.94 3915.84c0,0 156.96,-627.17 160.04,-696.15 3.07,-68.97 -87.62,-205.15 -140.51,-362.61 -52.88,-157.46 -86.31,-318.13 -125.59,-325.54 -39.27,-7.4 -35.81,121.79 -35.81,121.79 0,0 -45.3,-15.85 -68.29,33.8 -22.98,49.66 5.26,348.24 -17.77,399 -23.04,50.74 -111.32,741.01 -70.39,778.17 40.93,37.18 97.07,121.71 97.07,121.71l30.64 450 365.52 -34.1 -194.91 -486.07z"/>
    <path class="fil9" d="M1580.87 4187.49c-10.8,25.07 -39.85,36.63 -64.91,25.84l-1496.86 -644.51c-25.05,-10.8 -36.61,-39.85 -25.82,-64.91l815.38 -1893.71c10.79,-25.04 39.85,-36.6 64.91,-25.83l1496.86 644.53c25.05,10.79 36.61,39.83 25.83,64.88l-815.39 1893.71z"/>
    <polygon class="fil2" points="1508.58,3932.32 228.34,3381.06 932.08,1746.64 2212.32,2297.89 "/>
    <path class="fil10" d="M1705.15 1713.5c16.46,7.08 24.04,26.16 16.96,42.6 -7.08,16.46 -26.17,24.07 -42.61,16.97 -16.44,-7.08 -24.04,-26.15 -16.96,-42.62 7.09,-16.44 26.17,-24.03 42.61,-16.95zm314.85 256.96l-309.71 -133.34c30.05,-5.79 56.78,-25.86 69.78,-56.05 20.86,-48.47 -1.51,-104.66 -49.95,-125.52 -48.46,-20.88 -104.68,1.49 -125.54,49.96 -13,30.21 -9.21,63.41 7.24,89.2l-309.7 -133.34c-25.06,-10.79 -52.74,-2.43 -61.83,18.69l-71.79 166.76c-9.1,21.12 3.85,46.99 28.89,57.76l717.88 309.11c25.05,10.79 52.72,2.41 61.82,-18.71l71.8 -166.76c9.1,-21.12 -3.84,-46.97 -28.89,-57.76z"/>
    <path class="fil11" d="M1051.98 2161.01c-15.98,37.14 -59.03,54.28 -96.15,38.28 -37.14,-15.98 -54.28,-59.03 -38.28,-96.17 15.99,-37.12 59.03,-54.26 96.17,-38.28 37.12,16 54.26,59.05 38.26,96.17z"/>
    <polygon class="fil5" points="1950.31,2583.67 1101.09,2218 1127.13,2157.53 1976.35,2523.19 "/>
    <path class="fil11" d="M928.75 2447.25c-15.98,37.12 -59.05,54.26 -96.17,38.28 -37.12,-16 -54.26,-59.05 -38.28,-96.16 15.98,-37.15 59.05,-54.27 96.17,-38.29 37.12,15.99 54.26,59.04 38.28,96.17z"/>
    <polygon class="fil5" points="1827.08,2869.9 977.83,2504.22 1003.89,2443.76 1853.11,2809.41 "/>
    <path class="fil11" d="M805.51 2733.47c-16,37.12 -59.05,54.27 -96.17,38.29 -37.13,-15.98 -54.26,-59.05 -38.28,-96.17 15.99,-37.14 59.03,-54.26 96.18,-38.28 37.12,15.98 54.26,59.03 38.27,96.16z"/>
    <polygon class="fil5" points="1703.82,3156.12 854.6,2790.46 880.64,2729.98 1729.88,3095.63 "/>
    <path class="fil11" d="M682.26 3019.7c-15.98,37.12 -59.03,54.26 -96.17,38.28 -37.12,-15.98 -54.26,-59.05 -38.28,-96.17 15.98,-37.12 59.05,-54.26 96.17,-38.28 37.14,15.98 54.26,59.05 38.28,96.17z"/>
    <polygon class="fil5" points="1580.59,3442.34 731.35,3076.68 757.4,3016.2 1606.62,3381.87 "/>
    <path class="fil12" d="M2257.29 4047.86c-12.54,-26.28 -162.57,-127.37 -262.14,-114.62 -99.58,12.74 -170.21,150.63 -180.76,205.46 -10.53,54.82 88.59,1390.87 183.65,1510.29 95.04,119.43 1770.97,765.45 1907.98,794.59 136.99,29.15 345.84,-721.82 281.23,-826.05 -64.62,-104.25 -1280.55,-425.69 -1391.64,-518.17 -111.06,-92.5 -504.61,-980.89 -538.32,-1051.5z"/>
    <path class="fil3 str3" d="M2384.7 4325.98c0,0 -279.39,-133.07 -557.31,85.05"/>
    <path class="fil3 str4" d="M1995.15 3933.24c0,0 18.17,154 63.02,365.85"/>
    <path class="fil3 str3" d="M2109.03 3953.31c0,0 60.56,162.36 102.19,333.39"/>
    <path class="fil3 str3" d="M2223.3 4015.78c0,0 68.84,180.64 100.6,295.16"/>
    <path class="fil3 str4" d="M1869.98 4022.22c0,0 -6,166.14 18.85,332.44"/>
    <path class="fil3 str5" d="M4129.55 6056.3c0,0 -1685.67,-494.91 -1863.45,-668.86 -177.75,-173.94 -267.55,-1071.17 -267.55,-1071.17"/>
    <path class="fil8" d="M2059.48 3730.31c0,0 -8.3,-310.49 -77.4,-372.76 -69.09,-62.27 -157.58,-144.39 -178.96,-181.95 -21.36,-37.56 -67.61,-137.16 -99.39,-147.73 -31.78,-10.58 -99.65,64.72 -59.4,195.52 40.26,130.83 110.75,203.08 107.07,285.86 -3.68,82.77 -22.72,303.09 21.84,337.34 44.54,34.23 274.47,44.46 286.24,-116.28z"/>
    <path class="fil8" d="M6390.18 3391.06c0,0 -270.61,-587.16 -286.44,-654.36 -15.82,-67.21 48.04,-217.84 70.78,-382.39 22.76,-164.54 25.78,-328.63 63.01,-343.19 37.21,-14.55 57.79,113.01 57.79,113.01 0,0 41.56,-23.97 73.36,20.57 31.82,44.52 59.45,343.15 91.51,388.76 32.06,45.59 246.89,707.48 213.56,751.6 -33.32,44.12 -72.79,137.6 -72.79,137.6l53.41 447.87 -365.51 34.32 101.32 -513.79z"/>
    <path class="fil13" d="M7314.03 2562.57c21.16,21.97 20.5,56.93 -1.47,78.1l-480.79 462.97c-21.96,21.16 -56.95,20.49 -78.1,-1.47l-835.64 -867.77c-21.15,-21.98 -20.49,-56.94 1.48,-78.1l480.78 -462.99c21.99,-21.15 56.95,-20.49 78.11,1.48l835.63 867.78z"/>
    <path class="fil4" d="M7129.69 2460.73c21.17,21.97 20.51,56.93 -1.48,78.11l-391.24 376.76c-21.99,21.15 -56.95,20.51 -78.11,-1.48l-654.55 -679.72c-21.15,-21.98 -20.51,-56.94 1.48,-78.1l391.24 -376.78c21.99,-21.15 56.96,-20.49 78.11,1.47l654.55 679.74z"/>
    <path class="fil10" d="M7085.54 2723.46c11.39,11.84 11.04,30.66 -0.8,42.06l-119.62 115.18c-11.82,11.4 -30.66,11.05 -42.06,-0.79l0 0c-11.38,-11.82 -11.03,-30.66 0.81,-42.06l119.63 -115.18c11.82,-11.4 30.65,-11.03 42.04,0.79l0 0z"/>
    <path class="fil1" d="M6372.4 2303.95c-1.13,12.59 -2.34,73.08 7.91,90.59 10.26,17.51 69.68,64.51 189.43,62.36 119.74,-2.15 172.38,-37.73 187.2,-58.63 14.83,-20.87 7.63,-72.49 6.87,-84.05 -0.73,-11.56 -16.31,-17.93 -30.41,-14.91 -14.09,3 -54.73,14.75 -64.87,16.95 -10.15,2.22 -20.46,13.1 -21.1,22.23 -0.66,9.12 2.35,27.93 -0.61,31.73 -2.97,3.79 -50.32,15.41 -79.67,15.33 -29.35,-0.07 -75.73,-14.89 -79.01,-19.28 -3.3,-4.39 -1.64,-24.24 -1.89,-31.39 -0.28,-7.14 -3.03,-13.93 -21.2,-20.05 -18.17,-6.11 -58.09,-19.13 -69.23,-21.88 -11.12,-2.72 -22.56,1.35 -23.42,11z"/>
    <path class="fil3 str6" d="M6506.88 2255.28c0,0 50.64,-59.98 123.79,-4.17"/>
    <path class="fil3 str6" d="M6464.53 2211.3c0,0 77.37,-85.6 205.95,1.47"/>
    <path class="fil12" d="M6284.62 3545.32c7.46,-28.13 136.11,-155.29 236.33,-161.24 100.2,-5.96 195.21,116.43 215.74,168.33 20.53,51.93 171.04,1383.15 99.8,1518.15 -71.24,134.98 -1598.17,1080.78 -1727.39,1134.84 -129.22,54.06 -473.8,-645.1 -429.64,-759.54 44.15,-114.43 1179.32,-655.89 1271.31,-767.39 91.97,-111.51 313.82,-1057.49 333.85,-1133.15z"/>
    <path class="fil3 str3" d="M6211.03 3842.28c0,0 249.86,-182.61 563.43,-19.87"/>
    <path class="fil3 str3" d="M6520.95 3384.08c0,0 10.72,154.69 5.95,371.2"/>
    <path class="fil3 str3" d="M6412.78 3424.92c0,0 -29.39,170.78 -38.56,346.56"/>
    <path class="fil3 str3" d="M6312.08 3507.52c0,0 -34.14,190.28 -44.08,308.69"/>
    <path class="fil3 str3" d="M6660.45 3448.27c0,0 36.73,162.14 43.17,330.17"/>
    <path class="fil3 str5" d="M4817.57 5866.31c0,0 1564.57,-799.1 1706.97,-1003.02 142.4,-203.9 64.15,-1102.21 64.15,-1102.21"/>
    <path class="fil8" d="M6420.07 3196.61c0,0 -49.44,-306.65 6.88,-380.67 56.35,-74 128.07,-171.12 142.09,-212 14.02,-40.86 40.99,-147.3 70.25,-163.59 29.28,-16.3 109.94,45.11 94.66,181.12 -15.28,136 -71.15,220.09 -52.16,300.73 18.98,80.65 78.56,293.63 41.13,335.54 -37.42,41.9 -261.46,94.64 -302.85,-61.13z"/>
    <path class="fil8" d="M7663.34 5681.12c0,0 42.47,-645.1 60.67,-711.72 18.17,-66.61 146.19,-168.49 244.72,-302.22 98.53,-133.73 179.5,-276.46 219.17,-271.49 39.66,4.97 -3.16,126.88 -3.16,126.88 0,0 47.97,-1.22 54.65,53.1 6.68,54.32 -111.56,329.92 -105.15,385.28 6.39,55.37 -120.78,739.54 -171.11,762.39 -50.34,22.85 -129.66,86.17 -129.66,86.17l-166.85 419.03 -337.56 -144.29 334.28 -403.13z"/>
    <path class="fil9" d="M9253.81 5379.89c11.34,28.32 -2.42,60.49 -30.74,71.83l-991.41 396.96c-28.32,11.32 -60.49,-2.43 -71.81,-30.75l-503.69 -1257.97c-11.34,-28.32 2.43,-60.48 30.74,-71.8l991.41 -396.98c28.32,-11.32 60.47,2.43 71.81,30.75l503.69 1257.96z"/>
    <polygon class="fil2" points="8810.18,4767.27 8190.55,5015.38 8044.15,4649.7 8663.77,4401.62 "/>
    <path class="fil10" d="M7811.01 4438.46l-124.11 49.7c-28.31,11.32 -42.08,43.48 -30.74,71.8l503.69 1257.97c11.32,28.32 43.49,42.07 71.81,30.75l124.1 -49.7 -544.75 -1360.52z"/>
    <path class="fil8" d="M7782.43 5524.52c0,0 102.93,-293.04 187.75,-331.18 84.83,-38.16 194.22,-89.27 226.06,-118.49 31.83,-29.2 106.33,-109.87 139.82,-110.22 33.49,-0.35 75.07,92.12 -3.28,204.33 -78.34,112.22 -167.59,159.43 -189.41,239.38 -21.8,79.93 -71.11,295.5 -124.01,314.47 -52.88,18.96 -274.91,-41.65 -236.93,-198.29z"/>
    <path class="fil12" d="M7496.94 5766.3c19.98,-21.18 193.74,-71.5 284.64,-28.89 90.91,42.59 115.97,195.49 109.23,250.91 -6.74,55.42 -509.94,1297.05 -636.98,1381.65 -127.03,84.61 -1920.25,186.84 -2059.6,172.66 -139.36,-14.18 -108.39,-793.03 -14.97,-872.52 93.41,-79.47 1349.37,-13.4 1483.43,-67.48 134.04,-54.06 780.55,-779.42 834.25,-836.33z"/>
    <path class="fil3 str4" d="M7290.54 5992.11c0,0 306.72,-41.21 504.56,251.5"/>
    <path class="fil3 str4" d="M7781.58 5737.41c0,0 -64.42,141.04 -171.95,329.01"/>
    <path class="fil3 str4" d="M7667.04 5721.67c0,0 -107.35,136.05 -199.31,286.13"/>
    <path class="fil3 str4" d="M7539.13 5746.19c0,0 -120.83,150.89 -186.1,250.21"/>
    <path class="fil3 str4" d="M7873.52 5860.41c0,0 -45.13,160.02 -119.67,310.73"/>
    <path class="fil3 str5" d="M5099.45 7139.12c0,0 1467.68,35.46 1793.66,-66.42 325.97,-101.89 757.12,-979.78 757.12,-979.78"/>
    <path class="fil8" d="M7178.57 8361.82c0,0 463.89,-391.54 541.79,-396.95 77.92,-5.4 499.32,-29 573.68,-27.83 74.37,1.18 169.99,144.69 247.89,214.59 77.9,69.88 -49.59,68.21 -113.33,30.1 -63.74,-38.11 -138.09,-100.68 -187.68,-106.57 -49.56,-5.91 -368.6,36.59 -405.63,61.36 -37.01,24.81 -65.34,60.22 65.68,46.06 131.02,-14.18 262.05,-13.58 329.33,30.4 67.28,43.94 -46.03,89.31 -134.56,119.75 -88.53,30.44 -191.23,-4.11 -244.35,29.09 -53.11,33.22 -162.9,150.08 -293.92,121.74 -56.16,-12.15 -224.82,1.44 -295.19,-22.14 -93.81,-31.42 -83.71,-99.6 -83.71,-99.6z"/>
    <path class="fil14" d="M3766.82 5258.79c0,0 -676.66,349.84 -891.48,668.99 -214.8,319.16 -12.26,1687.82 110.48,2006.96 122.75,319.16 147.29,515.55 417.35,564.66 270.06,49.1 3958.7,0 3958.7,0 0,0 159.58,-147.3 55.24,-374.39 0,0 -767.2,-306.87 -1049.51,-392.81 -282.33,-85.91 -319.15,-76.7 -343.72,-76.7 -24.54,0 3.08,-64.45 -30.67,-79.8 -33.77,-15.34 -89.01,-18.42 -101.27,-33.75 -12.28,-15.34 27.62,-82.86 18.41,-104.34 -9.2,-21.48 -64.44,-58.3 -82.85,-98.2 -18.42,-39.9 -340.64,-1199.89 -466.47,-1408.56 -125.81,-208.67 -547.77,-468.4 -887.63,-579.44 -339.85,-111.03 -706.58,-92.62 -706.58,-92.62z"/>
    <path class="fil8" d="M6795.68 8231.27c-50.63,-42.75 -345.23,-270.43 -400.47,-288.85 -44.81,-14.93 -528.55,127.7 -709.43,182.05 14.97,105.37 -11.02,298.63 -87.48,386.48 6.11,3.65 12.55,7.16 19.72,10.27 0,0 1292.8,-19.55 1343.38,-18.54 32.42,0.66 -115.08,-228.66 -165.72,-271.41z"/>
    <path class="fil3 str7" d="M6326.16 8099.78c0,0 336.03,201.68 382.06,233.91 46.04,32.22 124.29,170.16 124.29,170.16"/>
    <path class="fil3 str7" d="M6268.63 8249.51c0,0 310.71,150.92 340.63,162.43 29.92,11.51 82.86,93.72 82.86,93.72"/>
    <path class="fil3 str7" d="M6208.78 8411.94c0,0 208.44,62.05 261.87,72.46 53.45,10.4 83.37,26.51 83.37,26.51"/>
    <path class="fil3 str3" d="M2845.29 5985.74c0,0 313.92,-192.98 636.13,129.24 322.22,322.22 446.51,1077.13 533.97,1422.37 0,0 64.44,18.41 78.25,32.22 13.81,13.81 0,92.06 0,92.06 0,0 301.18,46.03 585.58,147.3 284.41,101.27 915.05,221.85 974.89,244.87 59.84,23.01 47.92,348.67 -61.19,463.28"/>
    <path class="fil3 str3" d="M4093.64 7661.63c-388.57,-32.22 -711.96,299.21 -777.15,483.33"/>
    <path class="fil3 str3" d="M3914.12 7532.74c0,0 -382.06,78.26 -556.98,409.68"/>
    <path class="fil3 str3" d="M5395.85 7981.94c0,0 -142.22,153.81 -165.23,291.91 -23.01,138.09 0,243.23 0,243.23"/>
    <path class="fil3 str3" d="M5337.15 8054.59c0,0 222.78,44.34 352.71,90.37"/>
    <path class="fil3 str3" d="M5263.65 8175.45c0,0 203.09,49.73 423.36,74.06"/>
    <path class="fil3 str3" d="M5220.38 8333.69c0,0 249.75,29.72 443.01,44.78"/>
    <path class="fil3 str3" d="M5220.38 8457.97c0,0 209.63,26.43 397.64,26.43"/>
    <path class="fil3 str8" d="M2930.58 5943.13c0,0 -0.9,12.85 -2.27,36.68"/>
    <path class="fil3 str9" d="M2925.41 6034.94c-10.13,209.42 -26.48,743.44 35.86,1247.95 79.78,645.72 190.26,785.51 227.09,796.25 36.82,10.75 67.51,-70.41 92.06,-45.17 24.56,25.22 -49.09,248.52 -6.13,250.67 42.24,2.11 648.89,226.6 1881.66,140.35"/>
    <path class="fil3 str8" d="M5183.66 8423.01c12.2,-0.91 24.42,-1.83 36.72,-2.77"/>
    <path class="fil3 str3" d="M5189.19 6154.88c0,0 292.67,398.92 324.32,644.44 31.65,245.49 -94.31,595.33 -94.31,595.33l97.81 625.53"/>
    <path class="fil3 str3" d="M7178.57 8030.84c0,0 -123.64,168.25 -80.64,471.84"/>
    <line class="fil3 str4" x1="7141.84" y1="8099.78" x2="7436.4" y2= "8175.45" />
    <path class="fil3 str4" d="M7102.55 8230.25c0,0 197.79,48.3 349.76,54.39"/>
    <path class="fil3 str3" d="M7088.85 8378.47c0,0 190.52,14.1 346.85,0"/>
    <path class="fil3 str3" d="M7094.02 8471.2c0,0 126.67,11.67 292.39,0"/>
    <path class="fil3 str3" d="M5919.56 7659.44c0,0 -227.1,35.3 -377.45,242.77"/>
    <path class="fil3 str3" d="M5824.42 7443.75c0,0 -185.61,149.42 -263.91,359.05"/>
    <path class="fil3 str3" d="M4482.66 7532.74c0,0 305.56,-187.2 702.44,-266.98"/>
    <path class="fil3 str3" d="M4772.18 7445.54c0,0 263.49,-42.13 527.02,-46.29"/>
    <path class="fil13" d="M4305.39 3095.32c0,0 147.3,-248.57 437.3,-253.18 290,-4.6 998.88,405.08 1155.38,561.59 156.51,156.51 165.71,338.22 119.69,408.48 -46.04,70.25 -170.32,138.06 -142.71,246.86 27.63,108.78 211.75,338.29 115.09,566.48 -96.67,228.17 -337.71,195.94 -382.91,301.82 -45.19,105.87 31.74,478.72 -188.55,621.42 -220.28,142.7 -378.83,-170.31 -529.71,-165.71 -150.89,4.6 -219.93,248.57 -583.58,151.9 -363.65,-96.66 -298.93,-396.64 -483.19,-451.49 -184.27,-54.85 -386.8,9.59 -483.47,-220.57 -96.67,-230.15 142.73,-347.96 313.03,-567.54 170.3,-219.6 243.93,-560.22 285.38,-827.21 41.42,-266.98 147.3,-395.86 368.25,-372.85z"/>
    <path class="fil3 str10" d="M5601.11 4946.39c13.19,-195.93 172.68,-268.23 168.08,-454.33 -4.61,-186.11 -167.98,-437.09 -83.98,-679.85 83.98,-242.77 84.07,-511.07 84.07,-511.07"/>
    <path class="fil3 str10" d="M5715.31 4248.55c0,0 49.27,269.14 -167.08,425.64 -216.34,156.51 69.05,453.74 0,696.4"/>
    <path class="fil3 str11" d="M5893.47 3864.95c0,0 -4.6,139.62 101.27,297.21 105.87,157.59 188.73,483.59 0,647.42 -188.73,163.82 -432.7,108.58 -487.93,472.23"/>
    <path class="fil2" d="M4701.26 6358.94c0,0 156,-458.08 95.02,-870.17 -108.12,-55.81 -219.31,-103.52 -322.88,-137.36 -339.85,-111.03 -706.58,-92.62 -706.58,-92.62 0,0 -173.34,89.67 -372.35,219.54 0.24,0.27 565.85,645.91 1306.79,880.61z"/>
    <path class="fil3 str12" d="M4355.8 5522.26c0,0 179.75,362.56 345.46,836.68"/>
    <path class="fil8" d="M3995.87 4593.86c0,0 -63.34,395.65 -229.05,664.93 0,0 173.91,332.02 400.47,313.01 226.57,-18.99 287.7,-133.48 287.7,-133.48 0,0 31.96,-194.55 117.25,-372.31l-576.37 -472.15z"/>
    <path class="fil15" d="M4572.24 5066.01l-576.37 -472.15c0,0 -13.86,86.61 -45.58,206.37 66.94,192.72 202.99,498.67 398.83,525.31 53.01,7.21 97.62,-0.19 135.26,-16.94 18.72,-69.45 47.23,-157.9 87.86,-242.59z"/>
    <path class="fil8" d="M5078.71 3300.93c675.14,300.73 570.79,846.98 405.08,1233.64 -165.71,386.66 -632.16,718.09 -1110.88,454.17 -478.73,-263.91 -515.55,-711.94 -337.58,-1178.41 154.61,-405.18 567.6,-721.34 1043.38,-509.4z"/>
    <path class="fil3 str7" d="M5115.23 3864.95c0,0 -155.87,169.35 -209.69,473.9 0,0 173.62,-24.14 179.05,59.69 5.43,83.81 -146.23,165.69 -230.99,180.28"/>
    <path class="fil16" d="M4765.28 4075.14c-11.84,38.91 -45.1,63.27 -74.28,54.37 -29.18,-8.87 -43.25,-47.61 -31.41,-86.53 11.84,-38.91 45.11,-63.25 74.3,-54.38 29.18,8.88 43.23,47.62 31.39,86.54z"/>
    <path class="fil3 str13" d="M4719.58 4035.58c0,0 79.52,33.82 169.39,-19.02"/>
    <path class="fil16" d="M5294.99 4239.16c-11.84,38.93 -45.09,63.27 -74.28,54.39 -29.18,-8.89 -43.25,-47.63 -31.41,-86.54 11.84,-38.92 45.11,-63.26 74.29,-54.39 29.19,8.9 43.25,47.63 31.4,86.54z"/>
    <path class="fil3 str13" d="M5249.31 4196.04c0,0 79.52,33.8 169.37,-19.04"/>
    <path class="fil3 str7" d="M4538.62 4492.06c0,0 61.37,254.7 322.22,266.98"/>
    <path class="fil17" d="M4645.6 4299.92c-33.72,126.07 -183.82,195.45 -335.28,154.96 -151.44,-40.5 -246.89,-175.52 -213.18,-301.61 33.72,-126.07 183.81,-195.44 335.26,-154.94 151.46,40.49 246.91,175.52 213.2,301.59z"/>
    <path class="fil17" d="M5483.79 4534.57c25.49,-59.49 49.51,-122.76 69.49,-188.31 -18.21,-8.65 -37.51,-15.96 -57.92,-21.4 -151.47,-40.51 -301.57,28.86 -335.28,154.94 -31.06,116.16 47.67,239.73 178.68,290.14 60.21,-72.42 109.55,-152.61 145.03,-235.37z"/>
    <path class="fil10" d="M4742.69 2842.14c-290,4.61 -437.3,253.18 -437.3,253.18 -220.95,-23.01 -326.83,105.87 -368.25,372.85 -17.86,114.99 -41.75,243.64 -76.69,370.39 423.96,340.43 943.83,-209.3 943.83,-209.3 -113.33,262.37 240.17,334.82 494.92,71.89 176.08,-181.75 245.3,-406.04 271.26,-527.27 -275.51,-163.44 -639.69,-334.72 -827.77,-331.74z"/>
    <path class="fil3 str11" d="M4909.36 2868.85c0,0 -324.86,932.96 -853.39,1067.65 0,0 557.83,-330.23 768.8,-1086.97"/>
    <path class="fil13" d="M4612.23 3732.87c28.1,-66.06 111.68,-106.68 179.41,-112.44 70.71,-6.01 150.01,14.16 193.41,74.7 6.58,9.17 -8.93,3.2 -11.95,2.13 -20.05,-7.07 -40.05,-12.61 -60.63,-17.9 -36.59,-7.17 -74.39,-8.85 -111.4,-4.52 -40.23,4.71 -78.99,13.55 -116.73,28.46 -17.44,6.89 -34.67,14.81 -51.16,23.72 -3.94,2.13 -22.62,17.07 -20.95,5.85z"/>
    <path class="fil13" d="M5272.67 3862.26c87.02,-55.72 218.54,63.65 163.73,154.46 -3.12,5.14 -5.33,-0.86 -6.43,-3.59 -4.58,-11.4 -9.48,-22.45 -15.13,-33.34 -12.21,-23.57 -30.46,-43.04 -50.12,-60.49 -19.71,-17.47 -42.44,-30.7 -66.4,-41.41 -4.14,-1.84 -34.76,-9.3 -25.65,-15.63z"/>
    <path class="fil8" d="M3937.14 4313.29l58.73 -387.95c0,0 -17.31,-339.27 -224.45,-291.45 -207.14,47.81 -142.71,654.54 165.72,679.4z"/>
    <path class="fil15" d="M3651.76 3895.75c6.37,185.5 103.33,402.87 285.38,417.54l55.49 -366.57c-49.91,-78.41 -177.86,-229.35 -340.87,-50.97z"/>
    <path class="fil4" d="M3869.73 5048.3c0,0 128.78,262.65 493.97,357.79 0,0 104.91,-58.31 135.27,-148.44l16.62 -51.57c0,0 16.88,-1.27 23.03,21.11 6.13,22.4 94.51,184.67 94.51,184.67 0,0 6.15,454.55 0,457.62 -6.13,3.06 -251.02,-296.88 -251.02,-296.88l-49.1 370.53c0,0 -554.44,-202.48 -659.29,-633.66 0,0 37.71,-38.01 93.1,-118.19 55.38,-80.17 91.77,-162.68 102.91,-142.98z"/>
    <path class="fil6" d="M5135.19 8429.16c0,30.5 24.73,55.24 55.23,55.24l4353.34 0c30.51,0 55.24,-24.74 55.24,-55.24l0 -17.85c0,-30.5 -24.73,-55.23 -55.24,-55.23l-4353.34 0c-30.5,0 -55.23,24.73 -55.23,55.23l0 17.85z"/>
    <path class="fil7" d="M6602.35 8429.16l0 -17.85c0,-30.5 -24.72,-55.23 -55.24,-55.23l-1356.69 0c-30.5,0 -55.23,24.73 -55.23,55.23l0 17.85c0,30.5 24.73,55.24 55.23,55.24l1356.69 0c30.52,0 55.24,-24.74 55.24,-55.24z"/>
    <path class="fil4" d="M9549.9 8356.08l-2881.87 0c-10.85,0 -21.1,-4.92 -27.93,-13.35 -6.82,-8.44 -9.45,-19.5 -7.17,-30.11l471.33 -2194.44c3.55,-16.55 18.19,-28.38 35.11,-28.38l2881.88 0c10.84,0 21.1,4.91 27.93,13.33 6.81,8.44 9.44,19.5 7.16,30.13l-471.32 2194.45c-3.55,16.54 -18.19,28.37 -35.12,28.37z"/>
    <path class="fil7" d="M9529.95 6892.9c-326.83,197.94 -547.78,547.78 -906.82,695.08 -423.49,170.32 -745.71,-151.9 -1155.39,-179.52 -239.36,-18.42 -432.69,18.41 -644.44,133.49 -7.03,3.51 -16.57,8.17 -27.78,13.7l-162.59 756.97c-2.28,10.61 0.35,21.67 7.17,30.11 6.83,8.43 17.08,13.35 27.93,13.35l2881.87 0c16.93,0 31.57,-11.83 35.12,-28.37l345.21 -1607.37c-142.63,32.26 -278.1,95.75 -400.28,172.56z"/>
    <path class="fil2" d="M8740.14 7293.38c0,135.22 -109.63,244.83 -244.83,244.83 -135.22,0 -244.85,-109.61 -244.85,-244.83 0,-135.22 109.63,-244.83 244.85,-244.83 135.2,0 244.83,109.61 244.83,244.83z"/>
   </g>
  </g>
  <polygon class="fil18" points="-0,0.23 10000,0.23 10000,8483.82 -0,8483.82 "/>
 </g>
</svg>
