<?xml version="1.0" encoding="UTF-8"?>
<!DOCTYPE svg PUBLIC "-//W3C//DTD SVG 1.1//EN" "http://www.w3.org/Graphics/SVG/1.1/DTD/svg11.dtd">
<!-- Creator: CorelDRAW 2018 (64 Bit Versão de avaliação) -->
<svg xmlns="http://www.w3.org/2000/svg" xml:space="preserve" width="15.5868mm" height="15.5868mm" version="1.1" style="shape-rendering:geometricPrecision; text-rendering:geometricPrecision; image-rendering:optimizeQuality; fill-rule:evenodd; clip-rule:evenodd"
viewBox="0 0 1558.68 1558.68"
 xmlns:xlink="http://www.w3.org/1999/xlink">
 <defs>
  <style type="text/css">
   <![CDATA[
    .fil0 {fill:#FEFEFE}
   ]]>
  </style>
 </defs>
 <g id="Camada_x0020_1">
  <metadata id="CorelCorpID_0Corel-Layer"/>
  <path class="fil0" d="M134.51 0l1289.66 0c73.99,0 134.51,60.52 134.51,134.51l0 1289.66c0,73.99 -60.52,134.51 -134.51,134.51l-1289.66 0c-73.99,0 -134.51,-60.52 -134.51,-134.51l0 -1289.66c0,-73.99 60.52,-134.51 134.51,-134.51zm508.38 974.63l-317.68 -300.56c-10.38,15.96 -47.34,49.77 -60.1,63.38 -17.6,18.76 -49.26,47.71 -60.92,67.31l449.58 433.92 656.81 -750.22c14.89,-19.31 33.11,-33.42 43.91,-53.5l-135.09 -114.95 -536.82 611.98 -39.69 42.64z"/>
 </g>
</svg>
