<?xml version="1.0" encoding="UTF-8"?>
<!DOCTYPE svg PUBLIC "-//W3C//DTD SVG 1.1//EN" "http://www.w3.org/Graphics/SVG/1.1/DTD/svg11.dtd">
<!-- Creator: CorelDRAW 2018 (64 Bit Versão de avaliação) -->
<svg xmlns="http://www.w3.org/2000/svg" xml:space="preserve" width="3.1396mm" height="3.1396mm" version="1.1" style="shape-rendering:geometricPrecision; text-rendering:geometricPrecision; image-rendering:optimizeQuality; fill-rule:evenodd; clip-rule:evenodd"
viewBox="0 0 1.24 1.24"
 xmlns:xlink="http://www.w3.org/1999/xlink">
 <defs>
  <style type="text/css">
   <![CDATA[
    .fil0 {fill:#FEFEFE}
   ]]>
  </style>
 </defs>
 <g id="Camada_x0020_1">
  <metadata id="CorelCorpID_0Corel-Layer"/>
  <path class="fil0" d="M0.11 0l1.02 0c0.06,0 0.11,0.05 0.11,0.11l0 1.02c0,0.06 -0.05,0.11 -0.11,0.11l-1.02 0c-0.06,0 -0.11,-0.05 -0.11,-0.11l0 -1.02c0,-0.06 0.05,-0.11 0.11,-0.11zm0.55 0.86l0 -0.18c0.16,-0.02 0.2,0.11 0.1,0.16 -0.03,0.01 -0.07,0.03 -0.1,0.02zm-0.09 -0.47l0 0.18c-0.19,0.01 -0.2,-0.17 -0,-0.18zm0.09 0.59c0.12,-0.02 0.28,-0.05 0.28,-0.21 -0,-0.17 -0.2,-0.17 -0.28,-0.19l0 -0.18c0.05,-0 0.12,0.02 0.15,0.05 0.13,0.12 0.19,-0.1 -0.14,-0.16 -0,-0.11 -0.09,-0.1 -0.09,-0 -0.1,0.02 -0.26,0.05 -0.26,0.2 -0,0.15 0.16,0.18 0.26,0.2l0 0.18c-0.06,-0 -0.12,-0.03 -0.15,-0.06 -0.05,-0.06 -0.11,-0.02 -0.11,0.02 0,0.1 0.2,0.14 0.26,0.15 0,0.03 -0.01,0.06 0.03,0.07 0.05,0.02 0.06,-0.04 0.06,-0.07z"/>
 </g>
</svg>
