<?xml version="1.0" encoding="UTF-8"?>
<!DOCTYPE svg PUBLIC "-//W3C//DTD SVG 1.1//EN" "http://www.w3.org/Graphics/SVG/1.1/DTD/svg11.dtd">
<!-- Creator: CorelDRAW 2018 (64 Bit Versão de avaliação) -->
<svg xmlns="http://www.w3.org/2000/svg" xml:space="preserve" width="100mm" height="100mm" version="1.1" style="shape-rendering:geometricPrecision; text-rendering:geometricPrecision; image-rendering:optimizeQuality; fill-rule:evenodd; clip-rule:evenodd"
viewBox="0 0 10000 10000"
 xmlns:xlink="http://www.w3.org/1999/xlink">
 <defs>
  <style type="text/css">
   <![CDATA[
    .fil0 {fill:white}
   ]]>
  </style>
 </defs>
 <g id="Camada_x0020_1">
  <metadata id="CorelCorpID_0Corel-Layer"/>
  <g id="_2820236816464">
   <g>
    <path class="fil0" d="M1219.43 8814.73c61.68,-315.53 248.15,-909.77 350.41,-1263.26 120.11,-415.21 -474.04,-556.84 -672.39,-1973.18 -501.06,-3577.87 3478.84,-6015.6 6414.49,-4036.95 447.66,301.73 777.58,639.8 1089.86,1062.99 1369.37,1855.76 828.93,4656.29 -1225.86,5914.32 -1315.12,805.16 -2929.09,827.13 -4265.32,52.31 -280.49,-162.65 -178.04,-146.62 -805.22,20.24 -292.79,77.9 -592.61,167.99 -885.97,223.53zm-1220.13 1188.9l2113.34 -536.5c644.71,-170.43 427.69,-87.05 970.44,134.38 1086.67,443.33 2293.87,510.32 3406.53,159.36 1978.3,-624.02 3394.76,-2404.79 3503.03,-4502.78 85.56,-1657.96 -667.64,-3060.08 -1482.25,-3824.85 -1080.55,-1014.41 -2278.82,-1511.95 -3875.13,-1426.11 -714.04,38.39 -1509.77,304.21 -2040.06,603.56 -230.76,130.27 -612.85,379.37 -798.33,544.03l-351.16 318.84c-1014.47,1096.93 -1704.57,2643.09 -1344.09,4481.74 124.56,635.29 266.04,932.32 534.87,1452.11 88.65,171.41 2.71,303.94 -52.29,503.03 -187.31,678.01 -432.97,1417.59 -584.9,2093.19z"/>
    <path class="fil0" d="M3127.5 2671.02c-215.01,77.38 -520.94,469.86 -599.44,752.68 -201.91,727.47 234.73,1485.58 644.11,2005.94 334.51,425.17 302.07,359.19 654.52,716.24 206.73,209.43 482.34,418.84 753.71,587.6 302.68,188.21 540,311.35 913.84,456.3 1605.61,622.53 2111.68,-578.69 2053.61,-985.95 -22.35,-156.68 -622.9,-374.42 -864.81,-483.38 -528.13,-237.9 -391.25,-256.11 -794.63,252.32 -121.24,152.82 -156.99,300.61 -389.49,208.34 -452.94,-179.75 -917.24,-487.2 -1231.63,-811.79 -65.44,-67.57 -89.48,-120.08 -147.38,-188.52 -567.76,-671.09 -344.73,-627.86 -21.41,-1026.05 216.74,-266.92 109.51,-311.57 -168.81,-964.17 -40.13,-94.12 -163.27,-409.53 -209.61,-461.75 -94.1,-106.02 -444.93,-110.95 -592.58,-57.81z"/>
   </g>
  </g>
 </g>
</svg>
