<?xml version="1.0" encoding="UTF-8"?>
<!DOCTYPE svg PUBLIC "-//W3C//DTD SVG 1.1//EN" "http://www.w3.org/Graphics/SVG/1.1/DTD/svg11.dtd">
<!-- Creator: CorelDRAW 2018 (64 Bit Versão de avaliação) -->
<svg xmlns="http://www.w3.org/2000/svg" xml:space="preserve" width="99.6611mm" height="100mm" version="1.1" shape-rendering="geometricPrecision" text-rendering="geometricPrecision" image-rendering="optimizeQuality" fill-rule="evenodd" clip-rule="evenodd"
viewBox="0 0 9966.12 10000.01"
 xmlns:xlink="http://www.w3.org/1999/xlink">
 <g id="Camada_x0020_1">
  <metadata id="CorelCorpID_0Corel-Layer"/>
  <path fill="#F51E33" d="M521.39 10000.01c-778.56,0 -492.62,-726.8 -353.7,-1243.71 128.76,-479.08 332.03,-971.99 557.98,-1357.43 400.03,-682.36 1207.17,-1509.58 1906.89,-1893.27 90.53,56.52 146.55,132.08 231,200.81 1041.82,847.77 2245.61,1096.57 3511.24,493.38 192.98,-91.98 347.19,-196.12 511.01,-316.64 115.66,-85.11 377.64,-338.74 454.05,-371.05 398.47,248.6 794.84,548.61 1073.86,836.03 677.35,697.77 1106.95,1384.98 1391.47,2375.97 155.47,541.57 370.59,1275.91 -297.1,1275.91 -3014.58,0 -6029.18,0 -8986.71,0zm4278.48 -9988.67c890.68,-87.32 1691.42,344.67 2111.72,784.75 524.25,548.92 806.17,1002.75 918.31,2025.1 95.51,870.61 -288.35,1724.53 -691.63,2200.81 -1067.59,1260.74 -2845.7,1406.65 -4076.64,257.66 -1680.3,-1568.42 -1041.72,-4995.74 1738.24,-5268.33z"/>
 </g>
</svg>
