<?xml version="1.0" encoding="UTF-8"?>
<!DOCTYPE svg PUBLIC "-//W3C//DTD SVG 1.1//EN" "http://www.w3.org/Graphics/SVG/1.1/DTD/svg11.dtd">
<!-- Creator: CorelDRAW 2018 (64 Bit Versão de avaliação) -->
<svg xmlns="http://www.w3.org/2000/svg" xml:space="preserve" width="100mm" height="100mm" version="1.1" shape-rendering="geometricPrecision" text-rendering="geometricPrecision" image-rendering="optimizeQuality" fill-rule="evenodd" clip-rule="evenodd"
viewBox="0 0 10000 10000"
 xmlns:xlink="http://www.w3.org/1999/xlink">
 <g id="Camada_x0020_1">
  <metadata id="CorelCorpID_0Corel-Layer"/>
  <path fill="white" d="M4820.53 7391.45c652.54,-258.92 1014.24,749.12 368.31,982.15 -646.57,233.26 -1035.39,-717.46 -368.31,-982.15zm-2302.53 -7391.45l0 0c286.89,0 521.6,234.71 521.6,521.59l0 443.59 3920.75 0 0 -443.59c0,-286.88 234.72,-521.59 521.6,-521.59l0 0c286.89,0 521.6,234.71 521.6,521.59l0 443.59 897.54 0c214.33,42.09 405.94,128.59 577.17,299.34 190.86,190.32 305.62,409.82 315.71,767.21 8.58,303.8 23.16,775.71 -8.37,1067.52l-9562.37 -1.47c-38.59,-254.32 -16.27,-755.39 -13.64,-1031.93 7.26,-763.23 460.3,-1020.18 983.89,-1100.67l802.94 0 0 -443.59c0,-286.88 234.71,-521.59 521.6,-521.59l-0.01 0 -0.01 0zm179.29 7386.19c679.24,-232.99 998.58,769.18 347.9,991.33 -673.7,230.01 -995.22,-769.28 -347.9,-991.33zm2160.63 -1874.38c670.03,-212.59 941.96,811.16 316.03,1003.7 -691.64,212.73 -1007.68,-784.26 -316.03,-1003.7zm2134.53 -6.79c695.36,-179.49 941.1,842.54 273.07,1021.24 -675.14,180.59 -944.45,-847.95 -273.07,-1021.24zm-4257.92 1.74c679.86,-188 944.87,839.67 272.3,1021.3 -670.09,180.96 -946.12,-834.97 -272.3,-1021.3zm-2522.95 -1611.64c-0.31,738.65 -74.16,5061.46 63.18,5397.32 338.72,828.32 1062.4,700.44 2027.78,700.44l5434.92 -1.32c944.2,7.22 1732.82,88.39 1999.76,-724.79 111.87,-340.85 58.58,-4652.88 58.87,-5372.32l-9584.49 0.67 -0.01 0 -0.01 0z"/>
 </g>
</svg>
