<?xml version="1.0" encoding="UTF-8"?>
<!DOCTYPE svg PUBLIC "-//W3C//DTD SVG 1.1//EN" "http://www.w3.org/Graphics/SVG/1.1/DTD/svg11.dtd">
<!-- Creator: CorelDRAW 2018 (64 Bit Versão de avaliação) -->
<svg xmlns="http://www.w3.org/2000/svg" xml:space="preserve" width="9mm" height="9mm" version="1.1" shape-rendering="geometricPrecision" text-rendering="geometricPrecision" image-rendering="optimizeQuality" fill-rule="evenodd" clip-rule="evenodd"
viewBox="0 0 899.98 899.98"
 xmlns:xlink="http://www.w3.org/1999/xlink">
 <g id="Camada_x0020_1">
  <metadata id="CorelCorpID_0Corel-Layer"/>
  <rect fill="none" x="0" y="0" width="899.98" height="899.98"/>
  <path fill="#09F6CB" d="M0.47 451.78c0,8.96 0.89,14.34 5.82,24.65 5.83,12.1 15.24,20.17 27.35,25.56 5.38,2.24 14.34,4.93 22.4,4.93l56.48 0 0 336.15c0,8.96 1.79,16.13 4.48,22.4 2.69,6.28 7.17,13.45 12.1,17.93 4.48,4.48 8.06,7.17 13.89,10.31 4.93,2.69 14.34,6.27 21.51,6.27l173.91 0 0 -285.5c0,-14.79 10.31,-30.49 21.51,-39.9 1.34,-1.34 2.69,-1.79 4.03,-3.13 1.35,-0.9 2.69,-1.8 4.03,-2.69l4.93 -2.24c6.28,-2.69 14.79,-4.04 23.76,-4.04l107.12 0c9.41,0 16.58,1.8 23.76,4.04 1.8,0.45 2.69,1.34 4.49,2.24 4.92,2.69 8.06,4.48 12.54,8.51 7.17,7.17 13,15.69 15.69,25.55 0.89,3.14 2.24,8.07 2.24,11.66l0 285.05 173.91 0c10.75,0 25.1,-6.72 32.72,-14.34 11.65,-11.65 19.27,-24.21 19.27,-43.03l0 -336.15 56.47 0c7.17,0 17.03,-2.24 21.96,-4.48 3.14,-1.35 5.82,-2.69 8.51,-4.48 7.62,-4.93 14.79,-12.55 18.82,-21.06 5.38,-10.76 5.83,-15.69 5.83,-24.21l0 -7.62c0,-13.44 -10.75,-30.48 -20.17,-39.89 -1.79,-1.8 -2.68,-3.14 -4.03,-4.93l-86.95 -86.51c-1.35,-2.24 -0.9,-29.14 -0.9,-34.07 0,-18.82 0.9,-162.26 -0.45,-173.01 -0.89,-5.38 -1.79,-9.41 -3.58,-13.89 -1.79,-4.93 -6.28,-12.55 -9.86,-16.14 -4.03,-4.48 -8.96,-8.96 -14.34,-12.1 -6.72,-4.03 -16.58,-7.61 -27.35,-7.61l-59.16 0c-18.82,0 -35.86,10.75 -45.27,25.1 -4.48,6.72 -8.51,16.13 -9.41,26 -0.89,10.31 0,24.66 0,35.41 -2.69,-1.79 -74.41,-73.96 -76.65,-76.2 -6.27,-6.27 -30.48,-31.38 -37.2,-37.2l-21.51 -18.82c-8.96,-5.83 -18.37,-9.41 -27.79,-10.31l-10.76 0c-7.17,0.9 -14.34,2.69 -21.06,6.27 -8.07,4.04 -16.58,12.1 -23.31,18.38 -1.35,1.34 -1.79,1.79 -3.59,3.13l-17.47 17.48c-18.82,18.82 -37.21,37.2 -55.58,55.58l-222.32 222.32c-18.82,18.82 -36.75,36.75 -55.57,55.57 -15.24,15.24 -45.72,40.79 -45.72,65.89l0 7.17 0.47 0z"/>
 </g>
</svg>
