<?xml version="1.0" encoding="UTF-8"?>
<!DOCTYPE svg PUBLIC "-//W3C//DTD SVG 1.1//EN" "http://www.w3.org/Graphics/SVG/1.1/DTD/svg11.dtd">
<!-- Creator: CorelDRAW 2018 (64 Bit Versão de avaliação) -->
<svg xmlns="http://www.w3.org/2000/svg" xml:space="preserve" width="9.038mm" height="9.038mm" version="1.1" shape-rendering="geometricPrecision" text-rendering="geometricPrecision" image-rendering="optimizeQuality" fill-rule="evenodd" clip-rule="evenodd"
viewBox="0 0 20.08 20.08"
 xmlns:xlink="http://www.w3.org/1999/xlink">
 <g id="Camada_x0020_1">
  <metadata id="CorelCorpID_0Corel-Layer"/>
  <path fill="#FEFEFE" d="M-0 10.08c0,0.2 0.02,0.32 0.13,0.55 0.13,0.27 0.34,0.45 0.61,0.57 0.12,0.05 0.32,0.11 0.5,0.11l1.26 0 0 7.5c0,0.2 0.04,0.36 0.1,0.5 0.06,0.14 0.16,0.3 0.27,0.4 0.1,0.1 0.18,0.16 0.31,0.23 0.11,0.06 0.32,0.14 0.48,0.14l3.88 0 0 -6.37c0,-0.33 0.23,-0.68 0.48,-0.89 0.03,-0.03 0.06,-0.04 0.09,-0.07 0.03,-0.02 0.06,-0.04 0.09,-0.06l0.11 -0.05c0.14,-0.06 0.33,-0.09 0.53,-0.09l2.39 0c0.21,0 0.37,0.04 0.53,0.09 0.04,0.01 0.06,0.03 0.1,0.05 0.11,0.06 0.18,0.1 0.28,0.19 0.16,0.16 0.29,0.35 0.35,0.57 0.02,0.07 0.05,0.18 0.05,0.26l0 6.36 3.88 0c0.24,0 0.56,-0.15 0.73,-0.32 0.26,-0.26 0.43,-0.54 0.43,-0.96l0 -7.5 1.26 0c0.16,0 0.38,-0.05 0.49,-0.1 0.07,-0.03 0.13,-0.06 0.19,-0.1 0.17,-0.11 0.33,-0.28 0.42,-0.47 0.12,-0.24 0.13,-0.35 0.13,-0.54l0 -0.17c0,-0.3 -0.24,-0.68 -0.45,-0.89 -0.04,-0.04 -0.06,-0.07 -0.09,-0.11l-1.94 -1.93c-0.03,-0.05 -0.02,-0.65 -0.02,-0.76 0,-0.42 0.02,-3.62 -0.01,-3.86 -0.02,-0.12 -0.04,-0.21 -0.08,-0.31 -0.04,-0.11 -0.14,-0.28 -0.22,-0.36 -0.09,-0.1 -0.2,-0.2 -0.32,-0.27 -0.15,-0.09 -0.37,-0.17 -0.61,-0.17l-1.32 0c-0.42,0 -0.8,0.24 -1.01,0.56 -0.1,0.15 -0.19,0.36 -0.21,0.58 -0.02,0.23 -0,0.55 -0,0.79 -0.06,-0.04 -1.66,-1.65 -1.71,-1.7 -0.14,-0.14 -0.68,-0.7 -0.83,-0.83l-0.48 -0.42c-0.2,-0.13 -0.41,-0.21 -0.62,-0.23l-0.24 0c-0.16,0.02 -0.32,0.06 -0.47,0.14 -0.18,0.09 -0.37,0.27 -0.52,0.41 -0.03,0.03 -0.04,0.04 -0.08,0.07l-0.39 0.39c-0.42,0.42 -0.83,0.83 -1.24,1.24l-4.96 4.96c-0.42,0.42 -0.82,0.82 -1.24,1.24 -0.34,0.34 -1.02,0.91 -1.02,1.47l0 0.16z"/>
 </g>
</svg>
