<?xml version="1.0" encoding="UTF-8"?>
<!DOCTYPE svg PUBLIC "-//W3C//DTD SVG 1.1//EN" "http://www.w3.org/Graphics/SVG/1.1/DTD/svg11.dtd">
<!-- Creator: CorelDRAW 2018 (64 Bit Versão de avaliação) -->
<svg xmlns="http://www.w3.org/2000/svg" xml:space="preserve" width="10.6956mm" height="10.6956mm" version="1.1" shape-rendering="geometricPrecision" text-rendering="geometricPrecision" image-rendering="optimizeQuality" fill-rule="evenodd" clip-rule="evenodd"
viewBox="0 0 43.33 43.33"
 xmlns:xlink="http://www.w3.org/1999/xlink">
 <g id="Camada_x0020_1">
  <metadata id="CorelCorpID_0Corel-Layer"/>
  <path fill="#333333" d="M2.61 22.55c-0.5,-10.83 7.97,-19.44 18.16,-19.94 10.87,-0.53 19.43,8 19.94,18.19 0.53,10.79 -8,19.44 -18.18,19.92 -10.78,0.51 -19.44,-7.97 -19.91,-18.17zm17.63 -22.49c-11.52,0.8 -20.99,10.57 -20.19,23.08 0.73,11.44 10.67,20.96 23.09,20.14 11.42,-0.76 20.98,-10.65 20.14,-23.09 -0.77,-11.4 -10.65,-20.99 -23.04,-20.13z"/>
  <path fill="#333333" d="M28.71 15.31l2.67 7.54 -5.3 0 2.63 -7.54zm-14.12 -0l2.66 7.54 -5.3 0 2.63 -7.54zm-1.95 -0.44l1.58 0 -2.8 7.98 -1.19 0.01c0.02,1.03 0.37,2.06 1.03,2.8 0.09,0.11 0.14,0.18 0.24,0.28 0.33,0.33 0.84,0.69 1.3,0.89 2.91,1.27 6.11,-0.77 6.15,-3.98l-1.19 -0 -2.78 -7.98 5.61 0.01 -0 15.12c-0.32,0.04 -2.86,0.01 -3.42,0.01 -1.31,0 -0.93,0.04 -1.01,2.43l10.97 -0.01c-0.05,-2.4 0.28,-2.42 -1.01,-2.42 -0.54,0 -3.1,0.03 -3.42,-0.01l0.01 -15.13 5.62 0 -2.8 7.98 -1.19 -0c0.04,3.39 3.51,5.25 6.2,3.96 0.71,-0.34 1.05,-0.64 1.53,-1.18 0.24,-0.27 0.47,-0.67 0.62,-1.01 0.25,-0.54 0.37,-1.11 0.38,-1.77l-1.19 -0.01 -2.78 -7.98 1.57 0 -0.01 -0.88c-1.66,0 -3.49,-0.11 -5.03,-0.53 -1.18,-0.32 -3.02,-1.07 -2.95,-2.56l-2.06 -0c0.04,0.85 -0.57,1.41 -1.03,1.74 -1.66,1.17 -4.94,1.35 -6.96,1.35l-0 0.88z"/>
 </g>
</svg>
