<?xml version="1.0" encoding="UTF-8"?>
<!DOCTYPE svg PUBLIC "-//W3C//DTD SVG 1.1//EN" "http://www.w3.org/Graphics/SVG/1.1/DTD/svg11.dtd">
<!-- Creator: CorelDRAW 2018 (64 Bit Versão de avaliação) -->
<svg xmlns="http://www.w3.org/2000/svg" xml:space="preserve" width="10.6958mm" height="10.696mm" version="1.1" shape-rendering="geometricPrecision" text-rendering="geometricPrecision" image-rendering="optimizeQuality" fill-rule="evenodd" clip-rule="evenodd"
viewBox="0 0 1069.62 1069.64"
 xmlns:xlink="http://www.w3.org/1999/xlink">
 <g id="Camada_x0020_1">
  <metadata id="CorelCorpID_0Corel-Layer"/>
  <path fill="#09F6CB" d="M64.43 556.75c-12.33,-267.33 196.62,-479.9 448.34,-492.16 268.31,-13.03 479.83,197.59 492.23,448.97 13.17,266.49 -197.59,479.9 -448.9,491.67 -266.15,12.47 -480.04,-196.76 -491.67,-448.48zm435.18 -555.36c-284.33,19.72 -518.22,260.92 -498.43,569.77 18.04,282.52 263.5,517.52 570.05,497.25 281.89,-18.67 517.87,-262.87 497.11,-570.12 -19.02,-281.4 -262.87,-518.15 -568.73,-496.97l0 0.07z"/>
  <path fill="#09F6CB" d="M518.63 670.04l29.96 0.21c5.36,-22.15 41.66,-319.93 47.1,-365.91 12.26,-103.46 -128.68,-108.47 -122.13,-4.88 2.44,39.15 9.96,84.09 14.84,123.8 9.82,79 16.37,169.45 30.24,246.78l-0.01 0z"/>
  <path fill="#09F6CB" d="M472.58 789.8c4.11,77.89 124.36,75.45 121.43,-7.38 -2.72,-77.89 -125.82,-76.29 -121.43,7.38z"/>
 </g>
</svg>
