<?xml version="1.0" encoding="UTF-8"?>
<!DOCTYPE svg PUBLIC "-//W3C//DTD SVG 1.1//EN" "http://www.w3.org/Graphics/SVG/1.1/DTD/svg11.dtd">
<!-- Creator: CorelDRAW 2018 (64 Bit Versão de avaliação) -->
<svg xmlns="http://www.w3.org/2000/svg" xml:space="preserve" width="8.7696mm" height="9.04mm" version="1.1" shape-rendering="geometricPrecision" text-rendering="geometricPrecision" image-rendering="optimizeQuality" fill-rule="evenodd" clip-rule="evenodd"
viewBox="0 0 18.91 19.5"
 xmlns:xlink="http://www.w3.org/1999/xlink">
 <g id="Camada_x0020_1">
  <metadata id="CorelCorpID_0Corel-Layer"/>
  <path fill="white" d="M8.4 3.91c0.1,-0.39 -0.02,-1.44 0.03,-1.94l2.37 0.01 0.01 1.87c0.01,0.01 2.12,0.48 2.84,1.04 -0.25,0.4 -1.13,1.62 -1.26,1.88 -0.18,-0.09 -0.27,-0.19 -0.45,-0.31 -1.1,-0.74 -3.52,-0.83 -3.99,0.14 -0.56,1.18 2.4,2.03 3.37,2.52 1.25,0.63 2.65,1.61 2.37,3.6 -0.2,1.46 -1.64,2.65 -3.09,2.92l0 1.89 -2.39 -0.01 0 -1.73c-0.07,-0.1 -0.06,-0.07 -0.22,-0.09 -0.07,-0.01 -0.15,-0.02 -0.22,-0.03 -0.87,-0.15 -2.25,-0.65 -2.78,-1.2 0.06,-0.18 1.02,-1.68 1.14,-1.81 0.17,0.09 0.3,0.21 0.47,0.32 0.49,0.31 1.07,0.53 1.67,0.63 2.72,0.43 3.91,-1.22 2.24,-2.32 -1.28,-0.84 -5.08,-1.61 -5.09,-4.18 -0.01,-1.78 1.44,-2.8 2.97,-3.19zm10.5 6.28c0.26,-5.45 -3.87,-9.92 -8.96,-10.18 -5.44,-0.28 -9.68,4.09 -9.93,9.24 -0.26,5.49 3.85,9.98 8.98,10.24 5.46,0.27 9.66,-4.12 9.91,-9.29z"/>
 </g>
</svg>
