<?xml version="1.0" encoding="UTF-8"?>
<!DOCTYPE svg PUBLIC "-//W3C//DTD SVG 1.1//EN" "http://www.w3.org/Graphics/SVG/1.1/DTD/svg11.dtd">
<!-- Creator: CorelDRAW 2018 (64 Bit Versão de avaliação) -->
<svg xmlns="http://www.w3.org/2000/svg" xml:space="preserve" width="9mm" height="9.022mm" version="1.1" shape-rendering="geometricPrecision" text-rendering="geometricPrecision" image-rendering="optimizeQuality" fill-rule="evenodd" clip-rule="evenodd"
viewBox="0 0 899.98 902.18"
 xmlns:xlink="http://www.w3.org/1999/xlink">
 <g id="Camada_x0020_1">
  <metadata id="CorelCorpID_0Corel-Layer"/>
  <rect fill="none" x="0" y="0" width="899.98" height="899.98"/>
  <path fill="#09F6CB" d="M399.84 180.94c4.78,-18.04 -0.98,-66.59 1.45,-89.76l112.78 0.47 0.48 86.45c0.49,0.47 100.86,22.23 135.16,48.07 -11.92,18.52 -53.75,74.94 -59.91,86.93 -8.59,-4.18 -12.81,-8.83 -21.4,-14.35 -52.38,-34.2 -167.51,-38.38 -189.88,6.47 -26.68,54.53 114.15,93.86 160.36,116.55 59.51,29.17 126.07,74.48 112.78,166.53 -9.49,67.54 -78.08,122.54 -146.99,135.07l0 87.4 -113.74 -0.47 0 -79.99c-3.33,-4.65 -2.84,-3.23 -10.46,-4.18 -3.33,-0.47 -7.14,-0.95 -10.46,-1.42 -41.43,-6.93 -107.1,-30.03 -132.31,-55.48 2.83,-8.35 48.57,-77.71 54.23,-83.7 8.11,4.19 14.27,9.7 22.38,14.82 23.35,14.35 50.92,24.51 79.45,29.16 129.4,19.87 186.06,-56.43 106.53,-107.34 -60.89,-38.85 -241.67,-74.48 -242.17,-193.31 -0.48,-82.36 68.51,-129.48 141.32,-147.53l0.48 -0.47 -0.07 0.08zm499.58 290.48c12.4,-252.02 -184.13,-458.82 -426.36,-470.79 -258.87,-12.92 -460.58,189.14 -472.5,427.37 -12.4,253.91 183.15,461.57 427.26,473.63 259.75,12.45 459.6,-190.56 471.51,-429.65l0 -0.47 0.09 -0.09z"/>
 </g>
</svg>
