<?xml version="1.0" encoding="UTF-8"?>
<!DOCTYPE svg PUBLIC "-//W3C//DTD SVG 1.1//EN" "http://www.w3.org/Graphics/SVG/1.1/DTD/svg11.dtd">
<!-- Creator: CorelDRAW 2018 (64 Bit Versão de avaliação) -->
<svg xmlns="http://www.w3.org/2000/svg" xml:space="preserve" width="10.6957mm" height="10.6956mm" version="1.1" shape-rendering="geometricPrecision" text-rendering="geometricPrecision" image-rendering="optimizeQuality" fill-rule="evenodd" clip-rule="evenodd"
viewBox="0 0 46.45 46.45"
 xmlns:xlink="http://www.w3.org/1999/xlink">
 <g id="Camada_x0020_1">
  <metadata id="CorelCorpID_0Corel-Layer"/>
  <path fill="#333333" d="M2.8 24.17c-0.54,-11.61 8.54,-20.84 19.47,-21.37 11.65,-0.57 20.84,8.58 21.38,19.5 0.57,11.57 -8.58,20.84 -19.5,21.35 -11.56,0.54 -20.85,-8.54 -21.35,-19.48zm18.9 -24.12c-12.35,0.86 -22.5,11.33 -21.65,24.74 0.78,12.27 11.44,22.48 24.76,21.59 12.24,-0.81 22.49,-11.41 21.59,-24.76 -0.83,-12.22 -11.42,-22.5 -24.7,-21.58z"/>
  <polygon fill="#333333" fill-rule="nonzero" points="21.8,31.32 21.8,24.61 15.13,24.61 15.13,21.8 21.8,21.8 21.8,15.13 24.65,15.13 24.65,21.8 31.32,21.8 31.32,24.61 24.65,24.61 24.65,31.32 "/>
 </g>
</svg>
