<?xml version="1.0" encoding="UTF-8"?>
<!DOCTYPE svg PUBLIC "-//W3C//DTD SVG 1.1//EN" "http://www.w3.org/Graphics/SVG/1.1/DTD/svg11.dtd">
<!-- Creator: CorelDRAW 2018 (64 Bit Versão de avaliação) -->
<svg xmlns="http://www.w3.org/2000/svg" xml:space="preserve" width="10.6961mm" height="10.696mm" version="1.1" shape-rendering="geometricPrecision" text-rendering="geometricPrecision" image-rendering="optimizeQuality" fill-rule="evenodd" clip-rule="evenodd"
viewBox="0 0 1069.64 1069.63"
 xmlns:xlink="http://www.w3.org/1999/xlink">
 <g id="Camada_x0020_1">
  <metadata id="CorelCorpID_0Corel-Layer"/>
  <path fill="#5409F6" d="M367.89 647.44c-2.95,-3.4 -5.54,-7.69 -7.95,-11.17l-24.85 -33.69c-14.66,-19.66 -36.38,-45.4 -53,-63.99 -38.52,-43.17 -90.63,-3.31 -78.65,37.81 3.58,12.33 9.3,16.27 15.46,23.77 12.6,15.1 22.88,26.19 35.93,42.72 21.72,27.44 45.4,59.17 64.35,92.06 10.55,18.32 23.33,32.53 48.8,29.14 22.25,-2.86 32.8,-22.52 44.51,-34.23 11.8,-11.8 24.49,-27.44 37.63,-40.13 14.57,-14.03 25.47,-26.19 39.15,-39.41 78.11,-75.61 163.56,-151.76 258.93,-211.03 23.86,-14.84 49.42,-29.49 75.43,-41.65 7.33,-3.4 20.29,-8.49 26.28,-12.96 13.76,-10.19 24.85,-32.89 13.05,-55.68 -8.04,-15.46 -28.6,-29.76 -52.64,-21.72 -24.31,8.13 -82.76,41.2 -102.78,53.54 -32.44,20.02 -64.35,41.74 -92.86,63.55 -15.02,11.53 -29.4,22.34 -43.7,34.05 -7.6,6.26 -14.12,11.71 -21.54,17.7 -33.78,27.26 -71.41,62.83 -103.05,92.68l-78.47 78.56 -0.02 0.07z"/>
  <path fill="#5409F6" d="M64.45 556.63c-12.33,-267.33 196.64,-479.96 448.32,-492.2 268.32,-13.05 479.78,197.62 492.2,448.94 13.14,266.53 -197.62,479.87 -448.94,491.67 -266.17,12.51 -480.05,-196.73 -491.67,-448.5l0.09 0.09zm435.18 -555.31c-284.4,19.75 -518.21,260.9 -498.46,569.79 18.05,282.53 263.49,517.5 570.06,497.3 281.9,-18.68 517.94,-262.86 497.12,-570.15 -19.04,-281.45 -262.86,-518.12 -568.72,-496.94z"/>
 </g>
</svg>
