<?xml version="1.0" encoding="UTF-8"?>
<!DOCTYPE svg PUBLIC "-//W3C//DTD SVG 1.1//EN" "http://www.w3.org/Graphics/SVG/1.1/DTD/svg11.dtd">
<!-- Creator: CorelDRAW 2018 (64 Bit Versão de avaliação) -->
<svg xmlns="http://www.w3.org/2000/svg" xml:space="preserve" width="27.6627mm" height="31.942mm" version="1.1" shape-rendering="geometricPrecision" text-rendering="geometricPrecision" image-rendering="optimizeQuality" fill-rule="evenodd" clip-rule="evenodd"
viewBox="0 0 1079.91 1246.97"
 xmlns:xlink="http://www.w3.org/1999/xlink">
 <defs>
   <clipPath id="id0">
    <path d="M539.96 22.54l260.22 150.24 260.22 150.24 0 300.47 0 300.48 -260.22 150.24 -260.22 150.24 -260.22 -150.24 -260.22 -150.24 0 -300.48 0 -300.47 260.22 -150.24 260.22 -150.24z"/>
   </clipPath>
 </defs>
 <g id="Camada_x0020_1">
  <metadata id="CorelCorpID_0Corel-Layer"/>
  <polygon fill="#E8DEFF" points="539.96,22.54 800.17,172.77 1060.39,323.01 1060.39,623.49 1060.39,923.96 800.17,1074.2 539.96,1224.44 279.74,1074.2 19.52,923.96 19.52,623.49 19.52,323.01 279.74,172.77 "/>
  <g clip-path="url(#id0)">
   <g id="_2059238861744">
    <path id="1" fill="#D8C7FF" fill-opacity="0.501961" d="M112.66 335.99l102.83 351.09 62.45 0c0,108.58 -88,196.59 -196.58,196.59 -108.57,0 -196.58,-88.01 -196.58,-196.59l62.46 0 102.82 -351.09 -65.8 0c-8.21,0 -14.93,-6.72 -14.93,-14.94l0 -8.7c0,-8.21 6.72,-14.93 14.93,-14.93l77.09 0 40.01 0 847.6 0 40.01 0 77.09 0c8.21,0 14.93,6.72 14.93,14.93l0 8.7c0,8.22 -6.72,14.94 -14.93,14.94l-65.8 0 102.82 351.09 62.46 0c0,108.58 -88.01,196.59 -196.58,196.59 -108.57,0 -196.58,-88.01 -196.58,-196.59l62.45 0 102.83 -351.09 -398.67 0 0 713.95 255.35 0c8.21,0 14.93,6.71 14.93,14.93l0 8.7c0,8.22 -6.72,14.93 -14.93,14.93l-255.35 0 -38.56 0 -255.34 0c-8.21,0 -14.92,-6.71 -14.92,-14.93l0 -8.7c0,-8.22 6.71,-14.93 14.92,-14.93l255.34 0 0 -713.95 -387.77 0zm63.05 351.09l-94.34 -322.16 -94.35 322.16 188.69 0zm698.92 0l188.69 0 -94.35 -322.16 -94.34 322.16z"/>
   </g>
  </g>
  <polygon fill="none" stroke="#783CF9" stroke-width="39.04" stroke-miterlimit="22.9256" points="539.96,22.54 800.17,172.77 1060.39,323.01 1060.39,623.49 1060.39,923.96 800.17,1074.2 539.96,1224.44 279.74,1074.2 19.52,923.96 19.52,623.49 19.52,323.01 279.74,172.77 "/>
  <g id="_2059238862928">
   <g>
    <g>
     <path fill="#333333" d="M646.64 620.19c60.01,-11.88 110.25,33.29 118.7,82.77 10.94,63.96 -33.43,111.55 -84.29,120.43 -130.03,22.71 -174.61,-175.44 -34.41,-203.2zm-237.5 -37.88c17.43,4.73 15.6,-3.44 15.97,-19.81l75.97 0.5c0.25,9.27 -1.22,22.03 10.31,20.57 9.4,-1.19 7.3,-10.92 7.55,-21.29l38.84 -0.09c11.22,1.25 4.42,-0.87 8.94,3.08 5.49,5.75 2.74,45.69 0.35,47.65 -9.24,2.85 -198.41,2.64 -213.61,0.51l-0.89 -39.25c0,-16.94 15.17,-12.64 54.39,-11.75l2.18 19.89zm63.55 -90.18c0.25,10.04 -1.59,22.22 9.85,21.26 10.19,-0.86 7.98,-11.84 8.24,-20.66 11.68,-1.42 23.74,-0.62 35.55,-0.79 15.21,-0.22 21.21,-3.47 21.21,12.02 0,40.54 3.65,39.95 -11.63,39.95 -63.76,0 -127.51,0 -191.27,0 -17.66,0 -13.98,2.19 -13.98,-39.95 0,-17.4 11.88,-11.83 29.42,-12 0.4,14.14 -2.47,21.96 13.11,20.9 6.17,-7.41 4.29,-8.17 4.63,-20.84l94.87 0.11zm-70.26 -48.43c10.81,-1.06 8.01,-10.99 8.77,-21.03l94.63 -0c0.77,8.79 0.41,14.17 3.89,20.13 18.05,2.46 13.41,-6.23 14.78,-20.46 42.29,-0.6 56.2,-5.82 56.2,11.41 0,44.65 3.02,40.58 -13.32,40.58l-191.27 0c-15.57,0 -12,-2.97 -12,-40.58 0,-16.52 11.88,-11.6 28.41,-11.44 1.02,10.8 -1.99,22.56 9.91,21.4zm-56.24 30.33c-29.26,1.49 -33.31,7.38 -33.18,37.15 0.11,24.88 -4.14,46.01 22.51,50 -0.85,65.26 2.07,50.15 -10.08,56.71 -22.56,12.18 -10.18,71.04 -9.56,72.17 2.53,4.67 4.37,5.72 8.75,8.34 6.78,4.05 9.47,3.23 10.31,8.94l0 43.58c-1.05,6.3 -4.94,4.46 -12.38,9.32 -14.86,9.72 -9.21,39.44 -9.58,63.32l-17.31 3.41c-1.69,12.62 -1.4,15.31 12.43,16.21l450.72 0.02c14.31,0.05 20.25,0.28 19.31,-15.13 -12.71,-5.43 -34.06,-2.1 -50.03,-3.02 42.4,-33.68 68.24,-77.96 51.88,-136.57 -32.1,-114.99 -195.47,-116.9 -231.47,-4.75 -14.17,44.15 -3.06,84.17 23.82,117.96 8.69,10.93 18.15,14.39 26.61,23.67l-252.12 0.2c-15.84,-0.33 -18.56,0.5 -16.33,-38.54 0.94,-16.39 4.95,-14.43 37.66,-13.61 1.35,13.89 -2.92,22.92 14.65,20.38 3.15,-5.2 3.37,-11.84 4.02,-20.06l75.9 -0.5c1.01,11.2 -2.04,20.37 7.96,21.47 12.28,1.34 9.91,-11.19 10.65,-20.87 12.25,-1.25 51.05,5.69 49.54,-10.56 -1.32,-14.15 -42.53,-8.29 -55.5,-8.29l-106.78 0.2c-16.97,-0.36 -16.12,-1.72 -16.1,-26.05 0.03,-30.13 -6.71,-27.47 54.51,-26.05l1.87 19.29 14.1 0.77 2.56 -19.84c25.48,-1.5 55.3,-0.6 81.34,-0.32 9.24,0.1 34.99,2.15 25.89,-13.72 -4.81,-8.39 -27.67,-4.65 -38.02,-4.64 -23.25,0.02 -150.46,2.44 -162.13,-1.49 -2.81,-5.88 -3.95,-42.78 0.57,-47.55 5.7,-6 40.63,-3.02 49.75,-2.86l1.42 19.9c16.65,4.43 16.17,-4.28 16.73,-19.57l85.4 -0.37c0.36,9.97 -1.44,20.3 8.64,21.31 11.45,1.14 9.13,-11.15 9.64,-21.38 16.29,-0.01 31.99,-0.28 48.2,-0.69 34.97,-0.89 37.17,-12.24 33.96,-62.7 -1.29,-20.36 -9.98,-18.35 -22.04,-26.52l0.16 -50.65c17.02,-0.05 30.23,-2.87 32.85,-20.26 1.33,-8.84 1.3,-45.63 -1.46,-52.55 -6.17,-15.46 -22.74,-14.74 -41.16,-14.66 -239.07,1.12 -205.24,-16.64 -209.09,69.46z"/>
     <path fill="#333333" d="M643.47 651.45c95.25,-28.23 131.81,115.12 40.33,140.73 -93.17,26.08 -133.8,-113.02 -40.33,-140.73zm8.99 -20.03c-46.12,5.79 -87.12,47.28 -79.38,101.89 17.03,120.14 198.43,95.18 180.55,-25.79 -6.67,-45.16 -48.81,-82.68 -101.18,-76.1z"/>
     <path fill="#09F6CB" d="M672.9 730.33l12.47 0.12 -0.34 26.96 -12.84 -0.31 0.71 -26.77zm-31.45 -44.73l13.27 0.08 -0.04 27.05 -13.29 0.02 0.05 -27.15zm12.08 44.56l0.82 27.25 -12.81 -0.39c-0.68,-10.54 0.61,-10.39 -3.35,-18.31 -11.37,-0.59 -13.58,-1.11 -14.64,10 -2.88,30.06 19.11,22.89 30.98,28.87 5.01,2.52 -2.66,2.39 9.72,5.01 7.96,-3.71 3.96,-4.42 10.6,-6.44 12.41,-3.79 27.75,5.13 28.46,-25.06 0.89,-38.1 0.57,-34.03 -31.02,-39.25l0.18 -25.29 11.15 -0.94 3.51 17.87 14.53 0.8c5.24,-19.82 2.6,-33.25 -18.08,-35.95 -20.41,-2.67 -7.02,-6.62 -19.32,-6.82 -13.2,-0.21 3.19,3.85 -21.68,6.77 -21.37,2.51 -18.81,14.92 -18.68,36.74 0.14,23.65 6.25,25.06 29.65,25.14z"/>
     <path fill="#333333" d="M654.83 561.81c-12.22,-5.16 -5.64,-9.7 -22.19,-9.09 -7.12,11 -3.09,13.91 7.31,21.5 27.76,20.25 20.99,19.9 45.13,1.42 9.66,-7.4 15.74,-6.23 11.66,-21.96 -13.46,-3.47 -14.82,3.85 -24.21,7.48l0.22 -69.53c-0.08,-9.45 1.35,-16.46 -8.7,-17.04 -14,-0.82 -9.08,26.73 -9.07,39.05 0.01,16.01 0.22,32.17 -0.15,48.16z"/>
     <path fill="#09F6CB" d="M737.9 575.25c-9.98,-5.48 -12.79,-12.31 -23.74,-6.84 -5.46,11.81 2.55,14.86 10.27,20.62 24.83,18.5 19.44,18.64 42.55,0.72 7.76,-6.02 17.47,-9.34 11.52,-20.76 -7.12,-7.92 -18.91,4.04 -23.29,6.02 0.15,-15.61 0.07,-31.22 0.07,-46.83 0,-10.4 5.43,-39.47 -8.73,-39.46 -13.92,0.01 -8.75,26.9 -8.74,37.04 0.02,16.5 -0.08,33 0.08,49.5z"/>
    </g>
   </g>
   <rect fill="#09F6CB" x="442.45" y="458.78" width="61.99" height="10.11"/>
   <rect fill="#09F6CB" x="363.61" y="600.83" width="69.7" height="10.11"/>
   <rect fill="#09F6CB" x="365.95" y="812.39" width="143.95" height="10.11"/>
  </g>
 </g>
</svg>
