<?xml version="1.0" encoding="UTF-8"?>
<!DOCTYPE svg PUBLIC "-//W3C//DTD SVG 1.1//EN" "http://www.w3.org/Graphics/SVG/1.1/DTD/svg11.dtd">
<!-- Creator: CorelDRAW 2018 (64 Bit Versão de avaliação) -->
<svg xmlns="http://www.w3.org/2000/svg" xml:space="preserve" width="94.2491mm" height="92.5501mm" version="1.1" shape-rendering="geometricPrecision" text-rendering="geometricPrecision" image-rendering="optimizeQuality" fill-rule="evenodd" clip-rule="evenodd"
viewBox="0 0 9424.88 9254.98"
 xmlns:xlink="http://www.w3.org/1999/xlink">
 <g id="Camada_x0020_1">
  <metadata id="CorelCorpID_0Corel-Layer"/>
  <g id="_1970204093808">
   <path fill="#FF707E" d="M1083.05 8106.07c-51.73,-220 207.51,-483.9 436.33,-443.97 53.53,227.97 -205.37,494.24 -436.33,443.97zm1532.5 -522.37c-136.28,259.73 -575.3,384.39 -422.66,67.72 149.06,-309.26 586.61,-380.17 422.66,-67.72zm1391.71 -316.34c-122.37,267.94 -566.06,461.71 -447.8,130.02 103.62,-290.61 578.77,-416.79 447.8,-130.02zm1227.52 -560.78c100.33,209.16 -298.78,553.21 -425.97,423.01 -114.17,-116.88 220.96,-512.22 425.97,-423.01zm-3464.6 67.16c-19.24,26.47 -205.39,218.2 -259.15,235.68 -170.84,55.56 -207.77,-80.27 -132.36,-208.57 196.18,-333.79 606.32,-322.73 391.51,-27.11zm823.71 -181.81c-40.25,-232.2 219.23,-495.77 443.43,-441.01 53.84,234.14 -207.7,488.33 -443.43,441.01zm1794.62 -762.87c-13.98,21.86 -208.28,191.53 -246.86,208.15 -309.63,133.39 -170.54,-298.5 102.97,-433.09 204.39,-100.58 231.24,88.4 143.89,224.94zm-2324.67 -465.64c-48.13,91.64 -153.65,210.31 -248.78,253.54 -174.35,79.23 -239.46,-46.76 -170.64,-172.34 153.82,-280.71 589.41,-404.94 419.42,-81.2zm942.14 -281.29c-52.74,-234.86 273.48,-535.22 417.08,-451.18 133.83,78.32 -17.1,241.56 -71.06,295.96 -94.21,94.97 -149.32,178.53 -346.02,155.22zm-668.7 -1093.79c-42.31,75.72 -165.45,208.47 -244.03,248.55 -165.25,84.29 -258.26,-11.46 -171.93,-172.92 150.59,-281.62 598.21,-401.74 415.96,-75.63zm146.83 -983.88c-71.24,-282.8 184.37,-331.17 403.83,-444.96 200.39,-103.9 388.01,-195.61 595.42,-285.36 679.81,-294.18 901.83,-252.16 1388.01,-410.37 -332.69,-295.89 -694.04,-372.74 -1280.27,-326.11 -2309.63,183.7 -2827.5,3119.93 -3266.82,4913.56 -119.43,487.59 -388.81,610.94 -310.08,1308.99 127.02,1126.27 1349.97,1849.78 2442.03,1315.05 455.73,-223.15 2198.41,-446.18 3214.34,-878.64 781.02,-332.46 1504.35,-785.19 1891.51,-1387.57 587.83,-914.58 113.92,-2292.29 -246.51,-2445.49 47.75,637.03 76.06,981.72 -161.95,1543.39 -103.2,243.53 -451.36,977.66 -571.78,1145.7 -270.16,32.37 -368.4,-244.51 -597.96,-639.62 -146.64,-252.39 -313.08,-479.08 -452.59,-745.65 -496.84,-949.36 -181.21,-1465.1 -112.24,-2029.85 -892.66,-1.5 -2201.81,-222.08 -2934.95,-633.07z"/>
   <path fill="#FF707E" d="M3697.63 96.92c33.36,311.85 505.55,956.58 674.23,1122.19 599.18,588.3 771.64,551.22 996.13,751.65 -1233.01,268.42 -1458.99,200.76 -2586.74,835.25l-121.06 89.35c234.67,141.84 1044.16,380.4 1354.37,443.9 565.48,115.75 1038.07,131.5 1630.12,135.61 -3.26,324 -463.61,976.74 -49.11,1950.36 114.03,267.84 678.99,1140.65 867.19,1459.24 149.43,-126.87 236.09,-418.03 324.68,-604.07 621.57,-1305.25 334.28,-984.08 341.26,-2258.35 536.35,247.51 705.22,747.96 2296.19,1257.48 -27.46,-180.58 -755.61,-1618.86 -876.17,-1783.3 -339.95,-463.7 -1028.56,-833.45 -1552.67,-1085.6 58.17,-90.88 10.1,-30.3 90.41,-97.71 273.66,-229.7 892.83,-450.48 1244.19,-519.02 411.04,-80.17 257.36,-291.36 202.39,-327.88 -165.63,-110.05 -846.62,152.99 -1010.61,225.12 -159.01,69.93 -270.81,124.47 -421.6,212.69 -107.29,62.78 -277.41,198.02 -384.44,238.11 -195.87,-196.42 -425.83,-857.35 -1230.62,-1332.91 -254.91,-150.64 -1467.44,-679.49 -1755.61,-771.4 -65.98,31.55 -86.88,-36.94 -32.56,59.31l0.03 -0.01z"/>
  </g>
  <path fill="#FF707E" d="M3697.63 96.92c-54.32,-96.25 -33.42,-27.76 32.56,-59.31 -39.11,-27.27 68.12,-51.39 -107.84,-28.42l75.28 87.73z"/>
 </g>
</svg>
