<?xml version="1.0" encoding="UTF-8"?>
<!DOCTYPE svg PUBLIC "-//W3C//DTD SVG 1.1//EN" "http://www.w3.org/Graphics/SVG/1.1/DTD/svg11.dtd">
<!-- Creator: CorelDRAW 2018 (64 Bit Versão de avaliação) -->
<svg xmlns="http://www.w3.org/2000/svg" xml:space="preserve" width="100mm" height="100mm" version="1.1" shape-rendering="geometricPrecision" text-rendering="geometricPrecision" image-rendering="optimizeQuality" fill-rule="evenodd" clip-rule="evenodd"
viewBox="0 0 10000 10000"
 xmlns:xlink="http://www.w3.org/1999/xlink">
 <g id="Camada_x0020_1">
  <metadata id="CorelCorpID_0Corel-Layer"/>
  <path fill="white" fill-rule="nonzero" d="M5574.87 9268.34l0 731.66 -1149.75 0 0 -731.66c-497.01,-91.72 -934.3,-305.03 -1311.86,-644.19 -413.82,-364.77 -678.33,-895.91 -793.51,-1593.43l1324.66 -424.49c70.39,607.93 213.31,1008.96 430.88,1200.94 108.79,95.99 223.98,172.78 349.83,230.37l0 -2587.46c-479.95,-179.18 -915.1,-441.55 -1305.46,-787.11 -518.34,-454.35 -776.45,-1002.56 -776.45,-1642.5 0,-642.06 260.24,-1194.53 780.72,-1657.42 375.42,-332.76 808.45,-546.07 1301.19,-637.8l0 -725.25 1149.75 0 0 725.25c494.88,91.73 932.17,307.17 1311.86,644.2 411.69,366.89 676.19,898.04 793.51,1593.43l-1324.66 424.49c-70.39,-607.94 -213.31,-1006.83 -430.88,-1198.81 -108.79,-95.99 -226.11,-172.78 -349.83,-232.51l0 2587.46c479.95,179.18 915.1,441.56 1305.46,787.12 516.21,454.35 774.32,1002.56 774.32,1644.62 0,642.07 -258.11,1192.41 -774.32,1648.9 -379.69,339.16 -814.85,552.47 -1305.46,644.19zm-1149.75 -5181.31l0 -2130.98c-121.58,55.47 -234.64,127.99 -337.03,219.71 -258.1,228.25 -388.22,509.82 -388.22,844.71 0,324.24 125.85,599.41 375.42,823.38 95.99,83.2 211.18,164.25 349.83,243.18zm1149.75 1819.54l0 2130.97c121.58,-53.33 234.64,-130.12 343.43,-223.97 253.84,-226.11 381.82,-505.55 381.82,-838.32 0,-324.23 -125.85,-599.4 -375.42,-825.51 -95.99,-83.19 -213.31,-164.25 -349.83,-243.17z"/>
 </g>
</svg>
