<?xml version="1.0" encoding="UTF-8"?>
<!DOCTYPE svg PUBLIC "-//W3C//DTD SVG 1.1//EN" "http://www.w3.org/Graphics/SVG/1.1/DTD/svg11.dtd">
<!-- Creator: CorelDRAW 2018 (64 Bit Versão de avaliação) -->
<svg xmlns="http://www.w3.org/2000/svg" xml:space="preserve" width="9.038mm" height="9.038mm" version="1.1" shape-rendering="geometricPrecision" text-rendering="geometricPrecision" image-rendering="optimizeQuality" fill-rule="evenodd" clip-rule="evenodd"
viewBox="0 0 20.08 20.08"
 xmlns:xlink="http://www.w3.org/1999/xlink">
 <g id="Camada_x0020_1">
  <metadata id="CorelCorpID_0Corel-Layer"/>
  <path fill="#FEFEFE" d="M1.73 0l16.61 0c0.95,0 1.73,0.78 1.73,1.73l0 16.61c0,0.95 -0.78,1.73 -1.73,1.73l-16.61 0c-0.95,0 -1.73,-0.78 -1.73,-1.73l0 -16.61c0,-0.95 0.78,-1.73 1.73,-1.73zm2 12.59l12.61 0 0 2.04 -12.61 0 0 -2.04zm0 -3.58l12.61 0 0 2.04 -12.61 0 0 -2.04zm0 -3.58l12.61 0 0 2.04 -12.61 0 0 -2.04z"/>
 </g>
</svg>
