<?xml version="1.0" encoding="UTF-8"?>
<!DOCTYPE svg PUBLIC "-//W3C//DTD SVG 1.1//EN" "http://www.w3.org/Graphics/SVG/1.1/DTD/svg11.dtd">
<!-- Creator: CorelDRAW 2018 (64 Bit Versão de avaliação) -->
<svg xmlns="http://www.w3.org/2000/svg" xml:space="preserve" width="6.133mm" height="6.134mm" version="1.1" shape-rendering="geometricPrecision" text-rendering="geometricPrecision" image-rendering="optimizeQuality" fill-rule="evenodd" clip-rule="evenodd"
viewBox="0 0 11.77 11.77"
 xmlns:xlink="http://www.w3.org/1999/xlink">
 <g id="Camada_x0020_1">
  <metadata id="CorelCorpID_0Corel-Layer"/>
  <path fill="#333333" d="M4.25 1.04c0.15,-0.01 0.38,-0.02 0.54,0 0.35,0.04 0.62,0.08 0.97,0.22 0.22,0.08 0.4,0.17 0.59,0.29l0.38 0.27c0.05,0.04 0.07,0.06 0.11,0.1 0.04,0.04 0.08,0.07 0.12,0.11 0.02,0.02 0.04,0.04 0.06,0.06 0.02,0.02 0.03,0.03 0.05,0.05 0.07,0.08 0.14,0.16 0.2,0.23 0.74,0.89 0.95,2.31 0.52,3.39 -0.09,0.22 -0.17,0.4 -0.29,0.59 -0.21,0.34 -0.32,0.45 -0.59,0.72 -0.07,0.07 -0.14,0.14 -0.23,0.2 -0.15,0.11 -0.34,0.25 -0.53,0.34 -0.42,0.21 -0.81,0.34 -1.34,0.39 -1.39,0.13 -2.81,-0.68 -3.41,-1.93 -0.11,-0.23 -0.2,-0.47 -0.26,-0.72 -0.17,-0.69 -0.11,-1.33 0.1,-2 0.01,-0.03 0.01,-0.04 0.03,-0.08l0.14 -0.31c0.05,-0.1 0.1,-0.19 0.15,-0.28 0.23,-0.37 0.47,-0.64 0.82,-0.92 0.52,-0.42 1.18,-0.67 1.89,-0.74zm-4.25 3.24l0 0.54c0.03,0.08 0.03,0.24 0.04,0.34 0.05,0.32 0.11,0.61 0.22,0.92 0.14,0.37 0.31,0.71 0.51,1 1.27,1.86 3.68,2.53 5.69,1.58l0.37 -0.19c0.04,-0.02 0.07,-0.04 0.11,-0.07l0.12 -0.07c0.05,0.04 0.1,0.1 0.15,0.15l0.43 0.44c0.19,0.2 0.38,0.38 0.57,0.57l1.71 1.73c0.16,0.15 0.41,0.46 0.61,0.53 0.16,0.05 0.34,0.04 0.48,-0.03 0.1,-0.06 0.22,-0.19 0.29,-0.28l0.27 -0.3c0.21,-0.22 0.14,-0.19 0.21,-0.35l0 -0.16c-0.04,-0.08 -0.02,-0.16 -0.14,-0.3 -0.15,-0.18 -1.34,-1.35 -1.53,-1.53l-1.75 -1.75 0.24 -0.42c0.23,-0.46 0.4,-0.98 0.46,-1.51 0.17,-1.54 -0.36,-2.83 -1.38,-3.85l-0.36 -0.31c-0.12,-0.09 -0.24,-0.18 -0.39,-0.27 -0.26,-0.16 -0.57,-0.31 -0.89,-0.42 -2.52,-0.84 -5.08,0.56 -5.82,2.93 -0.05,0.17 -0.1,0.34 -0.13,0.52 -0.02,0.09 -0.06,0.55 -0.08,0.58z"/>
 </g>
</svg>
