<?xml version="1.0" encoding="UTF-8"?>
<!DOCTYPE svg PUBLIC "-//W3C//DTD SVG 1.1//EN" "http://www.w3.org/Graphics/SVG/1.1/DTD/svg11.dtd">
<!-- Creator: CorelDRAW 2018 (64 Bit Versão de avaliação) -->
<svg xmlns="http://www.w3.org/2000/svg" xml:space="preserve" width="9.038mm" height="9.04mm" version="1.1" shape-rendering="geometricPrecision" text-rendering="geometricPrecision" image-rendering="optimizeQuality" fill-rule="evenodd" clip-rule="evenodd"
viewBox="0 0 20.08 20.08"
 xmlns:xlink="http://www.w3.org/1999/xlink">
 <g id="Camada_x0020_1">
  <metadata id="CorelCorpID_0Corel-Layer"/>
  <path fill="white" d="M6.44 10.07c0,-1.45 0.8,-2.57 2.08,-3.2 1.45,-0.71 3.33,-0.23 4.35,1.01 0.8,0.98 1.02,2.5 0.43,3.64 -0.1,0.2 -0.19,0.37 -0.32,0.54 -0.7,0.9 -1.61,1.49 -3.02,1.49 -1.44,0 -2.68,-0.93 -3.2,-2.06 -0.17,-0.38 -0.32,-0.87 -0.32,-1.42zm0.63 -6.98c-0.17,0.01 -0.75,0.33 -0.91,0.43 -0.15,0.09 -0.26,0.16 -0.41,0.25l-0.4 0.28c-0.29,0 -2.44,-1.03 -2.77,-1.03 -0.25,0 -0.39,0.16 -0.48,0.33 -0.29,0.54 -0.61,1.04 -0.93,1.56l-0.61 1.03c-0.11,0.19 -0.2,0.34 -0.31,0.52 -0.11,0.19 -0.26,0.34 -0.26,0.58 0,0.12 0.11,0.3 0.18,0.36l0.31 0.24c0.4,0.29 1.52,1.2 1.88,1.43 -0.09,1.06 -0.09,0.9 0,1.96 -0.1,0.07 -0.21,0.16 -0.31,0.24 -0.56,0.45 -1.15,0.85 -1.7,1.3 -0.11,0.09 -0.22,0.15 -0.29,0.28 -0.16,0.29 0.03,0.54 0.18,0.77l0.78 1.3c0.05,0.1 0.09,0.17 0.15,0.26l0.92 1.55c0.06,0.11 0.08,0.16 0.18,0.23 0.05,0.04 0.24,0.11 0.31,0.11 0.19,0 2.02,-0.76 2.34,-0.88 0.3,-0.12 0.33,-0.21 0.56,-0.04 0.31,0.22 0.66,0.44 1.01,0.61 0.12,0.06 0.45,0.23 0.57,0.24 0,0.15 0.03,0.29 0.05,0.44 0.02,0.14 0.04,0.27 0.06,0.43l0.25 1.71c0.04,0.26 0.16,0.51 0.48,0.51l4.23 0c0.19,0 0.33,-0.12 0.41,-0.25 0.11,-0.19 0.31,-1.85 0.36,-2.22 0.01,-0.1 0.06,-0.49 0.08,-0.56 0.03,-0.08 -0.01,-0.03 0.08,-0.08l0.35 -0.15c0.44,-0.21 0.83,-0.47 1.23,-0.74 0.14,-0.09 0.33,0.04 0.47,0.09 0.33,0.13 2.16,0.89 2.39,0.89 0.39,0 0.62,-0.59 0.78,-0.86l1.53 -2.58c0.06,-0.09 0.1,-0.17 0.16,-0.26 0.28,-0.47 -0.07,-0.66 -0.4,-0.92 -0.11,-0.09 -0.19,-0.15 -0.31,-0.24 -0.49,-0.36 -1.1,-0.89 -1.57,-1.2 0.12,-0.23 0.12,-1.72 0,-1.96 0.38,-0.25 1.77,-1.34 2.18,-1.66 0.37,-0.28 0.13,-0.65 -0.05,-0.94 -0.11,-0.18 -0.21,-0.35 -0.31,-0.52l-0.92 -1.55c-0.15,-0.25 -0.62,-1.12 -0.81,-1.27 -0.32,-0.26 -0.83,0.06 -1.26,0.23l-1.64 0.64c-0.1,0.04 -0.15,0.07 -0.24,0.01 -0.57,-0.38 -0.9,-0.6 -1.56,-0.88 -0.09,-0.04 -0.07,-0.02 -0.1,-0.09 -0.05,-0.13 -0.3,-2.05 -0.33,-2.25 -0.05,-0.32 -0.07,-0.78 -0.52,-0.78l-4.23 0c-0.31,0 -0.44,0.25 -0.48,0.51 -0.06,0.44 -0.37,2.25 -0.37,2.58z"/>
 </g>
</svg>
