<?xml version="1.0" encoding="UTF-8"?>
<!DOCTYPE svg PUBLIC "-//W3C//DTD SVG 1.1//EN" "http://www.w3.org/Graphics/SVG/1.1/DTD/svg11.dtd">
<!-- Creator: CorelDRAW 2018 (64 Bit Versão de avaliação) -->
<svg xmlns="http://www.w3.org/2000/svg" xml:space="preserve" width="9.038mm" height="9.038mm" version="1.1" shape-rendering="geometricPrecision" text-rendering="geometricPrecision" image-rendering="optimizeQuality" fill-rule="evenodd" clip-rule="evenodd"
viewBox="0 0 20.08 20.08"
 xmlns:xlink="http://www.w3.org/1999/xlink">
 <g id="Camada_x0020_1">
  <metadata id="CorelCorpID_0Corel-Layer"/>
  <path fill="#FEFEFE" d="M1.73 0l16.61 0c0.95,0 1.73,0.78 1.73,1.73l0 16.61c0,0.95 -0.78,1.73 -1.73,1.73l-16.61 0c-0.95,0 -1.73,-0.78 -1.73,-1.73l0 -16.61c0,-0.95 0.78,-1.73 1.73,-1.73zm6.55 12.55l-4.09 -3.87c-0.13,0.21 -0.61,0.64 -0.77,0.82 -0.23,0.24 -0.63,0.61 -0.78,0.87l5.79 5.59 8.46 -9.66c0.19,-0.25 0.43,-0.43 0.57,-0.69l-1.74 -1.48 -6.91 7.88 -0.51 0.55z"/>
 </g>
</svg>
