<?xml version="1.0" encoding="UTF-8"?>
<!DOCTYPE svg PUBLIC "-//W3C//DTD SVG 1.1//EN" "http://www.w3.org/Graphics/SVG/1.1/DTD/svg11.dtd">
<!-- Creator: CorelDRAW 2018 (64 Bit Versão de avaliação) -->
<svg xmlns="http://www.w3.org/2000/svg" xml:space="preserve" width="119.418mm" height="135.449mm" version="1.1" shape-rendering="geometricPrecision" text-rendering="geometricPrecision" image-rendering="optimizeQuality" fill-rule="evenodd" clip-rule="evenodd"
viewBox="0 0 11941.8 13544.93"
 xmlns:xlink="http://www.w3.org/1999/xlink">
 <g id="Camada_x0020_1">
  <metadata id="CorelCorpID_0Corel-Layer"/>
  <g id="_2374479610640">
   <g>
    <path fill="#B3B3B3" d="M5593.48 11614.26l0 -5671.37c0,-419.08 754.18,-419.08 754.18,0l0 5671.37c0,421.85 -754.18,440.42 -754.18,0zm2775.35 331.83c-196.18,0 -392.17,-130.5 -392.17,-331.83l0 -5671.37c0,-425.6 754.18,-438.68 754.18,30.17l0 5580.86c0,274.09 -212.68,392.17 -362.01,392.17zm-5158.53 -392.17l0 -5550.7c0,-538.42 754.18,-450.85 754.18,-60.33l0 5671.37c0,283.24 -391.54,439.65 -647.24,224.89 -78.94,-66.31 -106.94,-155.82 -106.94,-285.23zm-573.17 1991.01l6666.89 0c354.13,0 646.47,-194.02 852.16,-445.01 215.87,-263.4 269.21,-598.22 293.3,-1034.06 23.31,-421.77 70.4,-800.18 91.44,-1235.9 27.04,-560.24 209.91,-2013.59 211.11,-2443.57 1.19,-428.18 171.46,-1950.21 209.39,-2445.3l63.93 -935.1c6.84,-145.15 51.55,-209.46 -62.15,-209.46l-9985.24 0c-129.42,0 -64.29,215.29 -34.61,487.12 54.1,495.46 73.94,1281.93 146.84,1844.17 84.89,654.74 107.18,1752.99 197.87,2456.81 86.04,667.74 88.38,1288.83 147.01,1844 72.42,685.78 21.8,1444.9 494.44,1828.4 66.65,54.08 129.6,97.98 195.53,136.31 127.44,74.09 311.94,151.57 512.1,151.57l-0.01 0.02z"/>
    <path fill="#B3B3B3" d="M4899.64 814.52l2141.85 0c335.23,0 357.92,518.41 482.67,754.17l-3107.19 0c124.75,-235.76 147.44,-754.17 482.67,-754.17zm-1327.33 754.16c-783.67,0 -1571.2,-7.91 -2354.31,-1.29 -629.4,5.32 -1205.38,525.3 -1205.38,1147.64 0,826.17 -135.63,1267.01 482.67,1267.01l11010.91 0c552.07,0 422.33,-647.82 422.33,-1267.01 0,-619.26 -573.88,-1141.32 -1205.44,-1147.59 -782.59,-7.76 -1570.94,1.24 -2354.25,1.24 -9.99,-120.13 -269.65,-878.41 -379.37,-1038.48 -199.48,-291.03 -525.01,-530.2 -917.81,-530.2l-2202.17 0c-217.38,0 -389.52,67.28 -531.65,162.19 -343.59,229.47 -471.38,420.59 -590.89,857.12 -44.37,162.08 -160.77,382.68 -174.64,549.37z"/>
   </g>
  </g>
 </g>
</svg>
